<?xml version="1.0" encoding="utf-8"?>
<!-- Generator: Adobe Illustrator 21.1.0, SVG Export Plug-In . SVG Version: 6.00 Build 0)  -->
<svg version="1.1" id="Layer_1" xmlns="http://www.w3.org/2000/svg" xmlns:xlink="http://www.w3.org/1999/xlink" x="0px" y="0px"
	 viewBox="0 0 359 258" style="enable-background:new 0 0 359 258;" xml:space="preserve">
<style type="text/css">
	.st0{fill:none;stroke:#B280B2;stroke-miterlimit:10;}
	.st1{fill:none;stroke:#B280B2;stroke-miterlimit:10;stroke-dasharray:2.0097,2.0097;}
	.st2{fill:none;stroke:#D89EAB;stroke-miterlimit:10;}
	.st3{fill:none;stroke:#D89EAB;stroke-miterlimit:10;stroke-dasharray:1.9706,1.9706;}
	.st4{fill:none;stroke:#FE6601;stroke-miterlimit:10;}
	.st5{fill:none;stroke:#FE6601;stroke-miterlimit:10;stroke-dasharray:2.0476,2.0476;}
	.st6{fill:none;stroke:#6DBCBC;stroke-miterlimit:10;}
	.st7{fill:none;stroke:#6DBCBC;stroke-miterlimit:10;stroke-dasharray:2.0323,2.0323;}
	.st8{fill:none;stroke:#F49323;stroke-miterlimit:10;}
	.st9{fill:none;stroke:#F49323;stroke-miterlimit:10;stroke-dasharray:1.9764,1.9764;}
	.st10{fill:none;stroke:#B78888;stroke-miterlimit:10;}
	.st11{fill:none;stroke:#B78888;stroke-miterlimit:10;stroke-dasharray:1.9113,1.9113;}
	.st12{fill:none;stroke:#CBCBCB;stroke-miterlimit:10;}
	.st13{fill:none;stroke:#CBCBCB;stroke-miterlimit:10;stroke-dasharray:2.0106,2.0106;}
	.st14{fill:none;stroke:#F1AF1D;stroke-miterlimit:10;}
	.st15{fill:none;stroke:#F1AF1D;stroke-miterlimit:10;stroke-dasharray:2.1388,2.1388;}
	.st16{fill:none;stroke:#F1AF1D;stroke-miterlimit:10;stroke-dasharray:1.9702,1.9702;}
	.st17{fill:none;stroke:#828384;stroke-miterlimit:10;}
	.st18{fill:none;stroke:#828384;stroke-miterlimit:10;stroke-dasharray:2.0537,2.0537;}
	.st19{fill:none;stroke:#3570AB;stroke-miterlimit:10;}
	.st20{fill:none;stroke:#3570AB;stroke-miterlimit:10;stroke-dasharray:1.9557,1.9557;}
	.st21{fill:none;stroke:#F1AF1D;stroke-miterlimit:10;stroke-dasharray:1.9662,1.9662;}
	.st22{fill:none;stroke:#F1AF1D;stroke-miterlimit:10;stroke-dasharray:1.9754,1.9754;}
	.st23{fill:none;stroke:#000000;stroke-miterlimit:10;}
	.st24{fill:none;stroke:#000000;stroke-miterlimit:10;stroke-dasharray:2.1323,2.1323;}
	.st25{fill:#F49323;}
	.st26{fill:#66B1E7;}
	.st27{fill:url(#SVGID_1_);}
	.st28{fill:#FE6601;}
	.st29{fill:#4C4C4C;}
	.st30{fill:url(#SVGID_2_);}
	.st31{fill:none;stroke:#000000;stroke-width:2;stroke-miterlimit:10;}
	.st32{fill:#828384;}
	.st33{fill:#2F3030;}
	.st34{fill:#343535;}
	.st35{fill:#131313;}
	.st36{fill:#CBCBCB;}
	.st37{fill:#FFFFFF;}
	.st38{fill:#BCBBBB;}
	.st39{fill:#F2AF1D;}
	.st40{fill:none;stroke:#BCBBBB;stroke-miterlimit:10;}
	.st41{fill:none;stroke:#BCBBBB;stroke-miterlimit:10;stroke-dasharray:2.0097,2.0097;}
	.st42{fill:none;stroke:#BCBBBB;stroke-miterlimit:10;stroke-dasharray:1.9706,1.9706;}
	.st43{fill:none;stroke:#BCBBBB;stroke-miterlimit:10;stroke-dasharray:2.0476,2.0476;}
	.st44{fill:none;stroke:#BCBBBB;stroke-miterlimit:10;stroke-dasharray:2.0323,2.0323;}
	.st45{fill:none;stroke:#BCBBBB;stroke-miterlimit:10;stroke-dasharray:1.9764,1.9764;}
	.st46{fill:none;stroke:#BCBBBB;stroke-miterlimit:10;stroke-dasharray:1.9113,1.9113;}
	.st47{fill:none;stroke:#BCBBBB;stroke-miterlimit:10;stroke-dasharray:2.0106,2.0106;}
	.st48{fill:none;stroke:#BCBBBB;stroke-miterlimit:10;stroke-dasharray:2.1388,2.1388;}
	.st49{fill:none;stroke:#BCBBBB;stroke-miterlimit:10;stroke-dasharray:1.9702,1.9702;}
	.st50{fill:none;stroke:#BCBBBB;stroke-miterlimit:10;stroke-dasharray:2.0537,2.0537;}
	.st51{fill:none;stroke:#BCBBBB;stroke-miterlimit:10;stroke-dasharray:1.9557,1.9557;}
	.st52{fill:none;stroke:#BCBBBB;stroke-miterlimit:10;stroke-dasharray:1.9662,1.9662;}
	.st53{fill:none;stroke:#BCBBBB;stroke-miterlimit:10;stroke-dasharray:1.9754,1.9754;}
	.st54{fill:none;stroke:#BCBBBB;stroke-miterlimit:10;stroke-dasharray:2.1323,2.1323;}
	.st55{fill:#B280B2;}
	.st56{fill:#637AAD;}
	.st57{fill:#6DBCBC;stroke:#6DBCBC;stroke-miterlimit:10;}
	.st58{fill:#EFC878;}
	.st59{fill:#C1B9B9;}
	.st60{fill:#84B79B;}
	.st61{fill:url(#SVGID_3_);}
	.st62{fill:#B0A7B7;}
	.st63{fill:url(#SVGID_4_);}
	.st64{fill:none;stroke:#637AAD;stroke-miterlimit:10;}
	.st65{fill:none;stroke:#637AAD;stroke-miterlimit:10;stroke-dasharray:1.9706,1.9706;}
	.st66{fill:none;stroke:#F2AF1D;stroke-miterlimit:10;}
	.st67{fill:none;stroke:#F2AF1D;stroke-miterlimit:10;stroke-dasharray:1.9113,1.9113;}
	.st68{fill:none;stroke:#EFC878;stroke-miterlimit:10;}
	.st69{fill:none;stroke:#EFC878;stroke-miterlimit:10;stroke-dasharray:2.1388,2.1388;}
	.st70{fill:none;stroke:#84B79B;stroke-miterlimit:10;}
	.st71{fill:none;stroke:#84B79B;stroke-miterlimit:10;stroke-dasharray:1.9702,1.9702;}
	.st72{fill:none;stroke:#B0A7B7;stroke-miterlimit:10;}
	.st73{fill:none;stroke:#B0A7B7;stroke-miterlimit:10;stroke-dasharray:1.9662,1.9662;}
	.st74{fill:none;stroke:#A7B0CE;stroke-miterlimit:10;}
	.st75{fill:none;stroke:#A7B0CE;stroke-miterlimit:10;stroke-dasharray:1.9754,1.9754;}
	.st76{fill:#6DBCBC;}
	.st77{fill:#A7B0CE;}
	.st78{fill:url(#SVGID_5_);}
	.st79{fill:url(#SVGID_6_);}
</style>
<g>
	<g>
		<line class="st40" x1="164.5" y1="132.7" x2="163.8" y2="133.5"/>
		<line class="st41" x1="162.4" y1="135" x2="122.6" y2="178.8"/>
		<line class="st40" x1="121.9" y1="179.6" x2="121.2" y2="180.3"/>
	</g>
</g>
<g>
	<g>
		<line class="st40" x1="168.2" y1="136.2" x2="168.1" y2="137.2"/>
		<line class="st42" x1="167.8" y1="139.2" x2="157.5" y2="212.4"/>
		<line class="st40" x1="157.4" y1="213.3" x2="157.2" y2="214.3"/>
	</g>
</g>
<g>
	<g>
		<line class="st40" x1="160" y1="128.5" x2="159" y2="128.7"/>
		<line class="st43" x1="157" y1="129.2" x2="82.5" y2="147.8"/>
		<line class="st40" x1="81.5" y1="148.1" x2="80.6" y2="148.3"/>
	</g>
</g>
<g>
	<g>
		<line class="st40" x1="159.5" y1="124" x2="158.5" y2="123.8"/>
		<line class="st44" x1="156.5" y1="123.3" x2="110" y2="112.3"/>
		<line class="st40" x1="109.1" y1="112.1" x2="108.1" y2="111.8"/>
	</g>
</g>
<g>
	<g>
		<line class="st40" x1="157.2" y1="116.7" x2="156.4" y2="116.2"/>
		<line class="st45" x1="154.8" y1="115" x2="107.3" y2="81.1"/>
		<line class="st40" x1="106.5" y1="80.6" x2="105.7" y2="80"/>
	</g>
</g>
<g>
	<g>
		<line class="st40" x1="167.5" y1="115" x2="167.2" y2="114"/>
		<line class="st46" x1="166.6" y1="112.2" x2="154.8" y2="76.9"/>
		<line class="st40" x1="154.5" y1="75.9" x2="154.2" y2="75"/>
	</g>
</g>
<g>
	<g>
		<line class="st40" x1="173.5" y1="129.7" x2="173.9" y2="130.7"/>
		<line class="st47" x1="174.7" y1="132.5" x2="193.9" y2="175.7"/>
		<line class="st40" x1="194.3" y1="176.6" x2="194.7" y2="177.5"/>
	</g>
</g>
<g>
	<g>
		<line class="st40" x1="211.5" y1="108.5" x2="211.3" y2="109.5"/>
		<line class="st48" x1="211" y1="111.6" x2="207.5" y2="135.9"/>
		<line class="st40" x1="207.4" y1="137" x2="207.2" y2="138"/>
	</g>
</g>
<g>
	<g>
		<line class="st40" x1="217.5" y1="105.2" x2="217.8" y2="106.2"/>
		<line class="st49" x1="218.4" y1="108.1" x2="235.1" y2="159.6"/>
		<line class="st40" x1="235.4" y1="160.5" x2="235.7" y2="161.5"/>
	</g>
</g>
<g>
	<g>
		<line class="st40" x1="225" y1="103.2" x2="225.8" y2="103.8"/>
		<line class="st50" x1="227.4" y1="105" x2="273.1" y2="138.3"/>
		<line class="st40" x1="273.9" y1="138.9" x2="274.7" y2="139.5"/>
	</g>
</g>
<g>
	<g>
		<line class="st40" x1="226.2" y1="95" x2="227.2" y2="95.1"/>
		<line class="st51" x1="229.2" y1="95.2" x2="286.7" y2="98.9"/>
		<line class="st40" x1="287.7" y1="98.9" x2="288.7" y2="99"/>
	</g>
</g>
<g>
	<g>
		<line class="st40" x1="228.2" y1="86.7" x2="229.1" y2="86.2"/>
		<line class="st52" x1="230.8" y1="85.3" x2="247" y2="76"/>
		<line class="st40" x1="247.9" y1="75.5" x2="248.7" y2="75"/>
	</g>
</g>
<g>
	<g>
		<line class="st40" x1="247.2" y1="46" x2="246.6" y2="46.8"/>
		<line class="st53" x1="245.5" y1="48.4" x2="221.4" y2="83.4"/>
		<line class="st40" x1="220.8" y1="84.2" x2="220.2" y2="85"/>
	</g>
</g>
<g>
	<g>
		<line class="st40" x1="204.7" y1="55.5" x2="204.9" y2="56.5"/>
		<line class="st54" x1="205.4" y1="58.6" x2="210.8" y2="82.5"/>
		<line class="st40" x1="211" y1="83.5" x2="211.2" y2="84.5"/>
	</g>
</g>
<circle class="st55" cx="116.2" cy="185.5" r="7.8"/>
<circle class="st56" cx="156.5" cy="221.7" r="7.8"/>
<circle class="st57" cx="103.1" cy="110.6" r="5.1"/>
<circle class="st39" cx="151.7" cy="67.5" r="6.3"/>
<circle class="st58" cx="206.8" cy="143.2" r="4.4"/>
<circle class="st59" cx="251.2" cy="39.7" r="5.3"/>
<circle class="st60" cx="237.8" cy="167.2" r="5.8"/>
<g>
	<path class="st25" d="M94.9,55.8c7.4,0,13.5,6.2,13.6,13.5c0.1,7.8-6.2,14-13.6,14c-7.4,0-13.8-6-13.8-13.8
		C81.1,61.8,87.2,55.8,94.9,55.8z M105.4,69.6c0-5.9-4.7-10.8-10.6-10.8c-5.9-0.1-10.7,4.7-10.8,10.6c0,6,4.7,10.8,10.6,10.9
		C100.6,80.3,105.4,75.6,105.4,69.6z"/>
	<path class="st25" d="M93.8,63.2c0.4,0.1,0.7,0.1,1.1,0c0-0.9,0-1.7,0-2.6c0.6,0,1.1,0,1.7,0c0,0.7,0,1.5,0,2.2
		c0,0.4,0.1,0.5,0.5,0.6c0.9,0.1,1.7,0.3,2.4,0.8c1.5,1,1.7,3.1,0.3,4.4c-0.1,0.1-0.3,0.2-0.4,0.4c0.3,0.2,0.6,0.3,0.9,0.5
		c0.8,0.6,1.3,1.4,1.3,2.4c0,1.1-0.2,2.1-1,2.8c-0.8,0.8-1.7,1-2.8,1.1c-0.4,0-0.8,0-1.3,0c0,0.9,0,1.8,0,2.8c-0.6,0.1-1.1,0-1.7,0
		c0-0.9,0-1.8,0-2.7c-0.4-0.1-0.7,0-1.1-0.1c0,0.9,0,1.8,0,2.7c-0.6,0-1.1,0-1.7,0c0-0.9,0-1.8,0-2.7c-1.1,0-2.2,0-3.2,0
		c0-0.5,0-1,0-1.5c0-0.2,0.1-0.3,0.3-0.3c0.3,0,0.5,0,0.8,0c0.6,0,0.8-0.2,0.9-0.8c0-1.6,0-3.1,0-4.7c0-0.9,0-1.8,0-2.6
		c0-0.6-0.2-0.8-0.8-0.8c-0.4,0-0.9,0-1.3,0c0-0.6,0-1.2,0-1.8c1.1,0,2.2,0,3.3,0c0-0.9,0-1.8,0-2.7c0.6,0,1.1,0,1.7,0
		C93.8,61.4,93.8,62.3,93.8,63.2z M93.7,70.2c0,1.1,0,2.2,0,3.3c0,0.2,0,0.3,0.2,0.3c1,0,1.9,0.1,2.9-0.1c0.9-0.3,1.5-1,1.4-2
		c0-0.7-0.6-1.2-1.6-1.4C95.7,70.1,94.8,70.2,93.7,70.2z M93.8,65.1c0,0.9,0,1.8,0,2.6c0,0.1,0,0.3,0,0.4c0,0.2,0.2,0.3,0.3,0.3
		c0.6,0,1.1,0,1.7,0c0.9,0,1.5-0.6,1.7-1.5c0.1-0.8-0.3-1.3-1.2-1.6C95.5,65.1,94.7,65.1,93.8,65.1z"/>
</g>
<g>
	<path class="st28" d="M61.5,144c0,0.1,0,0.1,0,0.2c0,3,0,6,0,9c0,0.3,0,0.2-0.2,0.2c-1,0-2,0-2.9,0c-0.1,0-0.2,0-0.3-0.2
		c-1.3-4.1-0.1-8.6,3-11.6c1.8-1.7,3.9-2.7,6.4-3c5.9-0.7,11.1,3.1,12.4,8.5c0.5,2,0.4,4.1-0.2,6.1c0,0.1-0.1,0.2-0.3,0.2
		c-1,0-2,0-3,0c-0.2,0-0.2-0.1-0.2-0.2c0-3,0-6,0-9c0-0.1,0-0.1,0-0.2c-0.1,0.1-0.1,0.1-0.2,0.2c-2.3,2.3-4.7,4.7-7,7
		c-0.1,0.1-0.2,0.1-0.3,0c-2.3-2.3-4.7-4.7-7-7C61.6,144.1,61.6,144,61.5,144C61.5,143.9,61.5,143.9,61.5,144z"/>
	<path class="st29" d="M59.2,155.7c1.1,0,2.1,0,3.2,0c0.5,0,0.9,0,1.4,0c0.2,0,0.2,0,0.2-0.2c0-1.9,0-3.7,0-5.6c0-0.1,0-0.1,0-0.2
		c0.1,0.1,0.1,0.1,0.2,0.2c1.5,1.5,3,3,4.6,4.6c0.2,0.2,0.2,0.2,0.3,0c1.5-1.5,3-3,4.6-4.6c0,0,0.1-0.1,0.1-0.2c0,0,0,0,0.1,0
		c0,0.1,0,0.1,0,0.2c0,1.8,0,3.7,0,5.5c0,0.2,0,0.2,0.2,0.2c1.5,0,3,0,4.6,0c-2,3.1-4.7,4.9-8.3,5.3C65.2,161.7,61.1,159,59.2,155.7
		z"/>
</g>
<radialGradient id="SVGID_1_" cx="297.5232" cy="793.2035" r="7.158" gradientTransform="matrix(1 0 0 -1 0 892)" gradientUnits="userSpaceOnUse">
	<stop  offset="0.4162" style="stop-color:#3F90B0"/>
	<stop  offset="1" style="stop-color:#346DA9"/>
</radialGradient>
<path class="st27" d="M304.1,104c0,1.5-0.9,2.8-2.2,3.3c-1.4,0.6-3,0.2-4-0.8c-1-1.1-1.3-2.7-0.6-4c0.1-0.2,0.2-0.4,0.3-0.6
	c0.3-0.7,0-1.3-0.6-1.7s-1.3-0.3-1.8,0.3c-0.2,0.2-0.4,0.5-0.6,0.8c-1.3,1.7-3.8,1.9-5.3,0.4c-1.5-1.4-1.5-3.9,0.1-5.3
	c1.6-1.4,4-1.2,5.3,0.5c0.2,0.2,0.3,0.5,0.5,0.7c0.5,0.6,1.2,0.7,1.8,0.4c0.6-0.3,0.9-1,0.6-1.7c-0.1-0.3-0.3-0.5-0.4-0.8
	c-0.6-1.5-0.3-3.2,1-4.2c1.2-1,2.9-1.1,4.2-0.3c1.4,0.9,2,2.5,1.6,4s-1.7,2.5-3.3,2.6c-1.1,0.1-1.7,0.5-1.7,1.4s0.6,1.4,1.7,1.4
	C302.7,100.5,304.1,102,304.1,104z"/>
<circle class="st62" cx="253.9" cy="71.9" r="4"/>
<g>
	
		<linearGradient id="SVGID_2_" gradientUnits="userSpaceOnUse" x1="197.7072" y1="839.9559" x2="207.385" y2="849.7372" gradientTransform="matrix(1 0 0 -1 0 892)">
		<stop  offset="3.513514e-02" style="stop-color:#D08825"/>
		<stop  offset="1" style="stop-color:#FDCF5A"/>
	</linearGradient>
	<circle class="st30" cx="202.5" cy="47.2" r="6.9"/>
	<circle class="st31" cx="202.6" cy="47.2" r="7.8"/>
	<polygon points="203.5,51.3 203.5,52.7 201.6,52.7 201.6,51.2 199.2,51.3 199.2,49.8 202.7,45 199.5,45 199.5,42.9 201.5,42.9 
		201.5,41.4 203.5,41.4 203.4,42.9 205.6,42.9 205.7,44.5 202.3,49.2 205.8,49.2 205.8,51.2 	"/>
</g>
<g>
	<polygon class="st32" points="279.2,142.3 279.2,132.4 270.8,146.1 	"/>
	<polygon class="st33" points="279.2,142.3 279.2,132.4 287.6,146.1 	"/>
	<polygon class="st34" points="270.8,146.1 279.2,151 279.2,142.3 	"/>
	<polygon class="st35" points="287.6,146.1 279.2,151 279.2,142.3 	"/>
	<polygon class="st32" points="270.8,147.9 279.2,159.5 279.2,152.8 	"/>
	<polygon class="st33" points="287.6,147.9 279.2,159.5 279.2,152.8 	"/>
</g>
<circle class="st36" cx="200.3" cy="186.7" r="12.4"/>
<polygon class="st37" points="206.6,193.6 194.3,193.6 195.4,188.9 193.8,189.5 194.2,187.5 196,186.8 198.1,178.7 202.7,178.8 
	201.3,184.7 203.2,184.1 202.9,186.1 200.8,187 199.7,190.6 207.2,190.6 "/>
<g>
	<path class="st38" d="M189.3,110.3l-0.4,0.2c-0.8,0.5-1,1.4-0.6,2.2c0.3,0.5,0.8,0.8,1.4,0.8c0.3,0,0.6-0.1,0.8-0.2l0.4-0.2
		c0.8-0.5,1-1.4,0.6-2.2S190.1,109.8,189.3,110.3z"/>
	<path class="st38" d="M193.8,107.3l-0.4,0.2c-0.8,0.5-1,1.4-0.6,2.2c0.3,0.5,0.8,0.8,1.4,0.8c0.3,0,0.6-0.1,0.8-0.2l0.4-0.2
		c0.8-0.5,1-1.4,0.6-2.2S194.6,106.9,193.8,107.3z"/>
	<path class="st39" d="M228.8,84.5l-10.4-5.9c-2.1-1.2-4.7-1.2-6.7-0.1l-10.4,5.2c-1.3,0.7-2.2,2.1-2.2,3.7c0,0.2,0,0.4,0,0.6v10.6
		l0,0c0,5.2-1.4,5.8-1.4,5.8l0,0c-0.6,0.5-0.8,1.4-0.4,2.1c0.3,0.5,0.9,0.8,1.4,0.8c0.2,0,0.4,0,0.6-0.1l0,0
		c0.4-0.2,2.2-0.6,5.4,1.4c0.4,0.3,1.5,0.9,1.7,1.1l5.3,3.2c1,0.6,2.1,0.9,3.3,0.9c1.1,0,2.2-0.3,3.2-0.8l10.3-5.8c1.9-1,3-3,3-5.2
		V89.4C231.6,87.3,230.5,85.5,228.8,84.5z M215.6,94.6c0,2,0,4-0.2,5.9c-0.1,1.1-0.1,2.1-0.2,3.2c-0.1,1.1-0.2,2.1-0.4,3.2
		c-0.2-1.1-0.3-2.1-0.4-3.2c-0.1-1.1-0.2-2.1-0.2-3.2c-0.1-2-0.2-4-0.2-5.9c-3.4-1.9-6.7-3.9-9.9-6.3c3.7,1.4,7.2,3.1,10.7,4.9
		l11.9-4.9L215.6,94.6z"/>
	<path class="st39" d="M186.9,113.6c-0.3-0.6-0.9-0.9-1.5-0.9c-0.3,0-0.6,0.1-0.8,0.2l0,0c-0.4,0.2-1.6,0.9-5-1.4
		c-0.4-0.3-1.5-0.9-1.7-1.1l-5.3-3.2c-1-0.6-2.1-0.9-3.3-0.9c-1.1,0-2.2,0.3-3.2,0.8l-10.3,5.8c-1.9,1-3,3-3,5.2v12.6
		c0,2,1.1,3.8,2.8,4.8l10.4,5.9c2.1,1.2,4.7,1.2,6.7,0.1l10.4-5.2c1.3-0.7,2.2-2.1,2.2-3.7c0-0.2,0-0.4,0-0.6v-10.6l0,0
		c0-5.2,1.3-5.7,1.3-5.7l0,0C187.2,115.4,187.4,114.4,186.9,113.6z M169.2,123.6c0,2,0,4-0.2,5.9c-0.1,1.1-0.1,2.1-0.2,3.2
		c-0.1,1.1-0.2,2.1-0.4,3.2c-0.2-1.1-0.3-2.1-0.4-3.2c-0.1-1.1-0.2-2.1-0.2-3.2c-0.1-2-0.2-4-0.2-5.9c-3.4-1.9-6.7-3.9-9.9-6.3
		c3.7,1.4,7.2,3.1,10.7,4.9l11.9-4.9L169.2,123.6z"/>
</g>
</svg>
