<?xml version="1.0" encoding="utf-8"?>
<!-- Generator: Adobe Illustrator 21.1.0, SVG Export Plug-In . SVG Version: 6.00 Build 0)  -->
<svg version="1.1" id="Layer_1" xmlns="http://www.w3.org/2000/svg" xmlns:xlink="http://www.w3.org/1999/xlink" x="0px" y="0px"
	 viewBox="0 0 321 258" style="enable-background:new 0 0 321 258;" xml:space="preserve">
<style type="text/css">
	.st0{fill:none;stroke:#B280B2;stroke-miterlimit:10;}
	.st1{fill:none;stroke:#B280B2;stroke-miterlimit:10;stroke-dasharray:2.0097,2.0097;}
	.st2{fill:none;stroke:#D89EAB;stroke-miterlimit:10;}
	.st3{fill:none;stroke:#D89EAB;stroke-miterlimit:10;stroke-dasharray:1.9706,1.9706;}
	.st4{fill:none;stroke:#FE6601;stroke-miterlimit:10;}
	.st5{fill:none;stroke:#FE6601;stroke-miterlimit:10;stroke-dasharray:2.0476,2.0476;}
	.st6{fill:none;stroke:#6DBCBC;stroke-miterlimit:10;}
	.st7{fill:none;stroke:#6DBCBC;stroke-miterlimit:10;stroke-dasharray:2.0323,2.0323;}
	.st8{fill:none;stroke:#F49323;stroke-miterlimit:10;}
	.st9{fill:none;stroke:#F49323;stroke-miterlimit:10;stroke-dasharray:1.9764,1.9764;}
	.st10{fill:none;stroke:#B78888;stroke-miterlimit:10;}
	.st11{fill:none;stroke:#B78888;stroke-miterlimit:10;stroke-dasharray:1.9113,1.9113;}
	.st12{fill:none;stroke:#CBCBCB;stroke-miterlimit:10;}
	.st13{fill:none;stroke:#CBCBCB;stroke-miterlimit:10;stroke-dasharray:2.0106,2.0106;}
	.st14{fill:none;stroke:#F1AF1D;stroke-miterlimit:10;}
	.st15{fill:none;stroke:#F1AF1D;stroke-miterlimit:10;stroke-dasharray:2.1388,2.1388;}
	.st16{fill:none;stroke:#F1AF1D;stroke-miterlimit:10;stroke-dasharray:1.9702,1.9702;}
	.st17{fill:none;stroke:#828384;stroke-miterlimit:10;}
	.st18{fill:none;stroke:#828384;stroke-miterlimit:10;stroke-dasharray:2.0537,2.0537;}
	.st19{fill:none;stroke:#3570AB;stroke-miterlimit:10;}
	.st20{fill:none;stroke:#3570AB;stroke-miterlimit:10;stroke-dasharray:1.9557,1.9557;}
	.st21{fill:none;stroke:#F1AF1D;stroke-miterlimit:10;stroke-dasharray:1.9662,1.9662;}
	.st22{fill:none;stroke:#F1AF1D;stroke-miterlimit:10;stroke-dasharray:1.9754,1.9754;}
	.st23{fill:none;stroke:#000000;stroke-miterlimit:10;}
	.st24{fill:none;stroke:#000000;stroke-miterlimit:10;stroke-dasharray:2.1323,2.1323;}
	.st25{fill:#F49323;}
	.st26{fill:#66B1E7;}
	.st27{fill:url(#SVGID_1_);}
	.st28{fill:#FE6601;}
	.st29{fill:#4C4C4C;}
	.st30{fill:url(#SVGID_2_);}
	.st31{fill:none;stroke:#000000;stroke-width:2;stroke-miterlimit:10;}
	.st32{fill:#828384;}
	.st33{fill:#2F3030;}
	.st34{fill:#343535;}
	.st35{fill:#131313;}
	.st36{fill:#CBCBCB;}
	.st37{fill:#FFFFFF;}
	.st38{fill:#BCBBBB;}
	.st39{fill:#F2AF1D;}
	.st40{fill:none;stroke:#BCBBBB;stroke-miterlimit:10;}
	.st41{fill:none;stroke:#BCBBBB;stroke-miterlimit:10;stroke-dasharray:2.0097,2.0097;}
	.st42{fill:none;stroke:#BCBBBB;stroke-miterlimit:10;stroke-dasharray:1.9706,1.9706;}
	.st43{fill:none;stroke:#BCBBBB;stroke-miterlimit:10;stroke-dasharray:2.0476,2.0476;}
	.st44{fill:none;stroke:#BCBBBB;stroke-miterlimit:10;stroke-dasharray:2.0323,2.0323;}
	.st45{fill:none;stroke:#BCBBBB;stroke-miterlimit:10;stroke-dasharray:1.9764,1.9764;}
	.st46{fill:none;stroke:#BCBBBB;stroke-miterlimit:10;stroke-dasharray:1.9113,1.9113;}
	.st47{fill:none;stroke:#BCBBBB;stroke-miterlimit:10;stroke-dasharray:2.0106,2.0106;}
	.st48{fill:none;stroke:#BCBBBB;stroke-miterlimit:10;stroke-dasharray:2.1388,2.1388;}
	.st49{fill:none;stroke:#BCBBBB;stroke-miterlimit:10;stroke-dasharray:1.9702,1.9702;}
	.st50{fill:none;stroke:#BCBBBB;stroke-miterlimit:10;stroke-dasharray:2.0537,2.0537;}
	.st51{fill:none;stroke:#BCBBBB;stroke-miterlimit:10;stroke-dasharray:1.9557,1.9557;}
	.st52{fill:none;stroke:#BCBBBB;stroke-miterlimit:10;stroke-dasharray:1.9662,1.9662;}
	.st53{fill:none;stroke:#BCBBBB;stroke-miterlimit:10;stroke-dasharray:1.9754,1.9754;}
	.st54{fill:none;stroke:#BCBBBB;stroke-miterlimit:10;stroke-dasharray:2.1323,2.1323;}
	.st55{fill:#B280B2;}
	.st56{fill:#637AAD;}
	.st57{fill:#6DBCBC;stroke:#6DBCBC;stroke-miterlimit:10;}
	.st58{fill:#EFC878;}
	.st59{fill:#C1B9B9;}
	.st60{fill:#84B79B;}
	.st61{fill:url(#SVGID_3_);}
	.st62{fill:#B0A7B7;}
	.st63{fill:url(#SVGID_4_);}
	.st64{fill:none;stroke:#637AAD;stroke-miterlimit:10;}
	.st65{fill:none;stroke:#637AAD;stroke-miterlimit:10;stroke-dasharray:1.9706,1.9706;}
	.st66{fill:none;stroke:#F2AF1D;stroke-miterlimit:10;}
	.st67{fill:none;stroke:#F2AF1D;stroke-miterlimit:10;stroke-dasharray:1.9113,1.9113;}
	.st68{fill:none;stroke:#EFC878;stroke-miterlimit:10;}
	.st69{fill:none;stroke:#EFC878;stroke-miterlimit:10;stroke-dasharray:2.1388,2.1388;}
	.st70{fill:none;stroke:#84B79B;stroke-miterlimit:10;}
	.st71{fill:none;stroke:#84B79B;stroke-miterlimit:10;stroke-dasharray:1.9702,1.9702;}
	.st72{fill:none;stroke:#B0A7B7;stroke-miterlimit:10;}
	.st73{fill:none;stroke:#B0A7B7;stroke-miterlimit:10;stroke-dasharray:1.9662,1.9662;}
	.st74{fill:none;stroke:#A7B0CE;stroke-miterlimit:10;}
	.st75{fill:none;stroke:#A7B0CE;stroke-miterlimit:10;stroke-dasharray:1.9754,1.9754;}
	.st76{fill:#6DBCBC;}
	.st77{fill:#A7B0CE;}
	.st78{fill:url(#SVGID_5_);}
	.st79{fill:url(#SVGID_6_);}
</style>
<g>
	<g>
		<line class="st0" x1="136.6" y1="128.7" x2="135.9" y2="129.5"/>
		<line class="st1" x1="134.6" y1="131" x2="94.7" y2="174.8"/>
		<line class="st0" x1="94" y1="175.6" x2="93.3" y2="176.3"/>
	</g>
</g>
<g>
	<g>
		<line class="st2" x1="140.3" y1="132.2" x2="140.2" y2="133.2"/>
		<line class="st3" x1="139.9" y1="135.2" x2="129.6" y2="208.4"/>
		<line class="st2" x1="129.5" y1="209.3" x2="129.3" y2="210.3"/>
	</g>
</g>
<g>
	<g>
		<line class="st4" x1="132.1" y1="124.5" x2="131.1" y2="124.7"/>
		<line class="st5" x1="129.1" y1="125.2" x2="54.6" y2="143.8"/>
		<line class="st4" x1="53.6" y1="144.1" x2="52.7" y2="144.3"/>
	</g>
</g>
<g>
	<g>
		<line class="st6" x1="131.6" y1="120" x2="130.6" y2="119.8"/>
		<line class="st7" x1="128.6" y1="119.3" x2="82.2" y2="108.3"/>
		<line class="st6" x1="81.2" y1="108.1" x2="80.2" y2="107.8"/>
	</g>
</g>
<g>
	<g>
		<line class="st8" x1="129.3" y1="112.7" x2="128.5" y2="112.2"/>
		<line class="st9" x1="126.9" y1="111" x2="79.5" y2="77.2"/>
		<line class="st8" x1="78.6" y1="76.6" x2="77.8" y2="76"/>
	</g>
</g>
<g>
	<g>
		<line class="st10" x1="139.6" y1="111" x2="139.3" y2="110.1"/>
		<line class="st11" x1="138.7" y1="108.2" x2="126.9" y2="72.9"/>
		<line class="st10" x1="126.6" y1="71.9" x2="126.3" y2="71"/>
	</g>
</g>
<g>
	<g>
		<line class="st12" x1="145.6" y1="125.7" x2="146" y2="126.7"/>
		<line class="st13" x1="146.8" y1="128.5" x2="166" y2="171.7"/>
		<line class="st12" x1="166.4" y1="172.6" x2="166.8" y2="173.5"/>
	</g>
</g>
<g>
	<g>
		<line class="st14" x1="183.6" y1="104.5" x2="183.4" y2="105.5"/>
		<line class="st15" x1="183.1" y1="107.6" x2="179.6" y2="132"/>
		<line class="st14" x1="179.5" y1="133" x2="179.3" y2="134"/>
	</g>
</g>
<g>
	<g>
		<line class="st14" x1="189.6" y1="101.2" x2="189.9" y2="102.2"/>
		<line class="st16" x1="190.5" y1="104.1" x2="207.2" y2="155.6"/>
		<line class="st14" x1="207.5" y1="156.5" x2="207.8" y2="157.5"/>
	</g>
</g>
<g>
	<g>
		<line class="st17" x1="197.1" y1="99.2" x2="197.9" y2="99.8"/>
		<line class="st18" x1="199.6" y1="101" x2="245.2" y2="134.3"/>
		<line class="st17" x1="246" y1="134.9" x2="246.8" y2="135.5"/>
	</g>
</g>
<g>
	<g>
		<line class="st19" x1="198.3" y1="91" x2="199.3" y2="91.1"/>
		<line class="st20" x1="201.3" y1="91.2" x2="258.9" y2="94.9"/>
		<line class="st19" x1="259.8" y1="94.9" x2="260.8" y2="95"/>
	</g>
</g>
<g>
	<g>
		<line class="st14" x1="200.3" y1="82.7" x2="201.2" y2="82.3"/>
		<line class="st21" x1="202.9" y1="81.3" x2="219.1" y2="72"/>
		<line class="st14" x1="220" y1="71.5" x2="220.8" y2="71"/>
	</g>
</g>
<g>
	<g>
		<line class="st14" x1="219.3" y1="42" x2="218.8" y2="42.8"/>
		<line class="st22" x1="217.6" y1="44.4" x2="193.5" y2="79.4"/>
		<line class="st14" x1="192.9" y1="80.2" x2="192.3" y2="81"/>
	</g>
</g>
<g>
	<g>
		<line class="st23" x1="176.8" y1="51.5" x2="177.1" y2="52.5"/>
		<line class="st24" x1="177.5" y1="54.6" x2="182.9" y2="78.5"/>
		<line class="st23" x1="183.1" y1="79.5" x2="183.3" y2="80.5"/>
	</g>
</g>
<circle class="st0" cx="88.3" cy="181.5" r="7.8"/>
<circle class="st10" cx="128.6" cy="217.7" r="7.8"/>
<circle class="st6" cx="75.2" cy="106.6" r="5.1"/>
<circle class="st10" cx="123.8" cy="63.5" r="6.3"/>
<circle class="st14" cx="178.6" cy="140.2" r="5.8"/>
<circle class="st14" cx="223.3" cy="35.7" r="5.3"/>
<circle class="st14" cx="209.9" cy="163.2" r="5.8"/>
<g>
	<path class="st25" d="M69.9,52.1c7.2,1.6,11.9,8.9,10.5,16c-1.5,7.6-9,12.4-16.2,10.9c-7.3-1.5-12.3-8.7-10.6-16.4
		C55.1,55.2,62.4,50.5,69.9,52.1z M77.3,67.8c1.3-5.8-2.4-11.5-8.1-12.8c-5.8-1.3-11.5,2.4-12.8,8.2s2.4,11.5,8.2,12.8
		C70.3,77.3,76,73.6,77.3,67.8z"/>
	<path class="st25" d="M67.2,59.1c0.4,0.2,0.7,0.2,1.1,0.3c0.2-0.8,0.4-1.7,0.6-2.6c0.6,0.1,1.1,0.2,1.7,0.4
		c-0.2,0.7-0.3,1.4-0.5,2.2c-0.1,0.4,0,0.5,0.4,0.7c0.8,0.3,1.6,0.7,2.2,1.3c1.3,1.3,1,3.4-0.6,4.3c-0.1,0.1-0.3,0.2-0.5,0.3
		c0.3,0.2,0.5,0.4,0.7,0.7c0.7,0.7,1,1.6,0.7,2.6c-0.2,1-0.6,2-1.5,2.6s-1.9,0.6-2.9,0.5c-0.4,0-0.8-0.2-1.2-0.3
		c-0.2,0.9-0.4,1.8-0.6,2.7c-0.6,0-1.1-0.2-1.7-0.3c0.2-0.9,0.4-1.8,0.6-2.6c-0.4-0.2-0.7-0.2-1.1-0.3c-0.2,0.9-0.4,1.8-0.6,2.7
		c-0.6-0.1-1.1-0.2-1.7-0.4c0.2-0.9,0.4-1.8,0.6-2.7c-1.1-0.2-2.1-0.5-3.1-0.7c0.1-0.5,0.2-1,0.3-1.5c0-0.2,0.2-0.2,0.4-0.2
		c0.3,0.1,0.5,0.1,0.8,0.2c0.6,0.1,0.9,0,1-0.6c0.3-1.5,0.7-3.1,1-4.6c0.2-0.9,0.4-1.7,0.6-2.6c0.1-0.6,0-0.8-0.6-0.9
		c-0.4-0.1-0.8-0.2-1.3-0.3c0.1-0.6,0.2-1.1,0.4-1.7c1.1,0.2,2.1,0.5,3.2,0.7c0.2-0.9,0.4-1.7,0.6-2.6c0.6,0.1,1.1,0.2,1.7,0.4
		C67.6,57.4,67.4,58.3,67.2,59.1z M65.7,66c-0.2,1.1-0.5,2.1-0.7,3.2c0,0.2-0.1,0.3,0.2,0.4c0.9,0.2,1.9,0.5,2.8,0.5
		c1-0.1,1.6-0.7,1.8-1.6c0.1-0.7-0.3-1.3-1.2-1.7C67.7,66.3,66.8,66.2,65.7,66z M66.8,61c-0.2,0.9-0.4,1.7-0.6,2.6
		c0,0.1-0.1,0.3-0.1,0.4c-0.1,0.2,0.1,0.3,0.3,0.3c0.6,0.1,1.1,0.2,1.7,0.4c0.9,0.2,1.6-0.3,1.9-1.1c0.3-0.8,0-1.4-0.8-1.8
		C68.5,61.3,67.7,61.2,66.8,61z"/>
</g>
<radialGradient id="SVGID_1_" cx="269.6378" cy="767.1985" r="7.158" gradientTransform="matrix(1 0 0 -1 0 862)" gradientUnits="userSpaceOnUse">
	<stop  offset="0.4162" style="stop-color:#3F90B0"/>
	<stop  offset="1" style="stop-color:#346DA9"/>
</radialGradient>
<path class="st27" d="M276.3,100c0,1.5-0.9,2.8-2.2,3.3c-1.4,0.6-3,0.2-4-0.8c-1-1.1-1.3-2.7-0.6-4c0.1-0.2,0.2-0.4,0.3-0.6
	c0.3-0.7,0-1.3-0.6-1.7s-1.3-0.3-1.8,0.3c-0.2,0.2-0.4,0.5-0.6,0.8c-1.3,1.7-3.8,1.9-5.3,0.4c-1.5-1.4-1.5-3.9,0.1-5.3
	c1.6-1.4,4-1.2,5.3,0.5c0.2,0.2,0.3,0.5,0.5,0.7c0.5,0.6,1.2,0.7,1.8,0.4s0.9-1,0.6-1.7c-0.1-0.3-0.3-0.5-0.4-0.8
	c-0.6-1.5-0.3-3.2,1-4.2c1.2-1,2.9-1.1,4.2-0.3c1.4,0.9,2,2.5,1.6,4s-1.7,2.5-3.3,2.6c-1.1,0.1-1.7,0.5-1.7,1.4s0.6,1.4,1.7,1.4
	C274.8,96.5,276.2,98,276.3,100z"/>
<circle class="st14" cx="226" cy="67.9" r="4"/>
<g>
	<path class="st28" d="M33.8,140.5c0,0.1,0,0.1,0,0.2c0,3,0,6,0,9c0,0.3,0,0.2-0.2,0.2c-1,0-2,0-2.9,0c-0.1,0-0.2,0-0.3-0.2
		c-1.3-4.1-0.1-8.6,3-11.6c1.8-1.7,3.9-2.7,6.4-3c5.9-0.7,11.1,3.1,12.4,8.5c0.5,2,0.4,4.1-0.2,6.1c0,0.1-0.1,0.2-0.3,0.2
		c-1,0-2,0-3,0c-0.2,0-0.2-0.1-0.2-0.2c0-3,0-6,0-9c0-0.1,0-0.1,0-0.2c-0.1,0.1-0.1,0.1-0.2,0.2c-2.3,2.3-4.7,4.7-7,7
		c-0.1,0.1-0.2,0.1-0.3,0c-2.3-2.3-4.7-4.7-7-7C34,140.6,33.9,140.6,33.8,140.5C33.9,140.5,33.9,140.5,33.8,140.5z"/>
	<path class="st29" d="M31.5,152.3c1.1,0,2.1,0,3.2,0c0.5,0,0.9,0,1.4,0c0.2,0,0.2,0,0.2-0.2c0-1.9,0-3.7,0-5.6c0-0.1,0-0.1,0-0.2
		c0.1,0.1,0.1,0.1,0.2,0.2c1.5,1.5,3,3,4.6,4.6c0.2,0.2,0.2,0.2,0.3,0c1.5-1.5,3-3,4.6-4.6c0,0,0.1-0.1,0.1-0.2c0,0,0,0,0.1,0
		c0,0.1,0,0.1,0,0.2c0,1.8,0,3.7,0,5.5c0,0.2,0,0.2,0.2,0.2c1.5,0,3,0,4.6,0c-2,3.1-4.7,4.9-8.3,5.3
		C37.6,158.2,33.5,155.6,31.5,152.3z"/>
</g>
<g id="Layer_4">
	<g>
		
			<linearGradient id="SVGID_2_" gradientUnits="userSpaceOnUse" x1="169.812" y1="813.9608" x2="179.4898" y2="823.742" gradientTransform="matrix(1 0 0 -1 0 862)">
			<stop  offset="3.513514e-02" style="stop-color:#D08825"/>
			<stop  offset="1" style="stop-color:#FDCF5A"/>
		</linearGradient>
		<circle class="st30" cx="174.6" cy="43.2" r="6.9"/>
		<circle class="st31" cx="174.7" cy="43.2" r="7.8"/>
		<polygon points="175.6,47.3 175.6,48.8 173.7,48.8 173.7,47.2 171.4,47.3 171.4,45.8 174.9,41 171.7,41 171.7,38.9 173.6,38.9 
			173.6,37.4 175.6,37.4 175.5,38.9 177.8,38.9 177.8,40.5 174.4,45.2 177.9,45.2 177.9,47.2 		"/>
	</g>
</g>
<g id="Layer_3">
	<g>
		<polygon class="st32" points="251.3,138.3 251.3,128.4 242.9,142.1 		"/>
		<polygon class="st33" points="251.3,138.3 251.3,128.4 259.8,142.2 		"/>
		<polygon class="st34" points="242.9,142.1 251.3,147 251.3,138.3 		"/>
		<polygon class="st35" points="259.8,142.2 251.3,147 251.3,138.3 		"/>
		<polygon class="st32" points="242.9,143.9 251.3,155.5 251.3,148.9 		"/>
		<polygon class="st33" points="259.7,143.9 251.3,155.5 251.3,148.9 		"/>
	</g>
	<circle class="st36" cx="172.4" cy="182.7" r="12.4"/>
	<polygon class="st37" points="178.7,189.6 166.4,189.6 167.5,184.9 165.9,185.5 166.3,183.5 168.1,182.8 170.2,174.7 174.8,174.8 
		173.4,180.8 175.4,180.1 175.1,182.1 172.9,183 171.8,186.6 179.3,186.6 	"/>
</g>
<g>
	<path class="st38" d="M161.4,106.3l-0.4,0.2c-0.8,0.5-1,1.4-0.6,2.2c0.3,0.5,0.8,0.8,1.4,0.8c0.3,0,0.6-0.1,0.8-0.2l0.4-0.2
		c0.8-0.5,1-1.4,0.6-2.2S162.2,105.8,161.4,106.3z"/>
	<path class="st38" d="M165.9,103.3l-0.4,0.2c-0.8,0.5-1,1.4-0.6,2.2c0.3,0.5,0.8,0.8,1.4,0.8c0.3,0,0.6-0.1,0.8-0.2l0.4-0.2
		c0.8-0.5,1-1.4,0.6-2.2S166.7,102.9,165.9,103.3z"/>
	<path class="st39" d="M200.9,80.5l-10.4-5.9c-2.1-1.2-4.7-1.2-6.7-0.1l-10.4,5.2c-1.3,0.7-2.2,2.1-2.2,3.7c0,0.2,0,0.4,0,0.6v10.6
		l0,0c0,5.2-1.4,5.8-1.4,5.8l0,0c-0.6,0.5-0.8,1.4-0.4,2.1c0.3,0.5,0.9,0.8,1.4,0.8c0.2,0,0.4,0,0.6-0.1l0,0
		c0.4-0.2,2.2-0.6,5.4,1.4c0.4,0.3,1.5,0.9,1.7,1.1l5.3,3.2c1,0.6,2.1,0.9,3.3,0.9c1.1,0,2.2-0.3,3.2-0.8l10.3-5.8c1.9-1,3-3,3-5.2
		V85.4C203.7,83.3,202.6,81.5,200.9,80.5z M187.7,90.6c0,2,0,4-0.2,5.9c-0.1,1.1-0.1,2.1-0.2,3.2c-0.1,1.1-0.2,2.1-0.4,3.2
		c-0.2-1.1-0.3-2.1-0.4-3.2c-0.1-1.1-0.2-2.1-0.2-3.2c-0.1-2-0.2-4-0.2-5.9c-3.4-1.9-6.7-3.9-9.9-6.3c3.7,1.4,7.2,3.1,10.7,4.9
		l11.9-4.9L187.7,90.6z"/>
	<path class="st39" d="M159,109.6c-0.3-0.6-0.9-0.9-1.5-0.9c-0.3,0-0.6,0.1-0.8,0.2l0,0c-0.4,0.2-1.6,0.9-5-1.4
		c-0.4-0.3-1.5-0.9-1.7-1.1l-5.3-3.2c-1-0.6-2.1-0.9-3.3-0.9c-1.1,0-2.2,0.3-3.2,0.8l-10.3,5.8c-1.9,1-3,3-3,5.2v12.6
		c0,2,1.1,3.8,2.8,4.8l10.4,5.9c2.1,1.2,4.7,1.2,6.7,0.1l10.4-5.2c1.3-0.7,2.2-2.1,2.2-3.7c0-0.2,0-0.4,0-0.6v-10.6l0,0
		c0-5.2,1.3-5.7,1.3-5.7l0,0C159.3,111.4,159.5,110.4,159,109.6z M141.3,119.6c0,2,0,4-0.2,5.9c-0.1,1.1-0.1,2.1-0.2,3.2
		c-0.1,1.1-0.2,2.1-0.4,3.2c-0.2-1.1-0.3-2.1-0.4-3.2c-0.1-1.1-0.2-2.1-0.2-3.2c-0.1-2-0.2-4-0.2-5.9c-3.4-1.9-6.7-3.9-9.9-6.3
		c3.7,1.4,7.2,3.1,10.7,4.9l11.9-4.9L141.3,119.6z"/>
</g>
</svg>
