<svg xmlns="http://www.w3.org/2000/svg" xmlns:xlink="http://www.w3.org/1999/xlink" viewBox="0 0 246.53 206"><defs><style>.cls-1,.cls-10,.cls-11,.cls-12,.cls-13,.cls-14,.cls-2,.cls-21,.cls-3,.cls-4,.cls-5,.cls-6,.cls-7,.cls-8,.cls-9{fill:none;stroke-miterlimit:10;}.cls-1,.cls-10,.cls-2,.cls-3,.cls-4,.cls-5,.cls-6,.cls-7,.cls-8,.cls-9{stroke:#bcbbbb;}.cls-2{stroke-dasharray:2.01 2.01;}.cls-3{stroke-dasharray:1.97 1.97;}.cls-4{stroke-dasharray:2.05 2.05;}.cls-5{stroke-dasharray:2.03 2.03;}.cls-6{stroke-dasharray:1.98 1.98;}.cls-7{stroke-dasharray:1.91 1.91;}.cls-8{stroke-dasharray:2.14 2.14;}.cls-9{stroke-dasharray:1.96 1.96;}.cls-10{stroke-dasharray:2.13 2.13;}.cls-11{stroke:#b280b2;}.cls-12{stroke:#f2af1d;}.cls-13{stroke:#efc878;}.cls-14{stroke:#c1b9b9;}.cls-15{fill:#84b79b;}.cls-16{fill:#f49323;}.cls-17{fill:#fe6601;}.cls-18{fill:#4c4c4c;}.cls-19{fill:url(#radial-gradient);}.cls-20{fill:url(#linear-gradient);}.cls-21{stroke:#000;stroke-width:2px;}.cls-22{fill:#828384;}.cls-23{fill:#2f3030;}.cls-24{fill:#343535;}.cls-25{fill:#131313;}.cls-26{fill:#cbcbcb;}.cls-27{fill:#fff;}.cls-28{fill:#bcbbbb;}.cls-29{fill:#f2af1d;}.cls-30{fill:#f7a800;}.cls-31{fill:#67b2e8;}.cls-32{fill:#00c4b3;}.cls-33{fill:#2573c2;}.cls-34{fill:#667ce9;}</style><radialGradient id="radial-gradient" cx="297.5" cy="531.93" r="7.16" gradientTransform="translate(-57.58 -467.07)" gradientUnits="userSpaceOnUse"><stop offset="0.42" stop-color="#3f90b0"/><stop offset="1" stop-color="#346da9"/></radialGradient><linearGradient id="linear-gradient" x1="197.72" y1="485.2" x2="207.39" y2="475.42" gradientTransform="translate(-57.58 -467.07)" gradientUnits="userSpaceOnUse"><stop offset="0.04" stop-color="#d08825"/><stop offset="1" stop-color="#fdcf5a"/></linearGradient></defs><title>Asset 1</title><g id="Layer_2" data-name="Layer 2"><g id="Layer_1-2" data-name="Layer 1"><line class="cls-1" x1="106.92" y1="98.8" x2="106.22" y2="99.6"/><line class="cls-2" x1="104.82" y1="101.1" x2="65.02" y2="144.9"/><line class="cls-1" x1="64.32" y1="145.7" x2="63.62" y2="146.4"/><line class="cls-1" x1="110.62" y1="102.3" x2="110.52" y2="103.3"/><line class="cls-3" x1="110.22" y1="105.3" x2="99.92" y2="178.5"/><line class="cls-1" x1="99.82" y1="179.4" x2="99.62" y2="180.4"/><line class="cls-1" x1="102.42" y1="94.6" x2="101.42" y2="94.8"/><line class="cls-4" x1="99.42" y1="95.3" x2="24.92" y2="113.9"/><line class="cls-1" x1="23.92" y1="114.2" x2="23.02" y2="114.4"/><line class="cls-1" x1="101.92" y1="90.1" x2="100.92" y2="89.9"/><line class="cls-5" x1="98.92" y1="89.4" x2="52.42" y2="78.4"/><line class="cls-1" x1="51.52" y1="78.2" x2="50.52" y2="77.9"/><line class="cls-1" x1="99.62" y1="82.8" x2="98.82" y2="82.3"/><line class="cls-6" x1="97.22" y1="81.1" x2="49.72" y2="47.2"/><line class="cls-1" x1="48.92" y1="46.7" x2="48.12" y2="46.1"/><line class="cls-1" x1="109.92" y1="81.1" x2="109.62" y2="80.1"/><line class="cls-7" x1="109.02" y1="78.3" x2="97.22" y2="43"/><line class="cls-1" x1="96.92" y1="42" x2="96.62" y2="41.1"/><line class="cls-1" x1="115.92" y1="95.8" x2="116.32" y2="96.8"/><line class="cls-2" x1="117.12" y1="98.6" x2="136.32" y2="141.8"/><line class="cls-1" x1="136.72" y1="142.7" x2="137.12" y2="143.6"/><line class="cls-1" x1="153.92" y1="74.6" x2="153.72" y2="75.6"/><line class="cls-8" x1="153.42" y1="77.7" x2="149.92" y2="102"/><line class="cls-1" x1="149.82" y1="103.1" x2="149.62" y2="104.1"/><line class="cls-1" x1="159.92" y1="71.3" x2="160.22" y2="72.3"/><line class="cls-3" x1="160.82" y1="74.2" x2="177.52" y2="125.7"/><line class="cls-1" x1="177.82" y1="126.6" x2="178.12" y2="127.6"/><line class="cls-1" x1="167.42" y1="69.3" x2="168.22" y2="69.9"/><line class="cls-4" x1="169.82" y1="71.1" x2="215.52" y2="104.4"/><line class="cls-1" x1="216.32" y1="105" x2="217.12" y2="105.6"/><line class="cls-1" x1="168.62" y1="61.1" x2="169.62" y2="61.2"/><line class="cls-9" x1="171.62" y1="61.3" x2="229.12" y2="65"/><line class="cls-1" x1="230.12" y1="65" x2="231.12" y2="65.1"/><line class="cls-1" x1="170.62" y1="52.8" x2="171.52" y2="52.3"/><line class="cls-3" x1="173.22" y1="51.4" x2="189.42" y2="42.1"/><line class="cls-1" x1="190.32" y1="41.6" x2="191.12" y2="41.1"/><line class="cls-1" x1="189.62" y1="12.1" x2="189.02" y2="12.9"/><line class="cls-6" x1="187.92" y1="14.5" x2="163.82" y2="49.5"/><line class="cls-1" x1="163.22" y1="50.3" x2="162.62" y2="51.1"/><line class="cls-1" x1="147.12" y1="21.6" x2="147.32" y2="22.6"/><line class="cls-10" x1="147.82" y1="24.7" x2="153.22" y2="48.6"/><line class="cls-1" x1="153.42" y1="49.6" x2="153.62" y2="50.6"/><circle class="cls-11" cx="58.62" cy="151.6" r="7.8"/><circle class="cls-12" cx="94.12" cy="33.6" r="6.3"/><circle class="cls-13" cx="149.22" cy="109.3" r="4.4"/><circle class="cls-14" cx="193.62" cy="5.8" r="5.3"/><circle class="cls-15" cx="180.22" cy="133.3" r="5.8"/><path class="cls-16" d="M37.32,21.9a13.65,13.65,0,1,1-.3,0Zm10.5,13.8A10.7,10.7,0,1,0,37,46.4a10.71,10.71,0,0,0,10.8-10.7Z"/><path class="cls-16" d="M36.22,29.3a2.05,2.05,0,0,0,1.1,0V26.7H39v2.2c0,.4.1.5.5.6a4.9,4.9,0,0,1,2.4.8,2.75,2.75,0,0,1,.8,3.8,2.65,2.65,0,0,1-.5.6c-.1.1-.3.2-.4.4.3.2.6.3.9.5A2.81,2.81,0,0,1,44,38a3.61,3.61,0,0,1-1,2.8,4.3,4.3,0,0,1-2.8,1.1h-1.3v2.8a4.85,4.85,0,0,1-1.7,0V42c-.4-.1-.7,0-1.1-.1v2.7h-1.7V41.9h-3.2V40.4c0-.1.1-.3.2-.3h.9c.6,0,.8-.2.9-.8V32c0-.6-.2-.8-.8-.8h-1.3V29.4h3.3V26.7h1.7A21.75,21.75,0,0,1,36.22,29.3Zm-.1,7v3.3c0,.2,0,.3.2.3a14.08,14.08,0,0,0,2.9-.1,1.86,1.86,0,0,0,1.4-2c0-.7-.6-1.2-1.6-1.4A9.42,9.42,0,0,0,36.12,36.3Zm.1-5.1v3a.27.27,0,0,0,.3.3h1.7a1.65,1.65,0,0,0,1.7-1.5c.1-.8-.3-1.3-1.2-1.6A7.07,7.07,0,0,0,36.22,31.2Z"/><path class="cls-17" d="M3.92,110.1v9.2c0,.3,0,.2-.2.2H.82c-.1,0-.2,0-.3-.2a11.4,11.4,0,0,1,3-11.6,10.94,10.94,0,0,1,6.4-3,11.31,11.31,0,0,1,12.4,8.5,11.5,11.5,0,0,1-.2,6.1c0,.1-.1.2-.3.2h-3c-.2,0-.2-.1-.2-.2v-9.2l-.2.2-7,7a.19.19,0,0,1-.3,0h0l-7-7C4,110.2,4,110.1,3.92,110.1Z"/><path class="cls-18" d="M1.62,121.8h4.6c.2,0,.2,0,.2-.2v-5.8l.2.2,4.6,4.6c.2.2.2.2.3,0l4.6-4.6c.1-.1.1-.1.1-.2h.1v5.7c0,.2,0,.2.2.2h4.6a10.73,10.73,0,0,1-8.3,5.3A10.92,10.92,0,0,1,1.62,121.8Z"/><path class="cls-19" d="M246.52,70.1a3.61,3.61,0,0,1-2.2,3.3,3.71,3.71,0,0,1-4-.8,3.51,3.51,0,0,1-.6-4l.3-.6a1.32,1.32,0,0,0-.6-1.7,1.28,1.28,0,0,0-1.8.3h0a5.55,5.55,0,0,0-.6.8,3.53,3.53,0,0,1-5,.7l-.3-.3a3.61,3.61,0,1,1,5.1-5.1l.3.3c.2.2.3.5.5.7a1.4,1.4,0,0,0,1.8.4,1.32,1.32,0,0,0,.6-1.7c-.1-.3-.3-.5-.4-.8a3.4,3.4,0,0,1,1-4.2,3.56,3.56,0,0,1,5.1.5,3.7,3.7,0,0,1,.7,3.2,3.42,3.42,0,0,1-3.3,2.6c-1.1.1-1.7.5-1.7,1.4s.6,1.4,1.7,1.4a3.48,3.48,0,0,1,3.4,3.6Z"/><circle class="cls-20" cx="144.92" cy="13.3" r="6.9"/><circle class="cls-21" cx="145.02" cy="13.3" r="7.8"/><polygon points="145.92 17.4 145.92 18.8 144.02 18.8 144.02 17.3 141.62 17.4 141.62 15.9 145.12 11.1 141.92 11.1 141.92 9 143.92 9 143.92 7.5 145.92 7.5 145.82 9 148.02 9 148.12 10.6 144.72 15.3 148.22 15.3 148.22 17.3 145.92 17.4"/><polygon class="cls-22" points="221.62 108.4 221.62 98.5 213.22 112.2 221.62 108.4"/><polygon class="cls-23" points="221.62 108.4 221.62 98.5 230.02 112.2 221.62 108.4"/><polygon class="cls-24" points="213.22 112.2 221.62 117.1 221.62 108.4 213.22 112.2"/><polygon class="cls-25" points="230.02 112.2 221.62 117.1 221.62 108.4 230.02 112.2"/><polygon class="cls-22" points="213.22 114 221.62 125.6 221.62 118.9 213.22 114"/><polygon class="cls-23" points="230.02 114 221.62 125.6 221.62 118.9 230.02 114"/><circle class="cls-26" cx="142.72" cy="152.8" r="12.4"/><polygon class="cls-27" points="149.02 159.7 136.72 159.7 137.82 155 136.22 155.6 136.62 153.6 138.42 152.9 140.52 144.8 145.12 144.9 143.72 150.8 145.62 150.2 145.32 152.2 143.22 153.1 142.12 156.7 149.62 156.7 149.02 159.7"/><path class="cls-28" d="M131.72,76.4l-.4.2a1.6,1.6,0,0,0,.8,3,1.88,1.88,0,0,0,.8-.2l.4-.2a1.61,1.61,0,0,0,.6-2.2,1.53,1.53,0,0,0-2.1-.7A.1.1,0,0,0,131.72,76.4Z"/><path class="cls-28" d="M136.22,73.4l-.4.2a1.6,1.6,0,0,0,.8,3,1.88,1.88,0,0,0,.8-.2l.4-.2a1.61,1.61,0,0,0,.6-2.2,1.55,1.55,0,0,0-2.2-.6Z"/><path class="cls-29" d="M171.22,50.6l-10.4-5.9a6.94,6.94,0,0,0-6.7-.1l-10.4,5.2a4.13,4.13,0,0,0-2.2,3.7V64.7h0c0,5.2-1.4,5.8-1.4,5.8h0a1.68,1.68,0,0,0-.4,2.1,1.6,1.6,0,0,0,1.4.8,1.27,1.27,0,0,0,.6-.1h0c.4-.2,2.2-.6,5.4,1.4.4.3,1.5.9,1.7,1.1l5.3,3.2a6.29,6.29,0,0,0,3.3.9,7.22,7.22,0,0,0,3.2-.8l10.3-5.8a5.59,5.59,0,0,0,3-5.2V55.5A5.45,5.45,0,0,0,171.22,50.6ZM158,60.7a58.16,58.16,0,0,1-.2,5.9c-.1,1.1-.1,2.1-.2,3.2s-.2,2.1-.4,3.2c-.2-1.1-.3-2.1-.4-3.2s-.2-2.1-.2-3.2c-.1-2-.2-4-.2-5.9a103.27,103.27,0,0,1-9.9-6.3,103.38,103.38,0,0,1,10.7,4.9l11.9-4.9Z"/><path class="cls-29" d="M129.32,79.7a1.65,1.65,0,0,0-1.5-.9,1.88,1.88,0,0,0-.8.2h0c-.4.2-1.6.9-5-1.4-.4-.3-1.5-.9-1.7-1.1L115,73.3a6.29,6.29,0,0,0-3.3-.9,7.22,7.22,0,0,0-3.2.8L98.22,79a5.59,5.59,0,0,0-3,5.2V96.8a5.59,5.59,0,0,0,2.8,4.8l10.4,5.9a6.94,6.94,0,0,0,6.7.1l10.4-5.2a4.13,4.13,0,0,0,2.2-3.7V87.5h0c0-5.2,1.3-5.7,1.3-5.7h0a1.57,1.57,0,0,0,.3-2.1Zm-17.7,10a58.16,58.16,0,0,1-.2,5.9c-.1,1.1-.1,2.1-.2,3.2s-.2,2.1-.4,3.2c-.2-1.1-.3-2.1-.4-3.2s-.2-2.1-.2-3.2c-.1-2-.2-4-.2-5.9a103.27,103.27,0,0,1-9.9-6.3,103.38,103.38,0,0,1,10.7,4.9l11.9-4.9Z"/><path d="M182.62,147.5l-.1-.1a19.81,19.81,0,0,1-9.2-12.1,18.43,18.43,0,0,1-.5-2.5,21.05,21.05,0,0,1-.2-2.5c0-.1,0-.1.1-.2A18.32,18.32,0,0,1,178,128a15.52,15.52,0,0,1,2.1-.4,14.08,14.08,0,0,1,2.9-.1,8.08,8.08,0,0,1,1.6.1,19.4,19.4,0,0,1,7.7,2.5,282877.45,282877.45,0,0,0,.2.2v.1a7.57,7.57,0,0,1-.1,1.5l-.3,2.1a16.65,16.65,0,0,1-1.4,4.3,19.86,19.86,0,0,1-4,5.9,21.49,21.49,0,0,1-4.1,3.2c.1,0,.1,0,0,.1Zm-9-16.7v.1a14.77,14.77,0,0,0,.1,2.1c.1.6.2,1.2.3,1.9,0,.1.1.2.1.3a4.18,4.18,0,0,0,4.8,2.3,4.12,4.12,0,0,0,3.1-3,5,5,0,0,0,.2-1.2,2,2,0,0,1,.1-.8,4.76,4.76,0,0,1,3-3.7c.1,0,.2-.1.3-.1h0c-.2-.1-1.7-.2-2.6-.3a17.65,17.65,0,0,0-5.6.8,18,18,0,0,0-3.8,1.6Zm14,11.4h0c.5-.6.8-1.1,1.2-1.6a18.64,18.64,0,0,0,2.5-6,8.33,8.33,0,0,0,.3-2.2c0-.5.1-1,.1-1.5v-.1l-.1-.1-1.2-.6a13.35,13.35,0,0,0-1.8-.7,4.5,4.5,0,0,0-2.3-.1,4.26,4.26,0,0,0-3.2,4.9A4,4,0,0,0,185,137c.1,0,.1.1.2.1A4.69,4.69,0,0,1,187,139a4.17,4.17,0,0,1,.6,2.7.45.45,0,0,1,0,.5Zm-5,4.3a.1.1,0,0,0,.1-.1,15.94,15.94,0,0,0,3.3-2.5l.2-.2c.1-.1.1-.3.2-.4a4.16,4.16,0,0,0,.3-3.1,4.24,4.24,0,0,0-4.6-3,4.28,4.28,0,0,0-1.6.5,4.55,4.55,0,0,1-3,.6,4.19,4.19,0,0,1-1.5-.4c-.4-.2-.7-.4-1.1-.6l-.1-.1v.1a18.18,18.18,0,0,0,1.6,3.1,22.57,22.57,0,0,0,2.3,2.9,16.83,16.83,0,0,0,2.9,2.4,7.82,7.82,0,0,0,1,.8Z"/><path class="cls-30" d="M173.62,130.8a18.42,18.42,0,0,1,3.8-1.7,21,21,0,0,1,5.6-.8,12.26,12.26,0,0,1,2.6.3h0c-.1,0-.2.1-.3.1a4.92,4.92,0,0,0-3,3.7c0,.3-.1.6-.1.8a2.54,2.54,0,0,1-.2,1.2,4.23,4.23,0,0,1-7.9.7c0-.1-.1-.2-.1-.3-.1-.6-.2-1.2-.3-1.9a14.77,14.77,0,0,1-.1-2.1q0,.15,0,0Z"/><path class="cls-31" d="M187.62,142.2v-.5a6.6,6.6,0,0,0-.6-2.7,4.69,4.69,0,0,0-1.8-1.9c-.1,0-.1-.1-.2-.1a3.91,3.91,0,0,1-1.9-2.8,4.26,4.26,0,0,1,3.2-4.9,3.63,3.63,0,0,1,2.3.1,13.35,13.35,0,0,1,1.8.7l1.2.6a.1.1,0,0,1,.1.1v.1a7.57,7.57,0,0,1-.1,1.5c-.1.7-.2,1.5-.3,2.2a17.75,17.75,0,0,1-2.5,6,14.31,14.31,0,0,1-1.1,1.5C187.72,142.2,187.72,142.2,187.62,142.2Z"/><path class="cls-32" d="M182.62,146.5c-.1-.1-.6-.3-1-.6a21.72,21.72,0,0,1-2.9-2.4,15.41,15.41,0,0,1-2.3-2.9,18.19,18.19,0,0,1-1.6-3.1v-.1a.1.1,0,0,1,.1.1,2.38,2.38,0,0,0,1.1.6,4.19,4.19,0,0,0,1.5.4,5.09,5.09,0,0,0,3-.6,3,3,0,0,1,1.6-.5,4.24,4.24,0,0,1,4.6,3,4.16,4.16,0,0,1-.3,3.1c-.1.1-.1.3-.2.4a.22.22,0,0,1-.2.2,15.94,15.94,0,0,1-3.3,2.5c0-.1,0-.1-.1-.1Z"/><circle class="cls-33" cx="200.72" cy="34.6" r="9.5"/><path class="cls-27" d="M206.82,32.1a1.42,1.42,0,0,0-.2-.6,1,1,0,0,0-.5-.4,1.27,1.27,0,0,0-.6-.1h-8.4l-.6,1.8h7.6l-1.2,3.7h-7.6l-.6,1.8h8.4c.3,0,.5-.1.7-.1a3,3,0,0,0,.7-.5l.6-.6c.1-.2.3-.5.4-.7l1.1-3.5a.65.65,0,0,0,.2-.8Z"/><path class="cls-27" d="M199.62,33.8h-4.5l-.6,1.7H199Z"/><circle cx="98.52" cy="193.8" r="12.2"/><path class="cls-27" d="M98.52,203.1h0c-.1,0-.1,0-.2-.1l-5.8-3.6h0c-.1,0-.1-.1-.1-.2v-.1h0v-.2h0l1.9-8.6v-.1h0l3.9-5.3c.1-.1.2-.2.3-.2s.2.1.3.2l3.9,5.3a.35.35,0,0,1,.1.2l1.9,8.6h0v.2h0v.1c0,.1-.1.1-.1.2h0l-5.8,3.6Zm1.4-3.6-.7,2.3,3.7-2.3Zm-5.9,0,3.7,2.3-.7-2.3Zm3.8,0,.6,2,.6-2Zm2.3-.8h3.4l-2.2-3.9Zm-2.5,0h1.7l1.5-4.8-2.4-4.2L96,193.9Zm-4.3,0h3.4l-1.2-3.9Zm1.3-6.7-1,4.7,1.6-2.8Zm7.1,1.8,1.6,2.8-1-4.7ZM95,190.6l.7,2.3,2.3-4.1v-2.4Zm3.8-1.8,2.3,4.1.7-2.3-3.1-4.2v2.4Z"/><path class="cls-34" d="M35.52,77.7a4,4,0,0,1-4,4h0c-3.9,0-6.5-4.1-6.5-4.1a8.32,8.32,0,0,1,6.5-4,4.17,4.17,0,0,1,4,4.1Zm2.6,2.6a4,4,0,0,1,4,4h0c0,3.9-4.1,6.5-4.1,6.5a8.32,8.32,0,0,1-4-6.5,4.17,4.17,0,0,1,4.1-4Zm2.6-2.6a4,4,0,0,1,4-4h0c3.9,0,6.5,4.1,6.5,4.1a8.32,8.32,0,0,1-6.5,4,4.17,4.17,0,0,1-4-4.1ZM38,75.1a4,4,0,0,1-4-4h0c0-3.9,4.1-6.5,4.1-6.5a8.32,8.32,0,0,1,4,6.5,4,4,0,0,1-4.1,4Z"/></g></g></svg>