<?xml version="1.0" encoding="utf-8"?>
<!-- Generator: Adobe Illustrator 21.1.0, SVG Export Plug-In . SVG Version: 6.00 Build 0)  -->
<svg version="1.1" id="Layer_1" xmlns="http://www.w3.org/2000/svg" xmlns:xlink="http://www.w3.org/1999/xlink" x="0px" y="0px"
	 viewBox="0 0 324 248" style="enable-background:new 0 0 324 248;" xml:space="preserve">
<style type="text/css">
	.st0{fill:none;stroke:#B280B2;stroke-miterlimit:10;}
	.st1{fill:none;stroke:#B280B2;stroke-miterlimit:10;stroke-dasharray:2.0097,2.0097;}
	.st2{fill:none;stroke:#D89EAB;stroke-miterlimit:10;}
	.st3{fill:none;stroke:#D89EAB;stroke-miterlimit:10;stroke-dasharray:1.9706,1.9706;}
	.st4{fill:none;stroke:#FE6601;stroke-miterlimit:10;}
	.st5{fill:none;stroke:#FE6601;stroke-miterlimit:10;stroke-dasharray:2.0476,2.0476;}
	.st6{fill:none;stroke:#6DBCBC;stroke-miterlimit:10;}
	.st7{fill:none;stroke:#6DBCBC;stroke-miterlimit:10;stroke-dasharray:2.0323,2.0323;}
	.st8{fill:none;stroke:#F49323;stroke-miterlimit:10;}
	.st9{fill:none;stroke:#F49323;stroke-miterlimit:10;stroke-dasharray:1.9764,1.9764;}
	.st10{fill:none;stroke:#B78888;stroke-miterlimit:10;}
	.st11{fill:none;stroke:#B78888;stroke-miterlimit:10;stroke-dasharray:1.9113,1.9113;}
	.st12{fill:none;stroke:#CBCBCB;stroke-miterlimit:10;}
	.st13{fill:none;stroke:#CBCBCB;stroke-miterlimit:10;stroke-dasharray:2.0106,2.0106;}
	.st14{fill:none;stroke:#F1AF1D;stroke-miterlimit:10;}
	.st15{fill:none;stroke:#F1AF1D;stroke-miterlimit:10;stroke-dasharray:2.1388,2.1388;}
	.st16{fill:none;stroke:#F1AF1D;stroke-miterlimit:10;stroke-dasharray:1.9702,1.9702;}
	.st17{fill:none;stroke:#828384;stroke-miterlimit:10;}
	.st18{fill:none;stroke:#828384;stroke-miterlimit:10;stroke-dasharray:2.0537,2.0537;}
	.st19{fill:none;stroke:#3570AB;stroke-miterlimit:10;}
	.st20{fill:none;stroke:#3570AB;stroke-miterlimit:10;stroke-dasharray:1.9557,1.9557;}
	.st21{fill:none;stroke:#F1AF1D;stroke-miterlimit:10;stroke-dasharray:1.9662,1.9662;}
	.st22{fill:none;stroke:#F1AF1D;stroke-miterlimit:10;stroke-dasharray:1.9754,1.9754;}
	.st23{fill:none;stroke:#000000;stroke-miterlimit:10;}
	.st24{fill:none;stroke:#000000;stroke-miterlimit:10;stroke-dasharray:2.1323,2.1323;}
	.st25{fill:#F49323;}
	.st26{fill:#66B1E7;}
	.st27{fill:url(#SVGID_1_);}
	.st28{fill:#FE6601;}
	.st29{fill:#4C4C4C;}
	.st30{fill:url(#SVGID_2_);}
	.st31{fill:none;stroke:#000000;stroke-width:2;stroke-miterlimit:10;}
	.st32{fill:#828384;}
	.st33{fill:#2F3030;}
	.st34{fill:#343535;}
	.st35{fill:#131313;}
	.st36{fill:#CBCBCB;}
	.st37{fill:#FFFFFF;}
	.st38{fill:#BCBBBB;}
	.st39{fill:#F2AF1D;}
	.st40{fill:none;stroke:#BCBBBB;stroke-miterlimit:10;}
	.st41{fill:none;stroke:#BCBBBB;stroke-miterlimit:10;stroke-dasharray:2.0097,2.0097;}
	.st42{fill:none;stroke:#BCBBBB;stroke-miterlimit:10;stroke-dasharray:1.9706,1.9706;}
	.st43{fill:none;stroke:#BCBBBB;stroke-miterlimit:10;stroke-dasharray:2.0476,2.0476;}
	.st44{fill:none;stroke:#BCBBBB;stroke-miterlimit:10;stroke-dasharray:2.0323,2.0323;}
	.st45{fill:none;stroke:#BCBBBB;stroke-miterlimit:10;stroke-dasharray:1.9764,1.9764;}
	.st46{fill:none;stroke:#BCBBBB;stroke-miterlimit:10;stroke-dasharray:1.9113,1.9113;}
	.st47{fill:none;stroke:#BCBBBB;stroke-miterlimit:10;stroke-dasharray:2.0106,2.0106;}
	.st48{fill:none;stroke:#BCBBBB;stroke-miterlimit:10;stroke-dasharray:2.1388,2.1388;}
	.st49{fill:none;stroke:#BCBBBB;stroke-miterlimit:10;stroke-dasharray:1.9702,1.9702;}
	.st50{fill:none;stroke:#BCBBBB;stroke-miterlimit:10;stroke-dasharray:2.0537,2.0537;}
	.st51{fill:none;stroke:#BCBBBB;stroke-miterlimit:10;stroke-dasharray:1.9557,1.9557;}
	.st52{fill:none;stroke:#BCBBBB;stroke-miterlimit:10;stroke-dasharray:1.9662,1.9662;}
	.st53{fill:none;stroke:#BCBBBB;stroke-miterlimit:10;stroke-dasharray:1.9754,1.9754;}
	.st54{fill:none;stroke:#BCBBBB;stroke-miterlimit:10;stroke-dasharray:2.1323,2.1323;}
	.st55{fill:#B280B2;}
	.st56{fill:#637AAD;}
	.st57{fill:#6DBCBC;stroke:#6DBCBC;stroke-miterlimit:10;}
	.st58{fill:#EFC878;}
	.st59{fill:#C1B9B9;}
	.st60{fill:#84B79B;}
	.st61{fill:url(#SVGID_3_);}
	.st62{fill:#B0A7B7;}
	.st63{fill:url(#SVGID_4_);}
	.st64{fill:none;stroke:#637AAD;stroke-miterlimit:10;}
	.st65{fill:none;stroke:#637AAD;stroke-miterlimit:10;stroke-dasharray:1.9706,1.9706;}
	.st66{fill:none;stroke:#F2AF1D;stroke-miterlimit:10;}
	.st67{fill:none;stroke:#F2AF1D;stroke-miterlimit:10;stroke-dasharray:1.9113,1.9113;}
	.st68{fill:none;stroke:#EFC878;stroke-miterlimit:10;}
	.st69{fill:none;stroke:#EFC878;stroke-miterlimit:10;stroke-dasharray:2.1388,2.1388;}
	.st70{fill:none;stroke:#84B79B;stroke-miterlimit:10;}
	.st71{fill:none;stroke:#84B79B;stroke-miterlimit:10;stroke-dasharray:1.9702,1.9702;}
	.st72{fill:none;stroke:#B0A7B7;stroke-miterlimit:10;}
	.st73{fill:none;stroke:#B0A7B7;stroke-miterlimit:10;stroke-dasharray:1.9662,1.9662;}
	.st74{fill:none;stroke:#A7B0CE;stroke-miterlimit:10;}
	.st75{fill:none;stroke:#A7B0CE;stroke-miterlimit:10;stroke-dasharray:1.9754,1.9754;}
	.st76{fill:#6DBCBC;}
	.st77{fill:#A7B0CE;}
	.st78{fill:url(#SVGID_5_);}
	.st79{fill:url(#SVGID_6_);}
</style>
<g>
	<path class="st26" d="M307.8,97.6c0.3,0.7,0.6,1.4,0.9,2C308.4,99,308.1,98.3,307.8,97.6z"/>
	<path class="st26" d="M312.5,106.9c0.3,0.5,0.7,1.1,1,1.6C313.1,108,312.8,107.4,312.5,106.9z"/>
	<path class="st26" d="M309.9,102.1c0.1,0.2,0.2,0.4,0.3,0.6C310,102.5,309.9,102.3,309.9,102.1z"/>
</g>
<g>
	<g>
		<line class="st0" x1="141.4" y1="129.1" x2="140.7" y2="129.8"/>
		<line class="st1" x1="139.4" y1="131.3" x2="99.5" y2="175.2"/>
		<line class="st0" x1="98.8" y1="175.9" x2="98.2" y2="176.7"/>
	</g>
</g>
<g>
	<g>
		<line class="st64" x1="145.2" y1="132.6" x2="145" y2="133.6"/>
		<line class="st65" x1="144.8" y1="135.5" x2="134.4" y2="208.7"/>
		<line class="st64" x1="134.3" y1="209.7" x2="134.2" y2="210.7"/>
	</g>
</g>
<g>
	<g>
		<line class="st40" x1="136.9" y1="124.8" x2="135.9" y2="125.1"/>
		<line class="st43" x1="134" y1="125.6" x2="59.5" y2="144.2"/>
		<line class="st40" x1="58.5" y1="144.4" x2="57.5" y2="144.7"/>
	</g>
</g>
<g>
	<g>
		<line class="st6" x1="136.4" y1="120.3" x2="135.4" y2="120.1"/>
		<line class="st7" x1="133.5" y1="119.6" x2="87" y2="108.6"/>
		<line class="st6" x1="86" y1="108.4" x2="85" y2="108.2"/>
	</g>
</g>
<g>
	<g>
		<line class="st40" x1="134.2" y1="113.1" x2="133.4" y2="112.5"/>
		<line class="st45" x1="131.7" y1="111.4" x2="84.3" y2="77.5"/>
		<line class="st40" x1="83.5" y1="76.9" x2="82.7" y2="76.3"/>
	</g>
</g>
<g>
	<g>
		<line class="st66" x1="144.4" y1="111.3" x2="144.1" y2="110.4"/>
		<line class="st67" x1="143.5" y1="108.6" x2="131.8" y2="73.2"/>
		<line class="st66" x1="131.5" y1="72.3" x2="131.2" y2="71.3"/>
	</g>
</g>
<g>
	<g>
		<line class="st40" x1="150.4" y1="126.1" x2="150.8" y2="127"/>
		<line class="st47" x1="151.6" y1="128.8" x2="170.9" y2="172"/>
		<line class="st40" x1="171.3" y1="172.9" x2="171.7" y2="173.8"/>
	</g>
</g>
<g>
	<g>
		<line class="st68" x1="188.4" y1="104.8" x2="188.3" y2="105.8"/>
		<line class="st69" x1="188" y1="107.9" x2="184.5" y2="132.3"/>
		<line class="st68" x1="184.3" y1="133.3" x2="184.2" y2="134.3"/>
	</g>
</g>
<g>
	<g>
		<line class="st70" x1="194.4" y1="101.6" x2="194.7" y2="102.5"/>
		<line class="st71" x1="195.3" y1="104.4" x2="212.1" y2="155.9"/>
		<line class="st70" x1="212.4" y1="156.9" x2="212.7" y2="157.8"/>
	</g>
</g>
<g>
	<g>
		<line class="st40" x1="201.9" y1="99.6" x2="202.7" y2="100.2"/>
		<line class="st50" x1="204.4" y1="101.4" x2="250" y2="134.6"/>
		<line class="st40" x1="250.9" y1="135.2" x2="251.7" y2="135.8"/>
	</g>
</g>
<g>
	<g>
		<line class="st40" x1="203.2" y1="91.3" x2="204.2" y2="91.4"/>
		<line class="st51" x1="206.1" y1="91.5" x2="263.7" y2="95.2"/>
		<line class="st40" x1="264.7" y1="95.3" x2="265.7" y2="95.3"/>
	</g>
</g>
<g>
	<g>
		<line class="st72" x1="205.2" y1="83.1" x2="206" y2="82.6"/>
		<line class="st73" x1="207.7" y1="81.6" x2="223.9" y2="72.3"/>
		<line class="st72" x1="224.8" y1="71.8" x2="225.7" y2="71.3"/>
	</g>
</g>
<g>
	<g>
		<line class="st74" x1="224.2" y1="42.3" x2="223.6" y2="43.2"/>
		<line class="st75" x1="222.5" y1="44.8" x2="198.3" y2="79.7"/>
		<line class="st74" x1="197.7" y1="80.5" x2="197.2" y2="81.3"/>
	</g>
</g>
<g>
	<g>
		<line class="st40" x1="181.7" y1="51.8" x2="181.9" y2="52.8"/>
		<line class="st54" x1="182.4" y1="54.9" x2="187.7" y2="78.8"/>
		<line class="st40" x1="187.9" y1="79.9" x2="188.2" y2="80.8"/>
	</g>
</g>
<circle class="st55" cx="93.2" cy="181.8" r="7.8"/>
<circle class="st56" cx="133.4" cy="218.1" r="7.8"/>
<circle class="st76" cx="80" cy="107" r="5.1"/>
<circle class="st39" cx="128.7" cy="63.8" r="6.3"/>
<circle class="st58" cx="183.8" cy="139.6" r="4.4"/>
<circle class="st77" cx="227.7" cy="37.8" r="5.3"/>
<circle class="st60" cx="214.8" cy="163.5" r="5.8"/>
<g>
	<path class="st25" d="M74.7,52.5c7.2,1.6,11.9,8.9,10.5,16c-1.5,7.6-9,12.4-16.2,10.9c-7.3-1.5-12.3-8.7-10.6-16.4
		C59.9,55.5,67.2,50.8,74.7,52.5z M82.1,68.2c1.3-5.8-2.4-11.5-8.1-12.8c-5.8-1.3-11.5,2.4-12.8,8.2s2.4,11.5,8.2,12.8
		C75.2,77.6,80.9,74,82.1,68.2z"/>
	<path class="st25" d="M72.1,59.5c0.4,0.2,0.7,0.2,1.1,0.3c0.2-0.8,0.4-1.7,0.6-2.6c0.6,0.1,1.1,0.2,1.7,0.4
		c-0.2,0.7-0.3,1.4-0.5,2.2c-0.1,0.4,0,0.5,0.4,0.7c0.8,0.3,1.6,0.7,2.2,1.3c1.3,1.3,1,3.4-0.6,4.3c-0.1,0.1-0.3,0.2-0.5,0.3
		c0.3,0.2,0.5,0.4,0.7,0.7c0.7,0.7,1,1.6,0.7,2.6c-0.2,1-0.6,2-1.5,2.6c-0.9,0.6-1.9,0.6-2.9,0.5c-0.4,0-0.8-0.2-1.2-0.3
		c-0.2,0.9-0.4,1.8-0.6,2.7c-0.6,0-1.1-0.2-1.7-0.3c0.2-0.9,0.4-1.8,0.6-2.6c-0.4-0.2-0.7-0.2-1.1-0.3c-0.2,0.9-0.4,1.8-0.6,2.7
		c-0.6-0.1-1.1-0.2-1.7-0.4c0.2-0.9,0.4-1.8,0.6-2.7c-1.1-0.2-2.1-0.5-3.1-0.7c0.1-0.5,0.2-1,0.3-1.5c0-0.2,0.2-0.2,0.4-0.2
		c0.3,0.1,0.5,0.1,0.8,0.2c0.6,0.1,0.9,0,1-0.6c0.3-1.5,0.7-3.1,1-4.6c0.2-0.9,0.4-1.7,0.6-2.6c0.1-0.6,0-0.8-0.6-0.9
		c-0.4-0.1-0.8-0.2-1.3-0.3c0.1-0.6,0.2-1.1,0.4-1.7c1.1,0.2,2.1,0.5,3.2,0.7c0.2-0.9,0.4-1.7,0.6-2.6c0.6,0.1,1.1,0.2,1.7,0.4
		C72.4,57.8,72.3,58.6,72.1,59.5z M70.6,66.3c-0.2,1.1-0.5,2.1-0.7,3.2c0,0.2-0.1,0.3,0.2,0.4c0.9,0.2,1.9,0.5,2.8,0.5
		c1-0.1,1.6-0.7,1.8-1.6c0.1-0.7-0.3-1.3-1.2-1.7C72.5,66.7,71.6,66.6,70.6,66.3z M71.7,61.4c-0.2,0.9-0.4,1.7-0.6,2.6
		c0,0.1-0.1,0.3-0.1,0.4c-0.1,0.2,0.1,0.3,0.3,0.3c0.6,0.1,1.1,0.2,1.7,0.4c0.9,0.2,1.6-0.3,1.9-1.1c0.3-0.8,0-1.4-0.8-1.8
		C73.3,61.7,72.5,61.5,71.7,61.4z"/>
</g>
<radialGradient id="SVGID_1_" cx="274.4709" cy="164.8649" r="7.158" gradientTransform="matrix(1 0 0 -1 0 260)" gradientUnits="userSpaceOnUse">
	<stop  offset="0.4162" style="stop-color:#3F90B0"/>
	<stop  offset="1" style="stop-color:#346DA9"/>
</radialGradient>
<path class="st27" d="M281.1,100.3c0,1.5-0.9,2.8-2.2,3.3c-1.4,0.6-3,0.2-4-0.8c-1-1.1-1.3-2.7-0.6-4c0.1-0.2,0.2-0.4,0.3-0.6
	c0.3-0.7,0-1.3-0.6-1.7c-0.6-0.4-1.3-0.3-1.8,0.3c-0.2,0.2-0.4,0.5-0.6,0.8c-1.3,1.7-3.8,1.9-5.3,0.4c-1.5-1.4-1.5-3.9,0.1-5.3
	s4-1.2,5.3,0.5c0.2,0.2,0.3,0.5,0.5,0.7c0.5,0.6,1.2,0.7,1.8,0.4c0.6-0.3,0.9-1,0.6-1.7c-0.1-0.3-0.3-0.5-0.4-0.8
	c-0.6-1.5-0.3-3.2,1-4.2c1.2-1,2.9-1.1,4.2-0.3c1.4,0.9,2,2.5,1.6,4s-1.7,2.5-3.3,2.6c-1.1,0.1-1.7,0.5-1.7,1.4s0.6,1.4,1.7,1.4
	C279.6,96.9,281.1,98.3,281.1,100.3z"/>
<circle class="st62" cx="229.6" cy="69.3" r="4"/>
<g>
	
		<linearGradient id="SVGID_2_" gradientUnits="userSpaceOnUse" x1="174.6615" y1="211.6108" x2="184.3393" y2="221.3921" gradientTransform="matrix(1 0 0 -1 0 260)">
		<stop  offset="3.513514e-02" style="stop-color:#D08825"/>
		<stop  offset="1" style="stop-color:#FDCF5A"/>
	</linearGradient>
	<circle class="st30" cx="179.4" cy="43.6" r="6.9"/>
	<circle class="st31" cx="179.6" cy="43.5" r="7.8"/>
	<polygon points="180.4,47.6 180.4,49.1 178.5,49.1 178.5,47.6 176.2,47.6 176.2,46.1 179.7,41.3 176.5,41.3 176.5,39.2 178.5,39.2 
		178.5,37.7 180.4,37.7 180.4,39.2 182.6,39.3 182.6,40.8 179.2,45.5 182.8,45.5 182.8,47.6 	"/>
</g>
<g>
	<polygon class="st32" points="256.2,138.7 256.2,128.7 247.8,142.5 	"/>
	<polygon class="st33" points="256.2,138.7 256.2,128.7 264.6,142.5 	"/>
	<polygon class="st34" points="247.8,142.5 256.2,147.3 256.2,138.7 	"/>
	<polygon class="st35" points="264.6,142.5 256.2,147.3 256.2,138.7 	"/>
	<polygon class="st32" points="247.8,144.2 256.1,155.8 256.1,149.2 	"/>
	<polygon class="st33" points="264.5,144.2 256.1,155.8 256.1,149.2 	"/>
</g>
<circle class="st36" cx="177.2" cy="183.1" r="12.4"/>
<polygon class="st37" points="183.5,189.9 171.3,189.9 172.4,185.2 170.7,185.8 171.2,183.8 173,183.1 175.1,175 179.7,175.1 
	178.3,181.1 180.2,180.5 179.9,182.4 177.7,183.3 176.6,187 184.2,187 "/>
<g>
	<path class="st38" d="M166.3,106.6l-0.4,0.2c-0.8,0.5-1,1.4-0.6,2.2c0.3,0.5,0.8,0.8,1.4,0.8c0.3,0,0.6-0.1,0.8-0.2l0.4-0.2
		c0.8-0.5,1-1.4,0.6-2.2C168.1,106.4,167.1,106.1,166.3,106.6z"/>
	<path class="st38" d="M170.8,103.6l-0.4,0.2c-0.8,0.5-1,1.4-0.6,2.2c0.3,0.5,0.8,0.8,1.4,0.8c0.3,0,0.6-0.1,0.8-0.2l0.4-0.2
		c0.8-0.5,1-1.4,0.6-2.2C172.6,103.4,171.6,103.2,170.8,103.6z"/>
	<path class="st39" d="M205.8,80.8l-10.4-5.9c-2.1-1.2-4.7-1.2-6.7-0.1L178.3,80c-1.3,0.7-2.2,2.1-2.2,3.7c0,0.2,0,0.4,0,0.6v10.6
		l0,0c0,5.2-1.4,5.8-1.4,5.8l0,0c-0.6,0.5-0.8,1.4-0.4,2.1c0.3,0.5,0.9,0.8,1.4,0.8c0.2,0,0.4,0,0.6-0.1l0,0
		c0.4-0.2,2.2-0.6,5.4,1.4c0.4,0.3,1.5,0.9,1.7,1.1l5.3,3.2c1,0.6,2.1,0.9,3.3,0.9c1.1,0,2.2-0.3,3.2-0.8l10.3-5.8c1.9-1,3-3,3-5.2
		V85.7C208.6,83.6,207.5,81.8,205.8,80.8z M192.6,90.9c0,2,0,4-0.2,5.9c-0.1,1.1-0.1,2.1-0.2,3.2c-0.1,1.1-0.2,2.1-0.4,3.2
		c-0.2-1.1-0.3-2.1-0.4-3.2c-0.1-1.1-0.2-2.1-0.2-3.2c-0.1-2-0.2-4-0.2-5.9c-3.4-1.9-6.7-3.9-9.9-6.3c3.7,1.4,7.2,3.1,10.7,4.9
		l11.9-4.9L192.6,90.9z"/>
	<path class="st39" d="M163.9,109.9c-0.3-0.6-0.9-0.9-1.5-0.9c-0.3,0-0.6,0.1-0.8,0.2l0,0c-0.4,0.2-1.6,0.9-5-1.4
		c-0.4-0.3-1.5-0.9-1.7-1.1l-5.3-3.2c-1-0.6-2.1-0.9-3.3-0.9c-1.1,0-2.2,0.3-3.2,0.8l-10.3,5.8c-1.9,1-3,3-3,5.2V127
		c0,2,1.1,3.8,2.8,4.8l10.4,5.9c2.1,1.2,4.7,1.2,6.7,0.1l10.4-5.2c1.3-0.7,2.2-2.1,2.2-3.7c0-0.2,0-0.4,0-0.6v-10.6l0,0
		c0-5.2,1.3-5.7,1.3-5.7l0,0C164.2,111.7,164.4,110.7,163.9,109.9z M146.2,119.9c0,2,0,4-0.2,5.9c-0.1,1.1-0.1,2.1-0.2,3.2
		c-0.1,1.1-0.2,2.1-0.4,3.2c-0.2-1.1-0.3-2.1-0.4-3.2c-0.1-1.1-0.2-2.1-0.2-3.2c-0.1-2-0.2-4-0.2-5.9c-3.4-1.9-6.7-3.9-9.9-6.3
		c3.7,1.4,7.2,3.1,10.7,4.9l11.9-4.9L146.2,119.9z"/>
</g>
<g>
	<path class="st28" d="M38.3,140.8c0,0.1,0,0.1,0,0.2c0,3,0,6,0,9c0,0.3,0,0.2-0.2,0.2c-1,0-2,0-2.9,0c-0.1,0-0.2,0-0.3-0.2
		c-1.3-4.1-0.1-8.6,3-11.6c1.8-1.7,3.9-2.7,6.4-3c5.9-0.7,11.1,3.1,12.4,8.5c0.5,2,0.4,4.1-0.2,6.1c0,0.1-0.1,0.2-0.3,0.2
		c-1,0-2,0-3,0c-0.2,0-0.2-0.1-0.2-0.2c0-3,0-6,0-9c0-0.1,0-0.1,0-0.2c-0.1,0.1-0.1,0.1-0.2,0.2c-2.3,2.3-4.7,4.7-7,7
		c-0.1,0.1-0.2,0.1-0.3,0c-2.3-2.3-4.7-4.7-7-7C38.4,140.9,38.4,140.8,38.3,140.8L38.3,140.8z"/>
	<path class="st29" d="M36,152.5c1.1,0,2.1,0,3.2,0c0.5,0,0.9,0,1.4,0c0.2,0,0.2,0,0.2-0.2c0-1.9,0-3.7,0-5.6c0-0.1,0-0.1,0-0.2
		c0.1,0.1,0.1,0.1,0.2,0.2c1.5,1.5,3,3,4.6,4.6c0.2,0.2,0.2,0.2,0.3,0c1.5-1.5,3-3,4.6-4.6c0,0,0.1-0.1,0.1-0.2c0,0,0,0,0.1,0
		c0,0.1,0,0.1,0,0.2c0,1.8,0,3.7,0,5.5c0,0.2,0,0.2,0.2,0.2c1.5,0,3,0,4.6,0c-2,3.1-4.7,4.9-8.3,5.3C42,158.5,37.9,155.8,36,152.5z"
		/>
</g>
</svg>
