<svg xmlns="http://www.w3.org/2000/svg" viewBox="0 0 201.35 565.59"><defs><style>.cls-1,.cls-2,.cls-3{fill:#fff;}.cls-1,.cls-2{stroke:#231f20;}.cls-1,.cls-2,.cls-6{stroke-miterlimit:10;}.cls-1{stroke-width:0.5px;}.cls-2,.cls-6{stroke-width:2px;}.cls-4{fill:#231f20;}.cls-5{fill:#f3ba35;}.cls-6,.cls-8{fill:#f2b01d;}.cls-6{stroke:#000;}.cls-7{fill:#bcbbbb;}</style></defs><title>Asset 1</title><g id="Layer_2" data-name="Layer 2"><g id="Layer_3" data-name="Layer 3"><polygon class="cls-1" points="170.15 189.86 177.65 186.52 187.49 185.02 196.49 186.02 199.99 189.02 199.15 191.52 194.82 192.69 187.82 192.52 191.15 197.69 196.32 203.36 199.15 208.02 199.15 211.86 195.49 211.86 190.99 211.36 192.65 216.52 191.82 219.36 187.99 219.52 179.99 214.86 173.99 204.86 170.15 189.86"/><polygon class="cls-1" points="51.98 304.52 54.48 308.02 55.32 314.19 52.15 318.86 44.15 325.52 39.48 328.69 36.65 325.69 35.32 320.86 37.65 318.86 33.98 316.52 32.65 311.02 34.32 307.19 36.65 308.52 38.32 310.86 41.48 306.86 44.15 304.69 51.98 304.52"/></g><g id="Layer_2-2" data-name="Layer 2"><path class="cls-2" d="M123.49,62.36c.9-3.19,4.67-60-54.67-61.33-60.66-1.36-58,58.38-57,61.67Z"/><path class="cls-3" d="M16.49,57C3.15,71,1.15,97,1.15,101.86c0,23.33,11.67,36.47,15,41.22a75.23,75.23,0,0,0,10.05,10c1.59.93,13.17,8.9,17.42,10,2.73.74,13.66,2.93,16.47,3.42,4.69.81,23.86-1.25,28.27-2.42,18.11-4.8,30.9-20.95,32.28-22.3,7.55-7.45,13.5-30.83,12.83-48.83-.41-11.07-8-26.67-14-36.33C85.65,34.92,51.38,32.1,16.49,57Z"/><path class="cls-4" d="M15.6,56.14C6.27,66.33,2.24,80.42.54,93.85a63.75,63.75,0,0,0,6,36.71C10.87,139.13,17.33,148,25,153.78a110.93,110.93,0,0,0,12.74,8c4.92,2.75,10.06,3.64,15.55,4.75,11.11,2.24,22.48,1.39,33.6-.78,12.72-2.48,23.86-11.24,32.44-20.58s12.11-21,14.08-33.34c1.24-7.71,2.11-15.91.76-23.66-1.44-8.25-5-16.19-8.78-23.59-1.66-3.21-3.26-7.19-6.06-9.48-4.21-3.43-10-5.91-14.87-8.18a94.19,94.19,0,0,0-28.18-8.29C54.38,36,33.63,43.46,15.86,55.94c-1.31.92-.06,3.09,1.26,2.16,15.15-10.64,32.5-17.84,51.26-17.5A82.16,82.16,0,0,1,93.3,45.13a104.23,104.23,0,0,1,13,5.48c4,2,9.91,4.24,12.74,7.81,4.62,5.82,7.83,14.39,10.24,21.3a54.52,54.52,0,0,1,2.74,22.39c-.92,13.16-3.68,29.15-12.73,39.34-7.67,8.63-16.7,16.39-27.69,20.38-5.33,1.94-11.07,2.43-16.68,3-4.93.48-10.17,1.19-15.1.47a116.69,116.69,0,0,1-15.33-3.17c-4.93-1.43-9.42-4.73-13.69-7.49a62,62,0,0,1-17.58-17.68A60.69,60.69,0,0,1,2.57,98.43c1.07-14.17,5-29.82,14.8-40.52C18.46,56.72,16.69,54.95,15.6,56.14Z"/><ellipse class="cls-4" cx="38.15" cy="91.73" rx="5" ry="10"/><ellipse class="cls-4" cx="95.15" cy="90.73" rx="5" ry="10"/><path class="cls-4" d="M40.49,72.52c-7.12-1.21-13.63,1.31-17.41,7.57a1.25,1.25,0,0,0,2.16,1.26c3.16-5.23,8.6-7.45,14.59-6.43,1.57.27,2.25-2.14.66-2.41Z"/><path class="cls-4" d="M93.66,74.1a10.1,10.1,0,0,1,8.53,2.58c1.33,1.22,2.91,3.11,2.72,5-.15,1.6,2.35,1.59,2.5,0,.26-2.77-1.91-5.51-3.88-7.19A12.72,12.72,0,0,0,93,71.69c-1.58.25-.91,2.66.66,2.41Z"/><path class="cls-4" d="M39.9,125.36c-.43,4.19,4,8.78,6.82,11.42,4.59,4.29,10.5,5.67,16.64,5.82,6.71.16,11.68-.54,17.35-4.16,4.5-2.86,9.14-5.94,10.52-11.41.24-1-.91-2.1-1.84-1.41l-.88.66c-1.27,1,0,3.12,1.26,2.16l.88-.66-1.84-1.41c-1.21,4.8-5.45,7.41-9.37,9.91-4.69,3-9,3.86-14.52,3.83-5.84,0-11.66-.81-16.19-4.86-2.45-2.19-6.72-6.36-6.35-9.89.17-1.6-2.34-1.59-2.5,0Z"/><path class="cls-4" d="M65.9,168.36v6.11a1.25,1.25,0,0,0,2.5,0v-.11a1.25,1.25,0,0,0-2.5,0v.11a1.25,1.25,0,0,0,2.5,0v-6.11a1.25,1.25,0,0,0-2.5,0Z"/><path class="cls-5" d="M67.35,176.16c.62.62,5.1,6,6.07,8.2,1.23,2.76,3.52,12.35,3.78,14.24.12.91.67,4.71.86,5.75.48,2.55,1.08,25.48,1.09,28.51,0,1.24.79,21.49,1,27.46.11,3.56,2,30.63,2,34.3,0,1.55,1,9.1,1,11.47,0,1.64.91,23.39,1,25.25,0,2,2.65,35.2,1.92,37.85-2.75.86-26,1.06-30.75.05-.58-2,.85-16.56.85-19.9,0-3,.28-12.31.05-13.78s-.05-36.74-.05-43.63q0-10,0-20c0-1.45,2.24-63.59,2.78-65.61.41-1.53,1.43-11.31,2.22-14.5.75-3,1.06-6,2.12-9,.63-1.78,3.89-7.58,3.88-6.5"/><path class="cls-4" d="M66.47,177C76.81,188.2,77.09,204.55,77.56,219c.44,13.58.78,27.15,1.3,40.73.49,12.83,1.08,25.85,2.35,38.62,1.16,11.64,1.06,23.33,1.78,35,.44,7.16,1,14.32,1.43,21.48.2,3.45.41,6.91.48,10.37a18.82,18.82,0,0,1,0,2.85c-.15,1.08-.17.45.52.06a7,7,0,0,1-2.41.26,167.78,167.78,0,0,1-23.84.09,9.06,9.06,0,0,1-2.27-.18c-1.84-.7,0,1-.49-.43-.43-1.22.07-3.27.13-4.56.23-4.46.71-8.91.84-13.37.82-27.55-.79-55.19.16-82.75q.81-23.51,1.83-47c.2-4.4.24-9.19.75-13.42S61.25,198,62,193.78c.93-5.07,1.7-13,5.92-16.67l-2-.25.09.13c.91,1.31,3.08.06,2.16-1.26l-.09-.13a1.27,1.27,0,0,0-2-.25c-5.57,4.88-6.3,15.45-7.24,22.22-.57,4.08-1.29,8.14-1.54,12.25-.78,12.86-1.17,25.75-1.66,38.62-1,26.94-1,53.9-.89,80.86,0,6.15.16,12.27.07,18.43-.1,7-2.16,14.94-.82,21.86a1.21,1.21,0,0,0,.87.87c5.35,1,11,.74,16.46.72,4.8,0,10.25.42,15-.77a1.23,1.23,0,0,0,.87-.87c1.09-5.4-.16-11.95-.49-17.36-.41-6.59-1-13.17-1.33-19.77-.66-11.9-.86-23.78-1.88-35.66C81.3,270.53,80.9,244.16,80,217.88c-.5-14.87-1.16-31.14-11.79-42.6-1.1-1.18-2.86.59-1.77,1.77Z"/><path class="cls-4" d="M60.15,372.61a1.25,1.25,0,0,0,0-2.5,1.25,1.25,0,0,0,0,2.5Z"/><path class="cls-4" d="M58.95,371c-.7,1.85-.41,4.48-.5,6.4-.22,5.25-.35,10.5-.47,15.75-.39,16.43-.63,32.86-.86,49.29q-.69,49-1.12,97.93c0,3.22.36,6.78-.09,10s-4.26,4.67-7,6.14c-4.34,2.37-9.24,5.61-14.14,6.62-1.57.32-.91,2.73.66,2.41,3.93-.81,7.81-3.22,11.32-5,3.27-1.71,7.46-3.35,10.14-6,2-1.93,1.48-5,1.5-7.65q.17-18.12.36-36.24c.38-36.46.76-72.92,1.5-109.37.14-6.92.29-13.84.53-20.76.09-2.56-.3-6.63.52-8.82.57-1.51-1.85-2.16-2.41-.66Z"/><path class="cls-4" d="M81.9,369.36c.09,26,1.36,52,2.09,78,.89,32,1.73,64.07,2.78,96.1.09,2.85-.4,7.66,1.5,9.83,2.36,2.7,7.11,4.38,10.18,6.06,3.27,1.79,8.16,3.55,10.82,5.87,1.21,1.06,3-.71,1.77-1.77-2-1.75-5-2.83-7.31-4.08-4-2.15-8.06-4.23-11.9-6.64C89,551,89.4,547.4,89.3,544.34c-.41-12-.74-24.09-1.09-36.14q-1.58-54.57-3.05-109.13c-.27-9.9-.72-19.81-.76-29.71a1.25,1.25,0,0,0-2.5,0Z"/><path class="cls-4" d="M68.6,179.24c7.26,7.25,15.35,14.21,21.19,22.7,6.14,8.93,11.67,18.53,18.94,26.61,3.34,3.71,6.93,8.47,11.16,11.22,5.47,3.55,7.91-3.2,10.64-6.77,5.87-7.68,12.16-15.05,18.4-22.44a128.27,128.27,0,0,1,9.34-9.86c3.66-3.51,7.15-7.41,11.58-10s11.18-4,16.33-4.44c3.29-.29,7.32,0,10.23,1.62,4.21,2.33-.08,3.21-2.75,3.22a48.23,48.23,0,0,0-6.51.11c-.85.11-1.07,1.21-.75,1.84a31.83,31.83,0,0,0,3.23,5.54c1.75,2.15,4,3.77,5.69,6a9.19,9.19,0,0,1,1.84,3.14c.45,2.51-.89,2.53-2.85,2.64-1.45.08-2.59-.47-4.14-.12a1.25,1.25,0,0,0-.87,1.54c.68,1.7,3.26,5.79.36,6.43-1.52.33-4-1-5.26-1.81A20.23,20.23,0,0,1,177,208c-2.85-6.05-3.65-12.67-5.8-18.9-.52-1.51-2.94-.86-2.41.66,2.53,7.34,3.18,15.61,7.65,22.21,3.54,5.23,9.33,9.71,15.92,8.39a1.28,1.28,0,0,0,.92-1.21c.31-3-.47-5.24-1.59-8l-.87,1.54c2.75-.61,5.66,1.14,8.55.72a1.2,1.2,0,0,0,.87-.87c.6-3.28-.65-6.16-2.51-8.85-3-4.25-6.73-7.16-9.18-11.86l-.75,1.84c2.73-.37,15.42,1.86,13.29-4.76-1.38-4.31-8.34-4.85-12-5.05-5.16-.28-10.43,1.33-15.39,2.65-7.16,1.9-12.05,7.47-17.23,12.44a217.28,217.28,0,0,0-20.75,23.53c-2.55,3.27-5.32,6.4-7.76,9.75-1.46,2-3.17,6.83-6.87,5.37-1-.41-2.32-2.12-3.08-2.86-9.09-8.95-15.92-19-23-29.53s-15.78-18.87-24.64-27.71a1.25,1.25,0,0,0-1.77,1.77Z"/><path class="cls-4" d="M64.07,177.06c-4.24,7.67-10.63,14.72-15.8,21.77Q34.38,217.77,20.5,236.72c-3.72,5.1-7.44,10.2-11.11,15.35C7.91,254.15,6,256.28,5,258.65c-2.79,6.42,1.55,9.61,5.94,13.35,5.92,5,11.94,10,17.95,14.9,6.38,5.24,12.8,10.45,19.14,15.74,2.38,2,4.87,3.81,5.75,7,1.49,5.42-3.38,8.28-6.61,11.43-2.59,2.53-5.06,6.25-9,6.56l1.25,1.25A9.08,9.08,0,0,0,39,325.5c-.36-.81-4.93-5.44-.19-5.26v-2.5c-3.42,0-5.33-3.53-4.56-6.48q-.53-2.16,1.65-2a6.57,6.57,0,0,0,.4,1.17c1,.84,1,1.93,2.63,1.5,2.2-.58,2.24-4,4.19-5.2,2.46-1.52,6.39-1,9.16-.78,1.18.07,1.78-1.84.63-2.33h0c-1.46-.62-2.74,1.53-1.26,2.16h0l.63-2.33c-3.7-.23-8.41-.66-11.49,1.86-.74.6-1.39,2.43-2,2.79-1.06.61.65.24-.79-.38-1.11-.48-.77-1.79-2.46-2-3.74-.38-4,5-3.74,7.44.43,4.22,2.67,7,7,7a1.25,1.25,0,0,0,0-2.5c-2.14-.08-4.4.4-5.11,2.69-1.06,3.39,3.1,5.32,3.16,8.48a1.26,1.26,0,0,0,1.25,1.25c4.59-.36,7.33-3.84,10.41-6.9,3.32-3.29,7.83-6,8-11.1.19-6.1-4.62-9.53-8.79-13C35.52,289.1,23.1,279.24,11.11,268.89c-2.9-2.5-5.53-5.48-3.79-9.45.17-.39,1.07-1.62,1.5-2.25,2.93-4.26,6-8.44,9-12.62Q32,225.12,46.26,205.77q6.9-9.4,13.79-18.82c2-2.8,4.5-5.59,6.18-8.63.78-1.41-1.38-2.67-2.16-1.26Z"/><path class="cls-6" d="M117.15,69.52C109.44,74.86,101,47.36,70.49,47.36S23.27,75.74,17.65,70c-2.88-2.93-1.15-13.82-1.15-13.82C16.71,56,42,31.59,69.15,31c26.71-.56,50.33,25.67,50.33,25.67S120.42,67.26,117.15,69.52Z"/><path class="cls-7" d="M65.17,17.84l-.14.07a.57.57,0,0,0-.21.77.56.56,0,0,0,.49.28.66.66,0,0,0,.28-.07l.14-.07a.57.57,0,0,0,.21-.77A.53.53,0,0,0,65.17,17.84Z"/><path class="cls-7" d="M66.75,16.79l-.14.07a.57.57,0,0,0-.21.77.56.56,0,0,0,.49.28.66.66,0,0,0,.28-.07l.14-.07a.57.57,0,0,0,.21-.77A.56.56,0,0,0,66.75,16.79Z"/><path class="cls-8" d="M79,8.82,75.34,6.76a2.43,2.43,0,0,0-2.34,0L69.37,8.54a1.47,1.47,0,0,0-.77,1.29v3.91h0c0,1.82-.49,2-.49,2h0a.59.59,0,0,0-.14.73.6.6,0,0,0,.49.28.44.44,0,0,0,.21,0h0c.14-.07.77-.21,1.89.49.14.1.52.31.59.38L73,18.75a2.2,2.2,0,0,0,1.15.31,2.52,2.52,0,0,0,1.12-.28l3.6-2a2,2,0,0,0,1-1.82v-4.4A1.87,1.87,0,0,0,79,8.82Zm-4.61,3.53a20,20,0,0,1-.07,2.06c0,.38,0,.73-.07,1.12s-.07.73-.14,1.12c-.07-.38-.1-.73-.14-1.12s-.07-.73-.07-1.12c0-.7-.07-1.4-.07-2.06a30.34,30.34,0,0,1-3.46-2.2,36.12,36.12,0,0,1,3.74,1.71l4.16-1.71Z"/><path class="cls-8" d="M64.33,19a.58.58,0,0,0-.52-.31.66.66,0,0,0-.28.07h0c-.14.07-.56.31-1.75-.49-.14-.1-.52-.31-.59-.38l-1.85-1.12a2.2,2.2,0,0,0-1.15-.31,2.52,2.52,0,0,0-1.12.28l-3.6,2a2,2,0,0,0-1,1.82V25a2,2,0,0,0,1,1.68L57,28.7a2.43,2.43,0,0,0,2.34,0L63,26.92a1.47,1.47,0,0,0,.77-1.29V21.72h0c0-1.82.45-2,.45-2h0A.52.52,0,0,0,64.33,19Zm-6.18,3.49a20,20,0,0,1-.07,2.06c0,.38,0,.73-.07,1.12s-.07.73-.14,1.12c-.07-.38-.1-.73-.14-1.12s-.07-.73-.07-1.12c0-.7-.07-1.4-.07-2.06a30.34,30.34,0,0,1-3.46-2.2A36.12,36.12,0,0,1,57.87,22L62,20.28Z"/></g></g></svg>