<svg xmlns="http://www.w3.org/2000/svg" xmlns:xlink="http://www.w3.org/1999/xlink" viewBox="0 0 440.87 538.82"><defs><style>.cls-1,.cls-20,.cls-22,.cls-27,.cls-28,.cls-36,.cls-37,.cls-49,.cls-50,.cls-51,.cls-6{fill:none;}.cls-2{clip-path:url(#clip-path);}.cls-3{fill:url(#linear-gradient);}.cls-4{fill:#c0e6ed;}.cls-5{fill:#a9dde0;}.cls-27,.cls-28,.cls-6{stroke:#e8f6fb;}.cls-18,.cls-19,.cls-20,.cls-22,.cls-23,.cls-27,.cls-28,.cls-30,.cls-31,.cls-33,.cls-35,.cls-36,.cls-37,.cls-38,.cls-39,.cls-45,.cls-46,.cls-47,.cls-48,.cls-49,.cls-50,.cls-51,.cls-52,.cls-53,.cls-6{stroke-miterlimit:10;}.cls-27,.cls-28,.cls-30,.cls-33,.cls-37,.cls-51,.cls-52,.cls-6{stroke-width:1.38px;}.cls-6{stroke-dasharray:1.38;}.cls-7{fill:#e8f6fb;}.cls-8{fill:#a7c0c6;}.cls-9{fill:#65787d;}.cls-10{fill:#a7b8a5;}.cls-11{fill:#959dad;}.cls-12{fill:#231f20;}.cls-13,.cls-52{fill:#f2ba31;}.cls-14{fill:#6e7a82;}.cls-15{fill:#97d8e6;}.cls-16,.cls-53{fill:#62c1ed;}.cls-17{fill:#5aa4da;}.cls-18{fill:#84b7e3;}.cls-18,.cls-19,.cls-20,.cls-22,.cls-23,.cls-35,.cls-36,.cls-37,.cls-39,.cls-46,.cls-48{stroke:#231f20;}.cls-18,.cls-19,.cls-20,.cls-31,.cls-38,.cls-39,.cls-45,.cls-46,.cls-47,.cls-48,.cls-53{stroke-width:0.69px;}.cls-19,.cls-23,.cls-47{fill:#fff;}.cls-21{fill:#181818;}.cls-22,.cls-50{stroke-width:0.34px;}.cls-23,.cls-49{stroke-width:0.52px;}.cls-24{fill:#3a3a3a;}.cls-25{fill:#96a7af;}.cls-26{fill:#fec45f;}.cls-28{stroke-dasharray:1.39 1.39;}.cls-29{fill:url(#linear-gradient-2);}.cls-30{fill:#f3fafd;}.cls-30,.cls-51{stroke:#ffebc0;}.cls-31{fill:#f69d9f;stroke:#f8bacd;}.cls-32,.cls-35,.cls-39{fill:#e7e8e9;}.cls-33{fill:#4f5c68;stroke:#81d4f7;}.cls-34{fill:#fdf05f;}.cls-35,.cls-36,.cls-37,.cls-39{stroke-linecap:round;}.cls-35,.cls-36{stroke-width:2.06px;}.cls-38{fill:#cc8250;stroke:#f2ea5e;}.cls-40{fill:#010101;}.cls-41{isolation:isolate;}.cls-42{fill:#89746a;}.cls-43{fill:#dba844;}.cls-44{fill:#86716a;}.cls-45{fill:#455080;stroke:#5575b9;}.cls-46{fill:#e7e8e8;}.cls-47,.cls-49,.cls-50,.cls-53{stroke:#000;}.cls-48{fill:#e8e8e8;}.cls-52{stroke:#f3fafd;}.cls-54{fill:#fee252;}.cls-55{fill:url(#linear-gradient-3);}.cls-56{fill:#75605a;}.cls-57{fill:url(#linear-gradient-4);}.cls-58{fill:#bcbbbb;}.cls-59{fill:#f2af1d;}.cls-60{fill:#515b5b;}</style><clipPath id="clip-path" transform="translate(16.96 1)"><rect class="cls-1" x="0.1" width="383" height="509"/></clipPath><linearGradient id="linear-gradient" x1="215.81" y1="525.09" x2="199.51" y2="-35.52" gradientUnits="userSpaceOnUse"><stop offset="0.22" stop-color="#fdd4bb"/><stop offset="0.55" stop-color="#aacdd2"/></linearGradient><linearGradient id="linear-gradient-2" x1="-696.73" y1="293.4" x2="-301.42" y2="293.4" gradientTransform="matrix(-1, 0, 0, 1, -255.85, 1)" gradientUnits="userSpaceOnUse"><stop offset="0.01" stop-color="#856224"/><stop offset="0.86" stop-color="#fbe99c"/></linearGradient><linearGradient id="linear-gradient-3" x1="332.69" y1="447.71" x2="374.37" y2="447.71" gradientUnits="userSpaceOnUse"><stop offset="0.01" stop-color="#deaf23"/><stop offset="0.86" stop-color="#624c69"/></linearGradient><linearGradient id="linear-gradient-4" x1="59.27" y1="353.34" x2="79.44" y2="353.34" gradientUnits="userSpaceOnUse"><stop offset="0.03" stop-color="#624c69"/><stop offset="1" stop-color="#da9f81"/></linearGradient></defs><title>FTT Mobile</title><g id="clipping_mask" data-name="clipping mask"><g class="cls-2"><rect class="cls-3" x="17.06" width="382" height="517.44"/><path class="cls-4" d="M398.86,516.44l-.16-196.57s-155,39.76-160.42,39.42c-21-1.33-26.76-1.84-44.46,1.38-10.24,1.86-7.75,9.07-15.58,16-4.7,4.18-12.78,4.87-20.62,8.71-11.66,5.7-24.72,14-40.85,15.64-5.38.55-17.35-3.09-31.11-2.35s-22.44,5.39-39,5c-2.91-.06-13.15-4.08-16-4.12-11.65-.17-16,8.25-23.38,10.54A44.69,44.69,0,0,1-.9,411.88V517Z" transform="translate(16.96 1)"/><path class="cls-5" d="M25.27,442.11l71.08-1.35c4.5-.09,9.59-.18,14-2.53s7.78-7.73,6-12.71c-.92-2.57-3-4.4-4.93-6.16s-3.93-3.52-4.46-5.86c-.73-3.2,1.61-6.47,4.29-8,3-1.79,8.37-4.7,11.74-5.08h-2.41a25.24,25.24,0,0,0-10.38,3.3c-3.22,1.9-6.24,5.92-5.25,10.28.68,3,2.92,5,5.1,6.94,1.86,1.67,3.62,3.24,4.36,5.32,1.39,3.88-1.53,8.31-5,10.19-3.94,2.12-8.77,2.21-13,2.29L25.24,440c-8.7.17-18.3.36-27.14,3.25v2.17C6.83,442.46,16.52,442.27,25.27,442.11Z" transform="translate(16.96 1)"/><path class="cls-5" d="M-.59,484.24a9,9,0,0,0,4.69-2.91A9.39,9.39,0,0,0,5.5,477c.07-.48.14-1,.23-1.42,1.51-7.32,9.5-11.65,23.75-12.88l69-5.95c8.81-.76,19.79-1.71,27.77-8.11A21.05,21.05,0,0,0,133.84,433,13.7,13.7,0,0,0,129.13,422a28.84,28.84,0,0,0-5-3.11c-3-1.6-5.88-3.12-6.75-6-1.77-5.82,7.89-12.29,11.43-13.94l-2.5.13c-4,1.88-13.15,7.05-10.91,14.41,1.12,3.68,4.49,5.47,7.76,7.2a27.32,27.32,0,0,1,4.66,2.88,11.65,11.65,0,0,1,4,9.33A18.91,18.91,0,0,1,125,447c-7.49,6-18.12,6.93-26.65,7.67l-69,5.95c-15.27,1.32-23.88,6.2-25.6,14.52-.11.52-.18,1-.26,1.54a7.77,7.77,0,0,1-1,3.45,7.32,7.32,0,0,1-3.68,2.16l-.65.21v2.16Z" transform="translate(16.96 1)"/><path class="cls-5" d="M50.45,431.17c13.78.47,28,1,41.91-.19,2.73-.23,5.72-.79,7.16-3.24,1.83-3.13-.25-6.32-2.08-9.14-.54-.84-1.06-1.62-1.48-2.4a10.55,10.55,0,0,1,12.39-15.08l-3.28-1.26c-4.76-1.46-6.41-.5-9.56,3.35a12.91,12.91,0,0,0-1.37,14c.46.85,1,1.72,1.57,2.55,1.66,2.54,3.22,4.94,2,7-1,1.64-3.34,2-5.55,2.23-13.76,1.14-27.95.66-41.67.19-17.35-.59-35.14-1.19-52.42,1.48v2.09C15.3,430,33.1,430.58,50.45,431.17Z" transform="translate(16.96 1)"/><path class="cls-5" d="M95.76,399l1.75.21A11.35,11.35,0,0,0,95.76,399Z" transform="translate(16.96 1)"/><path class="cls-5" d="M13,418.84l.75-.33c2.26-1,4.6-2.06,7-2.11,2.21-.06,5.25.81,6,2.8a1,1,0,0,0,.62.59l2.29.76a1,1,0,0,0,.6,0,68,68,0,0,1,35.45-1l.19,0c4.14.92,9.29,2.07,12.94-.85,2.72-2.17,3.37-5.54,4-8.8a25.78,25.78,0,0,1,1.3-4.95c1.67-4,7.06-6.26,11.62-6.06l-1.14-.13h-.07c-5.81-1.18-10-.07-12.32,5.41a27.23,27.23,0,0,0-1.42,5.35c-.58,3-1.14,5.88-3.26,7.58-2.88,2.3-7.3,1.32-11.2.45l-.19,0a75.6,75.6,0,0,0-34.28-.2,4.73,4.73,0,0,1-4.07-1c-1.86-1.52-5-2.09-7.11-2.07-2.79.06-5.32,1.19-7.77,2.29l-.74.33a82.25,82.25,0,0,1-14.1,4.74v2.13A84.38,84.38,0,0,0,13,418.84Z" transform="translate(16.96 1)"/><path class="cls-5" d="M134.9,396.49l.6-.25A4.13,4.13,0,0,0,134.9,396.49Z" transform="translate(16.96 1)"/><path class="cls-5" d="M147.33,430.66c-.83-2.36-2.77-4-4.68-5.43L141,424c-4.37-3.28-8.89-6.67-11.18-11.46a12.55,12.55,0,0,1-.22-10c.61-1.4,2.94-4.88,5.26-6l-1.47.61c-2.54.79-4.51,1.89-5.69,4.6a14.7,14.7,0,0,0,.25,11.73c2.51,5.24,7.23,8.79,11.8,12.22l1.61,1.22c1.66,1.27,3.34,2.65,4,4.48s.28,3.68-.19,5.86c-1.17,5.43-2.59,11.11-6,15.54-6.14,8-17.22,10.23-28.05,11.85L40,475.3c-5.81.87-13.74,2.79-15.61,9.31a16.74,16.74,0,0,0-.46,2.64,13.57,13.57,0,0,1-.46,2.51c-1.33,4.15-6.4,5.85-11.18,7S2.7,498.93-1.9,499.88V502c4.75-1,9.59-2.07,14.65-3.25,5.35-1.25,11-3.21,12.68-8.35a15.32,15.32,0,0,0,.54-2.9,15,15,0,0,1,.4-2.32c1.54-5.38,8.69-7,13.93-7.84l71.15-10.7c11.25-1.69,22.78-4.06,29.38-12.64,3.67-4.77,5.17-10.7,6.38-16.36C147.73,435.24,148.13,432.9,147.33,430.66Z" transform="translate(16.96 1)"/><path class="cls-5" d="M211.59,536.31c-13-4.43-27.8-9.45-38.44-19.91-10-9.79-16.16-27.31-8-40.5a50.32,50.32,0,0,1,3.72-5c2.09-2.59,4.06-5,5.11-8,3.41-9.52-4.59-19.52-8.18-23.38-1.6-1.72-3.32-3.37-5.14-5.11-4.93-4.73-10-9.61-12.46-15.84a6.36,6.36,0,0,1-4.57-3.36,9.53,9.53,0,0,1,0-9.13c2.49-4.29,7.2-6.32,12.22-8.19l24.08-9c3.71-1.38,8.66-3.68,8.92-7.78a11,11,0,0,0-.67-3.71,15.62,15.62,0,0,1-.76-3.59c-.32-5.83,5.35-10,10.75-11.49,7.06-1.89,14.4-.94,21.49,0,5.51.71,11.21,1.45,16.69.83a68.58,68.58,0,0,0,13.48-3.45l27.46-9,.64,2-27.46,9a70.13,70.13,0,0,1-13.89,3.54c-5.73.65-11.55-.1-17.19-.83-7.21-.93-14-1.81-20.69,0-4.77,1.28-9.46,4.91-9.22,9.39a13.84,13.84,0,0,0,.67,3.11,12.72,12.72,0,0,1,.75,4.43c-.33,5.29-6,8-10.25,9.58l-24.08,9c-4.65,1.73-9,3.59-11.15,7.29a7.51,7.51,0,0,0,.06,7.09,4.26,4.26,0,0,0,3.54,2.37l.71,0,.24.67c2.17,6.07,7.25,11,12.18,15.67,1.76,1.69,3.58,3.43,5.22,5.19,8.14,8.74,11.28,18,8.61,25.48-1.17,3.27-3.34,6-5.45,8.58a48.59,48.59,0,0,0-3.57,4.82c-7.58,12.28-1.69,28.72,7.7,37.95,10.31,10.13,24.84,15.07,37.66,19.43Z" transform="translate(16.96 1)"/><path class="cls-5" d="M135.16,410.34c-.12-8.32,1-13.7,5.57-16.84a52.57,52.57,0,0,1,13-6l22-8.76,2.92-1.72-24.26,12.43c-4.3,1.49-8.74,3-12.42,5.74C138,398.06,135.16,410.34,135.16,410.34Z" transform="translate(16.96 1)"/><path class="cls-5" d="M6.42,414.63c-12.6,4.74,7.08-3.89,13.59-7.07a10,10,0,0,0,1.43-1,16.26,16.26,0,0,1,3.22-2c4-1.69,8.07-.17,12,1.3a31.54,31.54,0,0,0,6.22,1.86c3.44.51,7-.34,10.37-1.16l22.44-6.39h2.41l-24.36,8.4c-3.43.83-7.32,1.76-11.15,1.2a33.07,33.07,0,0,1-6.64-2c-3.72-1.39-7.23-2.71-10.48-1.33a14.49,14.49,0,0,0-2.81,1.75c-.49.36-1,.73-1.53,1.07C18.49,411,7,414.69,6.42,414.63Z" transform="translate(16.96 1)"/><path class="cls-5" d="M182.76,445.41l-1.66-1.22c1.77-2.39.25-6.22-2.27-8.28a26.14,26.14,0,0,0-5.23-3.07,38,38,0,0,1-4.26-2.31A17.88,17.88,0,0,1,161.85,419a14.31,14.31,0,0,1,2.23-11.08c4.08-5.65,11.14-7.09,18-8.48,1.39-.28,2.82-.57,4.18-.89,5.5-1.3,10.48-4.51,12.69-8.19a8,8,0,0,0,1-6.32c-.14-.53-.34-1.05-.55-1.61a9.66,9.66,0,0,1-.85-3.77c.15-4.26,4.64-6.84,12-6.89a187.2,187.2,0,0,0,98.1-28.95l1.11,1.74a189.29,189.29,0,0,1-99.19,29.27c-1.63,0-9.79.3-10,4.9a8,8,0,0,0,.72,3,19,19,0,0,1,.61,1.81,10,10,0,0,1-1.23,7.91c-2.48,4.13-8,7.71-14,9.13-1.39.33-2.84.62-4.24.91-6.44,1.31-13.1,2.66-16.7,7.66a12.27,12.27,0,0,0-1.88,9.5,15.78,15.78,0,0,0,6.6,10.2,35.82,35.82,0,0,0,4,2.18,28.05,28.05,0,0,1,5.64,3.33C183.38,437,185.3,442,182.76,445.41Z" transform="translate(16.96 1)"/><path class="cls-6" d="M128.05,432.62c-12.38-14.21,12.37-22.46-2.52-36.21" transform="translate(16.96 1)"/><path class="cls-6" d="M181.91,391.14a30.38,30.38,0,0,0,.23-24.75" transform="translate(16.96 1)"/><rect class="cls-7" x="227.06" y="375.07" width="22.86" height="22.69"/><rect class="cls-8" x="244.25" y="373.52" width="11.86" height="24.41"/><polygon class="cls-9" points="242.93 376.44 224.14 376.44 235.82 368.02 252.78 368.08 242.93 376.44"/><polygon class="cls-8" points="232.79 411.28 210.33 411.28 210.33 393.86 233.25 389.28 232.79 411.28"/><rect class="cls-7" x="210.33" y="393.86" width="16.96" height="18.79"/><polygon class="cls-9" points="225 395.69 206.66 395.69 217.2 386.87 235.54 386.87 225 395.69"/><path class="cls-10" d="M401.79,258.86l-27.45,2.25a7.19,7.19,0,0,0-6.6,7.38l1,32.52a7.19,7.19,0,0,1-7.19,7.41h-19.9a7.19,7.19,0,0,0-7.19,7.06L334,338.77a7.19,7.19,0,0,1-6.89,7.05L275.57,348a7.19,7.19,0,0,0-6.89,7.34l.38,17.83a7.19,7.19,0,0,1-7.28,7.35L222.4,380a7.19,7.19,0,0,0-7.28,7.39l.28,10.09a7.19,7.19,0,0,1-7,7.39l-31,1a7.19,7.19,0,0,0-7,6.76L170,421.5a7.19,7.19,0,0,1-7.66,6.74l-36.9-2.46a7.19,7.19,0,0,0-7.67,7l-.26,8.57a7.19,7.19,0,0,1-6.86,7l-17.56.82a7.19,7.19,0,0,0-6.64,5.44l-2.18,8.72a7.19,7.19,0,0,1-2.82,4.13L69.23,476a7.19,7.19,0,0,0-2.8,4l-5.78,22a7.19,7.19,0,0,1-1.54,2.91l-7.59,8.68A7.19,7.19,0,0,0,57,525.55L405.67,523a7.19,7.19,0,0,0,7.14-7.29l-3.24-249.75A7.19,7.19,0,0,0,401.79,258.86Z" transform="translate(16.96 1)"/><path class="cls-1" d="M.1,298V458.29H.31A4,4,0,0,1,4.06,461l2.13,6.39A4,4,0,0,0,10.68,470l7.06-1.35a4,4,0,0,1,4.64,3.23,4,4,0,0,0,4.89,3.18l12.85-3.32A4,4,0,0,1,45,475l.27,1.91a4,4,0,0,0,3.85,3.4l82.13,1.29a4,4,0,0,1,3,1.41l22.62,27H381.1V298Z" transform="translate(16.96 1)"/><path class="cls-11" d="M131.29,481.64l-82.13-1.29a4,4,0,0,1-3.85-3.4L45,475a4,4,0,0,0-4.9-3.27l-12.85,3.32a4,4,0,0,1-4.89-3.18,4,4,0,0,0-4.64-3.23L10.68,470a4,4,0,0,1-4.49-2.63L4.06,461a4,4,0,0,0-3.75-2.7H.1V510H156.87l-22.62-27A4,4,0,0,0,131.29,481.64Z" transform="translate(16.96 1)"/><path class="cls-12" d="M43.38,461.21c-2.72,0-5.22-3-9.39-8.38l.54-.42c3.92,5,6.45,8.12,8.85,8.12h0c2.21,0,4.67-2.76,7.93-7.16l.55.41c-3.47,4.69-6,7.41-8.47,7.44Z" transform="translate(16.96 1)"/><polygon class="cls-13" points="43.67 459.29 37.08 453.5 38.8 444.91 47.1 442.1 53.69 447.89 51.97 456.48 43.67 459.29"/><rect class="cls-14" x="340.04" y="352.27" width="37.81" height="34.38"/><rect class="cls-7" x="359.75" y="358.91" width="4.58" height="4.58"/><rect class="cls-7" x="354.93" y="357.54" width="3.67" height="3.67"/><rect class="cls-15" x="333.85" y="351.58" width="61.42" height="1.15"/><polygon class="cls-16" points="378.08 377.25 333.87 343.79 331.79 398.79 378.08 386.87 378.08 377.25"/><rect class="cls-7" x="273.58" y="351.58" width="5.04" height="5.04"/><rect class="cls-7" x="265.33" y="345.16" width="5.04" height="5.04"/><rect class="cls-7" x="271.75" y="361.21" width="7.33" height="7.33"/><rect class="cls-7" x="269" y="342.64" width="2.52" height="2.52"/><rect class="cls-15" x="302.68" y="355.48" width="6.19" height="49.5"/><rect class="cls-15" x="273.58" y="405.43" width="57.06" height="2.52"/><rect class="cls-7" x="280.22" y="367.16" width="3.67" height="3.67"/><rect class="cls-7" x="278.05" y="374.78" width="2.66" height="2.66"/><path class="cls-17" d="M244,342.79v90.6l74.21.15v-90.6Zm45.85,63L258,406l-.11-30.94,31.85-.23Z" transform="translate(16.96 1)"/><polygon class="cls-16" points="262.58 420.1 260.29 420.1 260.17 343.73 262.58 344.02 262.58 420.1"/><polygon class="cls-15" points="379.23 376.56 377.41 376.56 333.87 343.79 335.68 343.79 379.23 376.56"/><rect class="cls-7" x="263.5" y="337.37" width="4.58" height="4.58"/><rect class="cls-7" x="265.33" y="329.58" width="4.58" height="4.58"/><rect class="cls-7" x="270.83" y="323.16" width="2.75" height="2.75"/><rect class="cls-7" x="265.79" y="315.37" width="2.75" height="2.75"/><rect class="cls-7" x="261.2" y="308.5" width="3.67" height="3.67"/><rect class="cls-7" x="257.08" y="299.33" width="3.21" height="3.21"/><rect class="cls-7" x="263.04" y="292" width="3.67" height="3.67"/><rect class="cls-7" x="269" y="285.12" width="2.75" height="2.75"/><rect class="cls-7" x="272.66" y="278.25" width="3.21" height="3.21"/><rect class="cls-7" x="274.95" y="270.91" width="2.29" height="2.29"/><rect class="cls-7" x="274.04" y="264.04" width="1.83" height="1.83"/><rect class="cls-7" x="271.29" y="257.62" width="1.38" height="1.38"/><rect class="cls-7" x="281.28" y="377.82" width="5.16" height="5.16"/><rect class="cls-7" x="269" y="335.31" width="2.29" height="2.29"/><rect class="cls-7" x="146.62" y="261.29" width="7.56" height="7.56"/><rect class="cls-7" x="218.12" y="336.91" width="6.19" height="6.19"/><rect class="cls-7" x="84.06" y="243.41" width="15.81" height="15.81"/><rect class="cls-7" x="25.62" y="262.66" width="7.56" height="7.56"/><rect class="cls-7" x="351.95" y="339.66" width="3.44" height="3.44"/><rect class="cls-7" x="358.37" y="351.35" width="2.29" height="2.29"/><rect class="cls-7" x="352.64" y="347" width="3.44" height="3.44"/><rect class="cls-7" x="356.31" y="343.1" width="2.52" height="2.52"/><rect class="cls-7" x="348.52" y="333.71" width="5.04" height="5.04"/><rect class="cls-7" x="357.45" y="347" width="2.52" height="2.52"/><rect class="cls-7" x="355.39" y="353.87" width="2.06" height="2.06"/><rect class="cls-7" x="349.2" y="325" width="6.65" height="6.65"/><rect class="cls-7" x="347.37" y="318.58" width="4.58" height="4.58"/><rect class="cls-7" x="358.6" y="326.37" width="1.6" height="1.6"/><rect class="cls-7" x="342.56" y="330.04" width="2.52" height="2.52"/><rect class="cls-7" x="338.66" y="319.27" width="4.81" height="4.81"/><polygon class="cls-15" points="335.34 344.76 262.52 344.94 260.17 343.73 333.87 343.79 335.34 344.76"/><path class="cls-18" d="M285.75,416.9l-6.31-5.79c5.64-7.62,5.5-9.6,6-17.62h2.37C294.27,402.85,294,407.66,285.75,416.9Z" transform="translate(16.96 1)"/><path class="cls-19" d="M293.92,418.47H279.33a.4.4,0,0,1-.27-.11l-13.84-12.61a.4.4,0,0,1,.27-.7h14.58a.4.4,0,0,1,.27.11l13.84,12.61A.4.4,0,0,1,293.92,418.47Z" transform="translate(16.96 1)"/><path class="cls-19" d="M281.55,389c0-2.85,1.52-5.28,4.21-5.28s4.47,2.31,4.47,5.16a5,5,0,0,1-4.87,5.16C282.67,394,281.55,391.83,281.55,389Z" transform="translate(16.96 1)"/><path class="cls-12" d="M284.51,412.55l-.14-.78a6,6,0,0,0,4.22-2.45c1.47-2.23,1.45-5.92-.06-12.32l.77-.18c1.57,6.63,1.55,10.5,0,12.94A6.71,6.71,0,0,1,284.51,412.55Z" transform="translate(16.96 1)"/><polygon class="cls-20" points="294.99 406.14 300.96 412.01 298.2 412.6 291.88 406.19 294.99 406.14"/><ellipse class="cls-21" cx="273.05" cy="408.92" rx="1.6" ry="3.12" transform="translate(-199.7 365.8) rotate(-51.12)"/><ellipse class="cls-12" cx="302.32" cy="389.55" rx="0.79" ry="1.45"/><path d="M273,409a3,3,0,0,1-.82-1.23.78.78,0,0,1-.05-.34l.24-3.55,1.92,1.21-.12,3.36A.72.72,0,0,1,273,409Z" transform="translate(16.96 1)"/><ellipse class="cls-12" cx="299.56" cy="389.36" rx="0.79" ry="1.45"/><path class="cls-22" d="M283.12,391.78a1.59,1.59,0,0,0,1.84-.07" transform="translate(16.96 1)"/><path class="cls-23" d="M285,412.23a2.26,2.26,0,0,1-2.22,1.89c-.25,0,.31-.81.1-.84s-.95.79-1.12.72.36-1,.23-1.12-.89.86-.89.59a1.86,1.86,0,0,1,2-2C284.34,411.44,285,411.37,285,412.23Z" transform="translate(16.96 1)"/><polygon points="296.93 412.37 295.62 412.63 286.67 403.17 285.62 387.65 286.94 387.38 297.19 396.59 296.93 412.37"/><rect class="cls-7" x="283.83" y="390.42" width="2.46" height="2.46"/><polygon class="cls-24" points="295.62 412.63 285.36 403.43 285.62 387.65 295.88 396.85 295.62 412.63"/><path class="cls-20" d="M285.13,398c-1.33,4.51-3.08,7.56-5.43,8.63" transform="translate(16.96 1)"/><path class="cls-22" d="M281.53,413.57a35.33,35.33,0,0,0-6.12,1c-1.09.44-1,10.95-1,10.95" transform="translate(16.96 1)"/><polygon class="cls-19" points="284.44 421.82 282.91 421.82 282.91 407.67 284.09 408.75 284.44 421.82"/><rect class="cls-19" x="296.67" y="419.41" width="1.53" height="10.6"/><rect class="cls-17" x="146.16" y="454.71" width="28.88" height="27.96"/><polygon class="cls-15" points="188.33 475.33 139.75 455.62 156.7 438.66 205.29 458.37 188.33 475.33"/><polygon class="cls-25" points="212.62 457 203.45 459.29 157.16 438.66 173.2 438.66 212.62 457"/><path class="cls-26" d="M285.12,418.84c.65-.55,3.4-15.4,28.88-37.81,8.09-7.12,33.53-.68,44-8.25,8.28-6-4.15-29.62,3.44-36.44,6.56-5.9,18.65-1.09,23.38-6.87s2.07-22.16,8.94-26.12c26.59-15.36,14.44,209-3.64,210.66-77,6.88-239.27,16.34-251.42,16.91-18.15.84-65.21,2.35-77-1.37-6.94-2.19,13.28-42.16,15.13-44,5.69-5.69,23.72-7.64,46.06-11.69,4.66-.84,9.48-7.84,14.44-8.25,33-2.75,16.5-25.44,44.69-22.69,8.3.81,0-16.29,16.5-22C229.62,410.16,276.18,426.41,285.12,418.84Z" transform="translate(16.96 1)"/><rect class="cls-7" x="278.28" y="383.89" width="3.67" height="3.67"/><rect class="cls-7" x="282.52" y="387.56" width="1.95" height="1.95"/><rect class="cls-7" x="285.67" y="384.41" width="1.95" height="1.95"/><polygon class="cls-16" points="182.83 435.46 175.04 432.71 175.04 420.79 182.83 420.79 182.83 435.46"/><polygon class="cls-17" points="192.45 431.79 182.83 435.46 182.83 420.79 192.91 416.66 192.45 431.79"/><polygon class="cls-15" points="194.75 415.29 184.04 424.63 170.91 421.71 181.62 412.36 194.75 415.29"/><rect class="cls-7" x="179.96" y="411.85" width="4.47" height="4.47"/><rect class="cls-7" x="186.27" y="402.91" width="2.75" height="2.75"/><rect class="cls-7" x="183.4" y="406.7" width="3.44" height="3.44"/><rect class="cls-7" x="184.09" y="397.76" width="3.44" height="3.44"/><rect class="cls-7" x="181" y="394.66" width="3.09" height="3.09"/><rect class="cls-7" x="181.8" y="391.23" width="2.75" height="2.75"/><rect class="cls-7" x="180.59" y="387.79" width="2.49" height="2.49"/><rect class="cls-7" x="181.71" y="384.27" width="2.41" height="2.41"/><rect class="cls-7" x="184.03" y="381.34" width="2.41" height="2.41"/><rect class="cls-7" x="186.27" y="378.54" width="2.35" height="2.35"/><rect class="cls-7" x="187.9" y="375.76" width="2.12" height="2.12"/><rect class="cls-7" x="187.21" y="373.01" width="2.12" height="2.12"/><rect class="cls-7" x="186.01" y="370.6" width="1.78" height="1.78"/><rect class="cls-7" x="184.69" y="368.48" width="1.55" height="1.55"/><rect class="cls-7" x="183.95" y="366.76" width="1.32" height="1.32"/><rect class="cls-7" x="182.74" y="365.1" width="1.32" height="1.32"/><rect class="cls-7" x="181.68" y="363.64" width="1.03" height="1.03"/><rect class="cls-7" x="181.37" y="362.1" width="1.03" height="1.03"/><rect class="cls-7" x="182.03" y="360.94" width="0.83" height="0.83"/><rect class="cls-7" x="182.6" y="360.03" width="0.72" height="0.72"/><rect class="cls-7" x="183.47" y="359.31" width="0.57" height="0.57"/><rect class="cls-7" x="201.79" y="384.67" width="2.86" height="2.86" transform="translate(423.4 773.2) rotate(-180)"/><rect class="cls-7" x="198.85" y="378.94" width="1.76" height="1.76" transform="translate(416.42 760.64) rotate(-180)"/><rect class="cls-7" x="200.24" y="381.36" width="2.2" height="2.2" transform="translate(419.66 765.93) rotate(-180)"/><rect class="cls-7" x="199.8" y="375.63" width="2.2" height="2.2" transform="translate(418.77 754.47) rotate(-180)"/><rect class="cls-7" x="202.01" y="373.65" width="1.98" height="1.98" transform="translate(422.96 750.29) rotate(-180)"/><rect class="cls-7" x="201.71" y="371.45" width="1.76" height="1.76" transform="translate(422.15 745.66) rotate(-180)"/><rect class="cls-7" x="202.65" y="369.24" width="1.6" height="1.6" transform="translate(423.86 741.09) rotate(-180)"/><rect class="cls-7" x="201.99" y="366.99" width="1.54" height="1.54" transform="translate(422.48 736.51) rotate(-180)"/><rect class="cls-7" x="200.5" y="365.11" width="1.54" height="1.54" transform="translate(419.51 732.77) rotate(-180)"/><rect class="cls-7" x="199.11" y="363.31" width="1.51" height="1.51" transform="translate(416.68 729.13) rotate(-180)"/><rect class="cls-7" x="198.21" y="361.53" width="1.36" height="1.36" transform="translate(414.73 725.42) rotate(-180)"/><rect class="cls-7" x="198.65" y="359.77" width="1.36" height="1.36" transform="translate(415.62 721.9) rotate(-180)"/><rect class="cls-7" x="199.64" y="358.23" width="1.14" height="1.14" transform="translate(417.38 718.59) rotate(-180)"/><rect class="cls-7" x="200.63" y="356.87" width="0.99" height="0.99" transform="translate(419.21 715.73) rotate(-180)"/><rect class="cls-7" x="201.25" y="355.77" width="0.84" height="0.84" transform="translate(420.32 713.38) rotate(-180)"/><rect class="cls-7" x="202.02" y="354.7" width="0.84" height="0.84" transform="translate(421.86 711.25) rotate(-180)"/><rect class="cls-7" x="202.89" y="353.76" width="0.66" height="0.66" transform="translate(423.4 709.19) rotate(-180)"/><rect class="cls-7" x="203.09" y="352.78" width="0.66" height="0.66" transform="translate(423.8 707.22) rotate(-180)"/><rect class="cls-7" x="202.8" y="352.03" width="0.53" height="0.53" transform="translate(423.09 705.6) rotate(-180)"/><rect class="cls-7" x="202.5" y="351.45" width="0.46" height="0.46" transform="translate(422.43 704.36) rotate(-180)"/><rect class="cls-7" x="202.03" y="350.99" width="0.37" height="0.37" transform="translate(421.4 703.35) rotate(-180)"/><rect class="cls-7" x="219.43" y="366.79" width="2.86" height="2.86" transform="translate(458.69 737.45) rotate(-180)"/><rect class="cls-7" x="216.49" y="361.06" width="1.76" height="1.76" transform="translate(451.72 724.89) rotate(-180)"/><rect class="cls-7" x="217.89" y="363.49" width="2.2" height="2.2" transform="translate(454.95 730.18) rotate(-180)"/><rect class="cls-7" x="217.45" y="357.76" width="2.2" height="2.2" transform="translate(454.07 718.72) rotate(-180)"/><rect class="cls-7" x="219.65" y="355.78" width="1.98" height="1.98" transform="translate(458.25 714.54) rotate(-180)"/><rect class="cls-7" x="219.36" y="353.57" width="1.76" height="1.76" transform="translate(457.44 709.91) rotate(-180)"/><rect class="cls-7" x="220.29" y="351.37" width="1.6" height="1.6" transform="translate(459.15 705.34) rotate(-180)"/><rect class="cls-7" x="219.63" y="349.11" width="1.54" height="1.54" transform="translate(457.77 700.76) rotate(-180)"/><rect class="cls-7" x="218.15" y="347.24" width="1.54" height="1.54" transform="translate(454.8 697.02) rotate(-180)"/><rect class="cls-7" x="216.75" y="345.44" width="1.51" height="1.51" transform="translate(451.97 693.38) rotate(-180)"/><rect class="cls-7" x="215.85" y="343.66" width="1.36" height="1.36" transform="translate(450.03 689.67) rotate(-180)"/><rect class="cls-7" x="216.29" y="341.89" width="1.36" height="1.36" transform="translate(450.91 686.15) rotate(-180)"/><rect class="cls-7" x="217.28" y="340.35" width="1.14" height="1.14" transform="translate(452.67 682.84) rotate(-180)"/><rect class="cls-7" x="218.27" y="338.99" width="0.99" height="0.99" transform="translate(454.51 679.98) rotate(-180)"/><rect class="cls-7" x="218.9" y="337.89" width="0.84" height="0.84" transform="translate(455.61 677.63) rotate(-180)"/><rect class="cls-7" x="219.67" y="336.83" width="0.84" height="0.84" transform="translate(457.15 675.5) rotate(-180)"/><rect class="cls-7" x="220.53" y="335.89" width="0.66" height="0.66" transform="translate(458.69 673.44) rotate(-180)"/><rect class="cls-7" x="220.73" y="334.9" width="0.66" height="0.66" transform="translate(459.09 671.47) rotate(-180)"/><rect class="cls-7" x="220.44" y="334.16" width="0.53" height="0.53" transform="translate(458.38 669.85) rotate(-180)"/><rect class="cls-7" x="220.15" y="333.58" width="0.46" height="0.46" transform="translate(457.72 668.61) rotate(-180)"/><rect class="cls-7" x="219.68" y="333.12" width="0.37" height="0.37" transform="translate(456.69 667.6) rotate(-180)"/><path class="cls-27" d="M67.32,460.12l-.37-.58" transform="translate(16.96 1)"/><path class="cls-28" d="M66.23,458.35c-9.5-16.77,9.73-25.5,2.59-35.47-4.33-6.05-9.31-20.7-2.18-26.38" transform="translate(16.96 1)"/><path class="cls-27" d="M67.2,396.09q.28-.19.58-.36" transform="translate(16.96 1)"/><path class="cls-6" d="M83.25,440.24c0-3.44-3.78-5.67-3.61-11.52.2-6.67,11.69-15.64,6.7-19.77" transform="translate(16.96 1)"/><path class="cls-6" d="M35.3,429.07c-14.61-26.12,15.47-23.37-1.2-41.59" transform="translate(16.96 1)"/><path class="cls-6" d="M105.36,424.37c-9.63-13.52,10.77-29.79.46-37.58" transform="translate(16.96 1)"/><rect class="cls-7" x="51.75" y="275.04" width="13.06" height="13.06"/><rect class="cls-13" x="167.93" y="292.23" width="12.38" height="12.38"/><polygon class="cls-29" points="45.63 316.08 45.67 316.08 45.67 316.02 45.75 316.02 45.75 316 45.79 316 45.79 315.95 45.92 315.95 45.92 316.02 46.02 316.02 46.02 315.96 46.19 315.96 46.19 316.03 46.25 316.03 46.25 315.89 46.51 315.89 46.51 315.91 46.65 315.91 46.65 315.83 46.88 315.83 46.88 316.04 46.91 316.04 46.91 315.76 47.3 315.76 47.3 315.93 47.51 315.93 47.51 315.57 48.03 315.57 48.03 315.18 48.87 315.18 48.87 315.49 49.23 315.49 49.23 314.74 50.83 314.74 50.83 315.43 51.12 315.43 51.12 314.69 52.78 314.69 52.78 315.94 53.12 315.94 53.12 314.34 55.53 314.34 55.53 312.97 58.85 312.97 58.85 314.69 60.8 314.69 60.8 313.42 61.71 313.42 61.71 310.67 65.15 310.67 65.15 311.82 67.21 311.82 67.21 310.9 72.03 310.9 72.03 306.09 81.31 306.09 81.31 306.44 87.5 306.44 87.5 307.12 94.71 307.12 94.71 304.37 100.56 304.37 100.56 295.44 111.21 295.44 111.21 295.09 119.12 295.09 119.12 290.62 139.75 290.62 139.75 296.12 152.81 296.12 152.81 290.62 162.43 290.62 162.43 287.87 176.18 287.87 176.18 284.44 197.5 284.44 197.5 301.62 202.31 301.62 202.31 298.19 205.06 298.19 205.06 283.75 217.43 283.75 217.43 276.19 220.87 276.19 220.87 265.19 240.12 265.19 240.12 248 264.18 248 264.18 240.44 296.5 240.44 296.5 234.94 323.31 234.94 323.31 230.12 358.37 230.12 358.37 236.31 387.59 236.31 387.59 233.9 422.65 233.9 422.65 242.5 427.81 242.5 427.81 277.56 423 277.56 423 288.56 440.87 288.56 440.87 323.62 418.18 323.62 405.81 323.62 405.12 323.62 405.12 358.69 370.06 358.69 370.06 340.12 339.12 340.12 339.12 333.94 322.62 333.94 322.62 355.94 295.81 355.94 295.81 333.25 283.43 333.25 283.43 333.94 256.62 333.94 256.62 307.12 252.5 307.12 252.5 311.25 242.18 311.25 242.18 327.06 224.31 327.06 224.31 319.5 209.87 319.5 209.87 342.19 185.12 342.19 185.12 324.31 164.5 324.31 164.5 314.69 163.81 314.69 163.81 319.5 150.06 319.5 150.06 316.75 148.68 316.75 148.68 319.5 132.18 319.5 132.18 311.25 124.62 311.25 124.62 317.44 110.18 317.44 110.18 314.69 101.59 314.69 101.59 313.31 95.75 313.31 95.75 316.4 89.9 316.4 89.9 322.25 79.59 322.25 79.59 319.5 78.56 319.5 78.56 320.87 70.65 320.87 70.65 319.27 65.61 319.27 65.61 318.58 62.86 318.58 62.86 320.87 59.42 320.87 59.42 318.69 57.36 318.69 57.36 318.12 55.07 318.12 55.07 316.98 53.98 316.98 53.98 318.06 51.86 318.06 51.86 317.21 50.2 317.21 50.2 316.35 49.63 316.35 49.63 316.8 48.31 316.8 48.31 316.4 47.88 316.4 47.88 316.23 47.66 316.23 47.66 316.36 47.23 316.36 47.23 316.15 46.91 316.15 46.91 316.3 46.65 316.3 46.65 316.16 46.63 316.16 46.63 316.25 46.39 316.25 46.39 316.15 46.33 316.15 46.33 316.2 46.16 316.2 46.16 316.13 46.05 316.13 46.05 316.17 45.9 316.17 45.9 316.08 45.88 316.08 45.88 316.14 45.75 316.14 45.75 316.12 45.68 316.12 45.68 316.14 45.62 316.14 45.62 316.1 45.57 316.1 45.57 316.04 45.63 316.04 45.63 316.08"/><rect class="cls-13" x="356.99" y="324.46" width="27.5" height="27.5" transform="translate(758.44 677.41) rotate(-180)"/><rect class="cls-13" x="282.74" y="331.1" width="20.63" height="20.63" transform="translate(603.07 683.83) rotate(-180)"/><rect class="cls-13" x="329.03" y="324.68" width="13.29" height="13.29" transform="translate(688.32 663.66) rotate(-180)"/><rect class="cls-13" x="391.36" y="291.68" width="28.88" height="28.88" transform="translate(828.57 613.24) rotate(-180)"/><rect class="cls-13" x="382.2" y="247.23" width="25.67" height="25.67" transform="translate(807.03 521.12) rotate(-180)"/><rect class="cls-13" x="335.91" y="260.98" width="28.88" height="28.88" transform="translate(717.65 551.83) rotate(-180)"/><rect class="cls-13" x="311.61" y="233.93" width="26.13" height="26.13" transform="translate(666.32 494.99) rotate(-180)"/><rect class="cls-13" x="290.53" y="285.73" width="32.54" height="32.54" transform="translate(630.57 604.99) rotate(-180)"/><rect class="cls-13" x="347.82" y="286.64" width="32.08" height="32.08" transform="translate(744.69 606.37) rotate(-180)"/><rect class="cls-13" x="350.11" y="239.43" width="24.75" height="24.75" transform="translate(741.94 504.62) rotate(-180)"/><rect class="cls-13" x="291.91" y="265.56" width="21.54" height="21.54" transform="translate(622.32 553.66) rotate(-180)"/><rect class="cls-13" x="252.95" y="295.81" width="27.04" height="27.04" transform="translate(549.9 619.66) rotate(-180)"/><rect class="cls-13" x="264.41" y="263.73" width="22.46" height="22.46" transform="translate(568.23 550.91) rotate(-180)"/><rect class="cls-13" x="286.86" y="240.81" width="17.42" height="17.42" transform="translate(608.11 500.04) rotate(-180)"/><rect class="cls-13" x="238.28" y="273.58" width="15.58" height="15.58" transform="translate(509.11 563.74) rotate(-180)"/><rect class="cls-13" x="250.2" y="244.71" width="21.08" height="21.08" transform="translate(538.44 511.49) rotate(-180)"/><rect class="cls-13" x="222.7" y="291" width="11.92" height="11.92" transform="translate(474.28 594.91) rotate(-180)"/><rect class="cls-13" x="226.36" y="250.21" width="19.71" height="19.71" transform="translate(489.4 521.12) rotate(-180)"/><rect class="cls-13" x="211.7" y="266.71" width="16.96" height="16.96" transform="translate(457.32 551.37) rotate(-180)"/><rect class="cls-13" x="210.32" y="310.25" width="11.92" height="11.92" transform="translate(449.53 633.41) rotate(-180)"/><rect class="cls-13" x="203.91" y="286.87" width="16.96" height="16.96" transform="translate(441.73 591.7) rotate(-180)"/><rect class="cls-13" x="192.45" y="285.96" width="12.38" height="12.38" transform="translate(414.23 585.29) rotate(-180)"/><rect class="cls-13" x="191.07" y="301.08" width="12.83" height="12.83" transform="translate(411.94 615.99) rotate(-180)"/><rect class="cls-13" x="171.36" y="320.33" width="16.96" height="16.96" transform="translate(376.65 658.62) rotate(-180)"/><rect class="cls-13" x="175.95" y="304.29" width="11.46" height="11.46" transform="translate(380.32 621.04) rotate(-180)"/><rect class="cls-13" x="163.11" y="287.33" width="14.21" height="14.21" transform="translate(357.4 589.87) rotate(-180)"/><rect class="cls-13" x="151.2" y="305.21" width="13.75" height="13.75" transform="translate(333.11 625.16) rotate(-180)"/><rect class="cls-13" x="147.07" y="289.62" width="10.54" height="10.54" transform="translate(321.65 590.79) rotate(-180)"/><rect class="cls-13" x="134.24" y="305.21" width="10.08" height="10.08" transform="translate(295.53 621.49) rotate(-180)"/><rect class="cls-13" x="136.99" y="293.75" width="6.88" height="6.88" transform="translate(297.82 595.37) rotate(-180)"/><rect class="cls-13" x="120.03" y="307.04" width="9.17" height="9.17" transform="translate(266.19 624.24) rotate(-180)"/><rect class="cls-13" x="128.28" y="299.25" width="4.58" height="4.58" transform="translate(278.11 604.08) rotate(-180)"/><rect class="cls-13" x="117.74" y="298.79" width="6.42" height="6.42" transform="translate(258.86 604.99) rotate(-180)"/><rect class="cls-13" x="329.95" y="285.5" width="26.58" height="26.58" transform="translate(703.44 598.58) rotate(-180)"/><rect class="cls-13" x="243.78" y="313" width="15.58" height="15.58" transform="translate(520.11 642.58) rotate(-180)"/><rect class="cls-13" x="309.78" y="256.62" width="16.5" height="16.5" transform="translate(653.03 530.74) rotate(-180)"/><rect class="cls-13" x="375.78" y="269" width="21.54" height="21.54" transform="translate(790.07 560.54) rotate(-180)"/><rect class="cls-13" x="376.47" y="229.58" width="23.38" height="23.38" transform="translate(793.28 483.54) rotate(-180)"/><rect class="cls-13" x="109.03" y="302.34" width="6.19" height="6.19" transform="translate(241.21 611.87) rotate(-180)"/><rect class="cls-13" x="115.91" y="291" width="5.5" height="5.5" transform="translate(254.28 588.49) rotate(-180)"/><rect class="cls-13" x="104.56" y="292.03" width="6.88" height="6.88" transform="translate(232.96 591.93) rotate(-180)"/><rect class="cls-13" x="99.75" y="308.18" width="6.19" height="6.19" transform="translate(222.65 623.56) rotate(-180)"/><rect class="cls-13" x="102.84" y="300.97" width="3.78" height="3.78" transform="translate(226.43 606.71) rotate(-180)"/><rect class="cls-13" x="92.19" y="295.47" width="8.25" height="8.25" transform="translate(209.59 600.18) rotate(-180)"/><rect class="cls-13" x="94.94" y="311.28" width="2.75" height="2.75" transform="translate(209.59 626.31) rotate(-180)"/><rect class="cls-13" x="94.25" y="305.43" width="2.75" height="2.75" transform="translate(208.21 614.62) rotate(-180)"/><rect class="cls-13" x="86.34" y="307.15" width="4.81" height="4.81" transform="translate(194.46 620.12) rotate(-180)"/><rect class="cls-13" x="86" y="296.5" width="4.81" height="4.81" transform="translate(193.78 598.81) rotate(-180)"/><rect class="cls-13" x="80.5" y="306.12" width="3.44" height="3.44" transform="translate(181.4 616.68) rotate(-180)"/><rect class="cls-13" x="88.06" y="302.34" width="2.75" height="2.75" transform="translate(195.84 608.43) rotate(-180)"/><rect class="cls-13" x="75" y="311.28" width="3.09" height="3.09" transform="translate(170.06 626.65) rotate(-180)"/><rect class="cls-13" x="70.19" y="308.18" width="2.75" height="2.75" transform="translate(160.09 620.12) rotate(-180)"/><rect class="cls-13" x="76.72" y="307.5" width="2.06" height="2.06" transform="translate(172.46 618.06) rotate(-180)"/><rect class="cls-13" x="67.78" y="312.65" width="3.78" height="3.78" transform="translate(156.31 630.09) rotate(-180)"/><rect class="cls-13" x="63.31" y="308.18" width="3.44" height="3.44" transform="translate(147.03 620.81) rotate(-180)"/><rect class="cls-13" x="64.34" y="317.81" width="2.06" height="2.06" transform="translate(147.71 638.68) rotate(-180)"/><rect class="cls-13" x="57.81" y="305.78" width="3.78" height="3.78" transform="translate(136.37 616.34) rotate(-180)"/><rect class="cls-13" x="60.56" y="312.65" width="2.75" height="2.75" transform="translate(140.84 629.06) rotate(-180)"/><rect class="cls-13" x="55.41" y="315.75" width="2.41" height="2.41" transform="translate(130.18 634.9) rotate(-180)"/><line class="cls-30" x1="33.18" y1="480.6" x2="32.15" y2="399.82"/><polyline class="cls-20" points="249.26 398.53 250.4 412.14 248.32 427.64"/><polyline class="cls-20" points="264.38 397.21 269.3 408.74 271.75 424.81"/><path class="cls-20" d="M238.54,368c7.7,2.62,15.08-1.68,22.11-13.8" transform="translate(16.96 1)"/><path class="cls-12" d="M18.27,450.25c-4.13,0-8.41-2.67-11.06-7.14l.59-.35c3.07,5.18,8.4,7.83,13,6.43l-.13.67A7.12,7.12,0,0,1,18.27,450.25Z" transform="translate(16.96 1)"/><polygon class="cls-13" points="283.44 360.67 277.63 357.6 276.94 351.06 282.06 347.6 287.86 350.68 288.55 357.21 283.44 360.67"/><polygon class="cls-31" points="267.03 397.4 247.56 399.48 246.24 365.27 254.74 365.83 267.03 397.4"/><path class="cls-12" d="M163.57,402.95h-.11c-2.11-.35-4.51-.57-6.84-.79s-4.78-.44-6.94-.8a13,13,0,0,1-5.78-2,12.25,12.25,0,0,1-3.2-4.1c-5.49-9.8-7.92-20.17-10.11-30.82a.69.69,0,1,1,1.35-.28c2.17,10.53,4.57,20.79,10,30.42a11.15,11.15,0,0,0,2.82,3.67,12,12,0,0,0,5.19,1.7c2.11.35,4.51.57,6.84.79s4.78.44,6.94.8a.69.69,0,0,1-.11,1.37Z" transform="translate(16.96 1)"/><path class="cls-32" d="M65.57,380a7.68,7.68,0,0,0-4.44-.78c-1.48.19-3.07.8-4.4.12a2.52,2.52,0,0,0-1.12-.45,2.14,2.14,0,0,0,1.64,3.23c.48,0,1.14-.06,1.27.4a3.2,3.2,0,0,1-2.11.6C59.16,386.57,62.24,385.11,65.57,380Z" transform="translate(16.96 1)"/><path class="cls-12" d="M59.57,385.69a4.82,4.82,0,0,1-3.71-2.11l-1-1.24,1,.08a2.94,2.94,0,0,1-1-1.13,2.66,2.66,0,0,1,.13-2.78l.2-.27h.34a2.28,2.28,0,0,1,1.21.4l.23.13a4.57,4.57,0,0,0,2.86,0c.38-.07.77-.15,1.14-.2a8.4,8.4,0,0,1,4.84.85l.68.35-.42.64c-2.26,3.46-4.35,5.19-6.39,5.29Zm-1.73-2a2.71,2.71,0,0,0,1.84.67c1.43-.07,3.05-1.41,4.85-4a7,7,0,0,0-3.33-.39c-.35,0-.7.11-1.06.18a5.7,5.7,0,0,1-3.74-.13l-.3-.16-.13-.07a1.54,1.54,0,0,0,.16.93,1.32,1.32,0,0,0,1.09.79h.15c.49,0,1.51,0,1.77.9l.13.46-.39.28A3.85,3.85,0,0,1,57.85,383.64Z" transform="translate(16.96 1)"/><path class="cls-33" d="M297.86,534.83c.49,1.34,32.38,2.11,55,2.29-27.41-34.25-27.4-75.44-28.23-119.31,0-.87-18.94-4.27-20.81-3.53-4.21,1.67-4.57,7.74-6.42,11.46-5.48,11-5,22.3-7.33,34.38C285.4,484.27,289.4,511.7,297.86,534.83Z" transform="translate(16.96 1)"/><path class="cls-16" d="M103.7,485.36c0,.81-8.09.95-9.37.95S92,485.65,92,484.84s-.25-3,1-3S103.7,484.55,103.7,485.36Z" transform="translate(16.96 1)"/><path class="cls-16" d="M164.89,475c0,1.23-9.8,1.55-11.09,1.55a2.28,2.28,0,0,1-2.32-2.23c0-1.23-.59-2.58.69-2.58S164.89,475,164.89,475Z" transform="translate(16.96 1)"/><path class="cls-12" d="M101.27,487.08c-.77,0-1.64,0-2.62-.06-1.25,0-2.54-.08-3.57,0a4.16,4.16,0,0,1-2.86-.63c-1.11-.89-1.3-2.45-.55-4.64,1.41-4.14,2.68-8.1,3.91-11.93,1.42-4.42,2.89-9,4.56-13.79,3-8.68,6.5-19.78,6.84-28.68a.7.7,0,0,1,.71-.66.69.69,0,0,1,.66.71c-.35,9.07-3.88,20.3-6.91,29.07-1.66,4.79-3.13,9.35-4.55,13.76-1.12,3.47-2.27,7-3.52,10.76,1.31.42,4,1.36,5.52,1.91,6.16,2.2,6.21,2.38,6.33,2.82a.72.72,0,0,1-.24.73C104.36,486.94,103.12,487.08,101.27,487.08Zm-5.21-1.49c.84,0,1.75,0,2.63.06,1.21,0,2.69.09,3.82,0-2.67-1-7.82-2.85-9.58-3.41-.35,1.07-.59,2.43.14,3a3,3,0,0,0,1.95.33Z" transform="translate(16.96 1)"/><path class="cls-12" d="M155.39,477a4.08,4.08,0,0,1-3.4-1.33,5.07,5.07,0,0,1-.83-1.82c-1-3.27-1.57-10.28-2.17-17.05-.54-6.17-1.05-12-1.78-14.86-2.37-9.35-3.17-10.61-10.77-16.82a.69.69,0,1,1,.87-1.06c7.59,6.21,8.71,7.59,11.23,17.55.75,3,1.27,8.85,1.81,15.08.45,5.1.91,10.34,1.5,13.93,1,.18,2.86.7,6.81,1.79,2.19.61,7.4,2.07,8.39,2.56a.75.75,0,0,1,.48,1c-.23.62-.7.65-4.83.72-1.85,0-4,.07-5.25.21A18.9,18.9,0,0,1,155.39,477Zm-3.25-4.92c.11.52.22,1,.34,1.39a3.93,3.93,0,0,0,.59,1.35c.84,1,2.64.85,4.22.67,1.39-.15,3.53-.19,5.41-.22l.9,0C160.07,474.22,154.36,472.65,152.13,472.1Z" transform="translate(16.96 1)"/><polygon class="cls-13" points="162.43 431.44 118.43 437.98 132.87 359.6 147.31 359.6 162.43 431.44"/><path class="cls-34" d="M100.62,437.8l14.72-79.88H130.9L146.29,431Zm15.86-78.51-14.16,76.87,42.33-6.28-14.86-70.58Z" transform="translate(16.96 1)"/><circle class="cls-32" cx="139.4" cy="347.91" r="17.88"/><path class="cls-12" d="M122.44,365.48A18.56,18.56,0,1,1,141,346.91,18.58,18.58,0,0,1,122.44,365.48Zm0-35.75a17.19,17.19,0,1,0,17.19,17.19A17.21,17.21,0,0,0,122.44,329.73Z" transform="translate(16.96 1)"/><path class="cls-12" d="M86.53,387.37a18.89,18.89,0,0,1-2.64-.18,37.29,37.29,0,0,1-8.64-2.68l-7-2.8a.69.69,0,1,1,.51-1.28l7,2.8a36.29,36.29,0,0,0,8.32,2.6c5.78.81,12.33-1.33,18-5.89,3.86-3.11,6.73-7.39,9.49-11.53.89-1.33,1.81-2.7,2.75-4a.69.69,0,1,1,1.12.8c-.93,1.3-1.84,2.67-2.73,4-2.83,4.22-5.75,8.59-9.78,11.83C97.82,385.13,92,387.37,86.53,387.37Z" transform="translate(16.96 1)"/><ellipse class="cls-35" cx="331.21" cy="401.31" rx="22.57" ry="24.06"/><path class="cls-36" d="M300.16,428c-3.21,13.75-4.92,42.19-.46,57.42.47,1.61,1.26,3.44,2.89,3.82,1.37.32,2.71-.55,3.81-1.42a55.37,55.37,0,0,0,13.46-15.29" transform="translate(16.96 1)"/><path class="cls-36" d="M363.92,461.75a76.07,76.07,0,0,1-9.32,25.14c-7.36-4.89-27.14-55.28-29.36-57.82" transform="translate(16.96 1)"/><ellipse class="cls-12" cx="309.78" cy="394.01" rx="2.06" ry="5.84" transform="translate(-48.52 62.77) rotate(-10.3)"/><ellipse class="cls-12" cx="323.53" cy="391.95" rx="2.06" ry="5.84" transform="translate(-42.98 59.42) rotate(-9.45)"/><path class="cls-37" d="M310,408.14c1.47,4.1,7.53,5.59,10.73,2.64" transform="translate(16.96 1)"/><path class="cls-32" d="M69.14,381.06l-6.77,4.81a6.19,6.19,0,0,1-2.34,1.2,5.26,5.26,0,0,1-4-1.36,16.43,16.43,0,0,1-3.89-4.24c.8-.84,2.23-.23,3.09.56s1.77,1.81,2.93,1.67a3.4,3.4,0,0,0,1.59-.84,14.32,14.32,0,0,1,4.76-2.79A7.73,7.73,0,0,1,69.14,381.06Z" transform="translate(16.96 1)"/><path class="cls-12" d="M59.42,387.82a6.39,6.39,0,0,1-3.79-1.56,17,17,0,0,1-4.06-4.41l-.29-.45.37-.39c1.07-1.13,2.85-.59,4.05.53l.28.26c.68.65,1.39,1.32,2.1,1.22a2.91,2.91,0,0,0,1.25-.7,14.78,14.78,0,0,1,5-2.91l.13,0a8.39,8.39,0,0,1,5,1.07l1,.53-7.66,5.44a6.75,6.75,0,0,1-2.61,1.32A4,4,0,0,1,59.42,387.82Zm-6.25-6.06a15.65,15.65,0,0,0,3.29,3.4,4.49,4.49,0,0,0,3.44,1.23A5.64,5.64,0,0,0,62,385.32l5.81-4.13a7,7,0,0,0-3.14-.43,13.88,13.88,0,0,0-4.46,2.65,4,4,0,0,1-1.93,1c-1.35.17-2.38-.81-3.21-1.59l-.27-.25A2.83,2.83,0,0,0,53.17,381.77Z" transform="translate(16.96 1)"/><path class="cls-32" d="M49.85,383.9c-.18-.51.65-.7,1.17-.57a18.59,18.59,0,0,1,6.93,3.5,17.58,17.58,0,0,1-7.89-2.44" transform="translate(16.96 1)"/><path class="cls-12" d="M60.06,387.65l-2.15-.13a18.26,18.26,0,0,1-8.2-2.53,9.11,9.11,0,0,0-.51-.85,1,1,0,0,1,.21-1.06,1.9,1.9,0,0,1,1.79-.41,19.35,19.35,0,0,1,7.19,3.63ZM50.72,384A16.88,16.88,0,0,0,55,385.69a17.93,17.93,0,0,0-4.2-1.7Z" transform="translate(16.96 1)"/><path class="cls-32" d="M167,401.77a18.84,18.84,0,0,0,4.85-2.58,2.94,2.94,0,0,0,1.33-1.7,1.74,1.74,0,0,0-1.92-.11,6.25,6.25,0,0,1-1.89.76,4.79,4.79,0,0,1,2.32-3.33,11.62,11.62,0,0,0,1.75-1,1.51,1.51,0,0,0,.55-1.77,7.92,7.92,0,0,0-3.81,1.33,2.21,2.21,0,0,0,1-1.55,12,12,0,0,0-4.59,2,2.13,2.13,0,0,0,.28-.85c-1.1-.2-2,.9-2.36,2a24.85,24.85,0,0,0-1.42,5.68C162.88,402.84,165.18,402.41,167,401.77Z" transform="translate(16.96 1)"/><path class="cls-12" d="M164.59,403a2.45,2.45,0,0,1-1.5-.43,2.13,2.13,0,0,1-.77-2,25.38,25.38,0,0,1,1.46-5.87c.48-1.34,1.66-2.67,3.13-2.4l.59.11a12.69,12.69,0,0,1,3.46-1.24l.93-.19-.1.83a8.56,8.56,0,0,1,2.1-.43l.45,0,.21.4a2.18,2.18,0,0,1-.71,2.62,5.74,5.74,0,0,1-1.26.74c-.2.09-.4.19-.59.3a4.1,4.1,0,0,0-1.55,1.59l.49-.24a2.4,2.4,0,0,1,2.69.25l.25.25-.06.35a3.54,3.54,0,0,1-1.59,2.14,19.48,19.48,0,0,1-5,2.68A8,8,0,0,1,164.59,403Zm.24-7.09a21.82,21.82,0,0,0-1.14,4.77c0,.39.05.66.22.78s.79.41,2.82-.31h0a18.12,18.12,0,0,0,4.67-2.49,3.76,3.76,0,0,0,.85-.8,2,2,0,0,0-.76.17l-.49.24a4.33,4.33,0,0,1-1.62.57l-.88.08.15-.88a5.46,5.46,0,0,1,2.66-3.82c.22-.13.45-.24.69-.35a4.66,4.66,0,0,0,1-.55,1.3,1.3,0,0,0,.35-.47,7.21,7.21,0,0,0-2.1.71l-1.19-.3-.23-.34a11.32,11.32,0,0,0-2.89,1.49Z" transform="translate(16.96 1)"/><ellipse class="cls-12" cx="127.66" cy="346.48" rx="1.32" ry="3.72"/><path class="cls-12" d="M109.11,357.87a5,5,0,0,0,1.67-.05,7.08,7.08,0,0,0,1.59-.54,15.43,15.43,0,0,0,1.51-.84,9.08,9.08,0,0,1,1.57-.93,2.78,2.78,0,0,1-1.07,1.59,6.42,6.42,0,0,1-1.6,1.05,5.79,5.79,0,0,1-1.88.53,4.07,4.07,0,0,1-1.95-.26Z" transform="translate(16.96 1)"/><path class="cls-19" d="M44.18,490.83c0,1.12.19,1.36.19,2.26l-5.66.32C40.22,492,43.83,490.5,44.18,490.83Z" transform="translate(16.96 1)"/><path class="cls-20" d="M44.23,476.85c0,3.7-.21,9.72-.29,14.32" transform="translate(16.96 1)"/><path class="cls-19" d="M56.84,488.88c.18,1.28.11,1.18.23,2.23-1.72-.17-3.6,0-5.33-.52C52.66,489.59,56.19,488.6,56.84,488.88Z" transform="translate(16.96 1)"/><path class="cls-20" d="M54.55,475.48c.72,3.66,1.65,9.13,2.29,13.61" transform="translate(16.96 1)"/><path class="cls-38" d="M42.34,477c5.27-.58,14.11-1.12,14.09-1.55-.41-9.07.82-16.54-1.54-25.3a4.74,4.74,0,0,0-.89-2c-6-6.75-9.44,7.43-10.07,10.41C43.56,460.39,41.79,477.08,42.34,477Z" transform="translate(16.96 1)"/><ellipse class="cls-39" cx="66.76" cy="440.64" rx="7.68" ry="7.65"/><path class="cls-12" d="M37.42,461.4a1.71,1.71,0,0,1-.59-.1,2.54,2.54,0,0,1-1.19-1.07c-.34-.52-.68-1-1-1.49a41.12,41.12,0,0,1-2.57-4.08l.61-.33a40.42,40.42,0,0,0,2.53,4c.34.49.67,1,1,1.5a1.93,1.93,0,0,0,.85.8,2.21,2.21,0,0,0,1.76-.49,29.63,29.63,0,0,0,8.64-8.42c.33-.19.48,0,.58.37a30.34,30.34,0,0,1-8.85,8.63A3.44,3.44,0,0,1,37.42,461.4Z" transform="translate(16.96 1)"/><ellipse class="cls-40" cx="60.85" cy="438.49" rx="0.86" ry="2.58"/><path class="cls-1" d="M43.93,445.89l1.84-1.36" transform="translate(16.96 1)"/><path class="cls-19" d="M31.74,449.54c1.45,1.26,2.31,3.92,1.36,5s-4.94-.7-6-2.7c-.31-.56,2.66.94,2,.53-.29-.17-1.71-2.1-1.56-2.45s2.17,2,2.34,1.74-.87-2.77-.63-3c.57-.66,1.4,3.18,2.37,3.39C32.2,452.17,31.16,449,31.74,449.54Z" transform="translate(16.96 1)"/><g class="cls-41"><polygon class="cls-42" points="232.66 475.85 230.29 457.86 230.23 436.79 232.6 454.78 232.66 475.85"/><polygon class="cls-43" points="232.6 454.78 230.23 436.79 254.92 435.85 257.3 453.84 232.6 454.78"/><polygon class="cls-44" points="257.3 453.84 257.35 474.91 232.66 475.85 232.6 454.78 257.3 453.84"/></g><ellipse class="cls-19" cx="250.77" cy="358.85" rx="8.82" ry="9.31"/><path class="cls-20" d="M235.89,369c9.28,7.83,19.16,3.79,29.68-13" transform="translate(16.96 1)"/><ellipse cx="234.31" cy="355.57" rx="1.24" ry="1.83" transform="translate(-86.25 96.94) rotate(-19.05)"/><ellipse cx="239.33" cy="353.68" rx="0.93" ry="1.79" transform="translate(-102.49 123.07) rotate(-23.07)"/><path class="cls-12" d="M235.45,361.26a8.52,8.52,0,0,0,4.4.23,2.82,2.82,0,0,1-2.27,1.09,2.89,2.89,0,0,1-2.27-1.11Z" transform="translate(16.96 1)"/><line class="cls-20" x1="17.03" y1="472.18" x2="15.82" y2="486.54"/><line class="cls-20" x1="29.75" y1="471.66" x2="31.81" y2="485.97"/><path class="cls-45" d="M1.9,441.9c-2.18,5.9-2.32,17.21-2.4,28.69a.51.51,0,0,0,.52.51l13.49-.42A.51.51,0,0,0,14,470C10.85,459,7.65,447.78,7.62,441.9A5.51,5.51,0,0,0,1.9,441.9Z" transform="translate(16.96 1)"/><ellipse class="cls-46" cx="21.95" cy="436.95" rx="6.65" ry="7.05"/><path class="cls-12" d="M17.15,456c-8.23,0-13.33-2.21-15-12.08.3-.4.51-.35.68-.12,1.7,9.94,6.8,11.71,15.64,11.49l0,.69Z" transform="translate(16.96 1)"/><path class="cls-47" d="M4.07,488.13c0,.67-2.38.17-3.75.17a18.5,18.5,0,0,1-2.15-.1l.48-2.66S4.07,487.68,4.07,488.13Z" transform="translate(16.96 1)"/><path class="cls-47" d="M19.88,485.49c0,.71-2.56.17-3.6.17s-1.9-.58-1.9-1.29a4,4,0,0,1,.57-1.64S19.88,484.77,19.88,485.49Z" transform="translate(16.96 1)"/><path class="cls-48" d="M25.72,455c-.06-.33-.46-.73-1.6-.56,0,0,1.5-1.46,1.26-1.83s-1.38,0-2.55.74c-.28.18-.32,0-.53,0-.94-.19.2-2.21-.14-2.48S18.62,454,18.62,455a1.89,1.89,0,0,0,1.95,1.83,14.72,14.72,0,0,1,1.81.19c1,.21,1.81.08,1.89-.3s-.22-.52-.67-.75C24.83,455.76,25.78,455.3,25.72,455Z" transform="translate(16.96 1)"/><ellipse cx="23.13" cy="435.94" rx="0.95" ry="1.74"/><ellipse cx="26.22" cy="435.65" rx="0.6" ry="1.62"/><path class="cls-49" d="M5.65,439.34c-.05.76.78,1.29,1.67,1.29s.09-.43,1.2-1.12A21.74,21.74,0,0,0,5.65,439.34Z" transform="translate(16.96 1)"/><path class="cls-50" d="M6.23,432.31a2,2,0,0,0-1.72.34" transform="translate(16.96 1)"/><path class="cls-50" d="M8.88,432.4c.72-.16.91,0,1.17.34" transform="translate(16.96 1)"/><path class="cls-20" d="M44.23,444.2c.44.27.15.06,1.2-.6" transform="translate(16.96 1)"/><line class="cls-30" x1="7.06" y1="484.04" x2="8.78" y2="349.63"/><path class="cls-51" d="M-9.16,394A15.53,15.53,0,0,0,1.25,382.86a30.46,30.46,0,0,0,.57-4.65l.77-11" transform="translate(16.96 1)"/><path class="cls-51" d="M-9.2,373.15c-2.34.63-4.81-1.06-5.89-3.23s-1.11-4.7-1.12-7.12l-.07-20" transform="translate(16.96 1)"/><path class="cls-51" d="M-8.15,360.07A4.77,4.77,0,0,0-4.53,357a13.85,13.85,0,0,0,.78-4.87q.62-16.2.39-32.42" transform="translate(16.96 1)"/><rect class="cls-52" x="4.65" y="301.51" width="19.25" height="19.25"/><rect class="cls-52" x="25.51" y="386.76" width="12.72" height="12.72"/><path class="cls-53" d="M239.86,426.89l-8.32-.5v-3.53C234,422.37,236.87,424.23,239.86,426.89Z" transform="translate(16.96 1)"/><path class="cls-53" d="M262,424.62l-8.06-.76v-3.28C256.88,420.38,259.53,422,262,424.62Z" transform="translate(16.96 1)"/><path class="cls-47" d="M269.47,353.87c.28,2.17-3.86,4.35-5,4.35s-1.45-1.64-1.1-3a19.5,19.5,0,0,1,1.61-3c.39-.58,0,1.64.63,1.64.44,0,2-2,2.71-2.08.33-.05-1,1.82-.69,2s1.47-1.75,1.7-1.45c.44.57-.94,1.61-.95,2.14C268.33,354.78,269.45,353.73,269.47,353.87Z" transform="translate(16.96 1)"/><rect class="cls-7" x="38.91" y="323.39" width="3.67" height="3.67"/><rect class="cls-7" x="31.58" y="370.83" width="5.04" height="5.04"/><rect class="cls-7" x="43.5" y="385.04" width="3.21" height="3.21"/><rect class="cls-7" x="28.37" y="344.48" width="3.21" height="3.21"/><rect class="cls-54" x="192.91" y="326.83" width="6.42" height="6.42"/><rect class="cls-54" x="184.66" y="293.37" width="4.13" height="4.13"/><polygon class="cls-13" points="361.84 473.14 337.34 464.36 332.69 438.75 351.75 418.5 374.95 422.85 381.48 451.92 361.84 473.14"/><polyline class="cls-55" points="356.97 444.3 356.97 444.3 361.84 473.14 337.34 464.36 332.69 438.75 356.97 444.3 374.37 422.27"/><polygon class="cls-56" points="381.48 451.92 361.84 473.14 356.97 444.3 374.8 422.41 381.48 451.92"/><path class="cls-35" d="M319.15,472.74a16.45,16.45,0,0,1,4.57-16.21,7.76,7.76,0,0,1,4.45-2.28,3.88,3.88,0,0,1,4.05,2.4c.5,1.62-.95,3.65-2.62,3.35L333,462.6l.06,3.86a1.86,1.86,0,0,0-1.89.54,5.7,5.7,0,0,0-.83,2.19,6.91,6.91,0,0,1-4.82,4.23,20.4,20.4,0,0,1-6.64.43" transform="translate(16.96 1)"/><path class="cls-35" d="M364.46,463.84c.85-3.8,1.72-10.67.62-14.41s-4.87-7-8.66-6.1a7.43,7.43,0,0,0,3.48,6.32,3.22,3.22,0,1,0-2,6c-1.81-.24-3.13,2.08-2.55,3.81s2.32,2.8,4,3.41a16.09,16.09,0,0,0,5.07.95" transform="translate(16.96 1)"/><polygon class="cls-13" points="72.45 339.19 59.96 341.6 59.38 361.19 79.32 365.09 89.64 361.54 90.21 341.14 72.45 339.19"/><polygon class="cls-57" points="79.32 365.09 59.27 361.76 59.96 341.6 79.44 344.12 79.32 365.09"/><path class="cls-58" d="M52.1,351.56l-.08.06a.42.42,0,0,0-.11.51.29.29,0,0,0,.26.18.25.25,0,0,0,.15-.05l.08-.06a.42.42,0,0,0,.11-.51A.27.27,0,0,0,52.1,351.56Z" transform="translate(16.96 1)"/><path class="cls-58" d="M52.93,350.88l-.08.06a.42.42,0,0,0-.11.51.29.29,0,0,0,.26.18.25.25,0,0,0,.15-.05l.08-.06a.42.42,0,0,0,.11-.51A.27.27,0,0,0,52.93,350.88Z" transform="translate(16.96 1)"/><path class="cls-59" d="M59.4,345.63l-1.92-1.37a1.05,1.05,0,0,0-1.24,0l-1.92,1.2a1,1,0,0,0-.41.85s0,.09,0,.13v2.44h0c0,1.21-.26,1.34-.26,1.34h0a.44.44,0,0,0-.08.49.3.3,0,0,0,.27.19l.1,0h0c.08-.05.41-.15,1,.32l.32.24,1,.73a1,1,0,0,0,1.2,0l1.91-1.33a1.45,1.45,0,0,0,.56-1.19v-2.9A1.36,1.36,0,0,0,59.4,345.63ZM57,347.95c0,.46,0,.91,0,1.37,0,.25,0,.49,0,.74s0,.49-.07.74c0-.25,0-.49-.07-.74s0-.49,0-.74c0-.46,0-.91,0-1.37a15.41,15.41,0,0,1-1.82-1.45,14.23,14.23,0,0,1,2,1.14L59,346.5Z" transform="translate(16.96 1)"/><path class="cls-59" d="M51.66,352.33a.32.32,0,0,0-.28-.2.27.27,0,0,0-.15.05h0c-.08.05-.3.2-.93-.31l-.32-.24-1-.73a1,1,0,0,0-1.2,0l-1.91,1.33a1.45,1.45,0,0,0-.56,1.19v2.9a1.36,1.36,0,0,0,.52,1.11l1.92,1.37a1.05,1.05,0,0,0,1.24,0l1.92-1.2a1,1,0,0,0,.41-.85s0-.09,0-.13v-2.44h0c0-1.19.24-1.32.24-1.32h0A.46.46,0,0,0,51.66,352.33Zm-3.27,2.29c0,.46,0,.91,0,1.37,0,.25,0,.49,0,.74s0,.49-.07.74c0-.25,0-.49-.07-.74s0-.49,0-.74c0-.46,0-.91,0-1.37a15.41,15.41,0,0,1-1.82-1.45,14.23,14.23,0,0,1,2,1.14l2.19-1.14Z" transform="translate(16.96 1)"/><rect class="cls-54" x="314.37" y="293.6" width="18.79" height="18.79"/><rect class="cls-54" x="371.43" y="294.29" width="18.79" height="18.79"/><rect class="cls-54" x="358.37" y="268.85" width="15.13" height="15.13"/><rect class="cls-54" x="381.06" y="332.56" width="13.29" height="13.29"/><rect class="cls-54" x="354.25" y="294.29" width="6.19" height="11"/><rect class="cls-54" x="304.06" y="336.46" width="11.92" height="11.92"/><rect class="cls-54" x="275.87" y="302.77" width="15.13" height="15.13"/><rect class="cls-54" x="414.75" y="299.1" width="16.04" height="16.04"/><rect class="cls-54" x="397.56" y="276.41" width="8.25" height="8.25"/><rect class="cls-54" x="372.12" y="245.48" width="14.67" height="14.67"/><rect class="cls-54" x="399.62" y="236.77" width="11" height="11"/><rect class="cls-54" x="407.18" y="256.25" width="9.63" height="9.63"/><rect class="cls-54" x="334.31" y="240.66" width="14.67" height="14.67"/><rect class="cls-54" x="315.75" y="273.43" width="7.79" height="7.79"/><rect class="cls-54" x="330.41" y="262.21" width="6.42" height="6.42"/><rect class="cls-54" x="307.5" y="247.54" width="6.88" height="6.88"/><rect class="cls-54" x="286.18" y="269.54" width="12.83" height="12.83"/><rect class="cls-54" x="272.43" y="250.29" width="11" height="11"/><rect class="cls-54" x="247" y="254.41" width="11" height="11"/><rect class="cls-54" x="257.31" y="277.79" width="9.63" height="9.63"/><rect class="cls-54" x="229.81" y="270.91" width="11" height="11"/><rect class="cls-54" x="225.68" y="291.54" width="9.63" height="9.63"/><rect class="cls-54" x="214.68" y="290.16" width="5.5" height="5.5"/><rect class="cls-54" x="210.56" y="305.98" width="6.88" height="6.88"/><rect class="cls-54" x="348.75" y="329.35" width="6.88" height="6.88"/><path d="M33.16,122.9A8.38,8.38,0,0,1,29,124a5.56,5.56,0,0,1-4.32-1.81A6.79,6.79,0,0,1,23,117.47a7.15,7.15,0,0,1,1.78-5,6,6,0,0,1,4.74-2,8.43,8.43,0,0,1,3.34.69v1a8,8,0,0,0-3.47-.86,5,5,0,0,0-4,1.68,7.11,7.11,0,0,0-.09,8.61,4.85,4.85,0,0,0,3.79,1.56,6.1,6.1,0,0,0,3.1-.76v-4.31H29.19v-.82h4Z" transform="translate(16.96 1)"/><path d="M36.2,119.19a4.61,4.61,0,0,0,.89,3,3,3,0,0,0,2.44,1.08,5,5,0,0,0,3.06-1.16V123a5.45,5.45,0,0,1-3.23,1,3.65,3.65,0,0,1-2.91-1.29,5.43,5.43,0,0,1-1.11-3.65,5.2,5.2,0,0,1,1.16-3.44,3.74,3.74,0,0,1,3-1.4,3.15,3.15,0,0,1,2.67,1.22,5.38,5.38,0,0,1,.93,3.33v.37Zm6-.76a4.13,4.13,0,0,0-.77-2.5,2.41,2.41,0,0,0-2-.89,2.91,2.91,0,0,0-2.17.88,4.21,4.21,0,0,0-1.06,2.52Z" transform="translate(16.96 1)"/><path d="M49.1,123.68a2.9,2.9,0,0,1-1.23.31q-2.07,0-2.07-2.48v-6.26H44.13v-.76H45.8v-2.42l.42-.15.42-.14v2.7H49.1v.76H46.64v6.15a2.47,2.47,0,0,0,.31,1.4,1.17,1.17,0,0,0,1,.43,2.31,2.31,0,0,0,1.12-.34Z" transform="translate(16.96 1)"/><path d="M56.25,119.19a4.61,4.61,0,0,0,.89,3,3,3,0,0,0,2.44,1.08,5,5,0,0,0,3.06-1.16V123a5.45,5.45,0,0,1-3.23,1,3.65,3.65,0,0,1-2.91-1.29,5.43,5.43,0,0,1-1.11-3.65,5.2,5.2,0,0,1,1.16-3.44,3.74,3.74,0,0,1,3-1.4,3.15,3.15,0,0,1,2.67,1.22,5.38,5.38,0,0,1,.93,3.33v.37Zm6-.76a4.13,4.13,0,0,0-.77-2.5,2.41,2.41,0,0,0-2-.89,2.91,2.91,0,0,0-2.17.88,4.21,4.21,0,0,0-1.06,2.52Z" transform="translate(16.96 1)"/><path d="M71,123.81v-1.87h0a3.65,3.65,0,0,1-1.3,1.53,3.33,3.33,0,0,1-1.89.57,2.9,2.9,0,0,1-2.1-.75,2.51,2.51,0,0,1-.77-1.88q0-2.44,3.23-2.95L71,118q0-3-2.26-3a4.6,4.6,0,0,0-3,1.24v-1a4.58,4.58,0,0,1,1.41-.7,5.37,5.37,0,0,1,1.67-.29,2.81,2.81,0,0,1,2.23.89,3.81,3.81,0,0,1,.79,2.59v6.06Zm-2.57-4.64a4.44,4.44,0,0,0-2.06.68,2.11,2.11,0,0,0,0,2.89,2.1,2.1,0,0,0,1.53.54,2.88,2.88,0,0,0,2.24-1,3.71,3.71,0,0,0,.89-2.57v-.91Z" transform="translate(16.96 1)"/><path d="M74.2,123.4v-1a3.5,3.5,0,0,0,1.15.65,3.6,3.6,0,0,0,1.17.24q2.19,0,2.19-1.79a1.37,1.37,0,0,0-.48-1.06,5.83,5.83,0,0,0-1.57-.9,5.31,5.31,0,0,1-1.88-1.21A2.38,2.38,0,0,1,75.1,115a3.31,3.31,0,0,1,2.14-.7,4.07,4.07,0,0,1,2.06.49v.95a3.9,3.9,0,0,0-2.15-.67,2.22,2.22,0,0,0-1.48.48,1.55,1.55,0,0,0-.56,1.24,1.6,1.6,0,0,0,.36,1.08,4.76,4.76,0,0,0,1.57,1A6.85,6.85,0,0,1,79,120a2,2,0,0,1,.55,1.49,2.32,2.32,0,0,1-.83,1.83,3.39,3.39,0,0,1-2.3.72A3.8,3.8,0,0,1,74.2,123.4Z" transform="translate(16.96 1)"/><path d="M84.19,125.71a5.55,5.55,0,0,1-1.13,1.87,2.18,2.18,0,0,1-1.59.61,2,2,0,0,1-.73-.13v-.84a2.11,2.11,0,0,0,.76.13q1.12,0,1.77-1.55l.86-2.07-3.53-9.25h.94l2.81,7.59q.09.25.13.37a2.68,2.68,0,0,0,.08.31h0l.22-.63,3-7.65h.91Z" transform="translate(16.96 1)"/><path d="M101,123.81v-1.87h0a3.65,3.65,0,0,1-1.3,1.53,3.33,3.33,0,0,1-1.89.57,2.9,2.9,0,0,1-2.1-.75,2.51,2.51,0,0,1-.77-1.88q0-2.44,3.23-2.95L101,118q0-3-2.26-3a4.6,4.6,0,0,0-3,1.24v-1a4.58,4.58,0,0,1,1.41-.7,5.37,5.37,0,0,1,1.67-.29,2.81,2.81,0,0,1,2.23.89,3.81,3.81,0,0,1,.79,2.59v6.06Zm-2.57-4.64a4.44,4.44,0,0,0-2.06.68,2.11,2.11,0,0,0,0,2.89,2.1,2.1,0,0,0,1.53.54,2.88,2.88,0,0,0,2.24-1,3.71,3.71,0,0,0,.89-2.57v-.91Z" transform="translate(16.96 1)"/><path d="M110.72,123.4a4.64,4.64,0,0,1-2.48.64,3.91,3.91,0,0,1-3.07-1.31,4.94,4.94,0,0,1-1.17-3.42,5.14,5.14,0,0,1,1.31-3.64,4.38,4.38,0,0,1,3.37-1.42,5.12,5.12,0,0,1,2.07.44v.95a4.1,4.1,0,0,0-2.19-.62,3.35,3.35,0,0,0-2.66,1.18,4.5,4.5,0,0,0-1,3.05,4.35,4.35,0,0,0,.93,2.91,3.07,3.07,0,0,0,2.46,1.1,4.07,4.07,0,0,0,2.44-.75Z" transform="translate(16.96 1)"/><path d="M119,123.4a4.64,4.64,0,0,1-2.48.64,3.91,3.91,0,0,1-3.07-1.31,4.94,4.94,0,0,1-1.17-3.42,5.14,5.14,0,0,1,1.31-3.64,4.38,4.38,0,0,1,3.37-1.42,5.12,5.12,0,0,1,2.07.44v.95a4.1,4.1,0,0,0-2.19-.62,3.35,3.35,0,0,0-2.66,1.18,4.5,4.5,0,0,0-1,3.05,4.35,4.35,0,0,0,.93,2.91,3.07,3.07,0,0,0,2.46,1.1,4.07,4.07,0,0,0,2.44-.75Z" transform="translate(16.96 1)"/><path d="M121.44,119.19a4.61,4.61,0,0,0,.89,3,3,3,0,0,0,2.44,1.08,5,5,0,0,0,3.06-1.16V123a5.45,5.45,0,0,1-3.23,1,3.65,3.65,0,0,1-2.91-1.29,5.43,5.43,0,0,1-1.11-3.65,5.2,5.2,0,0,1,1.16-3.44,3.74,3.74,0,0,1,3-1.4,3.15,3.15,0,0,1,2.67,1.22,5.38,5.38,0,0,1,.93,3.33v.37Zm6-.76a4.13,4.13,0,0,0-.77-2.5,2.41,2.41,0,0,0-2-.89,2.91,2.91,0,0,0-2.17.88,4.21,4.21,0,0,0-1.06,2.52Z" transform="translate(16.96 1)"/><path d="M130.17,123.4v-1a3.5,3.5,0,0,0,1.15.65,3.6,3.6,0,0,0,1.17.24q2.19,0,2.19-1.79a1.37,1.37,0,0,0-.48-1.06,5.83,5.83,0,0,0-1.57-.9,5.31,5.31,0,0,1-1.88-1.21,2.38,2.38,0,0,1,.33-3.35,3.31,3.31,0,0,1,2.14-.7,4.07,4.07,0,0,1,2.06.49v.95a3.9,3.9,0,0,0-2.15-.67,2.22,2.22,0,0,0-1.48.48,1.55,1.55,0,0,0-.56,1.24,1.6,1.6,0,0,0,.36,1.08,4.76,4.76,0,0,0,1.57,1,6.85,6.85,0,0,1,2,1.22,2,2,0,0,1,.55,1.49,2.32,2.32,0,0,1-.83,1.83,3.39,3.39,0,0,1-2.3.72A3.8,3.8,0,0,1,130.17,123.4Z" transform="translate(16.96 1)"/><path d="M137.4,123.4v-1a3.5,3.5,0,0,0,1.15.65,3.6,3.6,0,0,0,1.17.24q2.19,0,2.19-1.79a1.37,1.37,0,0,0-.48-1.06,5.83,5.83,0,0,0-1.57-.9,5.31,5.31,0,0,1-1.88-1.21,2.38,2.38,0,0,1,.33-3.35,3.31,3.31,0,0,1,2.14-.7,4.07,4.07,0,0,1,2.06.49v.95a3.9,3.9,0,0,0-2.15-.67,2.22,2.22,0,0,0-1.48.48,1.55,1.55,0,0,0-.56,1.24,1.6,1.6,0,0,0,.36,1.08,4.76,4.76,0,0,0,1.57,1,6.85,6.85,0,0,1,2,1.22,2,2,0,0,1,.55,1.49,2.32,2.32,0,0,1-.83,1.83,3.39,3.39,0,0,1-2.3.72A3.8,3.8,0,0,1,137.4,123.4Z" transform="translate(16.96 1)"/><path d="M153.92,123.68a2.9,2.9,0,0,1-1.23.31q-2.07,0-2.07-2.48v-6.26h-1.68v-.76h1.68v-2.42l.42-.15.42-.14v2.7h2.46v.76h-2.46v6.15a2.47,2.47,0,0,0,.31,1.4,1.17,1.17,0,0,0,1,.43,2.31,2.31,0,0,0,1.12-.34Z" transform="translate(16.96 1)"/><path d="M159.51,124a4.09,4.09,0,0,1-3.23-1.34,5.83,5.83,0,0,1,.05-7.12,4.3,4.3,0,0,1,3.27-1.31,4,4,0,0,1,3.15,1.3,5.24,5.24,0,0,1,1.16,3.61,5.15,5.15,0,0,1-1.18,3.52A4.06,4.06,0,0,1,159.51,124Zm.06-9a3.33,3.33,0,0,0-2.63,1.11,4.51,4.51,0,0,0-1,3.09,4.35,4.35,0,0,0,1,2.94,3.27,3.27,0,0,0,2.61,1.11,3.19,3.19,0,0,0,2.59-1.09,5.56,5.56,0,0,0,0-6.09A3.18,3.18,0,0,0,159.57,115Z" transform="translate(16.96 1)"/><path d="M176.9,123.81v-1.87h0a3.65,3.65,0,0,1-1.3,1.53,3.33,3.33,0,0,1-1.89.57,2.9,2.9,0,0,1-2.1-.75,2.51,2.51,0,0,1-.77-1.88q0-2.44,3.23-2.95l2.87-.43q0-3-2.26-3a4.6,4.6,0,0,0-3,1.24v-1a4.58,4.58,0,0,1,1.41-.7,5.37,5.37,0,0,1,1.67-.29,2.81,2.81,0,0,1,2.23.89,3.81,3.81,0,0,1,.79,2.59v6.06Zm-2.57-4.64a4.44,4.44,0,0,0-2.06.68,2.11,2.11,0,0,0,0,2.89,2.1,2.1,0,0,0,1.53.54,2.88,2.88,0,0,0,2.24-1,3.71,3.71,0,0,0,.89-2.57v-.91Z" transform="translate(16.96 1)"/><path d="M180.55,123.81V110h.84v13.8Z" transform="translate(16.96 1)"/><path d="M184.37,123.81V110h.84v13.8Z" transform="translate(16.96 1)"/><path d="M194.17,122.15h0v1.66h-.84V110h.84v6.4h0a3.68,3.68,0,0,1,1.43-1.59,3.91,3.91,0,0,1,2.05-.56,3.38,3.38,0,0,1,2.77,1.22,5.12,5.12,0,0,1,1,3.33,5.87,5.87,0,0,1-1.16,3.78,3.67,3.67,0,0,1-3,1.44A3.29,3.29,0,0,1,194.17,122.15Zm0-3.47v1.17a3.53,3.53,0,0,0,.88,2.41,2.94,2.94,0,0,0,2.32,1,2.75,2.75,0,0,0,2.32-1.22,5.34,5.34,0,0,0,.89-3.22,4.33,4.33,0,0,0-.82-2.78,2.65,2.65,0,0,0-2.18-1,3.07,3.07,0,0,0-2.52,1.09A3.93,3.93,0,0,0,194.14,118.69Z" transform="translate(16.96 1)"/><path d="M203.74,123.81V110h.84v13.8Z" transform="translate(16.96 1)"/><path d="M211.31,124a4.09,4.09,0,0,1-3.23-1.34,5.83,5.83,0,0,1,.05-7.12,4.3,4.3,0,0,1,3.27-1.31,4,4,0,0,1,3.15,1.3,5.24,5.24,0,0,1,1.16,3.61,5.15,5.15,0,0,1-1.18,3.52A4.06,4.06,0,0,1,211.31,124Zm.06-9a3.33,3.33,0,0,0-2.63,1.11,4.51,4.51,0,0,0-1,3.09,4.35,4.35,0,0,0,1,2.94,3.27,3.27,0,0,0,2.61,1.11,3.19,3.19,0,0,0,2.59-1.09,5.56,5.56,0,0,0,0-6.09A3.18,3.18,0,0,0,211.37,115Z" transform="translate(16.96 1)"/><path d="M224.06,123.4a4.64,4.64,0,0,1-2.48.64,3.91,3.91,0,0,1-3.07-1.31,4.94,4.94,0,0,1-1.17-3.42,5.14,5.14,0,0,1,1.31-3.64,4.38,4.38,0,0,1,3.37-1.42,5.12,5.12,0,0,1,2.07.44v.95a4.1,4.1,0,0,0-2.19-.62,3.35,3.35,0,0,0-2.66,1.18,4.5,4.5,0,0,0-1,3.05,4.35,4.35,0,0,0,.93,2.91,3.07,3.07,0,0,0,2.46,1.1,4.07,4.07,0,0,0,2.44-.75Z" transform="translate(16.96 1)"/><path d="M231.64,123.81l-4.46-4.61h0v4.61h-.84V110h.84v8.89h0l4.23-4.42h1.08L228.07,119l4.78,4.81Z" transform="translate(16.96 1)"/><path d="M240.61,123.4a4.64,4.64,0,0,1-2.48.64,3.91,3.91,0,0,1-3.07-1.31,4.94,4.94,0,0,1-1.17-3.42,5.14,5.14,0,0,1,1.31-3.64,4.38,4.38,0,0,1,3.37-1.42,5.12,5.12,0,0,1,2.07.44v.95a4.1,4.1,0,0,0-2.19-.62,3.35,3.35,0,0,0-2.66,1.18,4.5,4.5,0,0,0-1,3.05,4.35,4.35,0,0,0,.93,2.91,3.07,3.07,0,0,0,2.46,1.1,4.07,4.07,0,0,0,2.44-.75Z" transform="translate(16.96 1)"/><path d="M249.19,123.81v-5.59a4,4,0,0,0-.6-2.43,2.23,2.23,0,0,0-1.88-.77,2.86,2.86,0,0,0-2.11.94,3.7,3.7,0,0,0-.91,2.69v5.16h-.84V110h.84v6.15h0a3.5,3.5,0,0,1,3.2-1.9,2.8,2.8,0,0,1,2.3,1A4.33,4.33,0,0,1,250,118v5.78Z" transform="translate(16.96 1)"/><path d="M258.4,123.81v-1.87h0a3.65,3.65,0,0,1-1.3,1.53,3.33,3.33,0,0,1-1.89.57,2.9,2.9,0,0,1-2.1-.75,2.51,2.51,0,0,1-.77-1.88q0-2.44,3.23-2.95l2.87-.43q0-3-2.26-3a4.6,4.6,0,0,0-3,1.24v-1a4.58,4.58,0,0,1,1.41-.7,5.37,5.37,0,0,1,1.67-.29,2.81,2.81,0,0,1,2.23.89,3.81,3.81,0,0,1,.79,2.59v6.06Zm-2.57-4.64a4.44,4.44,0,0,0-2.06.68,2.11,2.11,0,0,0,0,2.89,2.1,2.1,0,0,0,1.53.54,2.88,2.88,0,0,0,2.24-1,3.71,3.71,0,0,0,.89-2.57v-.91Z" transform="translate(16.96 1)"/><path d="M262.45,112.14a.7.7,0,0,1-.69-.71.61.61,0,0,1,.21-.49.71.71,0,0,1,.48-.19.74.74,0,0,1,.5.18.61.61,0,0,1,.21.49.71.71,0,0,1-.71.71ZM262,123.81v-9.32h.84v9.32Z" transform="translate(16.96 1)"/><path d="M272.2,123.81v-5.43q0-3.36-2.42-3.36a2.81,2.81,0,0,0-2.21,1,3.58,3.58,0,0,0-.86,2.44v5.35h-.84v-9.32h.84v1.69h0a3.37,3.37,0,0,1,3.19-1.92,2.78,2.78,0,0,1,2.31,1,4.52,4.52,0,0,1,.8,2.87v5.67Z" transform="translate(16.96 1)"/><path d="M275.36,123.4v-1a3.5,3.5,0,0,0,1.15.65,3.6,3.6,0,0,0,1.17.24q2.19,0,2.19-1.79a1.37,1.37,0,0,0-.48-1.06,5.83,5.83,0,0,0-1.57-.9,5.31,5.31,0,0,1-1.88-1.21,2.38,2.38,0,0,1,.33-3.35,3.31,3.31,0,0,1,2.14-.7,4.07,4.07,0,0,1,2.06.49v.95a3.9,3.9,0,0,0-2.15-.67,2.22,2.22,0,0,0-1.48.48,1.55,1.55,0,0,0-.56,1.24,1.6,1.6,0,0,0,.36,1.08,4.76,4.76,0,0,0,1.57,1,6.85,6.85,0,0,1,2,1.22,2,2,0,0,1,.55,1.49,2.32,2.32,0,0,1-.83,1.83,3.39,3.39,0,0,1-2.3.72A3.8,3.8,0,0,1,275.36,123.4Z" transform="translate(16.96 1)"/><path d="M283.66,124a.7.7,0,0,1-.52-.21.72.72,0,0,1-.21-.52.7.7,0,0,1,.21-.52.71.71,0,0,1,.52-.2.75.75,0,0,1,.53.2.69.69,0,0,1,.22.52.71.71,0,0,1-.22.52A.73.73,0,0,1,283.66,124Z" transform="translate(16.96 1)"/><path d="M23.31,158.67v-1a5.24,5.24,0,0,0,2.84.89,3.66,3.66,0,0,0,2.32-.63,2.14,2.14,0,0,0,.79-1.77,2.31,2.31,0,0,0-.53-1.6,10.52,10.52,0,0,0-2.31-1.63A8.19,8.19,0,0,1,23.92,151a3.12,3.12,0,0,1-.53-1.8,3,3,0,0,1,1.07-2.35,4.13,4.13,0,0,1,2.87-1,7.29,7.29,0,0,1,2.33.39v.95a5.87,5.87,0,0,0-2.45-.52,3.11,3.11,0,0,0-2.11.67,2.17,2.17,0,0,0-.78,1.71,2.29,2.29,0,0,0,.53,1.59,10.47,10.47,0,0,0,2.3,1.61,8.21,8.21,0,0,1,2.44,1.84A3,3,0,0,1,30.2,156a3.16,3.16,0,0,1-1,2.45,4.23,4.23,0,0,1-2.95.95,6.8,6.8,0,0,1-1.55-.21A5,5,0,0,1,23.31,158.67Z" transform="translate(16.96 1)"/><path d="M36.55,159.37A4.09,4.09,0,0,1,33.32,158a5.83,5.83,0,0,1,.05-7.12,4.3,4.3,0,0,1,3.27-1.31,4,4,0,0,1,3.15,1.3A5.24,5.24,0,0,1,41,154.49,5.15,5.15,0,0,1,39.78,158,4.06,4.06,0,0,1,36.55,159.37Zm.06-9A3.33,3.33,0,0,0,34,151.46a4.51,4.51,0,0,0-1,3.09,4.35,4.35,0,0,0,1,2.94,3.27,3.27,0,0,0,2.61,1.11,3.19,3.19,0,0,0,2.59-1.09,5.56,5.56,0,0,0,0-6.09A3.18,3.18,0,0,0,36.62,150.35Z" transform="translate(16.96 1)"/><path d="M50.65,161a5.55,5.55,0,0,1-1.13,1.87,2.18,2.18,0,0,1-1.59.61,2,2,0,0,1-.73-.13v-.84a2.11,2.11,0,0,0,.76.13q1.12,0,1.77-1.55l.86-2.07-3.53-9.25H48l2.81,7.59q.09.25.13.37a2.68,2.68,0,0,0,.08.31h0l.22-.63,3-7.65h.91Z" transform="translate(16.96 1)"/><path d="M60.57,159.37A4.09,4.09,0,0,1,57.34,158a5.83,5.83,0,0,1,.05-7.12,4.3,4.3,0,0,1,3.27-1.31,4,4,0,0,1,3.15,1.3A5.24,5.24,0,0,1,65,154.49,5.15,5.15,0,0,1,63.79,158,4.06,4.06,0,0,1,60.57,159.37Zm.06-9A3.33,3.33,0,0,0,58,151.46a4.51,4.51,0,0,0-1,3.09,4.35,4.35,0,0,0,1,2.94,3.27,3.27,0,0,0,2.61,1.11,3.19,3.19,0,0,0,2.59-1.09,5.56,5.56,0,0,0,0-6.09A3.18,3.18,0,0,0,60.63,150.35Z" transform="translate(16.96 1)"/><path d="M73.44,159.14v-1.69h0a3.18,3.18,0,0,1-3,1.92q-3.3,0-3.3-4.16v-5.39h.85V155a4.74,4.74,0,0,0,.62,2.75,2.26,2.26,0,0,0,2,.86,2.62,2.62,0,0,0,2.11-1,3.82,3.82,0,0,0,.81-2.55v-5.28h.84v9.32Z" transform="translate(16.96 1)"/><path d="M88.41,158.73a4.64,4.64,0,0,1-2.48.64,3.91,3.91,0,0,1-3.07-1.31,4.94,4.94,0,0,1-1.17-3.42A5.14,5.14,0,0,1,83,151a4.38,4.38,0,0,1,3.37-1.42,5.12,5.12,0,0,1,2.07.44V151a4.1,4.1,0,0,0-2.19-.62,3.35,3.35,0,0,0-2.66,1.18,4.5,4.5,0,0,0-1,3.05,4.35,4.35,0,0,0,.93,2.91A3.07,3.07,0,0,0,86,158.6a4.07,4.07,0,0,0,2.44-.75Z" transform="translate(16.96 1)"/><path d="M96.22,159.14v-1.87h0a3.65,3.65,0,0,1-1.3,1.53,3.33,3.33,0,0,1-1.89.57,2.9,2.9,0,0,1-2.1-.75,2.51,2.51,0,0,1-.77-1.88q0-2.44,3.23-2.95l2.87-.43q0-3-2.26-3a4.6,4.6,0,0,0-3,1.24v-1a4.58,4.58,0,0,1,1.41-.7,5.37,5.37,0,0,1,1.67-.29,2.81,2.81,0,0,1,2.23.89,3.81,3.81,0,0,1,.79,2.59v6.06Zm-2.57-4.64a4.44,4.44,0,0,0-2.06.68,2.11,2.11,0,0,0,0,2.89,2.1,2.1,0,0,0,1.53.54,2.88,2.88,0,0,0,2.24-1,3.71,3.71,0,0,0,.89-2.57v-.91Z" transform="translate(16.96 1)"/><path d="M106.2,159.14v-5.43q0-3.36-2.42-3.36a2.81,2.81,0,0,0-2.21,1,3.58,3.58,0,0,0-.86,2.44v5.35h-.84v-9.32h.84v1.69h0a3.37,3.37,0,0,1,3.19-1.92,2.78,2.78,0,0,1,2.31,1,4.52,4.52,0,0,1,.8,2.87v5.67Z" transform="translate(16.96 1)"/><path d="M114.46,158.73v-1a3.5,3.5,0,0,0,1.15.65,3.6,3.6,0,0,0,1.17.24q2.19,0,2.19-1.79a1.37,1.37,0,0,0-.48-1.06,5.83,5.83,0,0,0-1.57-.9,5.31,5.31,0,0,1-1.88-1.21,2.38,2.38,0,0,1,.33-3.35,3.31,3.31,0,0,1,2.14-.7,4.07,4.07,0,0,1,2.06.49V151a3.9,3.9,0,0,0-2.15-.67,2.22,2.22,0,0,0-1.48.48,1.55,1.55,0,0,0-.56,1.24,1.6,1.6,0,0,0,.36,1.08,4.76,4.76,0,0,0,1.57,1,6.85,6.85,0,0,1,2,1.22,2,2,0,0,1,.55,1.49,2.32,2.32,0,0,1-.83,1.83,3.39,3.39,0,0,1-2.3.72A3.8,3.8,0,0,1,114.46,158.73Z" transform="translate(16.96 1)"/><path d="M125.87,159a2.9,2.9,0,0,1-1.23.31q-2.07,0-2.07-2.48v-6.26H120.9v-.76h1.68v-2.42l.42-.15.42-.14v2.7h2.46v.76h-2.46v6.15a2.47,2.47,0,0,0,.31,1.4,1.17,1.17,0,0,0,1,.43,2.31,2.31,0,0,0,1.12-.34Z" transform="translate(16.96 1)"/><path d="M133.29,159.14v-1.87h0a3.65,3.65,0,0,1-1.3,1.53,3.33,3.33,0,0,1-1.89.57,2.9,2.9,0,0,1-2.1-.75,2.51,2.51,0,0,1-.77-1.88q0-2.44,3.23-2.95l2.87-.43q0-3-2.26-3a4.6,4.6,0,0,0-3,1.24v-1a4.58,4.58,0,0,1,1.41-.7,5.37,5.37,0,0,1,1.67-.29,2.81,2.81,0,0,1,2.23.89,3.81,3.81,0,0,1,.79,2.59v6.06Zm-2.57-4.64a4.44,4.44,0,0,0-2.06.68,2.11,2.11,0,0,0,0,2.89,2.1,2.1,0,0,0,1.53.54,2.88,2.88,0,0,0,2.24-1,3.71,3.71,0,0,0,.89-2.57v-.91Z" transform="translate(16.96 1)"/><path d="M139.21,161a5.55,5.55,0,0,1-1.13,1.87,2.18,2.18,0,0,1-1.59.61,2,2,0,0,1-.73-.13v-.84a2.11,2.11,0,0,0,.76.13q1.12,0,1.77-1.55l.86-2.07-3.53-9.25h.94l2.81,7.59q.09.25.13.37a2.68,2.68,0,0,0,.08.31h0l.22-.63,3-7.65h.91Z" transform="translate(16.96 1)"/><path d="M150.9,147.47a.7.7,0,0,1-.69-.71.61.61,0,0,1,.21-.49.71.71,0,0,1,.48-.19.74.74,0,0,1,.5.18.61.61,0,0,1,.21.49.71.71,0,0,1-.71.71Zm-.41,11.67v-9.32h.84v9.32Z" transform="translate(16.96 1)"/><path d="M160.65,159.14v-5.43q0-3.36-2.42-3.36a2.81,2.81,0,0,0-2.21,1,3.58,3.58,0,0,0-.86,2.44v5.35h-.84v-9.32h.84v1.69h0a3.37,3.37,0,0,1,3.19-1.92,2.78,2.78,0,0,1,2.31,1,4.52,4.52,0,0,1,.8,2.87v5.67Z" transform="translate(16.96 1)"/><path d="M175.43,158.73a4.64,4.64,0,0,1-2.48.64,3.91,3.91,0,0,1-3.07-1.31,4.94,4.94,0,0,1-1.17-3.42A5.14,5.14,0,0,1,170,151a4.38,4.38,0,0,1,3.37-1.42,5.12,5.12,0,0,1,2.07.44V151a4.1,4.1,0,0,0-2.19-.62,3.35,3.35,0,0,0-2.66,1.18,4.5,4.5,0,0,0-1,3.05,4.35,4.35,0,0,0,.93,2.91,3.07,3.07,0,0,0,2.46,1.1,4.07,4.07,0,0,0,2.44-.75Z" transform="translate(16.96 1)"/><path d="M181.41,159.37a4.09,4.09,0,0,1-3.23-1.34,5.83,5.83,0,0,1,.05-7.12,4.3,4.3,0,0,1,3.27-1.31,4,4,0,0,1,3.15,1.3,5.24,5.24,0,0,1,1.16,3.61,5.15,5.15,0,0,1-1.18,3.52A4.06,4.06,0,0,1,181.41,159.37Zm.06-9a3.33,3.33,0,0,0-2.63,1.11,4.51,4.51,0,0,0-1,3.09,4.35,4.35,0,0,0,1,2.94,3.27,3.27,0,0,0,2.61,1.11,3.19,3.19,0,0,0,2.59-1.09,5.56,5.56,0,0,0,0-6.09A3.18,3.18,0,0,0,181.48,150.35Z" transform="translate(16.96 1)"/><path d="M194.47,159.14v-5.43q0-3.36-2.42-3.36a2.81,2.81,0,0,0-2.21,1,3.58,3.58,0,0,0-.86,2.44v5.35h-.84v-9.32H189v1.69h0a3.37,3.37,0,0,1,3.19-1.92,2.78,2.78,0,0,1,2.31,1,4.52,4.52,0,0,1,.8,2.87v5.67Z" transform="translate(16.96 1)"/><path d="M201.79,159a2.9,2.9,0,0,1-1.23.31q-2.07,0-2.07-2.48v-6.26h-1.68v-.76h1.68v-2.42l.42-.15.42-.14v2.7h2.46v.76h-2.46v6.15a2.47,2.47,0,0,0,.31,1.4,1.17,1.17,0,0,0,1,.43,2.31,2.31,0,0,0,1.12-.34Z" transform="translate(16.96 1)"/><path d="M208,150.69a1.64,1.64,0,0,0-1-.3,2.17,2.17,0,0,0-1.85,1.14,5.88,5.88,0,0,0-.75,3.23v4.38h-.82v-9.32h.82v2.07h0a3.39,3.39,0,0,1,1-1.66,2.39,2.39,0,0,1,1.6-.59,2.48,2.48,0,0,1,.93.16Z" transform="translate(16.96 1)"/><path d="M213.17,159.37a4.09,4.09,0,0,1-3.23-1.34,5.83,5.83,0,0,1,.05-7.12,4.3,4.3,0,0,1,3.27-1.31,4,4,0,0,1,3.15,1.3,5.24,5.24,0,0,1,1.16,3.61,5.15,5.15,0,0,1-1.18,3.52A4.06,4.06,0,0,1,213.17,159.37Zm.06-9a3.33,3.33,0,0,0-2.63,1.11,4.51,4.51,0,0,0-1,3.09,4.35,4.35,0,0,0,1,2.94,3.27,3.27,0,0,0,2.61,1.11,3.19,3.19,0,0,0,2.59-1.09,5.56,5.56,0,0,0,0-6.09A3.18,3.18,0,0,0,213.23,150.35Z" transform="translate(16.96 1)"/><path d="M219.88,159.14v-13.8h.84v13.8Z" transform="translate(16.96 1)"/><path d="M224.28,159.3a.7.7,0,0,1-.52-.21.72.72,0,0,1-.21-.52.7.7,0,0,1,.21-.52.71.71,0,0,1,.52-.2.75.75,0,0,1,.53.2.69.69,0,0,1,.22.52.71.71,0,0,1-.22.52A.73.73,0,0,1,224.28,159.3Z" transform="translate(16.96 1)"/><path d="M29.1,194.69a5.62,5.62,0,0,1-4.41-1.84A6.9,6.9,0,0,1,23,188.07a7.2,7.2,0,0,1,1.69-5,5.88,5.88,0,0,1,4.61-1.88A5.49,5.49,0,0,1,33.62,183a6.8,6.8,0,0,1,1.63,4.74,7.33,7.33,0,0,1-1.68,5.1A5.74,5.74,0,0,1,29.1,194.69ZM29.19,182a4.8,4.8,0,0,0-3.75,1.65A6.24,6.24,0,0,0,24,188a6.3,6.3,0,0,0,1.39,4.29,4.68,4.68,0,0,0,3.71,1.6,4.88,4.88,0,0,0,3.83-1.58,6.38,6.38,0,0,0,1.41-4.4,6.28,6.28,0,0,0-1.38-4.32A4.77,4.77,0,0,0,29.19,182Z" transform="translate(16.96 1)"/><path d="M44.07,194.46V189q0-3.36-2.42-3.36a2.81,2.81,0,0,0-2.21,1,3.58,3.58,0,0,0-.86,2.44v5.35h-.84v-9.32h.84v1.69h0a3.37,3.37,0,0,1,3.19-1.92,2.78,2.78,0,0,1,2.31,1,4.52,4.52,0,0,1,.8,2.87v5.67Z" transform="translate(16.96 1)"/><path d="M56.56,194.69a4.09,4.09,0,0,1-3.23-1.34,5.83,5.83,0,0,1,.05-7.12,4.3,4.3,0,0,1,3.27-1.31,4,4,0,0,1,3.15,1.3A5.24,5.24,0,0,1,61,189.82a5.15,5.15,0,0,1-1.18,3.52A4.06,4.06,0,0,1,56.56,194.69Zm.06-9A3.33,3.33,0,0,0,54,186.79a4.51,4.51,0,0,0-1,3.09,4.35,4.35,0,0,0,1,2.94,3.27,3.27,0,0,0,2.61,1.11,3.19,3.19,0,0,0,2.59-1.09,5.56,5.56,0,0,0,0-6.09A3.18,3.18,0,0,0,56.63,185.68Z" transform="translate(16.96 1)"/><path d="M69.43,194.46v-1.69h0a3.18,3.18,0,0,1-3,1.92q-3.3,0-3.3-4.16v-5.39h.85v5.18a4.74,4.74,0,0,0,.62,2.75,2.26,2.26,0,0,0,2,.86,2.62,2.62,0,0,0,2.11-1,3.82,3.82,0,0,0,.81-2.55v-5.28h.84v9.32Z" transform="translate(16.96 1)"/><path d="M77.66,186a1.64,1.64,0,0,0-1-.3,2.17,2.17,0,0,0-1.85,1.14,5.88,5.88,0,0,0-.75,3.23v4.38h-.82v-9.32h.82v2.07h0a3.39,3.39,0,0,1,1-1.66,2.39,2.39,0,0,1,1.6-.59,2.48,2.48,0,0,1,.93.16Z" transform="translate(16.96 1)"/><path d="M87.81,181.12v13.35H87v-12a6.65,6.65,0,0,1-1.43,1,12.17,12.17,0,0,1-1.76.77v-.76a8.61,8.61,0,0,0,1.07-.43,9.12,9.12,0,0,0,1.82-1.17q.42-.35.86-.76Z" transform="translate(16.96 1)"/><path d="M94.37,194.69A3.16,3.16,0,0,1,91.55,193a9.27,9.27,0,0,1-1-4.82A10.34,10.34,0,0,1,91.6,183a3.38,3.38,0,0,1,3.05-1.77q3.77,0,3.77,6.69A9.81,9.81,0,0,1,97.36,193,3.33,3.33,0,0,1,94.37,194.69ZM94.58,182a2.58,2.58,0,0,0-2.34,1.54,9.94,9.94,0,0,0-.84,4.62,9.35,9.35,0,0,0,.8,4.31,2.45,2.45,0,0,0,4.53,0,9.61,9.61,0,0,0,.81-4.38Q97.54,182,94.58,182Z" transform="translate(16.96 1)"/><path d="M104,194.69a3.16,3.16,0,0,1-2.82-1.66,9.27,9.27,0,0,1-1-4.82A10.34,10.34,0,0,1,101.2,183a3.38,3.38,0,0,1,3.05-1.77q3.77,0,3.77,6.69A9.81,9.81,0,0,1,107,193,3.33,3.33,0,0,1,104,194.69Zm.21-12.74a2.58,2.58,0,0,0-2.34,1.54,9.94,9.94,0,0,0-.84,4.62,9.35,9.35,0,0,0,.8,4.31,2.45,2.45,0,0,0,4.53,0,9.61,9.61,0,0,0,.81-4.38Q107.14,182,104.18,182Z" transform="translate(16.96 1)"/><path d="M112.65,187.83a2.8,2.8,0,0,1-2.21-.92,3.47,3.47,0,0,1-.81-2.39,3.42,3.42,0,0,1,.86-2.48,3,3,0,0,1,2.25-.89,2.78,2.78,0,0,1,2.17.88,3.54,3.54,0,0,1,.8,2.47,3.47,3.47,0,0,1-.83,2.37A2.81,2.81,0,0,1,112.65,187.83Zm.07-5.93a2.07,2.07,0,0,0-1.65.7,2.86,2.86,0,0,0-.61,1.94,2.79,2.79,0,0,0,.59,1.87,2.22,2.22,0,0,0,3.24,0,2.89,2.89,0,0,0,.59-1.9,2.82,2.82,0,0,0-.58-1.93A2,2,0,0,0,112.72,181.9Zm-.05,12.86h-.9l7.86-13.34h.87Zm7.12-.07a2.8,2.8,0,0,1-2.21-.92,3.46,3.46,0,0,1-.81-2.39,3.39,3.39,0,0,1,.87-2.49,3,3,0,0,1,2.24-.88,2.77,2.77,0,0,1,2.17.89,3.56,3.56,0,0,1,.8,2.47,3.47,3.47,0,0,1-.83,2.37A2.81,2.81,0,0,1,119.79,194.69Zm.07-5.94a2.06,2.06,0,0,0-1.65.71,2.88,2.88,0,0,0-.61,1.94,2.79,2.79,0,0,0,.59,1.87,2.24,2.24,0,0,0,3.25,0,2.89,2.89,0,0,0,.59-1.91,2.84,2.84,0,0,0-.58-1.94A2,2,0,0,0,119.86,188.76Z" transform="translate(16.96 1)"/><path d="M131,192.81h0v1.66h-.84v-13.8h.84v6.4h0a3.68,3.68,0,0,1,1.43-1.59,3.91,3.91,0,0,1,2.05-.56,3.38,3.38,0,0,1,2.77,1.22,5.12,5.12,0,0,1,1,3.33,5.87,5.87,0,0,1-1.16,3.78,3.67,3.67,0,0,1-3,1.44A3.29,3.29,0,0,1,131,192.81Zm0-3.47v1.17a3.53,3.53,0,0,0,.88,2.41,2.94,2.94,0,0,0,2.32,1,2.75,2.75,0,0,0,2.32-1.22,5.34,5.34,0,0,0,.89-3.22,4.33,4.33,0,0,0-.82-2.78,2.65,2.65,0,0,0-2.18-1,3.07,3.07,0,0,0-2.52,1.09A3.93,3.93,0,0,0,130.94,189.34Z" transform="translate(16.96 1)"/><path d="M140.54,194.46v-13.8h.84v13.8Z" transform="translate(16.96 1)"/><path d="M148.11,194.69a4.09,4.09,0,0,1-3.23-1.34,5.83,5.83,0,0,1,.05-7.12,4.3,4.3,0,0,1,3.27-1.31,4,4,0,0,1,3.15,1.3,5.24,5.24,0,0,1,1.16,3.61,5.15,5.15,0,0,1-1.18,3.52A4.06,4.06,0,0,1,148.11,194.69Zm.06-9a3.33,3.33,0,0,0-2.63,1.11,4.51,4.51,0,0,0-1,3.09,4.35,4.35,0,0,0,1,2.94,3.27,3.27,0,0,0,2.61,1.11,3.19,3.19,0,0,0,2.59-1.09,5.56,5.56,0,0,0,0-6.09A3.18,3.18,0,0,0,148.17,185.68Z" transform="translate(16.96 1)"/><path d="M160.86,194.05a4.64,4.64,0,0,1-2.48.64,3.91,3.91,0,0,1-3.07-1.31,4.94,4.94,0,0,1-1.17-3.42,5.14,5.14,0,0,1,1.31-3.64,4.38,4.38,0,0,1,3.37-1.42,5.12,5.12,0,0,1,2.07.44v.95a4.1,4.1,0,0,0-2.19-.62,3.35,3.35,0,0,0-2.66,1.18,4.5,4.5,0,0,0-1,3.05,4.35,4.35,0,0,0,.93,2.91,3.07,3.07,0,0,0,2.46,1.1,4.07,4.07,0,0,0,2.44-.75Z" transform="translate(16.96 1)"/><path d="M168.44,194.46,164,189.86h0v4.61h-.84v-13.8h.84v8.89h0l4.23-4.42h1.08l-4.42,4.52,4.78,4.81Z" transform="translate(16.96 1)"/><path d="M177.41,194.05a4.64,4.64,0,0,1-2.48.64,3.91,3.91,0,0,1-3.07-1.31,4.94,4.94,0,0,1-1.17-3.42,5.14,5.14,0,0,1,1.31-3.64,4.38,4.38,0,0,1,3.37-1.42,5.12,5.12,0,0,1,2.07.44v.95a4.1,4.1,0,0,0-2.19-.62,3.35,3.35,0,0,0-2.66,1.18,4.5,4.5,0,0,0-1,3.05,4.35,4.35,0,0,0,.93,2.91,3.07,3.07,0,0,0,2.46,1.1,4.07,4.07,0,0,0,2.44-.75Z" transform="translate(16.96 1)"/><path d="M186,194.46v-5.59a4,4,0,0,0-.6-2.43,2.23,2.23,0,0,0-1.88-.77,2.86,2.86,0,0,0-2.11.94,3.7,3.7,0,0,0-.91,2.69v5.16h-.84v-13.8h.84v6.15h0a3.5,3.5,0,0,1,3.2-1.9,2.8,2.8,0,0,1,2.3,1,4.33,4.33,0,0,1,.79,2.79v5.78Z" transform="translate(16.96 1)"/><path d="M195.2,194.46V192.6h0a3.65,3.65,0,0,1-1.3,1.53,3.33,3.33,0,0,1-1.89.57,2.9,2.9,0,0,1-2.1-.75,2.51,2.51,0,0,1-.77-1.88q0-2.44,3.23-2.95l2.87-.43q0-3-2.26-3a4.6,4.6,0,0,0-3,1.24v-1a4.58,4.58,0,0,1,1.41-.7,5.37,5.37,0,0,1,1.67-.29,2.81,2.81,0,0,1,2.23.89,3.81,3.81,0,0,1,.79,2.59v6.06Zm-2.57-4.64a4.44,4.44,0,0,0-2.06.68,2.11,2.11,0,0,0,0,2.89,2.1,2.1,0,0,0,1.53.54,2.88,2.88,0,0,0,2.24-1,3.71,3.71,0,0,0,.89-2.57v-.91Z" transform="translate(16.96 1)"/><path d="M199.25,182.79a.7.7,0,0,1-.69-.71.61.61,0,0,1,.21-.49.71.71,0,0,1,.48-.19.74.74,0,0,1,.5.18.61.61,0,0,1,.21.49.71.71,0,0,1-.71.71Zm-.41,11.67v-9.32h.84v9.32Z" transform="translate(16.96 1)"/><path d="M209,194.46V189q0-3.36-2.42-3.36a2.81,2.81,0,0,0-2.21,1,3.58,3.58,0,0,0-.86,2.44v5.35h-.84v-9.32h.84v1.69h0a3.37,3.37,0,0,1,3.19-1.92,2.78,2.78,0,0,1,2.31,1,4.52,4.52,0,0,1,.8,2.87v5.67Z" transform="translate(16.96 1)"/><path d="M218.63,192.81h0v5.94h-.84V185.14h.84v1.92h0a3.68,3.68,0,0,1,1.43-1.59,3.91,3.91,0,0,1,2.05-.56,3.38,3.38,0,0,1,2.77,1.22,5.12,5.12,0,0,1,1,3.33,5.91,5.91,0,0,1-1.14,3.78,3.66,3.66,0,0,1-3,1.44A3.29,3.29,0,0,1,218.63,192.81Zm0-3.47v1.17a3.53,3.53,0,0,0,.88,2.41,2.94,2.94,0,0,0,2.32,1,2.75,2.75,0,0,0,2.32-1.22,5.34,5.34,0,0,0,.89-3.22,4.33,4.33,0,0,0-.82-2.78,2.65,2.65,0,0,0-2.18-1,3.07,3.07,0,0,0-2.52,1.09A3.93,3.93,0,0,0,218.59,189.34Z" transform="translate(16.96 1)"/><path d="M228.2,194.46v-13.8H229v13.8Z" transform="translate(16.96 1)"/><path d="M237.59,194.46V192.6h0a3.65,3.65,0,0,1-1.3,1.53,3.33,3.33,0,0,1-1.89.57,2.9,2.9,0,0,1-2.1-.75,2.51,2.51,0,0,1-.77-1.88q0-2.44,3.23-2.95l2.87-.43q0-3-2.26-3a4.6,4.6,0,0,0-3,1.24v-1a4.58,4.58,0,0,1,1.41-.7,5.37,5.37,0,0,1,1.67-.29,2.81,2.81,0,0,1,2.23.89,3.81,3.81,0,0,1,.79,2.59v6.06ZM235,189.82a4.44,4.44,0,0,0-2.06.68,2.11,2.11,0,0,0,0,2.89,2.1,2.1,0,0,0,1.53.54,2.88,2.88,0,0,0,2.24-1,3.71,3.71,0,0,0,.89-2.57v-.91Z" transform="translate(16.96 1)"/><path d="M244.92,194.34a2.9,2.9,0,0,1-1.23.31q-2.07,0-2.07-2.48v-6.26h-1.68v-.76h1.68v-2.42l.42-.15.42-.14v2.7h2.46v.76h-2.46v6.15a2.47,2.47,0,0,0,.31,1.4,1.17,1.17,0,0,0,1,.43,2.31,2.31,0,0,0,1.12-.34Z" transform="translate(16.96 1)"/><path d="M250.85,181.55a1.64,1.64,0,0,0-1-.26q-1.72,0-1.72,2.31v1.55h2.47v.76h-2.47v8.56h-.84v-8.56h-1.68v-.76h1.68v-1.62a3.09,3.09,0,0,1,.74-2.24,2.47,2.47,0,0,1,1.85-.76,2.45,2.45,0,0,1,1,.17Z" transform="translate(16.96 1)"/><path d="M255.65,194.69a4.09,4.09,0,0,1-3.23-1.34,5.83,5.83,0,0,1,.05-7.12,4.3,4.3,0,0,1,3.27-1.31,4,4,0,0,1,3.15,1.3,5.24,5.24,0,0,1,1.16,3.61,5.15,5.15,0,0,1-1.18,3.52A4.06,4.06,0,0,1,255.65,194.69Zm.06-9a3.33,3.33,0,0,0-2.63,1.11,4.51,4.51,0,0,0-1,3.09,4.35,4.35,0,0,0,1,2.94,3.27,3.27,0,0,0,2.61,1.11,3.19,3.19,0,0,0,2.59-1.09,5.56,5.56,0,0,0,0-6.09A3.18,3.18,0,0,0,255.72,185.68Z" transform="translate(16.96 1)"/><path d="M266.77,186a1.64,1.64,0,0,0-1-.3,2.17,2.17,0,0,0-1.85,1.14,5.88,5.88,0,0,0-.75,3.23v4.38h-.82v-9.32h.82v2.07h0a3.39,3.39,0,0,1,1-1.66,2.39,2.39,0,0,1,1.6-.59,2.48,2.48,0,0,1,.93.16Z" transform="translate(16.96 1)"/><path d="M280.16,194.46v-5.61a4.14,4.14,0,0,0-.55-2.47,2.07,2.07,0,0,0-1.74-.71,2.42,2.42,0,0,0-1.9.95,3.55,3.55,0,0,0-.8,2.38v5.46h-.84v-5.67q0-3.11-2.37-3.11a2.32,2.32,0,0,0-1.89,1,3.84,3.84,0,0,0-.76,2.46v5.37h-.84v-9.32h.84v1.55h0a3.09,3.09,0,0,1,2.85-1.78,2.68,2.68,0,0,1,1.74.59,2.89,2.89,0,0,1,1,1.54,3.57,3.57,0,0,1,1.25-1.57,3.06,3.06,0,0,1,1.77-.56q3.06,0,3.06,3.79v5.76Z" transform="translate(16.96 1)"/><path d="M284.37,194.63a.7.7,0,0,1-.52-.21.72.72,0,0,1-.21-.52.7.7,0,0,1,.21-.52.71.71,0,0,1,.52-.2.75.75,0,0,1,.53.2.69.69,0,0,1,.22.52.71.71,0,0,1-.22.52A.73.73,0,0,1,284.37,194.63Z" transform="translate(16.96 1)"/><path class="cls-60" d="M32.55,42.09a9.15,9.15,0,0,1-6.88-2.75A9.87,9.87,0,0,1,23,32.18a10.58,10.58,0,0,1,2.7-7.54,9.35,9.35,0,0,1,7.16-2.88,8.92,8.92,0,0,1,6.81,2.76,10.16,10.16,0,0,1,2.6,7.27,10.41,10.41,0,0,1-2.69,7.47A9.25,9.25,0,0,1,32.55,42.09Zm.19-16.52A4.46,4.46,0,0,0,29,27.31a7.29,7.29,0,0,0-1.37,4.63A7.16,7.16,0,0,0,29,36.56a4.73,4.73,0,0,0,7.23,0A7.07,7.07,0,0,0,37.61,32a7.67,7.67,0,0,0-1.3-4.76A4.25,4.25,0,0,0,32.74,25.57Z" transform="translate(16.96 1)"/><path class="cls-60" d="M58.67,41.75H54.35v-7.8q0-3.26-2.33-3.26a2.31,2.31,0,0,0-1.85.86,3.29,3.29,0,0,0-.73,2.19v8H45.11v-14h4.33v2.22h.05A5,5,0,0,1,54,27.36q4.66,0,4.66,5.79Z" transform="translate(16.96 1)"/><path class="cls-60" d="M74.71,36H65.55Q65.77,39,69.41,39a7.52,7.52,0,0,0,4.07-1.1V41a10.7,10.7,0,0,1-5.06,1,7.12,7.12,0,0,1-5.28-1.89,7.12,7.12,0,0,1-1.88-5.26,7.51,7.51,0,0,1,2-5.54,6.76,6.76,0,0,1,5-2A6.14,6.14,0,0,1,73,29.19a7,7,0,0,1,1.68,5Zm-4-2.66q0-3-2.44-3a2.33,2.33,0,0,0-1.8.86,3.92,3.92,0,0,0-.93,2.15Z" transform="translate(16.96 1)"/><path class="cls-60" d="M85.46,41.75V22.08h7.16a8.94,8.94,0,0,1,5.06,1.21,3.88,3.88,0,0,1,1.77,3.4,4,4,0,0,1-1.08,2.78,5.65,5.65,0,0,1-2.75,1.66v.05A5.45,5.45,0,0,1,99,32.74a4.33,4.33,0,0,1,1.25,3.14,5.25,5.25,0,0,1-1.93,4.29A8.09,8.09,0,0,1,93,41.75Zm4.43-16.4V30h1.95A3.24,3.24,0,0,0,94,29.34a2.27,2.27,0,0,0,.79-1.83q0-2.17-3.24-2.17Zm0,8v5.18h2.4a3.69,3.69,0,0,0,2.41-.71,2.38,2.38,0,0,0,.87-1.95A2.22,2.22,0,0,0,94.71,34a3.79,3.79,0,0,0-2.39-.67Z" transform="translate(16.96 1)"/><path class="cls-60" d="M107.38,41.75H103V21h4.33Z" transform="translate(16.96 1)"/><path class="cls-60" d="M117.72,42.09a7.54,7.54,0,0,1-5.52-2,7.13,7.13,0,0,1-2-5.34,7.13,7.13,0,0,1,2.08-5.45,7.88,7.88,0,0,1,5.64-2,7.46,7.46,0,0,1,5.48,2,7,7,0,0,1,2,5.2,7.43,7.43,0,0,1-2,5.53A7.63,7.63,0,0,1,117.72,42.09Zm.11-11.41a2.89,2.89,0,0,0-2.39,1.06,4.66,4.66,0,0,0-.85,3q0,4,3.26,4,3.11,0,3.11-4.15Q121,30.68,117.83,30.68Z" transform="translate(16.96 1)"/><path class="cls-60" d="M138.83,41.24a8.57,8.57,0,0,1-4.24.85,7.17,7.17,0,0,1-5.24-2,6.77,6.77,0,0,1-2-5.06,7.46,7.46,0,0,1,2.15-5.64,7.93,7.93,0,0,1,5.74-2.06,7.36,7.36,0,0,1,3.59.66V31.7a4.94,4.94,0,0,0-3-1,4,4,0,0,0-3,1.09,4.06,4.06,0,0,0-1.09,3,4,4,0,0,0,1,2.93,3.83,3.83,0,0,0,2.87,1.06,5.72,5.72,0,0,0,3.17-1Z" transform="translate(16.96 1)"/><path class="cls-60" d="M155.74,41.75h-5.2l-4.48-7H146v7h-4.33V21H146V34.19h.05l4.18-6.49h5.14l-5,6.6Z" transform="translate(16.96 1)"/><path class="cls-60" d="M167.62,41.24a8.57,8.57,0,0,1-4.24.85,7.17,7.17,0,0,1-5.24-2,6.77,6.77,0,0,1-2-5.06,7.46,7.46,0,0,1,2.15-5.64A7.93,7.93,0,0,1,164,27.36a7.36,7.36,0,0,1,3.59.66V31.7a4.94,4.94,0,0,0-3-1,4,4,0,0,0-3,1.09,4.06,4.06,0,0,0-1.09,3,4,4,0,0,0,1,2.93,3.83,3.83,0,0,0,2.87,1.06,5.72,5.72,0,0,0,3.17-1Z" transform="translate(16.96 1)"/><path class="cls-60" d="M183.93,41.75h-4.32v-8q0-3.09-2.25-3.09a2.3,2.3,0,0,0-1.86.86,3.33,3.33,0,0,0-.71,2.19v8h-4.33V21h4.33v8.83h.05a4.92,4.92,0,0,1,4.32-2.43q4.77,0,4.77,5.76Z" transform="translate(16.96 1)"/><path class="cls-60" d="M199,41.75h-4.1v-2h-.05a4.58,4.58,0,0,1-4.18,2.36,4.37,4.37,0,0,1-3.22-1.16,4.15,4.15,0,0,1-1.17-3.09q0-4.09,4.84-4.72l3.81-.51q0-2.3-2.5-2.3a8.52,8.52,0,0,0-4.77,1.49V28.54a10.73,10.73,0,0,1,2.48-.82,13,13,0,0,1,2.86-.36q6,0,6,6ZM195,36V35.1l-2.55.33q-2.11.27-2.11,1.91a1.58,1.58,0,0,0,.51,1.21,2,2,0,0,0,1.39.47,2.56,2.56,0,0,0,2-.84A3,3,0,0,0,195,36Z" transform="translate(16.96 1)"/><path class="cls-60" d="M204.67,25.48a2.53,2.53,0,0,1-1.8-.65,2.1,2.1,0,0,1-.7-1.6,2,2,0,0,1,.7-1.59,2.93,2.93,0,0,1,3.6,0,2,2,0,0,1,.69,1.59,2.09,2.09,0,0,1-.69,1.62A2.58,2.58,0,0,1,204.67,25.48Zm2.14,16.26h-4.33v-14h4.33Z" transform="translate(16.96 1)"/><path class="cls-60" d="M224,41.75H219.7v-7.8q0-3.26-2.33-3.26a2.31,2.31,0,0,0-1.85.86,3.29,3.29,0,0,0-.73,2.19v8h-4.33v-14h4.33v2.22h.05a5,5,0,0,1,4.51-2.56q4.66,0,4.66,5.79Z" transform="translate(16.96 1)"/><path class="cls-60" d="M252.63,41.75h-4.44v-8H240v8h-4.43V22.08H240v7.84h8.15V22.08h4.44Z" transform="translate(16.96 1)"/><path class="cls-60" d="M270,41.75h-4.32V39.61h-.07a4.9,4.9,0,0,1-4.29,2.48q-4.88,0-4.88-5.91V27.71h4.32V35.8q0,3,2.36,3A2.33,2.33,0,0,0,265,38a3.29,3.29,0,0,0,.7-2.21v-8H270Z" transform="translate(16.96 1)"/><path class="cls-60" d="M278.08,40.12H278v1.63H273.7V21H278v8.86h.05a5.14,5.14,0,0,1,4.57-2.45,5,5,0,0,1,4.18,1.86,8,8,0,0,1,1.47,5.1A8.71,8.71,0,0,1,286.58,40,5.58,5.58,0,0,1,282,42.09,4.42,4.42,0,0,1,278.08,40.12ZM278,34.19v1.44a3.29,3.29,0,0,0,.78,2.25,2.54,2.54,0,0,0,2,.89,2.66,2.66,0,0,0,2.3-1.15,5.53,5.53,0,0,0,.82-3.24,4.4,4.4,0,0,0-.75-2.72,2.52,2.52,0,0,0-2.13-1,2.75,2.75,0,0,0-2.16,1A3.7,3.7,0,0,0,278,34.19Z" transform="translate(16.96 1)"/><path class="cls-60" d="M38.33,80.57a13,13,0,0,1-5.62,1A9.48,9.48,0,0,1,25.6,79,9.72,9.72,0,0,1,23,71.86a10.39,10.39,0,0,1,2.91-7.65,10.19,10.19,0,0,1,7.56-2.93,14.14,14.14,0,0,1,4.85.73v4.26a8.6,8.6,0,0,0-4.5-1.18,6,6,0,0,0-4.47,1.74,6.46,6.46,0,0,0-1.7,4.72,6.34,6.34,0,0,0,1.6,4.55,5.67,5.67,0,0,0,4.32,1.69,9.21,9.21,0,0,0,4.74-1.26Z" transform="translate(16.96 1)"/><path class="cls-60" d="M48,81.61a7.54,7.54,0,0,1-5.52-2,7.13,7.13,0,0,1-2-5.34,7.13,7.13,0,0,1,2.08-5.45,7.88,7.88,0,0,1,5.64-2,7.46,7.46,0,0,1,5.48,2,7,7,0,0,1,2,5.2,7.43,7.43,0,0,1-2,5.53A7.63,7.63,0,0,1,48,81.61Zm.11-11.41a2.89,2.89,0,0,0-2.39,1.06,4.66,4.66,0,0,0-.85,3q0,4,3.26,4,3.11,0,3.11-4.15Q51.28,70.21,48.14,70.21Z" transform="translate(16.96 1)"/><path class="cls-60" d="M72.07,81.27H67.75v-7.8q0-3.26-2.33-3.26a2.31,2.31,0,0,0-1.85.86,3.29,3.29,0,0,0-.73,2.19v8H58.51v-14h4.33v2.22h.05a5,5,0,0,1,4.51-2.56q4.66,0,4.66,5.79Z" transform="translate(16.96 1)"/><path class="cls-60" d="M89.06,81.27H84.74v-7.8q0-3.26-2.33-3.26a2.31,2.31,0,0,0-1.85.86,3.29,3.29,0,0,0-.73,2.19v8H75.5v-14h4.33v2.22h.05a5,5,0,0,1,4.51-2.56q4.66,0,4.66,5.79Z" transform="translate(16.96 1)"/><path class="cls-60" d="M105.1,75.48H95.94q.22,3.06,3.85,3.06a7.52,7.52,0,0,0,4.07-1.1v3.13a10.7,10.7,0,0,1-5.06,1,6.54,6.54,0,0,1-7.16-7.14,7.51,7.51,0,0,1,2-5.54,6.76,6.76,0,0,1,5-2,6.14,6.14,0,0,1,4.75,1.82,7,7,0,0,1,1.68,5Zm-4-2.66q0-3-2.44-3a2.33,2.33,0,0,0-1.8.86,3.92,3.92,0,0,0-.93,2.15Z" transform="translate(16.96 1)"/><path class="cls-60" d="M118.32,80.76a8.57,8.57,0,0,1-4.24.85,7.17,7.17,0,0,1-5.24-2,6.77,6.77,0,0,1-2-5.06A7.46,7.46,0,0,1,109,69a7.93,7.93,0,0,1,5.74-2.06,7.36,7.36,0,0,1,3.59.66v3.67a4.94,4.94,0,0,0-3-1,4,4,0,0,0-3,1.09,4.06,4.06,0,0,0-1.09,3,4,4,0,0,0,1,2.93,3.83,3.83,0,0,0,2.87,1.06,5.72,5.72,0,0,0,3.17-1Z" transform="translate(16.96 1)"/><path class="cls-60" d="M129.65,81.11a6.4,6.4,0,0,1-2.89.51q-4.58,0-4.58-4.76V70.42H119.9V67.23h2.28v-3L126.49,63v4.26h3.15v3.19h-3.15V76.1q0,2.19,1.74,2.19a2.94,2.94,0,0,0,1.41-.4Z" transform="translate(16.96 1)"/><path class="cls-60" d="M134.28,65a2.53,2.53,0,0,1-1.8-.65,2.1,2.1,0,0,1-.7-1.6,2,2,0,0,1,.7-1.59,2.93,2.93,0,0,1,3.6,0,2,2,0,0,1,.69,1.59,2.09,2.09,0,0,1-.69,1.62A2.58,2.58,0,0,1,134.28,65Zm2.14,16.26h-4.33v-14h4.33Z" transform="translate(16.96 1)"/><path class="cls-60" d="M153.63,81.27h-4.32v-7.8q0-3.26-2.33-3.26a2.31,2.31,0,0,0-1.85.86,3.29,3.29,0,0,0-.73,2.19v8h-4.33v-14h4.33v2.22h.05A5,5,0,0,1,149,66.89q4.66,0,4.66,5.79Z" transform="translate(16.96 1)"/><path class="cls-60" d="M170.82,79.67a8,8,0,0,1-2.26,6.05q-2.26,2.15-6.55,2.15a10.39,10.39,0,0,1-4.5-.81V83.41a8.61,8.61,0,0,0,4.37,1.26,4.71,4.71,0,0,0,3.4-1.16,4.16,4.16,0,0,0,1.21-3.15V79.26h-.05a4.84,4.84,0,0,1-4.37,2.36,5.26,5.26,0,0,1-4.26-1.89,7.67,7.67,0,0,1-1.58-5.07A8.55,8.55,0,0,1,158,69a5.73,5.73,0,0,1,4.62-2.1,4.26,4.26,0,0,1,3.84,2h.05V67.23h4.33Zm-4.28-5.14V73.41a3.41,3.41,0,0,0-.79-2.27,2.55,2.55,0,0,0-2-.94,2.65,2.65,0,0,0-2.26,1.12,5.29,5.29,0,0,0-.82,3.17,4.46,4.46,0,0,0,.78,2.78,2.55,2.55,0,0,0,2.14,1,2.65,2.65,0,0,0,2.17-1A4.25,4.25,0,0,0,166.55,74.52Z" transform="translate(16.96 1)"/><path class="cls-60" d="M199.91,81.27h-4.83l-1.4-4.37h-7l-1.38,4.37h-4.8l7.16-19.66h5.25Zm-7.24-7.77-2.11-6.61a8.61,8.61,0,0,1-.33-1.77h-.11a7.5,7.5,0,0,1-.34,1.71l-2.14,6.66Z" transform="translate(16.96 1)"/><path class="cls-60" d="M206.27,81.27h-4.33V60.48h4.33Z" transform="translate(16.96 1)"/><path class="cls-60" d="M214.25,81.27h-4.33V60.48h4.33Z" transform="translate(16.96 1)"/><path class="cls-60" d="M240.17,80.57a13,13,0,0,1-5.62,1A9.48,9.48,0,0,1,227.43,79a9.72,9.72,0,0,1-2.59-7.09,10.39,10.39,0,0,1,2.91-7.65,10.19,10.19,0,0,1,7.56-2.93,14.14,14.14,0,0,1,4.85.73v4.26a8.6,8.6,0,0,0-4.5-1.18,6,6,0,0,0-4.47,1.74,6.46,6.46,0,0,0-1.7,4.72,6.34,6.34,0,0,0,1.6,4.55,5.67,5.67,0,0,0,4.32,1.69,9.21,9.21,0,0,0,4.74-1.26Z" transform="translate(16.96 1)"/><path class="cls-60" d="M252.33,71.14a3.76,3.76,0,0,0-1.82-.43,2.63,2.63,0,0,0-2.21,1,4.52,4.52,0,0,0-.8,2.82v6.71h-4.33v-14h4.33v2.61h.05a3.75,3.75,0,0,1,3.7-2.85,2.79,2.79,0,0,1,1.07.16Z" transform="translate(16.96 1)"/><path class="cls-60" d="M268.84,67.23l-5.7,15.17q-2.06,5.47-6.2,5.47a7.94,7.94,0,0,1-2.59-.36V84.06a3.64,3.64,0,0,0,1.88.51A2.35,2.35,0,0,0,258.56,83l.74-1.74-5.7-14h4.8L261,75.77a11.1,11.1,0,0,1,.38,1.88h.05a13.1,13.1,0,0,1,.45-1.85l2.65-8.57Z" transform="translate(16.96 1)"/><path class="cls-60" d="M275,79.64h-.05v8.09h-4.33V67.23h4.33v2.11H275a5.51,5.51,0,0,1,8.73-.58,8,8,0,0,1,1.49,5.09,8.64,8.64,0,0,1-1.73,5.64,5.66,5.66,0,0,1-4.61,2.13A4.37,4.37,0,0,1,275,79.64Zm-.12-5.76V75a3.57,3.57,0,0,0,.77,2.37,2.5,2.5,0,0,0,2,.92,2.66,2.66,0,0,0,2.3-1.15,5.53,5.53,0,0,0,.82-3.24q0-3.7-2.88-3.7a2.7,2.7,0,0,0-2.17,1A4,4,0,0,0,274.85,73.88Z" transform="translate(16.96 1)"/><path class="cls-60" d="M296.49,81.11a6.4,6.4,0,0,1-2.89.51q-4.58,0-4.58-4.76V70.42h-2.28V67.23H289v-3L293.33,63v4.26h3.15v3.19h-3.15V76.1q0,2.19,1.74,2.19a2.94,2.94,0,0,0,1.41-.4Z" transform="translate(16.96 1)"/><path class="cls-60" d="M305.51,81.61a7.54,7.54,0,0,1-5.52-2,7.13,7.13,0,0,1-2-5.34,7.13,7.13,0,0,1,2.08-5.45,7.88,7.88,0,0,1,5.64-2,7.46,7.46,0,0,1,5.48,2,7,7,0,0,1,2,5.2,7.43,7.43,0,0,1-2,5.53A7.63,7.63,0,0,1,305.51,81.61Zm.11-11.41a2.89,2.89,0,0,0-2.39,1.06,4.66,4.66,0,0,0-.85,3q0,4,3.26,4,3.11,0,3.11-4.15Q308.76,70.21,305.62,70.21Z" transform="translate(16.96 1)"/></g></g></svg>