<svg xmlns="http://www.w3.org/2000/svg" height="700" width="511.34" version="1.1" viewBox="32 5 511.34125 699.99999">
 <defs>
  <style>.cls-1,.cls-20,.cls-22,.cls-27,.cls-28,.cls-36,.cls-37,.cls-49,.cls-50,.cls-51,.cls-6{fill:none;}.cls-2{clip-path:url(#clip-path);}.cls-3{fill:url(#linear-gradient);}.cls-4{fill:#c0e6ed;}.cls-5{fill:#a9dde0;}.cls-27,.cls-28,.cls-6{stroke:#e8f6fb;}.cls-18,.cls-19,.cls-20,.cls-22,.cls-23,.cls-27,.cls-28,.cls-30,.cls-31,.cls-33,.cls-35,.cls-36,.cls-37,.cls-38,.cls-39,.cls-45,.cls-46,.cls-47,.cls-48,.cls-49,.cls-50,.cls-51,.cls-52,.cls-53,.cls-6{stroke-miterlimit:10;}.cls-27,.cls-28,.cls-30,.cls-33,.cls-37,.cls-51,.cls-52,.cls-6{stroke-width:1.89px;}.cls-6{stroke-dasharray:1.89;}.cls-7{fill:#e8f6fb;}.cls-8{fill:#a7c0c6;}.cls-9{fill:#65787d;}.cls-10{fill:#a7b8a5;}.cls-11{fill:#959dad;}.cls-12{fill:#231f20;}.cls-13,.cls-52{fill:#f2ba31;}.cls-14{fill:#6e7a82;}.cls-15{fill:#97d8e6;}.cls-16,.cls-53{fill:#62c1ed;}.cls-17{fill:#5aa4da;}.cls-18{fill:#84b7e3;}.cls-18,.cls-19,.cls-20,.cls-22,.cls-23,.cls-35,.cls-36,.cls-37,.cls-39,.cls-46,.cls-48{stroke:#231f20;}.cls-18,.cls-19,.cls-20,.cls-31,.cls-38,.cls-39,.cls-45,.cls-46,.cls-47,.cls-48,.cls-53{stroke-width:0.95px;}.cls-19,.cls-23,.cls-47{fill:#fff;}.cls-21{fill:#181818;}.cls-22,.cls-50{stroke-width:0.47px;}.cls-23,.cls-49{stroke-width:0.71px;}.cls-24{fill:#3a3a3a;}.cls-25{fill:#96a7af;}.cls-26{fill:#fec45f;}.cls-28{stroke-dasharray:1.92 1.92;}.cls-29{fill:url(#c);}.cls-30{fill:#f3fafd;}.cls-30,.cls-51{stroke:#ffebc0;}.cls-31{fill:#f69d9f;stroke:#f8bacd;}.cls-32,.cls-35,.cls-39{fill:#e7e8e9;}.cls-33{fill:#4f5c68;stroke:#81d4f7;}.cls-34{fill:#fdf05f;}.cls-35,.cls-36,.cls-37,.cls-39{stroke-linecap:round;}.cls-35,.cls-36{stroke-width:2.84px;}.cls-38{fill:#cc8250;stroke:#f2ea5e;}.cls-40{fill:#010101;}.cls-41{isolation:isolate;}.cls-42{fill:#89746a;}.cls-43{fill:#dba844;}.cls-44{fill:#86716a;}.cls-45{fill:#455080;stroke:#5575b9;}.cls-46{fill:#e7e8e8;}.cls-47,.cls-49,.cls-50,.cls-53{stroke:#000;}.cls-48{fill:#e8e8e8;}.cls-52{stroke:#f3fafd;}.cls-54{fill:#fee252;}.cls-55{fill:url(#b);}.cls-56{fill:#75605a;}.cls-57{fill:url(#a);}.cls-58{fill:#bcbbbb;}.cls-59{fill:#f2af1d;}.cls-60{fill:#515b5b;}</style>
  <clipPath id="clip-path" transform="translate(20.86 -.84)">
   <rect class="cls-1" height="700" width="526.72" y="3.8" x="7.37" fill="none"/>
  </clipPath>
  <linearGradient id="linear-gradient" y2="-48.96" gradientUnits="userSpaceOnUse" x2="277.78" gradientTransform="matrix(.96333 0 0 1 19.927 0)" y1="722.22" x1="300.2">
   <stop stop-color="#fdd4bb" offset=".22"/>
   <stop stop-color="#aacdd2" offset=".55"/>
  </linearGradient>
  <linearGradient id="c" y2="405.72" gradientUnits="userSpaceOnUse" x2="-158.03" gradientTransform="matrix(-1 0 0 1 -95.36 -.84)" y1="405.72" x1="-701.66">
   <stop stop-color="#856224" offset=".01"/>
   <stop stop-color="#fbe99c" offset=".86"/>
  </linearGradient>
  <linearGradient id="b" y2="615.7" gradientUnits="userSpaceOnUse" x2="514.85" y1="615.7" x1="457.53">
   <stop stop-color="#deaf23" offset=".01"/>
   <stop stop-color="#624c69" offset=".86"/>
  </linearGradient>
  <linearGradient id="a" y2="485.93" gradientUnits="userSpaceOnUse" x2="109.25" y1="485.93" x1="81.51">
   <stop stop-color="#624c69" offset=".03"/>
   <stop stop-color="#da9f81" offset="1"/>
  </linearGradient>
 </defs>
 <title>FTT Tablet</title>
 <g id="clipping_mask" transform="matrix(.97080 0 0 1 17.845 1.2)" data-name="clipping mask">
  <g transform="matrix(1.0244 0 0 1 -14.782 0)" class="cls-2" clip-path="url(#clip-path)">
   <rect class="cls-3" height="712.08" width="523.55" y="0" x="19.927" stroke-width=".98150" fill="url(#linear-gradient)"/>
   <path d="m551 712.45-0.22-270.33s-213.15 54.68-220.61 54.21c-28.91-1.83-36.8-2.53-61.14 1.89-14.09 2.56-10.66 12.47-21.43 22.06-6.46 5.75-17.57 6.7-28.36 12-16 7.84-34 19.23-56.18 21.51-7.4 0.76-23.86-4.24-42.78-3.23s-30.86 7.41-53.58 6.93c-4-0.08-18.09-5.61-22.06-5.67-16-0.24-22.06 11.35-32.15 14.5a61.46 61.46 0 0 1 -11.25 2.36v144.6z" class="cls-4" transform="translate(20.86 -.84)" fill="#c0e6ed"/>
   <g fill="#a9dde0">
    <path d="m37.23 610.22 97.77-1.86c6.18-0.12 13.19-0.25 19.21-3.48s10.7-10.63 8.25-17.47c-1.27-3.54-4.07-6.05-6.78-8.48s-5.4-4.84-6.13-8.06c-1-4.4 2.21-8.9 5.89-11.07 4.18-2.46 11.52-6.47 16.14-7h-3.31a34.71 34.71 0 0 0 -14.27 4.56c-4.43 2.61-8.58 8.14-7.22 14.14 0.93 4.1 4 6.86 7 9.54 2.56 2.29 5 4.46 6 7.32 1.91 5.34-2.1 11.43-6.92 14-5.42 2.91-12.06 3-17.92 3.15l-97.75 1.86c-12 0.23-25.16 0.5-37.32 4.47v3c12-4.13 25.33-4.39 37.36-4.62z" class="cls-5" transform="translate(20.86 -.84)"/>
    <path d="m1.67 668.17c2.28-0.77 4.85-1.78 6.45-4a12.91 12.91 0 0 0 1.92 -6c0.1-0.66 0.19-1.32 0.32-2 2.08-10.07 13.07-16 32.67-17.72l94.91-8.18c12.12-1 27.21-2.35 38.19-11.15a29 29 0 0 0 10.41 -21.51c0.06-6.17-2.24-11.51-6.47-15a39.66 39.66 0 0 0 -6.9 -4.28c-4.16-2.2-8.08-4.29-9.28-8.22-2.43-8 10.85-16.9 15.72-19.18l-3.43 0.18c-5.54 2.59-18.08 9.7-15 19.82 1.54 5.07 6.18 7.53 10.67 9.91a37.57 37.57 0 0 1 6.41 4c4.57 3.81 5.49 9.08 5.45 12.83a26 26 0 0 1 -9.34 19.32c-10.31 8.27-24.92 9.53-36.66 10.54l-94.91 8.18c-21 1.81-32.84 8.53-35.2 20-0.15 0.71-0.25 1.43-0.35 2.12a10.68 10.68 0 0 1 -1.42 4.75c-1.11 1.54-3.19 2.34-5.06 3l-0.9 0.28v3c0.59-0.31 1.2-0.49 1.8-0.69z" class="cls-5" transform="translate(20.86 -.84)"/>
    <path d="m71.86 595.19c19 0.65 38.55 1.31 57.64-0.27 3.76-0.31 7.87-1.09 9.85-4.46 2.52-4.31-0.34-8.7-2.86-12.57-0.75-1.15-1.46-2.23-2-3.3a14.52 14.52 0 0 1 17 -20.75l-4.5-1.73c-6.54-2-8.81-0.68-13.15 4.6a17.75 17.75 0 0 0 -1.84 19.22c0.63 1.17 1.4 2.36 2.15 3.51 2.28 3.49 4.43 6.79 2.79 9.59-1.32 2.25-4.6 2.82-7.63 3.07-18.92 1.57-38.44 0.9-57.31 0.26-23.86-0.81-48.33-1.64-72.1 2v2.88c23.62-3.68 48.1-2.86 71.96-2.05z" class="cls-5" transform="translate(20.86 -.84)"/>
    <path d="m134.17 550.88 2.41 0.28a15.61 15.61 0 0 0 -2.41 -0.28z" class="cls-5" transform="translate(20.86 -.84)"/>
    <path d="m20.4 578.22 1-0.46c3.11-1.39 6.32-2.83 9.59-2.9 3-0.08 7.21 1.12 8.25 3.85a1.38 1.38 0 0 0 0.86 0.81l3.15 1.05a1.41 1.41 0 0 0 0.83 0 93.56 93.56 0 0 1 48.75 -1.35l0.26 0.06c5.69 1.27 12.78 2.84 17.8-1.17 3.73-3 4.63-7.62 5.5-12.1a35.45 35.45 0 0 1 1.78 -6.81c2.3-5.51 9.71-8.62 16-8.34l-1.56-0.18h-0.1c-8-1.62-13.79-0.09-16.94 7.44a37.45 37.45 0 0 0 -1.95 7.36c-0.8 4.16-1.56 8.09-4.48 10.42-4 3.17-10 1.81-15.41 0.62l-0.26-0.06c-16-3.56-31.39-3.93-47.14-0.27a6.51 6.51 0 0 1 -5.6 -1.32c-2.55-2.08-6.81-2.87-9.73-2.87-3.84 0.08-7.32 1.64-10.69 3.15l-1 0.45a113.11 113.11 0 0 1 -19.45 6.55v2.93a116 116 0 0 0 20.54 -6.86z" class="cls-5" transform="translate(20.86 -.84)"/>
    <path d="m188 547.49 0.82-0.34a5.68 5.68 0 0 0 -0.82 0.34z" class="cls-5" transform="translate(20.86 -.84)"/>
    <path d="m205.09 594.48c-1.15-3.24-3.81-5.47-6.43-7.47l-2.23-1.68c-6-4.51-12.22-9.18-15.37-15.76a17.26 17.26 0 0 1 -0.3 -13.77c0.84-1.93 4-6.71 7.24-8.3l-2 0.84c-3.49 1.09-6.2 2.61-7.82 6.33a20.21 20.21 0 0 0 0.34 16.13c3.45 7.21 9.95 12.09 16.23 16.81l2.22 1.67c2.29 1.74 4.59 3.65 5.48 6.16s0.38 5.07-0.26 8.06c-1.6 7.47-3.56 15.28-8.25 21.37-8.44 11-23.69 14.06-38.58 16.3l-97.89 14.7c-8 1.2-18.9 3.83-21.47 12.8a23 23 0 0 0 -0.64 3.63 18.67 18.67 0 0 1 -0.63 3.45c-1.83 5.71-8.8 8-15.38 9.58s-13.17 3-19.5 4.34v2.89c6.54-1.34 13.19-2.85 20.14-4.47 7.35-1.71 15.17-4.42 17.44-11.48a21.07 21.07 0 0 0 0.75 -4 20.57 20.57 0 0 1 0.55 -3.19c2.11-7.4 11.95-9.69 19.16-10.78l97.86-14.64c15.46-2.32 31.32-5.58 40.4-17.38 5.05-6.56 7.11-14.71 8.78-22.5 0.71-3.34 1.26-6.56 0.16-9.64z" class="cls-5" transform="translate(20.86 -.84)"/>
    <path d="m293.47 739.78c-17.92-6.09-38.23-13-52.87-27.38-13.7-13.46-22.22-37.56-11-55.7a69.21 69.21 0 0 1 5.11 -6.92c2.87-3.56 5.58-6.93 7-11 4.68-13.1-6.31-26.85-11.25-32.15-2.2-2.36-4.57-4.63-7.07-7-6.78-6.5-13.79-13.21-17.14-21.79a8.75 8.75 0 0 1 -6.25 -4.64 13.11 13.11 0 0 1 -0.06 -12.56c3.42-5.9 9.9-8.7 16.8-11.27l33.11-12.32c5.1-1.9 11.91-5.07 12.26-10.7a15.15 15.15 0 0 0 -0.92 -5.11 21.48 21.48 0 0 1 -1 -4.93c-0.43-8 7.36-13.81 14.78-15.8 9.71-2.6 19.8-1.3 29.55 0 7.58 1 15.42 2 22.95 1.14 6.32-0.72 12.53-2.76 18.53-4.74l37.76-12.43 0.89 2.69-37.76 12.43c-6.14 2-12.49 4.11-19.1 4.86-7.87 0.9-15.88-0.14-23.63-1.14-9.92-1.28-19.29-2.49-28.45 0-6.55 1.76-13 6.76-12.68 12.91a19 19 0 0 0 0.93 4.28 17.49 17.49 0 0 1 1 6.09c-0.45 7.28-8.26 11-14.1 13.18l-33.16 12.22c-6.4 2.38-12.39 4.94-15.34 10a10.33 10.33 0 0 0 0.09 9.76 5.87 5.87 0 0 0 4.87 3.26h1l0.33 0.92c3 8.35 10 15.06 16.75 21.55 2.42 2.32 4.93 4.72 7.18 7.14 11.19 12 15.51 24.79 11.85 35-1.61 4.5-4.6 8.21-7.49 11.8a66.82 66.82 0 0 0 -4.91 6.63c-10.43 16.89-2.32 39.49 10.59 52.19 14.18 13.93 34.16 20.73 51.79 26.72z" class="cls-5" transform="translate(20.86 -.84)"/>
    <path d="m188.35 566.53c-0.17-11.45 1.43-18.85 7.66-23.16 5.52-3.82 11.73-6.17 17.84-8.29l30.28-12 4-2.36-33.37 17.09c-5.91 2-12 4.17-17.09 7.89-5.4 3.95-9.32 20.83-9.32 20.83z" class="cls-5" transform="translate(20.86 -.84)"/>
    <path d="m11.3 572.44c-17.3 6.56 9.7-5.35 18.7-9.72a13.77 13.77 0 0 0 2 -1.37 22.36 22.36 0 0 1 4.43 -2.72c5.51-2.33 11.1-0.24 16.51 1.79a43.37 43.37 0 0 0 8.5 2.58c4.74 0.7 9.58-0.47 14.26-1.6l30.86-8.79h3.31l-33.5 11.55c-4.71 1.14-10.06 2.42-15.34 1.65a45.48 45.48 0 0 1 -9.13 -2.71c-5.11-1.91-9.94-3.72-14.41-1.83a19.92 19.92 0 0 0 -3.86 2.4c-0.67 0.49-1.37 1-2.1 1.47-3.63 2.3-19.48 7.37-20.23 7.3z" class="cls-5" transform="translate(20.86 -.84)"/>
    <path d="m253.82 614.77-2.28-1.68c2.43-3.29 0.35-8.55-3.12-11.39a36 36 0 0 0 -7.2 -4.22 52.29 52.29 0 0 1 -5.86 -3.18 24.59 24.59 0 0 1 -10.31 -15.89 19.68 19.68 0 0 1 3.07 -15.23c5.61-7.78 15.32-9.75 24.71-11.66 1.91-0.39 3.88-0.79 5.75-1.23 7.57-1.79 14.42-6.2 17.45-11.26a11 11 0 0 0 1.38 -8.69c-0.19-0.73-0.46-1.45-0.75-2.22a13.28 13.28 0 0 1 -1.17 -5.19c0.21-5.86 6.38-9.4 16.5-9.47a257.45 257.45 0 0 0 134.91 -39.81l1.52 2.39a260.32 260.32 0 0 1 -136.42 40.25c-2.25 0-13.46 0.41-13.69 6.74a11 11 0 0 0 1 4.09 26.09 26.09 0 0 1 0.84 2.49 13.69 13.69 0 0 1 -1.69 10.87c-3.41 5.68-11 10.61-19.23 12.56-1.91 0.45-3.91 0.86-5.84 1.25-8.86 1.8-18 3.66-23 10.54a16.87 16.87 0 0 0 -2.58 13.06 21.7 21.7 0 0 0 9.08 14 49.27 49.27 0 0 0 5.54 3 38.58 38.58 0 0 1 7.75 4.58c4.49 3.68 7.13 10.53 3.64 15.3z" class="cls-5" transform="translate(20.86 -.84)"/>
   </g>
   <path d="m178.58 597.18c-17-19.54 17-30.89-3.47-49.8" class="cls-6" transform="translate(20.86 -.84)" stroke="#e8f6fb" stroke-dasharray="1.89" stroke-miterlimit="10" stroke-width="1.89px" fill="none"/>
   <path d="m252.64 540.13a41.77 41.77 0 0 0 0.32 -34" class="cls-6" transform="translate(20.86 -.84)" stroke="#e8f6fb" stroke-dasharray="1.89" stroke-miterlimit="10" stroke-width="1.89px" fill="none"/>
   <rect class="cls-7" height="31.2" width="31.44" y="515.81" x="312.26" fill="#e8f6fb"/>
   <rect class="cls-8" height="33.56" width="16.31" y="513.69" x="335.9" fill="#a7c0c6"/>
   <polygon points="334.08 517.71 308.24 517.71 324.31 506.12 347.64 506.2" fill="#65787d" class="cls-9"/>
   <polygon points="320.14 565.61 289.25 565.61 289.25 541.66 320.77 535.35" fill="#a7c0c6" class="cls-8"/>
   <rect class="cls-7" height="25.84" width="23.32" y="541.66" x="289.25" fill="#e8f6fb"/>
   <polygon points="309.42 544.18 284.21 544.18 298.71 532.04 323.92 532.04" fill="#65787d" class="cls-9"/>
   <path d="m555 358.21-37.75 3.09a9.89 9.89 0 0 0 -9.08 10.15l1.32 44.72a9.89 9.89 0 0 1 -9.89 10.18h-27.35a9.89 9.89 0 0 0 -9.89 9.71l-0.59 32a9.89 9.89 0 0 1 -9.48 9.7l-70.84 3a9.89 9.89 0 0 0 -9.47 10.1l0.52 24.52a9.89 9.89 0 0 1 -10 10.1l-54.16-0.69a9.89 9.89 0 0 0 -10 10.17l0.39 13.88a9.89 9.89 0 0 1 -9.62 10.16l-42.57 1.31a9.89 9.89 0 0 0 -9.57 9.29l-0.74 12.25a9.89 9.89 0 0 1 -10.53 9.27l-50.74-3.38a9.89 9.89 0 0 0 -10.55 9.57l-0.41 11.83a9.89 9.89 0 0 1 -9.43 9.58l-24.15 1.12a9.89 9.89 0 0 0 -9.14 7.48l-3 12a9.89 9.89 0 0 1 -3.88 5.67l-16.72 11.88a9.89 9.89 0 0 0 -3.85 5.56l-7.95 30.2a9.89 9.89 0 0 1 -2.12 4l-10.45 11.93a9.89 9.89 0 0 0 7.52 16.44l479.54-3.55a9.89 9.89 0 0 0 9.82 -10l-4.46-343.46a9.89 9.89 0 0 0 -10.73 -9.78z" class="cls-10" transform="translate(20.86 -.84)" fill="#a7b8a5"/>
   <path d="m2.61 412v220.48h0.28a5.44 5.44 0 0 1 5.16 3.72l2.95 8.8a5.44 5.44 0 0 0 6.18 3.62l9.71-1.85a5.44 5.44 0 0 1 6.38 4.45 5.44 5.44 0 0 0 6.73 4.36l17.66-4.58a5.44 5.44 0 0 1 6.74 4.5l0.38 2.63a5.44 5.44 0 0 0 5.3 4.67l113 1.78a5.44 5.44 0 0 1 4.08 1.94l31.1 37.07h308.32v-291.59z" class="cls-1" transform="translate(20.86 -.84)" fill="none"/>
   <path d="m183 664.58-113-1.78a5.44 5.44 0 0 1 -5.3 -4.67l-0.38-2.63a5.44 5.44 0 0 0 -6.74 -4.5l-17.58 4.58a5.44 5.44 0 0 1 -6.72 -4.37 5.44 5.44 0 0 0 -6.38 -4.45l-9.71 1.85a5.44 5.44 0 0 1 -6.19 -3.61l-2.95-8.8a5.44 5.44 0 0 0 -5.16 -3.72h-0.28v71.12h215.6l-31.1-37.07a5.44 5.44 0 0 0 -4.11 -1.95z" class="cls-11" transform="translate(20.86 -.84)" fill="#959dad"/>
   <path d="m62.14 636.49c-3.74 0-7.18-4.18-12.91-11.53l0.75-0.58c5.39 6.91 8.87 11.16 12.17 11.16 3 0 6.43-3.8 10.9-9.85l0.76 0.56c-4.77 6.45-8.2 10.19-11.65 10.24z" class="cls-12" transform="translate(20.86 -.84)" fill="#231f20"/>
   <polygon points="53.36 611.86 64.78 608 73.83 615.95 71.47 627.77 60.05 631.63 51 623.68" fill="#f2ba31" class="cls-13"/>
   <rect class="cls-14" height="47.27" width="52" y="484.46" x="467.63" fill="#6e7a82"/>
   <rect class="cls-7" height="6.3" width="6.3" y="493.59" x="494.74" fill="#e8f6fb"/>
   <rect class="cls-7" height="5.04" width="5.04" y="491.7" x="488.12" fill="#e8f6fb"/>
   <rect class="cls-15" height="1.58" width="84.46" y="483.51" x="459.13" fill="#97d8e6"/>
   <polygon points="519.95 518.81 459.15 472.79 456.29 548.43 519.95 532.04" fill="#62c1ed" class="cls-16"/>
   <g fill="#e8f6fb">
    <rect class="cls-7" height="6.93" width="6.93" y="483.51" x="376.24"/>
    <rect class="cls-7" height="6.93" width="6.93" y="474.69" x="364.89"/>
    <rect class="cls-7" height="10.09" width="10.09" y="496.75" x="373.72"/>
    <rect class="cls-7" height="3.47" width="3.47" y="471.22" x="369.93"/>
   </g>
   <rect class="cls-15" height="68.07" width="8.51" y="488.87" x="416.26" fill="#97d8e6"/>
   <rect class="cls-15" height="3.47" width="78.47" y="557.57" x="376.24" fill="#97d8e6"/>
   <rect class="cls-7" height="5.04" width="5.04" y="504.94" x="385.38" fill="#e8f6fb"/>
   <rect class="cls-7" height="3.66" width="3.66" y="515.42" x="382.38" fill="#e8f6fb"/>
   <path d="m338 473.64v124.59l102.05 0.21v-124.6zm63.05 86.67-43.81 0.32-0.16-42.55 43.81-0.32z" class="cls-17" transform="translate(20.86 -.84)" fill="#5aa4da"/>
   <polygon points="361.11 577.74 357.96 577.74 357.8 472.71 361.11 473.11" fill="#62c1ed" class="cls-16"/>
   <polygon points="521.53 517.86 519.03 517.86 459.15 472.79 461.65 472.79" fill="#97d8e6" class="cls-15"/>
   <g fill="#e8f6fb">
    <rect class="cls-7" height="6.3" width="6.3" y="463.97" x="362.37"/>
    <rect class="cls-7" height="6.3" width="6.3" y="453.25" x="364.89"/>
    <rect class="cls-7" height="3.78" width="3.78" y="444.43" x="372.46"/>
    <rect class="cls-7" height="3.78" width="3.78" y="433.71" x="365.52"/>
    <rect class="cls-7" height="5.04" width="5.04" y="424.26" x="359.22"/>
    <rect class="cls-7" height="4.41" width="4.41" y="411.65" x="353.55"/>
    <rect class="cls-7" height="5.04" width="5.04" y="401.57" x="361.74"/>
    <rect class="cls-7" height="3.78" width="3.78" y="392.11" x="369.93"/>
    <rect class="cls-7" height="4.41" width="4.41" y="382.66" x="374.98"/>
    <rect class="cls-7" height="3.15" width="3.15" y="372.57" x="378.13"/>
    <rect class="cls-7" height="2.52" width="2.52" y="363.12" x="376.87"/>
    <rect class="cls-7" height="1.89" width="1.89" y="354.29" x="373.09"/>
    <rect class="cls-7" height="7.09" width="7.09" y="519.6" x="386.84"/>
    <rect class="cls-7" height="3.15" width="3.15" y="461.13" x="369.93"/>
    <rect class="cls-7" height="10.4" width="10.4" y="359.34" x="201.64"/>
    <rect class="cls-7" height="8.51" width="8.51" y="463.34" x="299.97"/>
    <rect class="cls-7" height="21.75" width="21.75" y="334.75" x="115.6"/>
    <rect class="cls-7" height="10.4" width="10.4" y="361.23" x="35.23"/>
    <rect class="cls-7" height="4.73" width="4.73" y="467.12" x="484.02"/>
    <rect class="cls-7" height="3.15" width="3.15" y="483.19" x="492.85"/>
    <rect class="cls-7" height="4.73" width="4.73" y="477.21" x="484.97"/>
    <rect class="cls-7" height="3.47" width="3.47" y="471.85" x="490.01"/>
    <rect class="cls-7" height="6.93" width="6.93" y="458.93" x="479.3"/>
    <rect class="cls-7" height="3.47" width="3.47" y="477.21" x="491.59"/>
    <rect class="cls-7" height="2.84" width="2.84" y="486.66" x="488.75"/>
    <rect class="cls-7" height="9.14" width="9.14" y="446.95" x="480.24"/>
    <rect class="cls-7" height="6.3" width="6.3" y="438.13" x="477.72"/>
    <rect class="cls-7" height="2.21" width="2.21" y="448.84" x="493.16"/>
    <rect class="cls-7" height="3.47" width="3.47" y="453.88" x="471.1"/>
    <rect class="cls-7" height="6.62" width="6.62" y="439.07" x="465.74"/>
   </g>
   <polygon points="461.17 474.13 361.03 474.37 357.8 472.71 459.15 472.79" fill="#97d8e6" class="cls-15"/>
   <g stroke="#231f20" stroke-width="0.95px" stroke-miterlimit="10">
    <path d="m395.46 575.55-8.68-8c7.76-10.48 7.56-13.2 8.32-24.24h3.26c8.8 12.93 8.38 19.54-2.9 32.24z" class="cls-18" transform="translate(20.86 -.84)" fill="#84b7e3"/>
    <path d="m406.68 577.72h-20.05a0.55 0.55 0 0 1 -0.37 -0.14l-19-17.34a0.55 0.55 0 0 1 0.37 -1h20.06a0.55 0.55 0 0 1 0.37 0.14l19 17.34a0.55 0.55 0 0 1 -0.38 1z" class="cls-19" transform="translate(20.86 -.84)" fill="#fff"/>
    <path d="m389.67 537.16c0-3.92 2.09-7.27 5.79-7.27s6.15 3.18 6.15 7.09a6.9 6.9 0 0 1 -6.69 7.09c-3.7 0.01-5.25-2.99-5.25-6.91z" class="cls-19" transform="translate(20.86 -.84)" fill="#fff"/>
   </g>
   <path d="m393.74 569.57-0.19-1.07c2.74-0.49 4.63-1.59 5.8-3.37 2-3.07 2-8.14-0.08-16.95l1.06-0.25c2.15 9.12 2.13 14.45-0.06 17.79-1.35 2.05-3.48 3.28-6.53 3.85z" class="cls-12" transform="translate(20.86 -.84)" fill="#231f20"/>
   <polygon stroke="#231f20" points="405.69 558.54 413.89 566.62 410.1 567.43 401.41 558.61" stroke-miterlimit="10" stroke-width="0.95px" class="cls-20" fill="none"/>
   <ellipse rx="2.21" transform="rotate(-51.12 387.53 542.35)" ry="4.29" cy="564.58" cx="377.99" class="cls-21" fill="#181818"/>
   <ellipse rx="1.09" ry="1.99" class="cls-12" cy="535.73" cx="415.77" fill="#231f20"/>
   <path d="m377.91 564.73a4.1 4.1 0 0 1 -1.13 -1.69 1.08 1.08 0 0 1 -0.07 -0.47l0.32-4.88 2.65 1.66-0.16 4.63a1 1 0 0 1 -1.61 0.75z" transform="translate(20.86 -.84)"/>
   <ellipse rx="1.09" ry="1.99" class="cls-12" cy="535.46" cx="411.97" fill="#231f20"/>
   <path d="m391.84 541a2.19 2.19 0 0 0 2.53 -0.09" class="cls-22" transform="translate(20.86 -.84)" stroke="#231f20" stroke-miterlimit="10" stroke-width=".47px" fill="none"/>
   <path d="m394.46 569.13a3.1 3.1 0 0 1 -3.05 2.6c-0.34 0 0.43-1.11 0.14-1.15s-1.3 1.09-1.54 1 0.5-1.33 0.32-1.54-1.22 1.19-1.22 0.81a2.55 2.55 0 0 1 2.78 -2.8c1.62-0.05 2.57-0.05 2.57 1.08z" class="cls-23" transform="translate(20.86 -.84)" stroke="#231f20" stroke-miterlimit="10" stroke-width="0.71px" fill="#fff"/>
   <polygon points="394.25 554.45 392.8 533.11 394.61 532.75 408.72 545.41 408.35 567.11 406.55 567.47"/>
   <rect class="cls-7" height="3.39" width="3.39" y="536.93" x="390.34" fill="#e8f6fb"/>
   <polygon points="406.55 567.47 392.44 554.81 392.8 533.11 406.91 545.77" fill="#3a3a3a" class="cls-24"/>
   <g stroke="#231f20" stroke-miterlimit="10">
    <path d="m394.6 549.55c-1.82 6.21-4.24 10.4-7.46 11.87" class="cls-20" transform="translate(20.86 -.84)" stroke-width="0.95px" fill="none"/>
    <path d="m389.65 571s-6.44 0.55-8.41 1.36c-1.49 0.61-1.36 15.06-1.36 15.06" class="cls-22" transform="translate(20.86 -.84)" stroke-width=".47px" fill="none"/>
    <polygon points="391.17 580.11 389.07 580.11 389.07 560.65 390.7 562.13" stroke-width="0.95px" class="cls-19" fill="#fff"/>
    <rect class="cls-19" height="14.58" width="2.1" y="576.79" x="407.99" stroke-width="0.95px" fill="#fff"/>
   </g>
   <rect class="cls-17" height="38.45" width="39.71" y="625.33" x="201.01" fill="#5aa4da"/>
   <polygon points="259 653.7 192.18 626.59 215.51 603.27 282.32 630.37" fill="#97d8e6" class="cls-15"/>
   <polygon points="292.4 628.48 279.8 631.63 216.14 603.27 238.2 603.27" fill="#96a7af" class="cls-25"/>
   <path d="m394.58 578.23c0.9-0.76 4.67-21.18 39.71-52 11.12-9.79 46.11-0.94 60.51-11.35 11.39-8.23-5.7-40.73 4.73-50.11 9-8.11 25.65-1.5 32.15-9.45s2.84-30.47 12.29-35.93c36.57-21.12 19.86 287.48-5 289.7-105.97 9.46-329.07 22.48-345.78 23.25-25 1.16-89.69 3.23-105.89-1.89-9.54-3 18.27-58 20.8-60.51 7.82-7.82 32.63-10.51 63.35-16.07 6.4-1.16 13-10.78 19.86-11.35 45.38-3.78 22.69-35 61.46-31.2 11.41 1.11 0-22.41 22.69-30.26 42.79-14.77 106.83 7.57 119.12-2.83z" class="cls-26" transform="translate(20.86 -.84)" fill="#fec45f"/>
   <g fill="#e8f6fb">
    <rect class="cls-7" height="5.04" width="5.04" y="527.95" x="382.7"/>
    <rect class="cls-7" height="2.68" width="2.68" y="532.99" x="388.53"/>
    <rect class="cls-7" height="2.68" width="2.68" y="528.66" x="392.86"/>
   </g>
   <polygon points="251.43 598.86 240.72 595.08 240.72 578.69 251.43 578.69" fill="#62c1ed" class="cls-16"/>
   <polygon points="264.67 593.82 251.43 598.86 251.43 578.69 265.3 573.01" fill="#5aa4da" class="cls-17"/>
   <polygon points="267.82 571.12 253.1 583.97 235.05 579.95 249.77 567.1" fill="#97d8e6" class="cls-15"/>
   <g fill="#e8f6fb">
    <rect class="cls-7" height="6.15" width="6.15" y="566.4" x="247.49"/>
    <rect class="cls-7" height="3.78" width="3.78" y="554.11" x="256.16"/>
    <rect class="cls-7" height="4.73" width="4.73" y="559.31" x="252.22"/>
    <rect class="cls-7" height="4.73" width="4.73" y="547.01" x="253.17"/>
    <rect class="cls-7" height="4.25" width="4.25" y="542.76" x="248.91"/>
    <rect class="cls-7" height="3.78" width="3.78" y="538.03" x="250.02"/>
    <rect class="cls-7" height="3.43" width="3.43" y="533.3" x="248.36"/>
    <rect class="cls-7" height="3.31" width="3.31" y="528.46" x="249.9"/>
    <rect class="cls-7" height="3.31" width="3.31" y="524.44" x="253.09"/>
    <rect class="cls-7" height="3.23" width="3.23" y="520.58" x="256.16"/>
    <rect class="cls-7" height="2.92" width="2.92" y="516.76" x="258.41"/>
    <rect class="cls-7" height="2.92" width="2.92" y="512.98" x="257.46"/>
    <rect class="cls-7" height="2.44" width="2.44" y="509.67" x="255.81"/>
    <rect class="cls-7" height="2.13" width="2.13" y="506.75" x="254"/>
    <rect class="cls-7" height="1.81" width="1.81" y="504.39" x="252.97"/>
    <rect class="cls-7" height="1.81" width="1.81" y="502.1" x="251.32"/>
    <rect class="cls-7" height="1.42" width="1.42" y="500.09" x="249.86"/>
    <rect class="cls-7" height="1.42" width="1.42" y="497.98" x="249.44"/>
    <rect class="cls-7" height="1.14" width="1.14" y="496.38" x="250.33"/>
    <rect class="cls-7" height="0.98" width="0.98" y="495.13" x="251.12"/>
    <rect class="cls-7" height="0.79" width="0.79" y="494.15" x="252.32"/>
    <rect transform="rotate(180 292.38 532.78)" height="3.94" width="3.94" y="531.23" x="279.98" class="cls-7"/>
    <rect transform="rotate(180 287.58 524.14)" height="2.42" width="2.42" y="523.35" x="275.94" class="cls-7"/>
    <rect transform="rotate(180 289.8 527.78)" height="3.03" width="3.03" y="526.69" x="277.86" class="cls-7"/>
    <rect transform="rotate(180 289.2 519.9)" height="3.03" width="3.03" y="518.81" x="277.25" class="cls-7"/>
    <rect transform="rotate(180 292.08 517.02)" height="2.73" width="2.73" y="516.08" x="280.28" class="cls-7"/>
    <rect transform="rotate(180 291.52 513.84)" height="2.42" width="2.42" y="513.05" x="279.88" class="cls-7"/>
    <rect transform="rotate(180 292.7 510.7)" height="2.2" width="2.2" y="510.02" x="281.17" class="cls-7"/>
    <rect transform="rotate(180 291.74 507.55)" height="2.12" width="2.12" y="506.91" x="280.26" class="cls-7"/>
    <rect transform="rotate(180 289.7 504.98)" height="2.12" width="2.12" y="504.34" x="278.21" class="cls-7"/>
    <rect transform="rotate(180 287.76 502.48)" height="2.07" width="2.07" y="501.86" x="276.29" class="cls-7"/>
    <rect transform="rotate(180 286.42 499.92)" height="1.87" width="1.87" y="499.41" x="275.05" class="cls-7"/>
    <rect transform="rotate(180 287.02 497.5)" height="1.87" width="1.87" y="496.99" x="275.66" class="cls-7"/>
    <rect transform="rotate(180 288.24 495.23)" height="1.57" width="1.57" y="494.87" x="277.02" class="cls-7"/>
    <rect transform="rotate(180 289.5 493.26)" height="1.36" width="1.36" y="493" x="278.39" class="cls-7"/>
    <rect transform="rotate(180 290.26 491.64)" height="1.16" width="1.16" y="491.48" x="279.25" class="cls-7"/>
    <rect transform="rotate(180 291.32 490.18)" height="1.16" width="1.16" y="490.02" x="280.31" class="cls-7"/>
    <rect transform="rotate(180 292.38 488.76)" height="0.91" width="0.91" y="488.73" x="281.49" class="cls-7"/>
    <rect transform="rotate(180 292.65 487.4)" height="0.91" width="0.91" y="487.37" x="281.77" class="cls-7"/>
    <rect transform="rotate(180 292.16 486.3)" height="0.73" width="0.73" y="486.35" x="281.37" class="cls-7"/>
    <rect transform="rotate(180 291.71 485.44)" height=".63" width=".63" y="485.55" x="280.96" class="cls-7"/>
    <rect transform="rotate(180 291 484.75)" height="0.51" width="0.51" y="484.92" x="280.32" class="cls-7"/>
    <rect transform="rotate(180 316.64 508.2)" height="3.94" width="3.94" y="506.65" x="304.25" class="cls-7"/>
    <rect transform="rotate(180 311.84 499.56)" height="2.42" width="2.42" y="498.77" x="300.21" class="cls-7"/>
    <rect transform="rotate(180 314.07 503.2)" height="3.03" width="3.03" y="502.1" x="302.13" class="cls-7"/>
    <rect transform="rotate(180 313.46 495.32)" height="3.03" width="3.03" y="494.22" x="301.52" class="cls-7"/>
    <rect transform="rotate(180 316.34 492.44)" height="2.73" width="2.73" y="491.5" x="304.55" class="cls-7"/>
    <rect transform="rotate(180 315.78 489.26)" height="2.42" width="2.42" y="488.47" x="304.15" class="cls-7"/>
    <rect transform="rotate(180 316.96 486.12)" height="2.2" width="2.2" y="485.44" x="305.43" class="cls-7"/>
    <rect transform="rotate(180 316.02 482.97)" height="2.12" width="2.12" y="482.33" x="304.52" class="cls-7"/>
    <rect transform="rotate(180 313.97 480.4)" height="2.12" width="2.12" y="479.75" x="302.48" class="cls-7"/>
    <rect transform="rotate(180 312.02 477.9)" height="2.07" width="2.07" y="477.28" x="300.56" class="cls-7"/>
    <rect transform="rotate(180 310.68 475.34)" height="1.87" width="1.87" y="474.83" x="299.32" class="cls-7"/>
    <rect transform="rotate(180 311.29 472.92)" height="1.87" width="1.87" y="472.41" x="299.93" class="cls-7"/>
    <rect transform="rotate(180 312.5 470.64)" height="1.57" width="1.57" y="470.28" x="301.29" class="cls-7"/>
    <rect transform="rotate(180 313.76 468.68)" height="1.36" width="1.36" y="468.42" x="302.66" class="cls-7"/>
    <rect transform="rotate(180 314.52 467.06)" height="1.16" width="1.16" y="466.9" x="303.51" class="cls-7"/>
    <rect transform="rotate(180 315.58 465.6)" height="1.16" width="1.16" y="465.44" x="304.57" class="cls-7"/>
    <rect transform="rotate(180 316.64 464.18)" height="0.91" width="0.91" y="464.15" x="305.76" class="cls-7"/>
    <rect transform="rotate(180 316.92 462.82)" height="0.91" width="0.91" y="462.79" x="306.03" class="cls-7"/>
    <rect transform="rotate(180 316.43 461.72)" height="0.73" width="0.73" y="461.77" x="305.64" class="cls-7"/>
    <rect transform="rotate(180 315.98 460.86)" height=".63" width=".63" y="460.97" x="305.23" class="cls-7"/>
    <rect transform="rotate(180 315.27 460.16)" height="0.51" width="0.51" y="460.33" x="304.59" class="cls-7"/>
   </g>
   <g stroke="#e8f6fb" stroke-width="1.89px" stroke-miterlimit="10" fill="none">
    <path d="m95.06 635-0.52-0.79" class="cls-27" transform="translate(20.86 -.84)"/>
    <path d="m93.56 632.56c-13.07-23.06 13.38-35.07 3.56-48.79-6-8.32-12.8-28.47-3-36.27" class="cls-28" transform="translate(20.86 -.84)" stroke-dasharray="1.92, 1.92"/>
    <path d="m94.89 546.94q0.39-0.26 0.8-0.5" class="cls-27" transform="translate(20.86 -.84)"/>
    <g stroke-dasharray="1.89">
     <path d="m117 607.66c0-4.73-5.2-7.8-5-15.84 0.27-9.17 16.07-21.51 9.22-27.18" class="cls-6" transform="translate(20.86 -.84)"/>
     <path d="m51 592.29c-20.09-35.93 21.27-32.15-1.65-57.2" class="cls-6" transform="translate(20.86 -.84)"/>
     <path d="m147.38 585.83c-13.24-18.59 14.81-41 0.63-51.69" class="cls-6" transform="translate(20.86 -.84)"/>
    </g>
   </g>
   <rect class="cls-7" height="17.96" width="17.96" y="378.25" x="71.16" fill="#e8f6fb"/>
   <rect class="cls-13" height="17.02" width="17.02" y="401.88" x="230.95" fill="#f2ba31"/>
   <polygon points="63.15 434.6 63.29 434.6 63.29 434.53 63.52 434.53 63.52 434.62 63.61 434.62 63.61 434.43 63.97 434.43 63.97 434.45 64.16 434.45 64.16 434.35 64.47 434.35 64.47 434.63 64.52 434.63 64.52 434.25 65.05 434.25 65.05 434.48 65.34 434.48 65.34 433.98 66.05 433.98 66.05 433.45 67.2 433.45 67.2 433.87 67.7 433.87 67.7 432.85 69.9 432.85 69.9 433.79 70.3 433.79 70.3 432.77 72.58 432.77 72.58 434.5 73.05 434.5 73.05 432.3 76.36 432.3 76.36 430.4 80.93 430.4 80.93 432.77 83.61 432.77 83.61 431.04 84.87 431.04 84.87 427.25 89.6 427.25 89.6 428.83 92.44 428.83 92.44 427.57 99.05 427.57 99.05 420.95 111.82 420.95 111.82 421.42 120.33 421.42 120.33 422.37 130.25 422.37 130.25 418.59 138.29 418.59 138.29 406.3 152.95 406.3 152.95 405.82 163.82 405.82 163.82 399.68 192.18 399.68 192.18 407.24 210.15 407.24 210.15 399.68 223.38 399.68 223.38 395.89 242.29 395.89 242.29 391.17 271.61 391.17 271.61 414.81 278.22 414.81 278.22 410.08 282 410.08 282 390.22 299.02 390.22 299.02 379.82 303.75 379.82 303.75 364.69 330.22 364.69 330.22 341.06 363.32 341.06 363.32 330.66 407.75 330.66 407.75 323.09 444.63 323.09 444.63 316.48 492.85 316.48 492.85 324.98 533.03 324.98 533.03 321.68 581.25 321.68 581.25 333.49 588.34 333.49 588.34 381.71 581.72 381.71 581.72 396.84 606.3 396.84 606.3 445.06 575.1 445.06 558.09 445.06 557.14 445.06 557.14 493.28 508.92 493.28 508.92 467.75 466.37 467.75 466.37 459.24 443.68 459.24 443.68 489.5 406.81 489.5 406.81 458.3 389.79 458.3 389.79 459.24 352.92 459.24 352.92 422.37 347.24 422.37 347.24 428.04 333.06 428.04 333.06 449.79 308.48 449.79 308.48 439.39 288.62 439.39 288.62 470.59 254.59 470.59 254.59 446 226.22 446 226.22 432.77 225.28 432.77 225.28 439.39 206.37 439.39 206.37 435.61 204.47 435.61 204.47 439.39 181.78 439.39 181.78 428.04 171.38 428.04 171.38 436.55 151.53 436.55 151.53 432.77 139.71 432.77 139.71 430.88 131.67 430.88 131.67 435.13 123.64 435.13 123.64 443.17 109.45 443.17 109.45 439.39 108.04 439.39 108.04 441.28 97.16 441.28 97.16 439.07 90.23 439.07 90.23 438.13 86.45 438.13 86.45 441.28 81.72 441.28 81.72 438.28 78.88 438.28 78.88 437.5 75.73 437.5 75.73 435.92 74.23 435.92 74.23 437.42 71.32 437.42 71.32 436.24 69.03 436.24 69.03 435.05 68.25 435.05 68.25 435.68 66.44 435.68 66.44 435.13 65.84 435.13 65.84 434.9 65.55 434.9 65.55 435.07 64.96 435.07 64.96 434.78 64.52 434.78 64.52 434.99 64.16 434.99 64.16 434.79 64.12 434.79 64.12 434.93 63.8 434.93 63.8 434.78 63.72 434.78 63.72 434.86 63.48 434.86 63.48 434.76 63.33 434.76 63.33 434.81 63.12 434.81 63.12 434.68 63.1 434.68 63.1 434.76 62.91 434.76 62.91 434.75 62.83 434.75 62.83 434.78 62.74 434.78 62.74 434.71 62.67 434.71 62.67 434.63 62.76 434.63 62.76 434.69 62.81 434.69 62.81 434.61 62.91 434.61 62.91 434.58 62.98 434.58 62.98 434.5 63.15 434.5" fill="url(#c)" class="cls-29"/>
   <g fill="#f2ba31">
    <rect transform="rotate(180 522.76 466.91)" height="37.82" width="37.82" y="448.42" x="493.42" class="cls-13"/>
    <rect transform="rotate(180 415.92 471.32)" height="28.36" width="28.36" y="457.56" x="391.31" class="cls-13"/>
    <rect transform="rotate(180 474.54 457.46)" height="18.28" width="18.28" y="448.74" x="454.97" class="cls-13"/>
    <rect transform="rotate(180 570.98 431.24)" height="39.71" width="39.71" y="411.81" x="540.7" class="cls-13"/>
    <rect transform="rotate(180 556.16 359.44)" height="35.3" width="35.3" y="342.21" x="528.09" class="cls-13"/>
    <rect transform="rotate(180 494.71 380.56)" height="39.71" width="39.71" y="361.12" x="464.43" class="cls-13"/>
    <rect transform="rotate(180 459.41 341.48)" height="35.93" width="35.93" y="323.93" x="431.02" class="cls-13"/>
    <rect transform="rotate(180 434.83 417.12)" height="44.75" width="44.75" y="395.16" x="402.02" class="cls-13"/>
    <rect transform="rotate(180 513.3 418.06)" height="44.12" width="44.12" y="396.42" x="480.81" class="cls-13"/>
    <rect transform="rotate(180 511.42 348.1)" height="34.04" width="34.04" y="331.5" x="483.97" class="cls-13"/>
    <rect transform="rotate(180 429.16 381.82)" height="29.63" width="29.63" y="367.43" x="403.92" class="cls-13"/>
    <rect transform="rotate(180 379.36 427.2)" height="37.19" width="37.19" y="409.03" x="350.34" class="cls-13"/>
    <rect transform="rotate(180 391.97 379.92)" height="30.89" width="30.89" y="364.91" x="366.1" class="cls-13"/>
    <rect transform="rotate(180 419.38 344.94)" height="23.95" width="23.95" y="333.39" x="396.98" class="cls-13"/>
    <rect transform="rotate(180 351.31 388.75)" height="21.43" width="21.43" y="378.46" x="330.17" class="cls-13"/>
    <rect transform="rotate(180 371.48 352.82)" height="28.99" width="28.99" y="338.75" x="346.56" class="cls-13"/>
    <rect transform="rotate(180 327.36 410.18)" height="16.39" width="16.39" y="402.41" x="308.74" class="cls-13"/>
    <rect transform="rotate(180 337.76 359.44)" height="27.1" width="27.1" y="346.31" x="313.78" class="cls-13"/>
    <rect transform="rotate(180 315.7 380.24)" height="23.32" width="23.32" y="369" x="293.61" class="cls-13"/>
    <rect transform="rotate(180 310.34 436.66)" height="16.39" width="16.39" y="428.88" x="291.72" class="cls-13"/>
    <rect transform="rotate(180 304.98 407.98)" height="23.32" width="23.32" y="396.74" x="282.89" class="cls-13"/>
    <rect transform="rotate(180 286.08 403.56)" height="17.02" width="17.02" y="395.48" x="267.14" class="cls-13"/>
    <rect transform="rotate(180 284.5 424.68)" height="17.65" width="17.65" y="416.28" x="265.25" class="cls-13"/>
    <rect transform="rotate(180 260.23 453.99)" height="23.32" width="23.32" y="442.75" x="238.14" class="cls-13"/>
    <rect transform="rotate(180 262.75 428.14)" height="15.76" width="15.76" y="420.69" x="244.44" class="cls-13"/>
    <rect transform="rotate(180 247 406.72)" height="19.54" width="19.54" y="397.37" x="226.8" class="cls-13"/>
    <rect transform="rotate(180 230.29 430.98)" height="18.91" width="18.91" y="421.95" x="210.41" class="cls-13"/>
    <rect transform="rotate(180 222.41 407.34)" height="14.5" width="14.5" y="400.52" x="204.73" class="cls-13"/>
    <rect transform="rotate(180 204.44 428.46)" height="13.87" width="13.87" y="421.95" x="187.09" class="cls-13"/>
    <rect transform="rotate(180 206.02 410.5)" height="9.45" width="9.45" y="406.19" x="190.87" class="cls-13"/>
    <rect transform="rotate(180 184.28 430.36)" height="12.61" width="12.61" y="424.47" x="167.55" class="cls-13"/>
    <rect transform="rotate(180 192.47 416.48)" height="6.3" width="6.3" y="413.75" x="178.89" class="cls-13"/>
    <rect transform="rotate(180 179.24 417.12)" height="8.82" width="8.82" y="413.12" x="164.39" class="cls-13"/>
    <rect transform="rotate(180 484.94 412.7)" height="36.56" width="36.56" y="394.85" x="456.23" class="cls-13"/>
    <rect transform="rotate(180 358.88 442.96)" height="21.43" width="21.43" y="432.66" x="337.73" class="cls-13"/>
    <rect transform="rotate(180 450.28 366.06)" height="22.69" width="22.69" y="355.14" x="428.5" class="cls-13"/>
    <rect transform="rotate(180 544.5 386.54)" height="29.63" width="29.63" y="372.15" x="519.26" class="cls-13"/>
    <rect transform="rotate(180 546.71 333.6)" height="32.15" width="32.15" y="317.95" x="520.21" class="cls-13"/>
    <rect transform="rotate(180 167.1 421.84)" height="8.51" width="8.51" y="418.01" x="152.42" class="cls-13"/>
    <rect transform="rotate(180 176.08 405.77)" height="7.56" width="7.56" y="402.41" x="161.87" class="cls-13"/>
    <rect transform="rotate(180 161.43 408.14)" height="9.45" width="9.45" y="403.83" x="146.27" class="cls-13"/>
    <rect transform="rotate(180 154.34 429.88)" height="8.51" width="8.51" y="426.05" x="139.65" class="cls-13"/>
    <rect transform="rotate(180 156.94 418.3)" height="5.2" width="5.2" y="416.12" x="143.91" class="cls-13"/>
    <rect transform="rotate(180 145.36 413.8)" height="11.35" width="11.35" y="408.55" x="129.25" class="cls-13"/>
    <rect transform="rotate(180 145.36 431.77)" height="3.78" width="3.78" y="430.3" x="133.04" class="cls-13"/>
    <rect transform="rotate(180 144.41 423.74)" height="3.78" width="3.78" y="422.26" x="132.09" class="cls-13"/>
    <rect transform="rotate(180 134.96 427.52)" height="6.62" width="6.62" y="424.63" x="121.22" class="cls-13"/>
    <rect transform="rotate(180 134.48 412.86)" height="6.62" width="6.62" y="409.97" x="120.74" class="cls-13"/>
    <rect transform="rotate(180 125.97 425.16)" height="4.73" width="4.73" y="423.21" x="113.18" class="cls-13"/>
    <rect transform="rotate(180 135.9 419.48)" height="3.78" width="3.78" y="418.01" x="123.58" class="cls-13"/>
    <rect transform="rotate(180 118.17 432.01)" height="4.25" width="4.25" y="430.3" x="105.62" class="cls-13"/>
    <rect transform="rotate(180 111.32 427.52)" height="3.78" width="3.78" y="426.05" x="99" class="cls-13"/>
    <rect transform="rotate(180 119.82 426.1)" height="2.84" width="2.84" y="425.1" x="107.98" class="cls-13"/>
    <rect transform="rotate(180 108.72 434.37)" height="5.2" width="5.2" y="432.19" x="95.69" class="cls-13"/>
    <rect transform="rotate(180 102.34 427.99)" height="4.73" width="4.73" y="426.05" x="89.54" class="cls-13"/>
    <rect transform="rotate(180 102.81 440.28)" height="2.84" width="2.84" y="439.28" x="90.96" class="cls-13"/>
    <rect transform="rotate(180 95.01 424.92)" height="5.2" width="5.2" y="422.74" x="81.98" class="cls-13"/>
    <rect transform="rotate(180 98.08 433.66)" height="3.78" width="3.78" y="432.19" x="85.76" class="cls-13"/>
    <rect transform="rotate(180 90.755 437.68)" height="3.31" width="3.31" y="436.45" x="78.67" class="cls-13"/>
   </g>
   <line stroke-width="1.89px" y2="549.85" x2="44.22" stroke="#ffebc0" stroke-miterlimit="10" y1="660.94" x1="45.63" class="cls-30" fill="#f3fafd"/>
   <g stroke="#231f20" stroke-width="0.95px" stroke-miterlimit="10" fill="none">
    <polyline points="342.8 548.08 344.36 566.8 341.5 588.11" class="cls-20"/>
    <polyline points="363.59 546.26 370.35 562.12 373.73 584.21" class="cls-20"/>
    <path d="m330.52 508.37c10.59 3.6 20.75-2.32 30.41-19" class="cls-20" transform="translate(20.86 -.84)"/>
   </g>
   <path d="m27.6 621.42c-5.68 0-11.56-3.67-15.21-9.82l0.81-0.48c4.23 7.12 11.56 10.76 17.8 8.88l-0.18 0.93a9.79 9.79 0 0 1 -3.22 0.49z" class="cls-12" transform="translate(20.86 -.84)" fill="#231f20"/>
   <polygon points="380.86 482.8 387.89 478.04 395.88 482.26 396.83 491.25 389.8 496.01 381.81 491.78" fill="#f2ba31" class="cls-13"/>
   <polygon stroke="#f8bacd" points="367.23 546.52 340.46 549.38 338.64 502.33 350.33 503.11" stroke-miterlimit="10" stroke-width="0.95px" class="cls-31" fill="#f69d9f"/>
   <path d="m227.43 556.37h-0.16c-2.9-0.48-6.21-0.79-9.4-1.09s-6.57-0.61-9.54-1.1c-2.61-0.43-5.57-0.93-8-2.69a16.84 16.84 0 0 1 -4.4 -5.64c-7.55-13.48-10.89-27.74-13.91-42.38a0.95 0.95 0 1 1 1.85 -0.38c3 14.49 6.28 28.59 13.7 41.84a15.33 15.33 0 0 0 3.88 5c2 1.49 4.74 1.94 7.14 2.34 2.9 0.48 6.21 0.79 9.4 1.09s6.57 0.61 9.54 1.1a0.95 0.95 0 0 1 -0.15 1.88z" class="cls-12" transform="translate(20.86 -.84)" fill="#231f20"/>
   <path d="m92.65 524.84a10.57 10.57 0 0 0 -6.11 -1.07c-2 0.26-4.22 1.1-6.05 0.17a3.46 3.46 0 0 0 -1.54 -0.62 3 3 0 0 0 2.25 4.44c0.66 0 1.56-0.09 1.74 0.55a4.41 4.41 0 0 1 -2.9 0.83c3.79 4.7 8.03 2.69 12.61-4.3z" class="cls-32" transform="translate(20.86 -.84)" fill="#e7e8e9"/>
   <path d="m84.4 532.63c-1.83 0-3.54-1-5.1-2.91l-1.37-1.72 1.44 0.11a4 4 0 0 1 -1.37 -1.53 3.66 3.66 0 0 1 0.18 -3.82l0.27-0.38h0.47a3.14 3.14 0 0 1 1.67 0.55l0.32 0.18c1.1 0.56 2.48 0.29 3.93 0 0.53-0.1 1.06-0.2 1.57-0.27a11.55 11.55 0 0 1 6.67 1.16l0.94 0.48-0.58 0.88c-3.11 4.75-6 7.13-8.78 7.27zm-2.4-2.81a3.72 3.72 0 0 0 2.54 0.92c2-0.1 4.2-1.94 6.67-5.49a9.68 9.68 0 0 0 -4.58 -0.54c-0.48 0.06-1 0.16-1.45 0.25-1.63 0.31-3.47 0.67-5.15-0.18l-0.41-0.23-0.18-0.1a2.12 2.12 0 0 0 0.23 1.27 1.81 1.81 0 0 0 1.51 1.08h0.21c0.67 0 2.08 0 2.44 1.24l0.18 0.63-0.53 0.39a5.29 5.29 0 0 1 -1.48 0.76z" class="cls-12" transform="translate(20.86 -.84)" fill="#231f20"/>
   <path d="m412.11 737.74c0.68 1.85 44.52 2.9 75.64 3.15-37.69-47.11-37.69-103.75-38.82-164.07 0-1.2-26-5.87-28.62-4.85-5.79 2.3-6.28 10.65-8.82 15.76-7.54 15.15-6.87 30.67-10.09 47.27-6.4 33.2-0.93 70.93 10.71 102.74z" class="cls-33" transform="translate(20.86 -.84)" stroke="#81d4f7" stroke-miterlimit="10" stroke-width="1.89px" fill="#4f5c68"/>
   <path d="m145.09 669.7c0 1.11-11.12 1.3-12.88 1.3s-3.19-0.9-3.19-2-0.34-4.14 1.42-4.14 14.65 3.74 14.65 4.84z" class="cls-16" transform="translate(20.86 -.84)" fill="#62c1ed"/>
   <path d="m229.24 655.4c0 1.7-13.48 2.13-15.25 2.13a3.13 3.13 0 0 1 -3.19 -3.07c0-1.7-0.82-3.55 0.95-3.55s17.49 4.49 17.49 4.49z" class="cls-16" transform="translate(20.86 -.84)" fill="#62c1ed"/>
   <path d="m141.74 672.08c-1.06 0-2.26 0-3.61-0.08-1.72-0.06-3.49-0.12-4.9-0.06a5.73 5.73 0 0 1 -3.94 -0.86c-1.53-1.22-1.78-3.37-0.76-6.38 1.94-5.7 3.69-11.14 5.38-16.41 2-6.08 4-12.36 6.26-19 4.13-11.94 8.93-27.21 9.4-39.44a1 1 0 0 1 1 -0.91 0.94 0.94 0 0 1 0.91 1c-0.48 12.48-5.33 27.92-9.51 40-2.28 6.59-4.3 12.86-6.25 18.93-1.53 4.77-3.12 9.68-4.84 14.8 1.79 0.58 5.48 1.87 7.6 2.62 8.48 3 8.54 3.28 8.71 3.87a1 1 0 0 1 -0.32 1c-0.87 0.72-2.58 0.92-5.13 0.92zm-7.17-2.08c1.15 0 2.4 0 3.62 0.08 1.67 0.06 3.7 0.12 5.25 0-3.67-1.43-10.75-3.93-13.17-4.7-0.48 1.47-0.82 3.34 0.2 4.15a4.12 4.12 0 0 0 2.67 0.45c0.46 0.02 0.94 0.02 1.43 0.02z" class="cls-12" transform="translate(20.86 -.84)" fill="#231f20"/>
   <path d="m216.17 658.24a5.61 5.61 0 0 1 -4.68 -1.83 7 7 0 0 1 -1.14 -2.51c-1.32-4.5-2.17-14.13-3-23.45-0.74-8.48-1.45-16.5-2.44-20.44-3.26-12.86-4.37-14.59-14.81-23.14a0.95 0.95 0 0 1 1.2 -1.46c10.44 8.54 12 10.44 15.45 24.14 1 4.09 1.74 12.18 2.49 20.74 0.61 7 1.25 14.21 2.07 19.16 1.32 0.24 3.93 1 9.36 2.47 3 0.83 10.18 2.85 11.54 3.52a1 1 0 0 1 0.66 1.33c-0.32 0.85-1 0.89-6.64 1-2.55 0-5.44 0.09-7.23 0.29a26 26 0 0 1 -2.83 0.18zm-4.47-6.77c0.15 0.71 0.3 1.35 0.47 1.91a5.4 5.4 0 0 0 0.81 1.86c1.15 1.44 3.63 1.17 5.81 0.92 1.91-0.21 4.85-0.26 7.44-0.3h1.24c-4.86-1.48-12.71-3.64-15.78-4.39z" class="cls-12" transform="translate(20.86 -.84)" fill="#231f20"/>
   <polygon points="223.38 593.34 162.87 602.33 182.73 494.54 202.59 494.54" fill="#f2ba31" class="cls-13"/>
   <path d="m140.85 604.3 20.24-109.86h21.41l21.16 100.56zm21.81-108-19.47 105.7 58.21-8.64-20.4-97.03z" class="cls-34" transform="translate(20.86 -.84)" fill="#fdf05f"/>
   <circle cy="478.47" cx="191.71" r="24.58" class="cls-32" fill="#e7e8e9"/>
   <path d="m170.85 504.84a25.53 25.53 0 1 1 25.53 -25.53 25.56 25.56 0 0 1 -25.53 25.53zm0-49.17a23.64 23.64 0 1 0 23.64 23.64 23.66 23.66 0 0 0 -23.64 -23.64z" class="cls-12" transform="translate(20.86 -.84)" fill="#231f20"/>
   <path d="m121.48 534.95a26 26 0 0 1 -3.63 -0.25 51.29 51.29 0 0 1 -11.85 -3.7l-9.57-3.85a0.95 0.95 0 0 1 0.71 -1.75l9.57 3.85a49.9 49.9 0 0 0 11.44 3.57c7.94 1.12 17-1.83 24.73-8.1 5.31-4.28 9.25-10.16 13.06-15.85 1.22-1.83 2.49-3.72 3.78-5.53a0.95 0.95 0 1 1 1.54 1.1c-1.28 1.79-2.53 3.67-3.75 5.48-3.89 5.81-7.91 11.81-13.44 16.27-7.07 5.67-15.07 8.76-22.59 8.76z" class="cls-12" transform="translate(20.86 -.84)" fill="#231f20"/>
   <g stroke-miterlimit="10" stroke="#231f20" stroke-width="2.84px" stroke-linecap="round">
    <ellipse rx="31.04" ry="33.09" class="cls-35" cy="551.9" cx="455.5" fill="#e7e8e9"/>
    <path d="m415.26 590.88c-4.41 18.91-6.77 58-0.63 79 0.65 2.21 1.73 4.73 4 5.25 1.88 0.44 3.72-0.76 5.25-1.95a76.14 76.14 0 0 0 18.52 -21" class="cls-36" transform="translate(20.86 -.84)" fill="none"/>
    <path d="m503 637.24c-2.13 12.73-6.86 24.08-12.81 34.58-10.12-6.72-37.32-76-40.37-79.52" class="cls-36" transform="translate(20.86 -.84)" fill="none"/>
   </g>
   <ellipse rx="2.84" transform="rotate(-10.3 434.5 428.19)" ry="8.04" cy="544.07" cx="428.5" class="cls-12" fill="#231f20"/>
   <ellipse rx="2.84" transform="matrix(.99 -.16 .16 .99 -61.91 79.93)" ry="8.04" cy="541.24" cx="447.41" class="cls-12" fill="#231f20"/>
   <path d="m428.74 563.51c2 5.64 10.35 7.69 14.76 3.63" class="cls-37" transform="translate(20.86 -.84)" stroke="#231f20" stroke-linecap="round" stroke-miterlimit="10" stroke-width="1.89px" fill="none"/>
   <path d="m97.55 526.27-9.31 6.62a8.51 8.51 0 0 1 -3.24 1.65c-2 0.37-3.9-0.66-5.48-1.87a22.6 22.6 0 0 1 -5.35 -5.82c1.1-1.16 3.07-0.32 4.25 0.77s2.44 2.49 4 2.29a4.68 4.68 0 0 0 2.19 -1.15 19.7 19.7 0 0 1 6.55 -3.83 10.63 10.63 0 0 1 6.39 1.34z" class="cls-32" transform="translate(20.86 -.84)" fill="#e7e8e9"/>
   <path d="m84.19 535.57a8.78 8.78 0 0 1 -5.19 -2.15 23.42 23.42 0 0 1 -5.58 -6.07l-0.4-0.62 0.51-0.54c1.47-1.55 3.92-0.81 5.58 0.72l0.39 0.36c0.94 0.89 1.91 1.81 2.88 1.68a4 4 0 0 0 1.72 -1 20.33 20.33 0 0 1 6.87 -4h0.17a11.53 11.53 0 0 1 6.86 1.5l1.31 0.73-10.54 7.49a9.29 9.29 0 0 1 -3.59 1.81 5.44 5.44 0 0 1 -0.99 0.09zm-8.6-8.33a21.52 21.52 0 0 0 4.52 4.68c1.83 1.39 3.38 2 4.73 1.69a7.76 7.76 0 0 0 2.85 -1.49l8-5.68a9.67 9.67 0 0 0 -4.31 -0.59 19.09 19.09 0 0 0 -6.14 3.65 5.48 5.48 0 0 1 -2.65 1.34c-1.86 0.23-3.28-1.11-4.42-2.19l-0.37-0.35a3.89 3.89 0 0 0 -2.21 -1.06z" class="cls-12" transform="translate(20.86 -.84)" fill="#231f20"/>
   <path d="m71 530.17c-0.25-0.7 0.9-1 1.61-0.78a25.57 25.57 0 0 1 9.53 4.81 24.17 24.17 0 0 1 -10.85 -3.35" class="cls-32" transform="translate(20.86 -.84)" fill="#e7e8e9"/>
   <path d="m85.07 535.33-3-0.18a25.11 25.11 0 0 1 -11.28 -3.48 12.52 12.52 0 0 0 -0.7 -1.17 1.41 1.41 0 0 1 0.28 -1.46 2.61 2.61 0 0 1 2.46 -0.56 26.61 26.61 0 0 1 9.89 5zm-12.85-5a23.22 23.22 0 0 0 5.95 2.36 24.65 24.65 0 0 0 -5.77 -2.33z" class="cls-12" transform="translate(20.86 -.84)" fill="#231f20"/>
   <path d="m232.08 554.75a25.91 25.91 0 0 0 6.67 -3.55 4 4 0 0 0 1.82 -2.34 2.39 2.39 0 0 0 -2.64 -0.15 8.6 8.6 0 0 1 -2.6 1 6.59 6.59 0 0 1 3.2 -4.59 16 16 0 0 0 2.41 -1.33 2.08 2.08 0 0 0 0.75 -2.43 10.89 10.89 0 0 0 -5.24 1.82 3 3 0 0 0 1.33 -2.13 16.45 16.45 0 0 0 -6.31 2.74 2.93 2.93 0 0 0 0.38 -1.17c-1.51-0.27-2.74 1.24-3.25 2.69a34.17 34.17 0 0 0 -2 7.81c-0.12 3.1 3.03 2.51 5.48 1.63z" class="cls-32" transform="translate(20.86 -.84)" fill="#e7e8e9"/>
   <g fill="#231f20">
    <path d="m228.82 556.4a3.37 3.37 0 0 1 -2.07 -0.59 2.93 2.93 0 0 1 -1.06 -2.69 34.91 34.91 0 0 1 2 -8.08c0.65-1.85 2.29-3.67 4.31-3.31l0.81 0.14a17.45 17.45 0 0 1 4.76 -1.71l1.29-0.26-0.14 1.14a11.78 11.78 0 0 1 2.89 -0.59h0.62l0.29 0.55a3 3 0 0 1 -1 3.61 7.9 7.9 0 0 1 -1.73 1c-0.28 0.13-0.55 0.26-0.82 0.41a5.64 5.64 0 0 0 -2.13 2.19c0.22-0.12 0.45-0.23 0.67-0.33a3.29 3.29 0 0 1 3.7 0.35l0.34 0.35-0.08 0.48a4.87 4.87 0 0 1 -2.19 2.94 26.79 26.79 0 0 1 -6.91 3.68 11 11 0 0 1 -3.55 0.72zm0.33-9.74a30 30 0 0 0 -1.57 6.56c0 0.54 0.07 0.9 0.3 1.07s1.08 0.56 3.88-0.43a24.92 24.92 0 0 0 6.43 -3.42 5.18 5.18 0 0 0 1.17 -1.1 2.75 2.75 0 0 0 -1 0.24c-0.23 0.1-0.45 0.22-0.68 0.34a6 6 0 0 1 -2.22 0.79l-1.22 0.11 0.2-1.2a7.51 7.51 0 0 1 3.66 -5.25c0.3-0.17 0.62-0.33 0.94-0.48a6.41 6.41 0 0 0 1.33 -0.76 1.79 1.79 0 0 0 0.49 -0.65 9.91 9.91 0 0 0 -2.88 1l-1.68-0.48-0.32-0.47a15.56 15.56 0 0 0 -4 2z" class="cls-12" transform="translate(20.86 -.84)"/>
    <ellipse rx="1.81" ry="5.12" class="cls-12" cy="476.5" cx="175.56"/>
    <path d="m152.53 494.38a6.89 6.89 0 0 0 2.29 -0.08 9.74 9.74 0 0 0 2.19 -0.74 21.22 21.22 0 0 0 2.07 -1.16 12.49 12.49 0 0 1 2.15 -1.27 3.83 3.83 0 0 1 -1.46 2.18 8.83 8.83 0 0 1 -2.2 1.45 8 8 0 0 1 -2.59 0.73 5.6 5.6 0 0 1 -2.68 -0.36z" class="cls-12" transform="translate(20.86 -.84)"/>
   </g>
   <g stroke="#231f20" stroke-width="0.95px" stroke-miterlimit="10">
    <path d="m63.23 677.23c0 1.54 0.26 1.87 0.26 3.11l-7.79 0.44c2.09-1.9 7.05-4 7.53-3.55z" class="cls-19" transform="translate(20.86 -.84)" fill="#fff"/>
    <path d="m63.31 658c0 5.09-0.28 13.36-0.4 19.7" class="cls-20" transform="translate(20.86 -.84)" fill="none"/>
    <path d="m80.64 674.55c0.25 1.76 0.15 1.62 0.32 3.07-2.36-0.24-4.95 0-7.33-0.71 1.26-1.38 6.12-2.75 7.01-2.36z" class="cls-19" transform="translate(20.86 -.84)" fill="#fff"/>
    <path d="m77.49 656.11c1 5 2.27 12.55 3.14 18.72" class="cls-20" transform="translate(20.86 -.84)" fill="none"/>
   </g>
   <path d="m60.71 658.24c7.24-0.8 19.41-1.54 19.38-2.13-0.57-12.47 1.12-22.74-2.11-34.8a6.52 6.52 0 0 0 -1.23 -2.74c-8.31-9.28-13 10.22-13.85 14.32-0.52 2.48-2.9 25.43-2.19 25.35z" class="cls-38" transform="translate(20.86 -.84)" stroke="#f2ea5e" stroke-miterlimit="10" stroke-width="0.95px" fill="#cc8250"/>
   <ellipse stroke-linecap="round" rx="10.56" ry="10.52" stroke="#231f20" class="cls-39" cy="605.99" cx="91.81" stroke-miterlimit="10" stroke-width="0.95px" fill="#e7e8e9"/>
   <path d="m53.94 636.76a2.35 2.35 0 0 1 -0.81 -0.14 3.49 3.49 0 0 1 -1.63 -1.47c-0.47-0.71-0.93-1.38-1.39-2a56.54 56.54 0 0 1 -3.53 -5.61l0.83-0.45a55.59 55.59 0 0 0 3.47 5.52c0.46 0.67 0.93 1.34 1.4 2.06a2.66 2.66 0 0 0 1.16 1.1 3 3 0 0 0 2.42 -0.67 40.75 40.75 0 0 0 11.88 -11.58c0.46-0.26 0.66 0.06 0.8 0.51a41.72 41.72 0 0 1 -12.17 11.87 4.73 4.73 0 0 1 -2.43 0.86z" class="cls-12" transform="translate(20.86 -.84)" fill="#231f20"/>
   <ellipse rx="1.18" ry="3.55" class="cls-40" cy="603.03" cx="83.69" fill="#010101"/>
   <path d="m62.89 615.43 2.53-1.88" class="cls-1" transform="translate(20.86 -.84)" fill="none"/>
   <path d="m46.12 620.45c2 1.73 3.18 5.39 1.88 6.89s-6.79-1-8.3-3.71c-0.42-0.77 3.66 1.29 2.73 0.73-0.39-0.24-2.35-2.89-2.15-3.37s3 2.77 3.22 2.4-1.2-3.81-0.87-4.19c0.79-0.91 1.92 4.37 3.26 4.67 0.87 0.19-0.56-4.11 0.23-3.42z" class="cls-19" transform="translate(20.86 -.84)" stroke="#231f20" stroke-miterlimit="10" stroke-width="0.95px" fill="#fff"/>
   <g style="isolation:isolate" class="cls-41">
    <polygon points="319.96 654.41 316.69 629.67 316.62 600.7 319.88 625.43" fill="#89746a" class="cls-42"/>
    <polygon points="319.88 625.43 316.62 600.7 350.58 599.4 353.84 624.14" fill="#dba844" class="cls-43"/>
    <polygon points="353.84 624.14 353.91 653.12 319.96 654.41 319.88 625.43" fill="#86716a" class="cls-44"/>
   </g>
   <ellipse rx="12.13" ry="12.81" stroke="#231f20" class="cls-19" cy="493.51" cx="344.88" stroke-miterlimit="10" stroke-width="0.95px" fill="#fff"/>
   <path d="m326.88 509.67c12.76 10.77 26.34 5.21 40.81-17.94" class="cls-20" transform="translate(20.86 -.84)" stroke="#231f20" stroke-miterlimit="10" stroke-width="0.95px" fill="none"/>
   <ellipse rx="1.7" ry="2.52" transform="rotate(-19.05 332.6 428.61)" cy="491.21" cx="324.71"/>
   <ellipse rx="1.28" ry="2.47" transform="rotate(-23.07 339.98 437.1)" cy="488.62" cx="331.61"/>
   <path d="m326.28 499a11.71 11.71 0 0 0 6.06 0.32 3.88 3.88 0 0 1 -3.12 1.5 4 4 0 0 1 -3.13 -1.52z" class="cls-12" transform="translate(20.86 -.84)" fill="#231f20"/>
   <g stroke-width="0.95px" stroke-miterlimit="10">
    <line y2="677.57" x2="21.76" stroke="#231f20" y1="657.82" x1="23.42" class="cls-20" fill="none"/>
    <line y2="668.33" x2="43.74" stroke="#231f20" y1="648.65" x1="40.91" class="cls-20" fill="none"/>
    <path d="m5.08 609.94c-3 8.11-3.19 23.67-3.3 39.46a0.7 0.7 0 0 0 0.72 0.7l18.5-0.58a0.7 0.7 0 0 0 0.65 -0.89c-4.25-15.22-8.65-30.63-8.65-38.69a7.58 7.58 0 0 0 -7.92 0z" class="cls-45" transform="translate(20.86 -.84)" stroke="#5575b9" fill="#455080"/>
    <ellipse rx="9.14" ry="9.69" stroke="#231f20" class="cls-46" cy="600.91" cx="30.19" fill="#e7e8e8"/>
   </g>
   <path d="m26.06 629.31c-11.32 0-18.33-3-20.65-16.61 0.42-0.55 0.7-0.48 0.93-0.16 2.34 13.68 9.36 16.1 21.5 15.8v0.95z" class="cls-12" transform="translate(20.86 -.84)" fill="#231f20"/>
   <g stroke-width="0.95px" stroke-miterlimit="10">
    <path d="m8.07 673.51c0 0.92-3.28 0.24-5.15 0.24a25.44 25.44 0 0 1 -3 -0.14l0.7-3.61s7.45 2.89 7.45 3.51z" class="cls-47" transform="translate(20.86 -.84)" stroke="#000" fill="#fff"/>
    <path d="m29.82 669.88c0 1-3.52 0.24-5 0.24s-2.61-0.8-2.61-1.78a5.45 5.45 0 0 1 0.78 -2.25s6.83 2.81 6.83 3.79z" class="cls-47" transform="translate(20.86 -.84)" stroke="#000" fill="#fff"/>
    <path d="m37.85 627.89c-0.08-0.45-0.63-1-2.2-0.77 0 0 2.06-2 1.74-2.51s-1.9 0-3.51 1c-0.39 0.25-0.45 0-0.72-0.07-1.3-0.26 0.28-3-0.19-3.41s-4.89 4.48-4.89 5.83a2.6 2.6 0 0 0 2.68 2.52 20.25 20.25 0 0 1 2.5 0.26c1.32 0.29 2.48 0.11 2.6-0.42 0.07-0.33-0.3-0.72-0.92-1 1.69-0.32 2.99-0.95 2.91-1.43z" class="cls-48" transform="translate(20.86 -.84)" stroke="#231f20" fill="#e8e8e8"/>
   </g>
   <ellipse cy="599.52" cx="31.81" rx="1.3" ry="2.39"/>
   <ellipse cy="599.12" cx="36.06" rx="0.83" ry="2.23"/>
   <g stroke-miterlimit="10" fill="none">
    <g stroke="#000">
     <path d="m10.25 606.42c-0.07 1 1.07 1.77 2.3 1.77s0.13-0.59 1.65-1.54a29.9 29.9 0 0 0 -3.95 -0.23z" class="cls-49" transform="translate(20.86 -.84)" stroke-width="0.71px"/>
     <path d="m11 596.75a2.72 2.72 0 0 0 -2.36 0.47" class="cls-50" transform="translate(20.86 -.84)" stroke-width=".47px"/>
     <path d="m14.68 596.88c1-0.22 1.25 0 1.61 0.46" class="cls-50" transform="translate(20.86 -.84)" stroke-width=".47px"/>
    </g>
    <path d="m63.31 613.09c0.61 0.38 0.2 0.08 1.65-0.83" class="cls-20" transform="translate(20.86 -.84)" stroke="#231f20" stroke-width="0.95px"/>
   </g>
   <line stroke-width="1.89px" y2="480.83" x2="12.07" stroke="#ffebc0" stroke-miterlimit="10" y1="665.67" x1="9.71" class="cls-30" fill="#f3fafd"/>
   <g stroke="#ffebc0" stroke-width="1.89px" stroke-miterlimit="10" fill="none">
    <path d="m-10.12 544.11a21.36 21.36 0 0 0 14.31 -15.37 41.89 41.89 0 0 0 0.78 -6.4l1.03-15.13" class="cls-51" transform="translate(20.86 -.84)"/>
    <path d="m-10.17 515.39c-3.22 0.87-6.61-1.45-8.1-4.44s-1.53-6.46-1.54-9.8l-0.1-27.51" class="cls-51" transform="translate(20.86 -.84)"/>
    <path d="m-8.73 497.4a6.56 6.56 0 0 0 5 -4.2 19 19 0 0 0 1.08 -6.7q0.86-22.28 0.53-44.59" class="cls-51" transform="translate(20.86 -.84)"/>
   </g>
   <rect class="cls-52" height="26.47" width="26.47" stroke="#f3fafd" stroke-miterlimit="10" y="414.65" x="6.4" stroke-width="1.89px" fill="#f2ba31"/>
   <rect class="cls-52" height="17.49" width="17.49" stroke="#f3fafd" stroke-miterlimit="10" y="531.89" x="35.08" stroke-width="1.89px" fill="#f2ba31"/>
   <g stroke="#000" stroke-width="0.95px" stroke-miterlimit="10">
    <path d="m332.34 589.3-11.44-0.69v-4.85c3.39-0.68 7.32 1.88 11.44 5.54z" class="cls-53" transform="translate(20.86 -.84)" fill="#62c1ed"/>
    <path d="m362.84 586.18-11.09-1v-4.51c4-0.32 7.64 1.92 11.09 5.51z" class="cls-53" transform="translate(20.86 -.84)" fill="#62c1ed"/>
    <path d="m373.06 488.88c0.39 3-5.3 6-6.93 6s-2-2.25-1.52-4.16a26.81 26.81 0 0 1 2.21 -4.16c0.54-0.79-0.06 2.25 0.87 2.25 0.6 0 2.81-2.72 3.73-2.86 0.45-0.07-1.33 2.5-1 2.77s2-2.4 2.34-2c0.61 0.78-1.29 2.22-1.3 2.95 0.04 0.46 1.54-0.99 1.6-0.79z" class="cls-47" transform="translate(20.86 -.84)" fill="#fff"/>
   </g>
   <g fill="#e8f6fb">
    <rect class="cls-7" height="5.04" width="5.04" y="444.74" x="53.51"/>
    <rect class="cls-7" height="6.93" width="6.93" y="509.98" x="43.43"/>
    <rect class="cls-7" height="4.41" width="4.41" y="529.52" x="59.82"/>
    <rect class="cls-7" height="4.41" width="4.41" y="473.74" x="39.02"/>
   </g>
   <rect class="cls-54" height="8.82" width="8.82" y="449.47" x="265.3" fill="#fee252"/>
   <rect class="cls-54" height="5.67" width="5.67" y="403.46" x="253.96" fill="#fee252"/>
   <polygon points="457.53 603.39 483.75 575.54 515.65 581.52 524.63 621.51 497.62 650.69 463.92 638.61" fill="#f2ba31" class="cls-13"/>
   <polyline points="490.92 611.03 490.92 611.03 497.62 650.69 463.92 638.61 457.53 603.39 490.92 611.03 514.85 580.72" fill="url(#b)" class="cls-55"/>
   <polygon points="524.63 621.51 497.62 650.69 490.92 611.03 515.45 580.92" fill="#75605a" class="cls-56"/>
   <path d="m441.39 652.35a22.63 22.63 0 0 1 6.28 -22.29 10.67 10.67 0 0 1 6.12 -3.13c2.33-0.19 4.89 1.07 5.58 3.31s-1.3 5-3.6 4.6l4.65 3.56 0.08 5.31a2.56 2.56 0 0 0 -2.59 0.75 7.84 7.84 0 0 0 -1.14 3c-0.91 2.93-3.69 5-6.63 5.82a28.06 28.06 0 0 1 -9.13 0.59" class="cls-35" transform="translate(20.86 -.84)" stroke="#231f20" stroke-linecap="round" stroke-miterlimit="10" stroke-width="2.84px" fill="#e7e8e9"/>
   <path d="m503.7 640.11c1.17-5.23 2.36-14.68 0.85-19.82s-6.7-9.62-11.91-8.38a10.22 10.22 0 0 0 4.79 8.69 4.43 4.43 0 1 0 -2.76 8.28c-2.49-0.33-4.3 2.86-3.5 5.24s3.19 3.85 5.55 4.7a22.12 22.12 0 0 0 7 1.3" class="cls-35" transform="translate(20.86 -.84)" stroke="#231f20" stroke-linecap="round" stroke-miterlimit="10" stroke-width="2.84px" fill="#e7e8e9"/>
   <polygon points="81.67 496.73 109.09 502.09 123.27 497.2 124.06 469.15 99.63 466.47 82.46 469.78" fill="#f2ba31" class="cls-13"/>
   <polygon points="109.09 502.09 81.51 497.52 82.46 469.78 109.25 473.25" fill="url(#a)" class="cls-57"/>
   <path d="m74.13 485.7-0.11 0.08a0.58 0.58 0 0 0 -0.14 0.7 0.4 0.4 0 0 0 0.36 0.25 0.35 0.35 0 0 0 0.21 -0.07l0.11-0.08a0.58 0.58 0 0 0 0.14 -0.7 0.37 0.37 0 0 0 -0.57 -0.18z" class="cls-58" transform="translate(20.86 -.84)" fill="#bcbbbb"/>
   <path d="m75.27 484.76-0.11 0.08a0.58 0.58 0 0 0 -0.14 0.7 0.4 0.4 0 0 0 0.36 0.25 0.35 0.35 0 0 0 0.21 -0.07l0.11-0.08a0.58 0.58 0 0 0 0.14 -0.7 0.37 0.37 0 0 0 -0.57 -0.18z" class="cls-58" transform="translate(20.86 -.84)" fill="#bcbbbb"/>
   <path d="m84.16 477.54-2.64-1.88a1.45 1.45 0 0 0 -1.7 0l-2.64 1.65a1.43 1.43 0 0 0 -0.57 1.17v0.18 3.34c0 1.66-0.36 1.84-0.36 1.84a0.61 0.61 0 0 0 -0.11 0.67 0.41 0.41 0 0 0 0.37 0.26 0.35 0.35 0 0 0 0.14 0c0.11-0.07 0.57-0.2 1.37 0.44 0.1 0.08 0.38 0.3 0.44 0.33l1.36 1a1.4 1.4 0 0 0 1.65 0l2.63-1.83a2 2 0 0 0 0.77 -1.64v-4a1.87 1.87 0 0 0 -0.71 -1.53zm-3.36 3.19v1.88c0 0.34 0 0.68-0.06 1s-0.05 0.68-0.1 1c0-0.34-0.07-0.68-0.1-1s0-0.68-0.06-1v-1.88a21.2 21.2 0 0 1 -2.51 -2 19.56 19.56 0 0 1 2.72 1.56l3-1.56z" class="cls-59" transform="translate(20.86 -.84)" fill="#f2af1d"/>
   <path d="m73.52 486.76a0.43 0.43 0 0 0 -0.39 -0.27 0.38 0.38 0 0 0 -0.21 0.07c-0.11 0.07-0.41 0.27-1.28-0.43-0.1-0.08-0.38-0.3-0.44-0.33l-1.36-1a1.4 1.4 0 0 0 -1.65 0l-2.63 1.83a2 2 0 0 0 -0.77 1.64v4a1.87 1.87 0 0 0 0.71 1.52l2.64 1.88a1.45 1.45 0 0 0 1.7 0l2.65-1.67a1.43 1.43 0 0 0 0.57 -1.17v-0.18-3.36c0-1.63 0.33-1.82 0.33-1.82a0.64 0.64 0 0 0 0.13 -0.71zm-4.52 3.15v1.88c0 0.34 0 0.68-0.06 1s-0.05 0.68-0.1 1c0-0.34-0.07-0.68-0.1-1s0-0.68-0.06-1v-1.88a21.19 21.19 0 0 1 -2.51 -2 19.58 19.58 0 0 1 2.72 1.56l3-1.56z" class="cls-59" transform="translate(20.86 -.84)" fill="#f2af1d"/>
   <g fill="#fee252">
    <rect class="cls-54" height="25.84" width="25.84" y="403.77" x="432.34"/>
    <rect class="cls-54" height="25.84" width="25.84" y="404.72" x="510.81"/>
    <rect class="cls-54" height="20.8" width="20.8" y="369.74" x="492.85"/>
    <rect class="cls-54" height="18.28" width="18.28" y="457.35" x="524.05"/>
    <rect class="cls-54" height="15.13" width="8.51" y="404.72" x="487.17"/>
    <rect class="cls-54" height="16.39" width="16.39" y="462.71" x="418.15"/>
    <rect class="cls-54" height="20.8" width="20.8" y="416.38" x="379.39"/>
    <rect class="cls-54" height="22.06" width="22.06" y="419.8" x="570.38"/>
    <rect class="cls-54" height="11.35" width="11.35" y="380.14" x="546.74"/>
    <rect class="cls-54" height="20.17" width="20.17" y="337.59" x="511.76"/>
    <rect class="cls-54" height="15.13" width="15.13" y="325.61" x="549.58"/>
    <rect class="cls-54" height="13.24" width="13.24" y="360.86" x="559.98"/>
    <rect class="cls-54" height="20.17" width="20.17" y="330.97" x="459.76"/>
    <rect class="cls-54" height="10.72" width="10.72" y="376.04" x="434.23"/>
    <rect class="cls-54" height="8.82" width="8.82" y="360.6" x="454.4"/>
    <rect class="cls-54" height="9.45" width="9.45" y="340.43" x="422.88"/>
    <rect class="cls-54" height="17.65" width="17.65" y="370.68" x="393.57"/>
    <rect class="cls-54" height="15.13" width="15.13" y="344.21" x="374.66"/>
    <rect class="cls-54" height="15.13" width="15.13" y="349.88" x="339.68"/>
    <rect class="cls-54" height="13.24" width="13.24" y="382.03" x="353.86"/>
    <rect class="cls-54" height="15.13" width="15.13" y="372.57" x="316.04"/>
    <rect class="cls-54" height="13.24" width="13.24" y="400.94" x="310.37"/>
    <rect class="cls-54" height="7.56" width="7.56" y="399.05" x="295.24"/>
    <rect class="cls-54" height="9.45" width="9.45" y="420.79" x="289.57"/>
    <rect class="cls-54" height="9.45" width="9.45" y="452.94" x="479.61"/>
   </g>
   <path d="m48.08 171.24a11.52 11.52 0 0 1 -5.72 1.56 7.64 7.64 0 0 1 -5.93 -2.49 9.33 9.33 0 0 1 -2.27 -6.54 9.84 9.84 0 0 1 2.44 -6.77 8.32 8.32 0 0 1 6.52 -2.73 11.6 11.6 0 0 1 4.59 1v1.35a11 11 0 0 0 -4.71 -1.26 6.94 6.94 0 0 0 -5.45 2.32 9.77 9.77 0 0 0 -0.13 11.84 6.67 6.67 0 0 0 5.21 2.15 8.39 8.39 0 0 0 4.26 -1.05v-5.92h-4.28v-1.13h5.47z" transform="translate(20.86 -.84)"/>
   <path d="m52.25 166.13a6.34 6.34 0 0 0 1.22 4.13 4.1 4.1 0 0 0 3.35 1.49 6.81 6.81 0 0 0 4.18 -1.59v1.23a7.49 7.49 0 0 1 -4.44 1.41 5 5 0 0 1 -4 -1.78 7.47 7.47 0 0 1 -1.53 -5 7.15 7.15 0 0 1 1.6 -4.73 5.14 5.14 0 0 1 4.15 -1.92 4.33 4.33 0 0 1 3.69 1.63 7.4 7.4 0 0 1 1.28 4.58v0.51zm8.29-1.05a5.68 5.68 0 0 0 -1.06 -3.44 3.31 3.31 0 0 0 -2.73 -1.23 4 4 0 0 0 -3 1.21 5.79 5.79 0 0 0 -1.46 3.46z" transform="translate(20.86 -.84)"/>
   <path d="m70 172.31a4 4 0 0 1 -1.69 0.43q-2.84 0-2.84-3.41v-8.61h-2.3v-1.05h2.3v-3.33l0.58-0.2 0.58-0.19v3.72h3.37v1.05h-3.39v8.46a3.4 3.4 0 0 0 0.39 1.92 1.62 1.62 0 0 0 1.42 0.6 3.18 3.18 0 0 0 1.54 -0.46z" transform="translate(20.86 -.84)"/>
   <path d="m79.83 166.13a6.34 6.34 0 0 0 1.22 4.13 4.1 4.1 0 0 0 3.35 1.49 6.81 6.81 0 0 0 4.21 -1.59v1.23a7.49 7.49 0 0 1 -4.44 1.41 5 5 0 0 1 -4 -1.78 7.47 7.47 0 0 1 -1.53 -5 7.15 7.15 0 0 1 1.6 -4.73 5.14 5.14 0 0 1 4.15 -1.92 4.33 4.33 0 0 1 3.61 1.63 7.4 7.4 0 0 1 1.28 4.58v0.51zm8.29-1.05a5.68 5.68 0 0 0 -1.06 -3.44 3.31 3.31 0 0 0 -2.73 -1.23 4 4 0 0 0 -3 1.21 5.79 5.79 0 0 0 -1.46 3.46z" transform="translate(20.86 -.84)"/>
   <path d="m100.17 172.49v-2.57h-0.05a5 5 0 0 1 -1.78 2.1 4.58 4.58 0 0 1 -2.6 0.78 4 4 0 0 1 -2.89 -1 3.45 3.45 0 0 1 -1.06 -2.59q0-3.35 4.44-4.06l3.94-0.59q0-4.13-3.1-4.13a6.33 6.33 0 0 0 -4.12 1.7v-1.39a6.29 6.29 0 0 1 1.93 -1 7.39 7.39 0 0 1 2.3 -0.4 3.87 3.87 0 0 1 3.06 1.23 5.23 5.23 0 0 1 1.08 3.57v8.34zm-3.53-6.39a6.11 6.11 0 0 0 -2.83 0.93 2.91 2.91 0 0 0 -0.06 4 2.89 2.89 0 0 0 2.11 0.74 4 4 0 0 0 3.08 -1.37 5.1 5.1 0 0 0 1.23 -3.54v-1.25z" transform="translate(20.86 -.84)"/>
   <path d="m104.51 171.92v-1.39a4.81 4.81 0 0 0 1.58 0.89 4.94 4.94 0 0 0 1.6 0.33q3 0 3-2.47a1.89 1.89 0 0 0 -0.66 -1.45 8 8 0 0 0 -2.15 -1.24 7.3 7.3 0 0 1 -2.59 -1.66 3.28 3.28 0 0 1 0.45 -4.61 4.55 4.55 0 0 1 2.95 -1 5.59 5.59 0 0 1 2.83 0.68v1.3a5.36 5.36 0 0 0 -3 -0.93 3.05 3.05 0 0 0 -2 0.66 2.13 2.13 0 0 0 -0.78 1.71 2.2 2.2 0 0 0 0.49 1.48 6.54 6.54 0 0 0 2.15 1.31 9.42 9.42 0 0 1 2.75 1.67 2.8 2.8 0 0 1 0.75 2 3.2 3.2 0 0 1 -1.15 2.52 4.66 4.66 0 0 1 -3.16 1 5.23 5.23 0 0 1 -3.06 -0.8z" transform="translate(20.86 -.84)"/>
   <path d="m118.26 175.1a7.63 7.63 0 0 1 -1.55 2.57 3 3 0 0 1 -2.19 0.84 2.68 2.68 0 0 1 -1 -0.18v-1.15a2.9 2.9 0 0 0 1.05 0.18q1.54 0 2.43-2.13l1.19-2.84-4.86-12.72h1.29l3.87 10.44q0.12 0.34 0.18 0.51a3.68 3.68 0 0 0 0.11 0.43h0.05l0.3-0.86 4.13-10.52h1.25z" transform="translate(20.86 -.84)"/>
   <path d="m141.43 172.49v-2.57h-0.05a5 5 0 0 1 -1.78 2.1 4.58 4.58 0 0 1 -2.6 0.78 4 4 0 0 1 -2.89 -1 3.45 3.45 0 0 1 -1.06 -2.59q0-3.35 4.44-4.06l3.94-0.59q0-4.13-3.1-4.13a6.33 6.33 0 0 0 -4.12 1.7v-1.39a6.29 6.29 0 0 1 1.93 -1 7.39 7.39 0 0 1 2.3 -0.4 3.87 3.87 0 0 1 3.06 1.23 5.23 5.23 0 0 1 1.08 3.57v8.34zm-3.53-6.39a6.11 6.11 0 0 0 -2.83 0.93 2.91 2.91 0 0 0 -0.06 4 2.89 2.89 0 0 0 2.11 0.74 4 4 0 0 0 3.08 -1.37 5.1 5.1 0 0 0 1.23 -3.54v-1.25z" transform="translate(20.86 -.84)"/>
   <path d="m154.74 171.92a6.39 6.39 0 0 1 -3.41 0.88 5.38 5.38 0 0 1 -4.22 -1.8 6.79 6.79 0 0 1 -1.6 -4.7 7.07 7.07 0 0 1 1.8 -5 6 6 0 0 1 4.63 -1.95 7 7 0 0 1 2.84 0.6v1.3a5.63 5.63 0 0 0 -3 -0.85 4.6 4.6 0 0 0 -3.66 1.62 6.19 6.19 0 0 0 -1.4 4.2 6 6 0 0 0 1.28 4 4.22 4.22 0 0 0 3.39 1.51 5.59 5.59 0 0 0 3.36 -1z" transform="translate(20.86 -.84)"/>
   <path d="m166.12 171.92a6.39 6.39 0 0 1 -3.41 0.88 5.38 5.38 0 0 1 -4.22 -1.8 6.79 6.79 0 0 1 -1.6 -4.7 7.07 7.07 0 0 1 1.8 -5 6 6 0 0 1 4.63 -1.95 7 7 0 0 1 2.84 0.6v1.3a5.63 5.63 0 0 0 -3 -0.85 4.6 4.6 0 0 0 -3.66 1.6 6.19 6.19 0 0 0 -1.4 4.2 6 6 0 0 0 1.28 4 4.22 4.22 0 0 0 3.39 1.51 5.59 5.59 0 0 0 3.36 -1z" transform="translate(20.86 -.84)"/>
   <path d="m169.48 166.13a6.34 6.34 0 0 0 1.22 4.13 4.1 4.1 0 0 0 3.35 1.49 6.81 6.81 0 0 0 4.21 -1.59v1.23a7.49 7.49 0 0 1 -4.44 1.41 5 5 0 0 1 -4 -1.78 7.47 7.47 0 0 1 -1.53 -5 7.15 7.15 0 0 1 1.6 -4.73 5.14 5.14 0 0 1 4.15 -1.92 4.33 4.33 0 0 1 3.67 1.68 7.4 7.4 0 0 1 1.28 4.58v0.51zm8.29-1.05a5.68 5.68 0 0 0 -1.06 -3.44 3.31 3.31 0 0 0 -2.73 -1.23 4 4 0 0 0 -3 1.21 5.79 5.79 0 0 0 -1.46 3.46z" transform="translate(20.86 -.84)"/>
   <path d="m181.48 171.92v-1.39a4.81 4.81 0 0 0 1.58 0.89 4.94 4.94 0 0 0 1.6 0.33q3 0 3-2.47a1.89 1.89 0 0 0 -0.66 -1.45 8 8 0 0 0 -2.15 -1.24 7.3 7.3 0 0 1 -2.59 -1.66 3.28 3.28 0 0 1 0.45 -4.61 4.55 4.55 0 0 1 2.95 -1 5.59 5.59 0 0 1 2.83 0.68v1.3a5.36 5.36 0 0 0 -3 -0.93 3.05 3.05 0 0 0 -2 0.66 2.13 2.13 0 0 0 -0.78 1.71 2.2 2.2 0 0 0 0.49 1.48 6.54 6.54 0 0 0 2.15 1.31 9.42 9.42 0 0 1 2.75 1.67 2.8 2.8 0 0 1 0.75 2 3.2 3.2 0 0 1 -1.15 2.52 4.66 4.66 0 0 1 -3.16 1 5.23 5.23 0 0 1 -3.06 -0.8z" transform="translate(20.86 -.84)"/>
   <path d="m191.44 171.92v-1.39a4.81 4.81 0 0 0 1.58 0.89 4.94 4.94 0 0 0 1.6 0.33q3 0 3-2.47a1.89 1.89 0 0 0 -0.66 -1.45 8 8 0 0 0 -2.15 -1.24 7.3 7.3 0 0 1 -2.59 -1.66 3.28 3.28 0 0 1 0.45 -4.61 4.55 4.55 0 0 1 2.95 -1 5.59 5.59 0 0 1 2.83 0.68v1.3a5.36 5.36 0 0 0 -3 -0.93 3.05 3.05 0 0 0 -2 0.66 2.13 2.13 0 0 0 -0.78 1.71 2.2 2.2 0 0 0 0.49 1.48 6.54 6.54 0 0 0 2.15 1.31 9.42 9.42 0 0 1 2.75 1.67 2.8 2.8 0 0 1 0.75 2 3.2 3.2 0 0 1 -1.15 2.52 4.66 4.66 0 0 1 -3.16 1 5.23 5.23 0 0 1 -3.06 -0.8z" transform="translate(20.86 -.84)"/>
   <path d="m214.15 172.31a4 4 0 0 1 -1.69 0.43q-2.84 0-2.84-3.41v-8.61h-2.3v-1.05h2.3v-3.33l0.58-0.2 0.58-0.19v3.72h3.38v1.05h-3.38v8.46a3.4 3.4 0 0 0 0.42 1.92 1.62 1.62 0 0 0 1.42 0.6 3.18 3.18 0 0 0 1.54 -0.46z" transform="translate(20.86 -.84)"/>
   <path d="m221.84 172.8a5.62 5.62 0 0 1 -4.44 -1.8 8 8 0 0 1 0.08 -9.8 5.91 5.91 0 0 1 4.5 -1.8 5.5 5.5 0 0 1 4.33 1.79 7.21 7.21 0 0 1 1.59 5 7.09 7.09 0 0 1 -1.62 4.85 5.59 5.59 0 0 1 -4.44 1.76zm0.09-12.39a4.57 4.57 0 0 0 -3.61 1.53 6.21 6.21 0 0 0 -1.35 4.24 6 6 0 0 0 1.31 4 4.49 4.49 0 0 0 3.59 1.53 4.38 4.38 0 0 0 3.57 -1.5 7.65 7.65 0 0 0 0 -8.38 4.37 4.37 0 0 0 -3.52 -1.42z" transform="translate(20.86 -.84)"/>
   <path d="m245.76 172.49v-2.57h-0.05a5 5 0 0 1 -1.78 2.1 4.58 4.58 0 0 1 -2.6 0.78 4 4 0 0 1 -2.89 -1 3.45 3.45 0 0 1 -1.06 -2.59q0-3.35 4.44-4.06l3.94-0.59q0-4.13-3.1-4.13a6.33 6.33 0 0 0 -4.12 1.7v-1.39a6.29 6.29 0 0 1 1.93 -1 7.39 7.39 0 0 1 2.3 -0.4 3.87 3.87 0 0 1 3.06 1.23 5.23 5.23 0 0 1 1.08 3.57v8.34zm-3.53-6.39a6.11 6.11 0 0 0 -2.83 0.93 2.91 2.91 0 0 0 -0.06 4 2.89 2.89 0 0 0 2.11 0.74 4 4 0 0 0 3.08 -1.37 5.1 5.1 0 0 0 1.23 -3.54v-1.25z" transform="translate(20.86 -.84)"/>
   <path d="m250.77 172.49v-19h1.15v19z" transform="translate(20.86 -.84)"/>
   <path d="m256 172.49v-19h1.15v19z" transform="translate(20.86 -.84)"/>
   <path d="m269.51 170.21h-0.05v2.28h-1.15v-19h1.15v8.8h0.05a5.06 5.06 0 0 1 2 -2.18 5.38 5.38 0 0 1 2.82 -0.77 4.64 4.64 0 0 1 3.81 1.68 7 7 0 0 1 1.37 4.58 8.07 8.07 0 0 1 -1.59 5.2 5 5 0 0 1 -4.13 2 4.52 4.52 0 0 1 -4.28 -2.59zm-0.05-4.77v1.62a4.85 4.85 0 0 0 1.21 3.31 4 4 0 0 0 3.19 1.38 3.78 3.78 0 0 0 3.19 -1.68 7.35 7.35 0 0 0 1.23 -4.43 6 6 0 0 0 -1.13 -3.82 3.65 3.65 0 0 0 -3 -1.41 4.22 4.22 0 0 0 -3.47 1.5 5.41 5.41 0 0 0 -1.22 3.53z" transform="translate(20.86 -.84)"/>
   <path d="m282.67 172.49v-19h1.15v19z" transform="translate(20.86 -.84)"/>
   <path d="m293.07 172.8a5.62 5.62 0 0 1 -4.44 -1.85 8 8 0 0 1 0.08 -9.8 5.91 5.91 0 0 1 4.5 -1.8 5.5 5.5 0 0 1 4.33 1.79 7.21 7.21 0 0 1 1.59 5 7.09 7.09 0 0 1 -1.62 4.85 5.59 5.59 0 0 1 -4.44 1.81zm0.09-12.39a4.57 4.57 0 0 0 -3.61 1.53 6.21 6.21 0 0 0 -1.35 4.24 6 6 0 0 0 1.31 4 4.49 4.49 0 0 0 3.59 1.53 4.38 4.38 0 0 0 3.57 -1.5 7.65 7.65 0 0 0 0 -8.38 4.37 4.37 0 0 0 -3.51 -1.42z" transform="translate(20.86 -.84)"/>
   <path d="m310.61 171.92a6.39 6.39 0 0 1 -3.41 0.88 5.38 5.38 0 0 1 -4.2 -1.8 6.79 6.79 0 0 1 -1.6 -4.7 7.07 7.07 0 0 1 1.8 -5 6 6 0 0 1 4.63 -1.95 7 7 0 0 1 2.84 0.6v1.3a5.63 5.63 0 0 0 -3 -0.85 4.6 4.6 0 0 0 -3.67 1.6 6.19 6.19 0 0 0 -1.4 4.2 6 6 0 0 0 1.28 4 4.22 4.22 0 0 0 3.39 1.51 5.59 5.59 0 0 0 3.36 -1z" transform="translate(20.86 -.84)"/>
   <path d="m321 172.49-6.13-6.34h-0.05v6.34h-1.15v-19h1.15v12.23h0.05l5.82-6.07h1.49l-6.08 6.21 6.57 6.61z" transform="translate(20.86 -.84)"/>
   <path d="m333.38 171.92a6.39 6.39 0 0 1 -3.41 0.88 5.38 5.38 0 0 1 -4.22 -1.8 6.79 6.79 0 0 1 -1.6 -4.7 7.07 7.07 0 0 1 1.8 -5 6 6 0 0 1 4.63 -1.95 7 7 0 0 1 2.84 0.6v1.3a5.63 5.63 0 0 0 -3 -0.85 4.6 4.6 0 0 0 -3.66 1.62 6.19 6.19 0 0 0 -1.4 4.2 6 6 0 0 0 1.28 4 4.22 4.22 0 0 0 3.39 1.51 5.59 5.59 0 0 0 3.36 -1z" transform="translate(20.86 -.84)"/>
   <path d="m345.17 172.49v-7.69a5.43 5.43 0 0 0 -0.83 -3.34 3.07 3.07 0 0 0 -2.58 -1.06 3.93 3.93 0 0 0 -2.9 1.29 5.09 5.09 0 0 0 -1.25 3.69v7.1h-1.15v-19h1.15v8.52h0.05a4.82 4.82 0 0 1 4.41 -2.62 3.85 3.85 0 0 1 3.17 1.34 6 6 0 0 1 1.09 3.84v8z" transform="translate(20.86 -.84)"/>
   <path d="m357.84 172.49v-2.57h-0.05a5 5 0 0 1 -1.79 2.08 4.58 4.58 0 0 1 -2.6 0.78 4 4 0 0 1 -2.89 -1 3.45 3.45 0 0 1 -1.06 -2.59q0-3.35 4.44-4.06l3.94-0.59q0-4.13-3.1-4.13a6.33 6.33 0 0 0 -4.12 1.7v-1.39a6.29 6.29 0 0 1 1.93 -1 7.39 7.39 0 0 1 2.3 -0.4 3.87 3.87 0 0 1 3.06 1.23 5.23 5.23 0 0 1 1.08 3.57v8.34zm-3.53-6.39a6.11 6.11 0 0 0 -2.83 0.93 2.91 2.91 0 0 0 -0.06 4 2.89 2.89 0 0 0 2.11 0.74 4 4 0 0 0 3.08 -1.37 5.1 5.1 0 0 0 1.23 -3.54v-1.25z" transform="translate(20.86 -.84)"/>
   <path d="m363.41 156.44a1 1 0 0 1 -1 -1 0.84 0.84 0 0 1 0.29 -0.67 1 1 0 0 1 0.66 -0.26 1 1 0 0 1 0.68 0.25 0.84 0.84 0 0 1 0.29 0.68 1 1 0 0 1 -1 1zm-0.56 16.05v-12.82h1.15v12.82z" transform="translate(20.86 -.84)"/>
   <path d="m376.82 172.49v-7.49q0-4.62-3.33-4.62a3.86 3.86 0 0 0 -3 1.36 4.92 4.92 0 0 0 -1.19 3.36v7.36h-1.15v-12.79h1.15v2.33h0.05a4.64 4.64 0 0 1 4.38 -2.64 3.83 3.83 0 0 1 3.18 1.38 6.21 6.21 0 0 1 1.1 4v7.8z" transform="translate(20.86 -.84)"/>
   <path d="m381.17 171.92v-1.39a4.81 4.81 0 0 0 1.58 0.89 4.94 4.94 0 0 0 1.6 0.33q3 0 3-2.47a1.89 1.89 0 0 0 -0.66 -1.45 8 8 0 0 0 -2.15 -1.24 7.3 7.3 0 0 1 -2.59 -1.66 3.28 3.28 0 0 1 0.45 -4.61 4.55 4.55 0 0 1 2.95 -1 5.59 5.59 0 0 1 2.83 0.68v1.3a5.36 5.36 0 0 0 -3 -0.93 3.05 3.05 0 0 0 -2 0.66 2.13 2.13 0 0 0 -0.78 1.71 2.2 2.2 0 0 0 0.49 1.48 6.54 6.54 0 0 0 2.15 1.31 9.42 9.42 0 0 1 2.75 1.67 2.8 2.8 0 0 1 0.75 2 3.2 3.2 0 0 1 -1.15 2.52 4.66 4.66 0 0 1 -3.16 1 5.23 5.23 0 0 1 -3.06 -0.8z" transform="translate(20.86 -.84)"/>
   <path d="m392.57 172.71a1 1 0 0 1 -0.71 -0.29 1 1 0 0 1 -0.29 -0.72 1 1 0 0 1 0.29 -0.72 1 1 0 0 1 0.71 -0.28 1 1 0 0 1 0.73 0.28 1 1 0 0 1 0.3 0.72 1 1 0 0 1 -0.3 0.72 1 1 0 0 1 -0.73 0.29z" transform="translate(20.86 -.84)"/>
   <path d="m34.54 220.43v-1.43a7.2 7.2 0 0 0 3.91 1.23 5 5 0 0 0 3.19 -0.87 2.94 2.94 0 0 0 1.09 -2.44 3.18 3.18 0 0 0 -0.73 -2.2 14.47 14.47 0 0 0 -3.17 -2.24 11.26 11.26 0 0 1 -3.46 -2.66 4.29 4.29 0 0 1 -0.73 -2.47 4.18 4.18 0 0 1 1.48 -3.23 5.68 5.68 0 0 1 3.94 -1.33 10 10 0 0 1 3.21 0.54v1.3a8.08 8.08 0 0 0 -3.37 -0.71 4.28 4.28 0 0 0 -2.9 0.93 3 3 0 0 0 -1.07 2.35 3.15 3.15 0 0 0 0.73 2.19 14.4 14.4 0 0 0 3.16 2.22 11.29 11.29 0 0 1 3.35 2.54 4.13 4.13 0 0 1 0.83 2.55 4.34 4.34 0 0 1 -1.43 3.37 5.81 5.81 0 0 1 -4.05 1.3 9.35 9.35 0 0 1 -2.13 -0.29 6.91 6.91 0 0 1 -1.85 -0.65z" transform="translate(20.86 -.84)"/>
   <path d="m52.74 221.38a5.62 5.62 0 0 1 -4.44 -1.85 8 8 0 0 1 0.08 -9.8 5.91 5.91 0 0 1 4.5 -1.8 5.5 5.5 0 0 1 4.33 1.79 7.21 7.21 0 0 1 1.59 5 7.09 7.09 0 0 1 -1.62 4.85 5.59 5.59 0 0 1 -4.44 1.81zm0.09-12.38a4.57 4.57 0 0 0 -3.61 1.53 6.21 6.21 0 0 0 -1.35 4.24 6 6 0 0 0 1.31 4 4.49 4.49 0 0 0 3.59 1.53 4.38 4.38 0 0 0 3.57 -1.5 7.65 7.65 0 0 0 0 -8.38 4.37 4.37 0 0 0 -3.51 -1.42z" transform="translate(20.86 -.84)"/>
   <path d="m72.13 223.69a7.63 7.63 0 0 1 -1.55 2.57 3 3 0 0 1 -2.19 0.84 2.68 2.68 0 0 1 -1 -0.18v-1.15a2.9 2.9 0 0 0 1.05 0.18q1.54 0 2.43-2.13l1.19-2.82-4.86-12.75h1.29l3.87 10.44q0.12 0.34 0.18 0.51a3.68 3.68 0 0 0 0.11 0.43h0.05l0.3-0.86 4.13-10.52h1.25z" transform="translate(20.86 -.84)"/>
   <path d="m85.77 221.38a5.62 5.62 0 0 1 -4.44 -1.85 8 8 0 0 1 0.08 -9.8 5.91 5.91 0 0 1 4.5 -1.8 5.5 5.5 0 0 1 4.33 1.79 7.21 7.21 0 0 1 1.59 5 7.09 7.09 0 0 1 -1.62 4.85 5.59 5.59 0 0 1 -4.44 1.81zm0.09-12.38a4.57 4.57 0 0 0 -3.61 1.53 6.21 6.21 0 0 0 -1.35 4.24 6 6 0 0 0 1.31 4 4.49 4.49 0 0 0 3.59 1.53 4.38 4.38 0 0 0 3.57 -1.5 7.65 7.65 0 0 0 0 -8.38 4.37 4.37 0 0 0 -3.51 -1.42z" transform="translate(20.86 -.84)"/>
   <path d="m103.47 221.07v-2.33h-0.05a4.37 4.37 0 0 1 -4.13 2.64q-4.54 0-4.54-5.72v-7.41h1.16v7.12a6.51 6.51 0 0 0 0.86 3.78 3.11 3.11 0 0 0 2.7 1.18 3.61 3.61 0 0 0 2.9 -1.31 5.26 5.26 0 0 0 1.11 -3.51v-7.26h1.15v12.82z" transform="translate(20.86 -.84)"/>
   <path d="m124.05 220.51a6.39 6.39 0 0 1 -3.41 0.88 5.38 5.38 0 0 1 -4.22 -1.8 6.79 6.79 0 0 1 -1.6 -4.7 7.07 7.07 0 0 1 1.8 -5 6 6 0 0 1 4.63 -1.95 7 7 0 0 1 2.84 0.6v1.3a5.63 5.63 0 0 0 -3 -0.85 4.6 4.6 0 0 0 -3.66 1.62 6.19 6.19 0 0 0 -1.4 4.2 6 6 0 0 0 1.28 4 4.22 4.22 0 0 0 3.39 1.51 5.59 5.59 0 0 0 3.36 -1z" transform="translate(20.86 -.84)"/>
   <path d="m134.8 221.07v-2.57h-0.05a5 5 0 0 1 -1.78 2.1 4.58 4.58 0 0 1 -2.6 0.78 4 4 0 0 1 -2.89 -1 3.45 3.45 0 0 1 -1.06 -2.59q0-3.35 4.44-4.06l3.94-0.59q0-4.13-3.1-4.13a6.33 6.33 0 0 0 -4.12 1.7v-1.41a6.29 6.29 0 0 1 1.93 -1 7.39 7.39 0 0 1 2.3 -0.4 3.87 3.87 0 0 1 3.06 1.23 5.23 5.23 0 0 1 1.08 3.57v8.34zm-3.53-6.39a6.11 6.11 0 0 0 -2.83 0.93 2.91 2.91 0 0 0 -0.06 4 2.89 2.89 0 0 0 2.11 0.74 4 4 0 0 0 3.08 -1.37 5.1 5.1 0 0 0 1.23 -3.54v-1.25z" transform="translate(20.86 -.84)"/>
   <path d="m148.52 221.07v-7.46q0-4.62-3.33-4.62a3.86 3.86 0 0 0 -3 1.36 4.92 4.92 0 0 0 -1.19 3.36v7.36h-1.2v-12.82h1.2v2.33a4.64 4.64 0 0 1 4.38 -2.64 3.83 3.83 0 0 1 3.18 1.38 6.21 6.21 0 0 1 1.1 4v7.8z" transform="translate(20.86 -.84)"/>
   <path d="m159.89 220.51v-1.39a4.81 4.81 0 0 0 1.58 0.89 4.94 4.94 0 0 0 1.6 0.33q3 0 3-2.47a1.89 1.89 0 0 0 -0.66 -1.45 8 8 0 0 0 -2.15 -1.24 7.3 7.3 0 0 1 -2.59 -1.66 3.28 3.28 0 0 1 0.45 -4.61 4.55 4.55 0 0 1 2.95 -1 5.59 5.59 0 0 1 2.83 0.68v1.3a5.36 5.36 0 0 0 -3 -0.93 3.05 3.05 0 0 0 -2 0.66 2.13 2.13 0 0 0 -0.78 1.71 2.2 2.2 0 0 0 0.49 1.48 6.54 6.54 0 0 0 2.15 1.31 9.42 9.42 0 0 1 2.75 1.67 2.8 2.8 0 0 1 0.75 2 3.2 3.2 0 0 1 -1.15 2.52 4.66 4.66 0 0 1 -3.16 1 5.23 5.23 0 0 1 -3.06 -0.8z" transform="translate(20.86 -.84)"/>
   <path d="m175.57 220.89a4 4 0 0 1 -1.69 0.43q-2.84 0-2.84-3.41v-8.61h-2.3v-1.05h2.26v-3.33l0.58-0.2 0.58-0.19v3.72h3.38v1.05h-3.38v8.46a3.4 3.4 0 0 0 0.42 1.92 1.62 1.62 0 0 0 1.42 0.6 3.18 3.18 0 0 0 1.54 -0.46z" transform="translate(20.86 -.84)"/>
   <path d="m185.78 221.07v-2.57h-0.05a5 5 0 0 1 -1.78 2.1 4.58 4.58 0 0 1 -2.6 0.78 4 4 0 0 1 -2.89 -1 3.45 3.45 0 0 1 -1.06 -2.59q0-3.35 4.44-4.06l3.94-0.59q0-4.13-3.1-4.13a6.33 6.33 0 0 0 -4.12 1.7v-1.41a6.29 6.29 0 0 1 1.93 -1 7.39 7.39 0 0 1 2.3 -0.4 3.87 3.87 0 0 1 3.06 1.23 5.23 5.23 0 0 1 1.08 3.57v8.34zm-3.53-6.39a6.11 6.11 0 0 0 -2.83 0.93 2.91 2.91 0 0 0 -0.06 4 2.89 2.89 0 0 0 2.11 0.74 4 4 0 0 0 3.08 -1.37 5.1 5.1 0 0 0 1.23 -3.54v-1.25z" transform="translate(20.86 -.84)"/>
   <path d="m193.92 223.69a7.63 7.63 0 0 1 -1.55 2.57 3 3 0 0 1 -2.19 0.84 2.68 2.68 0 0 1 -1 -0.18v-1.15a2.9 2.9 0 0 0 1.05 0.18q1.54 0 2.43-2.13l1.19-2.84-4.85-12.73h1.29l3.87 10.44q0.12 0.34 0.18 0.51a3.68 3.68 0 0 0 0.11 0.43h0.05l0.3-0.86 4.13-10.52h1.25z" transform="translate(20.86 -.84)"/>
   <path d="m210 205a1 1 0 0 1 -1 -1 0.84 0.84 0 0 1 0.29 -0.67 1 1 0 0 1 0.66 -0.26 1 1 0 0 1 0.68 0.25 0.84 0.84 0 0 1 0.29 0.68 1 1 0 0 1 -1 1zm-0.56 16.05v-12.8h1.15v12.82z" transform="translate(20.86 -.84)"/>
   <path d="m223.4 221.07v-7.46q0-4.62-3.33-4.62a3.86 3.86 0 0 0 -3 1.36 4.92 4.92 0 0 0 -1.19 3.36v7.36h-1.15v-12.82h1.15v2.33h0.05a4.64 4.64 0 0 1 4.38 -2.64 3.83 3.83 0 0 1 3.18 1.38 6.21 6.21 0 0 1 1.1 4v7.8z" transform="translate(20.86 -.84)"/>
   <path d="m243.73 220.51a6.39 6.39 0 0 1 -3.41 0.88 5.38 5.38 0 0 1 -4.22 -1.8 6.79 6.79 0 0 1 -1.6 -4.7 7.07 7.07 0 0 1 1.8 -5 6 6 0 0 1 4.63 -1.95 7 7 0 0 1 2.84 0.6v1.3a5.63 5.63 0 0 0 -3 -0.85 4.6 4.6 0 0 0 -3.66 1.62 6.19 6.19 0 0 0 -1.4 4.2 6 6 0 0 0 1.28 4 4.22 4.22 0 0 0 3.39 1.51 5.59 5.59 0 0 0 3.36 -1z" transform="translate(20.86 -.84)"/>
   <path d="m252 221.38a5.62 5.62 0 0 1 -4.44 -1.85 8 8 0 0 1 0.08 -9.8 5.91 5.91 0 0 1 4.5 -1.8 5.5 5.5 0 0 1 4.33 1.79 7.21 7.21 0 0 1 1.59 5 7.09 7.09 0 0 1 -1.62 4.85 5.59 5.59 0 0 1 -4.44 1.81zm0-12.38a4.57 4.57 0 0 0 -3.61 1.53 6.21 6.21 0 0 0 -1.35 4.24 6 6 0 0 0 1.31 4 4.49 4.49 0 0 0 3.59 1.53 4.38 4.38 0 0 0 3.57 -1.5 7.65 7.65 0 0 0 0 -8.38 4.37 4.37 0 0 0 -3.51 -1.42z" transform="translate(20.86 -.84)"/>
   <path d="m269.91 221.07v-7.46q0-4.62-3.33-4.62a3.86 3.86 0 0 0 -3 1.36 4.92 4.92 0 0 0 -1.19 3.36v7.36h-1.19v-12.82h1.15v2.33h0.05a4.64 4.64 0 0 1 4.38 -2.64 3.83 3.83 0 0 1 3.18 1.38 6.21 6.21 0 0 1 1.1 4v7.8z" transform="translate(20.86 -.84)"/>
   <path d="m280 220.89a4 4 0 0 1 -1.69 0.43q-2.84 0-2.84-3.41v-8.61h-2.3v-1.05h2.3v-3.33l0.58-0.2 0.58-0.19v3.72h3.37v1.05h-3.38v8.46a3.4 3.4 0 0 0 0.42 1.92 1.62 1.62 0 0 0 1.42 0.6 3.18 3.18 0 0 0 1.54 -0.46z" transform="translate(20.86 -.84)"/>
   <path d="m288.58 209.45a2.26 2.26 0 0 0 -1.35 -0.41 3 3 0 0 0 -2.54 1.56 8.09 8.09 0 0 0 -1 4.44v6h-1.13v-12.79h1.13v2.84h0.05a4.67 4.67 0 0 1 1.39 -2.28 3.29 3.29 0 0 1 2.2 -0.81 3.41 3.41 0 0 1 1.28 0.23z" transform="translate(20.86 -.84)"/>
   <path d="m295.63 221.38a5.62 5.62 0 0 1 -4.44 -1.85 8 8 0 0 1 0.08 -9.8 5.91 5.91 0 0 1 4.5 -1.8 5.5 5.5 0 0 1 4.33 1.79 7.21 7.21 0 0 1 1.59 5 7.09 7.09 0 0 1 -1.62 4.85 5.59 5.59 0 0 1 -4.44 1.81zm0.09-12.39a4.57 4.57 0 0 0 -3.61 1.53 6.21 6.21 0 0 0 -1.35 4.24 6 6 0 0 0 1.31 4 4.49 4.49 0 0 0 3.59 1.53 4.38 4.38 0 0 0 3.57 -1.5 7.65 7.65 0 0 0 0 -8.38 4.37 4.37 0 0 0 -3.51 -1.41z" transform="translate(20.86 -.84)"/>
   <path d="m304.87 221.07v-19h1.13v19z" transform="translate(20.86 -.84)"/>
   <path d="m310.92 221.3a1 1 0 0 1 -0.71 -0.29 1 1 0 0 1 -0.29 -0.72 1 1 0 0 1 0.29 -0.72 1 1 0 0 1 0.71 -0.28 1 1 0 0 1 0.73 0.28 1 1 0 0 1 0.3 0.72 1 1 0 0 1 -0.3 0.72 1 1 0 0 1 -0.73 0.29z" transform="translate(20.86 -.84)"/>
   <path d="m42.49 270a7.73 7.73 0 0 1 -6.07 -2.53 9.49 9.49 0 0 1 -2.26 -6.57 9.91 9.91 0 0 1 2.32 -6.9 8.09 8.09 0 0 1 6.34 -2.59 7.55 7.55 0 0 1 5.88 2.49 9.34 9.34 0 0 1 2.3 6.5 10.09 10.09 0 0 1 -2.3 7 7.89 7.89 0 0 1 -6.21 2.6zm0.13-17.44a6.6 6.6 0 0 0 -5.15 2.27 8.58 8.58 0 0 0 -2 5.93 8.67 8.67 0 0 0 1.92 5.9 6.44 6.44 0 0 0 5.11 2.2 6.71 6.71 0 0 0 5.27 -2.17 8.77 8.77 0 0 0 1.94 -6.05 8.64 8.64 0 0 0 -1.9 -5.94 6.56 6.56 0 0 0 -5.2 -2.17z" transform="translate(20.86 -.84)"/>
   <path d="m63.08 269.65v-7.46q0-4.62-3.33-4.62a3.86 3.86 0 0 0 -3 1.36 4.92 4.92 0 0 0 -1.19 3.36v7.36h-1.19v-12.82h1.15v2.33h0.05a4.64 4.64 0 0 1 4.43 -2.64 3.83 3.83 0 0 1 3.18 1.38 6.21 6.21 0 0 1 1.1 4v7.8z" transform="translate(20.86 -.84)"/>
   <path d="m80.26 270a5.62 5.62 0 0 1 -4.44 -1.85 8 8 0 0 1 0.08 -9.8 5.91 5.91 0 0 1 4.5 -1.8 5.5 5.5 0 0 1 4.33 1.79 7.21 7.21 0 0 1 1.59 5 7.09 7.09 0 0 1 -1.62 4.85 5.59 5.59 0 0 1 -4.44 1.81zm0.09-12.39a4.57 4.57 0 0 0 -3.61 1.53 6.21 6.21 0 0 0 -1.35 4.24 6 6 0 0 0 1.31 4 4.49 4.49 0 0 0 3.59 1.53 4.38 4.38 0 0 0 3.57 -1.5 7.65 7.65 0 0 0 0 -8.38 4.37 4.37 0 0 0 -3.51 -1.46z" transform="translate(20.86 -.84)"/>
   <path d="m98 269.65v-2.33h-0.05a4.37 4.37 0 0 1 -4.17 2.68q-4.54 0-4.54-5.72v-7.41h1.16v7.13a6.51 6.51 0 0 0 0.86 3.78 3.11 3.11 0 0 0 2.7 1.18 3.61 3.61 0 0 0 2.9 -1.31 5.26 5.26 0 0 0 1.14 -3.56v-7.26h1.15v12.82z" transform="translate(20.86 -.84)"/>
   <path d="m109.27 258a2.26 2.26 0 0 0 -1.35 -0.41 3 3 0 0 0 -2.54 1.56 8.09 8.09 0 0 0 -1 4.44v6h-1.13v-12.76h1.13v2.84h0.05a4.67 4.67 0 0 1 1.39 -2.28 3.29 3.29 0 0 1 2.2 -0.81 3.41 3.41 0 0 1 1.28 0.23z" transform="translate(20.86 -.84)"/>
   <path d="m123.24 251.3v18.35h-1.15v-16.54a9.15 9.15 0 0 1 -2 1.43 16.74 16.74 0 0 1 -2.42 1.06v-1.05a11.84 11.84 0 0 0 1.46 -0.59 12.54 12.54 0 0 0 2.5 -1.62q0.58-0.48 1.18-1z" transform="translate(20.86 -.84)"/>
   <path d="m132.26 270a4.35 4.35 0 0 1 -3.88 -2.28 12.75 12.75 0 0 1 -1.4 -6.62q0-4.79 1.47-7.23a4.65 4.65 0 0 1 4.2 -2.44q5.18 0 5.18 9.2 0 4.58-1.46 7a4.58 4.58 0 0 1 -4.11 2.37zm0.29-17.52a3.54 3.54 0 0 0 -3.22 2.12 13.67 13.67 0 0 0 -1.15 6.35 12.86 12.86 0 0 0 1.1 5.93 3.36 3.36 0 0 0 6.23 0 13.21 13.21 0 0 0 1.11 -6q-0.01-8.43-4.08-8.43z" transform="translate(20.86 -.84)"/>
   <path d="m145.46 270a4.35 4.35 0 0 1 -3.88 -2.28 12.75 12.75 0 0 1 -1.4 -6.62q0-4.79 1.47-7.23a4.65 4.65 0 0 1 4.2 -2.44q5.18 0 5.18 9.2 0 4.58-1.46 7a4.58 4.58 0 0 1 -4.11 2.37zm0.29-17.52a3.54 3.54 0 0 0 -3.22 2.12 13.67 13.67 0 0 0 -1.15 6.35 12.86 12.86 0 0 0 1.1 5.93 3.36 3.36 0 0 0 6.23 0 13.21 13.21 0 0 0 1.11 -6q0-8.43-4.07-8.43z" transform="translate(20.86 -.84)"/>
   <path d="m157.4 260.53a3.84 3.84 0 0 1 -3 -1.26 4.78 4.78 0 0 1 -1.11 -3.28 4.7 4.7 0 0 1 1.18 -3.41 4.12 4.12 0 0 1 3.1 -1.22 3.83 3.83 0 0 1 3 1.21 4.87 4.87 0 0 1 1.1 3.39 4.78 4.78 0 0 1 -1.15 3.26 3.87 3.87 0 0 1 -3.12 1.31zm0.1-8.15a2.85 2.85 0 0 0 -2.27 1 3.94 3.94 0 0 0 -0.83 2.67 3.83 3.83 0 0 0 0.81 2.57 3.06 3.06 0 0 0 4.46 0 4 4 0 0 0 0.81 -2.62 3.88 3.88 0 0 0 -0.8 -2.66 2.76 2.76 0 0 0 -2.18 -0.96zm-0.08 17.69h-1.24l10.82-18.35h1.2zm9.79-0.1a3.85 3.85 0 0 1 -3 -1.26 4.76 4.76 0 0 1 -1.12 -3.28 4.67 4.67 0 0 1 1.2 -3.43 4.15 4.15 0 0 1 3.08 -1.21 3.81 3.81 0 0 1 3 1.23 4.9 4.9 0 0 1 1.1 3.39 4.78 4.78 0 0 1 -1.15 3.26 3.87 3.87 0 0 1 -3.11 1.33zm0.1-8.16a2.83 2.83 0 0 0 -2.27 1 4 4 0 0 0 -0.84 2.67 3.83 3.83 0 0 0 0.8 2.52 3.08 3.08 0 0 0 4.47 0 4 4 0 0 0 0.81 -2.62 3.9 3.9 0 0 0 -0.8 -2.67 2.77 2.77 0 0 0 -2.17 -0.91z" transform="translate(20.86 -.84)"/>
   <path d="m182.6 267.37h-0.05v2.28h-1.15v-19h1.15v8.8h0.05a5.06 5.06 0 0 1 2 -2.18 5.38 5.38 0 0 1 2.82 -0.77 4.64 4.64 0 0 1 3.81 1.68 7 7 0 0 1 1.37 4.58 8.07 8.07 0 0 1 -1.6 5.24 5 5 0 0 1 -4.13 2 4.52 4.52 0 0 1 -4.27 -2.63zm-0.05-4.77v1.62a4.85 4.85 0 0 0 1.21 3.31 4 4 0 0 0 3.19 1.38 3.78 3.78 0 0 0 3.19 -1.68 7.35 7.35 0 0 0 1.23 -4.43 6 6 0 0 0 -1.13 -3.82 3.65 3.65 0 0 0 -3 -1.41 4.22 4.22 0 0 0 -3.47 1.5 5.41 5.41 0 0 0 -1.22 3.53z" transform="translate(20.86 -.84)"/>
   <path d="m195.76 269.65v-19h1.15v19z" transform="translate(20.86 -.84)"/>
   <path d="m206.16 270a5.62 5.62 0 0 1 -4.44 -1.85 8 8 0 0 1 0.08 -9.8 5.91 5.91 0 0 1 4.5 -1.8 5.5 5.5 0 0 1 4.33 1.79 7.21 7.21 0 0 1 1.59 5 7.09 7.09 0 0 1 -1.62 4.85 5.59 5.59 0 0 1 -4.44 1.81zm0.09-12.39a4.57 4.57 0 0 0 -3.61 1.53 6.21 6.21 0 0 0 -1.35 4.24 6 6 0 0 0 1.31 4 4.49 4.49 0 0 0 3.59 1.53 4.38 4.38 0 0 0 3.57 -1.5 7.65 7.65 0 0 0 0 -8.38 4.37 4.37 0 0 0 -3.51 -1.46z" transform="translate(20.86 -.84)"/>
   <path d="m223.7 269.09a6.39 6.39 0 0 1 -3.41 0.88 5.38 5.38 0 0 1 -4.22 -1.8 6.79 6.79 0 0 1 -1.6 -4.7 7.07 7.07 0 0 1 1.8 -5 6 6 0 0 1 4.63 -1.95 7 7 0 0 1 2.84 0.6v1.3a5.63 5.63 0 0 0 -3 -0.85 4.6 4.6 0 0 0 -3.66 1.62 6.19 6.19 0 0 0 -1.4 4.2 6 6 0 0 0 1.28 4 4.22 4.22 0 0 0 3.39 1.51 5.59 5.59 0 0 0 3.36 -1z" transform="translate(20.86 -.84)"/>
   <path d="m234.12 269.65-6.12-6.33h-0.05v6.34h-1.15v-19h1.15v12.24h0.05l5.82-6.07h1.49l-6.1 6.17 6.57 6.61z" transform="translate(20.86 -.84)"/>
   <path d="m246.46 269.09a6.39 6.39 0 0 1 -3.41 0.88 5.38 5.38 0 0 1 -4.22 -1.8 6.79 6.79 0 0 1 -1.6 -4.7 7.07 7.07 0 0 1 1.8 -5 6 6 0 0 1 4.63 -1.95 7 7 0 0 1 2.84 0.6v1.3a5.63 5.63 0 0 0 -3 -0.85 4.6 4.6 0 0 0 -3.66 1.62 6.19 6.19 0 0 0 -1.4 4.2 6 6 0 0 0 1.28 4 4.22 4.22 0 0 0 3.39 1.51 5.59 5.59 0 0 0 3.36 -1z" transform="translate(20.86 -.84)"/>
   <path d="m258.26 269.65v-7.65a5.43 5.43 0 0 0 -0.83 -3.34 3.07 3.07 0 0 0 -2.58 -1.06 3.93 3.93 0 0 0 -2.9 1.29 5.09 5.09 0 0 0 -1.25 3.69v7.1h-1.15v-19h1.15v8.46h0.05a4.82 4.82 0 0 1 4.41 -2.62 3.85 3.85 0 0 1 3.17 1.34 6 6 0 0 1 1.09 3.84v8z" transform="translate(20.86 -.84)"/>
   <path d="m270.93 269.65v-2.57h-0.05a5 5 0 0 1 -1.78 2.1 4.58 4.58 0 0 1 -2.6 0.78 4 4 0 0 1 -2.89 -1 3.45 3.45 0 0 1 -1.06 -2.59q0-3.35 4.44-4.06l3.94-0.59q0-4.13-3.1-4.13a6.33 6.33 0 0 0 -4.12 1.7v-1.39a6.29 6.29 0 0 1 1.93 -1 7.39 7.39 0 0 1 2.3 -0.4 3.87 3.87 0 0 1 3.06 1.23 5.23 5.23 0 0 1 1.08 3.57v8.34zm-3.53-6.39a6.11 6.11 0 0 0 -2.83 0.93 2.91 2.91 0 0 0 -0.06 4 2.89 2.89 0 0 0 2.11 0.74 4 4 0 0 0 3.08 -1.37 5.1 5.1 0 0 0 1.23 -3.54v-1.25z" transform="translate(20.86 -.84)"/>
   <path d="m276.5 253.6a1 1 0 0 1 -1 -1 0.84 0.84 0 0 1 0.29 -0.67 1 1 0 0 1 0.66 -0.26 1 1 0 0 1 0.68 0.25 0.84 0.84 0 0 1 0.29 0.68 1 1 0 0 1 -1 1zm-0.56 16.05v-12.82h1.15v12.82z" transform="translate(20.86 -.84)"/>
   <path d="m289.91 269.65v-7.46q0-4.62-3.33-4.62a3.86 3.86 0 0 0 -3 1.36 4.92 4.92 0 0 0 -1.19 3.36v7.36h-1.15v-12.82h1.15v2.33h0.05a4.64 4.64 0 0 1 4.38 -2.64 3.83 3.83 0 0 1 3.18 1.38 6.21 6.21 0 0 1 1.1 4v7.8z" transform="translate(20.86 -.84)"/>
   <path d="m303.14 267.37h-0.05v8.18h-1.15v-18.72h1.15v2.64h0.05a5.06 5.06 0 0 1 2 -2.18 5.38 5.38 0 0 1 2.82 -0.77 4.64 4.64 0 0 1 3.81 1.68 7 7 0 0 1 1.37 4.58 8.13 8.13 0 0 1 -1.57 5.2 5 5 0 0 1 -4.15 2 4.52 4.52 0 0 1 -4.28 -2.61zm-0.05-4.77v1.62a4.85 4.85 0 0 0 1.21 3.31 4 4 0 0 0 3.19 1.38 3.78 3.78 0 0 0 3.19 -1.68 7.35 7.35 0 0 0 1.23 -4.43 6 6 0 0 0 -1.13 -3.82 3.65 3.65 0 0 0 -3 -1.41 4.22 4.22 0 0 0 -3.47 1.5 5.41 5.41 0 0 0 -1.22 3.53z" transform="translate(20.86 -.84)"/>
   <path d="m316.3 269.65v-19h1.15v19z" transform="translate(20.86 -.84)"/>
   <path d="m329.22 269.65v-2.57h-0.05a5 5 0 0 1 -1.78 2.1 4.58 4.58 0 0 1 -2.6 0.78 4 4 0 0 1 -2.89 -1 3.45 3.45 0 0 1 -1.06 -2.59q0-3.35 4.44-4.06l3.94-0.59q0-4.13-3.1-4.13a6.33 6.33 0 0 0 -4.12 1.7v-1.39a6.29 6.29 0 0 1 1.93 -1 7.39 7.39 0 0 1 2.3 -0.4 3.87 3.87 0 0 1 3.06 1.23 5.23 5.23 0 0 1 1.08 3.57v8.34zm-3.53-6.39a6.11 6.11 0 0 0 -2.83 0.93 2.91 2.91 0 0 0 -0.06 4 2.89 2.89 0 0 0 2.11 0.74 4 4 0 0 0 3.08 -1.37 5.1 5.1 0 0 0 1.23 -3.54v-1.25z" transform="translate(20.86 -.84)"/>
   <path d="m339.3 269.48a4 4 0 0 1 -1.69 0.43q-2.84 0-2.84-3.41v-8.61h-2.3v-1.05h2.3v-3.34l0.58-0.2 0.58-0.19v3.72h3.38v1.05h-3.38v8.46a3.4 3.4 0 0 0 0.42 1.92 1.62 1.62 0 0 0 1.42 0.6 3.18 3.18 0 0 0 1.54 -0.46z" transform="translate(20.86 -.84)"/>
   <path d="m347.45 251.89a2.25 2.25 0 0 0 -1.4 -0.36q-2.37 0-2.37 3.18v2.13h3.39v1.05h-3.39v11.77h-1.15v-11.78h-2.3v-1.05h2.3v-2.23a4.25 4.25 0 0 1 1 -3.08 3.4 3.4 0 0 1 2.55 -1.05 3.36 3.36 0 0 1 1.35 0.24z" transform="translate(20.86 -.84)"/>
   <path d="m354.06 270a5.62 5.62 0 0 1 -4.44 -1.85 8 8 0 0 1 0.08 -9.8 5.91 5.91 0 0 1 4.5 -1.8 5.5 5.5 0 0 1 4.33 1.79 7.21 7.21 0 0 1 1.59 5 7.09 7.09 0 0 1 -1.62 4.85 5.59 5.59 0 0 1 -4.44 1.81zm0.09-12.39a4.57 4.57 0 0 0 -3.61 1.53 6.21 6.21 0 0 0 -1.35 4.24 6 6 0 0 0 1.31 4 4.49 4.49 0 0 0 3.59 1.53 4.38 4.38 0 0 0 3.57 -1.5 7.65 7.65 0 0 0 0 -8.38 4.37 4.37 0 0 0 -3.51 -1.46z" transform="translate(20.86 -.84)"/>
   <path d="m369.35 258a2.26 2.26 0 0 0 -1.35 -0.41 3 3 0 0 0 -2.54 1.56 8.09 8.09 0 0 0 -1 4.44v6h-1.16v-12.76h1.13v2.84h0.05a4.67 4.67 0 0 1 1.39 -2.28 3.29 3.29 0 0 1 2.2 -0.81 3.41 3.41 0 0 1 1.28 0.23z" transform="translate(20.86 -.84)"/>
   <path d="m387.76 269.65v-7.71a5.69 5.69 0 0 0 -0.76 -3.39 2.84 2.84 0 0 0 -2.4 -1 3.33 3.33 0 0 0 -2.62 1.3 4.88 4.88 0 0 0 -1.1 3.27v7.51h-1.15v-7.8q0-4.28-3.26-4.28a3.2 3.2 0 0 0 -2.6 1.31 5.28 5.28 0 0 0 -1 3.39v7.39h-1.15v-12.81h1.15v2.17h0.05a4.25 4.25 0 0 1 3.92 -2.44 3.69 3.69 0 0 1 2.4 0.81 4 4 0 0 1 1.35 2.12 4.9 4.9 0 0 1 1.72 -2.16 4.21 4.21 0 0 1 2.44 -0.77q4.21 0 4.21 5.21v7.93z" transform="translate(20.86 -.84)"/>
   <path d="m393.55 269.88a1 1 0 0 1 -0.71 -0.29 1 1 0 0 1 -0.29 -0.72 1 1 0 0 1 0.29 -0.72 1 1 0 0 1 0.71 -0.28 1 1 0 0 1 0.73 0.28 1 1 0 0 1 0.3 0.72 1 1 0 0 1 -0.3 0.72 1 1 0 0 1 -0.73 0.29z" transform="translate(20.86 -.84)"/>
   <g fill="#515b5b">
    <path d="m47.24 60.1a12.59 12.59 0 0 1 -9.47 -3.78 13.58 13.58 0 0 1 -3.66 -9.85 14.55 14.55 0 0 1 3.72 -10.37 12.86 12.86 0 0 1 9.84 -4 12.27 12.27 0 0 1 9.33 3.82 14 14 0 0 1 3.57 10 14.32 14.32 0 0 1 -3.67 10.28 12.72 12.72 0 0 1 -9.66 3.9zm0.26-22.72a6.13 6.13 0 0 0 -5.09 2.4 10 10 0 0 0 -1.89 6.36 9.84 9.84 0 0 0 1.89 6.36 6.51 6.51 0 0 0 9.94 0.07 9.73 9.73 0 0 0 1.85 -6.31 10.55 10.55 0 0 0 -1.79 -6.54 5.84 5.84 0 0 0 -4.91 -2.34z" class="cls-60" transform="translate(20.86 -.84)"/>
    <path d="m83.16 59.63h-5.94v-10.73q0-4.49-3.21-4.49a3.18 3.18 0 0 0 -2.55 1.19 4.53 4.53 0 0 0 -1 3v11h-6v-19.28h6v3.05h0.08a6.83 6.83 0 0 1 6.2 -3.53q6.41 0 6.41 8z" class="cls-60" transform="translate(20.86 -.84)"/>
    <path d="m105.22 51.67h-12.59q0.3 4.21 5.3 4.21a10.35 10.35 0 0 0 5.6 -1.51v4.3a14.71 14.71 0 0 1 -7 1.43 9.79 9.79 0 0 1 -7.26 -2.59 9.79 9.79 0 0 1 -2.58 -7.23 10.33 10.33 0 0 1 2.79 -7.62 9.3 9.3 0 0 1 6.86 -2.81 8.44 8.44 0 0 1 6.53 2.51 9.66 9.66 0 0 1 2.31 6.81zm-5.52-3.67q0-4.15-3.36-4.15a3.2 3.2 0 0 0 -2.48 1.19 5.39 5.39 0 0 0 -1.27 3z" class="cls-60" transform="translate(20.86 -.84)"/>
    <path d="m120 59.63v-27h9.84q4.53 0 7 1.66a5.34 5.34 0 0 1 2.43 4.68 5.54 5.54 0 0 1 -1.48 3.83 7.78 7.78 0 0 1 -3.79 2.2v0.08a7.49 7.49 0 0 1 4.61 2.13 6 6 0 0 1 1.73 4.32 7.22 7.22 0 0 1 -2.66 5.89 11.13 11.13 0 0 1 -7.26 2.18zm6.09-22.55v6.41h2.68a4.46 4.46 0 0 0 3 -0.91 3.12 3.12 0 0 0 1.08 -2.52q0-3-4.45-3zm0 10.94v7.13h3.3a5.08 5.08 0 0 0 3.31 -1 3.28 3.28 0 0 0 1.2 -2.68 3.06 3.06 0 0 0 -1.18 -2.55 5.22 5.22 0 0 0 -3.29 -0.92z" class="cls-60" transform="translate(20.86 -.84)"/>
    <path d="m150.14 59.63h-6v-28.63h6z" class="cls-60" transform="translate(20.86 -.84)"/>
    <path d="m164.36 60.1a10.38 10.38 0 0 1 -7.59 -2.71 9.81 9.81 0 0 1 -2.77 -7.39 9.81 9.81 0 0 1 2.87 -7.5 10.83 10.83 0 0 1 7.75 -2.71 10.26 10.26 0 0 1 7.54 2.71 9.62 9.62 0 0 1 2.73 7.16 10.21 10.21 0 0 1 -2.82 7.6 10.5 10.5 0 0 1 -7.71 2.84zm0.15-15.69a4 4 0 0 0 -3.28 1.45 6.4 6.4 0 0 0 -1.17 4.14q0 5.56 4.49 5.56 4.28 0 4.28-5.71 0-5.44-4.32-5.44z" class="cls-60" transform="translate(20.86 -.84)"/>
    <path d="m193.4 58.93a11.78 11.78 0 0 1 -5.83 1.17 9.85 9.85 0 0 1 -7.2 -2.7 9.31 9.31 0 0 1 -2.75 -7 10.26 10.26 0 0 1 3 -7.76 10.91 10.91 0 0 1 7.89 -2.84 10.13 10.13 0 0 1 4.94 0.91v5.05a6.79 6.79 0 0 0 -4.17 -1.4 5.49 5.49 0 0 0 -4.06 1.5 5.59 5.59 0 0 0 -1.5 4.14 5.5 5.5 0 0 0 1.43 4 5.26 5.26 0 0 0 3.85 1.54 7.87 7.87 0 0 0 4.36 -1.4z" class="cls-60" transform="translate(20.86 -.84)"/>
    <path d="m216.66 59.63h-7.15l-6.17-9.63h-0.08v9.58h-6v-28.58h6v18.2h0.08l5.75-8.92h7.07l-6.92 9.07z" class="cls-60" transform="translate(20.86 -.84)"/>
    <path d="m233 58.93a11.78 11.78 0 0 1 -5.83 1.17 9.85 9.85 0 0 1 -7.2 -2.7 9.31 9.31 0 0 1 -2.75 -7 10.26 10.26 0 0 1 3 -7.76 10.91 10.91 0 0 1 7.78 -2.79 10.13 10.13 0 0 1 4.94 0.91v5.05a6.79 6.79 0 0 0 -4.17 -1.4 5.49 5.49 0 0 0 -4.06 1.5 5.59 5.59 0 0 0 -1.5 4.14 5.5 5.5 0 0 0 1.43 4 5.26 5.26 0 0 0 3.94 1.46 7.87 7.87 0 0 0 4.36 -1.4z" class="cls-60" transform="translate(20.86 -.84)"/>
    <path d="m255.43 59.63h-5.94v-11q0-4.24-3.09-4.24a3.17 3.17 0 0 0 -2.56 1.19 4.58 4.58 0 0 0 -1 3v11h-6v-28.58h6v12.18h0.08a6.77 6.77 0 0 1 5.94 -3.34q6.56 0 6.56 7.92z" class="cls-60" transform="translate(20.86 -.84)"/>
    <path d="m276.21 59.63h-5.64v-2.77h-0.08a6.29 6.29 0 0 1 -5.75 3.24 6 6 0 0 1 -4.42 -1.59 5.71 5.71 0 0 1 -1.61 -4.25q0-5.62 6.66-6.49l5.24-0.7q0-3.17-3.43-3.17a11.72 11.72 0 0 0 -6.57 2.1v-4.53a14.76 14.76 0 0 1 3.4 -1.13 17.88 17.88 0 0 1 3.93 -0.49q8.26 0 8.26 8.24zm-5.6-7.84v-1.3l-3.51 0.45q-2.9 0.38-2.9 2.62a2.17 2.17 0 0 0 0.71 1.67 2.72 2.72 0 0 0 1.91 0.65 3.53 3.53 0 0 0 2.73 -1.16 4.19 4.19 0 0 0 1.06 -2.94z" class="cls-60" transform="translate(20.86 -.84)"/>
    <path d="m283.94 37.26a3.48 3.48 0 0 1 -2.47 -0.9 2.89 2.89 0 0 1 -1 -2.2 2.78 2.78 0 0 1 1 -2.19 4 4 0 0 1 5 0 2.8 2.8 0 0 1 1 2.19 2.88 2.88 0 0 1 -1 2.23 3.54 3.54 0 0 1 -2.53 0.87zm2.94 22.37h-6v-19.31h6z" class="cls-60" transform="translate(20.86 -.84)"/>
    <path d="m310.55 59.63h-5.94v-10.73q0-4.49-3.21-4.49a3.18 3.18 0 0 0 -2.55 1.19 4.53 4.53 0 0 0 -1 3v11h-6v-19.28h6v3.05h0.08a6.83 6.83 0 0 1 6.2 -3.53q6.41 0 6.41 8z" class="cls-60" transform="translate(20.86 -.84)"/>
    <path d="m349.91 59.63h-6.11v-11h-11.2v11h-6.1v-27h6.09v10.74h11.2v-10.78h6.11z" class="cls-60" transform="translate(20.86 -.84)"/>
    <path d="m373.86 59.63h-5.94v-2.94h-0.09a6.74 6.74 0 0 1 -5.9 3.41q-6.71 0-6.71-8.13v-11.65h5.94v11.12q0 4.09 3.24 4.09a3.21 3.21 0 0 0 2.6 -1.12 4.52 4.52 0 0 0 1 -3v-11.09h5.94z" class="cls-60" transform="translate(20.86 -.84)"/>
    <path d="m384.91 57.38h-0.08v2.24h-6v-28.62h6v12.22h0.08a7.07 7.07 0 0 1 6.28 -3.38 6.89 6.89 0 0 1 5.75 2.56 11.06 11.06 0 0 1 2 7 12 12 0 0 1 -2.36 7.75 7.68 7.68 0 0 1 -6.3 2.92 6.08 6.08 0 0 1 -5.37 -2.69zm-0.17-8.15v2a4.52 4.52 0 0 0 1.07 3.09 3.5 3.5 0 0 0 2.75 1.23 3.65 3.65 0 0 0 3.16 -1.55 7.61 7.61 0 0 0 1.12 -4.46 6 6 0 0 0 -1 -3.74 3.47 3.47 0 0 0 -2.93 -1.35 3.79 3.79 0 0 0 -3 1.34 5.08 5.08 0 0 0 -1.17 3.45z" class="cls-60" transform="translate(20.86 -.84)"/>
    <path d="m55.19 113a17.83 17.83 0 0 1 -7.73 1.43q-6.22 0-9.79-3.66a13.37 13.37 0 0 1 -3.56 -9.77 14.29 14.29 0 0 1 4 -10.52 14 14 0 0 1 10.4 -4 19.45 19.45 0 0 1 6.68 1v5.86a11.83 11.83 0 0 0 -6.19 -1.61 8.21 8.21 0 0 0 -6.15 2.39 8.89 8.89 0 0 0 -2.34 6.49 8.72 8.72 0 0 0 2.21 6.25 7.79 7.79 0 0 0 5.94 2.33 12.67 12.67 0 0 0 6.52 -1.73z" class="cls-60" transform="translate(20.86 -.84)"/>
    <path d="m68.53 114.46a10.38 10.38 0 0 1 -7.59 -2.71 9.81 9.81 0 0 1 -2.76 -7.34 9.81 9.81 0 0 1 2.82 -7.5 10.83 10.83 0 0 1 7.75 -2.71 10.26 10.26 0 0 1 7.54 2.71 9.62 9.62 0 0 1 2.73 7.16 10.21 10.21 0 0 1 -2.82 7.6 10.5 10.5 0 0 1 -7.67 2.79zm0.15-15.69a4 4 0 0 0 -3.28 1.45 6.4 6.4 0 0 0 -1.17 4.11q0 5.56 4.49 5.56 4.28 0 4.28-5.71 0-5.41-4.32-5.41z" class="cls-60" transform="translate(20.86 -.84)"/>
    <path d="m101.58 114h-5.94v-10.75q0-4.49-3.21-4.49a3.18 3.18 0 0 0 -2.54 1.24 4.53 4.53 0 0 0 -1 3v11h-6v-19.33h6v3.05h0.11a6.83 6.83 0 0 1 6.2 -3.53q6.41 0 6.41 8z" class="cls-60" transform="translate(20.86 -.84)"/>
    <path d="m124.95 114h-5.95v-10.75q0-4.49-3.21-4.49a3.18 3.18 0 0 0 -2.55 1.19 4.53 4.53 0 0 0 -1 3v11h-6v-19.28h6v3.05h0.08a6.83 6.83 0 0 1 6.2 -3.53q6.41 0 6.41 8z" class="cls-60" transform="translate(20.86 -.84)"/>
    <path d="m147 106h-12.6q0.3 4.21 5.3 4.21a10.35 10.35 0 0 0 5.6 -1.51v4.3a14.71 14.71 0 0 1 -7 1.43 9 9 0 0 1 -9.84 -9.83 10.33 10.33 0 0 1 2.84 -7.6 9.3 9.3 0 0 1 6.86 -2.81 8.44 8.44 0 0 1 6.53 2.51 9.66 9.66 0 0 1 2.31 6.81zm-5.53-3.66q0-4.15-3.36-4.15a3.2 3.2 0 0 0 -2.48 1.19 5.39 5.39 0 0 0 -1.27 3z" class="cls-60" transform="translate(20.86 -.84)"/>
    <path d="m165.19 113.29a11.78 11.78 0 0 1 -5.83 1.17 9.85 9.85 0 0 1 -7.2 -2.7 9.31 9.31 0 0 1 -2.75 -7 10.26 10.26 0 0 1 3 -7.76 10.91 10.91 0 0 1 7.89 -2.84 10.13 10.13 0 0 1 4.94 0.91v5.05a6.79 6.79 0 0 0 -4.17 -1.4 5.49 5.49 0 0 0 -4.06 1.5 5.59 5.59 0 0 0 -1.5 4.14 5.5 5.5 0 0 0 1.43 4 5.26 5.26 0 0 0 3.94 1.46 7.87 7.87 0 0 0 4.36 -1.4z" class="cls-60" transform="translate(20.86 -.84)"/>
    <path d="m180.77 113.76a8.81 8.81 0 0 1 -4 0.7q-6.3 0-6.3-6.54v-8.85h-3.13v-4.4h3.13v-4.16l5.94-1.7v5.86h4.34v4.39h-4.34v7.81q0 3 2.39 3a4 4 0 0 0 1.94 -0.55z" class="cls-60" transform="translate(20.86 -.84)"/>
    <path d="m187.14 91.62a3.48 3.48 0 0 1 -2.47 -0.9 2.89 2.89 0 0 1 -1 -2.2 2.78 2.78 0 0 1 1 -2.19 4 4 0 0 1 5 0 2.8 2.8 0 0 1 1 2.19 2.88 2.88 0 0 1 -1 2.23 3.54 3.54 0 0 1 -2.53 0.87zm2.94 22.38h-6v-19.33h6z" class="cls-60" transform="translate(20.86 -.84)"/>
    <path d="m213.75 114h-5.94v-10.75q0-4.49-3.21-4.49a3.18 3.18 0 0 0 -2.55 1.19 4.53 4.53 0 0 0 -1 3v11h-6v-19.28h6v3.05h0.08a6.83 6.83 0 0 1 6.2 -3.53q6.41 0 6.41 8z" class="cls-60" transform="translate(20.86 -.84)"/>
    <path d="m237.4 111.78q0 5.37-3.11 8.33t-9 3a14.29 14.29 0 0 1 -6.19 -1.11v-5a11.85 11.85 0 0 0 6 1.73 6.48 6.48 0 0 0 4.68 -1.59 5.72 5.72 0 0 0 1.66 -4.33v-1.53h-0.08a6.65 6.65 0 0 1 -6 3.24 7.24 7.24 0 0 1 -5.86 -2.6 10.55 10.55 0 0 1 -2.17 -7 11.75 11.75 0 0 1 2.41 -7.79 7.88 7.88 0 0 1 6.36 -2.89 5.86 5.86 0 0 1 5.28 2.72h0.08v-2.29h6zm-5.88-7.07v-1.53a4.7 4.7 0 0 0 -1.08 -3.12 3.51 3.51 0 0 0 -2.82 -1.29 3.65 3.65 0 0 0 -3.11 1.55 7.27 7.27 0 0 0 -1.13 4.36 6.14 6.14 0 0 0 1.07 3.82 3.5 3.5 0 0 0 2.94 1.4 3.65 3.65 0 0 0 3 -1.42 5.84 5.84 0 0 0 1.13 -3.77z" class="cls-60" transform="translate(20.86 -.84)"/>
    <path d="m277.4 114h-6.64l-1.92-6h-9.62l-1.9 6h-6.6l9.84-27h7.22zm-10-10.69-2.9-9.09a11.85 11.85 0 0 1 -0.45 -2.43h-0.15a10.31 10.31 0 0 1 -0.47 2.36l-2.94 9.16z" class="cls-60" transform="translate(20.86 -.84)"/>
    <path d="m286.15 114h-6v-28.6h6z" class="cls-60" transform="translate(20.86 -.84)"/>
    <path d="m297.12 114h-6v-28.6h6z" class="cls-60" transform="translate(20.86 -.84)"/>
    <path d="m332.76 113a17.83 17.83 0 0 1 -7.73 1.43q-6.22 0-9.79-3.66a13.37 13.37 0 0 1 -3.56 -9.75 14.29 14.29 0 0 1 4 -10.52 14 14 0 0 1 10.4 -4 19.45 19.45 0 0 1 6.68 1v5.86a11.83 11.83 0 0 0 -6.19 -1.62 8.21 8.21 0 0 0 -6.15 2.39 8.89 8.89 0 0 0 -2.34 6.49 8.72 8.72 0 0 0 2.21 6.25 7.79 7.79 0 0 0 5.94 2.33 12.67 12.67 0 0 0 6.52 -1.73z" class="cls-60" transform="translate(20.86 -.84)"/>
    <path d="m349.49 100a5.17 5.17 0 0 0 -2.51 -0.58 3.61 3.61 0 0 0 -3 1.42 6.21 6.21 0 0 0 -1.09 3.88v9.28h-6v-19.33h6v3.58h0.08q1.41-3.92 5.09-3.92a3.84 3.84 0 0 1 1.47 0.23z" class="cls-60" transform="translate(20.86 -.84)"/>
    <path d="m372.2 94.67-7.84 20.86q-2.83 7.52-8.52 7.52a10.92 10.92 0 0 1 -3.56 -0.49v-4.75a5 5 0 0 0 2.58 0.7 3.23 3.23 0 0 0 3.21 -2.17l1-2.39-7.84-19.27h6.6l3.6 11.75a15.27 15.27 0 0 1 0.57 2.57 18 18 0 0 1 0.62 -2.55l3.64-11.79z" class="cls-60" transform="translate(20.86 -.84)"/>
    <path d="m380.63 111.74h-0.08v11.13h-6v-28.2h6v2.9h0.08a7.58 7.58 0 0 1 12 -0.8 11 11 0 0 1 2 7 11.88 11.88 0 0 1 -2.39 7.75 7.78 7.78 0 0 1 -6.35 2.92 6 6 0 0 1 -5.26 -2.7zm-0.17-7.92v1.55a4.92 4.92 0 0 0 1.06 3.26 3.44 3.44 0 0 0 2.77 1.26 3.65 3.65 0 0 0 3.16 -1.57 7.61 7.61 0 0 0 1.12 -4.46q0-5.09-4-5.09a3.72 3.72 0 0 0 -3 1.39 5.53 5.53 0 0 0 -1.11 3.66z" class="cls-60" transform="translate(20.86 -.84)"/>
    <path d="m410.21 113.76a8.81 8.81 0 0 1 -4 0.7q-6.3 0-6.3-6.54v-8.85h-3.13v-4.4h3.13v-4.16l5.94-1.7v5.86h4.34v4.39h-4.34v7.81q0 3 2.39 3a4 4 0 0 0 1.94 -0.55z" class="cls-60" transform="translate(20.86 -.84)"/>
    <path d="m422.62 114.46a10.38 10.38 0 0 1 -7.59 -2.71 9.81 9.81 0 0 1 -2.76 -7.34 9.81 9.81 0 0 1 2.87 -7.5 10.83 10.83 0 0 1 7.75 -2.71 10.26 10.26 0 0 1 7.54 2.71 9.62 9.62 0 0 1 2.73 7.16 10.21 10.21 0 0 1 -2.82 7.6 10.5 10.5 0 0 1 -7.72 2.79zm0.15-15.69a4 4 0 0 0 -3.28 1.45 6.4 6.4 0 0 0 -1.17 4.11q0 5.56 4.49 5.56 4.28 0 4.28-5.71 0-5.41-4.32-5.41z" class="cls-60" transform="translate(20.86 -.84)"/>
   </g>
  </g>
 </g>
</svg>
