<svg xmlns="http://www.w3.org/2000/svg" viewBox="0 0 297.17 187.52"><title>IconAsset 1</title><g id="Layer_2" data-name="Layer 2"><g id="Layer_3" data-name="Layer 3"><path d="M79,59.14A34.63,34.63,0,1,0,113.6,93.76,34.67,34.67,0,0,0,79,59.14Z"/><path d="M276.69,0H20.48A20.48,20.48,0,0,0,0,20.48V167a20.48,20.48,0,0,0,20.48,20.48H276.69A20.48,20.48,0,0,0,297.17,167V20.48A20.48,20.48,0,0,0,276.69,0ZM263,99.46H126.39a47.74,47.74,0,1,1-.23-13.15H195V70.09h13.15V86.31H237.3l.22-17.53h-9.6V55.63h22.57l0,30.68H263Z"/></g></g></svg>