<svg xmlns="http://www.w3.org/2000/svg" viewBox="0 0 278 278"><title>IconAsset 2</title><g id="Layer_2" data-name="Layer 2"><g id="Layer_3" data-name="Layer 3"><path d="M93.25,118.86q-10.34,0-10.34,16.65,0,8.08,2.63,12.25a8.41,8.41,0,0,0,7.54,4.17,9.25,9.25,0,0,0,7.36-3.6q3-3.6,3-13.05,0-7.69-2.49-12.06A8.28,8.28,0,0,0,93.25,118.86Z"/><path d="M139,14.49A124.5,124.5,0,1,0,263.5,139,124.64,124.64,0,0,0,139,14.49ZM72.61,120H60.73v37.75H52.1V120H40.22v-6.9H72.61ZM106.94,152A17.15,17.15,0,0,1,93,158.41q-8.9,0-13.85-6.67t-5-16.49q0-9.75,5.27-16.31a17,17,0,0,1,13.9-6.56,16.44,16.44,0,0,1,13.76,6.56q5.05,6.56,5.05,16.41Q112.19,145.68,106.94,152Zm38.85,5.68L136.37,135l-8.64,11.45v11.29h-8V113.07h8v23.46q1.54-2.39,2.22-3.3l14.82-20.15h8.15l-10.6,14.69,12.46,30Zm44,0h-29V113.07h28.72v6.64H168.86v12.1h16.62v6.48H168.86v12.5h21Zm32.84,0L205.72,129.2l-1.28-2.13q-.39-.65-1.21-2.06v32.71h-6.48V113.07h8.9l15.64,26.3,2.85,4.81V113.07h6.35v44.66Z"/><path d="M139,0A139,139,0,1,0,278,139,139,139,0,0,0,139,0Zm0,265.49A126.5,126.5,0,1,1,265.5,139,126.64,126.64,0,0,1,139,265.49Z"/></g></g></svg>