<svg xmlns="http://www.w3.org/2000/svg" viewBox="0 0 143.37 202.34"><title>dnaAsset 1</title><g id="Layer_2" data-name="Layer 2"><g id="Layer_1-2" data-name="Layer 1"><path d="M143.35,196.75c-.73-45.75-33.59-71.05-63.69-95C110.67,77,143,50.09,143,.3H129c0,46-27.37,70.31-57.72,94.7-4.9-4-9.72-7.95-14.35-12H76.85a31.77,31.77,0,0,0,12-10.09H46.21c-3.4-3.44-6.63-7-9.63-10.7H97.85c3.3-1.86,6.23-5.54,9-10.09l-77.51.15A96.37,96.37,0,0,1,23,40.8h89.51a18.17,18.17,0,0,0,5-10.09H19A91.27,91.27,0,0,1,16,19H121c.71-2.08,1.1-5.22,1-10H14.67q-.36-4.36-.36-9H.31c0,49.39,31.82,77,62.61,101.71C33.14,125.46,1,151.18,0,196.24c0,.69,0,5.39,0,6.1H14c0-.62,0-5.23,0-5.83.77-41.3,27.93-64.58,57.27-88.09,4.9,3.92,9.74,7.81,14.41,11.76H65.89a31.77,31.77,0,0,0-12,10.09H97c3.62,3.45,7,7,10.22,10.7H44.89c-3.3,1.86-6.23,5.54-9,10.09l79-.15a87.76,87.76,0,0,1,6.6,11.46H30.22a18.17,18.17,0,0,0-5,10.09H125.47a80,80,0,0,1,2.78,11.71H21.72c-.71,2.08-1.1,5.22-1,10H129.26c0,.87.08,1.73.1,2.61,0,.53,0,5.06,0,5.59h14C143.37,201.81,143.36,197.28,143.35,196.75Z"/></g></g></svg>