<svg xmlns="http://www.w3.org/2000/svg" viewBox="0 0 456.54 418.87"><defs><style>.cls-1{fill:#bcbbbb;}.cls-18,.cls-2,.cls-6{fill:#fff;}.cls-10,.cls-11,.cls-13,.cls-14,.cls-17,.cls-2,.cls-5,.cls-6{stroke:#231f20;stroke-miterlimit:10;}.cls-10,.cls-13,.cls-14,.cls-2,.cls-5{stroke-width:3px;}.cls-14,.cls-3{fill:#f2af1d;}.cls-4{fill:#cfcfce;}.cls-15,.cls-5{fill:#231f20;}.cls-7{fill:#ea376b;}.cls-8{fill:#39bfe8;}.cls-9{fill:#77c043;}.cls-10,.cls-16,.cls-17{fill:none;}.cls-11{fill:#e0d99a;}.cls-12{fill:#faf073;}.cls-13{fill:#212120;}</style></defs><title>Scenario3whiteboard</title><g id="bg"><rect class="cls-1" x="1.17" y="277.36" width="453.54" height="9.09"/><rect class="cls-2" x="9.08" y="1.5" width="435.35" height="275.76"/><path class="cls-3" d="M184.4,78.36l-1,2.65c-.66,0-4.9-.06-5.89-.08l-2.42,0a26.37,26.37,0,0,0-4.31.31,8,8,0,0,0-3.27,1.27,7.51,7.51,0,0,0-2.36,2.81,19,19,0,0,0-1.58,5h8l-.78,2.6H163L158.32,117h-3l5.3-27.13a20.87,20.87,0,0,1,1.74-5.53,10.33,10.33,0,0,1,2.86-3.56,10.73,10.73,0,0,1,4.21-1.92,26.2,26.2,0,0,1,5.85-.57Zm-5.64,11.9h3L176.58,117h-3Z" transform="translate(-33.23 -25.19)"/><path class="cls-3" d="M185.1,117l3.38-17.25q1-5.51,3.9-7.9t8.26-2.39q5.09,0,7.46,2a7.17,7.17,0,0,1,2.36,5.8,16.39,16.39,0,0,1-.31,3.12L206.93,117h-3l3.27-16.79a14.06,14.06,0,0,0,.31-2.7q0-3.07-1.84-4.24a9.54,9.54,0,0,0-5.12-1.17,14.18,14.18,0,0,0-3.53.39,6.36,6.36,0,0,0-4.42,3.69,15.42,15.42,0,0,0-1.14,3.77l-3.33,17Z" transform="translate(-33.23 -25.19)"/><path class="cls-3" d="M223.67,90.26H233.9l-1,2.6h-9.72l-2.86,14.81a15.32,15.32,0,0,0-.31,2.7,3.48,3.48,0,0,0,1.25,3.12,7.16,7.16,0,0,0,3.9.83h4.47l-1,2.65h-3.64a10.24,10.24,0,0,1-5.92-1.4q-2-1.4-2-4.83c0-.48,0-1,.08-1.66a15.6,15.6,0,0,1,.29-1.92L222,83.4l3.12-.47Z" transform="translate(-33.23 -25.19)"/><path class="cls-3" d="M239.41,104.81a13.88,13.88,0,0,0-.21,1.56q-.05.73-.05,1.4a6.79,6.79,0,0,0,1.66,5q1.66,1.69,6,1.69l4,0q1.69,0,3.66-.18l-1,2.65q-1.71.16-3.22.18l-3.53,0a16.49,16.49,0,0,1-5-.65,8.31,8.31,0,0,1-3.27-1.84,6.85,6.85,0,0,1-1.79-2.86,12,12,0,0,1-.55-3.74,24.43,24.43,0,0,1,.62-5.41,30,30,0,0,1,2.13-6.34,13,13,0,0,1,2.94-4.05,9.8,9.8,0,0,1,3.82-2.13,16.79,16.79,0,0,1,4.73-.62q4.78,0,6.89,1.77a5.75,5.75,0,0,1,2.11,4.63,9.85,9.85,0,0,1-.31,2.39,8.8,8.8,0,0,1-1.14,2.94,6.72,6.72,0,0,1-2.08,2.05,9.41,9.41,0,0,1-3.17,1.22,22.3,22.3,0,0,1-4.47.39ZM250.17,92a12.08,12.08,0,0,0-3.82.55,7.59,7.59,0,0,0-2.88,1.74,10,10,0,0,0-2.13,3.17,25,25,0,0,0-1.51,4.83h8.32a21.09,21.09,0,0,0,3.46-.23,6.35,6.35,0,0,0,2.23-.75,4.1,4.1,0,0,0,1.38-1.35,8.65,8.65,0,0,0,.88-2,7.34,7.34,0,0,0,.26-2A3.52,3.52,0,0,0,255,93.07Q253.6,92,250.17,92Z" transform="translate(-33.23 -25.19)"/><path class="cls-3" d="M274.91,114.43l2.7,0,3.07-.08L279.59,117q-1,.1-2.47.1h-2.47q-5.92,0-8.37-2.36a8.86,8.86,0,0,1-2.44-6.68,26.24,26.24,0,0,1,.62-5.35,23.84,23.84,0,0,1,2.08-6.37,10.93,10.93,0,0,1,3.14-3.82,10.76,10.76,0,0,1,4.26-1.84,27.25,27.25,0,0,1,5.43-.49l2.34,0,2.81.08-1.09,2.65q-.88-.05-2-.08l-2.44,0a20.49,20.49,0,0,0-4.44.42,7.71,7.71,0,0,0-3.2,1.51,8.36,8.36,0,0,0-2.26,3,22.8,22.8,0,0,0-1.53,5,26.46,26.46,0,0,0-.62,5.09,8.29,8.29,0,0,0,.55,3.25,4.64,4.64,0,0,0,1.56,2,6.24,6.24,0,0,0,2.49,1A18.12,18.12,0,0,0,274.91,114.43Z" transform="translate(-33.23 -25.19)"/><path class="cls-3" d="M294.71,78.36h3L295,92.44a8,8,0,0,1,3.3-2.26,14.21,14.21,0,0,1,5-.75q4.73,0,7,1.95a7.06,7.06,0,0,1,2.29,5.69,16.32,16.32,0,0,1-.36,3.27L308.95,117h-3l3.22-16.79a14.18,14.18,0,0,0,.23-1.48,13.12,13.12,0,0,0,.08-1.33q0-3-1.77-4.16a9.18,9.18,0,0,0-5-1.14,13.89,13.89,0,0,0-3.61.42,6.89,6.89,0,0,0-2.65,1.35,7.12,7.12,0,0,0-1.85,2.5,17.4,17.4,0,0,0-1.19,3.85L290.19,117h-3Z" transform="translate(-33.23 -25.19)"/><path class="cls-1" d="M340.91,87.19,335.09,117h-8.58l5.82-29.78H320.18l2.7-7.22h31.6l-2.75,7.22Z" transform="translate(-33.23 -25.19)"/><path class="cls-1" d="M362.9,89q5.66,0,8.63,2.31t3,7.77a20,20,0,0,1-.16,2.42q-.16,1.28-.42,2.68a27,27,0,0,1-1.85,6.26,12.67,12.67,0,0,1-3,4.24,11.22,11.22,0,0,1-4.36,2.42,20.52,20.52,0,0,1-5.85.75q-5.72,0-8.65-2.31t-2.94-7.77a23.82,23.82,0,0,1,.13-2.42q.13-1.27.39-2.68a26.58,26.58,0,0,1,1.87-6.24,12.92,12.92,0,0,1,3-4.26A11.24,11.24,0,0,1,357,89.71,20.51,20.51,0,0,1,362.9,89Zm-3.33,22.35a7.18,7.18,0,0,0,2.36-.34,3.71,3.71,0,0,0,1.64-1.14,7.17,7.17,0,0,0,1.17-2.16,24,24,0,0,0,.91-3.43,25,25,0,0,0,.62-4.78q0-2.39-1-3.2a5.05,5.05,0,0,0-3.12-.81,7.23,7.23,0,0,0-2.36.34,3.7,3.7,0,0,0-1.64,1.14A6.81,6.81,0,0,0,357,99.1a27.49,27.49,0,0,0-.88,3.38,26.47,26.47,0,0,0-.62,4.83q0,2.34,1,3.17A4.81,4.81,0,0,0,359.57,111.31Z" transform="translate(-33.23 -25.19)"/><path class="cls-1" d="M393.61,102.68,403.17,117h-9.46l-7.59-11.9L383.84,117h-8l7.54-38.62h7.9l-4.11,21.26,10.29-9.82h9.77Z" transform="translate(-33.23 -25.19)"/><path class="cls-1" d="M412.89,106.58v.83a3.49,3.49,0,0,0,1.17,2.81,6.28,6.28,0,0,0,3.82.88q2.86,0,5-.05t4.47-.21l-2.34,6q-1.61.16-3.87.21t-4.81.05a17,17,0,0,1-5.38-.73,8.51,8.51,0,0,1-3.43-2,7.43,7.43,0,0,1-1.82-3.09,13.22,13.22,0,0,1-.55-3.87,23.06,23.06,0,0,1,.47-4.52,22.83,22.83,0,0,1,2.29-7,13.52,13.52,0,0,1,3.51-4.24,11.27,11.27,0,0,1,4.39-2.08,22.33,22.33,0,0,1,5-.55q5.3,0,7.87,2a6.71,6.71,0,0,1,2.57,5.67q-.05.67-.13,1.38a14.22,14.22,0,0,1-.23,1.43A7.86,7.86,0,0,1,427,105q-3,1.61-8.65,1.61Zm7.28-11.74a5.5,5.5,0,0,0-4,1.32,10,10,0,0,0-2.18,4.7h4.52a18.3,18.3,0,0,0,2.16-.1,4.37,4.37,0,0,0,1.43-.39,2.33,2.33,0,0,0,.88-.73,4,4,0,0,0,.52-1.12,4.27,4.27,0,0,0,.21-1.35,2.08,2.08,0,0,0-.78-1.72A4.54,4.54,0,0,0,420.17,94.84Z" transform="translate(-33.23 -25.19)"/><path class="cls-1" d="M439.92,117h-8.26L435,100a19.35,19.35,0,0,1,1.64-5.17,10,10,0,0,1,2.75-3.43,10.46,10.46,0,0,1,4.08-1.9,24.36,24.36,0,0,1,5.61-.57q5.56,0,8.44,2.13t2.88,6.55a11.52,11.52,0,0,1-.1,1.51q-.11.78-.26,1.66L456.91,117h-8.26l3.22-16.53q.1-.52.16-1a7,7,0,0,0,.05-.81,2.74,2.74,0,0,0-.91-2.31,4.32,4.32,0,0,0-2.68-.7,9,9,0,0,0-2.23.23,3.48,3.48,0,0,0-1.48.78,4.15,4.15,0,0,0-1,1.46,11,11,0,0,0-.65,2.31Z" transform="translate(-33.23 -25.19)"/><path class="cls-1" d="M93.54,97.79,93.1,98a1.61,1.61,0,1,0,1.64,2.78l.44-.25a1.61,1.61,0,1,0-1.64-2.78Z" transform="translate(-33.23 -25.19)"/><path class="cls-1" d="M98,94.83l-.44.25a1.61,1.61,0,1,0,1.64,2.78l.44-.25A1.61,1.61,0,1,0,98,94.83Z" transform="translate(-33.23 -25.19)"/><path class="cls-3" d="M133,72l-10.39-5.93a6.84,6.84,0,0,0-6.7-.06l-10.39,5.22a4.31,4.31,0,0,0-2.24,3.69,4.6,4.6,0,0,0,0,.56V86.05c0,5.24-1.41,5.81-1.41,5.81v0a1.64,1.64,0,0,0-.42,2.13,1.62,1.62,0,0,0,2,.71h0c.43-.23,2.23-.64,5.39,1.39.41.26,1.49.94,1.74,1.05l5.34,3.17a6.61,6.61,0,0,0,6.49,0l10.33-5.79a5.93,5.93,0,0,0,3-5.17V76.82A5.56,5.56,0,0,0,133,72Zm-13.2,10.08c0,2,0,4-.16,5.93-.06,1.07-.14,2.14-.23,3.2s-.22,2.14-.4,3.2c-.19-1.07-.27-2.14-.4-3.2s-.18-2.14-.23-3.2c-.11-2-.15-4-.16-5.94a83.2,83.2,0,0,1-9.86-6.29,83.4,83.4,0,0,1,10.69,4.93l11.86-4.93Z" transform="translate(-33.23 -25.19)"/><path class="cls-3" d="M91.15,101.12a1.73,1.73,0,0,0-2.34-.64h0c-.43.23-1.63.87-5-1.37-.41-.27-1.49-.94-1.74-1.05l-5.34-3.17a6.61,6.61,0,0,0-6.49,0l-10.33,5.79a5.93,5.93,0,0,0-3,5.17v12.61a5.56,5.56,0,0,0,2.79,4.81L70,129.16a6.84,6.84,0,0,0,6.7.06L87.1,124a4.31,4.31,0,0,0,2.24-3.69,4.59,4.59,0,0,0,0-.56V109.18c0-5.16,1.31-5.75,1.31-5.75v0A1.73,1.73,0,0,0,91.15,101.12Zm-17.7,10c0,2,0,4-.16,5.93-.06,1.07-.14,2.14-.23,3.2s-.22,2.14-.4,3.2c-.19-1.07-.27-2.14-.4-3.2s-.18-2.14-.23-3.2c-.11-2-.15-4-.16-5.94A83.15,83.15,0,0,1,62,104.8a83.46,83.46,0,0,1,10.69,4.93l11.86-4.93Z" transform="translate(-33.23 -25.19)"/><rect class="cls-4" x="361.66" y="160.2" width="38.5" height="66.5"/><rect class="cls-5" x="1.5" y="272.7" width="453.54" height="9.09"/><rect class="cls-5" x="64.13" y="262.6" width="37.37" height="8.08"/><rect class="cls-5" x="122.14" y="262.65" width="37.37" height="8.08"/><path class="cls-6" d="M411.4,254.9h-52c13.29-16.18,18.63-41.91,22-70h52C427.92,214.46,421.53,241,411.4,254.9Z" transform="translate(-33.23 -25.19)"/><ellipse class="cls-7" cx="355.54" cy="165.63" rx="3.54" ry="4.04"/><ellipse class="cls-8" cx="388.66" cy="171.2" rx="3.54" ry="4.04"/><ellipse class="cls-9" cx="381.66" cy="159.2" rx="3.54" ry="4.04"/></g><g id="people"><ellipse class="cls-1" cx="190.33" cy="390.2" rx="155" ry="28.67"/><path class="cls-10" d="M139.4,202.4a48,48,0,0,0-2.32,6c-.92,2.33-2.22,4.46-3.25,6.76-2.41,5.38-3.89,11.38-5.49,17-4.62,16.4-6.81,33.35-9,50.15-.43,3.38-2.45,13.11.26,15.81" transform="translate(-33.23 -25.19)"/><rect class="cls-11" x="79.91" y="218.95" width="53.75" height="49.5"/><rect class="cls-12" x="82.16" y="221.45" width="13.5" height="11.5"/><path class="cls-2" d="M136.4,292.9c0,4-3.64,7.25-8.12,7.25s-8.12-3.25-8.12-7.25c0-2.29,2.39-5.42,4.25-6.75.69-.5.65,4.77,1.5,4.5s1.42-5,2.37-5C132.76,285.65,136.4,288.89,136.4,292.9Z" transform="translate(-33.23 -25.19)"/><path class="cls-13" d="M176.73,332.68c-15,5.08-32.35,3.68-51-1l15-139h29Z" transform="translate(-33.23 -25.19)"/><path class="cls-2" d="M187.9,175.9c0,16.29-13.88,29.5-31,29.5s-31-13.21-31-29.5c0-10.57,3.74-23.85,14-29.5,5.55-3.06,15-4.5,21-4.5C178,141.9,187.9,159.6,187.9,175.9Z" transform="translate(-33.23 -25.19)"/><path class="cls-14" d="M327.9,328.4c-15.4,7-34.32,5.2-55-1C287.18,270,298,216.69,290.73,184.68h29C331.68,210.28,330.18,268.4,327.9,328.4Z" transform="translate(-33.23 -25.19)"/><path class="cls-2" d="M337.9,167.9c0,16.29-13.88,29.5-31,29.5s-31-13.21-31-29.5,6.23-30.42,23.33-31.17C329.9,135.4,337.9,151.6,337.9,167.9Z" transform="translate(-33.23 -25.19)"/><ellipse class="cls-15" cx="140.16" cy="143.2" rx="2.5" ry="8"/><ellipse class="cls-15" cx="262.41" cy="136.7" rx="3.75" ry="9"/><ellipse class="cls-15" cx="248.41" cy="136.2" rx="3.75" ry="9"/><path class="cls-16" d="M169.4,186.4c-.29,5.28,5.83,6.92,9,3" transform="translate(-33.23 -25.19)"/><path class="cls-15" d="M168.4,187.9a4.71,4.71,0,0,0,.48,1.65,3.18,3.18,0,0,0,1.06,1.2,5,5,0,0,0,3.35.65l.21,1a5.16,5.16,0,0,1-4.31-.51,4,4,0,0,1-1.5-1.77,4.4,4.4,0,0,1-.3-2.22Z" transform="translate(-33.23 -25.19)"/><path class="cls-15" d="M281.9,180.9a17.45,17.45,0,0,0,4.23,2.09,12.26,12.26,0,0,0,4.46.54,16,16,0,0,0,4.49-1,26.86,26.86,0,0,0,4.32-2.12,13.41,13.41,0,0,1-3.83,3.16,12.62,12.62,0,0,1-4.85,1.55,9.56,9.56,0,0,1-5.1-.81A8.34,8.34,0,0,1,281.9,180.9Z" transform="translate(-33.23 -25.19)"/><path class="cls-17" d="M161.9,206.4v-.5" transform="translate(-33.23 -25.19)"/><path class="cls-10" d="M160.9,204.4c4.28,13.83,11.88,32.55,23.89,41.9s27.31-4.61,40.11-2.9" transform="translate(-33.23 -25.19)"/><path class="cls-10" d="M292.4,196.4c-3,1.59-20.65,35.33-23.2,39.25-3.43,5.26-19.8,4.85-25.13,6.75" transform="translate(-33.23 -25.19)"/><path class="cls-17" d="M171.9,156.9c-5.45-.52-8.86,7.66-7,12" transform="translate(-33.23 -25.19)"/><path class="cls-17" d="M297.9,150.4c4.36-.93,6.12,4.08,6,7.5" transform="translate(-33.23 -25.19)"/><path class="cls-10" d="M222.4,242.9c4.51-1.45,12.17-1.26,16,1.24,4.32,2.84,7.5,9-.44,6.82,1.86,4.2-3.58,3.24-5.45,1.49C232.87,260.52,222.19,246.83,222.4,242.9Z" transform="translate(-33.23 -25.19)"/><path class="cls-2" d="M241.65,241.65" transform="translate(-33.23 -25.19)"/><path class="cls-18" d="M245.81,242.4c-2.42-4.17-9.17-4.72-12.83-3.33-3,1.12-4.7,4.6-3.51,5.76,2.08,2,4.8-1.5,7.51-2l2.75-.67" transform="translate(-33.23 -25.19)"/><path class="cls-15" d="M244.52,243.15c-1.15-1.73-3.45-2.69-5.83-2.93a12.59,12.59,0,0,0-3.58.11,8.91,8.91,0,0,0-1.6.44,4.49,4.49,0,0,0-1.25.78,5.18,5.18,0,0,0-1,1.14,2.72,2.72,0,0,0-.44,1.07c0,.11,0,.06-.09-.09l-.06-.06.06.06.08.06a.25.25,0,0,0,.17,0,2,2,0,0,0,.54-.12c1-.34,2.13-1.18,3.6-1.82a7.45,7.45,0,0,1,1.23-.41,7.73,7.73,0,0,1,1.06-.17,3.87,3.87,0,0,1,2.21.53l.19.79A4,4,0,0,1,238,244a6.17,6.17,0,0,1-.94.3,4.53,4.53,0,0,0-.7.29c-1,.49-2,1.37-3.63,2.09a5.13,5.13,0,0,1-1.44.4,3.72,3.72,0,0,1-1.84-.26,3.78,3.78,0,0,1-.81-.46,4.27,4.27,0,0,1-.33-.27,2.84,2.84,0,0,1-.4-.44,3.27,3.27,0,0,1-.59-2,5.92,5.92,0,0,1,.89-2.78,8.31,8.31,0,0,1,1.67-2,8,8,0,0,1,2.23-1.39,10.75,10.75,0,0,1,2.35-.65,15.72,15.72,0,0,1,4.62-.06,13.24,13.24,0,0,1,4.47,1.42,8.61,8.61,0,0,1,3.53,3.45Z" transform="translate(-33.23 -25.19)"/><path class="cls-10" d="M246.4,242.4c-.66,2.14-1.36,4.47-3.5,5.5" transform="translate(-33.23 -25.19)"/><path class="cls-10" d="M222.9,244.4c-3.77,3.68-1,10.67,5.5,9.33" transform="translate(-33.23 -25.19)"/><path class="cls-15" d="M221.1,232.24a4.08,4.08,0,0,1,1.43-2.76,6.05,6.05,0,0,1,2.85-1.31,8.33,8.33,0,0,1,2.86,0,8.64,8.64,0,0,1,2.65.84v.83a9.51,9.51,0,0,1-2.63.82c-.85.16-1.65.25-2.4.36a8.62,8.62,0,0,0-4.18,1.56Z" transform="translate(-33.23 -25.19)"/><path class="cls-15" d="M225.09,233.94a1.89,1.89,0,0,1,1.35-.86,1.92,1.92,0,0,1,1.53.38l-.15.87a5.63,5.63,0,0,1-1.07.38,4.34,4.34,0,0,1-1,.15Z" transform="translate(-33.23 -25.19)"/><path class="cls-15" d="M230.4,266.9a13.3,13.3,0,0,1,2.66-.62l2.55-.33c.82-.11,1.59-.27,2.33-.42a11,11,0,0,0,2.31-.74l.29.22a3.47,3.47,0,0,1-1.94,2.28,6.61,6.61,0,0,1-2.84.62,12.68,12.68,0,0,1-2.74-.25A16.9,16.9,0,0,1,230.4,266.9Z" transform="translate(-33.23 -25.19)"/><path class="cls-15" d="M232.35,262.07a7.54,7.54,0,0,1,1.41-.58,10.42,10.42,0,0,1,1.36-.33,13.92,13.92,0,0,1,2.79-.22l.46.75a3.34,3.34,0,0,1-1.34,1.12,5.42,5.42,0,0,1-1.55.5,5.15,5.15,0,0,1-1.62,0,3.49,3.49,0,0,1-1.59-.6Z" transform="translate(-33.23 -25.19)"/><path class="cls-10" d="M174.9,332.9c0,27.41-3,58.95.33,85.83,4.24.21,14.17-4.43,17.67-2.83" transform="translate(-33.23 -25.19)"/><path class="cls-10" d="M133.9,332.06c0,5.33-.72,15.42-1,20.33-.46,7.92-2,15.65-2.49,23.48-.57,8.67-.63,17.47-1.5,26-.42,4.11-2.32,14.84.36,17.65,3.23,3.39,14-8.14,18-6.8" transform="translate(-33.23 -25.19)"/><path class="cls-10" d="M322.9,192.4a138.27,138.27,0,0,1,24.37,39.91c3.27,8.39,12.83,31.41-4.9,29.6-6.52-.67-15.86-3.1-21.47-6.51" transform="translate(-33.23 -25.19)"/><path class="cls-2" d="M310.4,275.9h-34c7.27-13.81,8.64-31.12,6.5-50.5h34C317.77,246.45,318.09,266.73,310.4,275.9Z" transform="translate(-33.23 -25.19)"/><path class="cls-2" d="M322.4,255.4c.26-3.64-.86-8.21-3.81-10.44-2.5-1.89-9.43-3.85-9.62.87,1.37.3,1.41,1,2.37,1.46-3.33.75-5,5-1,6.22-5.83,5.27,8.52,6.34,12.06,3.39" transform="translate(-33.23 -25.19)"/><path class="cls-10" d="M325.4,329.4v66c0,6.09-.25,11.93-.57,17.93-3.42,1.16-10.72,2.64-13.43,2.07" transform="translate(-33.23 -25.19)"/><path class="cls-10" d="M280.9,328.9c0,13.3-8.9,59.77-10.39,67-.63,3.07-.77,13.88-2.59,16s-12.78,2.29-15.52,3" transform="translate(-33.23 -25.19)"/><path class="cls-17" d="M120.65,248.65c.07-.19,0-.5,0-.71,2.12,0,.71,7.49-2.16,1.09-.88-2-3.32-7.82-.87-9.15,1.41,1,1.52,2.61,2.25,4" transform="translate(-33.23 -25.19)"/><path class="cls-17" d="M313.56,224.73a3.49,3.49,0,0,0-1.33-2c-2.67,1.78-2.46,9.34-.33,11.4,1.26-1.29,1.11-3.8.93-5.66-.67.19-.37.5-.6,1" transform="translate(-33.23 -25.19)"/></g></svg>