<?xml version="1.0" encoding="UTF-8" standalone="no"?>
<svg
   xmlns:dc="http://purl.org/dc/elements/1.1/"
   xmlns:cc="http://creativecommons.org/ns#"
   xmlns:rdf="http://www.w3.org/1999/02/22-rdf-syntax-ns#"
   xmlns:svg="http://www.w3.org/2000/svg"
   xmlns="http://www.w3.org/2000/svg"
   xmlns:sodipodi="http://sodipodi.sourceforge.net/DTD/sodipodi-0.dtd"
   xmlns:inkscape="http://www.inkscape.org/namespaces/inkscape"
   viewBox="0 0 500 500"
   version="1.1"
   id="svg229"
   sodipodi:docname="Scenario-Handshake.svg"
   width="500"
   height="500"
   inkscape:version="0.92.2 (30a58d1, 2017-08-07)">
  <metadata
     id="metadata233">
    <rdf:RDF>
      <cc:Work
         rdf:about="">
        <dc:format>image/svg+xml</dc:format>
        <dc:type
           rdf:resource="http://purl.org/dc/dcmitype/StillImage" />
      </cc:Work>
    </rdf:RDF>
  </metadata>
  <sodipodi:namedview
     pagecolor="#ffffff"
     bordercolor="#666666"
     borderopacity="1"
     objecttolerance="10"
     gridtolerance="10"
     guidetolerance="10"
     inkscape:pageopacity="0"
     inkscape:pageshadow="2"
     inkscape:window-width="1366"
     inkscape:window-height="717"
     id="namedview231"
     showgrid="false"
     inkscape:zoom="1.078"
     inkscape:cx="250"
     inkscape:cy="250"
     inkscape:window-x="0"
     inkscape:window-y="27"
     inkscape:window-maximized="1"
     inkscape:current-layer="bg" />
  <defs
     id="defs4">
    <style
       id="style2">.cls-1,.cls-17,.cls-3,.cls-7{fill:#fff;}.cls-2{fill:#bcbbbb;}.cls-12,.cls-13,.cls-14,.cls-16,.cls-17,.cls-18,.cls-21,.cls-22,.cls-3,.cls-6,.cls-7{stroke:#231f20;stroke-miterlimit:10;}.cls-13,.cls-16,.cls-18,.cls-3,.cls-6{stroke-width:3px;}.cls-18,.cls-22,.cls-4{fill:#f2af1d;}.cls-5{fill:#cfcfce;}.cls-19,.cls-6{fill:#231f20;}.cls-8{fill:#ea376b;}.cls-9{fill:#39bfe8;}.cls-10{fill:#77c043;}.cls-11{fill:#159bd4;}.cls-12{fill:#a08144;}.cls-12,.cls-17,.cls-22{stroke-width:2px;}.cls-13,.cls-20,.cls-21{fill:none;}.cls-14{fill:#e0d99a;}.cls-15{fill:#faf073;}.cls-16{fill:#212120;}</style>
  </defs>
  <title
     id="title6">Whiteboard (white wall)Asset 4</title>
  <g
     id="Layer_2"
     data-name="Layer 2"
     transform="matrix(1.0159555,0,0,1.1075299,-28.852378,-42.169083)">
    <g
       id="bg">
      <rect
         class="cls-2"
         x="29.59"
         y="336.95001"
         width="489.03"
         height="9.8000002"
         id="rect10"
         style="fill:#bcbbbb" />
      <rect
         class="cls-3"
         x="38.119999"
         y="39.5"
         width="469.42999"
         height="297.34"
         id="rect12"
         style="fill:#ffffff;stroke:#231f20;stroke-width:3px;stroke-miterlimit:10" />
      <path
         class="cls-4"
         d="m 187.77848,57.598975 -1.16688,2.971986 c -0.73178,0 -5.49821,0 -6.60577,0 h -2.70955 a 29.666604,29.719865 0 0 0 -4.84554,0.356639 9.0186475,9.034839 0 0 0 -3.67866,1.426553 8.4253154,8.4404417 0 0 0 -2.65022,3.150306 21.340177,21.37849 0 0 0 -1.77999,5.587335 h 8.97909 l -0.87022,2.912546 h -8.68243 l -5.2411,27.10452 h -3.38199 l 5.93332,-30.492584 a 23.416839,23.45888 0 0 1 1.97777,-6.221359 11.589753,11.610561 0 0 1 3.204,-3.962648 12.024863,12.046452 0 0 1 4.72688,-2.159644 29.409493,29.462293 0 0 1 6.5662,-0.634024 z m -6.32887,13.373939 h 3.38199 l -5.83443,30.017066 h -3.38199 z"
         id="path14"
         inkscape:connector-curvature="0"
         style="fill:#f2af1d;stroke-width:1.9795481" />
      <path
         class="cls-4"
         d="m 188.56959,101.00979 3.79733,-19.397164 a 14.694858,14.72124 0 0 1 4.37088,-8.876333 14.101526,14.126843 0 0 1 9.27576,-2.694601 12.83575,12.858795 0 0 1 8.36598,2.258709 8.0495384,8.0639901 0 0 1 2.65021,6.518558 18.393294,18.426316 0 0 1 -0.35599,3.506944 l -3.61933,18.683887 h -3.38199 l 3.67866,-18.862207 a 15.822189,15.850595 0 0 0 0.41533,-3.071052 5.1817668,5.1910698 0 0 0 -1.97778,-4.755179 10.699755,10.718965 0 0 0 -5.73554,-1.307674 15.822189,15.850595 0 0 0 -3.95555,0.435892 7.1397626,7.1525809 0 0 0 -4.96421,4.140967 17.305519,17.336588 0 0 0 -1.28555,4.240035 l -3.83688,19.179218 z"
         id="path16"
         inkscape:connector-curvature="0"
         style="fill:#f2af1d;stroke-width:1.9795481" />
      <path
         class="cls-4"
         d="m 231.84328,70.972914 h 11.49086 l -1.16688,2.912547 h -10.89754 l -3.20399,16.643124 a 17.186852,17.217709 0 0 0 -0.356,3.031427 3.9555471,3.9626487 0 0 0 1.40422,3.506948 8.0297607,8.0441768 0 0 0 4.37088,0.93122 h 5.02355 l -1.16689,2.97199 h -4.07421 a 11.490864,11.511494 0 0 1 -6.64532,-1.58506 6.1904313,6.2015452 0 0 1 -2.21511,-5.428833 c 0,-0.534958 0,-1.168982 0,-1.862445 a 17.503296,17.53472 0 0 1 0.31644,-2.159644 l 5.26088,-26.708252 3.50066,-0.534958 z"
         id="path18"
         inkscape:connector-curvature="0"
         style="fill:#f2af1d;stroke-width:1.9795481" />
      <path
         class="cls-4"
         d="m 249.5048,87.338653 a 15.565078,15.593023 0 0 0 -0.23734,1.743566 q 0,0.812343 0,1.585059 a 7.6144282,7.6280987 0 0 0 1.85911,5.587335 9.3153135,9.3320377 0 0 0 6.70465,1.981327 h 4.50933 q 1.97777,0 4.11377,-0.19813 l -1.26578,2.83329 q -1.97777,0.17832 -3.61932,0.19813 h -3.95555 a 18.511961,18.545196 0 0 1 -5.5971,-0.73309 9.3153135,9.3320377 0 0 1 -3.67866,-1.98132 7.6935392,7.7073517 0 0 1 -1.97777,-3.209749 13.429083,13.453192 0 0 1 -0.61311,-4.200407 27.411942,27.461155 0 0 1 0.69222,-6.082666 33.622151,33.682514 0 0 1 2.3931,-7.132768 14.595969,14.622174 0 0 1 3.30289,-4.557046 10.996421,11.016163 0 0 1 4.29176,-2.397402 18.848182,18.882021 0 0 1 5.30044,-0.693464 12.005086,12.026639 0 0 1 7.73309,1.981325 6.4475418,6.4591174 0 0 1 2.35355,5.191069 11.055754,11.075603 0 0 1 -0.356,2.694601 9.8888678,9.9066217 0 0 1 -1.28555,3.308812 7.5353173,7.5488458 0 0 1 -2.33377,2.31815 10.561311,10.580272 0 0 1 -3.56,1.367113 25.018836,25.063753 0 0 1 -5.02354,0.435892 z m 12.06442,-14.424041 a 13.567527,13.591885 0 0 0 -4.29177,0.614211 8.5242041,8.5395079 0 0 0 -3.24355,1.981324 11.194198,11.214296 0 0 0 -2.39311,3.566384 28.084385,28.134806 0 0 0 -1.70088,5.428828 h 9.31531 a 23.733283,23.775892 0 0 0 3.95555,-0.257572 7.1199849,7.1327676 0 0 0 2.51177,-0.851969 4.6082124,4.6164857 0 0 0 1.54266,-1.52562 9.7108682,9.7283025 0 0 0 0.98889,-2.219083 8.227538,8.2423093 0 0 0 0.29667,-2.219083 3.9555471,3.9626487 0 0 0 -1.54267,-3.269186 8.9197588,8.9357728 0 0 0 -5.4191,-1.248234 z"
         id="path20"
         inkscape:connector-curvature="0"
         style="fill:#f2af1d;stroke-width:1.9795481" />
      <path
         class="cls-4"
         d="m 289.33716,98.13687 h 3.02599 3.44133 l -1.22622,2.97199 q -1.16689,0.11888 -2.76889,0.11888 h -2.76888 q -6.64532,0 -9.39442,-2.65498 a 9.8888678,9.9066217 0 0 1 -2.72933,-7.608283 29.449048,29.50192 0 0 1 0.69222,-5.943973 26.759276,26.807318 0 0 1 2.33377,-7.152581 12.262196,12.284211 0 0 1 3.52044,-4.299474 12.064419,12.086079 0 0 1 4.78621,-1.981324 30.576379,30.631274 0 0 1 6.09154,-0.554771 h 2.63044 3.14466 l -1.22622,2.971986 h -2.27444 -2.7491 a 22.981729,23.022989 0 0 0 -4.98399,0.475518 8.6626482,8.6782006 0 0 0 -3.57977,1.684126 9.3944245,9.4112906 0 0 0 -2.53155,3.427691 25.59239,25.638337 0 0 0 -1.76022,5.428829 29.666604,29.719865 0 0 0 -0.69222,5.726027 9.2955358,9.3122244 0 0 0 0.61311,3.645637 5.2015445,5.210883 0 0 0 1.74044,2.258712 7.0013184,7.0138882 0 0 0 2.80844,1.14917 20.331512,20.368014 0 0 0 3.85666,0.33682 z"
         id="path22"
         inkscape:connector-curvature="0"
         style="fill:#f2af1d;stroke-width:1.9795481" />
      <path
         class="cls-4"
         d="m 311.54755,57.598975 h 3.382 l -3.08533,15.850595 a 8.9593143,8.9753993 0 0 1 3.69844,-2.536096 15.940855,15.969474 0 0 1 5.57732,-0.851969 11.866641,11.887946 0 0 1 7.91109,2.19927 7.9110943,7.9252974 0 0 1 2.57111,6.399678 18.314183,18.347063 0 0 1 -0.41534,3.685263 l -3.61932,18.683894 h -3.32266 l 3.61933,-18.862213 a 15.822189,15.850595 0 0 0 0.25711,-1.664313 14.714635,14.741053 0 0 0 0,-1.485993 5.1224335,5.1316301 0 0 0 -1.97778,-4.675925 10.3042,10.3227 0 0 0 -5.5971,-1.287861 15.584856,15.612836 0 0 0 -3.95554,0.475518 7.7330947,7.7469782 0 0 0 -2.96666,1.525619 7.9110943,7.9252974 0 0 0 -1.97778,2.813481 19.520625,19.555671 0 0 0 -1.34488,4.319287 l -3.67866,18.86221 h -3.382 z"
         id="path24"
         inkscape:connector-curvature="0"
         style="fill:#f2af1d;stroke-width:1.9795481" />
      <path
         class="cls-2"
         d="m 363.40478,67.52541 -6.52666,33.46457 h -9.63175 l 6.52665,-33.46457 h -13.64664 l 3.02599,-8.12343 h 35.46148 l -3.08532,8.12343 z"
         id="path26"
         inkscape:connector-curvature="0"
         style="fill:#bcbbbb;stroke-width:1.9795481" />
      <path
         class="cls-2"
         d="m 388.06761,69.526547 a 15.485967,15.51377 0 0 1 9.63176,2.595535 q 3.32266,2.595535 3.32266,8.737641 a 22.408175,22.448405 0 0 1 -0.178,2.714414 q -0.178,1.426554 -0.47467,3.011613 a 30.259936,30.314262 0 0 1 -1.97777,7.033701 14.220192,14.245722 0 0 1 -3.38199,4.755179 12.598418,12.621036 0 0 1 -4.90488,2.71441 23.021284,23.062615 0 0 1 -6.56621,0.85197 15.466189,15.493956 0 0 1 -9.71087,-2.59553 q -3.30288,-2.59554 -3.30288,-8.737642 a 26.719721,26.767692 0 0 1 0.13845,-2.714414 q 0.13844,-1.426553 0.43511,-3.011613 a 29.824825,29.878371 0 0 1 2.09644,-7.013888 14.49708,14.523107 0 0 1 3.40177,-4.735365 12.618195,12.640849 0 0 1 4.90487,-2.714415 23.021284,23.062615 0 0 1 6.56621,-0.891596 z m -3.73799,25.123193 a 8.0693162,8.0838033 0 0 0 2.65022,-0.376452 4.1533245,4.1607811 0 0 0 1.83933,-1.28786 8.0495384,8.0639901 0 0 0 1.30533,-2.417216 26.897721,26.946011 0 0 0 1.02844,-3.863583 28.044829,28.095179 0 0 0 0.69222,-5.369388 4.3708796,4.3787268 0 0 0 -1.16689,-3.586198 5.6762101,5.6864009 0 0 0 -3.50066,-0.911409 8.1088716,8.1234298 0 0 0 -2.65021,0.376452 4.1533245,4.1607811 0 0 0 -1.83933,1.287861 7.634206,7.647912 0 0 0 -1.28555,2.417215 30.853268,30.90866 0 0 0 -0.98889,3.804143 29.666604,29.719865 0 0 0 -0.69222,5.428829 4.4499905,4.4579798 0 0 0 1.12733,3.566384 5.3993218,5.4090155 0 0 0 3.48088,0.911409 z"
         id="path28"
         inkscape:connector-curvature="0"
         style="fill:#bcbbbb;stroke-width:1.9795481" />
      <path
         class="cls-2"
         d="m 422.52043,85.020504 10.77886,15.989286 h -10.62064 l -8.50443,-13.373938 -2.63044,13.373938 h -8.89998 l 8.46487,-43.410815 h 8.86043 l -4.60821,23.894771 11.5502,-11.035976 h 10.95686 z"
         id="path30"
         inkscape:connector-curvature="0"
         style="fill:#bcbbbb;stroke-width:1.9795481" />
      <path
         class="cls-2"
         d="M 444.15727,89.319978 V 90.2512 a 3.9555471,3.9626487 0 0 0 1.30533,3.150306 7.0408739,7.0535147 0 0 0 4.29177,0.990662 q 3.20399,0 5.5971,0 2.39311,0 5.02354,-0.237759 l -2.63043,6.716691 q -1.79978,0.17832 -4.35111,0.23776 -2.55132,0.0594 -5.39932,0 a 19.12507,19.159406 0 0 1 -6.03221,-0.81235 9.5526463,9.5697966 0 0 1 -3.85666,-2.27852 8.3264267,8.3413755 0 0 1 -1.97777,-3.467316 14.833302,14.859933 0 0 1 -0.61311,-4.358914 25.869278,25.915722 0 0 1 0.534,-5.07219 25.711056,25.757216 0 0 1 2.57111,-7.925297 15.169523,15.196758 0 0 1 3.95554,-4.755179 12.637973,12.660663 0 0 1 4.92466,-2.337963 25.058391,25.103379 0 0 1 5.5971,-0.61421 14.437747,14.463668 0 0 1 8.84065,2.219083 7.5353173,7.5488458 0 0 1 2.88754,6.360051 q 0,0.752904 -0.13844,1.545433 a 15.960633,15.989287 0 0 1 -0.25711,1.604873 8.8208701,8.8367066 0 0 1 -4.3511,6.260985 20.905067,20.942598 0 0 1 -9.71087,1.803005 z m 8.16821,-13.195621 a 6.1706535,6.181732 0 0 0 -4.48955,1.485994 11.213976,11.234109 0 0 0 -2.45244,5.290136 h 5.08288 a 20.52929,20.566147 0 0 0 2.41288,-0.11888 4.9048785,4.9136844 0 0 0 1.602,-0.435891 2.6106611,2.6153481 0 0 0 0.98889,-0.812343 4.4302128,4.4381665 0 0 0 0.59333,-1.248234 4.786212,4.7948049 0 0 0 0.23733,-1.52562 2.3337728,2.3379627 0 0 0 -0.87022,-1.981324 5.0828781,5.0920036 0 0 0 -3.1051,-0.653838 z"
         id="path32"
         inkscape:connector-curvature="0"
         style="fill:#bcbbbb;stroke-width:1.9795481" />
      <path
         class="cls-2"
         d="m 474.47654,101.00979 h -9.27576 l 3.69844,-19.040526 a 21.755509,21.794568 0 0 1 1.83933,-5.80528 11.273309,11.293549 0 0 1 3.08532,-3.863583 11.747975,11.769067 0 0 1 4.56866,-2.13983 27.332831,27.381902 0 0 1 6.28932,-0.634024 15.822189,15.850595 0 0 1 9.47354,2.397403 8.5439818,8.5593212 0 0 1 3.24355,7.370526 12.934639,12.957861 0 0 1 -0.11867,1.684126 q -0.11867,0.871783 -0.29667,1.862445 l -3.50066,18.168743 h -9.27575 l 3.61932,-18.584821 q 0.11867,-0.574584 0.178,-1.069915 a 7.9110943,7.9252974 0 0 0 0,-0.911409 3.065549,3.0710527 0 0 0 -1.02844,-2.595535 4.8455452,4.8542446 0 0 0 -3.00622,-0.79253 10.04709,10.065128 0 0 0 -2.51177,0.257572 3.9555471,3.9626487 0 0 0 -1.66133,0.871783 4.6675456,4.6759255 0 0 0 -1.10755,1.644499 12.361085,12.383277 0 0 0 -0.73178,2.595535 z"
         id="path34"
         inkscape:connector-curvature="0"
         style="fill:#bcbbbb;stroke-width:1.9795481" />
      <path
         class="cls-2"
         d="m 85.844036,79.433169 -0.494443,0.277386 a 1.81301,1.816265 0 1 0 1.839329,3.130492 l 0.494444,-0.277385 a 1.8044953,1.807735 0 1 0 -1.83933,-3.11068 z"
         id="path36"
         inkscape:connector-curvature="0"
         style="fill:#bcbbbb;stroke-width:1.9795481" />
      <path
         class="cls-2"
         d="m 90.88736,76.124357 -0.49445,0.277386 a 1.804495,1.8077347 0 1 0 1.83933,3.110679 l 0.49445,-0.277385 a 1.8044953,1.807735 0 1 0 -1.83933,-3.11068 z"
         id="path38"
         inkscape:connector-curvature="0"
         style="fill:#bcbbbb;stroke-width:1.9795481" />
      <path
         class="cls-4"
         d="m 130.14616,50.466207 -11.64908,-6.677063 a 7.6737615,7.6875385 0 0 0 -7.51554,0 l -11.66887,5.943973 a 4.8455452,4.8542446 0 0 0 -2.51177,4.140968 5.161989,5.1712565 0 0 0 0,0.634024 v 11.887946 c 0,5.943973 -1.58222,6.53837 -1.58222,6.53837 v 0 a 1.8393294,1.8426316 0 0 0 -0.47467,2.179457 1.8195517,1.8228184 0 0 0 2.23489,0.79253 v 0 c 0.47466,-0.257572 2.49199,-0.713277 6.05199,1.565246 0.45488,0.297199 1.66133,1.050102 1.97777,1.188795 l 5.93332,3.566383 a 7.4166509,7.4299663 0 0 0 7.27821,0 l 11.58975,-6.498743 a 6.6453192,6.6572498 0 0 0 3.40177,-5.805281 V 55.875223 a 6.2299867,6.2411717 0 0 0 -3.06555,-5.409016 z m -14.81352,11.333175 c 0,2.219084 0,4.438167 -0.178,6.677064 0,1.208607 -0.15822,2.397402 -0.25711,3.60601 -0.0989,1.208608 -0.23734,2.397402 -0.45489,3.60601 -0.21756,-1.208608 -0.29667,-2.397402 -0.45489,-3.60601 -0.15822,-1.208608 -0.19778,-2.397403 -0.25711,-3.60601 -0.13844,-2.219084 -0.178,-4.45798 -0.178,-6.677064 a 93.350912,93.518509 0 0 1 -11.07553,-7.073327 93.588245,93.756268 0 0 1 12.00508,5.547708 l 13.31042,-5.547708 z"
         id="path40"
         inkscape:connector-curvature="0"
         style="fill:#f2af1d;stroke-width:1.9795481" />
      <path
         class="cls-4"
         d="m 83.233375,83.177872 a 1.9777736,1.9813243 0 0 0 -2.630439,-0.713277 v 0 c -0.474665,0.257573 -1.839329,0.970849 -5.656432,-1.545433 -0.454888,-0.297198 -1.66133,-1.050102 -1.977773,-1.188794 L 67.03541,76.163984 a 7.4166509,7.4299663 0 0 0 -7.278207,0 l -11.708419,6.478931 a 6.6650969,6.677063 0 0 0 -3.401771,5.80528 v 14.166465 a 6.2299867,6.2411717 0 0 0 3.124882,5.40902 l 11.728198,6.71669 a 7.6737615,7.6875385 0 0 0 7.515539,0 l 11.668864,-5.94397 a 4.8455452,4.8542446 0 0 0 2.452439,-3.96265 5.1422113,5.1514433 0 0 0 0,-0.63403 V 92.311777 c 0,-5.80528 1.483331,-6.459117 1.483331,-6.459117 v 0 a 1.9777736,1.9813243 0 0 0 0.613109,-2.674788 z M 63.45564,94.392168 c 0,2.219082 0,4.438162 -0.178,6.677062 0,1.20861 -0.158222,2.3974 -0.257111,3.60601 -0.09889,1.20861 -0.237332,2.39741 -0.454887,3.60602 -0.217556,-1.20861 -0.296666,-2.39741 -0.454888,-3.60602 -0.158222,-1.20861 -0.197778,-2.3974 -0.257111,-3.60601 -0.375777,-2.17946 -0.375777,-4.45798 -0.375777,-6.677062 A 93.291579,93.459069 0 0 1 50.402334,87.31884 93.647579,93.815708 0 0 1 62.446975,92.945801 l 13.310416,-5.547708 z"
         id="path42"
         inkscape:connector-curvature="0"
         style="fill:#f2af1d;stroke-width:1.9795481" />
      <rect
         class="cls-5"
         x="418.29999"
         y="210.62"
         width="41.509998"
         height="71.699997"
         id="rect44"
         style="fill:#cfcfce" />
      <rect
         class="cls-6"
         x="29.950001"
         y="331.92001"
         width="489.03"
         height="9.8000002"
         id="rect46"
         style="fill:#231f20;stroke:#231f20;stroke-width:3px;stroke-miterlimit:10" />
      <rect
         class="cls-6"
         x="97.480003"
         y="321.03"
         width="40.299999"
         height="8.71"
         id="rect48"
         style="fill:#231f20;stroke:#231f20;stroke-width:3px;stroke-miterlimit:10" />
      <rect
         class="cls-6"
         x="160.03"
         y="321.07999"
         width="40.299999"
         height="8.71"
         id="rect50"
         style="fill:#231f20;stroke:#231f20;stroke-width:3px;stroke-miterlimit:10" />
      <path
         class="cls-7"
         d="M 436.09,285.56 H 380 c 14.33,-17.44 20.09,-45.19 23.72,-75.48 h 56.07 C 453.91,242 447,270.56 436.09,285.56 Z"
         id="path52"
         inkscape:connector-curvature="0"
         style="fill:#ffffff;stroke:#231f20;stroke-miterlimit:10" />
      <ellipse
         class="cls-8"
         cx="411.70001"
         cy="216.47"
         rx="3.8099999"
         ry="4.3600001"
         id="ellipse54"
         style="fill:#ea376b" />
      <ellipse
         class="cls-9"
         cx="447.41"
         cy="222.48"
         rx="3.8099999"
         ry="4.3600001"
         id="ellipse56"
         style="fill:#39bfe8" />
      <ellipse
         class="cls-10"
         cx="439.87"
         cy="209.53999"
         rx="3.8099999"
         ry="4.3600001"
         id="ellipse58"
         style="fill:#77c043" />
      <path
         class="cls-11"
         d="m 258.27,151.13 c 0,0 -0.27,-22.34 -0.24,-25.23 l 6.56,0.22 c 0,3.06 -0.1,14.93 -0.09,18 0.82,0 12,0.33 12,0.33 l -0.13,6.74 z"
         id="path62"
         inkscape:connector-curvature="0"
         style="fill:#159bd4" />
      <path
         class="cls-11"
         d="m 348.8,137.74 c 1.38,-2.15 5.5,-8.63 6.65,-10.2 l -5.34,-1.85 c -2.51,2.47 -6.55,8 -9.67,10.93 0,-2.31 -0.07,-8.68 0.08,-9.65 l -5.73,0.1 c -0.39,2.54 -0.24,23.68 -0.35,24.59 h 5.88 c 0.14,-1.21 0,-3.58 0,-8 l 0.19,0.18 c 0.76,-0.8 1.48,-1.52 2.21,-2.25 a 40.31,40.31 0 0 0 2.74,5 31,31 0 0 1 2.92,5.46 l 6.92,-0.27 c -0.98,-2.77 -5.93,-11.59 -6.5,-14.04 z"
         id="path64"
         inkscape:connector-curvature="0"
         style="fill:#159bd4" />
      <path
         class="cls-11"
         d="m 393.47,127.33 c 0.26,3.47 0.09,5.61 0.15,9.28 -1.08,-0.06 -3.26,0 -4.33,-0.07 -1.07,-0.07 -2.88,0 -3.89,-0.08 -0.14,-4 0,-5.13 -0.15,-9 h -6.64 c 0.24,7.09 -0.16,22.48 -0.13,24.29 l 6.86,0.13 c 0,-1.78 -0.21,-8.53 -0.22,-9.36 0.92,0 7.35,0 8.52,0.07 0,1.55 -0.08,9.58 -0.08,9.58 l 6.79,0.13 c 0,0 0.84,-17.4 0.28,-25 z"
         id="path66"
         inkscape:connector-curvature="0"
         style="fill:#159bd4" />
      <path
         class="cls-11"
         d="m 422.83,152.39 7.77,-0.09 c -2.79,-6.22 -9.3,-24.29 -9.3,-24.29 l -8.07,-0.14 c 0,0 -8.48,19.47 -10.23,24.35 l 7.17,-0.09 c 0.53,-1.47 1.44,-3.89 2.41,-5.94 l 8.57,0.22 c 0.56,2.27 1.3,3.88 1.68,5.98 z m -8.37,-10 c 0.73,-1.36 2,-5.27 2.69,-6.54 0.46,1.32 2.16,5.4 2.58,6.73 z"
         id="path68"
         inkscape:connector-curvature="0"
         style="fill:#159bd4" />
      <path
         class="cls-11"
         d="m 462.07,152.7 c -1.61,-2.07 -8.45,-11.38 -10.39,-13.83 0,0.58 0,1.16 0,1.74 a 84.16,84.16 0 0 1 -0.3,12 l -6.09,-0.17 c 0.18,-2.8 0.06,-21.3 0.45,-24.41 l 5.72,-0.08 c 4.07,4.19 6.8,8.09 10.26,12.21 0,-0.39 0.27,-9.18 0.23,-11.94 h 6.32 c -0.28,2.54 0.08,21.31 -0.26,24.48 z"
         id="path70"
         inkscape:connector-curvature="0"
         style="fill:#159bd4" />
      <path
         class="cls-11"
         d="m 320.89,151.82 c -12,-1.17 -13.49,-8.4 -12.72,-14.31 0.3,-2.31 1.08,-8.8 7.84,-11.19 3,-1.07 6.38,-1.32 8.94,0.07 2.4,1.31 4.79,3.17 5.46,6 l -6.37,1.71 c -4.21,-4.22 -8.81,-0.17 -9.37,4.17 -0.41,3.17 3.42,10.61 9.51,5.33 l 5.35,3.79 c -2.48,2.55 -5.6,4.46 -8.64,4.43 z"
         id="path72"
         inkscape:connector-curvature="0"
         style="fill:#159bd4" />
      <path
         class="cls-11"
         d="m 290.65,151.35 a 12.47,12.47 0 1 1 12.58,-12.37 12.49,12.49 0 0 1 -12.58,12.37 z m 0.16,-18.82 a 6.34,6.34 0 1 0 6.29,6.4 6.35,6.35 0 0 0 -6.29,-6.4 z"
         id="path74"
         inkscape:connector-curvature="0"
         style="fill:#159bd4" />
      <path
         class="cls-11"
         d="m 365.53,151.85 c -12,-1.17 -13.49,-8.4 -12.72,-14.31 0.3,-2.31 1.08,-8.8 7.84,-11.19 3,-1.07 6.38,-1.32 8.94,0.07 2.4,1.31 4.79,3.17 5.46,6 l -6.37,1.71 c -4.21,-4.22 -8.81,-0.17 -9.37,4.17 -0.41,3.17 3.42,10.61 9.51,5.33 l 5.35,3.79 c -2.48,2.54 -5.6,4.45 -8.64,4.43 z"
         id="path76"
         inkscape:connector-curvature="0"
         style="fill:#159bd4" />
      <rect
         class="cls-11"
         x="434.64255"
         y="124.20856"
         width="6.79"
         height="24.59"
         transform="rotate(0.48)"
         id="rect78"
         style="fill:#159bd4" />
      <rect
         class="cls-11"
         x="197.24791"
         y="114.46131"
         width="6.9613919"
         height="8.5317059"
         transform="rotate(-1.1457628)"
         id="rect80"
         style="fill:#159bd4;stroke-width:1.00020003" />
      <rect
         class="cls-11"
         x="212.37718"
         y="114.23228"
         width="6.48"
         height="9.96"
         transform="rotate(-1)"
         id="rect82"
         style="fill:#159bd4" />
      <rect
         class="cls-11"
         x="202.77032"
         y="114.23318"
         width="5.2800002"
         height="3.3199999"
         transform="rotate(-1)"
         id="rect84"
         style="fill:#159bd4" />
      <rect
         class="cls-11"
         x="217.17596"
         y="114.23332"
         width="5.52"
         height="3.0799999"
         transform="rotate(-1)"
         id="rect86"
         style="fill:#159bd4" />
      <rect
         class="cls-11"
         x="221.91524"
         y="165.43065"
         width="8.8800001"
         height="10.19"
         transform="rotate(-1)"
         id="rect88"
         style="fill:#159bd4" />
      <rect
         class="cls-11"
         x="205.82739"
         y="166.63216"
         width="4.3208642"
         height="7.35147"
         transform="rotate(-1.1457628)"
         id="rect90"
         style="fill:#159bd4;stroke-width:1.00020003" />
      <rect
         class="cls-11"
         x="199.11255"
         y="159.98334"
         width="5.7600002"
         height="2.8399999"
         transform="rotate(-1)"
         id="rect92"
         style="fill:#159bd4" />
      <rect
         class="cls-11"
         x="195.73865"
         y="152.64502"
         width="5.7611523"
         height="1.9003799"
         transform="rotate(-1.1457628)"
         id="rect94"
         style="fill:#159bd4;stroke-width:1.00020003" />
      <rect
         class="cls-11"
         x="188.07597"
         y="137.92981"
         width="6"
         height="3.3199999"
         transform="rotate(-1)"
         id="rect96"
         style="fill:#159bd4" />
      <rect
         class="cls-11"
         x="198.15337"
         y="142.42876"
         width="3.5999999"
         height="1.42"
         transform="rotate(-1)"
         id="rect98"
         style="fill:#159bd4" />
      <rect
         class="cls-11"
         x="194.79457"
         y="131.7619"
         width="3.1199999"
         height="2.1300001"
         transform="rotate(-1)"
         id="rect100"
         style="fill:#159bd4" />
      <rect
         class="cls-11"
         x="199.83301"
         y="137.46014"
         width="2.4000001"
         height="2.3699999"
         transform="rotate(-1)"
         id="rect102"
         style="fill:#159bd4" />
      <rect
         class="cls-11"
         x="191.19534"
         y="159.74336"
         width="3.5999999"
         height="2.3699999"
         transform="rotate(-1)"
         id="rect104"
         style="fill:#159bd4" />
      <path
         class="cls-11"
         d="m 239.31,141.81851 c 2.21,-2.12 4.89,-6.14 5.18,-9.33 0,-0.07 0,-0.14 0,-0.21 l -3,0.05 v -2.84 h 2.83 a 10.9,10.9 0 0 0 -3.19,-6 c -3.38,-3.24 -35.64,-2.57 -35.64,-2.57 l 0.59,46 4.39,0.59 q 2.4,0.13 4.7,0.09 c 13,-0.23 30.84,-2.21 31.3,-12.4 0.4,-9.41 -6.28,-12.56 -7.16,-13.38 z m -27.78,-9.44 h 2.16 v 1.9 h -2.16 z m -4.61,-3 h 2.4 v 2.61 h -2.4 z m 4.5,23.87 -3.12,0.05 v -2.37 l 3.12,-0.05 z m 2.95,-10 -4.08,0.07 v -2.84 l 4.08,-0.07 z m 4.37,-12 c 5.66,-0.39 13.69,-1 13.55,3.44 -0.19,6.29 -13.42,4 -14,4 0.05,-0.71 0.43,-6.69 0.44,-7.43 z m 0.23,25.29 c -0.12,-2 -0.12,-6.48 -0.15,-8.5 1.33,0 14.12,-2.23 14.51,3.32 0.41,6.19 -6.4,5.26 -14.33,5.19 z m 24.91,-0.08 -2.88,0.05 v -2.13 l 2.88,-0.05 z"
         id="path106"
         inkscape:connector-curvature="0"
         style="fill:#159bd4" />
      <rect
         class="cls-11"
         x="185.73593"
         y="122.05096"
         width="2.8800001"
         height="1.9"
         transform="rotate(-1)"
         id="rect108"
         style="fill:#159bd4" />
      <rect
         class="cls-11"
         x="193.41365"
         y="117.79218"
         width="1.92"
         height="2.3699999"
         transform="rotate(-1)"
         id="rect110"
         style="fill:#159bd4" />
      <rect
         class="cls-11"
         x="195.99396"
         y="167.57091"
         width="2.6400001"
         height="2.8399999"
         transform="rotate(-1)"
         id="rect112"
         style="fill:#159bd4" />
      <path
         class="cls-11"
         d="m 62.7,122.99851 c -0.31,0.66 -11.8,5.37 -10,7.11 1.62,1.59 8.67,-3.42 8.45,-2.58 -1,4 -1.42,8.15 -2.5,12 a 73.67,73.67 0 0 0 -3,16.68 c -0.07,1.53 2.63,1.53 2.7,0 0.26,-6 1.82,-11.71 3.31,-17.55 1.25,-4.9 1.49,-10.38 3.65,-15 0.66,-1.42 -1.95,-2 -2.6,-0.63 z"
         id="path114"
         inkscape:connector-curvature="0"
         style="fill:#159bd4" />
      <path
         class="cls-11"
         d="m 79.63,125.88851 c -7.88,0.4 -11.06,8.09 -11.92,15.08 -0.66,5.33 -1.51,16 5.35,18.14 6.44,2 9.72,-9.41 10.92,-13.69 1.55,-5.54 2.8,-16.91 -3.12,-20.43 a 1.35,1.35 0 0 0 -1.36,2.33 c 4,2.37 3,12.74 2.12,16.51 -0.8,3.3 -2,9.5 -5.18,11.18 -7.28,3.9 -6.5,-8.58 -6.24,-11.9 0.43,-5.66 2.47,-14.17 9.44,-14.52 1.73,-0.09 1.74,-2.78 0,-2.7 z"
         id="path116"
         inkscape:connector-curvature="0"
         style="fill:#159bd4" />
      <path
         class="cls-11"
         d="m 98.15,125.93851 c -7.15,1.32 -9.38,11.65 -10.15,17.49 -0.75,5.45 -1.07,16.26 7.48,15.43 7.37,-0.71 9.3,-12.38 10.32,-17.9 0.91,-4.92 0.85,-13.94 -5.64,-14.53 -1.73,-0.16 -1.72,2.54 0,2.7 2.37,0.22 3.3,5.11 3.36,7.07 a 25.76,25.76 0 0 1 -0.47,4 c -0.64,4.32 -1.48,11 -4.95,14 q -0.89,1.72 -3.06,0.94 -2.76,1.18 -3.56,-1.59 c -1.57,-2 -1.3,-3.53 -1.13,-5.88 0.15,-2 0.56,-4 0.89,-6 0.7,-4.16 2.32,-12.22 7.66,-13.21 1.7,-0.32 1,-2.91 -0.72,-2.6 z"
         id="path118"
         inkscape:connector-curvature="0"
         style="fill:#159bd4" />
      <path
         class="cls-11"
         d="m 128.83,132.22851 c -3.69,4.34 -6.53,9.82 -9.65,14.59 -1.49,2.28 -3.15,4.43 -4.6,6.73 -1.08,1.71 -2.85,3.64 -3.42,5.57 -0.49,1.65 2,2.7 2.49,1 0.49,-1.7 3.3,-5.31 4.17,-6.7 1.57,-2.49 3.37,-4.86 5,-7.34 2.59,-4 5.08,-8.59 8.19,-12.25 1.13,-1.33 -1,-3 -2.14,-1.64 z"
         id="path120"
         inkscape:connector-curvature="0"
         style="fill:#159bd4" />
      <path
         d="m 151.44,128.13851 c -12.45,0.93 -16.16,26.61 -5,31.76 16.13,7.45 20,-30 5,-30.69 -2.6,-0.11 -2.6,3.93 0,4 5,0.22 5.24,10.51 4.92,14 -0.23,2.52 -1.06,6.71 -3.24,8.45 -2.94,2.34 -6.44,0.17 -7.78,-2.63 -2.47,-5.13 -1.42,-20.36 6.11,-20.92 2.58,-0.19 2.6,-4.24 0,-4 z"
         id="path122"
         inkscape:connector-curvature="0" />
      <path
         d="m 167.48,157.11851 c 0,-5.37 0.1,-10.74 -0.11,-16.11 -0.05,-1.36 0.57,-5.19 -0.06,-6.34 -0.63,-1.15 -0.65,-1.19 -0.91,0.27 -0.11,0.64 0.68,2.3 0.9,3 a 66.17,66.17 0 0 0 5.32,11.81 c 1,1.82 2.26,3.6 3.22,5.45 0.78,1.52 0.93,3.12 2.09,4.41 a 2,2 0 0 0 3.38,-0.89 c 0.86,-4.59 0.19,-9.76 0.19,-14.43 0,-2.46 0.08,-4.94 0,-7.39 0,-1.35 1.66,-7.13 -0.94,-7.12 -3.61,0 -3.2,4 -3.13,6.56 0.09,3 0,5.91 0,8.86 0,3.94 0.68,8.59 0,12.44 l 3.38,-0.89 c -1.53,-1.69 -2.51,-5.59 -3.66,-7.6 a 69.61,69.61 0 0 1 -4.16,-7.62 c -1.22,-2.95 -2.18,-10.81 -6,-11.61 -4,-0.84 -3.77,4.32 -3.79,6.83 0,6.79 0.22,13.59 0.22,20.38 0,2.6 4,2.61 4,0 z"
         id="path124"
         inkscape:connector-curvature="0" />
      <ellipse
         class="cls-11"
         cx="115.75"
         cy="139.22852"
         rx="2.97"
         ry="2.7"
         id="ellipse126"
         style="fill:#159bd4" />
      <ellipse
         class="cls-11"
         cx="125.86"
         cy="153.37852"
         rx="2.5599999"
         ry="2.8299999"
         id="ellipse128"
         style="fill:#159bd4" />
      <path
         class="cls-11"
         d="m 51.24,156.83851 a 5.72,5.72 0 0 1 1.08,-0.18 7.59,7.59 0 0 0 1.4,-0.14 16.45,16.45 0 0 1 1.74,0 c 0.62,0 1.15,-0.19 1.79,-0.19 H 62 c 0.36,0 1,0.15 1.25,-0.18"
         id="path130"
         inkscape:connector-curvature="0"
         style="fill:#159bd4" />
    </g>
    <g
       id="people">
      <g
         id="Layer_4"
         data-name="Layer 4">
        <path
           class="cls-12"
           d="m 278.67,168.84 c -3.19,5.09 6,6.25 11.14,5.84 5.68,-0.45 8.18,-2.91 9.47,-8.2 -2.69,-1.88 -5,-4.55 -9.12,-3.68 -2.38,0.5 -10.25,4.63 -11.49,6.04 z"
           id="path133"
           inkscape:connector-curvature="0"
           style="fill:#a08144;stroke:#231f20;stroke-width:2px;stroke-miterlimit:10" />
      </g>
      <ellipse
         class="cls-2"
         cx="233.56"
         cy="458.62"
         rx="167.13"
         ry="30.91"
         id="ellipse136"
         style="fill:#bcbbbb" />
      <path
         class="cls-13"
         d="m 142.8,229 c -1.12,2 -1.64,4.3 -2.5,6.47 -1,2.52 -2.39,4.81 -3.5,7.29 -2.6,5.8 -4.2,12.27 -5.92,18.37 -5,17.68 -7.34,36 -9.65,54.08 -0.46,3.64 -2.65,14.13 0.28,17"
         id="path138"
         inkscape:connector-curvature="0"
         style="fill:none;stroke:#231f20;stroke-width:3px;stroke-miterlimit:10" />
      <rect
         class="cls-14"
         x="114.5"
         y="273.97"
         width="57.959999"
         height="53.369999"
         id="rect140"
         style="fill:#e0d99a;stroke:#231f20;stroke-miterlimit:10" />
      <rect
         class="cls-15"
         x="116.93"
         y="276.66"
         width="14.56"
         height="12.4"
         id="rect142"
         style="fill:#faf073" />
      <path
         class="cls-3"
         d="m 139.57,326.53 c 0,4.32 -3.92,7.82 -8.76,7.82 -4.84,0 -8.76,-3.5 -8.76,-7.82 0,-2.47 2.57,-5.85 4.58,-7.28 0.75,-0.53 0.7,5.15 1.62,4.85 0.92,-0.3 1.53,-5.39 2.56,-5.39 4.84,0.01 8.76,3.51 8.76,7.82 z"
         id="path144"
         inkscape:connector-curvature="0"
         style="fill:#ffffff;stroke:#231f20;stroke-width:3px;stroke-miterlimit:10" />
      <path
         class="cls-16"
         d="m 183.06,369.43 c -16.12,5.48 -34.89,4 -55,-1.08 l 16.17,-149.88 h 31.27 z"
         id="path146"
         inkscape:connector-curvature="0"
         style="fill:#212120;stroke:#231f20;stroke-width:3px;stroke-miterlimit:10" />
      <path
         class="cls-17"
         d="m 195.1,200.38 c 0,17.57 -15,31.81 -33.43,31.81 -18.43,0 -33.43,-14.24 -33.43,-31.81 0,-11.4 4,-25.71 15.1,-31.81 6,-3.3 16.16,-4.85 22.64,-4.85 18.47,0 29.12,19.09 29.12,36.66 z"
         id="path148"
         inkscape:connector-curvature="0"
         style="fill:#ffffff;stroke:#231f20;stroke-width:2px;stroke-miterlimit:10" />
      <path
         class="cls-18"
         d="m 342.28,358.88 c -16.61,7.23 -23.52,5.88 -45.83,-0.54 C 311.86,299 313.83,243 306,209.85 h 31.27 c 12.87,26.48 7.47,86.96 5.01,149.03 z"
         id="path150"
         inkscape:connector-curvature="0"
         style="fill:#f2af1d;stroke:#231f20;stroke-width:3px;stroke-miterlimit:10" />
      <path
         class="cls-17"
         d="m 356.84,191.75 c 0,17.57 -15,31.81 -33.43,31.81 -18.43,0 -33.41,-14.24 -33.41,-31.81 0,-17.57 6.72,-32.8 25.16,-33.61 33.05,-1.43 41.68,16.04 41.68,33.61 z"
         id="path152"
         inkscape:connector-curvature="0"
         style="fill:#ffffff;stroke:#231f20;stroke-width:2px;stroke-miterlimit:10" />
      <ellipse
         class="cls-19"
         cx="179.47"
         cy="192.28999"
         rx="2.7"
         ry="8.6300001"
         id="ellipse154"
         style="fill:#231f20" />
      <ellipse
         class="cls-19"
         cx="311.28"
         cy="185.28"
         rx="4.04"
         ry="9.6999998"
         id="ellipse156"
         style="fill:#231f20" />
      <ellipse
         class="cls-19"
         cx="296.19"
         cy="184.74001"
         rx="4.04"
         ry="9.6999998"
         id="ellipse158"
         style="fill:#231f20" />
      <path
         class="cls-20"
         d="m 175.15,211.7 c -0.32,5.69 6.29,7.46 9.7,3.23"
         id="path160"
         inkscape:connector-curvature="0"
         style="fill:none" />
      <path
         class="cls-19"
         d="m 174,213.32 a 5.06,5.06 0 0 0 0.51,1.8 3.46,3.46 0 0 0 1.16,1.32 5.41,5.41 0 0 0 3.65,0.7 l 0.21,1 a 5.55,5.55 0 0 1 -4.61,-0.55 4.31,4.31 0 0 1 -1.6,-1.89 4.74,4.74 0 0 1 -0.33,-2.37 z"
         id="path162"
         inkscape:connector-curvature="0"
         style="fill:#231f20" />
      <path
         class="cls-19"
         d="m 296.46,205.77 a 18.08,18.08 0 0 0 4.55,2.3 13,13 0 0 0 4.83,0.6 17,17 0 0 0 4.86,-1.11 28,28 0 0 0 4.64,-2.32 14.71,14.71 0 0 1 -4.15,3.37 13.69,13.69 0 0 1 -5.22,1.65 10.36,10.36 0 0 1 -5.48,-0.86 9.15,9.15 0 0 1 -4.03,-3.63 z"
         id="path164"
         inkscape:connector-curvature="0"
         style="fill:#231f20" />
      <path
         class="cls-21"
         d="m 167.06,233.26 v -0.54"
         id="path166"
         inkscape:connector-curvature="0"
         style="fill:none;stroke:#231f20;stroke-miterlimit:10" />
      <path
         class="cls-13"
         d="m 166,231.11 c 4.61,14.91 12.81,35.1 25.76,45.18 12.95,10.08 29.45,-5 43.25,-3.13"
         id="path168"
         inkscape:connector-curvature="0"
         style="fill:none;stroke:#231f20;stroke-width:3px;stroke-miterlimit:10" />
      <path
         class="cls-13"
         d="m 307.78,222.48 c -3.21,1.72 -22.26,38.09 -25,42.32 -3.7,5.67 -21.35,5.23 -27.1,7.28"
         id="path170"
         inkscape:connector-curvature="0"
         style="fill:none;stroke:#231f20;stroke-width:3px;stroke-miterlimit:10" />
      <path
         class="cls-21"
         d="m 177.85,179.89 c -5.88,-0.56 -9.55,8.26 -7.55,12.94"
         id="path172"
         inkscape:connector-curvature="0"
         style="fill:none;stroke:#231f20;stroke-miterlimit:10" />
      <path
         class="cls-21"
         d="m 313.71,172.88 c 4.7,-1 6.59,4.4 6.47,8.09"
         id="path174"
         inkscape:connector-curvature="0"
         style="fill:none;stroke:#231f20;stroke-miterlimit:10" />
      <path
         class="cls-13"
         d="m 232.3,272.62 c 4.86,-1.57 13.12,-1.36 17.24,1.34 4.66,3.06 8.08,9.67 -0.47,7.35 2,4.53 -3.86,3.5 -5.88,1.6 0.41,8.72 -11.11,-6.05 -10.89,-10.29 z"
         id="path176"
         inkscape:connector-curvature="0"
         style="fill:none;stroke:#231f20;stroke-width:3px;stroke-miterlimit:10" />
      <path
         class="cls-3"
         d="M 253.06,271.27"
         id="path178"
         inkscape:connector-curvature="0"
         style="fill:#ffffff;stroke:#231f20;stroke-width:3px;stroke-miterlimit:10" />
      <path
         class="cls-1"
         d="m 257.55,272.08 c -2.61,-4.49 -9.89,-5.09 -13.84,-3.59 -3.2,1.21 -5.07,5 -3.78,6.21 2.24,2.19 5.17,-1.62 8.1,-2.16 l 3,-0.72"
         id="path180"
         inkscape:connector-curvature="0"
         style="fill:#ffffff" />
      <path
         class="cls-19"
         d="m 256.25,272.83 c -1.26,-1.92 -3.77,-3 -6.37,-3.24 a 13.77,13.77 0 0 0 -3.9,0.12 9.66,9.66 0 0 0 -1.76,0.49 5,5 0 0 0 -1.38,0.86 5.71,5.71 0 0 0 -1.08,1.26 3,3 0 0 0 -0.49,1.22 c 0,0.13 0,0.12 -0.07,0 v 0 l 0.08,0.07 0.11,0.08 a 0.42,0.42 0 0 0 0.25,0 2.32,2.32 0 0 0 0.61,-0.14 c 1.06,-0.38 2.31,-1.29 3.88,-2 a 7.9,7.9 0 0 1 1.31,-0.44 9.13,9.13 0 0 1 1.14,-0.19 4.3,4.3 0 0 1 2.37,0.49 l 0.19,0.79 a 4.4,4.4 0 0 1 -1.94,1.53 7.05,7.05 0 0 1 -1,0.32 5,5 0 0 0 -0.78,0.31 c -1.13,0.54 -2.23,1.48 -3.91,2.24 a 5.42,5.42 0 0 1 -1.52,0.42 3.88,3.88 0 0 1 -1.92,-0.27 3.94,3.94 0 0 1 -0.84,-0.48 4.46,4.46 0 0 1 -0.35,-0.29 2.93,2.93 0 0 1 -0.41,-0.46 3.39,3.39 0 0 1 -0.61,-2.13 6.25,6.25 0 0 1 0.94,-2.93 8.83,8.83 0 0 1 1.77,-2.11 8.54,8.54 0 0 1 2.36,-1.47 11.51,11.51 0 0 1 2.51,-0.69 16.76,16.76 0 0 1 4.94,-0.06 14.43,14.43 0 0 1 4.77,1.52 9,9 0 0 1 3.77,3.66 z"
         id="path182"
         inkscape:connector-curvature="0"
         style="fill:#231f20" />
      <path
         class="cls-13"
         d="m 258.18,272.08 c -0.71,2.31 -1.46,4.82 -3.77,5.93"
         id="path184"
         inkscape:connector-curvature="0"
         style="fill:none;stroke:#231f20;stroke-width:3px;stroke-miterlimit:10" />
      <path
         class="cls-13"
         d="m 232.84,274.24 c -4.07,4 -1.08,11.5 5.93,10.06"
         id="path186"
         inkscape:connector-curvature="0"
         style="fill:none;stroke:#231f20;stroke-width:3px;stroke-miterlimit:10" />
      <path
         class="cls-19"
         d="m 230.93,261.14 a 4.43,4.43 0 0 1 1.57,-2.91 6.54,6.54 0 0 1 3,-1.38 9.27,9.27 0 0 1 3.07,-0.05 9.87,9.87 0 0 1 2.85,0.84 v 0.83 a 10.82,10.82 0 0 1 -2.84,0.82 c -0.92,0.16 -1.79,0.26 -2.6,0.38 a 11.7,11.7 0 0 0 -2.28,0.53 8.65,8.65 0 0 0 -2.24,1.25 z"
         id="path188"
         inkscape:connector-curvature="0"
         style="fill:#231f20" />
      <path
         class="cls-19"
         d="m 235.22,263 a 2.07,2.07 0 0 1 1.45,-0.9 2.11,2.11 0 0 1 1.63,0.38 l -0.15,0.87 a 7.37,7.37 0 0 1 -1.17,0.38 6,6 0 0 1 -1.14,0.19 z"
         id="path190"
         inkscape:connector-curvature="0"
         style="fill:#231f20" />
      <path
         class="cls-19"
         d="m 240.93,298.5 a 15.12,15.12 0 0 1 2.87,-0.62 l 2.76,-0.34 c 0.89,-0.12 1.73,-0.28 2.53,-0.46 a 10.91,10.91 0 0 0 2.48,-0.86 l 0.29,0.22 a 3.79,3.79 0 0 1 -2.11,2.4 7.26,7.26 0 0 1 -3,0.66 14.17,14.17 0 0 1 -2.94,-0.25 19.63,19.63 0 0 1 -2.88,-0.75 z"
         id="path192"
         inkscape:connector-curvature="0"
         style="fill:#231f20" />
      <path
         class="cls-19"
         d="m 243,293.32 a 9,9 0 0 1 1.52,-0.58 13,13 0 0 1 1.48,-0.35 18.75,18.75 0 0 1 3,-0.29 l 0.46,0.75 a 3.66,3.66 0 0 1 -1.44,1.16 6.05,6.05 0 0 1 -1.67,0.53 5.77,5.77 0 0 1 -1.73,0 A 3.86,3.86 0 0 1 243,294 Z"
         id="path194"
         inkscape:connector-curvature="0"
         style="fill:#231f20" />
      <path
         class="cls-13"
         d="m 181.08,369.66 c 0,29.55 -3.25,63.56 0.36,92.55 4.57,0.23 15.28,-4.78 19,-3.06"
         id="path196"
         inkscape:connector-curvature="0"
         style="fill:none;stroke:#231f20;stroke-width:3px;stroke-miterlimit:10" />
      <path
         class="cls-13"
         d="m 136.87,368.77 c 0,5.75 -0.78,16.63 -1.09,21.92 -0.5,8.54 -2.13,16.87 -2.68,25.31 -0.61,9.35 -0.68,18.83 -1.62,28 -0.45,4.43 -2.5,16 0.39,19 3.49,3.65 15.06,-8.77 19.38,-7.33"
         id="path198"
         inkscape:connector-curvature="0"
         style="fill:none;stroke:#231f20;stroke-width:3px;stroke-miterlimit:10" />
      <path
         class="cls-13"
         d="m 340.67,218.17 a 149.09,149.09 0 0 1 26.28,43 c 3.53,9.05 13.84,33.87 -5.29,31.91 -7,-0.72 -17.1,-3.34 -23.15,-7"
         id="path200"
         inkscape:connector-curvature="0"
         style="fill:none;stroke:#231f20;stroke-width:3px;stroke-miterlimit:10" />
      <path
         class="cls-3"
         d="m 327.19,308.2 h -36.66 c 7.84,-14.89 9.31,-33.55 7,-54.45 h 36.67 c 0.94,22.7 1.29,44.57 -7.01,54.45 z"
         id="path202"
         inkscape:connector-curvature="0"
         style="fill:#ffffff;stroke:#231f20;stroke-width:3px;stroke-miterlimit:10" />
      <path
         class="cls-3"
         d="m 340.13,286.1 c 0.28,-3.93 -0.93,-8.86 -4.1,-11.26 -2.69,-2 -10.17,-4.16 -10.37,0.94 1.48,0.32 1.52,1 2.56,1.58 -3.59,0.81 -5.39,5.37 -1.09,6.71 -6.29,5.68 9.19,6.84 13,3.65"
         id="path204"
         inkscape:connector-curvature="0"
         style="fill:#ffffff;stroke:#231f20;stroke-width:3px;stroke-miterlimit:10" />
      <path
         class="cls-13"
         d="m 339.59,360.5 c 0,23.6 3.77,53 3.77,76.56 0,6.57 -0.27,12.86 -0.62,19.33 -3.68,1.25 -11.55,2.84 -14.48,2.24"
         id="path206"
         inkscape:connector-curvature="0"
         style="fill:none;stroke:#231f20;stroke-width:3px;stroke-miterlimit:10" />
      <path
         class="cls-13"
         d="m 300.23,358.88 c 0,14.34 -10.07,71.79 -11.68,79.61 -0.68,3.31 -3.07,13.53 -5,15.81 -1.83,2.13 -15.91,3 -18.87,3.77"
         id="path208"
         inkscape:connector-curvature="0"
         style="fill:none;stroke:#231f20;stroke-width:3px;stroke-miterlimit:10" />
      <path
         class="cls-21"
         d="m 122.59,278.82 c 0.07,-0.21 0,-0.54 0,-0.77 2.28,0 0.76,8.08 -2.33,1.17 -1,-2.12 -3.57,-8.44 -0.94,-9.87 1.52,1.08 1.64,2.82 2.43,4.34"
         id="path210"
         inkscape:connector-curvature="0"
         style="fill:none;stroke:#231f20;stroke-miterlimit:10" />
      <path
         class="cls-21"
         d="m 330.6,253 a 3.76,3.76 0 0 0 -1.44,-2.19 c -2.88,1.92 -2.65,10.07 -0.36,12.29 1.36,-1.39 1.2,-4.1 1,-6.11 -0.72,0.2 -0.4,0.54 -0.65,1"
         id="path212"
         inkscape:connector-curvature="0"
         style="fill:none;stroke:#231f20;stroke-miterlimit:10" />
    </g>
    <g
       id="hat">
      <path
         class="cls-17"
         d="m 304.72,159.58 c 3.59,-7.55 20,-17.16 37.83,-3.41 15.59,12.05 14.6,22.39 14.21,28.49 -4.13,0.74 -41.27,-11.64 -45.75,-16.34 -3.95,-4.14 -7.42,-6.63 -6.29,-8.74 z"
         id="path215"
         inkscape:connector-curvature="0"
         style="fill:#ffffff;stroke:#231f20;stroke-width:2px;stroke-miterlimit:10" />
      <path
         class="cls-22"
         d="m 277.59,171 c 0.53,-2.19 -0.16,-1.32 1.31,-2.73 4.4,-4.22 15.86,-2.87 21,1.56 3.56,3.08 4.16,3.85 8.81,4.49 4.65,0.64 8.95,-0.85 13.3,-1.08 2.66,-16.89 -42.27,-15.37 -44.42,-2.24 z"
         id="path217"
         inkscape:connector-curvature="0"
         style="fill:#f2af1d;stroke:#231f20;stroke-width:2px;stroke-miterlimit:10" />
      <path
         class="cls-2"
         d="m 316,155.86 h -0.07 a 0.33,0.33 0 0 0 -0.22,0.33 0.2,0.2 0 0 0 0.13,0.19 0.19,0.19 0 0 0 0.12,0 h 0.07 a 0.33,0.33 0 0 0 0.22,-0.33 0.19,0.19 0 0 0 -0.25,-0.19 z"
         id="path219"
         inkscape:connector-curvature="0"
         style="fill:#bcbbbb" />
      <path
         class="cls-2"
         d="m 316.74,155.6 h -0.07 a 0.33,0.33 0 0 0 -0.22,0.33 0.2,0.2 0 0 0 0.13,0.19 0.19,0.19 0 0 0 0.12,0 h 0.07 a 0.33,0.33 0 0 0 0.22,-0.33 0.19,0.19 0 0 0 -0.25,-0.19 z"
         id="path221"
         inkscape:connector-curvature="0"
         style="fill:#bcbbbb" />
      <path
         class="cls-4"
         d="m 322.67,153.54 -0.93,-1.41 a 0.75,0.75 0 0 0 -0.85,-0.31 l -1.66,0.36 a 0.83,0.83 0 0 0 -0.53,0.49 v 0.09 l -0.69,1.69 v 0 c -0.34,0.83 -0.56,0.86 -0.56,0.86 v 0 a 0.34,0.34 0 0 0 -0.19,0.32 0.21,0.21 0 0 0 0.13,0.2 h 0.08 c 0.07,0 0.32,0 0.59,0.46 l 0.15,0.25 0.47,0.75 a 0.71,0.71 0 0 0 0.36,0.29 0.77,0.77 0 0 0 0.46,0 l 1.69,-0.45 a 1.15,1.15 0 0 0 0.72,-0.69 l 0.82,-2 a 1,1 0 0 0 -0.06,-0.9 z m -2.33,1 c -0.13,0.31 -0.26,0.63 -0.41,0.94 l -0.24,0.5 c -0.09,0.16 -0.17,0.33 -0.26,0.49 0,-0.18 0.11,-0.35 0.16,-0.53 l 0.18,-0.52 c 0.11,-0.32 0.24,-0.64 0.37,-1 a 10.51,10.51 0 0 1 -0.84,-1.44 9.68,9.68 0 0 1 1,1.27 l 1.83,-0.25 z"
         id="path223"
         inkscape:connector-curvature="0"
         style="fill:#f2af1d" />
      <path
         class="cls-4"
         d="m 315.46,156.29 a 0.22,0.22 0 0 0 -0.14,-0.21 0.2,0.2 0 0 0 -0.12,0 v 0 c -0.07,0 -0.26,0.06 -0.55,-0.44 l -0.15,-0.25 -0.47,-0.75 a 0.71,0.71 0 0 0 -0.36,-0.29 0.77,0.77 0 0 0 -0.46,0 l -1.69,0.45 a 1.15,1.15 0 0 0 -0.72,0.69 l -0.82,2 a 1,1 0 0 0 0,0.89 l 0.93,1.41 a 0.75,0.75 0 0 0 0.85,0.31 l 1.66,-0.36 a 0.83,0.83 0 0 0 0.53,-0.49 v -0.09 l 0.69,-1.69 v 0 c 0.34,-0.82 0.54,-0.85 0.54,-0.85 v 0 a 0.36,0.36 0 0 0 0.28,-0.33 z m -2.9,0.79 c -0.13,0.31 -0.26,0.63 -0.41,0.94 l -0.24,0.5 c -0.09,0.16 -0.17,0.33 -0.26,0.49 0,-0.18 0.11,-0.35 0.16,-0.53 L 312,158 c 0.11,-0.32 0.24,-0.64 0.37,-1 a 10.51,10.51 0 0 1 -0.84,-1.44 9.69,9.69 0 0 1 1,1.27 l 1.83,-0.25 z"
         id="path225"
         inkscape:connector-curvature="0"
         style="fill:#f2af1d" />
    </g>
  </g>
</svg>
