<svg xmlns="http://www.w3.org/2000/svg" viewBox="0 0 524.75 273.33"><defs><style>.cls-1{fill:#4c4b4c;}.cls-11,.cls-12,.cls-15,.cls-17,.cls-2,.cls-33,.cls-6,.cls-9{fill:none;}.cls-2{stroke:#ffde77;stroke-width:6px;}.cls-10,.cls-11,.cls-12,.cls-13,.cls-14,.cls-15,.cls-17,.cls-18,.cls-2,.cls-31,.cls-6,.cls-7,.cls-8,.cls-9{stroke-miterlimit:10;}.cls-3{fill:#40403f;}.cls-4{fill:#717187;}.cls-5{fill:#353535;}.cls-6{stroke:#555567;}.cls-17,.cls-6{stroke-width:3px;}.cls-7{fill:#ed2024;}.cls-10,.cls-12,.cls-13,.cls-14,.cls-7{stroke:#231f20;}.cls-8{fill:#ed6a56;}.cls-17,.cls-18,.cls-31,.cls-8,.cls-9{stroke:#000;}.cls-10{fill:#5974b8;}.cls-11{stroke:#262626;}.cls-13,.cls-18,.cls-31,.cls-34{fill:#fff;}.cls-14{fill:#6c5ca8;}.cls-15{stroke:#34343a;}.cls-16{fill:#555567;}.cls-19{fill:#89837e;}.cls-20{fill:#fdf6ad;}.cls-21{fill:#704b4a;}.cls-22{fill:#bf7171;}.cls-23{fill:#a3a1a1;}.cls-24{fill:#7997af;}.cls-25{fill:#0d131b;}.cls-26{fill:#f2db6a;}.cls-27{fill:#3a3a3a;}.cls-28{fill:#4d4b49;}.cls-29{fill:#232323;}.cls-30{fill:#9b3d47;}.cls-31{stroke-width:0.5px;}.cls-32{fill:#231f20;}</style></defs><title>Traffic v1 (straight borders)</title><g id="road"><polygon class="cls-1" points="25.18 195.09 25.18 255.09 476.08 167 510.08 160.67 448.08 117 25.18 195.09"/><line class="cls-2" x1="43.08" y1="239" x2="477.08" y2="156"/></g><g id="Layer_5" data-name="Layer 5"><path class="cls-3" d="M290,148l5.84.94a3.09,3.09,0,0,0,2.47-.72c.34-.28,3.43,0,3.66-.4.1-.18.64-.92.13-1.25-.68-.45-2.47-.51-2.42-.81h0a3.55,3.55,0,0,0-2.65-4.22l-5.84-.94a3.55,3.55,0,0,0-3.84,3.18h0A3.55,3.55,0,0,0,290,148Z" transform="translate(1.19 -29.9)"/><path class="cls-4" d="M93.9,157.15c.38-.12,30.13-.62,30.13-.62l3.5-21.62,5.13.5-3.37,20.88h21.88l.25-16.5,2.38-5.62,3,.38L154.4,149.9,177.65,151l7.5,25.88L134.9,177,92.65,163.65Z" transform="translate(1.19 -29.9)"/><polygon class="cls-4" points="195.21 131.13 216.46 128.38 220.08 116 223.33 109.5 264.08 110.5 275.96 136.88 241.58 144.63 193.46 135.13 195.21 131.13"/><polygon class="cls-4" points="296.83 115 305.83 90 308.46 90.5 299.71 114.63 322.96 108.25 327.33 88.25 332.46 88 331.46 98.13 371.46 100.38 372.21 125.38 342.08 131.5 293.08 121.75 296.83 115"/><polygon class="cls-4" points="410.83 77.38 430.33 75.13 436.96 55.38 464.21 57.38 458.46 86.63 409.96 80.38 410.83 77.38"/><path class="cls-5" d="M360.27,200.52s-7.49.14-9.37-1.29c-1.16-.88-2-3.91-2.33-5.33-.59-2.57-2-10.33-2-10.33l3.67-8,9.33-1.67Z" transform="translate(1.19 -29.9)"/><path class="cls-5" d="M390.27,195.52s-5.81.05-7.37-1a11.75,11.75,0,0,1-3.25-4.79,34.91,34.91,0,0,1-.87-6.37c0-.85.13-3.17.13-3.17l7-2Z" transform="translate(1.19 -29.9)"/><path class="cls-5" d="M281.81,214.11s.66.37-.71-.59c-1.18-.83-7.29-1.49-7.7-2.87-.76-2.57-3-12.25-3-12.25l4.75-7.67,5.67.33Z" transform="translate(1.19 -29.9)"/><path class="cls-5" d="M250.9,217.18s-5.8.44-7.25-.66c-1.91-1.45-3.42-9-3.42-9l2.33-8,5-9,4.67,10Z" transform="translate(1.19 -29.9)"/><polygon class="cls-5" points="466.69 151.14 452.58 149.67 448.86 144.06 446.42 132.5 450.19 122.76 468 125.83 466.69 151.14"/><path class="cls-5" d="M182.52,227.86s-7.44.86-9.25-.59c-1.28-1-1.87-4.61-2-6.25s-.75-6.12-.75-6.12l1-15.42,13,3.67Z" transform="translate(1.19 -29.9)"/><path class="cls-5" d="M159.9,231.9s-7.8-.39-9.67-2c-1.28-1.1-2.55-4.49-3-6.12s-1.37-6.87-1.37-6.87l.67-6.33,5-9.67,7.33,5.67Z" transform="translate(1.19 -29.9)"/><ellipse class="cls-6" cx="452.71" cy="81.25" rx="8.38" ry="8.25"/></g><g id="cars"><g id="people_2" data-name="people 2"><polyline class="cls-7" points="345.08 106.25 349.08 110.75 353.33 123.5 328.33 121.25 333.08 108.75 345.08 106.25 345.08 106.25 345.08 106.25"/><path class="cls-8" d="M255.9,145.06s-3.11,9.55-4.67,12.5c-1.79,3.38-8.83,12.5-8.83,12.5l15.83,4,5.33-5.17,1-12.33-.33-9.67Z" transform="translate(1.19 -29.9)"/><path class="cls-9" d="M255.4,146.15c-.49,1.64-6.39,9.36-8,11.12-2.29,2.49-11,5.05-11.49,5.63" transform="translate(1.19 -29.9)"/><path class="cls-10" d="M158.4,158.9l-3,20s-19.25-.75-18.75-1.5,16.75-20.5,16.75-20.5Z" transform="translate(1.19 -29.9)"/><path class="cls-11" d="M142,165.56c1.5,5.33-4.36,6.67-8.71,6.67S124,168,124.9,164.56a8.43,8.43,0,0,1,8.38-6.58C137.62,158,140.92,161.78,142,165.56Z" transform="translate(1.19 -29.9)"/><path class="cls-12" d="M152.65,157.15c-3.12-.65-7.29.08-10.62.25-3.17.16-7.16.5-9.87.5" transform="translate(1.19 -29.9)"/><path class="cls-13" d="M134.56,162.31c-.29.84-.6-1.18-1.17-1s-1.29,1.77-1.83,1.58c-1-.34-1.83-1.11-1.17-3s2.94-2.76,3.92-2.42S135.22,160.42,134.56,162.31Z" transform="translate(1.19 -29.9)"/><polygon class="cls-14" points="216.74 127.76 215.95 136.05 225.75 137.17 224.57 130.23 222.42 125.3 216.74 127.76"/><ellipse class="cls-15" cx="334.77" cy="118.63" rx="6.81" ry="6.25"/><ellipse class="cls-13" cx="341.46" cy="114.63" rx="3.13" ry="2.88"/><ellipse class="cls-13" cx="330.83" cy="114" rx="2.88" ry="2.38"/><polygon class="cls-16" points="295.83 115.25 322.83 113.5 336.08 114.38 344.33 116 343.21 121.25 302.33 119.63 294.21 119.63 295.83 115.25"/><ellipse class="cls-17" cx="231.92" cy="141.42" rx="7.5" ry="7.75"/><path class="cls-18" d="M236.73,163.4c-.39-2.27-3-1.94-4.37-1-2.49,1.57-1.23,3.33.68.94-1,1.64.4,2.57,1.37.83-1.26,2.86,2.34,1.38,2.29-1.2-.31-.15-.17.14-.3.14" transform="translate(1.19 -29.9)"/></g><path class="cls-19" d="M440.9,76.9c-30.33-2.17-35.45,29.42-40,32.5,0,0-27.83.51-27,37,.67,29.17,27.81,26.5,65.5,26.5s38-18.39,38-56.5S478.5,79.58,440.9,76.9Zm14.33,33-44.33-1.33s2-8.45,3.33-11c1.59-3.05,8.5-10.83,8.5-10.83l35.83,3.17Z" transform="translate(1.19 -29.9)"/><path class="cls-3" d="M441.23,161.23c0,2.3-15.7,4.33-30.33,4.33s-28.67-8.7-28.67-11,12.36,5.33,27,5.33S441.23,158.93,441.23,161.23Z" transform="translate(1.19 -29.9)"/><path class="cls-20" d="M380.4,134.49c.16,4.1,5,9,9.29,8.88s6.35-5.37,6.2-9.47-7.64-11.38-11.91-11.21S380.24,130.38,380.4,134.49Z" transform="translate(1.19 -29.9)"/><polygon class="cls-21" points="376.42 108.5 402.92 108.67 392.25 125.83 375.42 128.33 376.42 108.5"/><path class="cls-22" d="M378.4,143.5,373,117s-30.43-4-38.37-4.12c-8.77-.17-28.25,3.13-28.25,3.13s-10.5,7-14.5,32c-.56,3.51-17.24,7.39-17.25,10.5,0,15.29,3,27.91,17.75,33.75,8.54,3.39,24.42,3.25,37,3.25,22.36,0,72-20.93,72-20.93l.33-36Zm-64.12,4c-5-.31-19.5.63-19.5.63l5.79-14.92,5.33-11.67s11.73-1.66,15.67-2a86.23,86.23,0,0,1,14,0l12.83,1.71L341,149.9S320.81,147.93,314.27,147.52Zm55.25-3-21.37,5.38,1.75-7,5.33-21.33,14.67.33Z" transform="translate(1.19 -29.9)"/><polygon class="cls-23" points="291.08 152.5 328.92 157.83 341.58 155.5 343.58 156.17 344.75 165.67 326.42 167.83 291.42 163.67 291.08 152.5"/><rect class="cls-20" x="278.65" y="166.15" width="14" height="9" rx="2.87" ry="2.87" transform="translate(21.18 -59.61) rotate(6.17)"/><polygon points="312.53 154.46 310.45 154.16 311.7 141.19 313.78 141.5 312.53 154.46"/><rect x="305.96" y="170.32" width="1.75" height="13.03" transform="translate(19.49 -58.42) rotate(5.49)"/><rect x="302.21" y="169.91" width="1.75" height="13.03" transform="translate(19.44 -58.06) rotate(5.49)"/><rect x="298.21" y="169.57" width="1.75" height="13.03" transform="translate(19.39 -57.68) rotate(5.49)"/><rect x="294.54" y="168.96" width="1.75" height="13.03" transform="translate(19.31 -57.33) rotate(5.49)"/><path class="cls-24" d="M295.4,183.4c0-12.91-7.58-29.73-14.5-39.5-12.75-18-24.94-12.25-43.75-12.25-23,0-39,9.51-48.25,28.75-3.57,7.41-3,12.25-3,21,0,13.83-2,28.65,8.1,28.59,13.9-.09,26.15,4.41,47.4.91,24.19-4,38.75-5.25,50.5-11.75C296.12,196.81,295.4,191.27,295.4,183.4Zm-55.83-13.5s-20.11-5.6-27-6.33c-4.64-.5-18.67.33-18.67.33s1.21-3.35,1.5-4.5c.85-3.4,9.68-15.08,14.75-17.25,3.15-1.35,11-1.68,13.63-1.5,5.38.38,17.46,1.58,17.46,1.58Zm6-.33.67-27.33,17-1,8,24Z" transform="translate(1.19 -29.9)"/><path class="cls-25" d="M224.9,199.15c0,3-12.11,2.75-23.5,2.75s-18.75-4.28-18.75-7.25,7.61,2.5,19,2.5S224.9,196.18,224.9,199.15Z" transform="translate(1.19 -29.9)"/><path class="cls-3" d="M78.73,158.42c-.57,1.92,1.38,4.19,4.36,5.08a7.72,7.72,0,0,0,3.63.23c1-.19,4.52,1.5,5,.92.24-.27-2.34-2.68-2.23-3,.57-1.92-1.38-4.19-4.36-5.08S79.3,156.5,78.73,158.42Z" transform="translate(1.19 -29.9)"/><path class="cls-26" d="M192.9,205.23c-.67-42.67-14-86.67-55.33-84-29.08,1.88-40.17,15.92-48.92,39.67-2.24,6.07-11.08,6.33-11.08,6.33l10,36,12,4.67,3.33,14.67s39.88,3.67,75-6.17c4.17-1.17,13.64-1.87,16.33-3.17C197.51,211.66,192.9,205.23,192.9,205.23Zm-99-42.58,11.63-23.37s5.53-1.66,7.71-2c3.45-.6,10.52-.34,14,0,3,.29,12,1.67,12,1.67l3,1.67,2.67,17.33.25,9Zm76,6.5c-4.82-.1-18.5-.75-18.5-.75l-1.83-12.83-3-16a106.57,106.57,0,0,1,10.67-1.67,92.66,92.66,0,0,1,9.33,1s4.77,6.33,6,8.67c2.08,3.94,6.33,16.67,6.33,16.67l1.25,5.42S172.57,169.2,169.9,169.15Z" transform="translate(1.19 -29.9)"/><path class="cls-5" d="M131.4,216.9c0,3.18-14.25,4.5-32,2.75-9.27-.91-18.75-1.32-18.75-4.5s4.5-3,14.75-1.5C105.12,215.1,131.4,213.72,131.4,216.9Z" transform="translate(1.19 -29.9)"/><ellipse class="cls-27" cx="252.56" cy="173.99" rx="7.19" ry="13.33"/><ellipse class="cls-27" cx="282.52" cy="170.83" rx="6.19" ry="12.83"/><ellipse class="cls-27" cx="361.56" cy="157.33" rx="6.19" ry="13.33"/><ellipse class="cls-27" cx="391.23" cy="152.33" rx="6.19" ry="13.33"/><ellipse class="cls-28" cx="465.89" cy="164.45" rx="16.5" ry="10.67" transform="translate(277.52 590.81) rotate(-86.88)"/><ellipse class="cls-27" cx="160.77" cy="213.52" rx="18.37" ry="8.37" transform="translate(-61.12 330.86) rotate(-86.45)"/><path class="cls-27" d="M187.86,211.05c-.53,10.13-3.35,17.21-6.31,17.05s-4.92-6.69-4.38-16.82,3.33-19,6.3-18.86S188.4,200.92,187.86,211.05Z" transform="translate(1.19 -29.9)"/><path class="cls-20" d="M233.08,181.89c.7,2.67-5.06,5.08-12.43,7s-12,2.17-12.75-.5,3.19-5.91,10.56-7.85S232.38,179.22,233.08,181.89Z" transform="translate(1.19 -29.9)"/><ellipse class="cls-20" cx="130.21" cy="165.63" rx="10.13" ry="10.38"/><rect class="cls-20" x="316.65" y="170.65" width="16.5" height="8.75" rx="3.25" ry="3.25" transform="translate(11.18 -47.3) rotate(3.12)"/><path class="cls-20" d="M437.86,144c-2.21,3.83-9,6.27-12.71,4.13s-2.92-8-.71-11.87,12.5-7.27,16.21-5.12S440.07,140.2,437.86,144Z" transform="translate(1.19 -29.9)"/><ellipse class="cls-20" cx="78.21" cy="158.88" rx="10.13" ry="10.38"/><path class="cls-29" d="M73.9,206.15l-1.25,33C40.56,245.05.16,208.82,18.9,163.4c16-38.8,2-35.25,31-30.75,17.79,2.76,36.33,43.92,37.75,72.75Z" transform="translate(1.19 -29.9)"/><path class="cls-16" d="M72.7,206.79,71.61,239.6a1.19,1.19,0,0,0,1.26,1.23l29.47-1.7a1.19,1.19,0,0,0,1.12-1.12l.93-17.11a1.19,1.19,0,0,0,0-.31l-2.82-13.17a1.19,1.19,0,0,0-.8-.88l-12-3.86a1.19,1.19,0,0,0-1.54,1h0a1.19,1.19,0,0,1-1.08,1l-12.33,1A1.19,1.19,0,0,0,72.7,206.79Z" transform="translate(1.19 -29.9)"/><rect class="cls-1" x="121.58" y="178.05" width="16.5" height="3.7" rx="1.82" ry="1.82"/><ellipse class="cls-1" cx="161.92" cy="184.17" rx="3.5" ry="11.17"/><ellipse class="cls-1" cx="183.06" cy="211.23" rx="11.33" ry="2.17" transform="translate(-36.91 352.27) rotate(-86.79)"/><ellipse class="cls-1" cx="252.75" cy="174.17" rx="3.67" ry="7.17"/><ellipse class="cls-1" cx="282.65" cy="171.17" rx="3" ry="6.83"/><ellipse class="cls-1" cx="362.08" cy="158" rx="2.33" ry="8"/><ellipse class="cls-1" cx="391.42" cy="152.33" rx="2.67" ry="8.33"/><ellipse class="cls-20" cx="448.58" cy="105.67" rx="2.5" ry="2"/><ellipse class="cls-20" cx="378.25" cy="99.5" rx="0.83" ry="2.17"/><path class="cls-30" d="M295.06,176c.29,4.73.08,4.77.08,4.77s-6.58.21-6.58-6.57c0-5,2.33-11.27,2.33-11.27C291.73,164.68,294.82,172,295.06,176Z" transform="translate(1.19 -29.9)"/></g><g id="people"><path class="cls-31" d="M252.56,139.23c0-5.06,3.17-9.33,8.83-8.5,3.55.52,6.5,4.1,6.5,9.17s-3.16,8.13-6.75,8.13S252.56,144.29,252.56,139.23Z" transform="translate(1.19 -29.9)"/><ellipse class="cls-13" cx="160.42" cy="122" rx="8" ry="9.33"/><path d="M258.06,144.06a6.35,6.35,0,0,1,1.74-1.16,3.29,3.29,0,0,1,1-.27,1.48,1.48,0,0,1,1.05.26,4.39,4.39,0,0,0-1.88.5c-.31.12-.61.27-.94.38A4.65,4.65,0,0,1,258.06,144.06Z" transform="translate(1.19 -29.9)"/><ellipse class="cls-32" cx="262.9" cy="136.9" rx="1.67" ry="1" transform="translate(111.19 360.93) rotate(-86.46)"/><ellipse class="cls-32" cx="258.23" cy="136.79" rx="1.67" ry="1" transform="translate(82.83 339.73) rotate(-80.73)"/><path class="cls-9" d="M264.06,147.73c-.23,1.52,1,5.58,1.34,7.37s.6,3.65,1,5.46c.32,1.64,1,3.07.58,4.7a17.5,17.5,0,0,1-2.42,4.63c-.8,1.32-1.93,3.91-3,4.5" transform="translate(1.19 -29.9)"/><path class="cls-18" d="M261.56,174.23a6.23,6.23,0,0,0-3.75-.32c-1.44.48-1.53,1.86.23,1.52-.67.74-3,2.6-1.82,3.65.61-.37-.25,1.07,1.81-1.16-1.72,2.64-.64,2.89,1.38.71-1.27,2.06.41,2.2,1.61.39C261.84,177.79,262.86,175,261.56,174.23Z" transform="translate(1.19 -29.9)"/><ellipse class="cls-18" cx="218.43" cy="122.43" rx="6.14" ry="6.01"/><ellipse cx="214.5" cy="151.54" rx="0.85" ry="1.37" transform="translate(-11.65 -9.85) rotate(-5.19)"/><ellipse cx="218.82" cy="151.02" rx="0.85" ry="1.37" transform="translate(-19.76 6.23) rotate(-9.01)"/><path d="M216,155.07a.47.47,0,0,1,.08-.46,1.36,1.36,0,0,1,.37-.3,2.46,2.46,0,0,1,.86-.26,3,3,0,0,1,.88,0,1.46,1.46,0,0,1,.81.35,4.24,4.24,0,0,0-.83,0c-.27,0-.54.05-.8.09s-.53.07-.78.12S216.1,154.78,216,155.07Z" transform="translate(1.19 -29.9)"/><ellipse cx="156.06" cy="149.19" rx="1.87" ry="0.83" transform="translate(-21.26 240.73) rotate(-77.94)"/><ellipse cx="160.4" cy="150.69" rx="1.87" ry="0.83" transform="translate(-19.3 246.15) rotate(-77.94)"/><path class="cls-33" d="M168.48,127.15v-.08" transform="translate(1.19 -29.9)"/><path d="M160.4,147.06a5.27,5.27,0,0,0,1,1.72,7.36,7.36,0,0,1,1.16,1.78,4.49,4.49,0,0,1-1.75-1.32,2.89,2.89,0,0,1-.52-1A1.56,1.56,0,0,1,160.4,147.06Z" transform="translate(1.19 -29.9)"/><path d="M156.65,157.15a1,1,0,0,1,.32-.92,1.59,1.59,0,0,1,.92-.43,1.68,1.68,0,0,1,1.68.77,7,7,0,0,0-1.59,0A2,2,0,0,0,156.65,157.15Z" transform="translate(1.19 -29.9)"/><path class="cls-33" d="M329.15,133.48h.08" transform="translate(1.19 -29.9)"/><path class="cls-34" d="M344.48,133.06c0,4-4.56,7.5-8.33,7.5s-7.33-2.71-7.33-6.67,5.06-8,8.83-8A7,7,0,0,1,344.48,133.06Z" transform="translate(1.19 -29.9)"/><path class="cls-32" d="M344.79,133.06a7.4,7.4,0,0,1-2.68,5.36,9.6,9.6,0,0,1-5.49,2.49A8.16,8.16,0,0,1,330.9,139a6.6,6.6,0,0,1-2.38-5.48,8.14,8.14,0,0,1,2.95-5.2,10.54,10.54,0,0,1,5.35-2.64,6.86,6.86,0,0,1,5.61,1.88A7.61,7.61,0,0,1,344.79,133.06Zm-.62,0a7,7,0,0,0-2.1-5.09,6.27,6.27,0,0,0-5.18-1.76,10,10,0,0,0-5,2.56,7.57,7.57,0,0,0-2.7,4.82,5.93,5.93,0,0,0,2.19,4.91,7.55,7.55,0,0,0,5.22,1.67,8.93,8.93,0,0,0,5.07-2.27A6.75,6.75,0,0,0,344.17,133.06Z" transform="translate(1.19 -29.9)"/><ellipse class="cls-32" cx="333.71" cy="103.21" rx="0.79" ry="1.63"/><ellipse class="cls-32" cx="340.54" cy="104.13" rx="0.79" ry="1.63"/><path class="cls-32" d="M337.48,132.9a6.49,6.49,0,0,1,1.69-1.33,4.19,4.19,0,0,0,.41-.22c.15-.07.29-.17.45-.24a1.9,1.9,0,0,1,1.11-.29c-.23.29-.38.63-.62.9a3.45,3.45,0,0,1-.39.41,3.36,3.36,0,0,1-.5.33,4.72,4.72,0,0,1-1,.4A2.4,2.4,0,0,1,337.48,132.9Z" transform="translate(1.19 -29.9)"/><path class="cls-32" d="M331.73,129.73a3.21,3.21,0,0,1,1.2,1.16,5.34,5.34,0,0,1,.63,1.5,1.48,1.48,0,0,1-.88-.32,2.45,2.45,0,0,1-.59-.65A2.42,2.42,0,0,1,331.73,129.73Z" transform="translate(1.19 -29.9)"/><path class="cls-32" d="M333.81,138.23a1.7,1.7,0,0,1,.52-1.19,1.93,1.93,0,0,1,1.29-.55,1.87,1.87,0,0,1,1.33.5,1.35,1.35,0,0,1,.44,1.24,2.52,2.52,0,0,0-.89-.6,2.2,2.2,0,0,0-.85-.14A3.36,3.36,0,0,0,333.81,138.23Z" transform="translate(1.19 -29.9)"/><path class="cls-12" d="M165.65,157.4c-.34,2.45-.14,5.12-.5,7.5-.24,1.61-.24,5.13-1.28,6.35-1.84,2.16-2.54-1.23-3.28-2.84a28.6,28.6,0,0,1-2.44-6.26" transform="translate(1.19 -29.9)"/><path class="cls-13" d="M168.06,155.48c-1.08,1.52-1.67,3.33-2.92,3.33s-1.75-2.58.33-3.83c1.27-.76-.29-2.57.33-2.83a1.69,1.69,0,0,1,1.17-.25c1,0,1.46.51,1.58,2A2.57,2.57,0,0,1,168.06,155.48Z" transform="translate(1.19 -29.9)"/></g><g id="Layer_6" data-name="Layer 6"><path class="cls-3" d="M163.41,164.17c.57,1.92-1.38,4.19-4.36,5.08a7.72,7.72,0,0,1-3.63.23c-1-.19-4.52,1.5-5,.92-.24-.27,2.34-2.68,2.23-3-.57-1.92,1.38-4.19,4.36-5.08S162.84,162.25,163.41,164.17Z" transform="translate(1.19 -29.9)"/><path class="cls-3" d="M257.43,168.07c.18,2-2.19,3.83-5.28,4.11a7.72,7.72,0,0,1-3.6-.49c-.91-.38-4.73.57-5.11-.1-.18-.31,2.82-2.16,2.79-2.52-.18-2,2.19-3.83,5.28-4.11S257.25,166.07,257.43,168.07Z" transform="translate(1.19 -29.9)"/><path class="cls-3" d="M361.2,152.31l-6.66,1.07a3.74,3.74,0,0,1-2.79-.67c-.38-.27-3.9.08-4.16-.32-.11-.18-.7-.91-.12-1.25.79-.47,2.83-.57,2.78-.87h0a3.76,3.76,0,0,1,3.11-4.3l6.66-1.07a3.76,3.76,0,0,1,4.3,3.11h0A3.76,3.76,0,0,1,361.2,152.31Z" transform="translate(1.19 -29.9)"/><rect class="cls-34" x="470.62" width="54.13" height="212"/><rect class="cls-34" y="39.33" width="50.67" height="234"/></g></svg>