<svg xmlns="http://www.w3.org/2000/svg" xmlns:xlink="http://www.w3.org/1999/xlink" viewBox="0 0 710.96 710.96"><defs><style>.cls-1,.cls-12,.cls-14,.cls-23,.cls-27,.cls-4{fill:none;}.cls-2{clip-path:url(#clip-path);}.cls-3{fill:#efc269;}.cls-4{stroke:#c9c9c9;stroke-width:6px;}.cls-12,.cls-13,.cls-14,.cls-15,.cls-16,.cls-17,.cls-19,.cls-23,.cls-24,.cls-25,.cls-26,.cls-27,.cls-4{stroke-miterlimit:10;}.cls-5{fill:#474748;}.cls-6{clip-path:url(#clip-path-2);}.cls-7{fill:#596d4f;}.cls-8{fill:#eae8e5;}.cls-9{fill:#77644b;}.cls-10{fill:#cddde8;}.cls-11{fill:#b5b5b6;}.cls-12,.cls-13,.cls-14,.cls-15,.cls-16,.cls-17,.cls-19,.cls-23,.cls-24,.cls-25,.cls-26,.cls-27{stroke:#231f20;}.cls-12,.cls-16,.cls-17,.cls-24,.cls-25,.cls-26{stroke-width:2px;}.cls-13{fill:#565656;}.cls-13,.cls-15,.cls-27{stroke-width:3px;}.cls-14{stroke-width:5px;}.cls-15,.cls-20{fill:#f3ba35;}.cls-17,.cls-19{fill:#fff;}.cls-18{fill:#231f20;}.cls-19{stroke-width:0.5px;}.cls-21{fill:#bcbbbb;}.cls-22{fill:#f2b01d;}.cls-23{stroke-width:4px;}.cls-24{fill:#2d2d2d;}.cls-25{fill:#6b6b6b;}.cls-26{fill:#736047;}</style><clipPath id="clip-path"><rect class="cls-1" width="710.96" height="710.96"/></clipPath><clipPath id="clip-path-2"><path class="cls-1" d="M260.63,132.05l-43.15,47.19-1.41,28c5.42,5.08,10.43,7,14.34.72q10,7.43,20,1c6.34,6.26,12.67,5.45,19,1,6.1,3.83,12.46,3.91,19,1,5.82,4,12,3.9,18.45.93,6.55,4.33,12.91,5,19,1,5.45,4.22,11.09,5.17,17,.86,5.88,4.18,11.37,5.56,16,.8,6.61,4.83,12.88,8,17,.85,5,5.56,10.71,7.69,18,.91,4.9,5.81,10.19,6.52,16,.8,6,7,12,7.24,18,.91,5.4,6.39,10.89,8,16.51.83,5.89,7,11.54,7.84,16.91.85l1.41-28,43.15-47.19Z"/></clipPath></defs><title>2-19Cafe(2)Asset 7</title><g id="Layer_2" data-name="Layer 2"><g id="Layer_4" data-name="Layer 4"><g class="cls-2"><rect class="cls-1" width="710.96" height="710.96"/><polygon class="cls-3" points="498.89 383.39 287.89 353.39 287.89 169.39 498.89 199.39 498.89 383.39"/><path class="cls-4" d="M158.55,140.76"/><path class="cls-4" d="M207.05,91.19"/><path class="cls-4" d="M176.55,143.76"/><path class="cls-4" d="M225.05,94.19"/><path class="cls-4" d="M202.49,144.77"/><path class="cls-4" d="M246.86,91.47"/><path class="cls-4" d="M227.24,149.14"/><path class="cls-4" d="M265.8,91.5"/><path class="cls-4" d="M247.24,148.14"/><path class="cls-4" d="M285.8,90.5"/><path class="cls-4" d="M265.24,150.14"/><path class="cls-4" d="M305.89,97.39"/><path class="cls-4" d="M287.24,148.14"/><path class="cls-4" d="M328.39,96.89"/><path class="cls-4" d="M307.39,147.39"/><path class="cls-4" d="M349.39,97.89"/><path class="cls-4" d="M328.39,146.89"/><path class="cls-4" d="M373.39,101.39"/><path class="cls-4" d="M345.89,148.39"/><path class="cls-4" d="M398.89,101.89"/><path class="cls-4" d="M135.39,167.39"/><path class="cls-4" d="M186.39,91.39"/><path class="cls-4" d="M159.89,170.89"/><path class="cls-4" d="M178.89,171.39"/><path class="cls-4" d="M180.39,140.39"/><path class="cls-4" d="M202.89,169.89"/><path class="cls-4" d="M204.89,141.39"/><path class="cls-4" d="M227.39,170.89"/><path class="cls-4" d="M228.89,145.39"/><path class="cls-4" d="M250.89,172.89"/><path class="cls-4" d="M250.89,143.39"/><path class="cls-4" d="M268.89,175.39"/><path class="cls-4" d="M268.39,144.39"/><path class="cls-4" d="M288.89,176.39"/><path class="cls-4" d="M290.89,144.89"/><path class="cls-4" d="M309.89,177.39"/><path class="cls-4" d="M310.39,144.39"/><path class="cls-4" d="M328.89,176.39"/><path class="cls-4" d="M330.39,147.39"/><path class="cls-4" d="M348.89,180.39"/><path class="cls-4" d="M349.39,147.39"/><path class="cls-5" d="M260.78,132.33l-43.15,47.19-1.41,28c5.42,5.08,10.43,7,14.34.72q10,7.43,20,1c6.34,6.26,12.67,5.45,19,1,6.1,3.83,12.46,3.91,19,1,5.82,4,12,3.9,18.45.93,6.55,4.33,12.91,5,19,1,5.45,4.22,11.09,5.17,17,.86,5.88,4.18,11.37,5.56,16,.8,6.61,4.83,12.88,8,17,.85,5,5.56,10.71,7.69,18,.91,4.9,5.81,10.19,6.52,16,.8,6,7,12,7.24,18,.91,5.4,6.39,10.89,8,16.51.83,5.89,7,11.54,7.84,16.91.85l1.41-28L506,144.67Z"/><g class="cls-6"><polyline class="cls-4" points="274.39 127.26 224.37 179.4 223.39 216.89"/><polyline class="cls-4" points="288.76 127.26 238.74 180.15 238.39 217.39"/><polyline class="cls-4" points="301.89 130.26 252.31 181.32 251.81 219.6"/><polyline class="cls-4" points="319.99 128.89 267.39 181.52 266.89 218.39"/><polyline class="cls-4" points="333.2 131.89 282.31 182.54 280.39 221.39"/><polyline class="cls-4" points="349.55 132.39 296.67 183.6 295.89 221.89"/><polyline class="cls-4" points="367.39 132.39 311.39 184.17 310.89 221.89"/><polyline class="cls-4" points="381.39 133.89 325.39 184.82 324.89 223.39"/><polyline class="cls-4" points="397.89 134.39 341.89 185.6 341.39 223.89"/><polyline class="cls-4" points="412.95 134.89 356.95 186.39 356.45 224.39"/><polyline class="cls-4" points="427.39 135.39 371.39 187.17 370.89 224.89"/><polyline class="cls-4" points="442.89 136.89 386.89 187.82 386.39 226.39"/><polyline class="cls-4" points="458.39 137.89 402.39 188.82 401.89 227.39"/><polyline class="cls-4" points="473.89 137.89 417.89 189.39 417.39 227.39"/><polyline class="cls-4" points="486.89 138.39 430.89 190.32 430.39 227.89"/><polyline class="cls-4" points="501.74 138.89 446.67 191.25 445.24 227.25"/></g><ellipse class="cls-7" cx="579.72" cy="282.97" rx="56.32" ry="68.55"/><path class="cls-8" d="M608.37,279.12c0,15.49-8.53,38.43-28.16,38.43-20.48,0-26.46-22.94-26.46-38.43s10.52-16.62,25.6-16.62S608.37,263.63,608.37,279.12Z"/><path class="cls-9" d="M600.27,273.67c0,3.3-8.4,6-18.77,6S561,276.71,561,273.41s10.12-5.71,20.49-5.71S600.27,270.37,600.27,273.67Z"/><path class="cls-8" d="M563.14,292.89c0-7.31-4.2-15.32-9.39-15.32s-9.4,8-9.4,15.32,10.82,14.54,16,14.54S563.14,300.2,563.14,292.89Zm-8.75,4.93c-1.89,0-4.69-5-4.69-7.66s1.53-4.8,3.41-4.8,3.41,2.15,3.41,4.8S556.28,297.82,554.4,297.82Z"/><path class="cls-10" d="M576.84,272.7a15.67,15.67,0,0,1-3.94-4,11.85,11.85,0,0,1-2.06-5.76,10.34,10.34,0,0,1,.29-3.3,10.9,10.9,0,0,1,.53-1.55,11.48,11.48,0,0,1,.66-1.41,27.29,27.29,0,0,1,3.34-4.61,20.67,20.67,0,0,0,2.67-3.71,9.66,9.66,0,0,0,.84-6.12,9,9,0,0,0-.64-2,19.52,19.52,0,0,0-1.43-2.06,5.84,5.84,0,0,1-1.22-2.76l1-.3c.9,1.27,2.45,1.75,4,3.24a9.37,9.37,0,0,1,1.79,2.66,11.47,11.47,0,0,1,.91,3,12.15,12.15,0,0,1-.72,6.32,19.12,19.12,0,0,1-3.19,5c-2.3,2.76-4.18,4.94-4.45,7.56s.85,5.94,2.37,9.14Z"/><path class="cls-10" d="M586.23,273a15.67,15.67,0,0,1-3.94-4,11.85,11.85,0,0,1-2.06-5.76,10.34,10.34,0,0,1,.29-3.3,10.9,10.9,0,0,1,.53-1.55,11.48,11.48,0,0,1,.66-1.41,27.29,27.29,0,0,1,3.34-4.61,20.67,20.67,0,0,0,2.67-3.71,9.66,9.66,0,0,0,.84-6.12,9,9,0,0,0-.64-2,19.52,19.52,0,0,0-1.43-2.06,5.84,5.84,0,0,1-1.22-2.76l1-.3c.9,1.27,2.45,1.75,4,3.24a9.37,9.37,0,0,1,1.79,2.66,11.47,11.47,0,0,1,.91,3,12.15,12.15,0,0,1-.72,6.32,19.12,19.12,0,0,1-3.19,5c-2.3,2.76-4.18,4.94-4.45,7.56s.85,5.94,2.37,9.14Z"/><polygon class="cls-11" points="319.39 511.39 251.06 537.39 158.73 500.39 250.08 487.39 319.39 511.39"/><polygon class="cls-11" points="240.39 450.39 149.39 456.39 112.39 343.39 224.39 346.39 240.39 450.39"/><path class="cls-12" d="M194.06,349.06c2.52,12,23.3,58.86,30,69,5.94,9,14.94,24.34,27.51,20.49,3.62-1.11,12.81-9,13.17-8.83"/><path class="cls-13" d="M406.35,580.79c-9.16-23.08-7.1-58.1-5.12-93.56.47-8.41-5.66-15.51-13.38-15.51h0c-7.54,0-13.58,6.77-13.4,15,.85,38.67.16,74.28-8.08,94.77A13.71,13.71,0,0,1,356,590.13c-19.68,3.17-32.92,9.1-32.92,15.9,0,10.14,29.46,18.36,65.8,18.36s65.8-8.22,65.8-18.36c0-7.32-15.36-13.63-37.57-16.58A13.6,13.6,0,0,1,406.35,580.79Z"/><polyline class="cls-14" points="199.39 498.39 306.06 520.39 406.06 567.72"/><path class="cls-15" d="M245.39,480.39l-47,27c-35.91-42.51-37-106.82-35.67-165.67l32,1.33C200,394.42,202.27,457.61,245.39,480.39Z"/><rect class="cls-16" x="181.31" y="354.47" width="38.49" height="23.16" rx="4.62" ry="4.62" transform="matrix(1, -0.05, 0.05, 1, -17.71, 10.27)"/><path class="cls-17" d="M196.27,395c6.27-7.65,19-8.87,14.5-22.12-3.6.13-1,3.55-3,6.25l-1.5,2.63c1.88-3.21,3.34-8.19.13-11.12-2.37.82-2.26,6.37-3.79,9.46,2.55-9.4-1.08-13.46-3.71-6.09-2,5.53-3.12,4-8.5,4-1.89,4.5,3,16.36,3.58,16.32Z"/><path class="cls-12" d="M163.39,345.72c-2.38,9-6.67,16.71-8.52,26-1.9,9.58-4.34,19.42-4.83,29.34-.38,7.64.28,58.6,12.5,49.18,4.77-3.68,32-55,32.48-55.6"/><path class="cls-18" d="M262.89,423.16l-7.76,1.11a3.48,3.48,0,0,1-3.8-4.53l10.75-33a3.48,3.48,0,0,1,2.82-2.37l7.76-1.11a3.48,3.48,0,0,1,3.8,4.53l-10.75,33A3.48,3.48,0,0,1,262.89,423.16Z"/><path class="cls-17" d="M268.06,427.72c6-9,6.64-11.36,7.69-15.5.83-3.26.77-15.82-5.31-14.78-.1.31,1.55,7,1.45,7.28-3.5-6.67-6.65-6.52-6.83-2.5-.1,2.28,1,4.33.13,7-.38,1.18-1.14-3-3.63-.36-3.63,3.87,1.95,10.81.34,15.84-.61,1.89-1,4.5.33,5.47C264.64,432,267.24,429,268.06,427.72Z"/><ellipse class="cls-17" cx="184.06" cy="305.72" rx="39" ry="40.67"/><polygon class="cls-19" points="144.64 297.89 143.64 281.89 147.89 265.89 155.14 257.89 161.89 254.14 166.89 252.14 173.64 250.89 181.39 249.39 192.39 251.64 199.14 255.39 204.39 259.89 205.64 264.14 162.89 277.64 154.89 282.89 148.14 291.14 144.64 297.89"/><polygon class="cls-20" points="162.89 277.64 177.14 265.64 188.39 263.14 199.64 262.89 207.64 264.89 217.89 269.14 222.64 275.64 223.39 281.14 222.14 284.89 219.39 286.39 216.89 284.39 208.64 276.39 201.14 270.39 198.39 271.39 192.14 276.64 182.89 282.89 174.64 284.39 168.64 281.89 162.89 277.64"/><ellipse class="cls-18" cx="175.39" cy="300.72" rx="3.33" ry="10.33"/><ellipse class="cls-18" cx="204.73" cy="301.06" rx="3.33" ry="10.33"/><path class="cls-18" d="M175.25,324.91a8.5,8.5,0,0,0,2.94,3.38,10.2,10.2,0,0,0,4.08,1.54,12.72,12.72,0,0,0,4.42-.16,15.77,15.77,0,0,0,4.36-1.65l.68.73a9.09,9.09,0,0,1-4.35,3.25,10.74,10.74,0,0,1-5.54.46,10.08,10.08,0,0,1-5.06-2.41,7.69,7.69,0,0,1-2.57-4.86Z"/><path class="cls-12" d="M199.89,270.64c7.5,3.5,9.86,7.87,15.75,13.25,5.48,5,9.5,3.3,7.69-5.83-1.71-8.63-9.43-11.47-17.93-10.34-10.67,1.42-22,27.33-42,10.66-8,0-17,18.42-18.33,23-.44-12.84-3-25.94,4.83-36.75,15-20.75,38.23-15.71,46.75-10.75,5.22,3,7.53,5.47,9.34,10.91a43.41,43.41,0,0,1,9.31,3.61q-.95,0-1.9,0"/><path class="cls-12" d="M161.39,279.14c5-6,12.47-13,20-14.76,6.44-1.55,19.35-2.82,24.6.43"/><path class="cls-21" d="M190.54,258.54h-.07a.27.27,0,0,0-.22.32.27.27,0,0,0,.18.2.32.32,0,0,0,.14,0h.07a.27.27,0,0,0,.22-.32A.26.26,0,0,0,190.54,258.54Z"/><path class="cls-21" d="M191.42,258.31h-.07a.27.27,0,0,0-.22.32.27.27,0,0,0,.18.2.32.32,0,0,0,.14,0h.07a.27.27,0,0,0,.22-.32A.27.27,0,0,0,191.42,258.31Z"/><path class="cls-22" d="M198.25,256.65l-1.32-1.52a1.17,1.17,0,0,0-1.06-.39l-1.94.25a.71.71,0,0,0-.56.46l0,.1-.59,1.68h0c-.29.82-.55.84-.55.84h0a.28.28,0,0,0-.18.31.29.29,0,0,0,.18.2.21.21,0,0,0,.1,0h0c.07,0,.38,0,.78.52,0,.07.19.23.21.27l.66.8a1.06,1.06,0,0,0,.47.33,1.21,1.21,0,0,0,.55.05l2-.35a1,1,0,0,0,.77-.66l.7-2A.9.9,0,0,0,198.25,256.65Zm-2.66.87a9.61,9.61,0,0,1-.36.92c-.08.17-.13.33-.21.5s-.15.32-.24.49c0-.19.07-.35.11-.53s.09-.34.15-.52.19-.65.3-.95a14.6,14.6,0,0,1-1.22-1.55,17.38,17.38,0,0,1,1.42,1.37l2.16-.11Z"/><path class="cls-22" d="M186.17,262.56l1.94-.25a.71.71,0,0,0,.56-.46l0-.1.59-1.68h0c.29-.82.52-.83.52-.83h0a.25.25,0,0,0,.16-.32.28.28,0,0,0-.19-.23.32.32,0,0,0-.14,0h0c-.07,0-.3.05-.71-.5,0-.07-.19-.23-.21-.27l-.66-.8a1.06,1.06,0,0,0-.47-.33,1.21,1.21,0,0,0-.55-.05l-2,.35a1,1,0,0,0-.77.66l-.7,2a.94.94,0,0,0,.18.92l1.32,1.52a1.17,1.17,0,0,0,1.06.39"/><path class="cls-22" d="M186.61,259.53a9.61,9.61,0,0,1-.36.92c-.08.17-.13.33-.21.5s-.15.32-.24.49c0-.19.07-.35.11-.53s.09-.34.15-.52.19-.65.3-.95a14.6,14.6,0,0,1-1.22-1.55,17.38,17.38,0,0,1,1.42,1.37l2.16-.11Z"/><polyline class="cls-23" points="400.73 543.72 389.56 570.89 387.39 575.05 326.06 499.72 320.06 494.39 235.39 486.39"/><line class="cls-23" x1="404.06" y1="567.72" x2="432.73" y2="549.72"/><path class="cls-24" d="M501.74,466.39c0,16.2-51.05,29.33-114.38,29.33s-114.67-13.13-114.67-29.33c0-.87-1.09-7.15-.8-8,5.12-15,55.55-21.33,115.47-21.33,58.25,0,106.69,5.61,114,20C502,458.31,501.74,465.09,501.74,466.39Z"/><ellipse class="cls-25" cx="386.73" cy="457.06" rx="114.67" ry="29.33"/><ellipse class="cls-17" cx="343.56" cy="445.13" rx="34.17" ry="8.74"/><path class="cls-17" d="M330.39,426.89c0-5.25-5.62-2.12-9.33-5.83-4.33-4.33-9.67-4.33-9.67,5.83,0,5.25,12.09,12.5,17.33,12.5S330.39,432.14,330.39,426.89Zm-3,7.5c-8-1-13.95-6.56-12.38-9,3.47-5.42,3.7-1.73,6.67.67,2.54,2.05,6.85-1.49,6.85,1.42S331,434.83,327.44,434.39Z"/><path class="cls-17" d="M320.73,417.06c-.67,29.67,37.33,49.33,45.67,1Z"/><path class="cls-17" d="M366.39,418.06c0,3.38-8.93,6.24-22,6.24s-23.67-2.74-23.67-6.12,10.6-6.12,23.67-6.12S366.39,414.68,366.39,418.06Z"/><path class="cls-26" d="M362.4,420.15c0,2.12-7.24,3.91-17.83,3.91s-19.18-1.72-19.18-3.83,8.59-3.83,19.18-3.83S362.4,418,362.4,420.15Z"/><path class="cls-12" d="M337.06,406.39c-1.32,2.83-3.17,6.79-1.42,9.74,2.34,4,5.08,1.43,5.77-1.73.84-3.89.36-6.25,3.85-9.17,3.15-2.64,7.24-4.43,11-6.16,9.88-4.54,20.84-9.25,22.14-21.54.5-4.7,0-9.72-3.07-13.47-3.92-4.8-10.06-4.56-15.34-7.08-3.45-1.65-7.81-5.11-7.26-9.42.83-6.55,14.89-9.58,19.67-11.83"/><path class="cls-12" d="M337.06,407.39c3.86-5.85,11.84-8.13,18-10.75,5.57-2.37,11.58-5.56,15.65-10.24,4.6-5.29,6.78-14.6,1.43-20.1-6.18-6.35-16.58-5.77-22.41-12.83-2.73-3.29-3.7-7.55-1.42-11.32a10,10,0,0,1,6.53-4.69c6.91-1.88,14.18-2.38,20.55-6.07"/><path class="cls-12" d="M345.73,420.06c-2.37-5.6,3.48-9.18,4.67-14.33"/><path class="cls-12" d="M354.06,406.72c-2.36,3-4.78,5.69-4.33,10"/><path class="cls-27" d="M150.39,455.39c2,19.15,9,39.33,13.78,57.22,5.62,21,4.65,42.43,5.22,65.75.39,16.05,0,40.53-9.5,40.53"/><path class="cls-27" d="M239.39,532.89c0,32.69,0,77,20,100"/><path class="cls-27" d="M306.21,515.39c-2,17.88,5.7,61.91,24.18,71"/><line class="cls-27" x1="167.39" y1="554.39" x2="243.39" y2="585.39"/><line class="cls-27" x1="313.39" y1="559.39" x2="243.39" y2="585.39"/><line class="cls-27" x1="168.89" y1="555.39" x2="247.39" y2="544.39"/><line class="cls-27" x1="311.39" y1="559.89" x2="247.39" y2="544.39"/><path class="cls-27" d="M247.89,537.39a3.08,3.08,0,0,1-1-1.5"/><path class="cls-27" d="M245.89,534.39c-1.59,15.26-.63,35,7,48.47,2.06,3.63,4.77,6.62,9.5,6"/><path class="cls-27" d="M239.39,449.72c2.51,12-.39,28.82,7.33,38.67"/><path class="cls-20" d="M215.17,359.91l-3.24.12.07,1.89,1.38-.05.06,2.52-4.18.16-.09-2.33-1.89.07.09,2.33-9.89.38a6.87,6.87,0,1,0,.11,1.89l19.61-.75-.07-1.89-1.8.07ZM191,371.3a5,5,0,1,1,4.78-5.16A5,5,0,0,1,191,371.3Z"/></g></g></g></svg>