<svg xmlns="http://www.w3.org/2000/svg" viewBox="0 0 301.8 345.12"><defs><style>.cls-1,.cls-12{fill:none;}.cls-1,.cls-2,.cls-3,.cls-4,.cls-5,.cls-7{stroke:#231f20;}.cls-1,.cls-12,.cls-2,.cls-3,.cls-4,.cls-5,.cls-7{stroke-miterlimit:10;}.cls-1,.cls-7{stroke-width:2px;}.cls-2{fill:#4c4c4d;}.cls-3{fill:#f7d95c;}.cls-4{fill:#536d75;}.cls-5,.cls-7,.cls-8{fill:#fff;}.cls-6{fill:#231f20;}.cls-9{fill:#bb2025;}.cls-10{fill:#ed1c24;}.cls-11{fill:#159bd4;}.cls-12{stroke:#bb2025;stroke-width:3px;}.cls-13{fill:#9b9a9a;}</style></defs><title>Scenario3Protesters</title><g id="people"><line class="cls-1" x1="260.38" y1="152.13" x2="286.38" y2="92.13"/><line class="cls-1" x1="214.38" y1="154.79" x2="196.38" y2="90.79"/><path class="cls-1" d="M55,307.33c0,20,2.75,43.21,4.38,64-3.66,2.41-10.63,3.18-13.72,3.32" transform="translate(-43.96 -30.54)"/><path class="cls-1" d="M98.33,304.67c2.75,12.87,4.47,26,7.17,38.86,1.65,7.85,2.13,17.13,4.95,24.35,3.69.76,14.62,2.14,15.22,4.12" transform="translate(-43.96 -30.54)"/><path class="cls-1" d="M148.33,286.67c-1.42,15.19.54,32.6,1.33,48,.28,5.47,2.59,14.63.67,20-2.17,6.06-9.55,4.76-14.67,8" transform="translate(-43.96 -30.54)"/><path class="cls-1" d="M195,287.33c2.17,17.15,3.11,34.73,5.34,51.67.73,5.55-.05,14.47,3,18.67,2.23,3.09,11.55,5.5,10.34,8.33" transform="translate(-43.96 -30.54)"/><path class="cls-1" d="M243.67,282a316.5,316.5,0,0,0-3.39,33.67c-.43,8.68.29,21-2,29.57-4.63.78-10,3.81-14.35,5.45a10.4,10.4,0,0,1,1.78,0" transform="translate(-43.96 -30.54)"/><path class="cls-1" d="M309.67,276.67c2.83,21.64,6.29,42.85,8.77,63.9,4.1.84,9.55,4.46,12.57,7.43" transform="translate(-43.96 -30.54)"/><polygon class="cls-2" points="270.38 250.79 194.38 255.46 213.04 148.13 261.71 148.13 270.38 250.79"/><path class="cls-3" d="M207.67,288c-23,10.62-51.89,8.93-66.33-2.33l27-113,30.67,2Z" transform="translate(-43.96 -30.54)"/><path class="cls-1" d="M163,215.33c5.17,10.23,13.58,21.07,26.66,15.52,9.81-4.16,13.3-17.78,13.34-27.18,0-3.25-1.85-15.35-4-13.67" transform="translate(-43.96 -30.54)"/><path class="cls-4" d="M107,308l-57.33,2.67c-10.08-40.71,5.32-83,20-125.33l38-.67Z" transform="translate(-43.96 -30.54)"/><path class="cls-1" d="M68.33,184c-19.79,31.3-34.2,59.76-12.67,69.33" transform="translate(-43.96 -30.54)"/><circle class="cls-5" cx="237.38" cy="131.79" r="27.67"/><circle class="cls-5" cx="141.38" cy="124.79" r="27.67"/><circle class="cls-5" cx="43.88" cy="129.63" r="29.5"/><ellipse class="cls-6" cx="36.29" cy="125.21" rx="2.75" ry="6.25"/><ellipse class="cls-6" cx="58.79" cy="124.71" rx="2.75" ry="6.25"/><ellipse class="cls-6" cx="130.35" cy="115.21" rx="2.31" ry="5.25"/><ellipse class="cls-6" cx="150.85" cy="118.21" rx="2.31" ry="5.25"/><ellipse class="cls-6" cx="270.31" cy="153.25" rx="5.25" ry="2.31" transform="translate(1.74 337.42) rotate(-73.26)"/><ellipse class="cls-6" cx="293.31" cy="153.25" rx="2.31" ry="5.25" transform="translate(-67.96 28.74) rotate(-11.09)"/><path class="cls-1" d="M85,177.5c4.55-3.14,8.91-4.06,13-2" transform="translate(-43.96 -30.54)"/><path class="cls-1" d="M175.5,169.5c5.4-3.39,10.21-2.55,14.5,2" transform="translate(-43.96 -30.54)"/><path class="cls-1" d="M269,175c2.5-11,18.5-12.5,24-2A34,34,0,0,1,269,175Z" transform="translate(-43.96 -30.54)"/></g><g id="hands_signs" data-name="hands+signs"><rect class="cls-7" x="109.71" y="79.46" width="7.33" height="122"/><path class="cls-8" d="M157.33,189.5c0,1.06,5,.23,5,1.17a8.48,8.48,0,0,1-.16,2.4c-.22.57-4.77.41-5.18.93s4.4.31,4,.67c-2,1.86-6,4.33-9,4.33-6.35,0-5.33-3.31-5.33-8.83s1.5-5.5,7.17-7a5.57,5.57,0,0,1,7.33,5.5C161.09,189.71,157.33,188.12,157.33,189.5Z" transform="translate(-43.96 -30.54)"/><path class="cls-6" d="M152,200c-2.46,0-4.07-.48-5.08-1.51-1.41-1.45-1.36-3.6-1.29-6.33,0-.62,0-1.29,0-2,0-5.91,2-6.43,6.79-7.67l1.12-.29a6.78,6.78,0,0,1,6.23,1.2,6.47,6.47,0,0,1,2.35,5.34,1.33,1.33,0,0,1-.17.57c.79.17,1.33.53,1.34,1.34v.19a7.54,7.54,0,0,1-.23,2.59,1.44,1.44,0,0,1-1.15.85h0l.22.63-.51.5C159.92,197,155.64,200,152,200Zm3.64-16.08a6.05,6.05,0,0,0-1.55.21l-1.13.29c-4.69,1.22-5.3,1.37-5.3,5.74,0,.72,0,1.4,0,2-.06,2.35-.1,4,.72,4.88.6.61,1.79.91,3.65.91s4.48-1.22,6.57-2.68c-1.57-.11-2.2-.2-2.49-.85l-.25-.55.38-.53c.45-.58,1.33-.67,3.27-.82.54,0,1.37-.11,1.83-.19a11.13,11.13,0,0,0,0-1.15c-.4-.05-1-.07-1.42-.08-1.76-.06-3.58-.12-3.58-1.64a1.49,1.49,0,0,1,.49-1.13,3.47,3.47,0,0,1,2.7-.39l.65.06a4.59,4.59,0,0,0-1.63-3.09A4.45,4.45,0,0,0,155.64,183.92Zm5.69,6.76h0Z" transform="translate(-43.96 -30.54)"/><path class="cls-8" d="M164.17,210.33c0,5.8-.58,10.67-5.42,10.67-4.05,0-7.46-5.92-6.75-10.33.14-.85,5.5,1.1,5.5.17,0-1.78-4-1.71-4.5-2.83-1.21-2.53.82-5,4.17-5C162,203,164.17,204.53,164.17,210.33Z" transform="translate(-43.96 -30.54)"/><path class="cls-6" d="M158.75,222a6.79,6.79,0,0,1-5-2.67,11.64,11.64,0,0,1-2.69-8.83,1.18,1.18,0,0,1,.5-.79,2.55,2.55,0,0,1,1.85-.21,2.36,2.36,0,0,1-1.27-1.08,4.14,4.14,0,0,1,.18-4.07,5.64,5.64,0,0,1,4.89-2.36c5.76,0,8,2.34,8,8.33C165.17,214.7,165.17,222,158.75,222Zm-5.83-10.53a9.93,9.93,0,0,0,2.31,6.57,4.85,4.85,0,0,0,3.53,2c3.26,0,4.42-2.53,4.42-9.67,0-5.42-1.85-6.33-6-6.33a3.68,3.68,0,0,0-3.2,1.43,2.13,2.13,0,0,0-.06,2.14,8.48,8.48,0,0,0,1.35.49c1.37.43,3.24,1,3.24,2.77a1.2,1.2,0,0,1-.44.93c-.64.52-1.65.36-3.52,0C154.08,211.66,153.39,211.53,152.92,211.47Z" transform="translate(-43.96 -30.54)"/><polygon class="cls-7" points="111.38 230.79 19.71 249.13 19.71 178.79 111.38 160.46 111.38 230.79"/><rect class="cls-7" x="58.38" y="22.13" width="109" height="66.67"/><polygon class="cls-7" points="294.04 83.79 188.38 76.79 189.04 1.13 300.71 14.46 294.04 83.79"/><path class="cls-7" d="M72.67,249.67c0,1.55-1.73,3.77-2.17,5.5-.19.76,1.12,1.21.83,1.83a8.08,8.08,0,0,1-7.5,5c-5.25,0-9.5-4.7-9.5-10.5,0-4.85,4.29-13.62,8.33-14.83.79-.24.3,4.33,1.17,4.33a8.78,8.78,0,0,1,4.83,1.46c1.42.93-.15,3.29.67,4.87S72.67,247.77,72.67,249.67Z" transform="translate(-43.96 -30.54)"/><path class="cls-7" d="M243.69,111.75c0,4.69-.82,9.72-5.75,6.94-5.92-3.33-16-12-7.33-22.33a2.81,2.81,0,0,1,2.85-.89c.45.09-2.34,4.93-1.89,5.16s4.14-4.15,4.55-3.8a7.81,7.81,0,0,1,.68.65c.44.47-3.15,5.33-2.85,5.89s4.38-3.48,4.5-3a4.89,4.89,0,0,1,.17,1.36c-.06,2.9-5.62,4.32-4,6,1.27,1.31,3.64-.08,5.16,0C242.85,107.82,243.69,108.61,243.69,111.75Z" transform="translate(-43.96 -30.54)"/><path class="cls-7" d="M340.67,98.67c5,8,1.89,21.68-3.68,22.72s-7.64-1.05-8.32-4.72c-.51-2.73,1.92-2.48,5-2.67,1.05-.06,1.59.45,2.5-.67,1.5-1.83-5.5-4-4.83-5l1-1.57.42-.66c.23-.36,3.18,2.09,3.42,1.72s-2.21-3.59-2-4,.63-.93.95-1.37c.62-.87,3.92,2.68,4.5,2,.39-.45-1.91-5.19-1.55-5.51C339.19,98,340.1,97.76,340.67,98.67Z" transform="translate(-43.96 -30.54)"/><path class="cls-7" d="M116,271.75c0,4.28-4.33,5.58-9.17,5.58s-8.33-1.3-8.33-5.58c0-3,.33-7.92,7.83-8.75,1.37-.15.74,3.67,2.17,3.67,1.81,0,2.94-4.5,4.33-3.67C115.16,264.39,116,269.07,116,271.75Z" transform="translate(-43.96 -30.54)"/><path class="cls-9" d="M89.33,266h2c0-8-.16-16.68-.32-25.86-.17-9.36-.34-19-.34-28.14h-2c0,9,.17,18.61.34,27.88l-.77.39c-3.2,1.63-8.83,4.49-12.88,4.78,0-.57,0-1.14,0-1.71V214h-2v29.33c0,3.56.21,7,.42,10.4.09,1.44.18,2.87.25,4.31s0,3.09,0,4.61c0,.78,0,1.57,0,2.34v5.59h2V265c0-.77,0-1.54,0-2.31,0-1.55.05-3.16,0-4.74s-.16-2.89-.25-4.34c-.13-2.15-.26-4.35-.34-6.58,4.44-.28,10.05-3.12,13.64-4.94C89.2,250.56,89.33,258.57,89.33,266Z" transform="translate(-43.96 -30.54)"/><path class="cls-9" d="M105.41,247.81c-1.1-11-2.34-23.37-5.59-33.39L99.36,213l-1.14,1C93.9,217.61,94,226.62,94,233.86c0,1.76,0,3.43,0,4.76-.11,2.43-.26,4.87-.42,7.28l-1.06.55.92,1.68h0c-.38,5.79-.77,11.79-.77,17.85h2c0-6,.39-12,.77-17.72l.07-1.08A24.24,24.24,0,0,1,103.1,245l-.2-2a25.06,25.06,0,0,0-7.25,1.94c.13-2.07.26-4.15.35-6.24.06-1.39,0-3.08,0-4.87,0-5.74-.11-13.37,2.4-17.12,2.8,9.51,4,21,5,31.29.58,5.83,1.13,11.33,1.93,16.15l2-.33C106.53,259.08,106,253.61,105.41,247.81Z" transform="translate(-43.96 -30.54)"/><path class="cls-9" d="M118.45,260.52a8.06,8.06,0,0,1-5.77-2.74c-7.8-8-10.65-32.22-5-42.55,2.21-4,5.5-5.72,9.51-4.88l-.41,2c-3.11-.65-5.58.66-7.35,3.88-5.23,9.55-2.53,32.84,4.67,40.19,2.22,2.27,4.54,2.73,7.09,1.4l.92,1.77A7.92,7.92,0,0,1,118.45,260.52Z" transform="translate(-43.96 -30.54)"/><path class="cls-9" d="M139.33,254.55l-2,.22a.88.88,0,0,1,.46-.5.83.83,0,0,1,.79,0,18,18,0,0,1-1.64-2.18c-.49-.7-1-1.43-1.4-1.93-.65-.8-1.28-1.68-2-2.62s-1.32-1.84-2-2.73-1.43-1.75-2.15-2.61a76.72,76.72,0,0,1-4.78-6.18,195.2,195.2,0,0,1,10.64-26.73l-1.77-.94c-.15.25-.31.51-.47.77a14.15,14.15,0,0,0-1,1.77l.21.09A203,203,0,0,0,124,231.7c.07-3.56.2-7.09.34-10.5.18-4.65.36-9,.36-13.2h-2c0,4.11-.17,8.49-.36,13.12-.22,5.53-.45,11.37-.37,17.15-.2.73-.4,1.46-.58,2.16l.63.16a77.1,77.1,0,0,0,2.67,19.55c0,.68.11,1.28.92,1.34h.1c.89,0,1-.95,1-1.27l0-.2,0-.14v-.08c.06-1.3.09-2-.64-2.2a84.89,84.89,0,0,1-2.09-19.07h0c1.27,1.74,2.63,3.39,4,5,.71.85,1.42,1.71,2.12,2.58s1.33,1.76,2,2.64,1.33,1.86,2,2.71c.36.45.84,1.14,1.31,1.81,1.36,2,2,2.94,2.85,2.94a1.19,1.19,0,0,0,.42-.08C139,256,139.44,255.58,139.33,254.55Z" transform="translate(-43.96 -30.54)"/><path class="cls-9" d="M145.47,257.21a3.69,3.69,0,0,1-2-.62c-2.76-1.82-3.34-6.94-2-10.29l1.86.73c-1.09,2.77-.45,6.75,1.26,7.89,1.22.81,2.73-.26,3.78-1.29,4.81-4.72,2.07-23.88-1.34-29.81a12.23,12.23,0,0,0-3.92-3.76c-2.36-1.66-4.8-3.38-4.41-7.49.33-3.4,3.91-7.34,7-7.66,1-.1,3.28,0,4.35,3.46L148,209c-.69-2.22-1.85-2.1-2.23-2.06-2.14.22-4.95,3.4-5.19,5.86-.29,2.95,1.33,4.08,3.57,5.66a14,14,0,0,1,4.51,4.4c3.42,6,6.88,26.47,1,32.23C148,256.71,146.59,257.21,145.47,257.21Z" transform="translate(-43.96 -30.54)"/><path class="cls-9" d="M118.23,95.87a8,8,0,0,1-3.7-.89,6.07,6.07,0,0,1-3.36-6.1l3,.24a3.11,3.11,0,0,0,1.76,3.2,5,5,0,0,0,5.21-.4c2.93-2.4,2.36-6.15.58-8.61A14.06,14.06,0,0,0,117,79.63a20.22,20.22,0,0,1-4.44-3.16c-2.45-2.49-3-5.46-1.47-8.15,2.08-3.7,7.89-6.28,12-5.32a5,5,0,0,1,4.08,4.93l-3,.14a2.06,2.06,0,0,0-1.77-2.15c-2.79-.66-7.24,1.33-8.67,3.87-.86,1.53-.53,3,1,4.57A17.68,17.68,0,0,0,118.53,77a16.58,16.58,0,0,1,5.61,4.52c3.08,4.29,2.61,9.63-1.12,12.68A7.58,7.58,0,0,1,118.23,95.87Z" transform="translate(-43.96 -30.54)"/><path class="cls-9" d="M136.53,96.22A7.34,7.34,0,0,1,132.4,95c-6.24-4.21-3.85-17.61-3.55-19.12.61-3.17,3.36-8.41,7.29-9.58,1.54-.46,3.87-.48,6.27,2l-2.15,2.09c-1.64-1.69-2.86-1.32-3.26-1.2-2.3.69-4.65,4.41-5.2,7.28-1,5.16-1.21,13.7,2.29,16.06a5,5,0,0,0,6.16-.87l2.19,2A8.12,8.12,0,0,1,136.53,96.22Z" transform="translate(-43.96 -30.54)"/><path class="cls-9" d="M162.8,94.06c-.59-2.08-1.17-4.18-1.75-6.29-.63-2.29-1.27-4.6-1.94-6.93-.15-.51-.3-1.07-.46-1.66-1.13-4.2-2.69-9.94-6.1-12.43l-1-.69-.9.76c-2.87,2.43-3.39,7.27-3.81,11.15-.1.9-.19,1.74-.3,2.47a100.11,100.11,0,0,0-1.43,15.23h3a79.77,79.77,0,0,1,.64-9.44,29.34,29.34,0,0,1,8.4-1.07c.32,1.13.64,2.28,1,3.41.6,2.17,1.84,6.91,2,7l.11.39,2.92-.18A2.3,2.3,0,0,0,162.8,94.06ZM149.24,83c.1-.71.21-1.42.32-2.09s.22-1.66.32-2.61c.28-2.65.65-6.12,1.91-8.16,2,2.35,3.15,6.77,4,9.83.17.61.32,1.19.47,1.71l.14.5A36.17,36.17,0,0,0,149.24,83Z" transform="translate(-43.96 -30.54)"/><path class="cls-9" d="M181.85,96.82l0-.16c-.16-.15-.13-.78-.13-.78-.67-4-1.39-8.09-2.15-11.94-.26-1.29-.42-2.72-.6-4.22a35.15,35.15,0,0,0-1.37-7.28,32.21,32.21,0,0,0-2,5.57A30.49,30.49,0,0,1,174,82.39L173.2,84l-1.45-1.12c-2.21-1.7-3.42-4.74-4.59-7.68v0c0,1.33.12,2.73.19,3.74s.16,2.11.15,2.89c0,2.23.16,4.49.33,6.67s.34,4.5.34,6.83h-3c0-2.22-.17-4.45-.33-6.6s-.34-4.55-.34-6.9c0-.67-.07-1.64-.15-2.67-.33-4.4-.45-7.91,1.07-9.75l2.44.17A30.57,30.57,0,0,1,170,74.13a30.15,30.15,0,0,0,2.19,4.73c.17-.54.34-1.12.52-1.72,1.05-3.53,2.14-7.19,4.43-8.68l2.08.44c1.84,2.83,2.32,6.89,2.74,10.47.17,1.45.33,2.81.56,4,.76,3.84,2.48,12.95,2.29,13.62Z" transform="translate(-43.96 -30.54)"/><path class="cls-9" d="M193,100.23l-.6,0a6.3,6.3,0,0,1-5.51-4.36l2.82-1a3.29,3.29,0,0,0,2.94,2.4,6.63,6.63,0,0,0,5.77-3.27c1.69-3,.75-7.35-1-10.13-1.6-2.46-3.5-3.4-5.9-4.58a31.24,31.24,0,0,1-4-2.24c-3.46-2.35-3.48-5.06-3.18-6.46.8-3.79,5.31-6.6,9.15-7.31s6.8.39,8.47,3l-2.52,1.63c-1.33-2.06-4-1.91-5.4-1.64-3.22.6-6.32,2.88-6.76,5-.25,1.19.4,2.32,1.94,3.37a28.88,28.88,0,0,0,3.65,2c2.48,1.22,5,2.48,7.09,5.64,2.22,3.43,3.53,9,1.14,13.24A9.68,9.68,0,0,1,193,100.23Z" transform="translate(-43.96 -30.54)"/><path class="cls-10" d="M258.87,101.3c-.6-4.42-2.5-10.07-3.48-14.93-.75,2.48-2.6,8.65-3.4,10.91-.65,1.84-1.16,3.29-1.59,4.19l-2.71-1.29c.36-.76.87-2.21,1.47-3.9,2.64-7.49,2.94-11.19,4.87-13.79l3.5,1.28c.8,3.51,3,7.53,3.49,11.2,1.39-4,2.73-8.28,3.9-12.52l2.92.66a9.86,9.86,0,0,1-.26,1.05c-.05.19-.11.38-.16.57h0c-1.69,5.92-3.67,11.87-5.64,16.91Z" transform="translate(-43.96 -30.54)"/><path class="cls-10" d="M271.88,103.17a6.14,6.14,0,0,1-3.47-1.36,7.11,7.11,0,0,1-2.56-8.42c3.32-10,12.86-7.08,13.27-6.69,2.27,2.12.28,10.6-2.7,14.15A5.68,5.68,0,0,1,271.88,103.17Zm-3.18-8.84a4.2,4.2,0,0,0,1.52,5.09c1.58,1.19,2.54.74,3.26.15,2.37-2,4.84-7.45,3.62-9.61S271.06,86.58,268.7,94.33Z" transform="translate(-43.96 -30.54)"/><path class="cls-10" d="M292.66,89.19c.05-.52.15-2.62.15-2.62s-11.38-.13-11.92-.15h0l-.11,3h0c.58,0,2.79-.14,3.86-.2-.55,1.85-1.69,12.34-2.18,14.06l2.87.29a57.19,57.19,0,0,0,1.2-7.46c.31-2.56.87-6.91.87-6.91C289.11,89.13,292.66,89.19,292.66,89.19Z" transform="translate(-43.96 -30.54)"/><path d="M297.77,106.16a3.58,3.58,0,0,1-1.58-.44c-2-1.08-3.06-4-2.92-6.07l3,.21a4.07,4.07,0,0,0,1.36,3.23c.12.06.36.2.93-.23a1.33,1.33,0,0,0,.55-1,6.49,6.49,0,0,0-1.68-4.11,11.21,11.21,0,0,0-1.2-1.08c-1-.86-2.23-1.83-2.37-3.36a4.08,4.08,0,0,1,1.14-3,5.44,5.44,0,0,1,5.87-1.46,3.37,3.37,0,0,1,2,3.7l-3-.35c.06-.48-.08-.53-.21-.59a2.47,2.47,0,0,0-2.38.62c-.38.46-.47.73-.46.82,0,.29.79.91,1.29,1.32a13.72,13.72,0,0,1,1.53,1.39,9.31,9.31,0,0,1,2.44,6.42,4.33,4.33,0,0,1-1.73,3.14A4,4,0,0,1,297.77,106.16Z" transform="translate(-43.96 -30.54)"/><path d="M313.73,106.31c.14-4-.05-9.44-1.7-13.81l-.33-.87-4-.47a88.88,88.88,0,0,0-5.54,12c-.27.83-.5,1.55-.68,2l2.8,1.09c.21-.55.46-1.31.74-2.19.2-.61.47-1.45.79-2.38l.75.05c.72,0,1.39,0,2.05-.05a15.82,15.82,0,0,1,2.06,0c.08,1.43.09,2.93,0,4.5l-.21.09a3.5,3.5,0,0,0,.32.59.85.85,0,0,1-.1-.31l3,.32A2.37,2.37,0,0,0,313.73,106.31Zm-5.27-7.61c-.51,0-1,.06-1.49.05.78-1.79,1.7-3.41,2.65-4a26.1,26.1,0,0,1,.8,3.89C309.75,98.63,309.1,98.66,308.47,98.7Z" transform="translate(-43.96 -30.54)"/><path d="M318.46,98.29c.08-1,.16-2,.27-3l.56-.07a36.18,36.18,0,0,1,4.44-.2,11.66,11.66,0,0,1,.77-2.47c-2.44-.78-8.46-.06-8.46-.06l-.15,1.25c-.5,4.12-.68,8.35-.85,13.06l3,.11c.07-1.91.14-3.74.23-5.51a39.07,39.07,0,0,1,4.23,0l.37-2.68C321.54,98.52,320,98.53,318.46,98.29Z" transform="translate(-43.96 -30.54)"/><path d="M326.22,104.47a30.64,30.64,0,0,1,.42-3.33,36.47,36.47,0,0,1,4-.18l.46-3a11.93,11.93,0,0,0-3.2,0l-.55.06a10.13,10.13,0,0,1,.64-1.67c.29-.56,4.71-1.05,4.79-1l1.85-2.75c-.58-.46-9.28.61-9.28.61s-2.26,9.78-2.16,12.65l0,1.33,1.33.11c.74.06,1.48.09,2.22.13a16.7,16.7,0,0,1,5.28.77l1.13-3.34c-2.24-.27-4.22-.34-6.29-.43Z" transform="translate(-43.96 -30.54)"/><rect class="cls-9" x="238.91" y="83.96" width="10" height="3.33" transform="translate(-40.81 -39.03) rotate(2.01)"/><rect class="cls-9" x="238.52" y="91.21" width="10" height="3.33" transform="translate(-40.55 -39.01) rotate(2.01)"/><path class="cls-11" d="M262.57,76.36l-.8-.1-.74-.18.74-8s5.52.47,6,1.09a1.91,1.91,0,0,1,.41,1.62,3.07,3.07,0,0,1-1.06,1.52,2.47,2.47,0,0,1,1,2.43C267.88,76.54,264.79,76.55,262.57,76.36Zm1-3.3c0,.35-.11,1.12-.13,1.47,1.36.16,2.51.44,2.55-.63S263.78,73.08,263.55,73.06ZM266.1,71c.1-.76-1.28-.81-2.25-.84,0,.13-.19,1.15-.21,1.28S265.95,72.08,266.1,71Z" transform="translate(-43.96 -30.54)"/><path class="cls-11" d="M269.29,76.84s.49-7.19.57-8.12L272,69c-.09,1-.42,4.8-.5,5.78l3.87.42-.23,2.18Z" transform="translate(-43.96 -30.54)"/><path class="cls-11" d="M298.75,74.88c.5-.66,2-2.63,2.4-3.11L299.48,71c-.87.73-2.31,2.39-3.39,3.26.07-.74.2-2.79.28-3.1l-1.85-.12c-.19.81-.69,7.61-.75,7.9l1.89.14c.08-.38.11-1.15.22-2.58l.06.06.77-.67a13,13,0,0,0,.75,1.67,10,10,0,0,1,.8,1.83l2.23.09C300.23,78.65,298.86,75.67,298.75,74.88Z" transform="translate(-43.96 -30.54)"/><path class="cls-11" d="M313.38,72.69c0,1.12-.12,1.81-.19,3-.35,0-1-.09-1.39-.13s-.92-.08-1.25-.13c.06-1.28.12-1.65.18-2.89l-2.13-.17c-.11,2.29-.63,7.22-.67,7.81l2.2.22c0-.57.15-2.75.17-3,.29,0,2.36.19,2.74.24,0,.5-.27,3.08-.27,3.08l2.18.22s.72-5.57.74-8Z" transform="translate(-43.96 -30.54)"/><path class="cls-11" d="M322.17,81.51l2.5.17c-.73-2.07-2.36-8.05-2.36-8.05l-2.59-.25s-3.23,6-3.92,7.57l2.31.16c.21-.46.56-1.21.93-1.85l2.75.29C321.91,80.28,322.1,80.82,322.17,81.51Zm-2.43-3.42c.27-.42.77-1.64,1-2,.11.44.56,1.79.66,2.23Z" transform="translate(-43.96 -30.54)"/><path class="cls-11" d="M334.78,82.62c-.46-.71-2.42-3.88-3-4.72l0,.56a27.15,27.15,0,0,1-.41,3.85l-2-.21c.13-.9.57-6.85.78-7.84l1.84.12c1.2,1.45,2,2.78,3,4.19,0-.13.32-2.94.38-3.83l2,.16c-.15.81-.53,6.85-.72,7.86Z" transform="translate(-43.96 -30.54)"/><path class="cls-11" d="M289.41,78.69c-3.82-.69-4.12-3.05-3.72-4.93a4,4,0,0,1,2.81-3.4,3.64,3.64,0,0,1,2.87.26,3.21,3.21,0,0,1,1.6,2.06l-2.09.38c-1.24-1.47-2.83-.28-3.12,1.1-.21,1,.82,3.5,2.92,2l1.62,1.36A4.1,4.1,0,0,1,289.41,78.69Z" transform="translate(-43.96 -30.54)"/><path class="cls-11" d="M279.7,77.75a4,4,0,1,1,4.36-3.65A4,4,0,0,1,279.7,77.75Zm.54-6a2,2,0,1,0,1.86,2.22A2,2,0,0,0,280.24,71.7Z" transform="translate(-43.96 -30.54)"/><path class="cls-11" d="M303.76,79.85c-3.82-.69-4.12-3.05-3.72-4.93a4,4,0,0,1,2.81-3.4,3.64,3.64,0,0,1,2.87.26,3.21,3.21,0,0,1,1.6,2.06l-2.09.38c-1.24-1.47-2.83-.28-3.12,1.1-.21,1,.82,3.5,2.92,2l1.62,1.36A4.1,4.1,0,0,1,303.76,79.85Z" transform="translate(-43.96 -30.54)"/><rect class="cls-11" x="325.91" y="73.96" width="2.19" height="7.93" transform="translate(-35.78 -59.17) rotate(5.08)"/><rect class="cls-11" x="245.43" y="58.66" width="2.24" height="2.75" transform="translate(-33.67 -63.08) rotate(7.71)"/><rect class="cls-11" x="250.25" y="59.23" width="2.09" height="3.21" transform="translate(-33.52 -63.71) rotate(7.71)"/><rect class="cls-11" x="247.32" y="58.8" width="1.7" height="1.07" transform="translate(-33.75 -63.3) rotate(7.71)"/><rect class="cls-11" x="251.93" y="59.43" width="1.78" height="0.99" transform="matrix(0.99, 0.13, -0.13, 0.99, -33.63, -63.92)"/><rect class="cls-11" x="248.11" y="74.43" width="2.86" height="3.29" transform="matrix(0.99, 0.13, -0.13, 0.99, -31.49, -63.33)"/><rect class="cls-11" x="242.99" y="74.02" width="1.39" height="2.37" transform="matrix(0.99, 0.13, -0.13, 0.99, -31.66, -62.56)"/><rect class="cls-11" x="241.22" y="71.64" width="1.86" height="0.92" transform="translate(-32.09 -62.38) rotate(7.71)"/><rect class="cls-11" x="240.48" y="69.15" width="1.86" height="0.61" transform="translate(-32.45 -62.3) rotate(7.71)"/><rect class="cls-11" x="238.64" y="64.12" width="1.94" height="1.07" transform="translate(-33.11 -62.1) rotate(7.71)"/><rect class="cls-11" x="241.71" y="65.95" width="1.16" height="0.46" transform="translate(-32.89 -62.45) rotate(7.71)"/><rect class="cls-11" x="241.08" y="62.38" width="1.01" height="0.69" transform="matrix(0.99, 0.13, -0.13, 0.99, -33.36, -62.39)"/><rect class="cls-11" x="242.44" y="64.4" width="0.77" height="0.76" transform="translate(-33.07 -62.54) rotate(7.71)"/><rect class="cls-11" x="238.71" y="71.18" width="1.16" height="0.76" transform="translate(-32.19 -62) rotate(7.71)"/><path class="cls-11" d="M253.95,68.67a5.67,5.67,0,0,0,2.11-2.72s0,0,0-.07l-.94-.13.12-.91.9.12a3.51,3.51,0,0,0-.73-2.06c-.92-1.2-11.24-2.56-11.24-2.56L242.12,75l1.37.4q.76.16,1.49.26c4.15.56,9.94.8,10.59-2.43A4.58,4.58,0,0,0,253.95,68.67Zm-8.4-4.37.69.09-.08.61-.69-.09Zm-1.32-1.18.77.1-.11.83-.77-.1Zm.27,7.83-1-.14.1-.76,1,.14Zm1.43-3-1.3-.18.12-.91L246,67Zm2-3.6c1.82.15,4.41.36,4.15,1.76-.37,2-4.48.62-4.65.6C247.44,66.42,247.86,64.54,247.9,64.3Zm-1.16,8.08c.06-.65.28-2.07.37-2.72.42.07,4.61,0,4.46,1.77C251.4,73.42,249.27,72.79,246.74,72.38Zm7.95,1.19-.92-.12.09-.68.92.12Z" transform="translate(-43.96 -30.54)"/><rect class="cls-11" x="241.57" y="60.51" width="0.93" height="0.61" transform="translate(-33.61 -62.47) rotate(7.71)"/><rect class="cls-11" x="244.2" y="59.46" width="0.62" height="0.76" transform="matrix(0.99, 0.13, -0.13, 0.99, -33.72, -62.81)"/><rect class="cls-11" x="239.9" y="73.86" width="0.85" height="0.92" transform="matrix(0.99, 0.13, -0.13, 0.99, -31.81, -62.11)"/><path class="cls-12" d="M280.82,48.85a8.29,8.29,0,0,1-7,7.43,5.28,5.28,0,0,1-6.26-5.68,8.29,8.29,0,0,1,7-7.43A5.28,5.28,0,0,1,280.82,48.85Z" transform="translate(-43.96 -30.54)"/><polygon class="cls-9" points="253.07 17.44 253.76 14.96 243.98 15.15 240.04 28.96 242.99 29.71 244.69 23.58 250.76 23.8 251.51 21.13 245.44 20.91 246.35 17.56 253.07 17.44"/><polygon class="cls-9" points="267.26 19.54 267.97 17.06 257.87 17.17 253.71 31.29 256.76 31.72 258.51 25.61 264.76 25.7 265.53 23.03 259.28 22.94 260.3 19.36 267.26 19.54"/><path class="cls-13" d="M319.27,55c.06-.49.14-1,.21-1.37.21-1.12.38-2-.14-2.72a3.46,3.46,0,0,0-2.58-1,2.15,2.15,0,0,0-2.29,1.27,9.25,9.25,0,0,0-.73,3.07,1.38,1.38,0,0,0-1.12,1.14l-.88,5.73,7.7,1.19.88-5.73A1.38,1.38,0,0,0,319.27,55Zm-3.88-3.36a1.12,1.12,0,0,1,1.26-.7c1,.11,1.64.31,1.86.62s.12,1,0,1.89c-.08.42-.16.88-.23,1.39l-3.46-.53A8.23,8.23,0,0,1,315.39,51.61Z" transform="translate(-43.96 -30.54)"/><path class="cls-13" d="M261.75,45.74c.07-.54.15-1,.23-1.49.23-1.22.41-2.19-.15-3s-1.33-1-2.82-1.13a2.34,2.34,0,0,0-2.5,1.39,10.1,10.1,0,0,0-.8,3.35,1.5,1.5,0,0,0-1.22,1.25l-1,6.25,8.4,1.29,1-6.25A1.5,1.5,0,0,0,261.75,45.74Zm-4.23-3.67a1.22,1.22,0,0,1,1.37-.77c1.11.12,1.79.34,2,.67s.13,1.08-.05,2.06c-.09.46-.18,1-.25,1.52L256.85,45A9,9,0,0,1,257.52,42.07Z" transform="translate(-43.96 -30.54)"/><path class="cls-13" d="M250.08,44.24c.07-.54.15-1,.23-1.49.23-1.22.41-2.19-.15-3s-1.33-1-2.82-1.13a2.34,2.34,0,0,0-2.5,1.39,10.1,10.1,0,0,0-.8,3.35,1.5,1.5,0,0,0-1.22,1.25l-1,6.25,8.4,1.29,1-6.25A1.5,1.5,0,0,0,250.08,44.24Zm-4.23-3.67a1.22,1.22,0,0,1,1.37-.77c1.11.12,1.79.34,2,.67s.13,1.08-.05,2.06c-.09.46-.18,1-.25,1.52l-3.77-.58A9,9,0,0,1,245.85,40.57Z" transform="translate(-43.96 -30.54)"/><path class="cls-13" d="M331.08,56.07c.07-.54.15-1,.23-1.49.23-1.22.41-2.19-.15-3s-1.33-1-2.82-1.13a2.34,2.34,0,0,0-2.5,1.39,10.1,10.1,0,0,0-.8,3.35,1.5,1.5,0,0,0-1.22,1.25l-1,6.25,8.4,1.29,1-6.25A1.5,1.5,0,0,0,331.08,56.07Zm-4.23-3.67a1.22,1.22,0,0,1,1.37-.77c1.11.12,1.79.34,2,.67s.13,1.08-.05,2.06c-.09.46-.18,1-.25,1.52l-3.77-.58A9,9,0,0,1,326.85,52.4Z" transform="translate(-43.96 -30.54)"/></g></svg>