<?xml version="1.0" encoding="UTF-8" standalone="no"?>
<svg
   xmlns:dc="http://purl.org/dc/elements/1.1/"
   xmlns:cc="http://creativecommons.org/ns#"
   xmlns:rdf="http://www.w3.org/1999/02/22-rdf-syntax-ns#"
   xmlns:svg="http://www.w3.org/2000/svg"
   xmlns="http://www.w3.org/2000/svg"
   xmlns:sodipodi="http://sodipodi.sourceforge.net/DTD/sodipodi-0.dtd"
   xmlns:inkscape="http://www.inkscape.org/namespaces/inkscape"
   viewBox="0 0 500 500"
   version="1.1"
   id="svg190"
   sodipodi:docname="Scenario-Protesters.svg"
   width="500"
   height="500"
   inkscape:version="0.92.2 (30a58d1, 2017-08-07)">
  <metadata
     id="metadata194">
    <rdf:RDF>
      <cc:Work
         rdf:about="">
        <dc:format>image/svg+xml</dc:format>
        <dc:type
           rdf:resource="http://purl.org/dc/dcmitype/StillImage" />
      </cc:Work>
    </rdf:RDF>
  </metadata>
  <sodipodi:namedview
     pagecolor="#ffffff"
     bordercolor="#666666"
     borderopacity="1"
     objecttolerance="10"
     gridtolerance="10"
     guidetolerance="10"
     inkscape:pageopacity="0"
     inkscape:pageshadow="2"
     inkscape:window-width="1366"
     inkscape:window-height="717"
     id="namedview192"
     showgrid="false"
     inkscape:zoom="1.078"
     inkscape:cx="250"
     inkscape:cy="176.6543"
     inkscape:window-x="0"
     inkscape:window-y="27"
     inkscape:window-maximized="1"
     inkscape:current-layer="svg190" />
  <defs
     id="defs4">
    <style
       id="style2">.cls-1,.cls-12{fill:none;}.cls-1,.cls-2,.cls-3,.cls-4,.cls-5,.cls-7{stroke:#231f20;}.cls-1,.cls-12,.cls-2,.cls-3,.cls-4,.cls-5,.cls-7{stroke-miterlimit:10;}.cls-1,.cls-7{stroke-width:2px;}.cls-2{fill:#4c4c4d;}.cls-3{fill:#f7d95c;}.cls-4{fill:#536d75;}.cls-5,.cls-7,.cls-8{fill:#fff;}.cls-6{fill:#231f20;}.cls-9{fill:#bb2025;}.cls-10{fill:#ed1c24;}.cls-11{fill:#159bd4;}.cls-12{stroke:#bb2025;stroke-width:3px;}.cls-13{fill:#9b9a9a;}</style>
  </defs>
  <title
     id="title6">Scenario3Protesters</title>
  <g
     id="people"
     transform="matrix(1.4904365,0,0,1.4492924,25.017946,-0.09083035)">
    <line
       class="cls-1"
       x1="260.38"
       y1="152.13"
       x2="286.38"
       y2="92.129997"
       id="line8"
       style="fill:none;stroke:#231f20;stroke-width:2px;stroke-miterlimit:10" />
    <line
       class="cls-1"
       x1="214.38"
       y1="154.78999"
       x2="196.38"
       y2="90.790001"
       id="line10"
       style="fill:none;stroke:#231f20;stroke-width:2px;stroke-miterlimit:10" />
    <path
       class="cls-1"
       d="m 55,307.33 c 0,20 2.75,43.21 4.38,64 -3.66,2.41 -10.63,3.18 -13.72,3.32"
       transform="translate(-43.96,-30.54)"
       id="path12"
       inkscape:connector-curvature="0"
       style="fill:none;stroke:#231f20;stroke-width:2px;stroke-miterlimit:10" />
    <path
       class="cls-1"
       d="m 98.33,304.67 c 2.75,12.87 4.47,26 7.17,38.86 1.65,7.85 2.13,17.13 4.95,24.35 3.69,0.76 14.62,2.14 15.22,4.12"
       transform="translate(-43.96,-30.54)"
       id="path14"
       inkscape:connector-curvature="0"
       style="fill:none;stroke:#231f20;stroke-width:2px;stroke-miterlimit:10" />
    <path
       class="cls-1"
       d="m 148.33,286.67 c -1.42,15.19 0.54,32.6 1.33,48 0.28,5.47 2.59,14.63 0.67,20 -2.17,6.06 -9.55,4.76 -14.67,8"
       transform="translate(-43.96,-30.54)"
       id="path16"
       inkscape:connector-curvature="0"
       style="fill:none;stroke:#231f20;stroke-width:2px;stroke-miterlimit:10" />
    <path
       class="cls-1"
       d="m 195,287.33 c 2.17,17.15 3.11,34.73 5.34,51.67 0.73,5.55 -0.05,14.47 3,18.67 2.23,3.09 11.55,5.5 10.34,8.33"
       transform="translate(-43.96,-30.54)"
       id="path18"
       inkscape:connector-curvature="0"
       style="fill:none;stroke:#231f20;stroke-width:2px;stroke-miterlimit:10" />
    <path
       class="cls-1"
       d="m 243.67,282 a 316.5,316.5 0 0 0 -3.39,33.67 c -0.43,8.68 0.29,21 -2,29.57 -4.63,0.78 -10,3.81 -14.35,5.45 a 10.4,10.4 0 0 1 1.78,0"
       transform="translate(-43.96,-30.54)"
       id="path20"
       inkscape:connector-curvature="0"
       style="fill:none;stroke:#231f20;stroke-width:2px;stroke-miterlimit:10" />
    <path
       class="cls-1"
       d="m 309.67,276.67 c 2.83,21.64 6.29,42.85 8.77,63.9 4.1,0.84 9.55,4.46 12.57,7.43"
       transform="translate(-43.96,-30.54)"
       id="path22"
       inkscape:connector-curvature="0"
       style="fill:none;stroke:#231f20;stroke-width:2px;stroke-miterlimit:10" />
    <polygon
       class="cls-2"
       points="270.38,250.79 194.38,255.46 213.04,148.13 261.71,148.13 "
       id="polygon24"
       style="fill:#4c4c4d;stroke:#231f20;stroke-miterlimit:10" />
    <path
       class="cls-3"
       d="m 207.67,288 c -23,10.62 -51.89,8.93 -66.33,-2.33 l 27,-113 30.67,2 z"
       transform="translate(-43.96,-30.54)"
       id="path26"
       inkscape:connector-curvature="0"
       style="fill:#f7d95c;stroke:#231f20;stroke-miterlimit:10" />
    <path
       class="cls-1"
       d="m 163,215.33 c 5.17,10.23 13.58,21.07 26.66,15.52 9.81,-4.16 13.3,-17.78 13.34,-27.18 0,-3.25 -1.85,-15.35 -4,-13.67"
       transform="translate(-43.96,-30.54)"
       id="path28"
       inkscape:connector-curvature="0"
       style="fill:none;stroke:#231f20;stroke-width:2px;stroke-miterlimit:10" />
    <path
       class="cls-4"
       d="m 107,308 -57.33,2.67 c -10.08,-40.71 5.32,-83 20,-125.33 l 38,-0.67 z"
       transform="translate(-43.96,-30.54)"
       id="path30"
       inkscape:connector-curvature="0"
       style="fill:#536d75;stroke:#231f20;stroke-miterlimit:10" />
    <path
       class="cls-1"
       d="m 68.33,184 c -19.79,31.3 -34.2,59.76 -12.67,69.33"
       transform="translate(-43.96,-30.54)"
       id="path32"
       inkscape:connector-curvature="0"
       style="fill:none;stroke:#231f20;stroke-width:2px;stroke-miterlimit:10" />
    <circle
       class="cls-5"
       cx="237.38"
       cy="131.78999"
       r="27.67"
       id="circle34"
       style="fill:#ffffff;stroke:#231f20;stroke-miterlimit:10" />
    <circle
       class="cls-5"
       cx="141.38"
       cy="124.79"
       r="27.67"
       id="circle36"
       style="fill:#ffffff;stroke:#231f20;stroke-miterlimit:10" />
    <circle
       class="cls-5"
       cx="43.880001"
       cy="129.63"
       r="29.5"
       id="circle38"
       style="fill:#ffffff;stroke:#231f20;stroke-miterlimit:10" />
    <ellipse
       class="cls-6"
       cx="36.290001"
       cy="125.21"
       rx="2.75"
       ry="6.25"
       id="ellipse40"
       style="fill:#231f20" />
    <ellipse
       class="cls-6"
       cx="58.790001"
       cy="124.71"
       rx="2.75"
       ry="6.25"
       id="ellipse42"
       style="fill:#231f20" />
    <ellipse
       class="cls-6"
       cx="130.35001"
       cy="115.21"
       rx="2.3099999"
       ry="5.25"
       id="ellipse44"
       style="fill:#231f20" />
    <ellipse
       class="cls-6"
       cx="150.85001"
       cy="118.21"
       rx="2.3099999"
       ry="5.25"
       id="ellipse46"
       style="fill:#231f20" />
    <ellipse
       class="cls-6"
       cx="270.31"
       cy="153.25"
       rx="5.25"
       ry="2.3099999"
       transform="rotate(-73.26,227.78989,167.53982)"
       id="ellipse48"
       style="fill:#231f20" />
    <ellipse
       class="cls-6"
       cx="293.31"
       cy="153.25"
       rx="2.3099999"
       ry="5.25"
       transform="rotate(-11.09,114.03952,364.38415)"
       id="ellipse50"
       style="fill:#231f20" />
    <path
       class="cls-1"
       d="m 85,177.5 c 4.55,-3.14 8.91,-4.06 13,-2"
       transform="translate(-43.96,-30.54)"
       id="path52"
       inkscape:connector-curvature="0"
       style="fill:none;stroke:#231f20;stroke-width:2px;stroke-miterlimit:10" />
    <path
       class="cls-1"
       d="m 175.5,169.5 c 5.4,-3.39 10.21,-2.55 14.5,2"
       transform="translate(-43.96,-30.54)"
       id="path54"
       inkscape:connector-curvature="0"
       style="fill:none;stroke:#231f20;stroke-width:2px;stroke-miterlimit:10" />
    <path
       class="cls-1"
       d="m 269,175 c 2.5,-11 18.5,-12.5 24,-2 a 34,34 0 0 1 -24,2 z"
       transform="translate(-43.96,-30.54)"
       id="path56"
       inkscape:connector-curvature="0"
       style="fill:none;stroke:#231f20;stroke-width:2px;stroke-miterlimit:10" />
  </g>
  <g
     id="hands_signs"
     data-name="hands+signs"
     transform="matrix(1.4904365,0,0,1.4492924,25.017946,-0.09083035)">
    <rect
       class="cls-7"
       x="109.71"
       y="79.459999"
       width="7.3299999"
       height="122"
       id="rect59"
       style="fill:#ffffff;stroke:#231f20;stroke-width:2px;stroke-miterlimit:10" />
    <path
       class="cls-8"
       d="m 157.33,189.5 c 0,1.06 5,0.23 5,1.17 a 8.48,8.48 0 0 1 -0.16,2.4 c -0.22,0.57 -4.77,0.41 -5.18,0.93 -0.41,0.52 4.4,0.31 4,0.67 -2,1.86 -6,4.33 -9,4.33 -6.35,0 -5.33,-3.31 -5.33,-8.83 0,-5.52 1.5,-5.5 7.17,-7 a 5.57,5.57 0 0 1 7.33,5.5 c -0.07,1.04 -3.83,-0.55 -3.83,0.83 z"
       transform="translate(-43.96,-30.54)"
       id="path61"
       inkscape:connector-curvature="0"
       style="fill:#ffffff" />
    <path
       class="cls-6"
       d="m 152,200 c -2.46,0 -4.07,-0.48 -5.08,-1.51 -1.41,-1.45 -1.36,-3.6 -1.29,-6.33 0,-0.62 0,-1.29 0,-2 0,-5.91 2,-6.43 6.79,-7.67 l 1.12,-0.29 a 6.78,6.78 0 0 1 6.23,1.2 6.47,6.47 0 0 1 2.35,5.34 1.33,1.33 0 0 1 -0.17,0.57 c 0.79,0.17 1.33,0.53 1.34,1.34 v 0.19 a 7.54,7.54 0 0 1 -0.23,2.59 1.44,1.44 0 0 1 -1.15,0.85 v 0 l 0.22,0.63 -0.51,0.5 C 159.92,197 155.64,200 152,200 Z m 3.64,-16.08 a 6.05,6.05 0 0 0 -1.55,0.21 l -1.13,0.29 c -4.69,1.22 -5.3,1.37 -5.3,5.74 0,0.72 0,1.4 0,2 -0.06,2.35 -0.1,4 0.72,4.88 0.6,0.61 1.79,0.91 3.65,0.91 1.86,0 4.48,-1.22 6.57,-2.68 -1.57,-0.11 -2.2,-0.2 -2.49,-0.85 l -0.25,-0.55 0.38,-0.53 c 0.45,-0.58 1.33,-0.67 3.27,-0.82 0.54,0 1.37,-0.11 1.83,-0.19 a 11.13,11.13 0 0 0 0,-1.15 c -0.4,-0.05 -1,-0.07 -1.42,-0.08 -1.76,-0.06 -3.58,-0.12 -3.58,-1.64 a 1.49,1.49 0 0 1 0.49,-1.13 3.47,3.47 0 0 1 2.7,-0.39 l 0.65,0.06 a 4.59,4.59 0 0 0 -1.63,-3.09 4.45,4.45 0 0 0 -2.91,-0.99 z m 5.69,6.76 z"
       transform="translate(-43.96,-30.54)"
       id="path63"
       inkscape:connector-curvature="0"
       style="fill:#231f20" />
    <path
       class="cls-8"
       d="m 164.17,210.33 c 0,5.8 -0.58,10.67 -5.42,10.67 -4.05,0 -7.46,-5.92 -6.75,-10.33 0.14,-0.85 5.5,1.1 5.5,0.17 0,-1.78 -4,-1.71 -4.5,-2.83 -1.21,-2.53 0.82,-5 4.17,-5 4.83,-0.01 7,1.52 7,7.32 z"
       transform="translate(-43.96,-30.54)"
       id="path65"
       inkscape:connector-curvature="0"
       style="fill:#ffffff" />
    <path
       class="cls-6"
       d="m 158.75,222 a 6.79,6.79 0 0 1 -5,-2.67 11.64,11.64 0 0 1 -2.69,-8.83 1.18,1.18 0 0 1 0.5,-0.79 2.55,2.55 0 0 1 1.85,-0.21 2.36,2.36 0 0 1 -1.27,-1.08 4.14,4.14 0 0 1 0.18,-4.07 5.64,5.64 0 0 1 4.89,-2.36 c 5.76,0 8,2.34 8,8.33 -0.04,4.38 -0.04,11.68 -6.46,11.68 z m -5.83,-10.53 a 9.93,9.93 0 0 0 2.31,6.57 4.85,4.85 0 0 0 3.53,2 c 3.26,0 4.42,-2.53 4.42,-9.67 0,-5.42 -1.85,-6.33 -6,-6.33 a 3.68,3.68 0 0 0 -3.2,1.43 2.13,2.13 0 0 0 -0.06,2.14 8.48,8.48 0 0 0 1.35,0.49 c 1.37,0.43 3.24,1 3.24,2.77 a 1.2,1.2 0 0 1 -0.44,0.93 c -0.64,0.52 -1.65,0.36 -3.52,0 -0.47,-0.14 -1.16,-0.27 -1.63,-0.33 z"
       transform="translate(-43.96,-30.54)"
       id="path67"
       inkscape:connector-curvature="0"
       style="fill:#231f20" />
    <polygon
       class="cls-7"
       points="111.38,230.79 19.71,249.13 19.71,178.79 111.38,160.46 "
       id="polygon69"
       style="fill:#ffffff;stroke:#231f20;stroke-width:2px;stroke-miterlimit:10" />
    <rect
       class="cls-7"
       x="58.380001"
       y="22.129999"
       width="109"
       height="66.669998"
       id="rect71"
       style="fill:#ffffff;stroke:#231f20;stroke-width:2px;stroke-miterlimit:10" />
    <polygon
       class="cls-7"
       points="294.04,83.79 188.38,76.79 189.04,1.13 300.71,14.46 "
       id="polygon73"
       style="fill:#ffffff;stroke:#231f20;stroke-width:2px;stroke-miterlimit:10" />
    <path
       class="cls-7"
       d="m 72.67,249.67 c 0,1.55 -1.73,3.77 -2.17,5.5 -0.19,0.76 1.12,1.21 0.83,1.83 a 8.08,8.08 0 0 1 -7.5,5 c -5.25,0 -9.5,-4.7 -9.5,-10.5 0,-4.85 4.29,-13.62 8.33,-14.83 0.79,-0.24 0.3,4.33 1.17,4.33 a 8.78,8.78 0 0 1 4.83,1.46 c 1.42,0.93 -0.15,3.29 0.67,4.87 0.82,1.58 3.34,0.44 3.34,2.34 z"
       transform="translate(-43.96,-30.54)"
       id="path75"
       inkscape:connector-curvature="0"
       style="fill:#ffffff;stroke:#231f20;stroke-width:2px;stroke-miterlimit:10" />
    <path
       class="cls-7"
       d="m 243.69,111.75 c 0,4.69 -0.82,9.72 -5.75,6.94 -5.92,-3.33 -16,-12 -7.33,-22.33 a 2.81,2.81 0 0 1 2.85,-0.89 c 0.45,0.09 -2.34,4.93 -1.89,5.16 0.45,0.23 4.14,-4.15 4.55,-3.8 a 7.81,7.81 0 0 1 0.68,0.65 c 0.44,0.47 -3.15,5.33 -2.85,5.89 0.3,0.56 4.38,-3.48 4.5,-3 a 4.89,4.89 0 0 1 0.17,1.36 c -0.06,2.9 -5.62,4.32 -4,6 1.27,1.31 3.64,-0.08 5.16,0 3.07,0.09 3.91,0.88 3.91,4.02 z"
       transform="translate(-43.96,-30.54)"
       id="path77"
       inkscape:connector-curvature="0"
       style="fill:#ffffff;stroke:#231f20;stroke-width:2px;stroke-miterlimit:10" />
    <path
       class="cls-7"
       d="m 340.67,98.67 c 5,8 1.89,21.68 -3.68,22.72 -5.57,1.04 -7.64,-1.05 -8.32,-4.72 -0.51,-2.73 1.92,-2.48 5,-2.67 1.05,-0.06 1.59,0.45 2.5,-0.67 1.5,-1.83 -5.5,-4 -4.83,-5 l 1,-1.57 0.42,-0.66 c 0.23,-0.36 3.18,2.09 3.42,1.72 0.24,-0.37 -2.21,-3.59 -2,-4 0.21,-0.41 0.63,-0.93 0.95,-1.37 0.62,-0.87 3.92,2.68 4.5,2 0.39,-0.45 -1.91,-5.19 -1.55,-5.51 1.11,-0.94 2.02,-1.18 2.59,-0.27 z"
       transform="translate(-43.96,-30.54)"
       id="path79"
       inkscape:connector-curvature="0"
       style="fill:#ffffff;stroke:#231f20;stroke-width:2px;stroke-miterlimit:10" />
    <path
       class="cls-7"
       d="m 116,271.75 c 0,4.28 -4.33,5.58 -9.17,5.58 -4.84,0 -8.33,-1.3 -8.33,-5.58 0,-3 0.33,-7.92 7.83,-8.75 1.37,-0.15 0.74,3.67 2.17,3.67 1.81,0 2.94,-4.5 4.33,-3.67 2.33,1.39 3.17,6.07 3.17,8.75 z"
       transform="translate(-43.96,-30.54)"
       id="path81"
       inkscape:connector-curvature="0"
       style="fill:#ffffff;stroke:#231f20;stroke-width:2px;stroke-miterlimit:10" />
    <path
       class="cls-9"
       d="m 89.33,266 h 2 c 0,-8 -0.16,-16.68 -0.32,-25.86 -0.17,-9.36 -0.34,-19 -0.34,-28.14 h -2 c 0,9 0.17,18.61 0.34,27.88 l -0.77,0.39 c -3.2,1.63 -8.83,4.49 -12.88,4.78 0,-0.57 0,-1.14 0,-1.71 V 214 h -2 v 29.33 c 0,3.56 0.21,7 0.42,10.4 0.09,1.44 0.18,2.87 0.25,4.31 0.07,1.44 0,3.09 0,4.61 0,0.78 0,1.57 0,2.34 v 5.59 h 2 V 265 c 0,-0.77 0,-1.54 0,-2.31 0,-1.55 0.05,-3.16 0,-4.74 -0.05,-1.58 -0.16,-2.89 -0.25,-4.34 -0.13,-2.15 -0.26,-4.35 -0.34,-6.58 4.44,-0.28 10.05,-3.12 13.64,-4.94 0.12,8.47 0.25,16.48 0.25,23.91 z"
       transform="translate(-43.96,-30.54)"
       id="path83"
       inkscape:connector-curvature="0"
       style="fill:#bb2025" />
    <path
       class="cls-9"
       d="m 105.41,247.81 c -1.1,-11 -2.34,-23.37 -5.59,-33.39 L 99.36,213 98.22,214 C 93.9,217.61 94,226.62 94,233.86 c 0,1.76 0,3.43 0,4.76 -0.11,2.43 -0.26,4.87 -0.42,7.28 l -1.06,0.55 0.92,1.68 v 0 c -0.38,5.79 -0.77,11.79 -0.77,17.85 h 2 c 0,-6 0.39,-12 0.77,-17.72 l 0.07,-1.08 A 24.24,24.24 0 0 1 103.1,245 l -0.2,-2 a 25.06,25.06 0 0 0 -7.25,1.94 c 0.13,-2.07 0.26,-4.15 0.35,-6.24 0.06,-1.39 0,-3.08 0,-4.87 0,-5.74 -0.11,-13.37 2.4,-17.12 2.8,9.51 4,21 5,31.29 0.58,5.83 1.13,11.33 1.93,16.15 l 2,-0.33 c -0.8,-4.74 -1.33,-10.21 -1.92,-16.01 z"
       transform="translate(-43.96,-30.54)"
       id="path85"
       inkscape:connector-curvature="0"
       style="fill:#bb2025" />
    <path
       class="cls-9"
       d="m 118.45,260.52 a 8.06,8.06 0 0 1 -5.77,-2.74 c -7.8,-8 -10.65,-32.22 -5,-42.55 2.21,-4 5.5,-5.72 9.51,-4.88 l -0.41,2 c -3.11,-0.65 -5.58,0.66 -7.35,3.88 -5.23,9.55 -2.53,32.84 4.67,40.19 2.22,2.27 4.54,2.73 7.09,1.4 l 0.92,1.77 a 7.92,7.92 0 0 1 -3.66,0.93 z"
       transform="translate(-43.96,-30.54)"
       id="path87"
       inkscape:connector-curvature="0"
       style="fill:#bb2025" />
    <path
       class="cls-9"
       d="m 139.33,254.55 -2,0.22 a 0.88,0.88 0 0 1 0.46,-0.5 0.83,0.83 0 0 1 0.79,0 18,18 0 0 1 -1.64,-2.18 c -0.49,-0.7 -1,-1.43 -1.4,-1.93 -0.65,-0.8 -1.28,-1.68 -2,-2.62 -0.72,-0.94 -1.32,-1.84 -2,-2.73 -0.68,-0.89 -1.43,-1.75 -2.15,-2.61 a 76.72,76.72 0 0 1 -4.78,-6.18 195.2,195.2 0 0 1 10.64,-26.73 l -1.77,-0.94 c -0.15,0.25 -0.31,0.51 -0.47,0.77 a 14.15,14.15 0 0 0 -1,1.77 l 0.21,0.09 A 203,203 0 0 0 124,231.7 c 0.07,-3.56 0.2,-7.09 0.34,-10.5 0.18,-4.65 0.36,-9 0.36,-13.2 h -2 c 0,4.11 -0.17,8.49 -0.36,13.12 -0.22,5.53 -0.45,11.37 -0.37,17.15 -0.2,0.73 -0.4,1.46 -0.58,2.16 l 0.63,0.16 a 77.1,77.1 0 0 0 2.67,19.55 c 0,0.68 0.11,1.28 0.92,1.34 h 0.1 c 0.89,0 1,-0.95 1,-1.27 v -0.2 -0.14 -0.08 c 0.06,-1.3 0.09,-2 -0.64,-2.2 a 84.89,84.89 0 0 1 -2.09,-19.07 v 0 c 1.27,1.74 2.63,3.39 4,5 0.71,0.85 1.42,1.71 2.12,2.58 0.7,0.87 1.33,1.76 2,2.64 0.67,0.88 1.33,1.86 2,2.71 0.36,0.45 0.84,1.14 1.31,1.81 1.36,2 2,2.94 2.85,2.94 a 1.19,1.19 0 0 0 0.42,-0.08 c 0.32,-0.12 0.76,-0.54 0.65,-1.57 z"
       transform="translate(-43.96,-30.54)"
       id="path89"
       inkscape:connector-curvature="0"
       style="fill:#bb2025" />
    <path
       class="cls-9"
       d="m 145.47,257.21 a 3.69,3.69 0 0 1 -2,-0.62 c -2.76,-1.82 -3.34,-6.94 -2,-10.29 l 1.86,0.73 c -1.09,2.77 -0.45,6.75 1.26,7.89 1.22,0.81 2.73,-0.26 3.78,-1.29 4.81,-4.72 2.07,-23.88 -1.34,-29.81 a 12.23,12.23 0 0 0 -3.92,-3.76 c -2.36,-1.66 -4.8,-3.38 -4.41,-7.49 0.33,-3.4 3.91,-7.34 7,-7.66 1,-0.1 3.28,0 4.35,3.46 L 148,209 c -0.69,-2.22 -1.85,-2.1 -2.23,-2.06 -2.14,0.22 -4.95,3.4 -5.19,5.86 -0.29,2.95 1.33,4.08 3.57,5.66 a 14,14 0 0 1 4.51,4.4 c 3.42,6 6.88,26.47 1,32.23 -1.66,1.62 -3.07,2.12 -4.19,2.12 z"
       transform="translate(-43.96,-30.54)"
       id="path91"
       inkscape:connector-curvature="0"
       style="fill:#bb2025" />
    <path
       class="cls-9"
       d="m 118.23,95.87 a 8,8 0 0 1 -3.7,-0.89 6.07,6.07 0 0 1 -3.36,-6.1 l 3,0.24 a 3.11,3.11 0 0 0 1.76,3.2 5,5 0 0 0 5.21,-0.4 c 2.93,-2.4 2.36,-6.15 0.58,-8.61 A 14.06,14.06 0 0 0 117,79.63 20.22,20.22 0 0 1 112.56,76.47 c -2.45,-2.49 -3,-5.46 -1.47,-8.15 2.08,-3.7 7.89,-6.28 12,-5.32 a 5,5 0 0 1 4.08,4.93 l -3,0.14 a 2.06,2.06 0 0 0 -1.77,-2.15 c -2.79,-0.66 -7.24,1.33 -8.67,3.87 -0.86,1.53 -0.53,3 1,4.57 a 17.68,17.68 0 0 0 3.8,2.64 16.58,16.58 0 0 1 5.61,4.52 c 3.08,4.29 2.61,9.63 -1.12,12.68 a 7.58,7.58 0 0 1 -4.79,1.67 z"
       transform="translate(-43.96,-30.54)"
       id="path93"
       inkscape:connector-curvature="0"
       style="fill:#bb2025" />
    <path
       class="cls-9"
       d="M 136.53,96.22 A 7.34,7.34 0 0 1 132.4,95 c -6.24,-4.21 -3.85,-17.61 -3.55,-19.12 0.61,-3.17 3.36,-8.41 7.29,-9.58 1.54,-0.46 3.87,-0.48 6.27,2 l -2.15,2.09 c -1.64,-1.69 -2.86,-1.32 -3.26,-1.2 -2.3,0.69 -4.65,4.41 -5.2,7.28 -1,5.16 -1.21,13.7 2.29,16.06 a 5,5 0 0 0 6.16,-0.87 l 2.19,2 a 8.12,8.12 0 0 1 -5.91,2.56 z"
       transform="translate(-43.96,-30.54)"
       id="path95"
       inkscape:connector-curvature="0"
       style="fill:#bb2025" />
    <path
       class="cls-9"
       d="m 162.8,94.06 c -0.59,-2.08 -1.17,-4.18 -1.75,-6.29 -0.63,-2.29 -1.27,-4.6 -1.94,-6.93 -0.15,-0.51 -0.3,-1.07 -0.46,-1.66 -1.13,-4.2 -2.69,-9.94 -6.1,-12.43 l -1,-0.69 -0.9,0.76 c -2.87,2.43 -3.39,7.27 -3.81,11.15 -0.1,0.9 -0.19,1.74 -0.3,2.47 a 100.11,100.11 0 0 0 -1.43,15.23 h 3 a 79.77,79.77 0 0 1 0.64,-9.44 29.34,29.34 0 0 1 8.4,-1.07 c 0.32,1.13 0.64,2.28 1,3.41 0.6,2.17 1.84,6.91 2,7 l 0.11,0.39 2.92,-0.18 A 2.3,2.3 0 0 0 162.8,94.06 Z M 149.24,83 c 0.1,-0.71 0.21,-1.42 0.32,-2.09 0.11,-0.67 0.22,-1.66 0.32,-2.61 0.28,-2.65 0.65,-6.12 1.91,-8.16 2,2.35 3.15,6.77 4,9.83 0.17,0.61 0.32,1.19 0.47,1.71 l 0.14,0.5 A 36.17,36.17 0 0 0 149.24,83 Z"
       transform="translate(-43.96,-30.54)"
       id="path97"
       inkscape:connector-curvature="0"
       style="fill:#bb2025" />
    <path
       class="cls-9"
       d="m 181.85,96.82 v -0.16 c -0.16,-0.15 -0.13,-0.78 -0.13,-0.78 -0.67,-4 -1.39,-8.09 -2.15,-11.94 -0.26,-1.29 -0.42,-2.72 -0.6,-4.22 a 35.15,35.15 0 0 0 -1.37,-7.28 32.21,32.21 0 0 0 -2,5.57 30.49,30.49 0 0 1 -1.6,4.38 l -0.8,1.61 -1.45,-1.12 c -2.21,-1.7 -3.42,-4.74 -4.59,-7.68 v 0 c 0,1.33 0.12,2.73 0.19,3.74 0.07,1.01 0.16,2.11 0.15,2.89 0,2.23 0.16,4.49 0.33,6.67 0.17,2.18 0.34,4.5 0.34,6.83 h -3 c 0,-2.22 -0.17,-4.45 -0.33,-6.6 -0.16,-2.15 -0.34,-4.55 -0.34,-6.9 0,-0.67 -0.07,-1.64 -0.15,-2.67 -0.33,-4.4 -0.45,-7.91 1.07,-9.75 l 2.44,0.17 a 30.57,30.57 0 0 1 2.14,4.55 30.15,30.15 0 0 0 2.19,4.73 c 0.17,-0.54 0.34,-1.12 0.52,-1.72 1.05,-3.53 2.14,-7.19 4.43,-8.68 l 2.08,0.44 c 1.84,2.83 2.32,6.89 2.74,10.47 0.17,1.45 0.33,2.81 0.56,4 0.76,3.84 2.48,12.95 2.29,13.62 z"
       transform="translate(-43.96,-30.54)"
       id="path99"
       inkscape:connector-curvature="0"
       style="fill:#bb2025" />
    <path
       class="cls-9"
       d="m 193,100.23 h -0.6 a 6.3,6.3 0 0 1 -5.51,-4.36 l 2.82,-1 a 3.29,3.29 0 0 0 2.94,2.4 6.63,6.63 0 0 0 5.77,-3.27 c 1.69,-3 0.75,-7.35 -1,-10.13 -1.6,-2.46 -3.5,-3.4 -5.9,-4.58 a 31.24,31.24 0 0 1 -4,-2.24 c -3.46,-2.35 -3.48,-5.06 -3.18,-6.46 0.8,-3.79 5.31,-6.6 9.15,-7.31 3.84,-0.71 6.8,0.39 8.47,3 l -2.52,1.63 c -1.33,-2.06 -4,-1.91 -5.4,-1.64 -3.22,0.6 -6.32,2.88 -6.76,5 -0.25,1.19 0.4,2.32 1.94,3.37 a 28.88,28.88 0 0 0 3.65,2 c 2.48,1.22 5,2.48 7.09,5.64 2.22,3.43 3.53,9 1.14,13.24 a 9.68,9.68 0 0 1 -8.1,4.71 z"
       transform="translate(-43.96,-30.54)"
       id="path101"
       inkscape:connector-curvature="0"
       style="fill:#bb2025" />
    <path
       class="cls-10"
       d="m 258.87,101.3 c -0.6,-4.42 -2.5,-10.07 -3.48,-14.93 -0.75,2.48 -2.6,8.65 -3.4,10.91 -0.65,1.84 -1.16,3.29 -1.59,4.19 l -2.71,-1.29 c 0.36,-0.76 0.87,-2.21 1.47,-3.9 2.64,-7.49 2.94,-11.19 4.87,-13.79 l 3.5,1.28 c 0.8,3.51 3,7.53 3.49,11.2 1.39,-4 2.73,-8.28 3.9,-12.52 l 2.92,0.66 a 9.86,9.86 0 0 1 -0.26,1.05 c -0.05,0.19 -0.11,0.38 -0.16,0.57 v 0 c -1.69,5.92 -3.67,11.87 -5.64,16.91 z"
       transform="translate(-43.96,-30.54)"
       id="path103"
       inkscape:connector-curvature="0"
       style="fill:#ed1c24" />
    <path
       class="cls-10"
       d="m 271.88,103.17 a 6.14,6.14 0 0 1 -3.47,-1.36 7.11,7.11 0 0 1 -2.56,-8.42 c 3.32,-10 12.86,-7.08 13.27,-6.69 2.27,2.12 0.28,10.6 -2.7,14.15 a 5.68,5.68 0 0 1 -4.54,2.32 z m -3.18,-8.84 a 4.2,4.2 0 0 0 1.52,5.09 c 1.58,1.19 2.54,0.74 3.26,0.15 2.37,-2 4.84,-7.45 3.62,-9.61 -1.22,-2.16 -6.04,-3.38 -8.4,4.37 z"
       transform="translate(-43.96,-30.54)"
       id="path105"
       inkscape:connector-curvature="0"
       style="fill:#ed1c24" />
    <path
       class="cls-10"
       d="m 292.66,89.19 c 0.05,-0.52 0.15,-2.62 0.15,-2.62 0,0 -11.38,-0.13 -11.92,-0.15 v 0 l -0.11,3 v 0 c 0.58,0 2.79,-0.14 3.86,-0.2 -0.55,1.85 -1.69,12.34 -2.18,14.06 l 2.87,0.29 a 57.19,57.19 0 0 0 1.2,-7.46 c 0.31,-2.56 0.87,-6.91 0.87,-6.91 1.71,-0.07 5.26,-0.01 5.26,-0.01 z"
       transform="translate(-43.96,-30.54)"
       id="path107"
       inkscape:connector-curvature="0"
       style="fill:#ed1c24" />
    <path
       d="m 297.77,106.16 a 3.58,3.58 0 0 1 -1.58,-0.44 c -2,-1.08 -3.06,-4 -2.92,-6.07 l 3,0.21 a 4.07,4.07 0 0 0 1.36,3.23 c 0.12,0.06 0.36,0.2 0.93,-0.23 a 1.33,1.33 0 0 0 0.55,-1 6.49,6.49 0 0 0 -1.68,-4.11 11.21,11.21 0 0 0 -1.2,-1.08 c -1,-0.86 -2.23,-1.83 -2.37,-3.36 a 4.08,4.08 0 0 1 1.14,-3 5.44,5.44 0 0 1 5.87,-1.46 3.37,3.37 0 0 1 2,3.7 l -3,-0.35 c 0.06,-0.48 -0.08,-0.53 -0.21,-0.59 a 2.47,2.47 0 0 0 -2.38,0.62 c -0.38,0.46 -0.47,0.73 -0.46,0.82 0,0.29 0.79,0.91 1.29,1.32 a 13.72,13.72 0 0 1 1.53,1.39 9.31,9.31 0 0 1 2.44,6.42 4.33,4.33 0 0 1 -1.73,3.14 4,4 0 0 1 -2.58,0.84 z"
       transform="translate(-43.96,-30.54)"
       id="path109"
       inkscape:connector-curvature="0" />
    <path
       d="m 313.73,106.31 c 0.14,-4 -0.05,-9.44 -1.7,-13.81 l -0.33,-0.87 -4,-0.47 a 88.88,88.88 0 0 0 -5.54,12 c -0.27,0.83 -0.5,1.55 -0.68,2 l 2.8,1.09 c 0.21,-0.55 0.46,-1.31 0.74,-2.19 0.2,-0.61 0.47,-1.45 0.79,-2.38 l 0.75,0.05 c 0.72,0 1.39,0 2.05,-0.05 a 15.82,15.82 0 0 1 2.06,0 c 0.08,1.43 0.09,2.93 0,4.5 l -0.21,0.09 a 3.5,3.5 0 0 0 0.32,0.59 0.85,0.85 0 0 1 -0.1,-0.31 l 3,0.32 a 2.37,2.37 0 0 0 0.05,-0.56 z m -5.27,-7.61 c -0.51,0 -1,0.06 -1.49,0.05 0.78,-1.79 1.7,-3.41 2.65,-4 a 26.1,26.1 0 0 1 0.8,3.89 c -0.67,-0.01 -1.32,0.02 -1.95,0.06 z"
       transform="translate(-43.96,-30.54)"
       id="path111"
       inkscape:connector-curvature="0" />
    <path
       d="m 318.46,98.29 c 0.08,-1 0.16,-2 0.27,-3 l 0.56,-0.07 a 36.18,36.18 0 0 1 4.44,-0.2 11.66,11.66 0 0 1 0.77,-2.47 c -2.44,-0.78 -8.46,-0.06 -8.46,-0.06 l -0.15,1.25 c -0.5,4.12 -0.68,8.35 -0.85,13.06 l 3,0.11 c 0.07,-1.91 0.14,-3.74 0.23,-5.51 a 39.07,39.07 0 0 1 4.23,0 l 0.37,-2.68 c -1.33,-0.2 -2.87,-0.19 -4.41,-0.43 z"
       transform="translate(-43.96,-30.54)"
       id="path113"
       inkscape:connector-curvature="0" />
    <path
       d="m 326.22,104.47 a 30.64,30.64 0 0 1 0.42,-3.33 36.47,36.47 0 0 1 4,-0.18 l 0.46,-3 a 11.93,11.93 0 0 0 -3.2,0 l -0.55,0.06 a 10.13,10.13 0 0 1 0.64,-1.67 c 0.29,-0.56 4.71,-1.05 4.79,-1 l 1.85,-2.75 c -0.58,-0.46 -9.28,0.61 -9.28,0.61 0,0 -2.26,9.78 -2.16,12.65 v 1.33 l 1.33,0.11 c 0.74,0.06 1.48,0.09 2.22,0.13 a 16.7,16.7 0 0 1 5.28,0.77 l 1.13,-3.34 c -2.24,-0.27 -4.22,-0.34 -6.29,-0.43 z"
       transform="translate(-43.96,-30.54)"
       id="path115"
       inkscape:connector-curvature="0" />
    <rect
       class="cls-9"
       x="238.91"
       y="83.959999"
       width="10"
       height="3.3299999"
       transform="rotate(2.01,1092.0452,-1182.6996)"
       id="rect117"
       style="fill:#bb2025" />
    <rect
       class="cls-9"
       x="238.52"
       y="91.209999"
       width="10"
       height="3.3299999"
       transform="rotate(2.01,1091.6052,-1175.2789)"
       id="rect119"
       style="fill:#bb2025" />
    <path
       class="cls-11"
       d="m 262.57,76.36 -0.8,-0.1 -0.74,-0.18 0.74,-8 c 0,0 5.52,0.47 6,1.09 a 1.91,1.91 0 0 1 0.41,1.62 3.07,3.07 0 0 1 -1.06,1.52 2.47,2.47 0 0 1 1,2.43 c -0.24,1.8 -3.33,1.81 -5.55,1.62 z m 1,-3.3 c 0,0.35 -0.11,1.12 -0.13,1.47 1.36,0.16 2.51,0.44 2.55,-0.63 0.04,-1.07 -2.21,-0.82 -2.44,-0.84 z M 266.1,71 c 0.1,-0.76 -1.28,-0.81 -2.25,-0.84 0,0.13 -0.19,1.15 -0.21,1.28 -0.02,0.13 2.31,0.64 2.46,-0.44 z"
       transform="translate(-43.96,-30.54)"
       id="path121"
       inkscape:connector-curvature="0"
       style="fill:#159bd4" />
    <path
       class="cls-11"
       d="m 269.29,76.84 c 0,0 0.49,-7.19 0.57,-8.12 L 272,69 c -0.09,1 -0.42,4.8 -0.5,5.78 l 3.87,0.42 -0.23,2.18 z"
       transform="translate(-43.96,-30.54)"
       id="path123"
       inkscape:connector-curvature="0"
       style="fill:#159bd4" />
    <path
       class="cls-11"
       d="m 298.75,74.88 c 0.5,-0.66 2,-2.63 2.4,-3.11 L 299.48,71 c -0.87,0.73 -2.31,2.39 -3.39,3.26 0.07,-0.74 0.2,-2.79 0.28,-3.1 l -1.85,-0.12 c -0.19,0.81 -0.69,7.61 -0.75,7.9 l 1.89,0.14 c 0.08,-0.38 0.11,-1.15 0.22,-2.58 l 0.06,0.06 0.77,-0.67 a 13,13 0 0 0 0.75,1.67 10,10 0 0 1 0.8,1.83 l 2.23,0.09 c -0.26,-0.83 -1.63,-3.81 -1.74,-4.6 z"
       transform="translate(-43.96,-30.54)"
       id="path125"
       inkscape:connector-curvature="0"
       style="fill:#159bd4" />
    <path
       class="cls-11"
       d="m 313.38,72.69 c 0,1.12 -0.12,1.81 -0.19,3 -0.35,0 -1,-0.09 -1.39,-0.13 -0.39,-0.04 -0.92,-0.08 -1.25,-0.13 0.06,-1.28 0.12,-1.65 0.18,-2.89 l -2.13,-0.17 c -0.11,2.29 -0.63,7.22 -0.67,7.81 l 2.2,0.22 c 0,-0.57 0.15,-2.75 0.17,-3 0.29,0 2.36,0.19 2.74,0.24 0,0.5 -0.27,3.08 -0.27,3.08 l 2.18,0.22 c 0,0 0.72,-5.57 0.74,-8 z"
       transform="translate(-43.96,-30.54)"
       id="path127"
       inkscape:connector-curvature="0"
       style="fill:#159bd4" />
    <path
       class="cls-11"
       d="m 322.17,81.51 2.5,0.17 c -0.73,-2.07 -2.36,-8.05 -2.36,-8.05 l -2.59,-0.25 c 0,0 -3.23,6 -3.92,7.57 l 2.31,0.16 c 0.21,-0.46 0.56,-1.21 0.93,-1.85 l 2.75,0.29 c 0.12,0.73 0.31,1.27 0.38,1.96 z m -2.43,-3.42 c 0.27,-0.42 0.77,-1.64 1,-2 0.11,0.44 0.56,1.79 0.66,2.23 z"
       transform="translate(-43.96,-30.54)"
       id="path129"
       inkscape:connector-curvature="0"
       style="fill:#159bd4" />
    <path
       class="cls-11"
       d="m 334.78,82.62 c -0.46,-0.71 -2.42,-3.88 -3,-4.72 v 0.56 a 27.15,27.15 0 0 1 -0.41,3.85 l -2,-0.21 c 0.13,-0.9 0.57,-6.85 0.78,-7.84 l 1.84,0.12 c 1.2,1.45 2,2.78 3,4.19 0,-0.13 0.32,-2.94 0.38,-3.83 l 2,0.16 c -0.15,0.81 -0.53,6.85 -0.72,7.86 z"
       transform="translate(-43.96,-30.54)"
       id="path131"
       inkscape:connector-curvature="0"
       style="fill:#159bd4" />
    <path
       class="cls-11"
       d="m 289.41,78.69 c -3.82,-0.69 -4.12,-3.05 -3.72,-4.93 a 4,4 0 0 1 2.81,-3.4 3.64,3.64 0 0 1 2.87,0.26 3.21,3.21 0 0 1 1.6,2.06 l -2.09,0.38 c -1.24,-1.47 -2.83,-0.28 -3.12,1.1 -0.21,1 0.82,3.5 2.92,2 l 1.62,1.36 a 4.1,4.1 0 0 1 -2.89,1.17 z"
       transform="translate(-43.96,-30.54)"
       id="path133"
       inkscape:connector-curvature="0"
       style="fill:#159bd4" />
    <path
       class="cls-11"
       d="m 279.7,77.75 a 4,4 0 1 1 4.36,-3.65 4,4 0 0 1 -4.36,3.65 z m 0.54,-6 a 2,2 0 1 0 1.86,2.22 2,2 0 0 0 -1.86,-2.27 z"
       transform="translate(-43.96,-30.54)"
       id="path135"
       inkscape:connector-curvature="0"
       style="fill:#159bd4" />
    <path
       class="cls-11"
       d="m 303.76,79.85 c -3.82,-0.69 -4.12,-3.05 -3.72,-4.93 a 4,4 0 0 1 2.81,-3.4 3.64,3.64 0 0 1 2.87,0.26 3.21,3.21 0 0 1 1.6,2.06 l -2.09,0.38 c -1.24,-1.47 -2.83,-0.28 -3.12,1.1 -0.21,1 0.82,3.5 2.92,2 l 1.62,1.36 a 4.1,4.1 0 0 1 -2.89,1.17 z"
       transform="translate(-43.96,-30.54)"
       id="path137"
       inkscape:connector-curvature="0"
       style="fill:#159bd4" />
    <rect
       class="cls-11"
       x="325.91"
       y="73.959999"
       width="2.1900001"
       height="7.9299998"
       transform="rotate(5.08,649.03325,-432.87237)"
       id="rect139"
       style="fill:#159bd4" />
    <rect
       class="cls-11"
       x="245.42999"
       y="58.66"
       width="2.24"
       height="2.75"
       transform="rotate(7.71,451.22756,-281.37618)"
       id="rect141"
       style="fill:#159bd4" />
    <rect
       class="cls-11"
       x="250.25"
       y="59.23"
       width="2.0899999"
       height="3.21"
       transform="rotate(7.71,455.97725,-280.57816)"
       id="rect143"
       style="fill:#159bd4" />
    <rect
       class="cls-11"
       x="247.32001"
       y="58.799999"
       width="1.7"
       height="1.0700001"
       transform="rotate(7.71,452.81999,-282.0798)"
       id="rect145"
       style="fill:#159bd4" />
    <rect
       class="cls-11"
       x="251.92999"
       y="59.43"
       width="1.78"
       height="0.99000001"
       transform="matrix(0.99,0.13,-0.13,0.99,-33.63,-63.92)"
       id="rect147"
       style="fill:#159bd4" />
    <rect
       class="cls-11"
       x="248.11"
       y="74.43"
       width="2.8599999"
       height="3.29"
       transform="matrix(0.99,0.13,-0.13,0.99,-31.49,-63.33)"
       id="rect149"
       style="fill:#159bd4" />
    <rect
       class="cls-11"
       x="242.99001"
       y="74.019997"
       width="1.39"
       height="2.3699999"
       transform="matrix(0.99,0.13,-0.13,0.99,-31.66,-62.56)"
       id="rect151"
       style="fill:#159bd4" />
    <rect
       class="cls-11"
       x="241.22"
       y="71.639999"
       width="1.86"
       height="0.92000002"
       transform="rotate(7.71,446.82346,-269.30236)"
       id="rect153"
       style="fill:#159bd4" />
    <rect
       class="cls-11"
       x="240.48"
       y="69.150002"
       width="1.86"
       height="0.61000001"
       transform="rotate(7.71,446.04985,-271.93361)"
       id="rect155"
       style="fill:#159bd4" />
    <rect
       class="cls-11"
       x="238.64"
       y="64.120003"
       width="1.9400001"
       height="1.0700001"
       transform="rotate(7.71,444.23582,-276.7309)"
       id="rect157"
       style="fill:#159bd4" />
    <rect
       class="cls-11"
       x="241.71001"
       y="65.949997"
       width="1.16"
       height="0.46000001"
       transform="rotate(7.71,446.94287,-275.27347)"
       id="rect159"
       style="fill:#159bd4" />
    <rect
       class="cls-11"
       x="241.08"
       y="62.380001"
       width="1.01"
       height="0.69"
       transform="matrix(0.99,0.13,-0.13,0.99,-33.36,-62.39)"
       id="rect161"
       style="fill:#159bd4" />
    <rect
       class="cls-11"
       x="242.44"
       y="64.400002"
       width="0.76999998"
       height="0.75999999"
       transform="rotate(7.71,447.52069,-276.6541)"
       id="rect163"
       style="fill:#159bd4" />
    <rect
       class="cls-11"
       x="238.71001"
       y="71.18"
       width="1.16"
       height="0.75999999"
       transform="rotate(7.71,443.95381,-269.85437)"
       id="rect165"
       style="fill:#159bd4" />
    <path
       class="cls-11"
       d="m 253.95,68.67 a 5.67,5.67 0 0 0 2.11,-2.72 c 0,0 0,0 0,-0.07 l -0.94,-0.13 0.12,-0.91 0.9,0.12 a 3.51,3.51 0 0 0 -0.73,-2.06 c -0.92,-1.2 -11.24,-2.56 -11.24,-2.56 l -2.05,14.66 1.37,0.4 q 0.76,0.16 1.49,0.26 c 4.15,0.56 9.94,0.8 10.59,-2.43 a 4.58,4.58 0 0 0 -1.62,-4.56 z m -8.4,-4.37 0.69,0.09 -0.08,0.61 -0.69,-0.09 z m -1.32,-1.18 0.77,0.1 -0.11,0.83 -0.77,-0.1 z m 0.27,7.83 -1,-0.14 0.1,-0.76 1,0.14 z m 1.43,-3 -1.3,-0.18 0.12,-0.91 L 246,67 Z m 2,-3.6 c 1.82,0.15 4.41,0.36 4.15,1.76 -0.37,2 -4.48,0.62 -4.65,0.6 0.01,-0.29 0.43,-2.17 0.47,-2.41 z m -1.16,8.08 c 0.06,-0.65 0.28,-2.07 0.37,-2.72 0.42,0.07 4.61,0 4.46,1.77 -0.2,1.94 -2.33,1.31 -4.86,0.9 z m 7.95,1.19 -0.92,-0.12 0.09,-0.68 0.92,0.12 z"
       transform="translate(-43.96,-30.54)"
       id="path167"
       inkscape:connector-curvature="0"
       style="fill:#159bd4" />
    <rect
       class="cls-11"
       x="241.57001"
       y="60.509998"
       width="0.93000001"
       height="0.61000001"
       transform="rotate(7.71,446.73128,-280.62598)"
       id="rect169"
       style="fill:#159bd4" />
    <rect
       class="cls-11"
       x="244.2"
       y="59.459999"
       width="0.62"
       height="0.75999999"
       transform="matrix(0.99,0.13,-0.13,0.99,-33.72,-62.81)"
       id="rect171"
       style="fill:#159bd4" />
    <rect
       class="cls-11"
       x="239.89999"
       y="73.860001"
       width="0.85000002"
       height="0.92000002"
       transform="matrix(0.99,0.13,-0.13,0.99,-31.81,-62.11)"
       id="rect173"
       style="fill:#159bd4" />
    <path
       class="cls-12"
       d="m 280.82,48.85 a 8.29,8.29 0 0 1 -7,7.43 5.28,5.28 0 0 1 -6.26,-5.68 8.29,8.29 0 0 1 7,-7.43 5.28,5.28 0 0 1 6.26,5.68 z"
       transform="translate(-43.96,-30.54)"
       id="path175"
       inkscape:connector-curvature="0"
       style="fill:none;stroke:#bb2025;stroke-width:3px;stroke-miterlimit:10" />
    <polygon
       class="cls-9"
       points="253.07,17.44 253.76,14.96 243.98,15.15 240.04,28.96 242.99,29.71 244.69,23.58 250.76,23.8 251.51,21.13 245.44,20.91 246.35,17.56 "
       id="polygon177"
       style="fill:#bb2025" />
    <polygon
       class="cls-9"
       points="267.26,19.54 267.97,17.06 257.87,17.17 253.71,31.29 256.76,31.72 258.51,25.61 264.76,25.7 265.53,23.03 259.28,22.94 260.3,19.36 "
       id="polygon179"
       style="fill:#bb2025" />
    <path
       class="cls-13"
       d="m 319.27,55 c 0.06,-0.49 0.14,-1 0.21,-1.37 0.21,-1.12 0.38,-2 -0.14,-2.72 a 3.46,3.46 0 0 0 -2.58,-1 2.15,2.15 0 0 0 -2.29,1.27 9.25,9.25 0 0 0 -0.73,3.07 1.38,1.38 0 0 0 -1.12,1.14 l -0.88,5.73 7.7,1.19 0.88,-5.73 A 1.38,1.38 0 0 0 319.27,55 Z m -3.88,-3.36 a 1.12,1.12 0 0 1 1.26,-0.7 c 1,0.11 1.64,0.31 1.86,0.62 0.22,0.31 0.12,1 0,1.89 -0.08,0.42 -0.16,0.88 -0.23,1.39 l -3.46,-0.53 a 8.23,8.23 0 0 1 0.57,-2.7 z"
       transform="translate(-43.96,-30.54)"
       id="path181"
       inkscape:connector-curvature="0"
       style="fill:#9b9a9a" />
    <path
       class="cls-13"
       d="m 261.75,45.74 c 0.07,-0.54 0.15,-1 0.23,-1.49 0.23,-1.22 0.41,-2.19 -0.15,-3 -0.56,-0.81 -1.33,-1 -2.82,-1.13 a 2.34,2.34 0 0 0 -2.5,1.39 10.1,10.1 0 0 0 -0.8,3.35 1.5,1.5 0 0 0 -1.22,1.25 l -1,6.25 8.4,1.29 1,-6.25 a 1.5,1.5 0 0 0 -1.14,-1.66 z m -4.23,-3.67 a 1.22,1.22 0 0 1 1.37,-0.77 c 1.11,0.12 1.79,0.34 2,0.67 0.21,0.33 0.13,1.08 -0.05,2.06 -0.09,0.46 -0.18,1 -0.25,1.52 L 256.85,45 a 9,9 0 0 1 0.67,-2.93 z"
       transform="translate(-43.96,-30.54)"
       id="path183"
       inkscape:connector-curvature="0"
       style="fill:#9b9a9a" />
    <path
       class="cls-13"
       d="m 250.08,44.24 c 0.07,-0.54 0.15,-1 0.23,-1.49 0.23,-1.22 0.41,-2.19 -0.15,-3 -0.56,-0.81 -1.33,-1 -2.82,-1.13 a 2.34,2.34 0 0 0 -2.5,1.39 10.1,10.1 0 0 0 -0.8,3.35 1.5,1.5 0 0 0 -1.22,1.25 l -1,6.25 8.4,1.29 1,-6.25 a 1.5,1.5 0 0 0 -1.14,-1.66 z m -4.23,-3.67 a 1.22,1.22 0 0 1 1.37,-0.77 c 1.11,0.12 1.79,0.34 2,0.67 0.21,0.33 0.13,1.08 -0.05,2.06 -0.09,0.46 -0.18,1 -0.25,1.52 l -3.77,-0.58 a 9,9 0 0 1 0.7,-2.9 z"
       transform="translate(-43.96,-30.54)"
       id="path185"
       inkscape:connector-curvature="0"
       style="fill:#9b9a9a" />
    <path
       class="cls-13"
       d="m 331.08,56.07 c 0.07,-0.54 0.15,-1 0.23,-1.49 0.23,-1.22 0.41,-2.19 -0.15,-3 -0.56,-0.81 -1.33,-1 -2.82,-1.13 a 2.34,2.34 0 0 0 -2.5,1.39 10.1,10.1 0 0 0 -0.8,3.35 1.5,1.5 0 0 0 -1.22,1.25 l -1,6.25 8.4,1.29 1,-6.25 a 1.5,1.5 0 0 0 -1.14,-1.66 z m -4.23,-3.67 a 1.22,1.22 0 0 1 1.37,-0.77 c 1.11,0.12 1.79,0.34 2,0.67 0.21,0.33 0.13,1.08 -0.05,2.06 -0.09,0.46 -0.18,1 -0.25,1.52 l -3.77,-0.58 a 9,9 0 0 1 0.7,-2.9 z"
       transform="translate(-43.96,-30.54)"
       id="path187"
       inkscape:connector-curvature="0"
       style="fill:#9b9a9a" />
  </g>
</svg>
