<svg xmlns="http://www.w3.org/2000/svg" viewBox="0 0 221.21 188.99"><defs><style>.cls-1{opacity:0.54;}.cls-2{fill:#5b5b5b;}.cls-3{fill:#a9a8a9;}.cls-21,.cls-4,.cls-9{fill:#2b2b2b;}.cls-5{fill:#515251;}.cls-6{fill:#050606;}.cls-7{fill:#8e8e8e;}.cls-8{fill:#b0b0b0;}.cls-10,.cls-11,.cls-13,.cls-14,.cls-16,.cls-17,.cls-19,.cls-20,.cls-21,.cls-22,.cls-23,.cls-24,.cls-25,.cls-26,.cls-28,.cls-29,.cls-30,.cls-32,.cls-33,.cls-34,.cls-35,.cls-36,.cls-37,.cls-8,.cls-9{stroke:#231f20;}.cls-10,.cls-11,.cls-13,.cls-14,.cls-16,.cls-17,.cls-18,.cls-19,.cls-20,.cls-21,.cls-22,.cls-23,.cls-24,.cls-25,.cls-26,.cls-28,.cls-29,.cls-30,.cls-32,.cls-33,.cls-34,.cls-35,.cls-36,.cls-37,.cls-8,.cls-9{stroke-miterlimit:10;}.cls-11,.cls-8{stroke-width:0.25px;}.cls-34,.cls-9{stroke-width:0.75px;}.cls-10,.cls-17,.cls-18,.cls-26,.cls-28,.cls-31{fill:none;}.cls-10,.cls-13,.cls-18,.cls-30,.cls-36{stroke-width:2px;}.cls-11{fill:#d6d6d6;}.cls-12{fill:#3a3a3a;}.cls-13{fill:#333;}.cls-14{fill:#40403f;}.cls-15,.cls-22{fill:#444545;}.cls-16{fill:#c4e9f8;}.cls-18{stroke:#4a494a;}.cls-19{fill:#695433;}.cls-20{fill:#686868;}.cls-23{fill:#d1a144;}.cls-24,.cls-30,.cls-34{fill:#fff;}.cls-25{fill:#568fb2;}.cls-26{stroke-width:0;}.cls-27{fill:#231f20;}.cls-28{stroke-width:3px;}.cls-29{fill:#f7d064;}.cls-32{fill:#fff272;}.cls-33{fill:#070808;}.cls-35{fill:#666766;}.cls-36,.cls-37{fill:#cec4ba;}</style></defs><title>Scenario 2 KEYS</title><g id="color"><polygon class="cls-2" points="41.58 169.75 19.17 180.58 20.5 175.75 40.67 165.58 41.42 165.67 41.58 169.75"/><polygon class="cls-3" points="40.67 165.58 20.5 175.75 15.25 173.5 35 163.67 40.67 165.58"/><polygon class="cls-3" points="41.83 165.67 61.25 176 66.17 174.42 48.83 163.25 41.83 165.67"/><polygon class="cls-4" points="49.17 162.75 53.42 165.5 61.75 166.58 59.08 163.67 49.17 162.75"/><polygon class="cls-4" points="30.33 165.75 35 163.67 34.08 162.17 19.08 163.83 16.33 166.75 30.33 165.75"/><polygon class="cls-5" points="41.58 169.75 63.33 181.92 61.25 176 41.83 165.67 41.58 169.75"/><polygon class="cls-6" points="14.83 180.08 13.92 184.08 17.17 186.75 20.75 186.33 23 183.67 23.08 181 22.33 179.25 18.58 180.5 14.83 180.08"/><polygon class="cls-6" points="61.42 181 60.92 182.58 61.08 185.92 62.67 187.92 64.5 188.83 67.83 188.83 69.5 187.08 70.58 183.75 69 181.25 64.5 182.17 61.42 181"/><polygon class="cls-6" points="18.33 167.08 17.92 169.25 19.75 171.33 24.25 169 23.17 166.67 18.33 167.08"/><polygon class="cls-6" points="57.25 166.25 56.33 167.92 60.75 170.5 61.58 169.67 60.83 166.5 57.25 166.25"/><polygon class="cls-4" points="15.25 173.5 12 178.25 19.17 180.58 20.5 175.75 15.25 173.5"/><polygon class="cls-4" points="61.25 176 64.5 182.17 71 180.63 66.25 174 61.25 176"/><polygon class="cls-7" points="117.17 3.17 177.33 10.67 182.17 10.17 122.17 2.17 117.17 3.17"/></g><g id="comp"><polygon class="cls-8" points="208.25 136.75 204.9 141.31 205.13 71.81 208.63 69.13 208.25 136.75"/><rect class="cls-9" x="196.67" y="72.35" width="8.33" height="69.65"/><polygon class="cls-8" points="180.19 180.46 176.88 185 176.88 122.88 180.5 123.57 180.19 180.46"/><rect class="cls-9" x="168.17" y="116.33" width="8.33" height="69.79"/><path class="cls-10" d="M199.75,116.74" transform="translate(-22 -49.5)"/><polyline class="cls-11" points="177.75 67.24 221 71.5 191.5 117.75 62.5 92.5 109.25 60.5 171.25 66.6"/><polygon class="cls-12" points="61 100 191.5 126 191.5 117.75 61 91.75 61 100"/><ellipse class="cls-13" cx="144.63" cy="74.75" rx="16.38" ry="8"/><path class="cls-13" d="M161.88,124.75c1.75,1.25,4,1.81,7.75.5.7-.25,2.11-.73,1.88-1.44-.91-2.74-.93-4.52,2.25-8.31L160,113c1.43,4.07,2.36,5.85.63,9.06C160.13,123,161,124.14,161.88,124.75Z" transform="translate(-22 -49.5)"/><polygon class="cls-14" points="170.5 74 114 61.5 117 3.5 177 10.5 170.5 74"/><polygon class="cls-14" points="177.5 73 170.5 74 177 10.5 183.75 10 177.5 73"/><polygon class="cls-15" points="221 79.5 191.5 126.25 191.5 117.75 221.17 71.45 221 79.5"/><polygon class="cls-16" points="168.32 70.42 116.75 59.01 119.49 6.08 174.25 12.47 168.32 70.42"/><line class="cls-17" x1="183.75" y1="10" x2="121.83" y2="2.17"/><line class="cls-17" x1="117" y1="3.5" x2="122.17" y2="2.33"/><path class="cls-18" d="M69.67,109.67c19.74,26.65,38,25.94,60.67-5" transform="translate(-22 -49.5)"/></g><g id="person"><polygon class="cls-17" points="39.25 161.75 15.25 173.5 12 178.5 19 180.75 41.75 169.5 64 182.25 71 180.5 66.5 174.25 47 162.25 39.25 161.75"/><line class="cls-17" x1="15.25" y1="173.5" x2="20.5" y2="175.75"/><polyline class="cls-17" points="61.58 176.08 41.5 165 20.5 175.75 19 180.75"/><polyline class="cls-17" points="64 182.25 61.17 175.92 66.5 174.25"/><line class="cls-17" x1="41.75" y1="169.5" x2="41.5" y2="165"/><polygon class="cls-17" points="39.25 161.75 19.5 164 16.42 167 30.58 165.67 39.25 161.75"/><polygon class="cls-17" points="47 162.25 59.25 163.75 61.88 166.38 53.13 165.63 47 162.25"/><path class="cls-19" d="M61.75,127.25l-27.25,6.5c-5.82,1.47-12-5.86-12-11.87V103.39a9.21,9.21,0,0,1,7-8.93l27.07-6.84A9.21,9.21,0,0,1,68,96.55V115C68,119.26,65.84,126.22,61.75,127.25Z" transform="translate(-22 -49.5)"/><path class="cls-20" d="M71,212.5c-4.21,2.48-8.61,4.21-14.5,0v-19c4.72,4.09,9.56,3.91,14.5,0Z" transform="translate(-22 -49.5)"/><ellipse class="cls-21" cx="41.83" cy="144.25" rx="7.33" ry="2.58"/><path class="cls-22" d="M67.17,193.33c-3,1-4.5,1.17-7.5-.17L60,175h7.5Z" transform="translate(-22 -49.5)"/><polygon class="cls-22" points="21.5 79 32 117.5 41 116.5 30 76.5 21.5 79"/><path class="cls-23" d="M42.37,174.79l31.1,15.9a6.93,6.93,0,0,0,6.87-.32L105,174.76a4.35,4.35,0,0,0-.86-7.77L76.39,157a4.35,4.35,0,0,0-2.81,0L43,166.78A4.35,4.35,0,0,0,42.37,174.79Z" transform="translate(-22 -49.5)"/><path class="cls-23" d="M65,126.26,38,133.1a9.21,9.21,0,0,1-11.47-8.93V105.68a9.21,9.21,0,0,1,7-8.93L60.53,89.9A9.21,9.21,0,0,1,72,98.83v18.49A9.21,9.21,0,0,1,65,126.26Z" transform="translate(-22 -49.5)"/><path class="cls-10" d="M76.5,174c10.79,5,21.38,12,31.91,17.59.54,10.84-4.74,27.52-3.91,38.58,3.69,2,11.05,2.6,15.33,3" transform="translate(-22 -49.5)"/><path class="cls-10" d="M162.75,205.5c-3,1-13.17,7.4-13.68,5.73-2.33-7.52-7.7-16.7-10.44-23.61A95.1,95.1,0,0,0,133,175c-3-5.26-5.88-4.57-11.5-6.28-5-1.54-12.41-2.47-16.5-4.74" transform="translate(-22 -49.5)"/><path class="cls-19" d="M103.76,153.64,74.44,142.1a1.82,1.82,0,0,1-.21-3.29l3.72-2a1.82,1.82,0,0,1,1.49-.12l32.22,11.45a1.82,1.82,0,0,1-.05,3.45L105,153.68A1.82,1.82,0,0,1,103.76,153.64Z" transform="translate(-22 -49.5)"/><path class="cls-24" d="M87.5,150A52.11,52.11,0,0,1,89,167l3.5,2.5c-1.39-6.82-1.28-12.4,0-17Z" transform="translate(-22 -49.5)"/><path class="cls-25" d="M55,92.5C50.66,120.26,36.35,148,67,175.75a4.7,4.7,0,0,0,4.45,1l39.34-11.36a1.12,1.12,0,0,0,.1-2.12C79,150.41,71.39,126.67,71.5,99.5Z" transform="translate(-22 -49.5)"/><path class="cls-24" d="M97.5,72.5c0,12.43-9.5,27-26,27-19,0-23.5-14.57-23.5-27S59.08,50,72.75,50,97.5,60.07,97.5,72.5Z" transform="translate(-22 -49.5)"/><path class="cls-26" d="M77.5,173.5c-.74-.12.3.39.5.5" transform="translate(-22 -49.5)"/><path class="cls-27" d="M70.57,140c-4.62,0-8.85-2.92-11.37-6.37-2.11-2.89-2.84-5.45-3.65-8.75a58,58,0,0,1-1.2-6.32c.11-1.24,1.55-1.14,2,0,0,.64.77,4.32,1.15,5.86.77,3.17,1.42,5.44,3.32,8,2.62,3.6,7.67,6.72,12.57,5.09,9-3,17.07-18.78,19.72-24,1.46-2.86,2.82-6,4.13-9,.67-1.53,1.31-3,2-4.43l-.1,0,.15-.34a4.32,4.32,0,0,1,.83-1.38l4.36-4.69-2.72,5.79c-.88,1.87-1.73,3.82-2.63,5.89-1.33,3-2.7,6.19-4.18,9.1-4.75,9.31-12.08,22-20.87,25A10.84,10.84,0,0,1,70.57,140Z" transform="translate(-22 -49.5)"/><circle class="cls-28" cx="91.25" cy="54.75" r="14.75"/><path class="cls-29" d="M114.75,72.75V69.5h-2v.75h-3.42l-.16-4.62-2,.07.58,16.61a6,6,0,0,0,1,11.91h0a6,6,0,0,0,1-11.91l-.23-6.58,3,0v-2l-3.12,0-.05-1.47h3.35v.5Zm-2,15.49a4,4,0,0,1-1.19,2.82,3.93,3.93,0,0,1-2.84,1.15,4,4,0,0,1,0-8h0A4,4,0,0,1,112.75,88.24Z" transform="translate(-22 -49.5)"/><path class="cls-30" d="M101.42,88.42c-2.83,3.58-4.07,7.92,0,11.89a7.63,7.63,0,0,0,7.68,1.31c1.85-.89,4.1-3.64,2.16-4.4a.79.79,0,0,1-.26-1.31c2-2,3.31-4.41-.3-4.95-.52-.08-.86-.78-.47-1.13,2-1.83,2.09-4.6-.06-6.28-3.78-3-6.29,1.48-8,3.94Z" transform="translate(-22 -49.5)"/><path class="cls-30" d="M136,102.5c1.31-3.56,1.21-9.25-2.31-11a1.15,1.15,0,0,0-1.64,1.16c.15,1.36.33,2.86-.67,2.77-.81-.08-1.33-1.46-2.2-2.31a1.37,1.37,0,0,0-2.32,1.14c.21,1.81,1.35,3.8.17,5-.27.28-1.59-1.26-2-1.31-2.08,1.58.46,4.77,1.09,6.41A22.52,22.52,0,0,0,136,102.5Z" transform="translate(-22 -49.5)"/><path class="cls-19" d="M66.9,166.24,38.06,153.56a1.82,1.82,0,0,1-.08-3.3l3.79-1.9a1.82,1.82,0,0,1,1.49-.06L75,161a1.82,1.82,0,0,1-.19,3.45l-6.69,1.87A1.82,1.82,0,0,1,66.9,166.24Z" transform="translate(-22 -49.5)"/><ellipse class="cls-28" cx="160.5" cy="89" rx="16.5" ry="8.5"/><ellipse class="cls-27" cx="52.75" cy="15.25" rx="1.25" ry="4.75"/><ellipse class="cls-27" cx="67" cy="19.5" rx="1" ry="5"/><path class="cls-31" d="M87,81a8.77,8.77,0,0,0-4.5,2.5" transform="translate(-22 -49.5)"/><path class="cls-17" d="M82,83.5A11.12,11.12,0,0,1,86.5,82" transform="translate(-22 -49.5)"/><path class="cls-22" d="M49,158.5a52.11,52.11,0,0,1,1.5,17L54,178c-1.39-6.82-1.28-12.4,0-17Z" transform="translate(-22 -49.5)"/><polygon class="cls-32" points="124.19 41.15 123.31 39.35 113.56 44.1 114.44 45.9 116.23 45.02 117.12 48.42 119.05 47.91 118.07 44.13 119.79 43.29 120.55 45.57 122.45 44.93 121.61 42.41 124.19 41.15"/><path class="cls-33" d="M37.38,228.88c-1.31,1.75-1.76,3.7-.51,5.69.89,1.43,3.63,2.51,5,1.21a3.35,3.35,0,0,1-1.23-5.28" transform="translate(-22 -49.5)"/><path class="cls-17" d="M41.63,236.13a7.64,7.64,0,0,0,3-2.87c.55-1.13,1-3.78-.53-4.38" transform="translate(-22 -49.5)"/><path class="cls-33" d="M90.5,230.75c3.29,1.89.62,9.41-3.12,6.63" transform="translate(-22 -49.5)"/><path class="cls-17" d="M86.75,231.75c.8,1,1.49,1.65,1.62,2.94.11,1.08-.18,2.7-1.5,2.81" transform="translate(-22 -49.5)"/><path class="cls-17" d="M83.5,231c-1,1-.54,3.65,0,4.78s2.63,2.68,3.91,1.59" transform="translate(-22 -49.5)"/><path class="cls-33" d="M40.88,216.63c-1.32.25-.73,4.21,1.5,3.88" transform="translate(-22 -49.5)"/><path class="cls-17" d="M44.88,216.25c.61.39,1.47,2.12.75,2.25" transform="translate(-22 -49.5)"/><path class="cls-17" d="M79.38,216a.86.86,0,0,0-.5,1.5" transform="translate(-22 -49.5)"/><path class="cls-33" d="M82.13,216a2.15,2.15,0,0,1,1.6,1.65c.16.75,0,2.18-.72,2.22" transform="translate(-22 -49.5)"/><line class="cls-17" x1="116.92" y1="57.5" x2="119.67" y2="56.67"/><line class="cls-17" x1="122.92" y1="57.75" x2="122.83" y2="57"/><rect class="cls-34" x="140.19" y="123.54" width="3.86" height="1" transform="translate(-60.98 127.34) rotate(-57.37)"/><rect class="cls-34" x="136.46" y="120.67" width="4.99" height="1" transform="translate(-60.7 120.94) rotate(-56.59)"/><rect class="cls-34" x="135.42" y="120.33" width="2.08" height="1" transform="translate(-64.08 108.04) rotate(-53.14)"/></g><g id="keys"><path class="cls-32" d="M220.52,137.63l0-2-14.93.28c-.67-1.69-3-2.91-5.8-2.91-3.36,0-6,1.72-6,3.93s2.64,3.93,6,3.93c2.84,0,5.16-1.23,5.81-2.94l3.44-.06V139h2v-1.16l5.25-.1V140h2v-2.32Zm-20.77,1.22c-2.29,0-4-1-4-1.93s1.71-1.93,4-1.93,4,1,4,1.93S202,138.85,199.75,138.85Z" transform="translate(-22 -49.5)"/><path class="cls-35" d="M211,156.09l-10.74-9.61a2,2,0,0,0,.08-.54c0-1.43-1.4-2.84-3.37-4.67s-3.86-3.58-5.72-1.87a2.08,2.08,0,0,0-.71,1.55c0,1.43,1.49,2.82,3.07,4.29s3,2.83,4.53,2.83a2.07,2.07,0,0,0,.73-.14l10.79,9.65Zm-16-12.32c-.75-.7-2.51-2.33-2.43-2.82a.29.29,0,0,1,.07-.08.44.44,0,0,1,.31-.12c.43,0,1.15.55,2.7,2,.77.71,2.81,2.61,2.74,3.19l0,0C197.78,146.42,196.07,144.82,194.93,143.77Z" transform="translate(-22 -49.5)"/><path class="cls-30" d="M207.79,154.89" transform="translate(-22 -49.5)"/><path class="cls-30" d="M205.6,156.9" transform="translate(-22 -49.5)"/><path class="cls-36" d="M202.66,150.14" transform="translate(-22 -49.5)"/><path class="cls-29" d="M197.15,162.84,191.36,151a7.44,7.44,0,0,0,.66-7.26,4.43,4.43,0,0,0-3.07-2.69,3.54,3.54,0,0,0-3.15,1c-1.84,1.77-2.35,5.21-1.15,7.83a4.43,4.43,0,0,0,3.07,2.69,3.27,3.27,0,0,0,2.07-.28l1.2,2.46-1.51,1.45,1.39,1.44,1-1,1.87,3.83L191.17,163l1.39,1.44,2.15-2.06.65,1.33Zm-9.06-12.2a2.49,2.49,0,0,1-1.62-1.55,5.3,5.3,0,0,1,.72-5.56,1.7,1.7,0,0,1,1.15-.53l.25,0a2.5,2.5,0,0,1,1.62,1.55,5.3,5.3,0,0,1-.72,5.56A1.59,1.59,0,0,1,188.09,150.64Z" transform="translate(-22 -49.5)"/><path class="cls-37" d="M181.81,163.23l-1.12.21-.1-5.22.65-.12-.37-2-.32.06-.06-3.43c1.36-1,1.93-3.64,1.85-6s-.74-4.29-1.77-5.12a2,2,0,0,0-1.59-.43c-2,.37-2.77,3.57-2.68,6.38.07,2.38.74,4.29,1.77,5.12a2.2,2.2,0,0,0,.42.26l.27,14.95,2,0,0-2.41,1.45-.28Zm-2.53-20.07c.28.12,1,1.34,1.07,3.65.08,2.57-.67,4.09-1,4.34-.31-.22-1-1.43-1-3.63C178.23,144.83,179,143.29,179.29,143.16Z" transform="translate(-22 -49.5)"/><path class="cls-29" d="M174.44,141.53a2.73,2.73,0,0,0-1.78-1.33,6.62,6.62,0,0,0-4.94,1.14c-2.32,1.47-3.6,3.61-3.35,5.34L154.82,153l1.11,1.66,9.43-6.29a3,3,0,0,0,1.06.5,4.18,4.18,0,0,0,1,.13,7.51,7.51,0,0,0,3.9-1.27C174.11,146,175.43,143.35,174.44,141.53Zm-4.15,4.56a4.69,4.69,0,0,1-3.37.89.78.78,0,0,1-.53-.35h0c-.34-.63.42-2.35,2.39-3.6a5.49,5.49,0,0,1,2.83-1,2.22,2.22,0,0,1,.54.06.79.79,0,0,1,.53.35C173,143.12,172.27,144.83,170.3,146.09Z" transform="translate(-22 -49.5)"/><path class="cls-37" d="M173.88,135a3.74,3.74,0,0,0-2.43-2.71,7.69,7.69,0,0,0-4.2-.37c-2.83.49-4.9,2.21-5.2,4.14l-3.36.65-.22-1.29-2,.34.23,1.32-5.15,1-.44-2.52-2,.34.45,2.56-2.23.43.38,2L162.42,138a4.13,4.13,0,0,0,2.07,1.74,7.08,7.08,0,0,0,2.7.5,8.75,8.75,0,0,0,1.5-.13,7.68,7.68,0,0,0,3.83-1.77A3.74,3.74,0,0,0,173.88,135Zm-2.72,1.89a6.21,6.21,0,0,1-5.91,1c-.41-.17-1.11-.55-1.22-1.21-.18-1,1.25-2.42,3.57-2.82a5.74,5.74,0,0,1,3.09.25c.41.17,1.11.55,1.22,1.21A1.88,1.88,0,0,1,171.17,136.87Z" transform="translate(-22 -49.5)"/><path class="cls-37" d="M148.92,107.44l-14.86-1.14a2.4,2.4,0,0,0-.33-.59c-.83-1.09-2.74-1.89-5-2.09-2.92-.26-6.06.52-6.42,2.54a2.12,2.12,0,0,0,.45,1.7c.83,1.09,2.74,1.89,5,2.09.36,0,.73,0,1.1,0,2.09,0,4.08-.56,4.92-1.72l15,1.15ZM128,108c-2.49-.23-3.64-1.18-3.67-1.45s1.25-.94,3.32-.94c.3,0,.61,0,.95,0,2.48.23,3.63,1.17,3.67,1.45S130.6,108.2,128,108Zm4.27-.9h0" transform="translate(-22 -49.5)"/><path class="cls-29" d="M143.75,126.25,131.43,118a6,6,0,1,0-5.42,3.4,6.12,6.12,0,0,0,1-.08,6,6,0,0,0,3.25-1.69l12.37,8.27Zm-17.07-6.89a4,4,0,0,1-1.31-7.89,4.06,4.06,0,0,1,.66-.05,4,4,0,0,1,.65,7.95Z" transform="translate(-22 -49.5)"/><path class="cls-32" d="M127.79,138.89l-.48-1,2.44-1.26-1.08-2.17-2.4,1.17-4.68-10.16a6,6,0,0,0,2.28-7.37,6,6,0,1,0-5.53,8.34,6,6,0,0,0,1.41-.18L126,139.73Zm-11-14.79a4,4,0,1,1,3.06,0A4,4,0,0,1,116.83,124.1Z" transform="translate(-22 -49.5)"/><path class="cls-37" d="M118.17,119.9a6.87,6.87,0,0,0-1.86-4.82,3.47,3.47,0,0,0-2.57-1c-2.41.08-4.26,2.78-4.21,6.13a6.87,6.87,0,0,0,1.86,4.82,3.74,3.74,0,0,0,1.57.91l.54,14.91,2-.07-.24-4.06,2.79-.09.21-2-3-.08,0-1.09,2.36-.08.17-1.58-2.59-.09-.21-5.83C116.86,125.16,118.21,122.77,118.17,119.9ZM113.89,124a1.64,1.64,0,0,1-1.13-.5,4.93,4.93,0,0,1-1.24-3.41c0-2.37,1.17-4.06,2.28-4.1h0a1.57,1.57,0,0,1,1.08.5,4.93,4.93,0,0,1,1.24,3.41C116.2,122.3,115,124,113.89,124Z" transform="translate(-22 -49.5)"/><path class="cls-35" d="M114.92,116.19a3.52,3.52,0,0,0-2.34-1.49c-2.39-.36-4.69,2-5.25,5.27a6.87,6.87,0,0,0,1,5.08,3.74,3.74,0,0,0,1.38,1.17L107.5,141l2,.29,2.16-14.76c2-.32,3.76-2.4,4.23-5.24A6.87,6.87,0,0,0,114.92,116.19Zm-1,4.75c-.39,2.34-1.9,3.8-3,3.62a1.55,1.55,0,0,1-1-.69,4.93,4.93,0,0,1-.6-3.57c.39-2.34,1.89-3.8,3-3.62a1.55,1.55,0,0,1,1,.69A4.93,4.93,0,0,1,113.9,120.93Z" transform="translate(-22 -49.5)"/><path class="cls-32" d="M111.42,116a3.52,3.52,0,0,0-1.82-2.1c-2.19-1-5.06.54-6.53,3.56a6.88,6.88,0,0,0-.53,5.14,3.74,3.74,0,0,0,1,1.52l-6.27,13.54,1.82.84L105.34,125a3.48,3.48,0,0,0,.44,0c1.89,0,3.94-1.48,5.1-3.87A6.87,6.87,0,0,0,111.42,116Zm-2.32,4.26c-1,2.13-2.88,3.09-3.89,2.62h0a1.55,1.55,0,0,1-.78-.95,4.93,4.93,0,0,1,.44-3.6c.87-1.77,2.29-2.74,3.33-2.74a1.33,1.33,0,0,1,.56.12,1.56,1.56,0,0,1,.78,1A4.93,4.93,0,0,1,109.09,120.31Z" transform="translate(-22 -49.5)"/><path class="cls-29" d="M110.26,116.3a3.52,3.52,0,0,0-1.19-2.51c-1.83-1.57-5-.83-7.24,1.68a6.87,6.87,0,0,0-1.89,4.81,3.74,3.74,0,0,0,.55,1.73l-9.67,11.37,1.52,1.29L102,123.31a3.8,3.8,0,0,0,1.49.3,7.52,7.52,0,0,0,6.77-7.31Zm-3.38,3.49c-1.57,1.77-3.61,2.21-4.45,1.48h0a1.55,1.55,0,0,1-.5-1.12,5.55,5.55,0,0,1,4.78-5.16,1.61,1.61,0,0,1,1.06.33,1.55,1.55,0,0,1,.5,1.12A4.93,4.93,0,0,1,106.88,119.78Z" transform="translate(-22 -49.5)"/><path class="cls-35" d="M108,112.24c-1.57-1.83-4.83-1.59-7.42.55a6.87,6.87,0,0,0-2.6,4.47,3.74,3.74,0,0,0,.28,1.79L87,128.78l1.31,1.51,11.3-9.74a4.06,4.06,0,0,0,2.15.58,7.23,7.23,0,0,0,4.48-1.77,6.87,6.87,0,0,0,2.6-4.47A3.52,3.52,0,0,0,108,112.24ZM105,117.82c-1.83,1.51-3.9,1.62-4.62.78a1.55,1.55,0,0,1-.32-1.19,4.94,4.94,0,0,1,1.88-3.09c1.82-1.51,3.9-1.62,4.62-.78a1.56,1.56,0,0,1,.32,1.19A4.94,4.94,0,0,1,105,117.82Z" transform="translate(-22 -49.5)"/><path class="cls-27" d="M99.63,113.08a9.49,9.49,0,0,0,4.79,4.54c1-.54,1.62-1,1.88-2.08a7.51,7.51,0,0,1-4.29-4.25Z" transform="translate(-22 -49.5)"/><path class="cls-27" d="M111.33,119.67a3.62,3.62,0,0,0,2.5.33,4.75,4.75,0,0,0-1.08-3Z" transform="translate(-22 -49.5)"/><path class="cls-27" d="M126.25,107.08a8.63,8.63,0,0,1-.83,2.25l2.88.63a7.49,7.49,0,0,0,.88-2.42Z" transform="translate(-22 -49.5)"/><path class="cls-27" d="M164.88,140.56a10.42,10.42,0,0,1-.22-3.56l2.91.81a5.64,5.64,0,0,0,.75,3.22Z" transform="translate(-22 -49.5)"/><path class="cls-27" d="M169.84,145.69a17.79,17.79,0,0,0,3.31,1.28l1.81-2.34a13.93,13.93,0,0,1-3.06-1Z" transform="translate(-22 -49.5)"/><polygon class="cls-27" points="157.66 98.78 160.81 98.91 160.88 96.16 157.44 96 157.66 98.78"/><polygon class="cls-27" points="161.31 98.94 165.06 98.63 164.94 95.81 161.19 96.13 161.31 98.94"/><path class="cls-27" d="M196.63,144.66a24.72,24.72,0,0,0,2.38-2.12l-2.66-2.06a6.8,6.8,0,0,1-1.75,2.06Z" transform="translate(-22 -49.5)"/><path class="cls-27" d="M196.75,136.41a9.45,9.45,0,0,0-2.44-2.25l3-1.31a21.82,21.82,0,0,1,2.38,2.72Z" transform="translate(-22 -49.5)"/><polygon class="cls-24" points="85.67 88.75 84.17 87.75 84.58 85.92 86 86.92 85.67 88.75"/><polygon class="cls-32" points="81.08 85.17 78.17 84.92 78.83 83.33 81.67 83.33 81.08 85.17"/><polygon class="cls-35" points="70.17 79.17 68 78.17 69.67 76.83 71.92 77.58 70.17 79.17"/><polygon class="cls-32" points="69.67 82.5 67.42 82 68.75 80.5 71.25 80.83 69.67 82.5"/></g></svg>