<svg xmlns="http://www.w3.org/2000/svg" viewBox="0 0 576 576" version="1.1">
 <defs>
  <style>.cls-1,.cls-14,.cls-21{fill:none;}.cls-2{clip-path:url(#clip-path);}.cls-3{fill:#bcbbbb;}.cls-18,.cls-22,.cls-4,.cls-8{fill:#fff;}.cls-13,.cls-14,.cls-15,.cls-17,.cls-18,.cls-19,.cls-21,.cls-23,.cls-4,.cls-7,.cls-8{stroke:#231f20;stroke-miterlimit:10;}.cls-14,.cls-17,.cls-19,.cls-4,.cls-7{stroke-width:3px;}.cls-19,.cls-23,.cls-5{fill:#f2af1d;}.cls-6{fill:#cfcfce;}.cls-20,.cls-7{fill:#231f20;}.cls-9{fill:#ea376b;}.cls-10{fill:#39bfe8;}.cls-11{fill:#77c043;}.cls-12{fill:#159bd4;}.cls-13{fill:#a08144;}.cls-13,.cls-18,.cls-23{stroke-width:2px;}.cls-15{fill:#e0d99a;}.cls-16{fill:#faf073;}.cls-17{fill:#212120;}</style>
  <clipPath id="clip-path">
   <rect width="576" class="cls-1" height="576"/>
  </clipPath>
 </defs>
 <title>2-19Whiteboard(2)Asset 6</title>
 <g data-name="Layer 2">
  <g id="hat">
   <g class="cls-2" clip-path="url(#clip-path)">
    <rect width="576" class="cls-1" height="576"/>
    <rect height="10.8" width="538.73" y="364.09" x="22.88" class="cls-3"/>
    <rect height="327.55" width="517.13" y="36.41" x="32.28" class="cls-4"/>
    <path class="cls-5" d="m130 57l-0.65 1.66h-5.19a16.48 16.48 0 0 0 -2.7 0.2 5 5 0 0 0 -2 0.8 4.7 4.7 0 0 0 -1.46 1.65 11.88 11.88 0 0 0 -1 3.1h5l-0.5 1.59h-4.84l-2.92 15.1h-1.88l3.31-17a13 13 0 0 1 1.09 -3.46 6.45 6.45 0 0 1 1.74 -2.18 6.7 6.7 0 0 1 2.63 -1.2 16.38 16.38 0 0 1 3.65 -0.36zm-3.52 7.44h1.88l-3.21 16.66h-1.88z"/>
    <path class="cls-5" d="m130.48 81.1l2.11-10.78a8.19 8.19 0 0 1 2.41 -4.94 7.86 7.86 0 0 1 5.16 -1.49 7.14 7.14 0 0 1 4.66 1.25 4.48 4.48 0 0 1 1.48 3.62 10.24 10.24 0 0 1 -0.2 1.95l-2 10.39h-1.88l2-10.49a8.79 8.79 0 0 0 0.19 -1.69 2.89 2.89 0 0 0 -1.15 -2.65 6 6 0 0 0 -3.2 -0.73 8.86 8.86 0 0 0 -2.21 0.24 4 4 0 0 0 -2.76 2.31 9.64 9.64 0 0 0 -0.71 2.35l-2.02 10.66z"/>
    <path class="cls-5" d="m154.58 64.41h6.42l-0.67 1.59h-6.07l-1.79 9.26a9.58 9.58 0 0 0 -0.19 1.69 2.18 2.18 0 0 0 0.78 1.95 4.47 4.47 0 0 0 2.44 0.52h2.79l-0.65 1.66h-2.27a6.4 6.4 0 0 1 -3.7 -0.88 3.45 3.45 0 0 1 -1.23 -3v-1a9.75 9.75 0 0 1 0.18 -1.2l2.89-14.84 1.95-0.29z"/>
    <path class="cls-5" d="m164.42 73.5a8.67 8.67 0 0 0 -0.13 1q0 0.46 0 0.88a4.24 4.24 0 0 0 1 3.1q1 1.06 3.74 1.06h2.52q1.06 0 2.29-0.11l-0.65 1.57q-1.07 0.1-2 0.11h-2.21a10.31 10.31 0 0 1 -3.12 -0.41 5.19 5.19 0 0 1 -2 -1.15 4.28 4.28 0 0 1 -1.12 -1.79 7.48 7.48 0 0 1 -0.34 -2.34 15.27 15.27 0 0 1 0.39 -3.38 18.75 18.75 0 0 1 1.33 -4 8.14 8.14 0 0 1 1.83 -2.53 6.13 6.13 0 0 1 2.39 -1.33 10.49 10.49 0 0 1 3 -0.39 6.69 6.69 0 0 1 4.3 1.1 3.59 3.59 0 0 1 1.32 2.89 6.16 6.16 0 0 1 -0.19 1.49 5.5 5.5 0 0 1 -0.71 1.83 4.2 4.2 0 0 1 -1.3 1.28 5.88 5.88 0 0 1 -2 0.76 13.94 13.94 0 0 1 -2.79 0.24zm6.72-8a7.55 7.55 0 0 0 -2.39 0.34 4.74 4.74 0 0 0 -1.8 1.09 6.23 6.23 0 0 0 -1.33 2 15.64 15.64 0 0 0 -0.94 3h5.2a13.18 13.18 0 0 0 2.16 -0.15 4 4 0 0 0 1.4 -0.47 2.56 2.56 0 0 0 0.86 -0.84 5.4 5.4 0 0 0 0.55 -1.23 4.59 4.59 0 0 0 0.15 -1.24 2.2 2.2 0 0 0 -0.86 -1.82 5 5 0 0 0 -3 -0.7z"/>
    <path class="cls-5" d="m186.6 79.51h3.61l-0.68 1.66q-0.65 0.06-1.54 0.06h-1.54q-3.7 0-5.23-1.48a5.54 5.54 0 0 1 -1.53 -4.17 16.4 16.4 0 0 1 0.39 -3.35 14.9 14.9 0 0 1 1.3 -4 6.83 6.83 0 0 1 2 -2.39 6.72 6.72 0 0 1 2.62 -1.19 17 17 0 0 1 3.39 -0.31h3.21l-0.68 1.66h-2.8a12.8 12.8 0 0 0 -2.78 0.26 4.82 4.82 0 0 0 -2 0.94 5.23 5.23 0 0 0 -1.41 1.9 14.25 14.25 0 0 0 -1 3.13 16.54 16.54 0 0 0 -0.39 3.18 5.18 5.18 0 0 0 0.34 2 2.9 2.9 0 0 0 1 1.25 3.9 3.9 0 0 0 1.56 0.63 11.33 11.33 0 0 0 2.16 0.22z"/>
    <path class="cls-5" d="m199 57h1.88l-1.72 8.8a5 5 0 0 1 2.06 -1.41 8.88 8.88 0 0 1 3.1 -0.47 6.65 6.65 0 0 1 4.38 1.22 4.41 4.41 0 0 1 1.43 3.56 10.2 10.2 0 0 1 -0.23 2l-2 10.39h-1.9l2-10.49a8.86 8.86 0 0 0 0.15 -0.93 8.2 8.2 0 0 0 0 -0.83 2.86 2.86 0 0 0 -1.1 -2.6 5.73 5.73 0 0 0 -3.12 -0.71 8.68 8.68 0 0 0 -2.26 0.26 4.3 4.3 0 0 0 -1.66 0.84 4.45 4.45 0 0 0 -1.15 1.56 10.87 10.87 0 0 0 -0.75 2.4l-2 10.49h-1.88z"/>
    <path class="cls-3" d="m227.85 62.49-3.64 18.61h-5.36l3.64-18.61h-7.6l1.69-4.49h19.75l-1.72 4.51z"/>
    <path class="cls-3" d="m241.59 63.6a8.63 8.63 0 0 1 5.41 1.4q1.85 1.45 1.85 4.86a12.48 12.48 0 0 1 -0.1 1.51q-0.1 0.8-0.26 1.67a16.86 16.86 0 0 1 -1.17 3.96 7.92 7.92 0 0 1 -1.88 2.65 7 7 0 0 1 -2.73 1.51 12.83 12.83 0 0 1 -3.65 0.47 8.61 8.61 0 0 1 -5.41 -1.45q-1.83-1.45-1.83-4.86a14.89 14.89 0 0 1 0.08 -1.51q0.08-0.8 0.24-1.67a16.61 16.61 0 0 1 1.17 -3.9 8.07 8.07 0 0 1 1.9 -2.66 7 7 0 0 1 2.73 -1.51 12.82 12.82 0 0 1 3.65 -0.47zm-2.08 14a4.49 4.49 0 0 0 1.48 -0.21 2.32 2.32 0 0 0 1 -0.71 4.48 4.48 0 0 0 0.73 -1.35 15 15 0 0 0 0.57 -2.14 15.62 15.62 0 0 0 0.39 -3 2.44 2.44 0 0 0 -0.65 -2 3.16 3.16 0 0 0 -1.95 -0.5 4.52 4.52 0 0 0 -1.48 0.21 2.31 2.31 0 0 0 -1 0.71 4.25 4.25 0 0 0 -0.71 1.35 17.18 17.18 0 0 0 -0.55 2.11 16.54 16.54 0 0 0 -0.39 3 2.48 2.48 0 0 0 0.63 2 3 3 0 0 0 1.93 0.49z"/>
    <path class="cls-3" d="m260.78 72.17l6 8.93h-5.91l-4.74-7.44-1.43 7.44h-5l4.72-24.1h4.94l-2.57 13.28 6.43-6.14h6.11z"/>
    <path class="cls-3" d="m272.83 74.61v0.52a2.18 2.18 0 0 0 0.73 1.75 3.92 3.92 0 0 0 2.39 0.55q1.79 0 3.12 0t2.79-0.13l-1.46 3.7q-1 0.1-2.42 0.13t-3 0a10.65 10.65 0 0 1 -3.36 -0.45 5.32 5.32 0 0 1 -2.14 -1.27 4.64 4.64 0 0 1 -1.14 -1.93 8.26 8.26 0 0 1 -0.34 -2.42 14.41 14.41 0 0 1 0.29 -2.83 14.27 14.27 0 0 1 1.43 -4.38 8.45 8.45 0 0 1 2.19 -2.65 7 7 0 0 1 2.74 -1.3 14 14 0 0 1 3.12 -0.34 8 8 0 0 1 4.92 1.23 4.2 4.2 0 0 1 1.61 3.54q0 0.42-0.08 0.86a8.89 8.89 0 0 1 -0.15 0.89 4.91 4.91 0 0 1 -2.42 3.48 11.64 11.64 0 0 1 -5.41 1zm4.55-7.34a3.43 3.43 0 0 0 -2.5 0.83 6.24 6.24 0 0 0 -1.36 2.9h2.83a11.44 11.44 0 0 0 1.35 -0.06 2.73 2.73 0 0 0 0.89 -0.24 1.46 1.46 0 0 0 0.55 -0.46 2.47 2.47 0 0 0 0.33 -0.7 2.67 2.67 0 0 0 0.13 -0.84 1.3 1.3 0 0 0 -0.49 -1.07 2.83 2.83 0 0 0 -1.73 -0.36z"/>
    <path class="cls-3" d="m289.72 81.1h-5.16l2.08-10.59a12.09 12.09 0 0 1 1 -3.23 6.28 6.28 0 0 1 1.72 -2.14 6.54 6.54 0 0 1 2.57 -1.14 15.22 15.22 0 0 1 3.51 -0.36 8.81 8.81 0 0 1 5.28 1.33 4.75 4.75 0 0 1 1.8 4.09 7.2 7.2 0 0 1 -0.06 0.94q-0.07 0.49-0.16 1l-1.95 10.1h-5.16l2-10.33q0.06-0.32 0.1-0.6a4.39 4.39 0 0 0 0 -0.5 1.71 1.71 0 0 0 -0.57 -1.44 2.7 2.7 0 0 0 -1.67 -0.44 5.59 5.59 0 0 0 -1.4 0.15 2.17 2.17 0 0 0 -0.93 0.49 2.6 2.6 0 0 0 -0.62 0.91 6.89 6.89 0 0 0 -0.41 1.44z"/>
    <path class="cls-3" d="m73.26 69.11l-0.27 0.15a1 1 0 1 0 1.01 1.74l0.27-0.15a1 1 0 1 0 -1 -1.73z"/>
    <path class="cls-3" d="m76.06 67.26l-0.27 0.15a1 1 0 1 0 1 1.73l0.27-0.15a1 1 0 1 0 -1 -1.73z"/>
    <path class="cls-5" d="m97.93 53l-6.49-3.71a4.28 4.28 0 0 0 -4.19 0l-6.5 3.26a2.69 2.69 0 0 0 -1.4 2.3 2.88 2.88 0 0 0 0 0.35v6.61c0 3.28-0.88 3.63-0.88 3.63a1 1 0 0 0 -0.26 1.33 1 1 0 0 0 1.25 0.44c0.27-0.14 1.39-0.4 3.37 0.87 0.26 0.16 0.93 0.59 1.09 0.66l3.34 2a4.13 4.13 0 0 0 4.06 0l6.46-3.62a3.71 3.71 0 0 0 1.89 -3.23v-7.89a3.47 3.47 0 0 0 -1.74 -3zm-8.25 6.3c0 1.24 0 2.47-0.1 3.71 0 0.67-0.09 1.33-0.15 2s-0.14 1.33-0.25 2c-0.12-0.67-0.17-1.33-0.25-2s-0.11-1.33-0.15-2c-0.07-1.24-0.1-2.47-0.1-3.71a52 52 0 0 1 -6.16 -3.93 52.12 52.12 0 0 1 6.68 3.08l7.41-3.08z"/>
    <path class="cls-5" d="m71.76 71.2a1.08 1.08 0 0 0 -1.46 -0.4c-0.27 0.14-1 0.54-3.15-0.85-0.26-0.17-0.93-0.59-1.09-0.66l-3.34-2a4.13 4.13 0 0 0 -4.06 0l-6.46 3.62a3.71 3.71 0 0 0 -1.89 3.23v7.86a3.47 3.47 0 0 0 1.74 3l6.49 3.71a4.28 4.28 0 0 0 4.19 0l6.5-3.26a2.69 2.69 0 0 0 1.4 -2.3 2.87 2.87 0 0 0 0 -0.35v-6.57c0-3.23 0.82-3.59 0.82-3.59a1.08 1.08 0 0 0 0.31 -1.44zm-11.06 6.23c0 1.24 0 2.47-0.1 3.71 0 0.67-0.09 1.33-0.15 2s-0.14 1.33-0.25 2c-0.12-0.67-0.17-1.33-0.25-2s-0.11-1.33-0.15-2c-0.07-1.24-0.1-2.47-0.1-3.71a52 52 0 0 1 -6.16 -3.93 52.16 52.16 0 0 1 6.68 3.08l7.41-3.08z"/>
    <rect height="78.99" width="45.73" y="224.92" x="451.09" class="cls-6"/>
    <rect height="10.8" width="538.73" y="358.55" x="23.27" class="cls-7"/>
    <rect height="9.6" width="44.39" y="346.55" x="97.66" class="cls-7"/>
    <rect height="9.6" width="44.39" y="346.61" x="166.57" class="cls-7"/>
    <path class="cls-8" d="m470.69 307.48h-61.77c15.78-19.21 22.13-49.78 26.13-83.15h61.77c-6.51 35.12-14.09 66.67-26.13 83.15z"/>
    <ellipse rx="4.2" ry="4.8" class="cls-9" cy="231.36" cx="443.82"/>
    <ellipse rx="4.2" ry="4.8" class="cls-10" cy="237.99" cx="483.16"/>
    <ellipse rx="4.2" ry="4.8" class="cls-11" cy="223.73" cx="474.84"/>
    <path class="cls-12" d="m277.79 147.24q-1.34 0-2.75-0.12l-2.56-0.42 0.35-27.29s18.93 0.09 20.86 2.07a6.53 6.53 0 0 1 1.84 5.41 10.47 10.47 0 0 1 -3.18 5.46 8.45 8.45 0 0 1 4 8c-0.44 6.05-10.95 6.96-18.56 6.89zm2.44-11.51c0 1.2-0.08 3.85 0 5 4.67 0.16 8.66 0.82 8.5-2.86-0.19-3.25-7.73-2.11-8.5-2.13zm8.1-7.72c0.15-2.62-4.57-2.39-7.9-2.25 0 0.44-0.33 4-0.35 4.42 0.32 0.01 8.04 1.57 8.25-2.18z"/>
    <path class="cls-12" d="m300.82 147.06s-0.29-24.61-0.27-27.8l7.23 0.25c0 3.37-0.11 16.45-0.1 19.82 0.9 0 13.27 0.36 13.27 0.36l-0.19 7.48z"/>
    <path class="cls-12" d="m400.56 132.31c1.52-2.37 6.06-9.51 7.32-11.24l-5.88-2.07c-2.76 2.72-7.21 8.76-10.65 12 0-2.54-0.08-9.56 0.09-10.64l-6.32 0.11c-0.42 2.8-0.27 26.08-0.39 27.09h6.48c0.16-1.33 0-3.95 0-8.85l0.21 0.2c0.84-0.88 1.63-1.67 2.44-2.48a44.4 44.4 0 0 0 3 5.48 34.12 34.12 0 0 1 3.21 6l7.62-0.3c-1.06-2.88-6.55-12.61-7.13-15.3z"/>
    <path class="cls-12" d="m449.76 120.84c0.28 3.82 0.1 6.18 0.16 10.22-1.19-0.07-3.6 0-4.77-0.07s-3.17 0-4.29-0.09c-0.15-4.36 0-5.65-0.17-9.89h-7.31c0.27 7.81-0.18 24.77-0.14 26.76l7.56 0.15c0-2-0.24-9.4-0.25-10.31 1 0.05 8.1 0 9.39 0.08 0 1.71-0.09 10.55-0.09 10.55l7.48 0.15s0.93-19.17 0.31-27.5z"/>
    <path class="cls-12" d="m482.1 148.44l8.56-0.1c-3.07-6.85-10.25-26.76-10.25-26.76l-8.89-0.16s-9.34 21.45-11.27 26.83l7.89-0.1c0.59-1.62 1.59-4.28 2.66-6.54l9.45 0.24c0.62 2.51 1.44 4.29 1.85 6.59zm-9.22-11c0.8-1.49 2.17-5.81 3-7.2 0.51 1.45 2.38 5.95 2.85 7.42z"/>
    <path class="cls-12" d="m525.34 148.79c-1.78-2.28-9.31-12.54-11.44-15.23v1.92c0 5.06 0.22 9.43-0.33 13.21l-6.71-0.19c0.2-3.09 0.07-23.46 0.49-26.89l6.3-0.08c4.48 4.62 7.5 8.92 11.3 13.45 0-0.43 0.29-10.11 0.25-13.15h7c-0.3 2.8 0.09 23.47-0.29 27z"/>
    <path class="cls-12" d="m369.81 147.82c-13.2-1.29-14.86-9.26-14-15.76 0.33-2.54 1.19-9.69 8.64-12.33 3.3-1.17 7-1.45 9.85 0.08 2.64 1.44 5.27 3.49 6 6.59l-7 1.88c-4.64-4.65-9.7-0.19-10.32 4.59-0.45 3.5 3.77 11.69 10.47 5.87l5.9 4.18c-2.76 2.83-6.19 4.93-9.54 4.9z"/>
    <path class="cls-12" d="m336.5 147.3a13.74 13.74 0 1 1 13.85 -13.63 13.76 13.76 0 0 1 -13.85 13.63zm0.17-20.73a7 7 0 1 0 6.93 7 7 7 0 0 0 -6.93 -7z"/>
    <path class="cls-12" d="m419 147.85c-13.2-1.29-14.86-9.26-14-15.76 0.33-2.54 1.19-9.69 8.64-12.33 3.3-1.17 7-1.45 9.85 0.08 2.64 1.44 5.27 3.49 6 6.59l-7 1.88c-4.64-4.65-9.7-0.19-10.32 4.59-0.45 3.5 3.77 11.69 10.47 5.87l5.9 4.18c-2.77 2.82-6.21 4.93-9.54 4.9z"/>
    <rect class="cls-12" transform="translate(1.14 -4.13) rotate(.48)" height="27.09" width="7.48" y="121.4" x="493.85"/>
    <rect class="cls-12" transform="translate(-1.78 3.92) rotate(-1)" height="9.4" width="7.67" y="99.22" x="220.67"/>
    <rect class="cls-12" transform="translate(-1.78 4.21) rotate(-1)" height="10.97" width="7.14" y="98.67" x="237.33"/>
    <rect class="cls-12" transform="translate(-1.72 4.01) rotate(-1)" height="3.66" width="5.82" y="98.87" x="226.69"/>
    <rect class="cls-12" transform="translate(-1.71 4.29) rotate(-1)" height="3.4" width="6.08" y="98.59" x="242.55"/>
    <rect class="cls-12" transform="translate(-2.69 4.25) rotate(-1)" height="11.23" width="9.78" y="150.88" x="237.97"/>
    <rect class="cls-12" transform="translate(-2.69 3.9) rotate(-1)" height="8.1" width="4.76" y="152.54" x="220.26"/>
    <rect class="cls-12" transform="translate(-2.52 3.78) rotate(-1)" height="3.13" width="6.34" y="145.34" x="212.69"/>
    <rect class="cls-12" transform="translate(-2.38 3.71) rotate(-1)" height="2.09" width="6.34" y="137.31" x="208.84"/>
    <rect class="cls-12" transform="translate(-2.11 3.56) rotate(-1)" height="3.66" width="6.61" y="121.26" x="200.11"/>
    <rect class="cls-12" transform="matrix(1 -.02 .02 1 -2.18 3.73)" height="1.57" width="3.97" y="126.05" x="211.28"/>
    <rect class="cls-12" transform="translate(-1.98 3.66) rotate(-1)" height="2.35" width="3.44" y="114.37" x="207.38"/>
    <rect class="cls-12" transform="translate(-2.09 3.75) rotate(-1)" height="2.61" width="2.64" y="120.55" x="213.05"/>
    <rect class="cls-12" transform="matrix(1 -.02 .02 1 -2.52 3.61)" height="2.61" width="3.97" y="145.25" x="203.96"/>
    <path class="cls-12" d="m253.91 129.23c2.44-2.33 5.39-6.76 5.7-10.28v-0.24l-3.26 0.06-0.05-3.13 3.12-0.05a12 12 0 0 0 -3.52 -6.59c-3.73-3.57-39.26-2.84-39.26-2.84l0.65 50.63 4.83 0.65q2.65 0.14 5.17 0.1c14.3-0.25 34-2.44 34.48-13.66 0.47-10.27-6.89-13.74-7.86-14.65zm-30.61-10.4h2.38v2.09h-2.38zm-5.08-3.31h2.64l0.05 2.87h-2.64zm5 26.3-3.44 0.06v-2.61l3.44-0.06zm3.25-11-4.49 0.08-0.05-3.13 4.49-0.08zm4.82-13.19c6.24-0.43 15.08-1.07 14.93 3.79-0.21 6.93-14.79 4.41-15.37 4.43-0.05-0.85 0.38-7.43 0.39-8.25zm0.25 27.86c-0.13-2.22-0.13-7.14-0.16-9.36 1.46 0 15.56-2.46 16 3.65 0.39 6.79-7.11 5.76-15.89 5.68zm27.44-0.09-3.17 0.06v-2.35l3.17-0.06z"/>
    <rect class="cls-12" transform="translate(-1.86 3.67) rotate(-1)" height="2.09" width="3.17" y="107.83" x="208.06"/>
    <rect class="cls-12" transform="matrix(1 -.02 .02 1 -1.78 3.8)" height="2.61" width="2.11" y="102.99" x="216.44"/>
    <rect class="cls-12" transform="translate(-2.67 3.69) rotate(-1)" height="3.13" width="2.91" y="153.79" x="209.4"/>
    <path class="cls-12" d="m59.35 108.5c-0.34 0.73-13 5.91-11 7.83 1.78 1.75 9.55-3.77 9.31-2.84-1.12 4.36-1.56 9-2.75 13.23a81.16 81.16 0 0 0 -3.29 18.38c-0.07 1.69 2.9 1.69 3 0 0.29-6.63 2-12.9 3.65-19.33 1.38-5.4 1.64-11.44 4-16.57 0.72-1.56-2.15-2.24-2.86-0.7z"/>
    <path class="cls-12" d="m78 111.69c-8.68 0.44-12.18 8.91-13.14 16.62-0.73 5.88-1.66 17.59 5.89 20 7.09 2.24 10.71-10.36 12-15.08 1.7-6.11 3.09-18.63-3.43-22.5a1.49 1.49 0 0 0 -1.5 2.56c4.41 2.62 3.34 14 2.33 18.19-0.88 3.64-2.26 10.47-5.7 12.31-8 4.29-7.16-9.45-6.88-13.11 0.48-6.23 2.72-15.61 10.4-16 1.9-0.1 1.91-3.07 0-3z"/>
    <path class="cls-12" d="m98.4 111.74c-7.86 1.45-10.33 12.84-11.22 19.27-0.83 6-1.18 17.91 8.24 17 8.12-0.78 10.25-13.64 11.37-19.72 1-5.42 0.94-15.35-6.21-16-1.9-0.17-1.89 2.8 0 3 2.61 0.24 3.64 5.63 3.7 7.79a28.38 28.38 0 0 1 -0.52 4.46c-0.7 4.76-1.63 12.11-5.45 15.47q-1 1.9-3.37 1-3 1.3-3.92-1.75c-1.73-2.18-1.43-3.88-1.24-6.48 0.16-2.23 0.61-4.43 1-6.62 0.77-4.59 2.56-13.46 8.43-14.55 1.88-0.35 1.08-3.21-0.79-2.86z"/>
    <path class="cls-12" d="m132.2 118.67c-4.07 4.79-7.2 10.81-10.63 16.07-1.64 2.51-3.47 4.88-5.06 7.41-1.19 1.88-3.14 4-3.77 6.14-0.54 1.82 2.2 3 2.74 1.14s3.63-5.85 4.6-7.38c1.73-2.74 3.71-5.35 5.47-8.08 2.85-4.43 5.6-9.47 9-13.49 1.24-1.46-1.12-3.26-2.36-1.81z"/>
    <path d="m157.11 114.16c-13.71 1-17.81 29.31-5.51 35 17.77 8.21 22.05-33.09 5.51-33.8-2.87-0.12-2.86 4.33 0 4.45 5.54 0.24 5.78 11.58 5.42 15.45-0.26 2.77-1.17 7.39-3.57 9.3-3.24 2.58-7.09 0.19-8.57-2.9-2.72-5.65-1.57-22.43 6.73-23 2.84-0.21 2.86-4.67 0-4.45z"/>
    <path d="m174.78 146.09c0-5.91 0.11-11.83-0.12-17.74-0.06-1.5 0.63-5.72-0.07-7-0.62-1.11-0.72-1.31-1 0.3-0.13 0.7 0.75 2.54 1 3.27a72.9 72.9 0 0 0 5.87 13c1.12 2 2.49 4 3.54 6 0.86 1.67 1 3.44 2.31 4.86a2.24 2.24 0 0 0 3.72 -1c1-5.06 0.21-10.75 0.21-15.89 0-2.71 0.08-5.44 0-8.15 0-1.48 1.83-7.86-1-7.85-4 0-3.53 4.38-3.44 7.23 0.09 3.25 0 6.51 0 9.77 0 4.34 0.74 9.46-0.05 13.71l3.72-1c-1.68-1.87-2.77-6.16-4-8.37a76.68 76.68 0 0 1 -4.58 -8.4c-1.34-3.25-2.4-11.9-6.57-12.79-4.36-0.93-4.15 4.76-4.17 7.53 0 7.47 0.24 15 0.24 22.45 0 2.87 4.45 2.87 4.45 0z"/>
    <ellipse rx="3.27" ry="2.97" class="cls-12" cy="126.38" cx="117.8"/>
    <ellipse rx="2.82" ry="3.12" class="cls-12" cy="141.97" cx="128.93"/>
    <path class="cls-12" d="m46.73 145.78a6.3 6.3 0 0 1 1.19 -0.2 8.36 8.36 0 0 0 1.54 -0.15 18.12 18.12 0 0 1 1.91 0c0.68 0 1.26-0.21 2-0.21h5.27c0.4 0 1.11 0.17 1.38-0.2"/>
    <path class="cls-13" d="m297.26 178.89c-3.52 5.61 6.62 6.88 12.27 6.43 6.26-0.49 9-3.2 10.43-9-3-2.07-5.49-5-10.05-4.05-2.6 0.53-11.28 5.07-12.65 6.62z"/>
    <path class="cls-14" d="m147.6 245.11c-1.23 2.18-1.81 4.74-2.75 7.13-1.1 2.77-2.63 5.29-3.86 8-2.87 6.39-4.63 13.52-6.52 20.23-5.49 19.48-8.09 39.62-10.63 59.57-0.51 4-2.91 15.57 0.3 18.78"/>
    <rect height="58.8" width="63.85" y="294.71" x="116.41" class="cls-15"/>
    <rect height="13.66" width="16.04" y="297.68" x="119.09" class="cls-16"/>
    <path class="cls-4" d="m144 352.61c0 4.76-4.32 8.61-9.65 8.61s-9.65-3.86-9.65-8.61c0-2.73 2.83-6.44 5-8 0.83-0.59 0.77 5.67 1.78 5.35s1.68-5.94 2.82-5.94c5.41-0.02 9.7 3.84 9.7 8.59z"/>
    <path class="cls-17" d="m191.94 399.87c-17.76 6-38.43 4.38-60.58-1.19l17.82-165.11h34.45z"/>
    <path class="cls-18" d="m205.21 213.64c0 19.35-16.49 35-36.82 35s-36.82-15.69-36.82-35c0-12.56 4.44-28.33 16.63-35 6.6-3.63 17.8-5.35 24.94-5.35 20.33-0.04 32.07 20.99 32.07 40.35z"/>
    <path class="cls-19" d="m367.35 388.25c-18.3 8-25.91 6.48-50.48-0.59 17-65.41 19.14-127.1 10.49-163.58h34.44c14.2 29.16 8.25 95.79 5.55 164.17z"/>
    <path class="cls-18" d="m383.38 204.13c0 19.35-16.49 35-36.82 35s-36.82-15.69-36.82-35 7.4-36.14 27.72-37c36.42-1.6 45.92 17.65 45.92 37z"/>
    <ellipse rx="2.97" ry="9.5" class="cls-20" cy="204.73" cx="187.98"/>
    <ellipse rx="4.45" ry="10.69" class="cls-20" cy="197.01" cx="333.19"/>
    <ellipse rx="4.45" ry="10.69" class="cls-20" cy="196.41" cx="316.57"/>
    <path class="cls-1" d="m183.23 226.11c-0.35 6.27 6.92 8.22 10.69 3.56"/>
    <path class="cls-20" d="m181.95 227.9a5.54 5.54 0 0 0 0.56 2 3.85 3.85 0 0 0 1.3 1.48 6 6 0 0 0 4.07 0.76l0.21 1a6.1 6.1 0 0 1 -5 -0.61 4.71 4.71 0 0 1 -1.74 -2.05 5.23 5.23 0 0 1 -0.37 -2.58z"/>
    <path class="cls-20" d="m316.86 219.58a19 19 0 0 0 5 2.6 14.12 14.12 0 0 0 5.35 0.67 18.53 18.53 0 0 0 5.37 -1.25 29.59 29.59 0 0 0 5.08 -2.61 16.54 16.54 0 0 1 -4.6 3.66 15.2 15.2 0 0 1 -5.73 1.79 11.49 11.49 0 0 1 -6 -0.94 10.28 10.28 0 0 1 -4.47 -3.92z"/>
    <path class="cls-21" d="m174.32 249.87v-0.59"/>
    <path class="cls-14" d="m173.13 247.49c5.08 16.42 14.12 38.67 28.38 49.77s32.44-5.47 47.65-3.45"/>
    <path class="cls-14" d="m329.33 238c-3.54 1.89-24.52 42-27.56 46.62-4.07 6.25-23.52 5.76-29.85 8"/>
    <path class="cls-21" d="m186.2 191.07c-6.48-0.62-10.52 9.1-8.31 14.25"/>
    <path class="cls-21" d="m335.87 183.35c5.18-1.11 7.26 4.85 7.13 8.91"/>
    <path class="cls-14" d="m246.19 293.22c5.36-1.73 14.46-1.5 19 1.48 5.14 3.37 8.91 10.66-0.52 8.1 2.21 5-4.25 3.85-6.47 1.77 0.43 9.59-12.26-6.68-12.01-11.35z"/>
    <path class="cls-4" d="m269.05 291.74"/>
    <path class="cls-22" d="m274 292.63c-2.87-4.95-10.89-5.6-15.24-4-3.52 1.33-5.58 5.46-4.17 6.84 2.47 2.41 5.7-1.78 8.92-2.38l3.27-0.79"/>
    <path class="cls-20" d="m272.7 293.38c-1.42-2.18-4.23-3.39-7.13-3.66a15.32 15.32 0 0 0 -4.35 0.13 10.72 10.72 0 0 0 -2 0.55 5.67 5.67 0 0 0 -1.58 1 6.45 6.45 0 0 0 -1.23 1.43 3.45 3.45 0 0 0 -0.57 1.43v0.09s-0.08-0.08 0 0 0.07 0.07 0.1 0.09a0.79 0.79 0 0 0 0.16 0.11 0.66 0.66 0 0 0 0.36 0.06 2.76 2.76 0 0 0 0.72 -0.17c1.2-0.44 2.57-1.44 4.28-2.18a8.53 8.53 0 0 1 1.41 -0.47 11.33 11.33 0 0 1 1.25 -0.22 5 5 0 0 1 2.59 0.43l0.19 0.79a5.08 5.08 0 0 1 -2.16 1.59 8.38 8.38 0 0 1 -1.13 0.35 5.58 5.58 0 0 0 -0.88 0.35c-1.27 0.6-2.49 1.64-4.31 2.46a5.83 5.83 0 0 1 -1.63 0.45 4.11 4.11 0 0 1 -2 -0.29 4.16 4.16 0 0 1 -0.89 -0.51 4.74 4.74 0 0 1 -0.37 -0.31 3 3 0 0 1 -0.43 -0.48 3.56 3.56 0 0 1 -0.63 -2.23 6.7 6.7 0 0 1 1 -3.14 9.57 9.57 0 0 1 1.92 -2.28 9.23 9.23 0 0 1 2.55 -1.59 12.57 12.57 0 0 1 2.72 -0.75 18.31 18.31 0 0 1 5.39 -0.07 15.72 15.72 0 0 1 5.2 1.65 9.84 9.84 0 0 1 4.1 4z"/>
    <path class="cls-14" d="m274.69 292.63c-0.79 2.55-1.61 5.31-4.16 6.53"/>
    <path class="cls-14" d="m246.78 295c-4.48 4.37-1.19 12.67 6.53 11.09"/>
    <path class="cls-20" d="m244.7 280.59a4.93 4.93 0 0 1 1.76 -3.12 7.22 7.22 0 0 1 3.31 -1.48 10.62 10.62 0 0 1 3.36 -0.07 11.75 11.75 0 0 1 3.14 0.85v0.83a12.82 12.82 0 0 1 -3.13 0.82c-1 0.16-2 0.26-2.89 0.4a11.82 11.82 0 0 0 -2.55 0.63 9.18 9.18 0 0 0 -2.43 1.46z"/>
    <path class="cls-20" d="m249.44 282.67a2.32 2.32 0 0 1 1.58 -1 2.38 2.38 0 0 1 1.78 0.38l-0.15 0.87a11 11 0 0 1 -1.31 0.38 9.62 9.62 0 0 1 -1.27 0.24z"/>
    <path class="cls-20" d="m255.69 321.73a17.84 17.84 0 0 1 3.16 -0.61l3-0.34a26.8 26.8 0 0 0 2.81 -0.51 10.91 10.91 0 0 0 2.71 -1l0.29 0.22a4.23 4.23 0 0 1 -2.34 2.56 8.17 8.17 0 0 1 -3.32 0.71 16.31 16.31 0 0 1 -3.23 -0.25 23.87 23.87 0 0 1 -3.08 -0.78z"/>
    <path class="cls-20" d="m258 316.05a11.38 11.38 0 0 1 1.69 -0.58c0.55-0.15 1.1-0.27 1.64-0.37a29.29 29.29 0 0 1 3.33 -0.39l0.46 0.75a4.12 4.12 0 0 1 -1.6 1.23 7 7 0 0 1 -1.83 0.57 6.69 6.69 0 0 1 -1.9 0.05 4.39 4.39 0 0 1 -1.88 -0.61z"/>
    <path class="cls-14" d="m189.76 400.13c0 32.55-3.58 70 0.4 102 5 0.25 16.83-5.27 21-3.37"/>
    <path class="cls-14" d="m141.06 399.14c0 6.34-0.86 18.32-1.2 24.15-0.55 9.41-2.35 18.59-3 27.89-0.67 10.3-0.75 20.75-1.78 30.9-0.5 4.88-2.75 17.62 0.43 21 3.84 4 16.59-9.66 21.34-8.08"/>
    <path class="cls-14" d="m365.56 233.24c12.12 14.17 22 29.63 29 47.41 3.89 10 15.24 37.31-5.82 35.16-7.75-0.79-18.84-3.68-25.51-7.73"/>
    <path class="cls-4" d="m350.72 332.42h-40.39c8.64-16.4 10.26-37 7.72-60h40.39c1.04 25.02 1.42 49.11-7.72 60z"/>
    <path class="cls-4" d="m365 308.07c0.31-4.32-1-9.76-4.52-12.41-3-2.24-11.2-4.58-11.42 1 1.63 0.36 1.67 1.16 2.82 1.74-3.95 0.89-5.94 5.92-1.2 7.39-6.93 6.26 10.13 7.54 14.33 4"/>
    <path class="cls-14" d="m364.38 390c0 26 4.16 58.37 4.16 84.34 0 7.24-0.3 14.17-0.68 21.29-4.06 1.37-12.73 3.13-15.95 2.46"/>
    <path class="cls-14" d="m321 388.25c0 15.8-11.1 79.08-12.87 87.7-0.75 3.64-3.38 14.91-5.54 17.42-2 2.35-17.53 3.34-20.79 4.16"/>
    <path class="cls-21" d="m125.32 300.05c0.08-0.23 0-0.59 0-0.84 2.52 0.05 0.84 8.9-2.57 1.29-1-2.34-3.94-9.29-1-10.87 1.68 1.19 1.8 3.11 2.67 4.78"/>
    <path class="cls-21" d="m354.48 271.64a4.15 4.15 0 0 0 -1.58 -2.41c-3.17 2.11-2.92 11.09-0.4 13.54 1.5-1.54 1.32-4.52 1.11-6.73-0.79 0.23-0.44 0.6-0.71 1.15"/>
    <path class="cls-18" d="m326 168.7c4-8.31 22.07-18.91 41.67-3.76 17.18 13.27 16.09 24.66 15.65 31.39-4.55 0.81-45.47-12.82-50.4-18-4.37-4.57-8.2-7.33-6.92-9.63z"/>
    <path class="cls-23" d="m296.07 181.27c0.59-2.42-0.17-1.46 1.44-3 4.85-4.65 17.47-3.16 23.1 1.72 3.92 3.4 4.58 4.24 9.7 4.95s9.86-0.94 14.65-1.19c2.98-18.62-46.51-16.93-48.89-2.48z"/>
    <path class="cls-3" d="m338.36 164.6h-0.08a0.36 0.36 0 0 0 -0.24 0.36 0.22 0.22 0 0 0 0.14 0.21 0.21 0.21 0 0 0 0.13 0h0.08a0.36 0.36 0 0 0 0.24 -0.36 0.21 0.21 0 0 0 -0.27 -0.21z"/>
    <path class="cls-3" d="m339.21 164.31h-0.08a0.36 0.36 0 0 0 -0.24 0.36 0.22 0.22 0 0 0 0.14 0.21 0.21 0.21 0 0 0 0.13 0h0.08a0.36 0.36 0 0 0 0.24 -0.36 0.21 0.21 0 0 0 -0.27 -0.21z"/>
    <path class="cls-5" d="m345.74 162l-1-1.56a0.83 0.83 0 0 0 -0.93 -0.34l-1.83 0.4a0.91 0.91 0 0 0 -0.58 0.53v0.1l-0.76 1.86c-0.38 0.92-0.61 0.95-0.61 0.95a0.38 0.38 0 0 0 -0.21 0.35 0.23 0.23 0 0 0 0.14 0.22h0.04c0.08 0 0.36 0 0.65 0.51 0 0.07 0.14 0.24 0.17 0.27l0.52 0.82a0.78 0.78 0 0 0 0.4 0.32 0.85 0.85 0 0 0 0.51 0l1.86-0.5a1.27 1.27 0 0 0 0.79 -0.76l0.91-2.21a1.08 1.08 0 0 0 -0.07 -0.96zm-2.57 1.11c-0.14 0.35-0.29 0.69-0.45 1l-0.26 0.55c-0.1 0.18-0.18 0.36-0.29 0.54 0.05-0.2 0.12-0.39 0.17-0.58s0.13-0.38 0.2-0.57c0.13-0.35 0.26-0.7 0.4-1a11.58 11.58 0 0 1 -0.93 -1.59 10.66 10.66 0 0 1 1.14 1.4l2-0.28z"/>
    <path class="cls-5" d="m337.79 165.07a0.24 0.24 0 0 0 -0.15 -0.23 0.22 0.22 0 0 0 -0.13 0c-0.08 0-0.29 0.07-0.61-0.49 0-0.07-0.14-0.24-0.17-0.27l-0.52-0.82a0.78 0.78 0 0 0 -0.4 -0.32 0.85 0.85 0 0 0 -0.51 0l-1.86 0.5a1.27 1.27 0 0 0 -0.79 0.76l-0.91 2.21a1.08 1.08 0 0 0 0 1l1 1.56a0.83 0.83 0 0 0 0.93 0.34l1.83-0.4a0.91 0.91 0 0 0 0.58 -0.53v-0.1l0.76-1.86c0.37-0.9 0.6-0.94 0.6-0.94a0.4 0.4 0 0 0 0.35 -0.41zm-3.19 0.87c-0.14 0.35-0.29 0.69-0.45 1l-0.26 0.55c-0.1 0.18-0.18 0.36-0.29 0.54 0.05-0.2 0.12-0.39 0.17-0.58s0.13-0.38 0.2-0.57c0.13-0.35 0.26-0.7 0.4-1a11.58 11.58 0 0 1 -0.93 -1.59 10.67 10.67 0 0 1 1.14 1.4l2-0.28z"/>
   </g>
  </g>
 </g>
</svg>
