<svg xmlns="http://www.w3.org/2000/svg" xmlns:xlink="http://www.w3.org/1999/xlink" viewBox="0 0 669.33 581"><defs><style>.cls-1,.cls-11,.cls-13,.cls-14,.cls-17,.cls-19,.cls-33,.cls-34,.cls-5{fill:none;}.cls-2{clip-path:url(#clip-path);}.cls-3{fill:#4c4b4c;}.cls-4{fill:#ffde77;}.cls-5{stroke:#ffde77;stroke-width:6px;}.cls-10,.cls-11,.cls-12,.cls-13,.cls-14,.cls-15,.cls-16,.cls-17,.cls-19,.cls-20,.cls-30,.cls-33,.cls-34,.cls-36,.cls-45,.cls-46,.cls-5,.cls-54,.cls-9{stroke-miterlimit:10;}.cls-6{fill:#40403f;}.cls-7{fill:#717187;}.cls-8{fill:#353535;}.cls-9{fill:#ed2024;}.cls-12,.cls-14,.cls-15,.cls-16,.cls-36,.cls-9{stroke:#231f20;}.cls-10{fill:#ed6a56;}.cls-10,.cls-11,.cls-19,.cls-20,.cls-30,.cls-33,.cls-34,.cls-45,.cls-46{stroke:#000;}.cls-12{fill:#5974b8;}.cls-13{stroke:#262626;}.cls-15,.cls-20,.cls-30,.cls-32{fill:#fff;}.cls-16{fill:#6c5ca8;}.cls-17{stroke:#34343a;}.cls-18{fill:#555567;}.cls-19{stroke-width:3px;}.cls-21{fill:#fdf6ad;}.cls-22{fill:#704b4a;}.cls-23{fill:#bf7171;}.cls-24{fill:#a3a1a1;}.cls-25{fill:#7997af;}.cls-26{fill:#0d131b;}.cls-27{fill:#f2db6a;}.cls-28{fill:#3a3a3a;}.cls-29{fill:#9b3d47;}.cls-30,.cls-34{stroke-width:0.5px;}.cls-31{fill:#231f20;}.cls-33{stroke-width:0.75px;}.cls-35{fill:#ffefaf;}.cls-36,.cls-40,.cls-45{fill:#f2af1d;}.cls-37{fill:#fcda70;}.cls-38{fill:#7c5d3c;}.cls-39{fill:#4d4d5f;}.cls-41{fill:#bcbbbb;}.cls-42{fill:#aaaaab;}.cls-43{fill:#8dc63f;}.cls-44{fill:#695f75;}.cls-46{fill:#84a6d7;}.cls-47{fill:#181818;}.cls-48{fill:#f9d332;}.cls-49{fill:#2b2b2b;}.cls-50{fill:#fff6d3;}.cls-51{fill:#393a44;}.cls-52{fill:#6d6c6d;}.cls-53{fill:#232323;}.cls-54{fill:#ddc5df;stroke:#b881b8;}</style><clipPath id="clip-path"><rect class="cls-1" x="108.67" y="18" width="504" height="504"/></clipPath></defs><title>2-19FastLane(2)Asset 5</title><g id="Layer_2" data-name="Layer 2"><g id="Layer_14" data-name="Layer 14"><g class="cls-2"><rect class="cls-1" x="108.67" y="18" width="504" height="504"/><path class="cls-3" d="M94.61,268l4.72,285c8.05,13.49,188.13,9.33,199.31-1.71l296.45-293c11.36-11.23,66.91-76.65,68.24-92.65l6-1.33a24.21,24.21,0,0,0-18.34-4L98,209C81.41,212.06,86,253.5,94.61,268Z"/><rect class="cls-4" x="90.9" y="239" width="428.53" height="6" transform="translate(-39.81 61.22) rotate(-10.76)"/><line class="cls-5" x1="608.67" y1="229" x2="275.67" y2="550"/><line class="cls-5" x1="406.67" y1="251.67" x2="408.67" y2="223.5"/><line class="cls-5" x1="359.17" y1="299" x2="366.67" y2="232"/><line class="cls-5" x1="313.67" y1="328" x2="324.67" y2="238"/><line class="cls-5" x1="263.17" y1="362.5" x2="277.17" y2="248"/><line class="cls-5" x1="202.67" y1="337.67" x2="211.67" y2="261.5"/><polygon class="cls-4" points="144.07 364.06 138 366.33 149.18 273.19 155.15 273.81 144.07 364.06"/><polygon class="cls-4" points="517.29 204.52 514.05 199.48 50.82 400.58 54 405.67 517.29 204.52"/><path class="cls-6" d="M342.73,161.1l5.84.94a3.09,3.09,0,0,0,2.47-.72c.34-.28,3.43,0,3.66-.4.1-.18.64-.92.13-1.25-.68-.45-2.47-.51-2.42-.81h0a3.55,3.55,0,0,0-2.65-4.22l-5.84-.94a3.55,3.55,0,0,0-3.84,3.18h0A3.55,3.55,0,0,0,342.73,161.1Z"/><path class="cls-7" d="M146.67,170.25c.38-.12,30.13-.62,30.13-.62l3.5-21.62,5.13.5L182,169.38h21.88l.25-16.5,2.38-5.62,3,.38L207.17,163l23.25,1.13,7.5,25.88-50.25.13-42.25-13.37Z"/><polygon class="cls-7" points="246.79 174.13 268.04 171.38 271.67 159 274.92 152.5 315.67 153.5 327.54 179.88 293.17 187.63 245.04 178.13 246.79 174.13"/><polygon class="cls-7" points="348.42 158 357.42 133 360.04 133.5 351.29 157.63 374.54 151.25 378.92 131.25 384.04 131 383.04 141.13 423.04 143.38 423.79 168.38 393.67 174.5 344.67 164.75 348.42 158"/><path class="cls-8" d="M413,213.63s-7.49.14-9.37-1.29c-1.16-.88-2-3.91-2.33-5.33-.59-2.57-2-10.33-2-10.33l3.67-8,9.33-1.67Z"/><path class="cls-8" d="M443,208.63s-5.81.05-7.37-1a11.75,11.75,0,0,1-3.25-4.79,34.91,34.91,0,0,1-.87-6.37c0-.85.13-3.17.13-3.17l7-2Z"/><path class="cls-8" d="M334.58,227.22s.66.37-.71-.59c-1.18-.83-7.29-1.49-7.7-2.87-.76-2.57-3-12.25-3-12.25l4.75-7.67,5.67.33Z"/><path class="cls-8" d="M303.67,230.28s-5.8.44-7.25-.66c-1.91-1.45-3.42-9-3.42-9l2.33-8,5-9,4.67,10Z"/><path class="cls-8" d="M235.29,241s-7.44.86-9.25-.59c-1.28-1-1.87-4.61-2-6.25s-.75-6.12-.75-6.12l1-15.42,13,3.67Z"/><path class="cls-8" d="M212.67,245s-7.8-.39-9.67-2c-1.28-1.1-2.55-4.49-3-6.12s-1.37-6.87-1.37-6.87l.67-6.33,5-9.67,7.33,5.67Z"/><polyline class="cls-9" points="396.67 149.25 400.67 153.75 404.92 166.5 379.92 164.25 384.67 151.75 396.67 149.25 396.67 149.25 396.67 149.25"/><path class="cls-10" d="M308.67,158.17s-3.11,9.55-4.67,12.5c-1.79,3.38-8.83,12.5-8.83,12.5l15.83,4,5.33-5.17,1-12.33L317,160Z"/><path class="cls-11" d="M308.17,159.25c-.49,1.64-6.39,9.36-8,11.12-2.29,2.49-11,5.05-11.49,5.63"/><path class="cls-12" d="M211.17,172l-3,20s-19.25-.75-18.75-1.5S206.17,170,206.17,170Z"/><path class="cls-13" d="M194.75,178.67c1.5,5.33-4.36,6.67-8.71,6.67s-9.29-4.21-8.37-7.67a8.43,8.43,0,0,1,8.38-6.58C190.39,171.08,193.68,174.88,194.75,178.67Z"/><path class="cls-14" d="M205.42,170.25c-3.12-.65-7.29.08-10.62.25-3.17.16-7.16.5-9.87.5"/><path class="cls-15" d="M187.33,175.42c-.29.84-.6-1.18-1.17-1s-1.29,1.77-1.83,1.58c-1-.34-1.83-1.11-1.17-3s2.94-2.76,3.92-2.42S188,173.53,187.33,175.42Z"/><polygon class="cls-16" points="268.32 170.76 267.53 179.05 277.33 180.17 276.16 173.23 274 168.3 268.32 170.76"/><ellipse class="cls-17" cx="386.35" cy="161.63" rx="6.81" ry="6.25"/><ellipse class="cls-15" cx="393.04" cy="157.63" rx="3.13" ry="2.88"/><ellipse class="cls-15" cx="382.42" cy="157" rx="2.88" ry="2.38"/><polygon class="cls-18" points="347.42 158.25 374.42 156.5 387.67 157.38 395.92 159 394.79 164.25 353.92 162.63 345.79 162.63 347.42 158.25"/><ellipse class="cls-19" cx="283.5" cy="184.42" rx="7.5" ry="7.75"/><path class="cls-20" d="M289.5,176.5c-.39-2.27-3-1.94-4.37-1-2.49,1.57-1.23,3.33.68.94-1,1.64.4,2.57,1.37.83-1.26,2.86,2.34,1.38,2.29-1.2-.31-.15-.17.14-.3.14"/><path class="cls-6" d="M494,174.33c0,2.3-15.7,4.33-30.33,4.33S435,170,435,167.67,447.36,173,462,173,494,172,494,174.33Z"/><path class="cls-21" d="M433.17,147.59c.16,4.1,5,9,9.29,8.88s6.35-5.37,6.2-9.47-7.64-11.38-11.91-11.21S433,143.48,433.17,147.59Z"/><polygon class="cls-22" points="428 151.5 454.5 151.67 443.83 168.83 427 171.33 428 151.5"/><path class="cls-23" d="M431.17,156.6l-5.37-26.47s-30.43-4-38.37-4.12c-8.77-.17-28.25,3.13-28.25,3.13s-10.5,7-14.5,32c-.56,3.51-17.24,7.39-17.25,10.5,0,15.29,3,27.91,17.75,33.75,8.54,3.39,24.42,3.25,37,3.25,22.36,0,72-20.93,72-20.93l.33-36Zm-64.12,4c-5-.31-19.5.63-19.5.63l5.79-14.92,5.33-11.67s11.73-1.66,15.67-2a86.23,86.23,0,0,1,14,0l12.83,1.71L393.79,163S373.58,161,367,160.63Zm55.25-3L400.92,163l1.75-7L408,134.67l14.67.33Z"/><polygon class="cls-24" points="342.67 195.5 380.5 200.83 393.17 198.5 395.17 199.17 396.33 208.67 378 210.83 343 206.67 342.67 195.5"/><rect class="cls-21" x="331.42" y="179.25" width="14" height="9" rx="2.87" ry="2.87" transform="translate(21.71 -35.31) rotate(6.17)"/><polygon points="364.11 197.46 362.04 197.16 363.28 184.19 365.36 184.5 364.11 197.46"/><rect x="358.73" y="183.42" width="1.75" height="13.03" transform="translate(19.8 -33.51) rotate(5.49)"/><rect x="354.98" y="183.02" width="1.75" height="13.03" transform="translate(19.75 -33.15) rotate(5.49)"/><rect x="350.98" y="182.67" width="1.75" height="13.03" transform="translate(19.7 -32.77) rotate(5.49)"/><rect x="347.31" y="182.06" width="1.75" height="13.03" transform="translate(19.62 -32.42) rotate(5.49)"/><path class="cls-25" d="M348.17,196.5c0-12.91-7.58-29.73-14.5-39.5-12.75-18-24.94-12.25-43.75-12.25-23,0-39,9.51-48.25,28.75-3.57,7.41-3,12.25-3,21,0,13.83-2,28.65,8.1,28.59,13.9-.09,26.15,4.41,47.4.91,24.19-4,38.75-5.25,50.5-11.75C348.89,209.92,348.17,204.37,348.17,196.5ZM292.33,183s-20.11-5.6-27-6.33c-4.64-.5-18.67.33-18.67.33s1.21-3.35,1.5-4.5c.85-3.4,9.68-15.08,14.75-17.25,3.15-1.35,11-1.68,13.63-1.5,5.38.38,17.46,1.58,17.46,1.58Zm6-.33.67-27.33,17-1,8,24Z"/><path class="cls-26" d="M277.67,212.25c0,3-12.11,2.75-23.5,2.75s-18.75-4.28-18.75-7.25,7.61,2.5,19,2.5S277.67,209.28,277.67,212.25Z"/><path class="cls-6" d="M131.5,171.52c-.57,1.92,1.38,4.19,4.36,5.08a7.72,7.72,0,0,0,3.63.23c1-.19,4.52,1.5,5,.92.24-.27-2.34-2.68-2.23-3,.57-1.92-1.38-4.19-4.36-5.08S132.07,169.6,131.5,171.52Z"/><path class="cls-27" d="M245.67,218.33c-.67-42.67-14-86.67-55.33-84-29.08,1.88-40.17,15.92-48.92,39.67-2.24,6.07-11.08,6.33-11.08,6.33l10,36,12,4.67,3.33,14.67s39.88,3.67,75-6.17c4.17-1.17,13.64-1.87,16.33-3.17C250.28,224.76,245.67,218.33,245.67,218.33Zm-99-42.58,11.63-23.37s5.53-1.66,7.71-2c3.45-.6,10.52-.34,14,0,3,.29,12,1.67,12,1.67l3,1.67L197.67,171l.25,9Zm76,6.5c-4.82-.1-18.5-.75-18.5-.75l-1.83-12.83-3-16A106.57,106.57,0,0,1,210,151a92.66,92.66,0,0,1,9.33,1s4.77,6.33,6,8.67c2.08,3.94,6.33,16.67,6.33,16.67l1.25,5.42S225.34,182.31,222.67,182.25Z"/><path class="cls-8" d="M184.17,230c0,3.18-14.25,4.5-32,2.75-9.27-.91-18.75-1.32-18.75-4.5s4.5-3,14.75-1.5C157.89,228.2,184.17,226.82,184.17,230Z"/><ellipse class="cls-28" cx="304.15" cy="216.99" rx="7.19" ry="13.33"/><ellipse class="cls-28" cx="334.1" cy="213.83" rx="6.19" ry="12.83"/><ellipse class="cls-28" cx="413.15" cy="200.33" rx="6.19" ry="13.33"/><ellipse class="cls-28" cx="442.81" cy="195.33" rx="6.19" ry="13.33"/><ellipse class="cls-28" cx="213.54" cy="226.63" rx="18.37" ry="8.37" transform="translate(-25.88 425.71) rotate(-86.45)"/><path class="cls-28" d="M240.63,224.15c-.53,10.13-3.35,17.21-6.31,17.05s-4.92-6.69-4.38-16.82,3.33-19,6.3-18.86S241.17,214,240.63,224.15Z"/><path class="cls-21" d="M285.85,195c.7,2.67-5.06,5.08-12.43,7s-12,2.17-12.75-.5,3.19-5.91,10.56-7.85S285.15,192.32,285.85,195Z"/><ellipse class="cls-21" cx="181.79" cy="208.63" rx="10.13" ry="10.38"/><rect class="cls-21" x="369.42" y="183.75" width="16.5" height="8.75" rx="3.25" ry="3.25" transform="translate(10.79 -20.25) rotate(3.12)"/><path class="cls-21" d="M490.63,157.13c-2.21,3.83-9,6.27-12.71,4.13s-2.92-8-.71-11.87,12.5-7.27,16.21-5.12S492.84,153.3,490.63,157.13Z"/><ellipse class="cls-21" cx="129.79" cy="201.88" rx="10.13" ry="10.38"/><path class="cls-18" d="M125.46,219.89l-1.09,32.81a1.19,1.19,0,0,0,1.26,1.23l29.47-1.7a1.19,1.19,0,0,0,1.12-1.12l.93-17.11a1.19,1.19,0,0,0,0-.31l-2.82-13.17a1.19,1.19,0,0,0-.8-.88l-12-3.86a1.19,1.19,0,0,0-1.54,1h0a1.19,1.19,0,0,1-1.08,1l-12.33,1A1.19,1.19,0,0,0,125.46,219.89Z"/><rect class="cls-3" x="173.17" y="221.05" width="16.5" height="3.7" rx="1.82" ry="1.82"/><ellipse class="cls-3" cx="213.5" cy="227.17" rx="3.5" ry="11.17"/><ellipse class="cls-3" cx="235.83" cy="224.33" rx="11.33" ry="2.17" transform="translate(-1.37 447.22) rotate(-86.79)"/><ellipse class="cls-3" cx="304.33" cy="217.17" rx="3.67" ry="7.17"/><ellipse class="cls-3" cx="334.23" cy="214.17" rx="3" ry="6.83"/><ellipse class="cls-3" cx="413.67" cy="201" rx="2.33" ry="8"/><ellipse class="cls-3" cx="443" cy="195.33" rx="2.67" ry="8.33"/><ellipse class="cls-21" cx="500.17" cy="148.67" rx="2.5" ry="2"/><ellipse class="cls-21" cx="429.83" cy="142.5" rx="0.83" ry="2.17"/><path class="cls-29" d="M347.83,189.15c.29,4.73.08,4.77.08,4.77s-6.58.21-6.58-6.57c0-5,2.33-11.27,2.33-11.27C344.49,177.78,347.59,185.15,347.83,189.15Z"/><path class="cls-30" d="M305.33,152.33c0-5.06,3.17-9.33,8.83-8.5,3.55.52,6.5,4.1,6.5,9.17s-3.16,8.13-6.75,8.13S305.33,157.4,305.33,152.33Z"/><ellipse class="cls-15" cx="212" cy="165" rx="8" ry="9.33"/><path class="cls-1" d="M314.67,156"/><path class="cls-1" d="M310.83,157.17"/><ellipse class="cls-31" cx="315.67" cy="150" rx="1.67" ry="1" transform="translate(146.44 455.79) rotate(-86.46)"/><ellipse class="cls-31" cx="311" cy="149.9" rx="1.67" ry="1" transform="translate(112.98 432.7) rotate(-80.73)"/><path class="cls-11" d="M316.83,160.83c-.23,1.52,1,5.58,1.34,7.37s.6,3.65,1,5.46c.32,1.64,1,3.07.58,4.7a17.5,17.5,0,0,1-2.42,4.63c-.8,1.32-1.93,3.91-3,4.5"/><path class="cls-20" d="M314.33,187.33a6.23,6.23,0,0,0-3.75-.32c-1.44.48-1.53,1.86.23,1.52-.67.74-3,2.6-1.82,3.65.61-.37-.25,1.07,1.81-1.16-1.72,2.64-.64,2.89,1.38.71-1.27,2.06.41,2.2,1.61.39C314.61,190.89,315.63,188.12,314.33,187.33Z"/><ellipse class="cls-20" cx="270.02" cy="165.43" rx="6.14" ry="6.01"/><ellipse cx="268.12" cy="164.36" rx="0.85" ry="1.37" transform="translate(-13.78 24.95) rotate(-5.19)"/><ellipse cx="272.15" cy="163.84" rx="0.85" ry="1.37" transform="translate(-22.3 44.63) rotate(-9.01)"/><path d="M269.17,167.81a1.57,1.57,0,0,0,1.43.47,2.12,2.12,0,0,0,1.38-.72,1.17,1.17,0,0,1-.44.82,1.66,1.66,0,0,1-.89.39,1.53,1.53,0,0,1-1-.19A1,1,0,0,1,269.17,167.81Z"/><ellipse cx="210" cy="163.96" rx="0.83" ry="1.88"/><ellipse cx="215.34" cy="163.92" rx="0.83" ry="1.88" transform="translate(-16.21 23.84) rotate(-6.11)"/><path class="cls-1" d="M221.25,140.25v-.08"/><path d="M210.76,170.22a1,1,0,0,1,.5-.84,1.59,1.59,0,0,1,1-.23,1.68,1.68,0,0,1,1.48,1.1,7,7,0,0,0-1.55-.35A2,2,0,0,0,210.76,170.22Z"/><path class="cls-1" d="M381.92,146.58H382"/><path class="cls-32" d="M397.25,146.17c0,4-4.56,7.5-8.33,7.5s-7.33-2.71-7.33-6.67,5.06-8,8.83-8A7,7,0,0,1,397.25,146.17Z"/><path class="cls-31" d="M397.56,146.17a7.4,7.4,0,0,1-2.68,5.36,9.6,9.6,0,0,1-5.49,2.49,8.16,8.16,0,0,1-5.72-1.88,6.6,6.6,0,0,1-2.38-5.48,8.14,8.14,0,0,1,2.95-5.2,10.54,10.54,0,0,1,5.35-2.64,6.86,6.86,0,0,1,5.61,1.88A7.61,7.61,0,0,1,397.56,146.17Zm-.62,0a7,7,0,0,0-2.1-5.09,6.27,6.27,0,0,0-5.18-1.76,10,10,0,0,0-5,2.56,7.57,7.57,0,0,0-2.7,4.82,5.93,5.93,0,0,0,2.19,4.91,7.55,7.55,0,0,0,5.22,1.67,8.93,8.93,0,0,0,5.07-2.27A6.75,6.75,0,0,0,396.94,146.17Z"/><ellipse class="cls-31" cx="385.86" cy="146.21" rx="0.79" ry="1.63"/><ellipse class="cls-31" cx="392.98" cy="146.56" rx="0.79" ry="1.63"/><path class="cls-31" d="M390.25,146a6.49,6.49,0,0,1,1.69-1.33,4.19,4.19,0,0,0,.41-.22c.15-.07.29-.17.45-.24a1.9,1.9,0,0,1,1.11-.29c-.23.29-.38.63-.62.9a3.45,3.45,0,0,1-.39.41,3.36,3.36,0,0,1-.5.33,4.72,4.72,0,0,1-1,.4A2.4,2.4,0,0,1,390.25,146Z"/><path class="cls-31" d="M384.5,142.83a3.21,3.21,0,0,1,1.2,1.16,5.34,5.34,0,0,1,.63,1.5,1.48,1.48,0,0,1-.88-.32,2.45,2.45,0,0,1-.59-.65A2.42,2.42,0,0,1,384.5,142.83Z"/><path class="cls-31" d="M386.58,151.25a2,2,0,0,1,.44-1.32,1.85,1.85,0,0,1,1.38-.7,1.79,1.79,0,0,1,1.43.65,1.63,1.63,0,0,1,.34,1.37,2.2,2.2,0,0,0-1.74-1,1.74,1.74,0,0,0-.88.28A9.48,9.48,0,0,0,386.58,151.25Z"/><path class="cls-14" d="M209.33,189.33c1.52-.24,5.35-3.09,6.4-4.6,1.86-2.67.16-4.2-.52-5.59-.84-1.73-3.15-3.6-4.21-4.48"/><path class="cls-33" d="M312,156.13a1.24,1.24,0,0,1,2.38.25"/><path class="cls-34" d="M311.42,147.25c-.61-1.76-2-.06-2.25,1"/><path class="cls-34" d="M314.92,147.38c.28-1.39,2-.81,2,.13"/><path class="cls-15" d="M210,189.25a2.55,2.55,0,0,1-2.67,2.42,3.42,3.42,0,0,1-2.06-.53c-.16-.13.37-.58.27-.76s-.87-.21-.87-.54c0-.61,1.59-.74,2-1.17s-2.25-1-1.5-1.67C206.3,186.06,210,187.92,210,189.25Z"/><path class="cls-6" d="M216.18,177.27c.57,1.92-1.38,4.19-4.36,5.08a7.72,7.72,0,0,1-3.63.23c-1-.19-4.52,1.5-5,.92-.24-.27,2.34-2.68,2.23-3-.57-1.92,1.38-4.19,4.36-5.08S215.61,175.35,216.18,177.27Z"/><path class="cls-6" d="M310.2,181.17c.18,2-2.19,3.83-5.28,4.11a7.72,7.72,0,0,1-3.6-.49c-.91-.38-4.73.57-5.11-.1-.18-.31,2.82-2.16,2.79-2.52-.18-2,2.19-3.83,5.28-4.11S310,179.18,310.2,181.17Z"/><path class="cls-6" d="M414,165.42l-6.66,1.07a3.74,3.74,0,0,1-2.79-.67c-.38-.27-3.9.08-4.16-.32-.11-.18-.7-.91-.12-1.25.79-.47,2.83-.57,2.78-.87h0a3.76,3.76,0,0,1,3.11-4.3l6.66-1.07a3.76,3.76,0,0,1,4.3,3.11h0A3.76,3.76,0,0,1,414,165.42Z"/><rect class="cls-35" x="425.17" y="67.5" width="71.5" height="130"/><polygon class="cls-36" points="470.69 186.4 450.53 187.74 454.55 138.86 464.41 138.41 470.69 186.4"/><ellipse class="cls-15" cx="459.59" cy="132.47" rx="8.18" ry="8.63"/><rect class="cls-37" x="448.17" y="149.5" width="50.5" height="7" transform="translate(-20.68 211.28) rotate(-24.64)"/><rect class="cls-37" x="486.17" y="95.5" width="12.5" height="58"/><polygon class="cls-38" points="466.14 80.07 393.77 79.76 421.17 50.5 500.06 52.24 466.14 80.07"/><polygon class="cls-7" points="441.67 245 410.33 233 409.17 71.5 425.08 53.08 441.17 62.5 441.67 245"/><path class="cls-39" d="M502.67,65l-61.5-2.5.5,182.5,61.5-38.17Zm-49.5,99,.5-55,39-8.5.5,44Z"/><polygon class="cls-7" points="624.17 313 556.6 288.07 558.17 203 624.17 226.5 624.17 313"/><polygon class="cls-40" points="530.67 70 455.99 72.74 421.17 50.5 492.27 47.05 530.67 70"/><polygon class="cls-39" points="653.67 201 604.17 186 558.17 203 624.17 226.5 653.67 201"/><path class="cls-40" d="M455.05,98.51l-.08.4-.83.14-.34.06a3.75,3.75,0,0,0-.6.16,1.14,1.14,0,0,0-.42.26,1.07,1.07,0,0,0-.26.45,2.71,2.71,0,0,0-.09.74l1.12-.21,0,.38-1.08.2,0,3.5-.42.08,0-3.94a3,3,0,0,1,.1-.82,1.47,1.47,0,0,1,.31-.57A1.53,1.53,0,0,1,453,99a3.73,3.73,0,0,1,.8-.23Zm-.48,1.81.42-.08,0,3.87-.42.08Z"/><path class="cls-40" d="M456.16,103.89l0-2.5a1.87,1.87,0,0,1,.34-1.21,1.79,1.79,0,0,1,1.09-.55,1.63,1.63,0,0,1,1.1.08,1,1,0,0,1,.48.75,2.33,2.33,0,0,1,0,.44l0,2.41-.42.08,0-2.43a2,2,0,0,0,0-.39.66.66,0,0,0-.37-.54,1.36,1.36,0,0,0-.75,0,2,2,0,0,0-.48.15.9.9,0,0,0-.52.63,2.19,2.19,0,0,0-.06.56l0,2.47Z"/><path class="cls-40" d="M460.86,99.15l1.43-.27-.08.39-1.36.25v2.15a2.18,2.18,0,0,0,0,.39.5.5,0,0,0,.26.4,1,1,0,0,0,.57,0l.63-.12-.08.4-.51.1a1.46,1.46,0,0,1-.87,0,.79.79,0,0,1-.4-.62c0-.07,0-.15,0-.23a2.22,2.22,0,0,1,0-.28l0-3.44.42-.15Z"/><path class="cls-40" d="M463.44,100.77a2,2,0,0,0,0,.22q0,.1,0,.2a1,1,0,0,0,.36.65,1.18,1.18,0,0,0,.88.08l.56-.11.51-.12-.08.4-.45.11-.49.1a2.35,2.35,0,0,1-.72,0,1.18,1.18,0,0,1-.51-.17,1,1,0,0,1-.33-.35,1.7,1.7,0,0,1-.17-.51,3.48,3.48,0,0,1-.05-.77,4.27,4.27,0,0,1,.13-.94,1.85,1.85,0,0,1,.3-.64,1.4,1.4,0,0,1,.48-.4,2.39,2.39,0,0,1,.65-.21,1.52,1.52,0,0,1,1,.07A.82.82,0,0,1,466,99a1.4,1.4,0,0,1,0,.34,1.25,1.25,0,0,1-.08.44,1,1,0,0,1-.24.34,1.34,1.34,0,0,1-.41.25,3.18,3.18,0,0,1-.62.17Zm1.17-2.08a1.72,1.72,0,0,0-.52.18,1.08,1.08,0,0,0-.36.32,1.42,1.42,0,0,0-.22.5,3.56,3.56,0,0,0-.08.72l1.16-.22a3,3,0,0,0,.48-.12.9.9,0,0,0,.29-.16.58.58,0,0,0,.16-.23,1.23,1.23,0,0,0,.07-.3,1,1,0,0,0,0-.28.5.5,0,0,0-.27-.37A1.13,1.13,0,0,0,464.61,98.69Z"/><path class="cls-40" d="M468.66,101.19l.38-.07.43-.09-.08.4-.34.08-.35.06a1.69,1.69,0,0,1-1.23-.11,1.26,1.26,0,0,1-.52-.87,3.74,3.74,0,0,1-.05-.77,3.39,3.39,0,0,1,.12-.95,1.56,1.56,0,0,1,.34-.62,1.53,1.53,0,0,1,.55-.37,3.88,3.88,0,0,1,.75-.21l.33-.06.39-.06-.08.4L469,98l-.34.06a2.92,2.92,0,0,0-.61.17,1.1,1.1,0,0,0-.41.29,1.19,1.19,0,0,0-.24.48,3.25,3.25,0,0,0-.08.74,3.77,3.77,0,0,0,0,.73,1.18,1.18,0,0,0,.16.44.66.66,0,0,0,.27.24.89.89,0,0,0,.38.08A2.58,2.58,0,0,0,468.66,101.19Z"/><path class="cls-40" d="M470.49,95.62l.42-.08,0,2a1.14,1.14,0,0,1,.4-.4,2,2,0,0,1,.67-.24,1.51,1.51,0,0,1,1,.09,1,1,0,0,1,.47.74,2.32,2.32,0,0,1,0,.47l0,2.41-.41.08V98.3a2,2,0,0,0,0-.21,1.87,1.87,0,0,0,0-.19.65.65,0,0,0-.36-.54,1.31,1.31,0,0,0-.73,0,2,2,0,0,0-.49.15,1,1,0,0,0-.34.26,1,1,0,0,0-.19.4,2.48,2.48,0,0,0-.07.57l0,2.43-.42.08Z"/><path class="cls-41" d="M477.19,95.65l0,4.32-1.2.22,0-4.32-1.7.32.19-1.08,4.42-.83-.2,1.08Z"/><path class="cls-41" d="M480.31,95.32a2,2,0,0,1,1.27.1,1.32,1.32,0,0,1,.62,1,2.84,2.84,0,0,1,0,.34q0,.18,0,.39a3.84,3.84,0,0,1-.09.92,1.8,1.8,0,0,1-.31.67,1.6,1.6,0,0,1-.55.45,2.92,2.92,0,0,1-.8.26,2,2,0,0,1-1.27-.1,1.33,1.33,0,0,1-.61-1,3.39,3.39,0,0,1,0-.34q0-.18,0-.38a3.78,3.78,0,0,1,.1-.92A1.84,1.84,0,0,1,479,96a1.6,1.6,0,0,1,.55-.45A2.92,2.92,0,0,1,480.31,95.32Zm.12,3.21a1,1,0,0,0,.32-.11.53.53,0,0,0,.2-.2,1,1,0,0,0,.11-.33,3.41,3.41,0,0,0,0-.5,3.56,3.56,0,0,0,0-.69.56.56,0,0,0-.23-.42.72.72,0,0,0-.46,0,1,1,0,0,0-.32.11.53.53,0,0,0-.2.2,1,1,0,0,0-.1.33,3.91,3.91,0,0,0,0,.5,3.77,3.77,0,0,0,0,.69.56.56,0,0,0,.22.42A.68.68,0,0,0,480.43,98.54Z"/><path class="cls-41" d="M485,96.44l1.71,1.75-1.32.25L484,97v1.73l-1.11.21,0-5.6,1.11-.21,0,3.08,1.18-1.64,1.37-.26Z"/><path class="cls-41" d="M487.77,96.48l0,.12A.5.5,0,0,0,488,97a.89.89,0,0,0,.56,0l.7-.14.62-.15-.17.9-.54.13-.67.13a2.43,2.43,0,0,1-.77,0,1.21,1.21,0,0,1-.53-.19,1.06,1.06,0,0,1-.34-.39,1.88,1.88,0,0,1-.18-.53,3.28,3.28,0,0,1-.05-.64,3.25,3.25,0,0,1,.14-1,1.92,1.92,0,0,1,.38-.68,1.6,1.6,0,0,1,.56-.41,3.18,3.18,0,0,1,.68-.21,1.83,1.83,0,0,1,1.15.07,1,1,0,0,1,.51.73c0,.06,0,.13,0,.2a2,2,0,0,1,0,.21,1.12,1.12,0,0,1-.4.88,2.65,2.65,0,0,1-1.17.45Zm.71-1.83a.78.78,0,0,0-.53.29,1.42,1.42,0,0,0-.18.72l.63-.12.3-.07a.62.62,0,0,0,.19-.09.33.33,0,0,0,.1-.13.56.56,0,0,0,0-.17.61.61,0,0,0,0-.19.3.3,0,0,0-.15-.22A.65.65,0,0,0,488.48,94.65Z"/><path class="cls-41" d="M491.82,97.23l-1.16.22,0-2.46a2.75,2.75,0,0,1,.09-.77,1.43,1.43,0,0,1,.3-.55,1.49,1.49,0,0,1,.52-.37,3.47,3.47,0,0,1,.77-.23,2,2,0,0,1,1.24.08,1.08,1.08,0,0,1,.57.84,1.64,1.64,0,0,1,0,.21q0,.11,0,.24v2.34L493,97l0-2.4q0-.08,0-.14a1,1,0,0,0,0-.11.39.39,0,0,0-.19-.3.61.61,0,0,0-.39,0,1.27,1.27,0,0,0-.31.09.5.5,0,0,0-.19.15.59.59,0,0,0-.1.23,1.57,1.57,0,0,0,0,.34Z"/><path class="cls-41" d="M470.81,85.91l-.08.07a.36.36,0,1,0,.47.54l.08-.07a.36.36,0,1,0-.47-.54Z"/><path class="cls-41" d="M471.67,85.08l-.08.07a.36.36,0,1,0,.47.54l.08-.07a.36.36,0,1,0-.47-.54Z"/><path class="cls-40" d="M478.33,78.71l-2.49-.87a1.51,1.51,0,0,0-1.46.26l-2,1.55a1,1,0,0,0-.34.89,1,1,0,0,0,0,.12l.43,2.3h0c.21,1.14-.07,1.32-.07,1.32h0a.36.36,0,0,0,0,.48.37.37,0,0,0,.35.12l.12,0h0c.08-.07.46-.23,1.23.08l.42.16,1.29.47a1.46,1.46,0,0,0,1.41-.25l2-1.67a1.31,1.31,0,0,0,.45-1.24l-.51-2.74A1.23,1.23,0,0,0,478.33,78.71Zm-2.45,2.72c.08.43.15.86.21,1.29,0,.23.06.47.08.7s0,.47,0,.71c-.08-.22-.14-.45-.22-.68s-.13-.46-.18-.69c-.11-.42-.19-.85-.27-1.28a18.36,18.36,0,0,1-2.39-1,18.4,18.4,0,0,1,2.52.64L478,79.62Z"/><path class="cls-40" d="M470.43,86.73a.38.38,0,0,0-.53,0h0c-.08.07-.32.25-1.15-.09l-.42-.16L467,86a1.46,1.46,0,0,0-1.41.25l-2,1.67a1.31,1.31,0,0,0-.45,1.24l.51,2.74a1.23,1.23,0,0,0,.8.93l2.49.87a1.51,1.51,0,0,0,1.46-.26l2-1.55a1,1,0,0,0,.34-.89,1,1,0,0,0,0-.12l-.43-2.3h0c-.21-1.12.05-1.3.05-1.3h0A.38.38,0,0,0,470.43,86.73ZM467,89.61c.08.43.15.86.21,1.29,0,.23.06.47.08.7s0,.47,0,.71c-.08-.22-.14-.45-.22-.68s-.13-.46-.18-.69c-.11-.42-.19-.85-.27-1.28a18.35,18.35,0,0,1-2.39-1,18.42,18.42,0,0,1,2.52.64l2.37-1.55Z"/><polygon class="cls-1" points="567.41 182.12 559.17 191.05 560.23 196.3 568.46 187.37 567.41 182.12"/><polygon class="cls-42" points="428.67 222.33 428 203 0 355 8 379.67 428.67 222.33"/><polygon class="cls-1" points="572.8 209.03 564.57 217.95 565.35 221.83 567.24 221.45 573.86 214.28 572.8 209.03"/><polygon class="cls-1" points="570.06 195.36 561.83 204.28 562.88 209.53 571.12 200.61 570.06 195.36"/><polygon points="599.67 276.33 575.83 268.11 575.83 245.33 599.67 253.56 599.67 276.33"/><polygon class="cls-43" points="587.01 268.11 583.78 266.82 591.86 254.4 596.36 255.48 587.01 268.11"/><rect class="cls-43" x="581.97" y="257.75" width="2.95" height="8.65" transform="translate(-56.16 261.89) rotate(-24.17)"/><path class="cls-14" d="M464.64,139.08c1.71.87,5,6.07,6.45,8.08a5.94,5.94,0,0,1,1.08,3.26A31.77,31.77,0,0,1,467.1,153c-1.58.59-4.45,1.71-5.16,2.85"/><path class="cls-14" d="M459.17,136.67a2.71,2.71,0,0,0,4-.45"/><ellipse class="cls-31" cx="463.73" cy="131.05" rx="1.04" ry="1.64" transform="translate(-8.54 35.22) rotate(-4.31)"/><ellipse class="cls-31" cx="458.45" cy="131.27" rx="1.66" ry="1.05" transform="translate(280.59 573.73) rotate(-84.08)"/><path class="cls-15" d="M462.37,157.42c-.45.71-2.37,2.47-3.17,1.87-.5-.38.85-1.27.67-1.3s-1.35,1.18-1.93.8,1-1,1.09-1.81c0-.34-1.43,1.3-1.6.92-.53-1.19,1.43-3.32,4.33-3.15C462.95,154.82,463.07,156.32,462.37,157.42Z"/><polygon class="cls-44" points="258 309.17 303 282.17 308.67 260.5 338.67 251.5 346.33 264.17 367.67 267.5 378 268.17 389 274.17 384 286.83 314.33 324.17 258 309.17"/><path class="cls-45" d="M321.27,332.5l-20-2c20.9-7.5,37.15-15.25,34.75-34.75l11-1.25C347.93,317,336.4,326.63,321.27,332.5Z"/><polyline class="cls-32" points="338.54 277.5 335.42 278.88 332.92 281.69 331.1 286.31 331.1 290 332.1 292.75 334.48 295.56 338.04 297.38 340.85 297.94 343.54 297.31 347.29 295.75 349.79 293.5 351.04 290.56 351.42 287.54 351.23 284.19 348.73 280.56 347.48 279.06 345.85 280.19 343.85 280.5 341.67 280.19 338.54 277.5 338.54 277.5"/><path class="cls-46" d="M303.17,322.25l-29.5.5c10.27-13.86,16.9-27.26,18.5-40h13.5C307.57,294,306.31,307.48,303.17,322.25Z"/><polygon class="cls-1" points="338.54 277.5 332.35 281.69 330.79 280.31 332.67 277.25 335.85 275.88 339.85 275.81 343.23 276.25 345.73 277.44 347.48 279.06 345.48 280.44 342.67 280.38 340.6 279.25 338.54 277.5"/><path class="cls-32" d="M338.23,275.94a5.68,5.68,0,0,1,6.15-2.25A10.54,10.54,0,0,1,351,279.3a6.45,6.45,0,0,1,0,4.58c0-.09,0-.19,0-.28"/><path d="M338,275.8a6,6,0,0,1,4.53-2.62,6.32,6.32,0,0,1,2.66.42,11.26,11.26,0,0,1,2.39,1.17,10.87,10.87,0,0,1,3.61,3.89,5.3,5.3,0,0,1,.53,1.29,7.22,7.22,0,0,1-.2,4.11h0l-1,2.51v-3l1,.06v.25l-1-.2h0a5.8,5.8,0,0,0,.39-2.32,4.7,4.7,0,0,0-.57-2.28,10.06,10.06,0,0,0-3.25-3.68,10.55,10.55,0,0,0-2.21-1.15,5.66,5.66,0,0,0-2.39-.45,5.5,5.5,0,0,0-4.16,2.27Z"/><path class="cls-11" d="M347.48,279.06c2.63,2.81,3.94,4.31,3.94,8.48a10.25,10.25,0,1,1-20.5,0c0-2.44,1.67-5.64,3.06-7.42"/><path class="cls-11" d="M340,277.24"/><polyline class="cls-40" points="338.17 276.75 335.42 276.19 333.04 277.06 331.79 278.31 330.92 279.81 331.29 281.38 332.79 281.25 335.73 278.81 338.54 277.5 338.17 276.75"/><polygon class="cls-40" points="347.17 279.13 344.92 280.5 342.04 280.13 336.67 276 341.67 275.88 345.04 276.88 347.17 279.13"/><path class="cls-11" d="M339.1,277.38c-2.19.27-3.23,1.13-4.94,2.59-.64.55-1.35,1.67-2.39,1.34s-1-1.73-.4-2.6a6.74,6.74,0,0,1,3.06-2.36c2.62-1,4,.61,5.57,2.05a8,8,0,0,0,2.32,1.6,4.46,4.46,0,0,0,4.82-.87"/><ellipse class="cls-19" cx="303.79" cy="315.13" rx="10.38" ry="11.13"/><line class="cls-11" x1="336.67" y1="296.5" x2="306.67" y2="302.13"/><path class="cls-42" d="M413.92,292.88l-9.34,10.66-3.41.47-3.87-5,3.13-6.5,1.38,5.25,1.88.25,6.83-8.52C412.4,289.53,413.55,290.65,413.92,292.88Z"/><path class="cls-47" d="M344.67,354.46c-1.23,10.7-1.74,23.16-8.41,22.39-1.09-.13-8-4.89-9-5.44-4.9-2.81-7.82-10.79-6.79-19.74,1.23-10.7,7.65-18.75,14.32-18S345.9,343.76,344.67,354.46Z"/><path class="cls-47" d="M385.31,317.13c-.72,10.38-.46,22.17-5.6,21.81-.74-.05-6.45-3.94-7.12-4.32-4-2.24-6.52-9.9-5.9-18.78.72-10.38,5.47-18.5,10.61-18.14S386,306.75,385.31,317.13Z"/><path class="cls-48" d="M397,269.17c-5.11-4.61-16.66-5.58-21.67-9.33-12.28-9.2-19.78-18.67-45-18.67-14.78,0-35.17,9.37-48.67,20.67-13.29,11.13-15.31,30.68-23.67,44,0,0-26.1,19.42-26.67,32-1,22.33,22.89,38,73.33,38,8.53,0,14.82-5.46,22.33-9.67a174.41,174.41,0,0,0,22.72-15.6c8.59-6.82,16.52-14,23.28-20.07,9.18-8.26,14.93-13.55,19.33-18.67,2.42-2.81,4.56-4.75,6.33-9C403.84,290.42,404.43,275.87,397,269.17ZM264,306.5l18-39.67,43,3.67-10,41.67Zm58.33,6.67,9-43,27-14.33,26,19.67Z"/><path class="cls-8" d="M293.67,367.83c.13,3.54-13.67,3.67-25,1-12.72-3-20.4-6.26-20.12-10.58.29-4.54,5.67,3.63,19.25,6.38C278.17,366.73,293.58,365.5,293.67,367.83Z"/><ellipse class="cls-49" cx="339.83" cy="357.67" rx="19.5" ry="12.17" transform="translate(-54.41 654.28) rotate(-83.42)"/><ellipse class="cls-49" cx="382" cy="320.33" rx="18.83" ry="9.33" transform="translate(36.05 679.3) rotate(-86.04)"/><path class="cls-50" d="M253,338.71c3.25,6.61,2.27,13.74-2.18,15.93s-10.71-1.39-14-8-4.36-17,.1-19.15S249.79,332.11,253,338.71Z"/><path class="cls-50" d="M293.7,344.17c-5.94,4.35-8.38,11.12-5.45,15.13s10.13,3.73,16.07-.62,11.72-13,8.79-17S299.64,339.83,293.7,344.17Z"/><ellipse class="cls-50" cx="320.33" cy="343" rx="2.67" ry="2.5"/><ellipse cx="338.17" cy="283.25" rx="0.67" ry="2.25"/><path d="M347.33,279.62a7.94,7.94,0,0,0-2.29-2.09,9.19,9.19,0,0,0-3-1.09,34.86,34.86,0,0,0-6.54-.31v-.5a35.29,35.29,0,0,1,6.67.07,10,10,0,0,1,3.26,1.07,8.88,8.88,0,0,1,2.65,2.24Z"/><ellipse cx="344.85" cy="283.94" rx="0.67" ry="2.25"/><path d="M339.34,291.38a9.18,9.18,0,0,0,2.73-.1,5.16,5.16,0,0,0,2.34-1.21l.39.36a4.27,4.27,0,0,1-1.14,1,4.72,4.72,0,0,1-1.44.56,6.42,6.42,0,0,1-3-.14Z"/><path class="cls-11" d="M347.17,295.25c2.35,0,4.91-.34,7,.55,3.12,1.34,2.29,3.14-.11,4.79-4.74,3.26-12.47,4.33-15.89,9.15"/><path class="cls-15" d="M311.92,305.44s-2.16-1.74-3-.37c-.49.79,1.09,3.15,1,3.19a3.53,3.53,0,0,1-2.12.38c-.71-.14-1.51-.81-1.81-.81-.48,0-1.1.45-1.63.38s-1-.7-1.54-.9-1.07,0-1.34-.35.25-2,.25-2.62c0-1.93,5-3.56,7.31-3.56S311.92,305.44,311.92,305.44Z"/><path class="cls-20" d="M341,317.28c-.29.74-1.38,1.21-1.67.59s.1-2.6-.65-2.41-2.13,2.65-2.87,2.36c-.47-.19.89-2.94.54-3.28-.16-.16-2.07,2.15-2.2,2-.86-1.22-.17-2.79.49-4.44,1-2.44,2.56-3.91,4.68-3.07S342,314.85,341,317.28Z"/><polygon class="cls-51" points="653 286.33 623.67 313.67 623.67 225.67 653 200.33 653 286.33"/><ellipse class="cls-52" cx="340.7" cy="357.39" rx="10.32" ry="6.44" transform="translate(-53.38 654.9) rotate(-83.42)"/><ellipse class="cls-52" cx="382" cy="320.33" rx="9.65" ry="4.85" transform="translate(20.01 663.11) rotate(-83.42)"/><rect class="cls-1" x="103.17" width="561.5" height="581"/><path class="cls-53" d="M103,145.82V250.11a43.44,43.44,0,0,0,22.42,2.14l1.25-33,13.75-.75C139,189.85,120.69,149,103,145.82Z"/><rect class="cls-1" x="110.77" y="4.25" width="540" height="540"/><rect class="cls-1" x="108.24" y="5.69" width="540" height="540"/><path class="cls-54" d="M420.33,273.83c-3.78-6.32-7.48-3.34-8.32,2.35-.49,3.32.12,10.29,3.22,12.75,4.84,3.84,9.73-7.21,13.43-9.12,2.41-1.24,6.47-.75,7.67-4s-2.42-2.86-1.6-5.58c.52-1.71,5.6-4.9,6.92-6.08A58.85,58.85,0,0,1,453,256.51c2.69-1.46,7.49-3.23,9.6-5.4,2.28-2.34,2.18-5.86-1.84-4.92,2.48-1.89,4.12-4.85,1.49-6.79-1.91-1.41-4.5-.05-6-2.69-2.64-4.57,5.86-7.94,8.46-9.86,5.11-3.75,10.65-6.06,16.32-8.77,3.36-1.61,8.94-3.12,9.31-7.56a7.21,7.21,0,0,0-1.57-.36c9.18-1.29,21-5.2,29-10,2.42-1.44,7.48-4.88,6.56-8.47-.72-2.81-3.05-1.59-5.61-2.19-10.69-2.47,1.66-6.18,5.74-8.36,3.15-1.68,6.32-3.48,9.37-5.35,3.95-2.41,5.31-5.65,8.4-8.83a21.6,21.6,0,0,1-3.43.31c4.49-5.31,11.89-8,16.73-13.22,1.35-1.46,7.26-9.44.88-7.87,5.47-5,15.31-8.31,16.58-16.79-11.14-2.57-22.85,8.89-32.3,13.41.24-.3.49-.71.73-1-3.28-1.48-11,8.83-13,11.32-3.94,4.88-7.35,9.74-11.9,14-2.17,2.05-5.82,5.51-8.79,6.3-5.13,1.36-9.21.82-13.49,5-2.21,2.16-6,6.53-6.66,9.69s.18,3.15,3.24,4c1.67.47,7.68.58,7.16,3.67s-9.25,3.43-11.23,3.69c-4.19.55-10.09.25-13.48,3.31-1.58,1.42-3.42,4.6.68,4-3.48,2.14-7.92,3.09-11.76,4.44-4.63,1.63-7.1,3.67-10.59,6.92-1.64,1.53-7,6.64-1.32,7-1.94,1.11-4.52,2.12-5.63,4,1.91,1.39,5.28,1.47,5.18,4-.18,4.63-10.4,11.47-13.16,14.35-5.85,6.11-2.32,5.64,2.41,8.25-2.9,3.9-7.71,3.44-11,6.73a8.86,8.86,0,0,1,.69,1c-2.87,2.66-14.25,5.15-7.7,9.6C420.55,273.66,419.12,274.57,420.33,273.83Z"/><rect class="cls-40" x="548.53" y="75.26" width="9.83" height="143" transform="translate(-18.05 111.69) rotate(-11.34)"/><polygon class="cls-1" points="554.06 124.61 545.83 133.54 546.88 138.79 555.11 129.86 554.06 124.61"/><polygon class="cls-1" points="562.11 164.75 553.88 173.68 554.93 178.93 563.16 170 562.11 164.75"/><polygon class="cls-1" points="559.34 150.94 551.11 159.87 552.16 165.12 560.39 156.19 559.34 150.94"/><polygon class="cls-1" points="556.68 137.66 548.44 146.59 549.5 151.84 557.73 142.91 556.68 137.66"/><polygon class="cls-1" points="546.87 88.74 538.63 97.67 539.68 102.92 547.92 93.99 546.87 88.74"/><polygon class="cls-1" points="551.71 112.9 543.48 121.83 544.53 127.08 552.77 118.15 551.71 112.9"/><polygon class="cls-1" points="549.37 101.22 541.13 110.15 542.19 115.4 550.42 106.47 549.37 101.22"/><polygon class="cls-1" points="544.52 77.05 536.29 85.98 537.34 91.23 545.58 82.3 544.52 77.05"/><polygon points="552.77 118.15 544.53 127.08 545.83 133.54 554.06 124.61 552.77 118.15"/><polygon points="555.11 129.86 546.88 138.79 548.44 146.59 556.68 137.66 555.11 129.86"/><polygon points="557.73 142.91 549.5 151.84 551.11 159.87 559.34 150.94 557.73 142.91"/><polygon points="560.39 156.19 552.16 165.12 553.88 173.68 562.11 164.75 560.39 156.19"/><polygon points="563.16 170 554.93 178.93 556.56 187.05 564.79 178.12 563.16 170"/><polygon points="550.42 106.47 542.19 115.4 543.48 121.83 551.71 112.9 550.42 106.47"/><polygon points="544.25 75.69 534.61 77.63 536.29 85.98 544.52 77.05 544.25 75.69"/><polygon points="545.58 82.3 537.34 91.23 538.63 97.67 546.87 88.74 545.58 82.3"/><polygon points="547.92 93.99 539.68 102.92 541.13 110.15 549.37 101.22 547.92 93.99"/><polygon points="564.62 217.45 572.37 215.9 571.24 210.28 564.62 217.45"/><polygon points="568.5 196.61 560.26 205.53 561.95 213.95 570.19 205.03 568.5 196.61"/><polygon points="565.85 183.37 557.61 192.3 559.21 200.28 567.45 191.36 565.85 183.37"/><path class="cls-20" d="M284.08,245.33c-.45-.42-3.42,3.5-3.92,3.83-.19-.18,2.72-7.27,1.92-7.42s-4.23,6.34-4.33,6.42c0-.77,0-7.85-.67-7.92s-2.35,9.3-2.92,9.83c-.12-.23-1.36-.69-1.42-.75-.86-.92-1-2.92-2.5-2.42-.84.28.07,2.17.75,4.08s4,6,6.54,6,2.82-2.13,4-3.25C281.76,253.58,284.87,246.07,284.08,245.33Z"/><path class="cls-11" d="M290.67,291c-7.75-6-12.26-21.88-12.5-34.75"/><ellipse class="cls-20" cx="298.79" cy="277.38" rx="10.13" ry="10.88"/><ellipse cx="293.31" cy="273.08" rx="2.33" ry="0.89" transform="translate(-56.76 468.14) rotate(-72.08)"/><path class="cls-11" d="M289.17,280c1.15,1.41,3,.82,5.25-1"/><path d="M601.59,227l-25-9.54c-1.1-.42-2,.29-2.08,1.6l-.62,16.9a3.37,3.37,0,0,0,1.91,3.12l25,9.54c1.1.42,2-.29,2.08-1.6l.62-16.9A3.37,3.37,0,0,0,601.59,227Z"/><path class="cls-40" d="M598.51,233l-2.22-.85-.06,1.53.95.36-.1,2-2.87-1.1.07-1.89-1.3-.5-.07,1.89-6.78-2.59a7.9,7.9,0,0,0-4.48-6.47c-2.59-1-4.8.7-4.91,3.77s1.91,6.37,4.5,7.36c2.4.92,4.47-.47,4.85-3.12l13.45,5.14.06-1.53-1.23-.47Zm-17.2,2a5.76,5.76,0,0,1-3.26-5.34c.08-2.22,1.68-3.45,3.56-2.73a5.76,5.76,0,0,1,3.26,5.34C584.78,234.55,583.18,235.78,581.3,235.06Z"/></g></g></g></svg>