<svg xmlns="http://www.w3.org/2000/svg" xmlns:xlink="http://www.w3.org/1999/xlink" viewBox="0 0 610.28 412"><defs><style>.cls-1,.cls-11,.cls-13,.cls-14,.cls-17,.cls-19,.cls-4,.cls-8{fill:none;}.cls-2{clip-path:url(#clip-path);}.cls-3{fill:#4c4b4c;}.cls-4{stroke:#ffde77;stroke-width:6px;}.cls-10,.cls-11,.cls-12,.cls-13,.cls-14,.cls-15,.cls-16,.cls-17,.cls-19,.cls-20,.cls-33,.cls-4,.cls-8,.cls-9{stroke-miterlimit:10;}.cls-5{fill:#40403f;}.cls-6{fill:#717187;}.cls-7{fill:#353535;}.cls-8{stroke:#555567;}.cls-19,.cls-8{stroke-width:3px;}.cls-9{fill:#ed2024;}.cls-12,.cls-14,.cls-15,.cls-16,.cls-9{stroke:#231f20;}.cls-10{fill:#ed6a56;}.cls-10,.cls-11,.cls-19,.cls-20,.cls-33{stroke:#000;}.cls-12{fill:#5974b8;}.cls-13{stroke:#262626;}.cls-15,.cls-20,.cls-33,.cls-35{fill:#fff;}.cls-16{fill:#6c5ca8;}.cls-17{stroke:#34343a;}.cls-18{fill:#555567;}.cls-21{fill:#89837e;}.cls-22{fill:#fdf6ad;}.cls-23{fill:#704b4a;}.cls-24{fill:#bf7171;}.cls-25{fill:#a3a1a1;}.cls-26{fill:#7997af;}.cls-27{fill:#0d131b;}.cls-28{fill:#f2db6a;}.cls-29{fill:#3a3a3a;}.cls-30{fill:#4d4b49;}.cls-31{fill:#232323;}.cls-32{fill:#9b3d47;}.cls-33{stroke-width:0.5px;}.cls-34{fill:#231f20;}</style><clipPath id="clip-path" transform="translate(0 -11)"><rect class="cls-1" x="63.28" width="432" height="432"/></clipPath></defs><title>2-19TrafficAsset 6</title><g id="Layer_2" data-name="Layer 2"><g id="road"><g class="cls-2"><polygon class="cls-3" points="17.28 259 50.28 337 495.28 249 610.28 224 558.28 181 17.28 259"/><line class="cls-4" x1="0.52" y1="316.85" x2="578.05" y2="215.15"/><path class="cls-5" d="M314.34,199.1l5.84.94a3.09,3.09,0,0,0,2.47-.72c.34-.28,3.43,0,3.66-.4.1-.18.64-.92.13-1.25-.68-.45-2.47-.51-2.42-.81h0a3.55,3.55,0,0,0-2.65-4.22l-5.84-.94a3.55,3.55,0,0,0-3.84,3.18h0A3.55,3.55,0,0,0,314.34,199.1Z" transform="translate(0 -11)"/><path class="cls-6" d="M118.28,208.25c.38-.12,30.13-.62,30.13-.62l3.5-21.62,5.13.5-3.37,20.88h21.88l.25-16.5,2.38-5.62,3,.38L178.78,201,202,202.13l7.5,25.88-50.25.13L117,214.75Z" transform="translate(0 -11)"/><polygon class="cls-6" points="218.41 201.13 239.66 198.38 243.28 186 246.53 179.5 287.28 180.5 299.16 206.88 264.78 214.63 216.66 205.13 218.41 201.13"/><polygon class="cls-6" points="320.03 185 329.03 160 331.66 160.5 322.91 184.63 346.16 178.25 350.53 158.25 355.66 158 354.66 168.13 394.66 170.38 395.41 195.38 365.28 201.5 316.28 191.75 320.03 185"/><polygon class="cls-6" points="434.03 147.38 453.53 145.13 460.16 125.38 487.41 127.38 481.66 156.63 433.16 150.38 434.03 147.38"/><path class="cls-7" d="M384.66,251.63s-7.49.14-9.37-1.29c-1.16-.88-2-3.91-2.33-5.33-.59-2.57-2-10.33-2-10.33l3.67-8,9.33-1.67Z" transform="translate(0 -11)"/><path class="cls-7" d="M414.66,246.63s-5.81.05-7.37-1a11.75,11.75,0,0,1-3.25-4.79,34.91,34.91,0,0,1-.87-6.37c0-.85.13-3.17.13-3.17l7-2Z" transform="translate(0 -11)"/><path class="cls-7" d="M306.2,265.22s.66.37-.71-.59c-1.18-.83-7.29-1.49-7.7-2.87-.76-2.57-3-12.25-3-12.25l4.75-7.67,5.67.33Z" transform="translate(0 -11)"/><path class="cls-7" d="M275.28,268.28s-5.8.44-7.25-.66c-1.91-1.45-3.42-9-3.42-9l2.33-8,5-9,4.67,10Z" transform="translate(0 -11)"/><polygon class="cls-7" points="489.89 221.14 475.78 219.67 472.05 214.06 469.62 202.5 473.39 192.76 491.2 195.83 489.89 221.14"/><path class="cls-7" d="M206.91,279s-7.44.86-9.25-.59c-1.28-1-1.87-4.61-2-6.25s-.75-6.12-.75-6.12l1-15.42,13,3.67Z" transform="translate(0 -11)"/><path class="cls-7" d="M184.28,283s-7.8-.39-9.67-2c-1.28-1.1-2.55-4.49-3-6.12s-1.37-6.87-1.37-6.87l.67-6.33,5-9.67,7.33,5.67Z" transform="translate(0 -11)"/><ellipse class="cls-8" cx="475.91" cy="151.25" rx="8.38" ry="8.25"/><polyline class="cls-9" points="368.28 176.25 372.28 180.75 376.53 193.5 351.53 191.25 356.28 178.75 368.28 176.25 368.28 176.25 368.28 176.25"/><path class="cls-10" d="M280.28,196.17s-3.11,9.55-4.67,12.5c-1.79,3.38-8.83,12.5-8.83,12.5l15.83,4,5.33-5.17,1-12.33-.33-9.67Z" transform="translate(0 -11)"/><path class="cls-11" d="M279.78,197.25c-.49,1.64-6.39,9.36-8,11.12-2.29,2.49-11,5.05-11.49,5.63" transform="translate(0 -11)"/><path class="cls-12" d="M182.78,210l-3,20s-19.25-.75-18.75-1.5S177.78,208,177.78,208Z" transform="translate(0 -11)"/><path class="cls-13" d="M166.37,216.67c1.5,5.33-4.36,6.67-8.71,6.67s-9.29-4.21-8.37-7.67a8.43,8.43,0,0,1,8.38-6.58C162,209.08,165.3,212.88,166.37,216.67Z" transform="translate(0 -11)"/><path class="cls-14" d="M177,208.25c-3.12-.65-7.29.08-10.62.25-3.17.16-7.16.5-9.87.5" transform="translate(0 -11)"/><path class="cls-15" d="M158.95,213.42c-.29.84-.6-1.18-1.17-1s-1.29,1.77-1.83,1.58c-1-.34-1.83-1.11-1.17-3s2.94-2.76,3.92-2.42S159.61,211.53,158.95,213.42Z" transform="translate(0 -11)"/><polygon class="cls-16" points="239.93 197.76 239.15 206.05 248.95 207.17 247.77 200.23 245.62 195.3 239.93 197.76"/><ellipse class="cls-17" cx="357.97" cy="188.63" rx="6.81" ry="6.25"/><ellipse class="cls-15" cx="364.66" cy="184.63" rx="3.13" ry="2.88"/><ellipse class="cls-15" cx="354.03" cy="184" rx="2.88" ry="2.38"/><polygon class="cls-18" points="319.03 185.25 346.03 183.5 359.28 184.38 367.53 186 366.41 191.25 325.53 189.63 317.41 189.63 319.03 185.25"/><ellipse class="cls-19" cx="255.12" cy="211.42" rx="7.5" ry="7.75"/><path class="cls-20" d="M261.12,214.5c-.39-2.27-3-1.94-4.37-1-2.49,1.57-1.23,3.33.68.94-1,1.64.4,2.57,1.37.83-1.26,2.86,2.34,1.38,2.29-1.2-.31-.15-.17.14-.3.14" transform="translate(0 -11)"/><path class="cls-21" d="M465.28,128c-30.33-2.17-35.45,29.42-40,32.5,0,0-27.83.51-27,37,.67,29.17,27.81,26.5,65.5,26.5s38-18.39,38-56.5S502.88,130.69,465.28,128Zm14.33,33-44.33-1.33s2-8.45,3.33-11c1.59-3.05,8.5-10.83,8.5-10.83L482.95,141Z" transform="translate(0 -11)"/><path class="cls-5" d="M465.62,212.33c0,2.3-15.7,4.33-30.33,4.33s-28.67-8.7-28.67-11S419,211,433.62,211,465.62,210,465.62,212.33Z" transform="translate(0 -11)"/><path class="cls-22" d="M404.78,185.59c.16,4.1,5,9,9.29,8.88s6.35-5.37,6.2-9.47-7.64-11.38-11.91-11.21S404.62,181.48,404.78,185.59Z" transform="translate(0 -11)"/><polygon class="cls-23" points="399.62 178.5 426.12 178.67 415.45 195.83 398.62 198.33 399.62 178.5"/><path class="cls-24" d="M402.78,194.6l-5.37-26.47S367,164.15,359,164c-8.77-.17-28.25,3.13-28.25,3.13s-10.5,7-14.5,32c-.56,3.51-17.24,7.39-17.25,10.5,0,15.29,3,27.91,17.75,33.75,8.54,3.39,24.42,3.25,37,3.25,22.36,0,72-20.93,72-20.93l.33-36Zm-64.12,4c-5-.31-19.5.63-19.5.63l5.79-14.92,5.33-11.67s11.73-1.66,15.67-2a86.23,86.23,0,0,1,14,0l12.83,1.71L365.41,201S345.19,199,338.66,198.63Zm55.25-3L372.53,201l1.75-7,5.33-21.33,14.67.33Z" transform="translate(0 -11)"/><polygon class="cls-25" points="314.28 222.5 352.12 227.83 364.78 225.5 366.78 226.17 367.95 235.67 349.62 237.83 314.62 233.67 314.28 222.5"/><rect class="cls-22" x="303.03" y="217.25" width="14" height="9" rx="2.87" ry="2.87" transform="translate(25.63 -43.04) rotate(6.17)"/><polygon points="335.73 224.46 333.65 224.16 334.9 211.19 336.98 211.5 335.73 224.46"/><rect x="330.35" y="221.42" width="1.75" height="13.03" transform="translate(23.31 -41.62) rotate(5.49)"/><rect x="326.59" y="221.02" width="1.75" height="13.03" transform="translate(23.25 -41.26) rotate(5.49)"/><rect x="322.6" y="220.67" width="1.75" height="13.03" transform="translate(23.2 -40.88) rotate(5.49)"/><rect x="318.92" y="220.06" width="1.75" height="13.03" transform="translate(23.12 -40.53) rotate(5.49)"/><path class="cls-26" d="M319.78,234.5c0-12.91-7.58-29.73-14.5-39.5-12.75-18-24.94-12.25-43.75-12.25-23,0-39,9.51-48.25,28.75-3.57,7.41-3,12.25-3,21,0,13.83-2,28.65,8.1,28.59,13.9-.09,26.15,4.41,47.4.91,24.19-4,38.75-5.25,50.5-11.75C320.5,247.92,319.78,242.37,319.78,234.5ZM263.95,221s-20.11-5.6-27-6.33c-4.64-.5-18.67.33-18.67.33s1.21-3.35,1.5-4.5c.85-3.4,9.68-15.08,14.75-17.25,3.15-1.35,11-1.68,13.63-1.5,5.38.38,17.46,1.58,17.46,1.58Zm6-.33.67-27.33,17-1,8,24Z" transform="translate(0 -11)"/><path class="cls-27" d="M249.28,250.25c0,3-12.11,2.75-23.5,2.75S207,248.72,207,245.75s7.61,2.5,19,2.5S249.28,247.28,249.28,250.25Z" transform="translate(0 -11)"/><path class="cls-5" d="M103.12,209.52c-.57,1.92,1.38,4.19,4.36,5.08a7.72,7.72,0,0,0,3.63.23c1-.19,4.52,1.5,5,.92.24-.27-2.34-2.68-2.23-3,.57-1.92-1.38-4.19-4.36-5.08S103.69,207.6,103.12,209.52Z" transform="translate(0 -11)"/><path class="cls-28" d="M217.28,256.33c-.67-42.67-14-86.67-55.33-84C132.87,174.21,121.78,188.25,113,212c-2.24,6.07-11.08,6.33-11.08,6.33l10,36,12,4.67,3.33,14.67s39.88,3.67,75-6.17c4.17-1.17,13.64-1.87,16.33-3.17C221.89,262.76,217.28,256.33,217.28,256.33Zm-99-42.58,11.63-23.37s5.53-1.66,7.71-2c3.45-.6,10.52-.34,14,0,3,.29,12,1.67,12,1.67l3,1.67L169.28,209l.25,9Zm76,6.5c-4.82-.1-18.5-.75-18.5-.75l-1.83-12.83-3-16A106.57,106.57,0,0,1,181.62,189a92.66,92.66,0,0,1,9.33,1s4.77,6.33,6,8.67c2.08,3.94,6.33,16.67,6.33,16.67l1.25,5.42S197,220.31,194.28,220.25Z" transform="translate(0 -11)"/><path class="cls-7" d="M155.78,268c0,3.18-14.25,4.5-32,2.75-9.27-.91-18.75-1.32-18.75-4.5s4.5-3,14.75-1.5C129.5,266.2,155.78,264.82,155.78,268Z" transform="translate(0 -11)"/><ellipse class="cls-29" cx="275.76" cy="243.99" rx="7.19" ry="13.33"/><ellipse class="cls-29" cx="305.72" cy="240.83" rx="6.19" ry="12.83"/><ellipse class="cls-29" cx="384.76" cy="227.33" rx="6.19" ry="13.33"/><ellipse class="cls-29" cx="414.43" cy="222.33" rx="6.19" ry="13.33"/><ellipse class="cls-30" cx="490.28" cy="215.55" rx="16.5" ry="10.67" transform="translate(248.37 682.38) rotate(-86.88)"/><ellipse class="cls-29" cx="185.16" cy="264.63" rx="18.37" ry="8.37" transform="translate(-90.43 422.03) rotate(-86.45)"/><path class="cls-29" d="M212.25,262.15c-.53,10.13-3.35,17.21-6.31,17.05s-4.92-6.69-4.38-16.82,3.33-19,6.3-18.86S212.78,252,212.25,262.15Z" transform="translate(0 -11)"/><path class="cls-22" d="M257.46,233c.7,2.67-5.06,5.08-12.43,7s-12,2.17-12.75-.5,3.19-5.91,10.56-7.85S256.76,230.32,257.46,233Z" transform="translate(0 -11)"/><ellipse class="cls-22" cx="153.41" cy="235.63" rx="10.13" ry="10.38"/><rect class="cls-22" x="341.03" y="221.75" width="16.5" height="8.75" rx="3.25" ry="3.25" transform="translate(12.81 -29.66) rotate(3.12)"/><path class="cls-22" d="M462.24,195.13c-2.21,3.83-9,6.27-12.71,4.13s-2.92-8-.71-11.87,12.5-7.27,16.21-5.12S464.45,191.3,462.24,195.13Z" transform="translate(0 -11)"/><ellipse class="cls-22" cx="101.41" cy="228.88" rx="10.13" ry="10.38"/><path class="cls-31" d="M98.28,257.25l-1.25,33c-32.08,5.91-72.49-30.33-53.75-75.75,16-38.8,2-35.25,31-30.75,17.79,2.76,36.33,43.92,37.75,72.75Z" transform="translate(0 -11)"/><path class="cls-18" d="M97.08,257.89,96,290.7a1.19,1.19,0,0,0,1.26,1.23l29.47-1.7a1.19,1.19,0,0,0,1.12-1.12l.93-17.11a1.19,1.19,0,0,0,0-.31l-2.82-13.17a1.19,1.19,0,0,0-.8-.88l-12-3.86a1.19,1.19,0,0,0-1.54,1h0a1.19,1.19,0,0,1-1.08,1l-12.33,1A1.19,1.19,0,0,0,97.08,257.89Z" transform="translate(0 -11)"/><rect class="cls-3" x="144.78" y="248.05" width="16.5" height="3.7" rx="1.82" ry="1.82"/><ellipse class="cls-3" cx="185.12" cy="254.17" rx="3.5" ry="11.17"/><ellipse class="cls-3" cx="207.45" cy="262.33" rx="11.33" ry="2.17" transform="translate(-66.1 443.75) rotate(-86.79)"/><ellipse class="cls-3" cx="275.95" cy="244.17" rx="3.67" ry="7.17"/><ellipse class="cls-3" cx="305.85" cy="241.17" rx="3" ry="6.83"/><ellipse class="cls-3" cx="385.28" cy="228" rx="2.33" ry="8"/><ellipse class="cls-3" cx="414.62" cy="222.33" rx="2.67" ry="8.33"/><ellipse class="cls-22" cx="471.78" cy="175.67" rx="2.5" ry="2"/><ellipse class="cls-22" cx="401.45" cy="169.5" rx="0.83" ry="2.17"/><path class="cls-32" d="M319.45,227.15c.29,4.73.08,4.77.08,4.77s-6.58.21-6.58-6.57c0-5,2.33-11.27,2.33-11.27C316.11,215.78,319.2,223.15,319.45,227.15Z" transform="translate(0 -11)"/><path class="cls-33" d="M276.95,190.33c0-5.06,3.17-9.33,8.83-8.5,3.55.52,6.5,4.1,6.5,9.17s-3.16,8.13-6.75,8.13S276.95,195.4,276.95,190.33Z" transform="translate(0 -11)"/><ellipse class="cls-15" cx="183.62" cy="192" rx="8" ry="9.33"/><path d="M282.45,195.17a6.35,6.35,0,0,1,1.74-1.16,3.29,3.29,0,0,1,1-.27,1.48,1.48,0,0,1,1.05.26,4.39,4.39,0,0,0-1.88.5c-.31.12-.61.27-.94.38A4.65,4.65,0,0,1,282.45,195.17Z" transform="translate(0 -11)"/><ellipse class="cls-34" cx="287.28" cy="188" rx="1.67" ry="1" transform="translate(81.88 452.11) rotate(-86.46)"/><ellipse class="cls-34" cx="282.61" cy="187.9" rx="1.67" ry="1" transform="translate(51.66 425.57) rotate(-80.73)"/><path class="cls-11" d="M288.45,198.83c-.23,1.52,1,5.58,1.34,7.37s.6,3.65,1,5.46c.32,1.64,1,3.07.58,4.7A17.5,17.5,0,0,1,288.9,221c-.8,1.32-1.93,3.91-3,4.5" transform="translate(0 -11)"/><path class="cls-20" d="M285.95,225.33a6.23,6.23,0,0,0-3.75-.32c-1.44.48-1.53,1.86.23,1.52-.67.74-3,2.6-1.82,3.65.61-.37-.25,1.07,1.81-1.16-1.72,2.64-.64,2.89,1.38.71-1.27,2.06.41,2.2,1.61.39C286.23,228.89,287.25,226.12,285.95,225.33Z" transform="translate(0 -11)"/><ellipse class="cls-20" cx="241.63" cy="192.43" rx="6.14" ry="6.01"/><ellipse cx="238.89" cy="202.64" rx="0.85" ry="1.37" transform="translate(-17.37 11.46) rotate(-5.19)"/><ellipse cx="243.2" cy="202.12" rx="0.85" ry="1.37" transform="translate(-28.65 29.57) rotate(-9.01)"/><path d="M240.39,206.17a.47.47,0,0,1,.08-.46,1.36,1.36,0,0,1,.37-.3,2.46,2.46,0,0,1,.86-.26,3,3,0,0,1,.88,0,1.46,1.46,0,0,1,.81.35,4.24,4.24,0,0,0-.83,0c-.27,0-.54.05-.8.09s-.53.07-.78.12S240.49,205.88,240.39,206.17Z" transform="translate(0 -11)"/><ellipse cx="180.45" cy="200.29" rx="1.87" ry="0.83" transform="translate(-53.14 323.89) rotate(-77.94)"/><ellipse cx="184.78" cy="201.79" rx="1.87" ry="0.83" transform="translate(-51.17 329.31) rotate(-77.94)"/><path class="cls-1" d="M192.87,178.25v-.08" transform="translate(0 -11)"/><path d="M184.78,198.17a5.27,5.27,0,0,0,1,1.72,7.36,7.36,0,0,1,1.16,1.78,4.49,4.49,0,0,1-1.75-1.32,2.89,2.89,0,0,1-.52-1A1.56,1.56,0,0,1,184.78,198.17Z" transform="translate(0 -11)"/><path d="M181,208.25a1,1,0,0,1,.32-.92,1.59,1.59,0,0,1,.92-.43,1.68,1.68,0,0,1,1.68.77,7,7,0,0,0-1.59,0A2,2,0,0,0,181,208.25Z" transform="translate(0 -11)"/><path class="cls-1" d="M353.53,184.58h.08" transform="translate(0 -11)"/><path class="cls-35" d="M368.87,184.17c0,4-4.56,7.5-8.33,7.5S353.2,189,353.2,185s5.06-8,8.83-8A7,7,0,0,1,368.87,184.17Z" transform="translate(0 -11)"/><path class="cls-34" d="M369.17,184.17a7.4,7.4,0,0,1-2.68,5.36A9.6,9.6,0,0,1,361,192a8.16,8.16,0,0,1-5.72-1.88,6.6,6.6,0,0,1-2.38-5.48,8.14,8.14,0,0,1,2.95-5.2,10.54,10.54,0,0,1,5.35-2.64,6.86,6.86,0,0,1,5.61,1.88A7.61,7.61,0,0,1,369.17,184.17Zm-.62,0a7,7,0,0,0-2.1-5.09,6.27,6.27,0,0,0-5.18-1.76,10,10,0,0,0-5,2.56,7.57,7.57,0,0,0-2.7,4.82,5.93,5.93,0,0,0,2.19,4.91,7.55,7.55,0,0,0,5.22,1.67A8.93,8.93,0,0,0,366,189,6.75,6.75,0,0,0,368.56,184.17Z" transform="translate(0 -11)"/><ellipse class="cls-34" cx="356.91" cy="173.21" rx="0.79" ry="1.63"/><ellipse class="cls-34" cx="363.74" cy="174.13" rx="0.79" ry="1.63"/><path class="cls-34" d="M361.87,184a6.49,6.49,0,0,1,1.69-1.33,4.19,4.19,0,0,0,.41-.22c.15-.07.29-.17.45-.24a1.9,1.9,0,0,1,1.11-.29c-.23.29-.38.63-.62.9a3.45,3.45,0,0,1-.39.41,3.36,3.36,0,0,1-.5.33,4.72,4.72,0,0,1-1,.4A2.4,2.4,0,0,1,361.87,184Z" transform="translate(0 -11)"/><path class="cls-34" d="M356.12,180.83a3.21,3.21,0,0,1,1.2,1.16,5.34,5.34,0,0,1,.63,1.5,1.48,1.48,0,0,1-.88-.32,2.45,2.45,0,0,1-.59-.65A2.42,2.42,0,0,1,356.12,180.83Z" transform="translate(0 -11)"/><path class="cls-34" d="M358.2,189.33a1.7,1.7,0,0,1,.52-1.19,1.93,1.93,0,0,1,1.29-.55,1.87,1.87,0,0,1,1.33.5,1.35,1.35,0,0,1,.44,1.24,2.52,2.52,0,0,0-.89-.6,2.2,2.2,0,0,0-.85-.14A3.36,3.36,0,0,0,358.2,189.33Z" transform="translate(0 -11)"/><path class="cls-14" d="M190,208.5c-.34,2.45-.14,5.12-.5,7.5-.24,1.61-.24,5.13-1.28,6.35-1.84,2.16-2.54-1.23-3.28-2.84a28.6,28.6,0,0,1-2.44-6.26" transform="translate(0 -11)"/><path class="cls-15" d="M192.45,206.58c-1.08,1.52-1.67,3.33-2.92,3.33s-1.75-2.58.33-3.83c1.27-.76-.29-2.57.33-2.83a1.69,1.69,0,0,1,1.17-.25c1,0,1.46.51,1.58,2A2.57,2.57,0,0,1,192.45,206.58Z" transform="translate(0 -11)"/><path class="cls-5" d="M187.8,215.27c.57,1.92-1.38,4.19-4.36,5.08a7.72,7.72,0,0,1-3.63.23c-1-.19-4.52,1.5-5,.92-.24-.27,2.34-2.68,2.23-3-.57-1.92,1.38-4.19,4.36-5.08S187.23,213.35,187.8,215.27Z" transform="translate(0 -11)"/><path class="cls-5" d="M281.82,219.17c.18,2-2.19,3.83-5.28,4.11a7.72,7.72,0,0,1-3.6-.49c-.91-.38-4.73.57-5.11-.1-.18-.31,2.82-2.16,2.79-2.52-.18-2,2.19-3.83,5.28-4.11S281.64,217.18,281.82,219.17Z" transform="translate(0 -11)"/><path class="cls-5" d="M385.58,203.42l-6.66,1.07a3.74,3.74,0,0,1-2.79-.67c-.38-.27-3.9.08-4.16-.32-.11-.18-.7-.91-.12-1.25.79-.47,2.83-.57,2.78-.87h0a3.76,3.76,0,0,1,3.11-4.3L384.4,196a3.76,3.76,0,0,1,4.3,3.11h0A3.76,3.76,0,0,1,385.58,203.42Z" transform="translate(0 -11)"/><rect class="cls-1" x="73.28" width="412" height="412"/></g></g><g id="Layer_8" data-name="Layer 8"><g class="cls-2"><polygon class="cls-3" points="17.28 259 50.28 337 495.28 249 610.28 224 558.28 181 17.28 259"/><line class="cls-4" x1="0.52" y1="316.85" x2="578.05" y2="215.15"/><path class="cls-5" d="M314.34,199.1l5.84.94a3.09,3.09,0,0,0,2.47-.72c.34-.28,3.43,0,3.66-.4.1-.18.64-.92.13-1.25-.68-.45-2.47-.51-2.42-.81h0a3.55,3.55,0,0,0-2.65-4.22l-5.84-.94a3.55,3.55,0,0,0-3.84,3.18h0A3.55,3.55,0,0,0,314.34,199.1Z" transform="translate(0 -11)"/><path class="cls-6" d="M118.28,208.25c.38-.12,30.13-.62,30.13-.62l3.5-21.62,5.13.5-3.37,20.88h21.88l.25-16.5,2.38-5.62,3,.38L178.78,201,202,202.13l7.5,25.88-50.25.13L117,214.75Z" transform="translate(0 -11)"/><polygon class="cls-6" points="218.41 201.13 239.66 198.38 243.28 186 246.53 179.5 287.28 180.5 299.16 206.88 264.78 214.63 216.66 205.13 218.41 201.13"/><polygon class="cls-6" points="320.03 185 329.03 160 331.66 160.5 322.91 184.63 346.16 178.25 350.53 158.25 355.66 158 354.66 168.13 394.66 170.38 395.41 195.38 365.28 201.5 316.28 191.75 320.03 185"/><polygon class="cls-6" points="434.03 147.38 453.53 145.13 460.16 125.38 487.41 127.38 481.66 156.63 433.16 150.38 434.03 147.38"/><path class="cls-7" d="M384.66,251.63s-7.49.14-9.37-1.29c-1.16-.88-2-3.91-2.33-5.33-.59-2.57-2-10.33-2-10.33l3.67-8,9.33-1.67Z" transform="translate(0 -11)"/><path class="cls-7" d="M414.66,246.63s-5.81.05-7.37-1a11.75,11.75,0,0,1-3.25-4.79,34.91,34.91,0,0,1-.87-6.37c0-.85.13-3.17.13-3.17l7-2Z" transform="translate(0 -11)"/><path class="cls-7" d="M306.2,265.22s.66.37-.71-.59c-1.18-.83-7.29-1.49-7.7-2.87-.76-2.57-3-12.25-3-12.25l4.75-7.67,5.67.33Z" transform="translate(0 -11)"/><path class="cls-7" d="M275.28,268.28s-5.8.44-7.25-.66c-1.91-1.45-3.42-9-3.42-9l2.33-8,5-9,4.67,10Z" transform="translate(0 -11)"/><polygon class="cls-7" points="489.89 221.14 475.78 219.67 472.05 214.06 469.62 202.5 473.39 192.76 491.2 195.83 489.89 221.14"/><path class="cls-7" d="M206.91,279s-7.44.86-9.25-.59c-1.28-1-1.87-4.61-2-6.25s-.75-6.12-.75-6.12l1-15.42,13,3.67Z" transform="translate(0 -11)"/><path class="cls-7" d="M184.28,283s-7.8-.39-9.67-2c-1.28-1.1-2.55-4.49-3-6.12s-1.37-6.87-1.37-6.87l.67-6.33,5-9.67,7.33,5.67Z" transform="translate(0 -11)"/><ellipse class="cls-8" cx="475.91" cy="151.25" rx="8.38" ry="8.25"/><polyline class="cls-9" points="368.28 176.25 372.28 180.75 376.53 193.5 351.53 191.25 356.28 178.75 368.28 176.25 368.28 176.25 368.28 176.25"/><path class="cls-10" d="M280.28,196.17s-3.11,9.55-4.67,12.5c-1.79,3.38-8.83,12.5-8.83,12.5l15.83,4,5.33-5.17,1-12.33-.33-9.67Z" transform="translate(0 -11)"/><path class="cls-11" d="M279.78,197.25c-.49,1.64-6.39,9.36-8,11.12-2.29,2.49-11,5.05-11.49,5.63" transform="translate(0 -11)"/><path class="cls-12" d="M182.78,210l-3,20s-19.25-.75-18.75-1.5S177.78,208,177.78,208Z" transform="translate(0 -11)"/><path class="cls-13" d="M166.37,216.67c1.5,5.33-4.36,6.67-8.71,6.67s-9.29-4.21-8.37-7.67a8.43,8.43,0,0,1,8.38-6.58C162,209.08,165.3,212.88,166.37,216.67Z" transform="translate(0 -11)"/><path class="cls-14" d="M177,208.25c-3.12-.65-7.29.08-10.62.25-3.17.16-7.16.5-9.87.5" transform="translate(0 -11)"/><path class="cls-15" d="M158.95,213.42c-.29.84-.6-1.18-1.17-1s-1.29,1.77-1.83,1.58c-1-.34-1.83-1.11-1.17-3s2.94-2.76,3.92-2.42S159.61,211.53,158.95,213.42Z" transform="translate(0 -11)"/><polygon class="cls-16" points="239.93 197.76 239.15 206.05 248.95 207.17 247.77 200.23 245.62 195.3 239.93 197.76"/><ellipse class="cls-17" cx="357.97" cy="188.63" rx="6.81" ry="6.25"/><ellipse class="cls-15" cx="364.66" cy="184.63" rx="3.13" ry="2.88"/><ellipse class="cls-15" cx="354.03" cy="184" rx="2.88" ry="2.38"/><polygon class="cls-18" points="319.03 185.25 346.03 183.5 359.28 184.38 367.53 186 366.41 191.25 325.53 189.63 317.41 189.63 319.03 185.25"/><ellipse class="cls-19" cx="255.12" cy="211.42" rx="7.5" ry="7.75"/><path class="cls-20" d="M261.12,214.5c-.39-2.27-3-1.94-4.37-1-2.49,1.57-1.23,3.33.68.94-1,1.64.4,2.57,1.37.83-1.26,2.86,2.34,1.38,2.29-1.2-.31-.15-.17.14-.3.14" transform="translate(0 -11)"/><path class="cls-21" d="M465.28,128c-30.33-2.17-35.45,29.42-40,32.5,0,0-27.83.51-27,37,.67,29.17,27.81,26.5,65.5,26.5s38-18.39,38-56.5S502.88,130.69,465.28,128Zm14.33,33-44.33-1.33s2-8.45,3.33-11c1.59-3.05,8.5-10.83,8.5-10.83L482.95,141Z" transform="translate(0 -11)"/><path class="cls-5" d="M465.62,212.33c0,2.3-15.7,4.33-30.33,4.33s-28.67-8.7-28.67-11S419,211,433.62,211,465.62,210,465.62,212.33Z" transform="translate(0 -11)"/><path class="cls-22" d="M404.78,185.59c.16,4.1,5,9,9.29,8.88s6.35-5.37,6.2-9.47-7.64-11.38-11.91-11.21S404.62,181.48,404.78,185.59Z" transform="translate(0 -11)"/><polygon class="cls-23" points="399.62 178.5 426.12 178.67 415.45 195.83 398.62 198.33 399.62 178.5"/><path class="cls-24" d="M402.78,194.6l-5.37-26.47S367,164.15,359,164c-8.77-.17-28.25,3.13-28.25,3.13s-10.5,7-14.5,32c-.56,3.51-17.24,7.39-17.25,10.5,0,15.29,3,27.91,17.75,33.75,8.54,3.39,24.42,3.25,37,3.25,22.36,0,72-20.93,72-20.93l.33-36Zm-64.12,4c-5-.31-19.5.63-19.5.63l5.79-14.92,5.33-11.67s11.73-1.66,15.67-2a86.23,86.23,0,0,1,14,0l12.83,1.71L365.41,201S345.19,199,338.66,198.63Zm55.25-3L372.53,201l1.75-7,5.33-21.33,14.67.33Z" transform="translate(0 -11)"/><polygon class="cls-25" points="314.28 222.5 352.12 227.83 364.78 225.5 366.78 226.17 367.95 235.67 349.62 237.83 314.62 233.67 314.28 222.5"/><rect class="cls-22" x="303.03" y="217.25" width="14" height="9" rx="2.87" ry="2.87" transform="translate(25.63 -43.04) rotate(6.17)"/><polygon points="335.73 224.46 333.65 224.16 334.9 211.19 336.98 211.5 335.73 224.46"/><rect x="330.35" y="221.42" width="1.75" height="13.03" transform="translate(23.31 -41.62) rotate(5.49)"/><rect x="326.59" y="221.02" width="1.75" height="13.03" transform="translate(23.25 -41.26) rotate(5.49)"/><rect x="322.6" y="220.67" width="1.75" height="13.03" transform="translate(23.2 -40.88) rotate(5.49)"/><rect x="318.92" y="220.06" width="1.75" height="13.03" transform="translate(23.12 -40.53) rotate(5.49)"/><path class="cls-26" d="M319.78,234.5c0-12.91-7.58-29.73-14.5-39.5-12.75-18-24.94-12.25-43.75-12.25-23,0-39,9.51-48.25,28.75-3.57,7.41-3,12.25-3,21,0,13.83-2,28.65,8.1,28.59,13.9-.09,26.15,4.41,47.4.91,24.19-4,38.75-5.25,50.5-11.75C320.5,247.92,319.78,242.37,319.78,234.5ZM263.95,221s-20.11-5.6-27-6.33c-4.64-.5-18.67.33-18.67.33s1.21-3.35,1.5-4.5c.85-3.4,9.68-15.08,14.75-17.25,3.15-1.35,11-1.68,13.63-1.5,5.38.38,17.46,1.58,17.46,1.58Zm6-.33.67-27.33,17-1,8,24Z" transform="translate(0 -11)"/><path class="cls-27" d="M249.28,250.25c0,3-12.11,2.75-23.5,2.75S207,248.72,207,245.75s7.61,2.5,19,2.5S249.28,247.28,249.28,250.25Z" transform="translate(0 -11)"/><path class="cls-5" d="M103.12,209.52c-.57,1.92,1.38,4.19,4.36,5.08a7.72,7.72,0,0,0,3.63.23c1-.19,4.52,1.5,5,.92.24-.27-2.34-2.68-2.23-3,.57-1.92-1.38-4.19-4.36-5.08S103.69,207.6,103.12,209.52Z" transform="translate(0 -11)"/><path class="cls-28" d="M217.28,256.33c-.67-42.67-14-86.67-55.33-84C132.87,174.21,121.78,188.25,113,212c-2.24,6.07-11.08,6.33-11.08,6.33l10,36,12,4.67,3.33,14.67s39.88,3.67,75-6.17c4.17-1.17,13.64-1.87,16.33-3.17C221.89,262.76,217.28,256.33,217.28,256.33Zm-99-42.58,11.63-23.37s5.53-1.66,7.71-2c3.45-.6,10.52-.34,14,0,3,.29,12,1.67,12,1.67l3,1.67L169.28,209l.25,9Zm76,6.5c-4.82-.1-18.5-.75-18.5-.75l-1.83-12.83-3-16A106.57,106.57,0,0,1,181.62,189a92.66,92.66,0,0,1,9.33,1s4.77,6.33,6,8.67c2.08,3.94,6.33,16.67,6.33,16.67l1.25,5.42S197,220.31,194.28,220.25Z" transform="translate(0 -11)"/><path class="cls-7" d="M155.78,268c0,3.18-14.25,4.5-32,2.75-9.27-.91-18.75-1.32-18.75-4.5s4.5-3,14.75-1.5C129.5,266.2,155.78,264.82,155.78,268Z" transform="translate(0 -11)"/><ellipse class="cls-29" cx="275.76" cy="243.99" rx="7.19" ry="13.33"/><ellipse class="cls-29" cx="305.72" cy="240.83" rx="6.19" ry="12.83"/><ellipse class="cls-29" cx="384.76" cy="227.33" rx="6.19" ry="13.33"/><ellipse class="cls-29" cx="414.43" cy="222.33" rx="6.19" ry="13.33"/><ellipse class="cls-30" cx="490.28" cy="215.55" rx="16.5" ry="10.67" transform="translate(248.37 682.38) rotate(-86.88)"/><ellipse class="cls-29" cx="185.16" cy="264.63" rx="18.37" ry="8.37" transform="translate(-90.43 422.03) rotate(-86.45)"/><path class="cls-29" d="M212.25,262.15c-.53,10.13-3.35,17.21-6.31,17.05s-4.92-6.69-4.38-16.82,3.33-19,6.3-18.86S212.78,252,212.25,262.15Z" transform="translate(0 -11)"/><path class="cls-22" d="M257.46,233c.7,2.67-5.06,5.08-12.43,7s-12,2.17-12.75-.5,3.19-5.91,10.56-7.85S256.76,230.32,257.46,233Z" transform="translate(0 -11)"/><ellipse class="cls-22" cx="153.41" cy="235.63" rx="10.13" ry="10.38"/><rect class="cls-22" x="341.03" y="221.75" width="16.5" height="8.75" rx="3.25" ry="3.25" transform="translate(12.81 -29.66) rotate(3.12)"/><path class="cls-22" d="M462.24,195.13c-2.21,3.83-9,6.27-12.71,4.13s-2.92-8-.71-11.87,12.5-7.27,16.21-5.12S464.45,191.3,462.24,195.13Z" transform="translate(0 -11)"/><ellipse class="cls-22" cx="101.41" cy="228.88" rx="10.13" ry="10.38"/><path class="cls-31" d="M98.28,257.25l-1.25,33c-32.08,5.91-72.49-30.33-53.75-75.75,16-38.8,2-35.25,31-30.75,17.79,2.76,36.33,43.92,37.75,72.75Z" transform="translate(0 -11)"/><path class="cls-18" d="M97.08,257.89,96,290.7a1.19,1.19,0,0,0,1.26,1.23l29.47-1.7a1.19,1.19,0,0,0,1.12-1.12l.93-17.11a1.19,1.19,0,0,0,0-.31l-2.82-13.17a1.19,1.19,0,0,0-.8-.88l-12-3.86a1.19,1.19,0,0,0-1.54,1h0a1.19,1.19,0,0,1-1.08,1l-12.33,1A1.19,1.19,0,0,0,97.08,257.89Z" transform="translate(0 -11)"/><rect class="cls-3" x="144.78" y="248.05" width="16.5" height="3.7" rx="1.82" ry="1.82"/><ellipse class="cls-3" cx="185.12" cy="254.17" rx="3.5" ry="11.17"/><ellipse class="cls-3" cx="207.45" cy="262.33" rx="11.33" ry="2.17" transform="translate(-66.1 443.75) rotate(-86.79)"/><ellipse class="cls-3" cx="275.95" cy="244.17" rx="3.67" ry="7.17"/><ellipse class="cls-3" cx="305.85" cy="241.17" rx="3" ry="6.83"/><ellipse class="cls-3" cx="385.28" cy="228" rx="2.33" ry="8"/><ellipse class="cls-3" cx="414.62" cy="222.33" rx="2.67" ry="8.33"/><ellipse class="cls-22" cx="471.78" cy="175.67" rx="2.5" ry="2"/><ellipse class="cls-22" cx="401.45" cy="169.5" rx="0.83" ry="2.17"/><path class="cls-32" d="M319.45,227.15c.29,4.73.08,4.77.08,4.77s-6.58.21-6.58-6.57c0-5,2.33-11.27,2.33-11.27C316.11,215.78,319.2,223.15,319.45,227.15Z" transform="translate(0 -11)"/><path class="cls-33" d="M276.95,190.33c0-5.06,3.17-9.33,8.83-8.5,3.55.52,6.5,4.1,6.5,9.17s-3.16,8.13-6.75,8.13S276.95,195.4,276.95,190.33Z" transform="translate(0 -11)"/><ellipse class="cls-15" cx="183.62" cy="192" rx="8" ry="9.33"/><path d="M282.45,195.17a6.35,6.35,0,0,1,1.74-1.16,3.29,3.29,0,0,1,1-.27,1.48,1.48,0,0,1,1.05.26,4.39,4.39,0,0,0-1.88.5c-.31.12-.61.27-.94.38A4.65,4.65,0,0,1,282.45,195.17Z" transform="translate(0 -11)"/><ellipse class="cls-34" cx="287.28" cy="188" rx="1.67" ry="1" transform="translate(81.88 452.11) rotate(-86.46)"/><ellipse class="cls-34" cx="282.61" cy="187.9" rx="1.67" ry="1" transform="translate(51.66 425.57) rotate(-80.73)"/><path class="cls-11" d="M288.45,198.83c-.23,1.52,1,5.58,1.34,7.37s.6,3.65,1,5.46c.32,1.64,1,3.07.58,4.7A17.5,17.5,0,0,1,288.9,221c-.8,1.32-1.93,3.91-3,4.5" transform="translate(0 -11)"/><path class="cls-20" d="M285.95,225.33a6.23,6.23,0,0,0-3.75-.32c-1.44.48-1.53,1.86.23,1.52-.67.74-3,2.6-1.82,3.65.61-.37-.25,1.07,1.81-1.16-1.72,2.64-.64,2.89,1.38.71-1.27,2.06.41,2.2,1.61.39C286.23,228.89,287.25,226.12,285.95,225.33Z" transform="translate(0 -11)"/><ellipse class="cls-20" cx="241.63" cy="192.43" rx="6.14" ry="6.01"/><ellipse cx="238.89" cy="202.64" rx="0.85" ry="1.37" transform="translate(-17.37 11.46) rotate(-5.19)"/><ellipse cx="243.2" cy="202.12" rx="0.85" ry="1.37" transform="translate(-28.65 29.57) rotate(-9.01)"/><path d="M240.39,206.17a.47.47,0,0,1,.08-.46,1.36,1.36,0,0,1,.37-.3,2.46,2.46,0,0,1,.86-.26,3,3,0,0,1,.88,0,1.46,1.46,0,0,1,.81.35,4.24,4.24,0,0,0-.83,0c-.27,0-.54.05-.8.09s-.53.07-.78.12S240.49,205.88,240.39,206.17Z" transform="translate(0 -11)"/><ellipse cx="180.45" cy="200.29" rx="1.87" ry="0.83" transform="translate(-53.14 323.89) rotate(-77.94)"/><ellipse cx="184.78" cy="201.79" rx="1.87" ry="0.83" transform="translate(-51.17 329.31) rotate(-77.94)"/><path class="cls-1" d="M192.87,178.25v-.08" transform="translate(0 -11)"/><path d="M184.78,198.17a5.27,5.27,0,0,0,1,1.72,7.36,7.36,0,0,1,1.16,1.78,4.49,4.49,0,0,1-1.75-1.32,2.89,2.89,0,0,1-.52-1A1.56,1.56,0,0,1,184.78,198.17Z" transform="translate(0 -11)"/><path d="M181,208.25a1,1,0,0,1,.32-.92,1.59,1.59,0,0,1,.92-.43,1.68,1.68,0,0,1,1.68.77,7,7,0,0,0-1.59,0A2,2,0,0,0,181,208.25Z" transform="translate(0 -11)"/><path class="cls-1" d="M353.53,184.58h.08" transform="translate(0 -11)"/><path class="cls-35" d="M368.87,184.17c0,4-4.56,7.5-8.33,7.5S353.2,189,353.2,185s5.06-8,8.83-8A7,7,0,0,1,368.87,184.17Z" transform="translate(0 -11)"/><path class="cls-34" d="M369.17,184.17a7.4,7.4,0,0,1-2.68,5.36A9.6,9.6,0,0,1,361,192a8.16,8.16,0,0,1-5.72-1.88,6.6,6.6,0,0,1-2.38-5.48,8.14,8.14,0,0,1,2.95-5.2,10.54,10.54,0,0,1,5.35-2.64,6.86,6.86,0,0,1,5.61,1.88A7.61,7.61,0,0,1,369.17,184.17Zm-.62,0a7,7,0,0,0-2.1-5.09,6.27,6.27,0,0,0-5.18-1.76,10,10,0,0,0-5,2.56,7.57,7.57,0,0,0-2.7,4.82,5.93,5.93,0,0,0,2.19,4.91,7.55,7.55,0,0,0,5.22,1.67A8.93,8.93,0,0,0,366,189,6.75,6.75,0,0,0,368.56,184.17Z" transform="translate(0 -11)"/><ellipse class="cls-34" cx="356.91" cy="173.21" rx="0.79" ry="1.63"/><ellipse class="cls-34" cx="363.74" cy="174.13" rx="0.79" ry="1.63"/><path class="cls-34" d="M361.87,184a6.49,6.49,0,0,1,1.69-1.33,4.19,4.19,0,0,0,.41-.22c.15-.07.29-.17.45-.24a1.9,1.9,0,0,1,1.11-.29c-.23.29-.38.63-.62.9a3.45,3.45,0,0,1-.39.41,3.36,3.36,0,0,1-.5.33,4.72,4.72,0,0,1-1,.4A2.4,2.4,0,0,1,361.87,184Z" transform="translate(0 -11)"/><path class="cls-34" d="M356.12,180.83a3.21,3.21,0,0,1,1.2,1.16,5.34,5.34,0,0,1,.63,1.5,1.48,1.48,0,0,1-.88-.32,2.45,2.45,0,0,1-.59-.65A2.42,2.42,0,0,1,356.12,180.83Z" transform="translate(0 -11)"/><path class="cls-34" d="M358.2,189.33a1.7,1.7,0,0,1,.52-1.19,1.93,1.93,0,0,1,1.29-.55,1.87,1.87,0,0,1,1.33.5,1.35,1.35,0,0,1,.44,1.24,2.52,2.52,0,0,0-.89-.6,2.2,2.2,0,0,0-.85-.14A3.36,3.36,0,0,0,358.2,189.33Z" transform="translate(0 -11)"/><path class="cls-14" d="M190,208.5c-.34,2.45-.14,5.12-.5,7.5-.24,1.61-.24,5.13-1.28,6.35-1.84,2.16-2.54-1.23-3.28-2.84a28.6,28.6,0,0,1-2.44-6.26" transform="translate(0 -11)"/><path class="cls-15" d="M192.45,206.58c-1.08,1.52-1.67,3.33-2.92,3.33s-1.75-2.58.33-3.83c1.27-.76-.29-2.57.33-2.83a1.69,1.69,0,0,1,1.17-.25c1,0,1.46.51,1.58,2A2.57,2.57,0,0,1,192.45,206.58Z" transform="translate(0 -11)"/><path class="cls-5" d="M187.8,215.27c.57,1.92-1.38,4.19-4.36,5.08a7.72,7.72,0,0,1-3.63.23c-1-.19-4.52,1.5-5,.92-.24-.27,2.34-2.68,2.23-3-.57-1.92,1.38-4.19,4.36-5.08S187.23,213.35,187.8,215.27Z" transform="translate(0 -11)"/><path class="cls-5" d="M281.82,219.17c.18,2-2.19,3.83-5.28,4.11a7.72,7.72,0,0,1-3.6-.49c-.91-.38-4.73.57-5.11-.1-.18-.31,2.82-2.16,2.79-2.52-.18-2,2.19-3.83,5.28-4.11S281.64,217.18,281.82,219.17Z" transform="translate(0 -11)"/><path class="cls-5" d="M385.58,203.42l-6.66,1.07a3.74,3.74,0,0,1-2.79-.67c-.38-.27-3.9.08-4.16-.32-.11-.18-.7-.91-.12-1.25.79-.47,2.83-.57,2.78-.87h0a3.76,3.76,0,0,1,3.11-4.3L384.4,196a3.76,3.76,0,0,1,4.3,3.11h0A3.76,3.76,0,0,1,385.58,203.42Z" transform="translate(0 -11)"/><rect class="cls-1" x="73.28" width="412" height="412"/></g></g></g></svg>