<?xml version="1.0" encoding="UTF-8" standalone="no"?>
<svg
   xmlns:dc="http://purl.org/dc/elements/1.1/"
   xmlns:cc="http://creativecommons.org/ns#"
   xmlns:rdf="http://www.w3.org/1999/02/22-rdf-syntax-ns#"
   xmlns:svg="http://www.w3.org/2000/svg"
   xmlns="http://www.w3.org/2000/svg"
   xmlns:sodipodi="http://sodipodi.sourceforge.net/DTD/sodipodi-0.dtd"
   xmlns:inkscape="http://www.inkscape.org/namespaces/inkscape"
   viewBox="0 0 500 500"
   version="1.1"
   id="svg226"
   sodipodi:docname="Scenario-Keys.svg"
   width="500"
   height="500"
   inkscape:version="0.92.2 (30a58d1, 2017-08-07)">
  <metadata
     id="metadata230">
    <rdf:RDF>
      <cc:Work
         rdf:about="">
        <dc:format>image/svg+xml</dc:format>
        <dc:type
           rdf:resource="http://purl.org/dc/dcmitype/StillImage" />
      </cc:Work>
    </rdf:RDF>
  </metadata>
  <sodipodi:namedview
     pagecolor="#ffffff"
     bordercolor="#666666"
     borderopacity="1"
     objecttolerance="10"
     gridtolerance="10"
     guidetolerance="10"
     inkscape:pageopacity="0"
     inkscape:pageshadow="2"
     inkscape:window-width="1366"
     inkscape:window-height="717"
     id="namedview228"
     showgrid="false"
     inkscape:zoom="1.2487433"
     inkscape:cx="191.32157"
     inkscape:cy="298.37081"
     inkscape:window-x="0"
     inkscape:window-y="27"
     inkscape:window-maximized="1"
     inkscape:current-layer="svg226" />
  <defs
     id="defs4">
    <style
       id="style2">.cls-1{opacity:0.54;}.cls-2{fill:#5b5b5b;}.cls-3{fill:#a9a8a9;}.cls-21,.cls-4,.cls-9{fill:#2b2b2b;}.cls-5{fill:#515251;}.cls-6{fill:#050606;}.cls-7{fill:#8e8e8e;}.cls-8{fill:#b0b0b0;}.cls-10,.cls-11,.cls-13,.cls-14,.cls-16,.cls-17,.cls-19,.cls-20,.cls-21,.cls-22,.cls-23,.cls-24,.cls-25,.cls-26,.cls-28,.cls-29,.cls-30,.cls-32,.cls-33,.cls-34,.cls-35,.cls-36,.cls-37,.cls-8,.cls-9{stroke:#231f20;}.cls-10,.cls-11,.cls-13,.cls-14,.cls-16,.cls-17,.cls-18,.cls-19,.cls-20,.cls-21,.cls-22,.cls-23,.cls-24,.cls-25,.cls-26,.cls-28,.cls-29,.cls-30,.cls-32,.cls-33,.cls-34,.cls-35,.cls-36,.cls-37,.cls-8,.cls-9{stroke-miterlimit:10;}.cls-11,.cls-8{stroke-width:0.25px;}.cls-34,.cls-9{stroke-width:0.75px;}.cls-10,.cls-17,.cls-18,.cls-26,.cls-28,.cls-31{fill:none;}.cls-10,.cls-13,.cls-18,.cls-30,.cls-36{stroke-width:2px;}.cls-11{fill:#d6d6d6;}.cls-12{fill:#3a3a3a;}.cls-13{fill:#333;}.cls-14{fill:#40403f;}.cls-15,.cls-22{fill:#444545;}.cls-16{fill:#c4e9f8;}.cls-18{stroke:#4a494a;}.cls-19{fill:#695433;}.cls-20{fill:#686868;}.cls-23{fill:#d1a144;}.cls-24,.cls-30,.cls-34{fill:#fff;}.cls-25{fill:#568fb2;}.cls-26{stroke-width:0;}.cls-27{fill:#231f20;}.cls-28{stroke-width:3px;}.cls-29{fill:#f7d064;}.cls-32{fill:#fff272;}.cls-33{fill:#070808;}.cls-35{fill:#666766;}.cls-36,.cls-37{fill:#cec4ba;}</style>
  </defs>
  <title
     id="title6">Scenario 2 KEYS</title>
  <g
     id="color"
     transform="matrix(2.2586095,0,0,2.6493091,0.33216023,-0.5876321)">
    <polygon
       class="cls-2"
       points="40.67,165.58 41.42,165.67 41.58,169.75 19.17,180.58 20.5,175.75 "
       id="polygon8"
       style="fill:#5b5b5b" />
    <polygon
       class="cls-3"
       points="40.67,165.58 20.5,175.75 15.25,173.5 35,163.67 "
       id="polygon10"
       style="fill:#a9a8a9" />
    <polygon
       class="cls-3"
       points="41.83,165.67 61.25,176 66.17,174.42 48.83,163.25 "
       id="polygon12"
       style="fill:#a9a8a9" />
    <polygon
       class="cls-4"
       points="49.17,162.75 53.42,165.5 61.75,166.58 59.08,163.67 "
       id="polygon14"
       style="fill:#2b2b2b" />
    <polygon
       class="cls-4"
       points="19.08,163.83 16.33,166.75 30.33,165.75 35,163.67 34.08,162.17 "
       id="polygon16"
       style="fill:#2b2b2b" />
    <polygon
       class="cls-5"
       points="41.58,169.75 63.33,181.92 61.25,176 41.83,165.67 "
       id="polygon18"
       style="fill:#515251" />
    <polygon
       class="cls-6"
       points="14.83,180.08 13.92,184.08 17.17,186.75 20.75,186.33 23,183.67 23.08,181 22.33,179.25 18.58,180.5 "
       id="polygon20"
       style="fill:#050606" />
    <polygon
       class="cls-6"
       points="69,181.25 64.5,182.17 61.42,181 60.92,182.58 61.08,185.92 62.67,187.92 64.5,188.83 67.83,188.83 69.5,187.08 70.58,183.75 "
       id="polygon22"
       style="fill:#050606" />
    <polygon
       class="cls-6"
       points="24.25,169 23.17,166.67 18.33,167.08 17.92,169.25 19.75,171.33 "
       id="polygon24"
       style="fill:#050606" />
    <polygon
       class="cls-6"
       points="61.58,169.67 60.83,166.5 57.25,166.25 56.33,167.92 60.75,170.5 "
       id="polygon26"
       style="fill:#050606" />
    <polygon
       class="cls-4"
       points="15.25,173.5 12,178.25 19.17,180.58 20.5,175.75 "
       id="polygon28"
       style="fill:#2b2b2b" />
    <polygon
       class="cls-4"
       points="61.25,176 64.5,182.17 71,180.63 66.25,174 "
       id="polygon30"
       style="fill:#2b2b2b" />
    <polygon
       class="cls-7"
       points="117.17,3.17 177.33,10.67 182.17,10.17 122.17,2.17 "
       id="polygon32"
       style="fill:#8e8e8e" />
  </g>
  <g
     id="comp"
     transform="matrix(2.2586095,0,0,2.6493091,0.33216023,-0.5876321)">
    <polygon
       class="cls-8"
       points="208.25,136.75 204.9,141.31 205.13,71.81 208.63,69.13 "
       id="polygon35"
       style="fill:#b0b0b0;stroke:#231f20;stroke-width:0.25px;stroke-miterlimit:10" />
    <rect
       class="cls-9"
       x="196.67"
       y="72.349998"
       width="8.3299999"
       height="69.650002"
       id="rect37"
       style="fill:#2b2b2b;stroke:#231f20;stroke-width:0.75px;stroke-miterlimit:10" />
    <polygon
       class="cls-8"
       points="180.19,180.46 176.88,185 176.88,122.88 180.5,123.57 "
       id="polygon39"
       style="fill:#b0b0b0;stroke:#231f20;stroke-width:0.25px;stroke-miterlimit:10" />
    <rect
       class="cls-9"
       x="168.17"
       y="116.33"
       width="8.3299999"
       height="69.790001"
       id="rect41"
       style="fill:#2b2b2b;stroke:#231f20;stroke-width:0.75px;stroke-miterlimit:10" />
    <path
       class="cls-10"
       d="M 199.75,116.74"
       transform="translate(-22,-49.5)"
       id="path43"
       inkscape:connector-curvature="0"
       style="fill:none;stroke:#231f20;stroke-width:2px;stroke-miterlimit:10" />
    <polyline
       class="cls-11"
       points="177.75 67.24 221 71.5 191.5 117.75 62.5 92.5 109.25 60.5 171.25 66.6"
       id="polyline45"
       style="fill:#d6d6d6;stroke:#231f20;stroke-width:0.25px;stroke-miterlimit:10" />
    <polygon
       class="cls-12"
       points="61,100 191.5,126 191.5,117.75 61,91.75 "
       id="polygon47"
       style="fill:#3a3a3a" />
    <ellipse
       class="cls-13"
       cx="144.63"
       cy="74.75"
       rx="16.379999"
       ry="8"
       id="ellipse49"
       style="fill:#333333;stroke:#231f20;stroke-width:2px;stroke-miterlimit:10" />
    <path
       class="cls-13"
       d="m 161.88,124.75 c 1.75,1.25 4,1.81 7.75,0.5 0.7,-0.25 2.11,-0.73 1.88,-1.44 -0.91,-2.74 -0.93,-4.52 2.25,-8.31 L 160,113 c 1.43,4.07 2.36,5.85 0.63,9.06 -0.5,0.94 0.37,2.08 1.25,2.69 z"
       transform="translate(-22,-49.5)"
       id="path51"
       inkscape:connector-curvature="0"
       style="fill:#333333;stroke:#231f20;stroke-width:2px;stroke-miterlimit:10" />
    <polygon
       class="cls-14"
       points="170.5,74 114,61.5 117,3.5 177,10.5 "
       id="polygon53"
       style="fill:#40403f;stroke:#231f20;stroke-miterlimit:10" />
    <polygon
       class="cls-14"
       points="177.5,73 170.5,74 177,10.5 183.75,10 "
       id="polygon55"
       style="fill:#40403f;stroke:#231f20;stroke-miterlimit:10" />
    <polygon
       class="cls-15"
       points="221,79.5 191.5,126.25 191.5,117.75 221.17,71.45 "
       id="polygon57"
       style="fill:#444545" />
    <polygon
       class="cls-16"
       points="168.32,70.42 116.75,59.01 119.49,6.08 174.25,12.47 "
       id="polygon59"
       style="fill:#c4e9f8;stroke:#231f20;stroke-miterlimit:10" />
    <line
       class="cls-17"
       x1="183.75"
       y1="10"
       x2="121.83"
       y2="2.1700001"
       id="line61"
       style="fill:none;stroke:#231f20;stroke-miterlimit:10" />
    <line
       class="cls-17"
       x1="117"
       y1="3.5"
       x2="122.17"
       y2="2.3299999"
       id="line63"
       style="fill:none;stroke:#231f20;stroke-miterlimit:10" />
    <path
       class="cls-18"
       d="m 69.67,109.67 c 19.74,26.65 38,25.94 60.67,-5"
       transform="translate(-22,-49.5)"
       id="path65"
       inkscape:connector-curvature="0"
       style="fill:none;stroke:#4a494a;stroke-width:2px;stroke-miterlimit:10" />
  </g>
  <g
     id="person"
     transform="matrix(2.2586095,0,0,2.6493091,0.33216023,-0.5876321)">
    <polygon
       class="cls-17"
       points="47,162.25 39.25,161.75 15.25,173.5 12,178.5 19,180.75 41.75,169.5 64,182.25 71,180.5 66.5,174.25 "
       id="polygon68"
       style="fill:none;stroke:#231f20;stroke-miterlimit:10" />
    <line
       class="cls-17"
       x1="15.25"
       y1="173.5"
       x2="20.5"
       y2="175.75"
       id="line70"
       style="fill:none;stroke:#231f20;stroke-miterlimit:10" />
    <polyline
       class="cls-17"
       points="61.58 176.08 41.5 165 20.5 175.75 19 180.75"
       id="polyline72"
       style="fill:none;stroke:#231f20;stroke-miterlimit:10" />
    <polyline
       class="cls-17"
       points="64 182.25 61.17 175.92 66.5 174.25"
       id="polyline74"
       style="fill:none;stroke:#231f20;stroke-miterlimit:10" />
    <line
       class="cls-17"
       x1="41.75"
       y1="169.5"
       x2="41.5"
       y2="165"
       id="line76"
       style="fill:none;stroke:#231f20;stroke-miterlimit:10" />
    <polygon
       class="cls-17"
       points="39.25,161.75 19.5,164 16.42,167 30.58,165.67 "
       id="polygon78"
       style="fill:none;stroke:#231f20;stroke-miterlimit:10" />
    <polygon
       class="cls-17"
       points="47,162.25 59.25,163.75 61.88,166.38 53.13,165.63 "
       id="polygon80"
       style="fill:none;stroke:#231f20;stroke-miterlimit:10" />
    <path
       class="cls-19"
       d="m 61.75,127.25 -27.25,6.5 c -5.82,1.47 -12,-5.86 -12,-11.87 v -18.49 a 9.21,9.21 0 0 1 7,-8.93 L 56.57,87.62 A 9.21,9.21 0 0 1 68,96.55 V 115 c 0,4.26 -2.16,11.22 -6.25,12.25 z"
       transform="translate(-22,-49.5)"
       id="path82"
       inkscape:connector-curvature="0"
       style="fill:#695433;stroke:#231f20;stroke-miterlimit:10" />
    <path
       class="cls-20"
       d="m 71,212.5 c -4.21,2.48 -8.61,4.21 -14.5,0 v -19 c 4.72,4.09 9.56,3.91 14.5,0 z"
       transform="translate(-22,-49.5)"
       id="path84"
       inkscape:connector-curvature="0"
       style="fill:#686868;stroke:#231f20;stroke-miterlimit:10" />
    <ellipse
       class="cls-21"
       cx="41.830002"
       cy="144.25"
       rx="7.3299999"
       ry="2.5799999"
       id="ellipse86"
       style="fill:#2b2b2b;stroke:#231f20;stroke-miterlimit:10" />
    <path
       class="cls-22"
       d="m 67.17,193.33 c -3,1 -4.5,1.17 -7.5,-0.17 L 60,175 h 7.5 z"
       transform="translate(-22,-49.5)"
       id="path88"
       inkscape:connector-curvature="0"
       style="fill:#444545;stroke:#231f20;stroke-miterlimit:10" />
    <polygon
       class="cls-22"
       points="21.5,79 32,117.5 41,116.5 30,76.5 "
       id="polygon90"
       style="fill:#444545;stroke:#231f20;stroke-miterlimit:10" />
    <path
       class="cls-23"
       d="m 42.37,174.79 31.1,15.9 a 6.93,6.93 0 0 0 6.87,-0.32 L 105,174.76 a 4.35,4.35 0 0 0 -0.86,-7.77 L 76.39,157 a 4.35,4.35 0 0 0 -2.81,0 L 43,166.78 a 4.35,4.35 0 0 0 -0.63,8.01 z"
       transform="translate(-22,-49.5)"
       id="path92"
       inkscape:connector-curvature="0"
       style="fill:#d1a144;stroke:#231f20;stroke-miterlimit:10" />
    <path
       class="cls-23"
       d="m 65,126.26 -27,6.84 a 9.21,9.21 0 0 1 -11.47,-8.93 v -18.49 a 9.21,9.21 0 0 1 7,-8.93 l 27,-6.85 A 9.21,9.21 0 0 1 72,98.83 v 18.49 a 9.21,9.21 0 0 1 -7,8.94 z"
       transform="translate(-22,-49.5)"
       id="path94"
       inkscape:connector-curvature="0"
       style="fill:#d1a144;stroke:#231f20;stroke-miterlimit:10" />
    <path
       class="cls-10"
       d="m 76.5,174 c 10.79,5 21.38,12 31.91,17.59 0.54,10.84 -4.74,27.52 -3.91,38.58 3.69,2 11.05,2.6 15.33,3"
       transform="translate(-22,-49.5)"
       id="path96"
       inkscape:connector-curvature="0"
       style="fill:none;stroke:#231f20;stroke-width:2px;stroke-miterlimit:10" />
    <path
       class="cls-10"
       d="m 162.75,205.5 c -3,1 -13.17,7.4 -13.68,5.73 -2.33,-7.52 -7.7,-16.7 -10.44,-23.61 A 95.1,95.1 0 0 0 133,175 c -3,-5.26 -5.88,-4.57 -11.5,-6.28 -5,-1.54 -12.41,-2.47 -16.5,-4.74"
       transform="translate(-22,-49.5)"
       id="path98"
       inkscape:connector-curvature="0"
       style="fill:none;stroke:#231f20;stroke-width:2px;stroke-miterlimit:10" />
    <path
       class="cls-19"
       d="M 103.76,153.64 74.44,142.1 a 1.82,1.82 0 0 1 -0.21,-3.29 l 3.72,-2 a 1.82,1.82 0 0 1 1.49,-0.12 l 32.22,11.45 a 1.82,1.82 0 0 1 -0.05,3.45 l -6.61,2.09 a 1.82,1.82 0 0 1 -1.24,-0.04 z"
       transform="translate(-22,-49.5)"
       id="path100"
       inkscape:connector-curvature="0"
       style="fill:#695433;stroke:#231f20;stroke-miterlimit:10" />
    <path
       class="cls-24"
       d="m 87.5,150 a 52.11,52.11 0 0 1 1.5,17 l 3.5,2.5 c -1.39,-6.82 -1.28,-12.4 0,-17 z"
       transform="translate(-22,-49.5)"
       id="path102"
       inkscape:connector-curvature="0"
       style="fill:#ffffff;stroke:#231f20;stroke-miterlimit:10" />
    <path
       class="cls-25"
       d="m 55,92.5 c -4.34,27.76 -18.65,55.5 12,83.25 a 4.7,4.7 0 0 0 4.45,1 l 39.34,-11.36 a 1.12,1.12 0 0 0 0.1,-2.12 C 79,150.41 71.39,126.67 71.5,99.5 Z"
       transform="translate(-22,-49.5)"
       id="path104"
       inkscape:connector-curvature="0"
       style="fill:#568fb2;stroke:#231f20;stroke-miterlimit:10" />
    <path
       class="cls-24"
       d="m 97.5,72.5 c 0,12.43 -9.5,27 -26,27 C 52.5,99.5 48,84.93 48,72.5 48,60.07 59.08,50 72.75,50 86.42,50 97.5,60.07 97.5,72.5 Z"
       transform="translate(-22,-49.5)"
       id="path106"
       inkscape:connector-curvature="0"
       style="fill:#ffffff;stroke:#231f20;stroke-miterlimit:10" />
    <path
       class="cls-26"
       d="m 77.5,173.5 c -0.74,-0.12 0.3,0.39 0.5,0.5"
       transform="translate(-22,-49.5)"
       id="path108"
       inkscape:connector-curvature="0"
       style="fill:none;stroke:#231f20;stroke-width:0;stroke-miterlimit:10" />
    <path
       class="cls-27"
       d="m 70.57,140 c -4.62,0 -8.85,-2.92 -11.37,-6.37 -2.11,-2.89 -2.84,-5.45 -3.65,-8.75 a 58,58 0 0 1 -1.2,-6.32 c 0.11,-1.24 1.55,-1.14 2,0 0,0.64 0.77,4.32 1.15,5.86 0.77,3.17 1.42,5.44 3.32,8 2.62,3.6 7.67,6.72 12.57,5.09 9,-3 17.07,-18.78 19.72,-24 1.46,-2.86 2.82,-6 4.13,-9 0.67,-1.53 1.31,-3 2,-4.43 h -0.1 l 0.15,-0.34 a 4.32,4.32 0 0 1 0.83,-1.38 l 4.36,-4.69 -2.72,5.79 c -0.88,1.87 -1.73,3.82 -2.63,5.89 -1.33,3 -2.7,6.19 -4.18,9.1 -4.75,9.31 -12.08,22 -20.87,25 A 10.84,10.84 0 0 1 70.57,140 Z"
       transform="translate(-22,-49.5)"
       id="path110"
       inkscape:connector-curvature="0"
       style="fill:#231f20" />
    <circle
       class="cls-28"
       cx="91.25"
       cy="54.75"
       r="14.75"
       id="circle112"
       style="fill:none;stroke:#231f20;stroke-width:3px;stroke-miterlimit:10" />
    <path
       class="cls-29"
       d="M 114.75,72.75 V 69.5 h -2 v 0.75 h -3.42 l -0.16,-4.62 -2,0.07 0.58,16.61 a 6,6 0 0 0 1,11.91 v 0 a 6,6 0 0 0 1,-11.91 l -0.23,-6.58 h 3 v -2 h -3.12 l -0.05,-1.47 h 3.35 v 0.5 z m -2,15.49 a 4,4 0 0 1 -1.19,2.82 3.93,3.93 0 0 1 -2.84,1.15 4,4 0 0 1 0,-8 v 0 a 4,4 0 0 1 4.03,4.03 z"
       transform="translate(-22,-49.5)"
       id="path114"
       inkscape:connector-curvature="0"
       style="fill:#f7d064;stroke:#231f20;stroke-miterlimit:10" />
    <path
       class="cls-30"
       d="m 101.42,88.42 c -2.83,3.58 -4.07,7.92 0,11.89 a 7.63,7.63 0 0 0 7.68,1.31 c 1.85,-0.89 4.1,-3.64 2.16,-4.4 A 0.79,0.79 0 0 1 111,95.91 c 2,-2 3.31,-4.41 -0.3,-4.95 -0.52,-0.08 -0.86,-0.78 -0.47,-1.13 2,-1.83 2.09,-4.6 -0.06,-6.28 -3.78,-3 -6.29,1.48 -8,3.94 z"
       transform="translate(-22,-49.5)"
       id="path116"
       inkscape:connector-curvature="0"
       style="fill:#ffffff;stroke:#231f20;stroke-width:2px;stroke-miterlimit:10" />
    <path
       class="cls-30"
       d="m 136,102.5 c 1.31,-3.56 1.21,-9.25 -2.31,-11 a 1.15,1.15 0 0 0 -1.64,1.16 c 0.15,1.36 0.33,2.86 -0.67,2.77 -0.81,-0.08 -1.33,-1.46 -2.2,-2.31 a 1.37,1.37 0 0 0 -2.32,1.14 c 0.21,1.81 1.35,3.8 0.17,5 -0.27,0.28 -1.59,-1.26 -2,-1.31 -2.08,1.58 0.46,4.77 1.09,6.41 A 22.52,22.52 0 0 0 136,102.5 Z"
       transform="translate(-22,-49.5)"
       id="path118"
       inkscape:connector-curvature="0"
       style="fill:#ffffff;stroke:#231f20;stroke-width:2px;stroke-miterlimit:10" />
    <path
       class="cls-19"
       d="M 66.9,166.24 38.06,153.56 a 1.82,1.82 0 0 1 -0.08,-3.3 l 3.79,-1.9 a 1.82,1.82 0 0 1 1.49,-0.06 L 75,161 a 1.82,1.82 0 0 1 -0.19,3.45 l -6.69,1.87 a 1.82,1.82 0 0 1 -1.22,-0.08 z"
       transform="translate(-22,-49.5)"
       id="path120"
       inkscape:connector-curvature="0"
       style="fill:#695433;stroke:#231f20;stroke-miterlimit:10" />
    <ellipse
       class="cls-28"
       cx="160.5"
       cy="89"
       rx="16.5"
       ry="8.5"
       id="ellipse122"
       style="fill:none;stroke:#231f20;stroke-width:3px;stroke-miterlimit:10" />
    <ellipse
       class="cls-27"
       cx="52.75"
       cy="15.25"
       rx="1.25"
       ry="4.75"
       id="ellipse124"
       style="fill:#231f20" />
    <ellipse
       class="cls-27"
       cx="67"
       cy="19.5"
       rx="1"
       ry="5"
       id="ellipse126"
       style="fill:#231f20" />
    <path
       class="cls-31"
       d="m 87,81 a 8.77,8.77 0 0 0 -4.5,2.5"
       transform="translate(-22,-49.5)"
       id="path128"
       inkscape:connector-curvature="0"
       style="fill:none" />
    <path
       class="cls-17"
       d="M 82,83.5 A 11.12,11.12 0 0 1 86.5,82"
       transform="translate(-22,-49.5)"
       id="path130"
       inkscape:connector-curvature="0"
       style="fill:none;stroke:#231f20;stroke-miterlimit:10" />
    <path
       class="cls-22"
       d="m 49,158.5 a 52.11,52.11 0 0 1 1.5,17 L 54,178 c -1.39,-6.82 -1.28,-12.4 0,-17 z"
       transform="translate(-22,-49.5)"
       id="path132"
       inkscape:connector-curvature="0"
       style="fill:#444545;stroke:#231f20;stroke-miterlimit:10" />
    <polygon
       class="cls-32"
       points="119.79,43.29 120.55,45.57 122.45,44.93 121.61,42.41 124.19,41.15 123.31,39.35 113.56,44.1 114.44,45.9 116.23,45.02 117.12,48.42 119.05,47.91 118.07,44.13 "
       id="polygon134"
       style="fill:#fff272;stroke:#231f20;stroke-miterlimit:10" />
    <path
       class="cls-33"
       d="m 37.38,228.88 c -1.31,1.75 -1.76,3.7 -0.51,5.69 0.89,1.43 3.63,2.51 5,1.21 a 3.35,3.35 0 0 1 -1.23,-5.28"
       transform="translate(-22,-49.5)"
       id="path136"
       inkscape:connector-curvature="0"
       style="fill:#070808;stroke:#231f20;stroke-miterlimit:10" />
    <path
       class="cls-17"
       d="m 41.63,236.13 a 7.64,7.64 0 0 0 3,-2.87 c 0.55,-1.13 1,-3.78 -0.53,-4.38"
       transform="translate(-22,-49.5)"
       id="path138"
       inkscape:connector-curvature="0"
       style="fill:none;stroke:#231f20;stroke-miterlimit:10" />
    <path
       class="cls-33"
       d="m 90.5,230.75 c 3.29,1.89 0.62,9.41 -3.12,6.63"
       transform="translate(-22,-49.5)"
       id="path140"
       inkscape:connector-curvature="0"
       style="fill:#070808;stroke:#231f20;stroke-miterlimit:10" />
    <path
       class="cls-17"
       d="m 86.75,231.75 c 0.8,1 1.49,1.65 1.62,2.94 0.11,1.08 -0.18,2.7 -1.5,2.81"
       transform="translate(-22,-49.5)"
       id="path142"
       inkscape:connector-curvature="0"
       style="fill:none;stroke:#231f20;stroke-miterlimit:10" />
    <path
       class="cls-17"
       d="m 83.5,231 c -1,1 -0.54,3.65 0,4.78 0.54,1.13 2.63,2.68 3.91,1.59"
       transform="translate(-22,-49.5)"
       id="path144"
       inkscape:connector-curvature="0"
       style="fill:none;stroke:#231f20;stroke-miterlimit:10" />
    <path
       class="cls-33"
       d="m 40.88,216.63 c -1.32,0.25 -0.73,4.21 1.5,3.88"
       transform="translate(-22,-49.5)"
       id="path146"
       inkscape:connector-curvature="0"
       style="fill:#070808;stroke:#231f20;stroke-miterlimit:10" />
    <path
       class="cls-17"
       d="m 44.88,216.25 c 0.61,0.39 1.47,2.12 0.75,2.25"
       transform="translate(-22,-49.5)"
       id="path148"
       inkscape:connector-curvature="0"
       style="fill:none;stroke:#231f20;stroke-miterlimit:10" />
    <path
       class="cls-17"
       d="m 79.38,216 a 0.86,0.86 0 0 0 -0.5,1.5"
       transform="translate(-22,-49.5)"
       id="path150"
       inkscape:connector-curvature="0"
       style="fill:none;stroke:#231f20;stroke-miterlimit:10" />
    <path
       class="cls-33"
       d="m 82.13,216 a 2.15,2.15 0 0 1 1.6,1.65 c 0.16,0.75 0,2.18 -0.72,2.22"
       transform="translate(-22,-49.5)"
       id="path152"
       inkscape:connector-curvature="0"
       style="fill:#070808;stroke:#231f20;stroke-miterlimit:10" />
    <line
       class="cls-17"
       x1="116.92"
       y1="57.5"
       x2="119.67"
       y2="56.669998"
       id="line154"
       style="fill:none;stroke:#231f20;stroke-miterlimit:10" />
    <line
       class="cls-17"
       x1="122.92"
       y1="57.75"
       x2="122.83"
       y2="57"
       id="line156"
       style="fill:none;stroke:#231f20;stroke-miterlimit:10" />
    <rect
       class="cls-34"
       x="140.19"
       y="123.54"
       width="3.8599999"
       height="1"
       transform="rotate(-57.37,85.877949,119.39575)"
       id="rect158"
       style="fill:#ffffff;stroke:#231f20;stroke-width:0.75px;stroke-miterlimit:10" />
    <rect
       class="cls-34"
       x="136.46001"
       y="120.67"
       width="4.9899998"
       height="1"
       transform="rotate(-56.59,81.97846,116.84785)"
       id="rect160"
       style="fill:#ffffff;stroke:#231f20;stroke-width:0.75px;stroke-miterlimit:10" />
    <rect
       class="cls-34"
       x="135.42"
       y="120.33"
       width="2.0799999"
       height="1"
       transform="rotate(-53.14,75.976675,118.08617)"
       id="rect162"
       style="fill:#ffffff;stroke:#231f20;stroke-width:0.75px;stroke-miterlimit:10" />
  </g>
  <g
     id="keys"
     transform="matrix(2.2586095,0,0,2.6493091,0.33216023,-0.5876321)">
    <path
       class="cls-32"
       d="m 220.52,137.63 v -2 l -14.93,0.28 c -0.67,-1.69 -3,-2.91 -5.8,-2.91 -3.36,0 -6,1.72 -6,3.93 0,2.21 2.64,3.93 6,3.93 2.84,0 5.16,-1.23 5.81,-2.94 l 3.44,-0.06 V 139 h 2 v -1.16 l 5.25,-0.1 V 140 h 2 v -2.32 z m -20.77,1.22 c -2.29,0 -4,-1 -4,-1.93 0,-0.93 1.71,-1.93 4,-1.93 2.29,0 4,1 4,1.93 0,0.93 -1.75,1.93 -4,1.93 z"
       transform="translate(-22,-49.5)"
       id="path165"
       inkscape:connector-curvature="0"
       style="fill:#fff272;stroke:#231f20;stroke-miterlimit:10" />
    <path
       class="cls-35"
       d="m 211,156.09 -10.74,-9.61 a 2,2 0 0 0 0.08,-0.54 c 0,-1.43 -1.4,-2.84 -3.37,-4.67 -1.97,-1.83 -3.86,-3.58 -5.72,-1.87 a 2.08,2.08 0 0 0 -0.71,1.55 c 0,1.43 1.49,2.82 3.07,4.29 1.58,1.47 3,2.83 4.53,2.83 a 2.07,2.07 0 0 0 0.73,-0.14 l 10.79,9.65 z m -16,-12.32 c -0.75,-0.7 -2.51,-2.33 -2.43,-2.82 a 0.29,0.29 0 0 1 0.07,-0.08 0.44,0.44 0 0 1 0.31,-0.12 c 0.43,0 1.15,0.55 2.7,2 0.77,0.71 2.81,2.61 2.74,3.19 v 0 c -0.61,0.48 -2.32,-1.12 -3.46,-2.17 z"
       transform="translate(-22,-49.5)"
       id="path167"
       inkscape:connector-curvature="0"
       style="fill:#666766;stroke:#231f20;stroke-miterlimit:10" />
    <path
       class="cls-30"
       d="M 207.79,154.89"
       transform="translate(-22,-49.5)"
       id="path169"
       inkscape:connector-curvature="0"
       style="fill:#ffffff;stroke:#231f20;stroke-width:2px;stroke-miterlimit:10" />
    <path
       class="cls-30"
       d="M 205.6,156.9"
       transform="translate(-22,-49.5)"
       id="path171"
       inkscape:connector-curvature="0"
       style="fill:#ffffff;stroke:#231f20;stroke-width:2px;stroke-miterlimit:10" />
    <path
       class="cls-36"
       d="M 202.66,150.14"
       transform="translate(-22,-49.5)"
       id="path173"
       inkscape:connector-curvature="0"
       style="fill:#cec4ba;stroke:#231f20;stroke-width:2px;stroke-miterlimit:10" />
    <path
       class="cls-29"
       d="M 197.15,162.84 191.36,151 a 7.44,7.44 0 0 0 0.66,-7.26 4.43,4.43 0 0 0 -3.07,-2.69 3.54,3.54 0 0 0 -3.15,1 c -1.84,1.77 -2.35,5.21 -1.15,7.83 a 4.43,4.43 0 0 0 3.07,2.69 3.27,3.27 0 0 0 2.07,-0.28 l 1.2,2.46 -1.51,1.45 1.39,1.44 1,-1 1.87,3.83 -2.57,2.53 1.39,1.44 2.15,-2.06 0.65,1.33 z m -9.06,-12.2 a 2.49,2.49 0 0 1 -1.62,-1.55 5.3,5.3 0 0 1 0.72,-5.56 1.7,1.7 0 0 1 1.15,-0.53 h 0.25 a 2.5,2.5 0 0 1 1.62,1.55 5.3,5.3 0 0 1 -0.72,5.56 1.59,1.59 0 0 1 -1.4,0.53 z"
       transform="translate(-22,-49.5)"
       id="path175"
       inkscape:connector-curvature="0"
       style="fill:#f7d064;stroke:#231f20;stroke-miterlimit:10" />
    <path
       class="cls-37"
       d="m 181.81,163.23 -1.12,0.21 -0.1,-5.22 0.65,-0.12 -0.37,-2 -0.32,0.06 -0.06,-3.43 c 1.36,-1 1.93,-3.64 1.85,-6 -0.08,-2.36 -0.74,-4.29 -1.77,-5.12 a 2,2 0 0 0 -1.59,-0.43 c -2,0.37 -2.77,3.57 -2.68,6.38 0.07,2.38 0.74,4.29 1.77,5.12 a 2.2,2.2 0 0 0 0.42,0.26 l 0.27,14.95 h 2 v -2.41 l 1.45,-0.28 z m -2.53,-20.07 c 0.28,0.12 1,1.34 1.07,3.65 0.08,2.57 -0.67,4.09 -1,4.34 -0.31,-0.22 -1,-1.43 -1,-3.63 -0.12,-2.69 0.65,-4.23 0.94,-4.36 z"
       transform="translate(-22,-49.5)"
       id="path177"
       inkscape:connector-curvature="0"
       style="fill:#cec4ba;stroke:#231f20;stroke-miterlimit:10" />
    <path
       class="cls-29"
       d="m 174.44,141.53 a 2.73,2.73 0 0 0 -1.78,-1.33 6.62,6.62 0 0 0 -4.94,1.14 c -2.32,1.47 -3.6,3.61 -3.35,5.34 l -9.55,6.32 1.11,1.66 9.43,-6.29 a 3,3 0 0 0 1.06,0.5 4.18,4.18 0 0 0 1,0.13 7.51,7.51 0 0 0 3.9,-1.27 c 2.79,-1.73 4.11,-4.38 3.12,-6.2 z m -4.15,4.56 a 4.69,4.69 0 0 1 -3.37,0.89 0.78,0.78 0 0 1 -0.53,-0.35 v 0 c -0.34,-0.63 0.42,-2.35 2.39,-3.6 a 5.49,5.49 0 0 1 2.83,-1 2.22,2.22 0 0 1 0.54,0.06 0.79,0.79 0 0 1 0.53,0.35 c 0.32,0.68 -0.41,2.39 -2.38,3.65 z"
       transform="translate(-22,-49.5)"
       id="path179"
       inkscape:connector-curvature="0"
       style="fill:#f7d064;stroke:#231f20;stroke-miterlimit:10" />
    <path
       class="cls-37"
       d="m 173.88,135 a 3.74,3.74 0 0 0 -2.43,-2.71 7.69,7.69 0 0 0 -4.2,-0.37 c -2.83,0.49 -4.9,2.21 -5.2,4.14 l -3.36,0.65 -0.22,-1.29 -2,0.34 0.23,1.32 -5.15,1 -0.44,-2.52 -2,0.34 0.45,2.56 -2.23,0.43 0.38,2 14.71,-2.89 a 4.13,4.13 0 0 0 2.07,1.74 7.08,7.08 0 0 0 2.7,0.5 8.75,8.75 0 0 0 1.5,-0.13 7.68,7.68 0 0 0 3.83,-1.77 3.74,3.74 0 0 0 1.36,-3.34 z m -2.72,1.89 a 6.21,6.21 0 0 1 -5.91,1 c -0.41,-0.17 -1.11,-0.55 -1.22,-1.21 -0.18,-1 1.25,-2.42 3.57,-2.82 a 5.74,5.74 0 0 1 3.09,0.25 c 0.41,0.17 1.11,0.55 1.22,1.21 a 1.88,1.88 0 0 1 -0.74,1.55 z"
       transform="translate(-22,-49.5)"
       id="path181"
       inkscape:connector-curvature="0"
       style="fill:#cec4ba;stroke:#231f20;stroke-miterlimit:10" />
    <path
       class="cls-37"
       d="m 148.92,107.44 -14.86,-1.14 a 2.4,2.4 0 0 0 -0.33,-0.59 c -0.83,-1.09 -2.74,-1.89 -5,-2.09 -2.92,-0.26 -6.06,0.52 -6.42,2.54 a 2.12,2.12 0 0 0 0.45,1.7 c 0.83,1.09 2.74,1.89 5,2.09 0.36,0 0.73,0 1.1,0 2.09,0 4.08,-0.56 4.92,-1.72 l 15,1.15 z M 128,108 c -2.49,-0.23 -3.64,-1.18 -3.67,-1.45 -0.03,-0.27 1.25,-0.94 3.32,-0.94 0.3,0 0.61,0 0.95,0 2.48,0.23 3.63,1.17 3.67,1.45 0.04,0.28 -1.67,1.14 -4.27,0.94 z m 4.27,-0.9 v 0"
       transform="translate(-22,-49.5)"
       id="path183"
       inkscape:connector-curvature="0"
       style="fill:#cec4ba;stroke:#231f20;stroke-miterlimit:10" />
    <path
       class="cls-29"
       d="M 143.75,126.25 131.43,118 a 6,6 0 1 0 -5.42,3.4 6.12,6.12 0 0 0 1,-0.08 6,6 0 0 0 3.25,-1.69 l 12.37,8.27 z m -17.07,-6.89 a 4,4 0 0 1 -1.31,-7.89 4.06,4.06 0 0 1 0.66,-0.05 4,4 0 0 1 0.65,7.95 z"
       transform="translate(-22,-49.5)"
       id="path185"
       inkscape:connector-curvature="0"
       style="fill:#f7d064;stroke:#231f20;stroke-miterlimit:10" />
    <path
       class="cls-32"
       d="m 127.79,138.89 -0.48,-1 2.44,-1.26 -1.08,-2.17 -2.4,1.17 -4.68,-10.16 a 6,6 0 0 0 2.28,-7.37 6,6 0 1 0 -5.53,8.34 6,6 0 0 0 1.41,-0.18 l 6.25,13.47 z m -11,-14.79 a 4,4 0 1 1 3.06,0 4,4 0 0 1 -3.02,0 z"
       transform="translate(-22,-49.5)"
       id="path187"
       inkscape:connector-curvature="0"
       style="fill:#fff272;stroke:#231f20;stroke-miterlimit:10" />
    <path
       class="cls-37"
       d="m 118.17,119.9 a 6.87,6.87 0 0 0 -1.86,-4.82 3.47,3.47 0 0 0 -2.57,-1 c -2.41,0.08 -4.26,2.78 -4.21,6.13 a 6.87,6.87 0 0 0 1.86,4.82 3.74,3.74 0 0 0 1.57,0.91 l 0.54,14.91 2,-0.07 -0.24,-4.06 2.79,-0.09 0.21,-2 -3,-0.08 v -1.09 l 2.36,-0.08 0.17,-1.58 -2.59,-0.09 -0.21,-5.83 c 1.87,-0.72 3.22,-3.11 3.18,-5.98 z m -4.28,4.1 a 1.64,1.64 0 0 1 -1.13,-0.5 4.93,4.93 0 0 1 -1.24,-3.41 c 0,-2.37 1.17,-4.06 2.28,-4.1 v 0 a 1.57,1.57 0 0 1 1.08,0.5 4.93,4.93 0 0 1 1.24,3.41 c 0.08,2.4 -1.12,4.1 -2.23,4.1 z"
       transform="translate(-22,-49.5)"
       id="path189"
       inkscape:connector-curvature="0"
       style="fill:#cec4ba;stroke:#231f20;stroke-miterlimit:10" />
    <path
       class="cls-35"
       d="m 114.92,116.19 a 3.52,3.52 0 0 0 -2.34,-1.49 c -2.39,-0.36 -4.69,2 -5.25,5.27 a 6.87,6.87 0 0 0 1,5.08 3.74,3.74 0 0 0 1.38,1.17 l -2.21,14.78 2,0.29 2.16,-14.76 c 2,-0.32 3.76,-2.4 4.23,-5.24 a 6.87,6.87 0 0 0 -0.97,-5.1 z m -1,4.75 c -0.39,2.34 -1.9,3.8 -3,3.62 a 1.55,1.55 0 0 1 -1,-0.69 4.93,4.93 0 0 1 -0.6,-3.57 c 0.39,-2.34 1.89,-3.8 3,-3.62 a 1.55,1.55 0 0 1 1,0.69 4.93,4.93 0 0 1 0.58,3.56 z"
       transform="translate(-22,-49.5)"
       id="path191"
       inkscape:connector-curvature="0"
       style="fill:#666766;stroke:#231f20;stroke-miterlimit:10" />
    <path
       class="cls-32"
       d="m 111.42,116 a 3.52,3.52 0 0 0 -1.82,-2.1 c -2.19,-1 -5.06,0.54 -6.53,3.56 a 6.88,6.88 0 0 0 -0.53,5.14 3.74,3.74 0 0 0 1,1.52 l -6.27,13.54 1.82,0.84 6.25,-13.5 a 3.48,3.48 0 0 0 0.44,0 c 1.89,0 3.94,-1.48 5.1,-3.87 a 6.87,6.87 0 0 0 0.54,-5.13 z m -2.32,4.26 c -1,2.13 -2.88,3.09 -3.89,2.62 v 0 a 1.55,1.55 0 0 1 -0.78,-0.95 4.93,4.93 0 0 1 0.44,-3.6 c 0.87,-1.77 2.29,-2.74 3.33,-2.74 a 1.33,1.33 0 0 1 0.56,0.12 1.56,1.56 0 0 1 0.78,1 4.93,4.93 0 0 1 -0.45,3.6 z"
       transform="translate(-22,-49.5)"
       id="path193"
       inkscape:connector-curvature="0"
       style="fill:#fff272;stroke:#231f20;stroke-miterlimit:10" />
    <path
       class="cls-29"
       d="m 110.26,116.3 a 3.52,3.52 0 0 0 -1.19,-2.51 c -1.83,-1.57 -5,-0.83 -7.24,1.68 a 6.87,6.87 0 0 0 -1.89,4.81 3.74,3.74 0 0 0 0.55,1.73 l -9.67,11.37 1.52,1.29 9.66,-11.36 a 3.8,3.8 0 0 0 1.49,0.3 7.52,7.52 0 0 0 6.77,-7.31 z m -3.38,3.49 c -1.57,1.77 -3.61,2.21 -4.45,1.48 v 0 a 1.55,1.55 0 0 1 -0.5,-1.12 5.55,5.55 0 0 1 4.78,-5.16 1.61,1.61 0 0 1 1.06,0.33 1.55,1.55 0 0 1 0.5,1.12 4.93,4.93 0 0 1 -1.39,3.34 z"
       transform="translate(-22,-49.5)"
       id="path195"
       inkscape:connector-curvature="0"
       style="fill:#f7d064;stroke:#231f20;stroke-miterlimit:10" />
    <path
       class="cls-35"
       d="m 108,112.24 c -1.57,-1.83 -4.83,-1.59 -7.42,0.55 a 6.87,6.87 0 0 0 -2.6,4.47 3.74,3.74 0 0 0 0.28,1.79 l -11.26,9.73 1.31,1.51 11.3,-9.74 a 4.06,4.06 0 0 0 2.15,0.58 7.23,7.23 0 0 0 4.48,-1.77 6.87,6.87 0 0 0 2.6,-4.47 3.52,3.52 0 0 0 -0.84,-2.65 z m -3,5.58 c -1.83,1.51 -3.9,1.62 -4.62,0.78 a 1.55,1.55 0 0 1 -0.32,-1.19 4.94,4.94 0 0 1 1.88,-3.09 c 1.82,-1.51 3.9,-1.62 4.62,-0.78 a 1.56,1.56 0 0 1 0.32,1.19 4.94,4.94 0 0 1 -1.88,3.09 z"
       transform="translate(-22,-49.5)"
       id="path197"
       inkscape:connector-curvature="0"
       style="fill:#666766;stroke:#231f20;stroke-miterlimit:10" />
    <path
       class="cls-27"
       d="m 99.63,113.08 a 9.49,9.49 0 0 0 4.79,4.54 c 1,-0.54 1.62,-1 1.88,-2.08 a 7.51,7.51 0 0 1 -4.29,-4.25 z"
       transform="translate(-22,-49.5)"
       id="path199"
       inkscape:connector-curvature="0"
       style="fill:#231f20" />
    <path
       class="cls-27"
       d="m 111.33,119.67 a 3.62,3.62 0 0 0 2.5,0.33 4.75,4.75 0 0 0 -1.08,-3 z"
       transform="translate(-22,-49.5)"
       id="path201"
       inkscape:connector-curvature="0"
       style="fill:#231f20" />
    <path
       class="cls-27"
       d="m 126.25,107.08 a 8.63,8.63 0 0 1 -0.83,2.25 l 2.88,0.63 a 7.49,7.49 0 0 0 0.88,-2.42 z"
       transform="translate(-22,-49.5)"
       id="path203"
       inkscape:connector-curvature="0"
       style="fill:#231f20" />
    <path
       class="cls-27"
       d="M 164.88,140.56 A 10.42,10.42 0 0 1 164.66,137 l 2.91,0.81 a 5.64,5.64 0 0 0 0.75,3.22 z"
       transform="translate(-22,-49.5)"
       id="path205"
       inkscape:connector-curvature="0"
       style="fill:#231f20" />
    <path
       class="cls-27"
       d="m 169.84,145.69 a 17.79,17.79 0 0 0 3.31,1.28 l 1.81,-2.34 a 13.93,13.93 0 0 1 -3.06,-1 z"
       transform="translate(-22,-49.5)"
       id="path207"
       inkscape:connector-curvature="0"
       style="fill:#231f20" />
    <polygon
       class="cls-27"
       points="157.66,98.78 160.81,98.91 160.88,96.16 157.44,96 "
       id="polygon209"
       style="fill:#231f20" />
    <polygon
       class="cls-27"
       points="161.31,98.94 165.06,98.63 164.94,95.81 161.19,96.13 "
       id="polygon211"
       style="fill:#231f20" />
    <path
       class="cls-27"
       d="m 196.63,144.66 a 24.72,24.72 0 0 0 2.38,-2.12 l -2.66,-2.06 a 6.8,6.8 0 0 1 -1.75,2.06 z"
       transform="translate(-22,-49.5)"
       id="path213"
       inkscape:connector-curvature="0"
       style="fill:#231f20" />
    <path
       class="cls-27"
       d="m 196.75,136.41 a 9.45,9.45 0 0 0 -2.44,-2.25 l 3,-1.31 a 21.82,21.82 0 0 1 2.38,2.72 z"
       transform="translate(-22,-49.5)"
       id="path215"
       inkscape:connector-curvature="0"
       style="fill:#231f20" />
    <polygon
       class="cls-24"
       points="85.67,88.75 84.17,87.75 84.58,85.92 86,86.92 "
       id="polygon217"
       style="fill:#ffffff;stroke:#231f20;stroke-miterlimit:10" />
    <polygon
       class="cls-32"
       points="81.08,85.17 78.17,84.92 78.83,83.33 81.67,83.33 "
       id="polygon219"
       style="fill:#fff272;stroke:#231f20;stroke-miterlimit:10" />
    <polygon
       class="cls-35"
       points="70.17,79.17 68,78.17 69.67,76.83 71.92,77.58 "
       id="polygon221"
       style="fill:#666766;stroke:#231f20;stroke-miterlimit:10" />
    <polygon
       class="cls-32"
       points="69.67,82.5 67.42,82 68.75,80.5 71.25,80.83 "
       id="polygon223"
       style="fill:#fff272;stroke:#231f20;stroke-miterlimit:10" />
  </g>
</svg>
