<?xml version="1.0" encoding="UTF-8" standalone="no"?>
<!-- Generator: Adobe Illustrator 21.1.0, SVG Export Plug-In . SVG Version: 6.00 Build 0)  -->

<svg
   xmlns:dc="http://purl.org/dc/elements/1.1/"
   xmlns:cc="http://creativecommons.org/ns#"
   xmlns:rdf="http://www.w3.org/1999/02/22-rdf-syntax-ns#"
   xmlns:svg="http://www.w3.org/2000/svg"
   xmlns="http://www.w3.org/2000/svg"
   xmlns:sodipodi="http://sodipodi.sourceforge.net/DTD/sodipodi-0.dtd"
   xmlns:inkscape="http://www.inkscape.org/namespaces/inkscape"
   version="1.1"
   id="Layer_1"
   x="0px"
   y="0px"
   viewBox="0 0 500 500"
   xml:space="preserve"
   sodipodi:docname="Scenario-Traffic-Fast-Lane.svg"
   width="500"
   height="500"
   inkscape:version="0.92.2 (30a58d1, 2017-08-07)"><metadata
     id="metadata440"><rdf:RDF><cc:Work
         rdf:about=""><dc:format>image/svg+xml</dc:format><dc:type
           rdf:resource="http://purl.org/dc/dcmitype/StillImage" /></cc:Work></rdf:RDF></metadata><defs
     id="defs438" /><sodipodi:namedview
     pagecolor="#ffffff"
     bordercolor="#666666"
     borderopacity="1"
     objecttolerance="10"
     gridtolerance="10"
     guidetolerance="10"
     inkscape:pageopacity="0"
     inkscape:pageshadow="2"
     inkscape:window-width="1366"
     inkscape:window-height="717"
     id="namedview436"
     showgrid="false"
     inkscape:zoom="0.8973384"
     inkscape:cx="300"
     inkscape:cy="263"
     inkscape:window-x="0"
     inkscape:window-y="27"
     inkscape:window-maximized="1"
     inkscape:current-layer="Layer_1" /><style
     type="text/css"
     id="style2">
	.st0{fill:#4C4B4C;}
	.st1{fill:none;stroke:#FFDE77;stroke-width:6;stroke-miterlimit:10;}
	.st2{fill:#FFDE77;}
	.st3{fill:#40403F;}
	.st4{fill:#717187;}
	.st5{fill:#353535;}
	.st6{fill:#ED2024;stroke:#231F20;stroke-miterlimit:10;}
	.st7{fill:#ED6A56;stroke:#000000;stroke-miterlimit:10;}
	.st8{fill:none;stroke:#000000;stroke-miterlimit:10;}
	.st9{fill:#5974B8;stroke:#231F20;stroke-miterlimit:10;}
	.st10{fill:none;stroke:#262626;stroke-miterlimit:10;}
	.st11{fill:none;stroke:#231F20;stroke-miterlimit:10;}
	.st12{fill:#FFFFFF;stroke:#231F20;stroke-miterlimit:10;}
	.st13{fill:#6C5CA8;stroke:#231F20;stroke-miterlimit:10;}
	.st14{fill:none;stroke:#34343A;stroke-miterlimit:10;}
	.st15{fill:#555567;}
	.st16{fill:none;stroke:#000000;stroke-width:3;stroke-miterlimit:10;}
	.st17{fill:#FFFFFF;stroke:#000000;stroke-miterlimit:10;}
	.st18{fill:#FDF6AD;}
	.st19{fill:#704B4A;}
	.st20{fill:#BF7171;}
	.st21{fill:#A3A1A1;}
	.st22{fill:#7997AF;}
	.st23{fill:#0D131B;}
	.st24{fill:#F2DB6A;}
	.st25{fill:#3A3A3A;}
	.st26{fill:#232323;}
	.st27{fill:#9B3D47;}
	.st28{fill:#FFFFFF;stroke:#000000;stroke-width:0.5;stroke-miterlimit:10;}
	.st29{fill:none;}
	.st30{fill:#231F20;}
	.st31{fill:#FFFFFF;}
	.st32{fill:none;stroke:#000000;stroke-width:0.75;stroke-miterlimit:10;}
	.st33{fill:none;stroke:#000000;stroke-width:0.5;stroke-miterlimit:10;}
	.st34{fill:url(#SVGID_1_);}
	.st35{fill:#DDC5DF;stroke:#B881B8;stroke-miterlimit:10;}
	.st36{fill:#FFEFAF;}
	.st37{fill:#F2AF1D;stroke:#231F20;stroke-miterlimit:10;}
	.st38{fill:#FCDA70;}
	.st39{fill:#7C5D3C;}
	.st40{fill:#4D4D5F;}
	.st41{fill:#F2AF1D;}
	.st42{fill:#BCBBBB;}
	.st43{fill:#8DC63F;}
	.st44{fill:#695F75;}
	.st45{fill:#F2AF1D;stroke:#000000;stroke-miterlimit:10;}
	.st46{fill:#84A6D7;stroke:#000000;stroke-miterlimit:10;}
	.st47{fill:#AAAAAB;}
	.st48{fill:#181818;}
	.st49{fill:#F9D332;}
	.st50{fill:#2B2B2B;}
	.st51{fill:#FFF6D3;}
	.st52{fill:#393A44;}
	.st53{fill:#6D6C6D;}
</style><title
     id="title4">Traffic (Fast Lane)</title><g
     id="road"
     transform="matrix(0.93720871,0,0,0.95057034,-62.325223,1.16e-6)"><polygon
       class="st0"
       points="508,156.6 446,112.9 23.1,191 223,526 564,188.9 "
       id="polygon6"
       style="fill:#4c4b4c" /><line
       class="st1"
       x1="41"
       y1="234.89999"
       x2="462"
       y2="154.89999"
       id="line8"
       style="fill:none;stroke:#ffde77;stroke-width:6;stroke-miterlimit:10" /><line
       class="st1"
       x1="555"
       y1="181.89999"
       x2="222"
       y2="503"
       id="line10"
       style="fill:none;stroke:#ffde77;stroke-width:6;stroke-miterlimit:10" /><line
       class="st1"
       x1="349.5"
       y1="227.89999"
       x2="355"
       y2="176.39999"
       id="line12"
       style="fill:none;stroke:#ffde77;stroke-width:6;stroke-miterlimit:10" /><line
       class="st1"
       x1="305.5"
       y1="251.89999"
       x2="313"
       y2="184.89999"
       id="line14"
       style="fill:none;stroke:#ffde77;stroke-width:6;stroke-miterlimit:10" /><line
       class="st1"
       x1="260"
       y1="281"
       x2="271"
       y2="190.89999"
       id="line16"
       style="fill:none;stroke:#ffde77;stroke-width:6;stroke-miterlimit:10" /><line
       class="st1"
       x1="209.5"
       y1="315.5"
       x2="223.5"
       y2="200.89999"
       id="line18"
       style="fill:none;stroke:#ffde77;stroke-width:6;stroke-miterlimit:10" /><line
       class="st1"
       x1="141"
       y1="359"
       x2="158"
       y2="214.39999"
       id="line20"
       style="fill:none;stroke:#ffde77;stroke-width:6;stroke-miterlimit:10" /><line
       class="st1"
       x1="90.699997"
       y1="303.29999"
       x2="98.5"
       y2="226.39999"
       id="line22"
       style="fill:none;stroke:#ffde77;stroke-width:6;stroke-miterlimit:10" /><polygon
       class="st2"
       points="460.4,152.4 126.9,366.6 130,371.7 463.6,157.5 "
       id="polygon24"
       style="fill:#ffde77" /></g><g
     id="Layer_5"
     transform="matrix(0.93720871,0,0,0.95057034,-62.325223,1.16e-6)"><path
       class="st3"
       d="m 289.1,114.1 5.8,0.9 c 0.9,0.1 1.8,-0.1 2.5,-0.7 0.3,-0.3 3.4,0 3.7,-0.4 0.1,-0.2 0.6,-0.9 0.1,-1.3 -0.7,-0.4 -2.5,-0.5 -2.4,-0.8 v 0 c 0.4,-1.9 -0.8,-3.8 -2.6,-4.2 l -5.8,-0.9 c -1.9,-0.2 -3.6,1.2 -3.8,3.2 v 0 c -0.6,1.8 0.6,3.7 2.5,4.2 z"
       id="path27"
       inkscape:connector-curvature="0"
       style="fill:#40403f" /><path
       class="st4"
       d="m 93,123.2 c 0.4,-0.1 30.1,-0.6 30.1,-0.6 l 3.5,-21.6 5.1,0.5 -3.4,20.9 h 21.9 l 0.3,-16.5 2.4,-5.6 3,0.4 -2.4,15.3 23.3,1.1 7.5,25.9 -50.3,0.1 -42.3,-13.4 z"
       id="path29"
       inkscape:connector-curvature="0"
       style="fill:#717187" /><polygon
       class="st4"
       points="273.9,132.8 239.5,140.6 191.4,131.1 193.1,127.1 214.4,124.3 218,111.9 221.3,105.4 262,106.4 "
       id="polygon31"
       style="fill:#717187" /><polygon
       class="st4"
       points="303.8,85.9 306.4,86.4 297.6,110.6 320.9,104.2 325.3,84.2 330.4,83.9 329.4,94.1 369.4,96.3 370.1,121.3 340,127.4 291,117.7 294.8,110.9 "
       id="polygon33"
       style="fill:#717187" /><path
       class="st5"
       d="m 359.4,166.6 c 0,0 -7.5,0.1 -9.4,-1.3 -1.2,-0.9 -2,-3.9 -2.3,-5.3 -0.6,-2.6 -2,-10.3 -2,-10.3 l 3.7,-8 9.3,-1.7 z"
       id="path35"
       inkscape:connector-curvature="0"
       style="fill:#353535" /><path
       class="st5"
       d="m 389.4,161.6 c 0,0 -5.8,0.1 -7.4,-1 -1.5,-1.3 -2.6,-2.9 -3.3,-4.8 -0.5,-2.1 -0.8,-4.2 -0.9,-6.4 0,-0.9 0.1,-3.2 0.1,-3.2 l 7,-2 z"
       id="path37"
       inkscape:connector-curvature="0"
       style="fill:#353535" /><path
       class="st5"
       d="m 280.9,180.2 c 0,0 0.7,0.4 -0.7,-0.6 -1.2,-0.8 -7.3,-1.5 -7.7,-2.9 -0.8,-2.6 -3,-12.3 -3,-12.3 l 4.8,-7.7 5.7,0.3 z"
       id="path39"
       inkscape:connector-curvature="0"
       style="fill:#353535" /><path
       class="st5"
       d="m 250,183.2 c 0,0 -5.8,0.4 -7.3,-0.7 -1.9,-1.4 -3.4,-9 -3.4,-9 l 2.3,-8 5,-9 4.7,10 z"
       id="path41"
       inkscape:connector-curvature="0"
       style="fill:#353535" /><path
       class="st5"
       d="m 181.6,193.9 c 0,0 -7.4,0.9 -9.3,-0.6 -1.3,-1 -1.9,-4.6 -2,-6.3 -0.1,-1.7 -0.8,-6.1 -0.8,-6.1 l 1,-15.4 13,3.7 z"
       id="path43"
       inkscape:connector-curvature="0"
       style="fill:#353535" /><path
       class="st5"
       d="m 159,198 c 0,0 -7.8,-0.4 -9.7,-2 -1.3,-1.1 -2.6,-4.5 -3,-6.1 -0.4,-1.6 -1.3,-6.9 -1.3,-6.9 l 0.7,-6.3 5,-9.7 7.3,5.7 z"
       id="path45"
       inkscape:connector-curvature="0"
       style="fill:#353535" /></g><g
     id="cars"
     transform="matrix(0.93720871,0,0,0.95057034,-62.325223,1.16e-6)"><g
       id="people_2"><polyline
         class="st6"
         points="343,102.2 347,106.7 351.3,119.4 326.3,117.2 331,104.7 343,102.2 343,102.2 343,102.2   "
         id="polyline48"
         style="fill:#ed2024;stroke:#231f20;stroke-miterlimit:10" /><path
         class="st7"
         d="m 255,111.1 c 0,0 -3.1,9.6 -4.7,12.5 -1.8,3.4 -8.8,12.5 -8.8,12.5 l 15.8,4 5.3,-5.2 1,-12.3 -0.3,-9.7 z"
         id="path50"
         inkscape:connector-curvature="0"
         style="fill:#ed6a56;stroke:#000000;stroke-miterlimit:10" /><path
         class="st8"
         d="m 254.5,112.2 c -0.5,1.6 -6.4,9.4 -8,11.1 -2.3,2.5 -11,5.1 -11.5,5.6"
         id="path52"
         inkscape:connector-curvature="0"
         style="fill:none;stroke:#000000;stroke-miterlimit:10" /><path
         class="st9"
         d="m 157.5,125 -3,20 c 0,0 -19.3,-0.8 -18.8,-1.5 0.5,-0.7 16.8,-20.5 16.8,-20.5 z"
         id="path54"
         inkscape:connector-curvature="0"
         style="fill:#5974b8;stroke:#231f20;stroke-miterlimit:10" /><path
         class="st10"
         d="m 141.1,131.6 c 1.5,5.3 -4.4,6.7 -8.7,6.7 -4.3,0 -9.3,-4.2 -8.4,-7.7 0.9,-3.9 4.4,-6.7 8.4,-6.6 4.3,0.1 7.6,3.8 8.7,7.6 z"
         id="path56"
         inkscape:connector-curvature="0"
         style="fill:none;stroke:#262626;stroke-miterlimit:10" /><path
         class="st11"
         d="m 151.8,123.2 c -3.1,-0.6 -7.3,0.1 -10.6,0.3 -3.2,0.2 -7.2,0.5 -9.9,0.5"
         id="path58"
         inkscape:connector-curvature="0"
         style="fill:none;stroke:#231f20;stroke-miterlimit:10" /><path
         class="st12"
         d="m 133.7,128.4 c -0.3,0.8 -0.6,-1.2 -1.2,-1 -0.6,0.2 -1.3,1.8 -1.8,1.6 -1,-0.3 -1.8,-1.1 -1.2,-3 0.6,-1.9 2.9,-2.8 3.9,-2.4 1,0.4 0.9,2.9 0.3,4.8 z"
         id="path60"
         inkscape:connector-curvature="0"
         style="fill:#ffffff;stroke:#231f20;stroke-miterlimit:10" /><polygon
         class="st13"
         points="214.6,123.7 213.9,132 223.7,133.1 222.5,126.2 220.3,121.3 "
         id="polygon62"
         style="fill:#6c5ca8;stroke:#231f20;stroke-miterlimit:10" /><ellipse
         class="st14"
         cx="332.70001"
         cy="114.6"
         rx="6.8000002"
         ry="6.3000002"
         id="ellipse64"
         style="fill:none;stroke:#34343a;stroke-miterlimit:10" /><ellipse
         class="st12"
         cx="339.39999"
         cy="110.6"
         rx="3.0999999"
         ry="2.9000001"
         id="ellipse66"
         style="fill:#ffffff;stroke:#231f20;stroke-miterlimit:10" /><ellipse
         class="st12"
         cx="328.79999"
         cy="109.9"
         rx="2.9000001"
         ry="2.4000001"
         id="ellipse68"
         style="fill:#ffffff;stroke:#231f20;stroke-miterlimit:10" /><polygon
         class="st15"
         points="320.8,109.4 334,110.3 342.3,111.9 341.1,117.2 300.3,115.6 292.1,115.6 293.8,111.2 "
         id="polygon70"
         style="fill:#555567" /><ellipse
         class="st16"
         cx="229.8"
         cy="137.39999"
         rx="7.5"
         ry="7.8000002"
         id="ellipse72"
         style="fill:none;stroke:#000000;stroke-width:3;stroke-miterlimit:10" /><path
         class="st17"
         d="m 235.8,129.5 c -0.4,-2.3 -3,-1.9 -4.4,-1 -2.5,1.6 -1.2,3.3 0.7,0.9 -1,1.6 0.4,2.6 1.4,0.8 -1.3,2.9 2.3,1.4 2.3,-1.2 -0.3,-0.1 -0.2,0.1 -0.3,0.1"
         id="path74"
         inkscape:connector-curvature="0"
         style="fill:#ffffff;stroke:#000000;stroke-miterlimit:10" /></g><path
       class="st3"
       d="m 440.3,127.3 c 0,2.3 -15.7,4.3 -30.3,4.3 -14.6,0 -28.7,-8.7 -28.7,-11 0,-2.3 12.4,5.3 27,5.3 14.6,0 32,-0.9 32,1.4 z"
       id="path77"
       inkscape:connector-curvature="0"
       style="fill:#40403f" /><path
       class="st18"
       d="m 379.5,100.6 c 0.2,4.1 5,9 9.3,8.9 4.3,-0.1 6.4,-5.4 6.2,-9.5 -0.2,-4.1 -7.6,-11.4 -11.9,-11.2 -4.3,0.2 -3.8,7.6 -3.6,11.8 z"
       id="path79"
       inkscape:connector-curvature="0"
       style="fill:#fdf6ad" /><polygon
       class="st19"
       points="400.8,104.6 390.2,121.8 373.3,124.3 374.3,104.4 "
       id="polygon81"
       style="fill:#704b4a" /><path
       class="st20"
       d="m 377.5,109.6 -5.4,-26.5 c 0,0 -30.4,-4 -38.4,-4.1 -8.8,-0.1 -28.3,3.1 -28.3,3.1 0,0 -10.5,7 -14.5,32 -0.6,3.5 -17.2,7.4 -17.3,10.5 0,15.3 3,27.9 17.8,33.8 8.5,3.4 24.4,3.3 37,3.3 22.4,0 72,-20.9 72,-20.9 l 0.3,-36 z m -64.1,4 c -5,-0.3 -19.5,0.6 -19.5,0.6 l 5.8,-14.9 5.3,-11.7 c 0,0 11.7,-1.7 15.7,-2 4.7,-0.4 9.3,-0.4 14,0 l 12.8,1.7 -7.4,28.6 c 0,0.1 -20.2,-1.9 -26.7,-2.3 z m 55.2,-3 -21.4,5.4 1.8,-7 5.3,-21.3 14.7,0.3 z"
       id="path83"
       inkscape:connector-curvature="0"
       style="fill:#bf7171" /><polygon
       class="st21"
       points="289.3,159.6 289,148.4 326.8,153.8 339.5,151.4 341.5,152.1 342.7,161.6 324.3,163.8 "
       id="polygon85"
       style="fill:#a3a1a1" /><path
       class="st18"
       d="m 281.1,131.8 8.2,0.9 c 1.6,0.2 2.7,1.6 2.5,3.2 l -0.4,3.2 c -0.2,1.6 -1.6,2.7 -3.2,2.5 l -8.2,-0.9 c -1.6,-0.2 -2.7,-1.6 -2.5,-3.2 l 0.4,-3.2 c 0.2,-1.5 1.7,-2.7 3.2,-2.5 z"
       id="path87"
       inkscape:connector-curvature="0"
       style="fill:#fdf6ad" /><polygon
       points="308.4,150.1 309.6,137.1 311.7,137.4 310.5,150.4 "
       id="polygon89" /><rect
       x="299.39999"
       y="142"
       transform="matrix(0.09567202,-0.9954,0.9954,0.09567202,134.3872,433.7656)"
       width="13"
       height="1.8"
       id="rect91" /><rect
       x="295.70001"
       y="141.60001"
       transform="matrix(0.09567202,-0.9954,0.9954,0.09567202,131.3978,429.6613)"
       width="13"
       height="1.8"
       id="rect93" /><rect
       x="291.70001"
       y="141.3"
       transform="matrix(0.09567202,-0.9954,0.9954,0.09567202,128.1208,425.372)"
       width="13"
       height="1.8"
       id="rect95" /><rect
       x="288"
       y="140.7"
       transform="matrix(0.09567202,-0.9954,0.9954,0.09567202,125.4131,421.1549)"
       width="13"
       height="1.8"
       id="rect97" /><path
       class="st22"
       d="m 294.5,149.5 c 0,-12.9 -7.6,-29.7 -14.5,-39.5 -12.8,-18 -24.9,-12.3 -43.8,-12.3 -23,0 -39,9.5 -48.3,28.8 -3.6,7.4 -3,12.3 -3,21 0,13.8 -2,28.6 8.1,28.6 13.9,-0.1 26.1,4.4 47.4,0.9 24.2,-4 38.8,-5.3 50.5,-11.8 4.3,-2.3 3.6,-7.9 3.6,-15.7 z M 238.7,136 c 0,0 -20.1,-5.6 -27,-6.3 -4.7,-0.6 -18.7,0.3 -18.7,0.3 0,0 1.2,-3.4 1.5,-4.5 0.9,-3.4 9.7,-15.1 14.8,-17.3 3.1,-1.4 11,-1.7 13.6,-1.5 5.4,0.4 17.5,1.6 17.5,1.6 z m 6,-0.4 0.7,-27.3 17,-1 8,24 z"
       id="path99"
       inkscape:connector-curvature="0"
       style="fill:#7997af" /><path
       class="st23"
       d="m 224,165.2 c 0,3 -12.1,2.8 -23.5,2.8 -11.4,0 -18.8,-4.3 -18.8,-7.3 0,-3 7.6,2.5 19,2.5 11.4,0 23.3,-1 23.3,2 z"
       id="path101"
       inkscape:connector-curvature="0"
       style="fill:#0d131b" /><path
       class="st3"
       d="m 77.8,124.5 c -0.6,1.9 1.4,4.2 4.4,5.1 1.2,0.4 2.4,0.4 3.6,0.2 1,-0.2 4.5,1.5 5,0.9 0.2,-0.3 -2.3,-2.7 -2.2,-3 0.6,-1.9 -1.4,-4.2 -4.4,-5.1 -3,-0.9 -5.8,0 -6.4,1.9 z"
       id="path103"
       inkscape:connector-curvature="0"
       style="fill:#40403f" /><path
       class="st24"
       d="m 192,171.3 c -0.7,-42.7 -14,-86.7 -55.3,-84 -29.1,1.9 -40.2,15.9 -48.9,39.7 -2.2,6.1 -11.1,6.3 -11.1,6.3 l 10,36 12,4.7 3.3,14.7 c 0,0 39.9,3.7 75,-6.2 4.2,-1.2 13.6,-1.9 16.3,-3.2 3.3,-1.6 -1.3,-8 -1.3,-8 z m -99,-42.6 11.6,-23.4 c 0,0 5.5,-1.7 7.7,-2 3.4,-0.6 10.5,-0.3 14,0 3,0.3 12,1.7 12,1.7 l 3,1.7 2.7,17.3 0.3,9 z m 76,6.5 c -4.8,-0.1 -18.5,-0.8 -18.5,-0.8 l -1.8,-12.8 -3,-16 c 3.5,-0.7 7.1,-1.3 10.7,-1.7 3.1,0.2 6.2,0.5 9.3,1 0,0 4.8,6.3 6,8.7 2.1,3.9 6.3,16.7 6.3,16.7 l 1.3,5.4 c 0,0 -7.6,-0.4 -10.3,-0.5 z"
       id="path105"
       inkscape:connector-curvature="0"
       style="fill:#f2db6a" /><path
       class="st5"
       d="m 130.5,183 c 0,3.2 -14.3,4.5 -32,2.8 -9.3,-0.9 -18.8,-1.3 -18.8,-4.5 0,-3.2 4.5,-3 14.8,-1.5 9.7,1.4 36,0 36,3.2 z"
       id="path107"
       inkscape:connector-curvature="0"
       style="fill:#353535" /><ellipse
       class="st25"
       cx="250.5"
       cy="169.89999"
       rx="7.1999998"
       ry="13.3"
       id="ellipse109"
       style="fill:#3a3a3a" /><ellipse
       class="st25"
       cx="280.39999"
       cy="166.8"
       rx="6.1999998"
       ry="12.8"
       id="ellipse111"
       style="fill:#3a3a3a" /><ellipse
       class="st25"
       cx="359.5"
       cy="153.3"
       rx="6.1999998"
       ry="13.3"
       id="ellipse113"
       style="fill:#3a3a3a" /><ellipse
       class="st25"
       cx="389.10001"
       cy="148.3"
       rx="6.1999998"
       ry="13.3"
       id="ellipse115"
       style="fill:#3a3a3a" /><ellipse
       transform="matrix(0.06191961,-0.9981,0.9981,0.06191961,-29.2518,327.9961)"
       class="st25"
       cx="159.89999"
       cy="179.60001"
       rx="18.4"
       ry="8.3999996"
       id="ellipse117"
       style="fill:#3a3a3a" /><path
       class="st25"
       d="m 187,177.1 c -0.5,10.1 -3.4,17.2 -6.3,17.1 -2.9,-0.1 -4.9,-6.7 -4.4,-16.8 0.5,-10.1 3.3,-19 6.3,-18.9 3,0.1 4.9,8.5 4.4,18.6 z"
       id="path119"
       inkscape:connector-curvature="0"
       style="fill:#3a3a3a" /><path
       class="st18"
       d="m 232.2,147.9 c 0.7,2.7 -5.1,5.1 -12.4,7 -7.3,1.9 -12,2.2 -12.8,-0.5 -0.8,-2.7 3.2,-5.9 10.6,-7.9 7.4,-2 13.9,-1.2 14.6,1.4 z"
       id="path121"
       inkscape:connector-curvature="0"
       style="fill:#fdf6ad" /><ellipse
       class="st18"
       cx="128.10001"
       cy="161.60001"
       rx="10.1"
       ry="10.4"
       id="ellipse123"
       style="fill:#fdf6ad" /><path
       class="st18"
       d="m 319.2,136.5 10,0.5 c 1.8,0.1 3.2,1.6 3.1,3.4 l -0.1,2.2 c -0.1,1.8 -1.6,3.2 -3.4,3.1 l -10,-0.5 c -1.8,-0.1 -3.2,-1.6 -3.1,-3.4 l 0.1,-2.2 c 0.1,-1.9 1.6,-3.2 3.4,-3.1 z"
       id="path125"
       inkscape:connector-curvature="0"
       style="fill:#fdf6ad" /><path
       class="st18"
       d="m 437,110.1 c -2.2,3.8 -9,6.3 -12.7,4.1 -3.7,-2.2 -2.9,-8 -0.7,-11.9 2.2,-3.9 12.5,-7.3 16.2,-5.1 3.7,2.2 -0.6,9.1 -2.8,12.9 z"
       id="path127"
       inkscape:connector-curvature="0"
       style="fill:#fdf6ad" /><ellipse
       class="st18"
       cx="76.099998"
       cy="154.8"
       rx="10.1"
       ry="10.4"
       id="ellipse129"
       style="fill:#fdf6ad" /><path
       class="st26"
       d="m 73,172.2 -1.3,33 c -32.1,5.9 -72.5,-30.3 -53.8,-75.8 16,-38.8 2,-35.3 31,-30.8 17.8,2.8 36.3,43.9 37.8,72.8 z"
       id="path131"
       inkscape:connector-curvature="0"
       style="fill:#232323" /><path
       class="st15"
       d="m 71.8,172.8 -1.1,32.8 c 0,0.7 0.5,1.2 1.1,1.2 0,0 0.1,0 0.1,0 l 29.5,-1.7 c 0.6,0 1.1,-0.5 1.1,-1.1 l 0.9,-17.1 c 0,-0.1 0,-0.2 0,-0.3 l -2.8,-13.2 c -0.1,-0.4 -0.4,-0.8 -0.8,-0.9 l -12,-3.9 c -0.6,-0.2 -1.3,0.2 -1.5,0.8 0,0.1 0,0.1 0,0.2 v 0 c -0.1,0.5 -0.5,1 -1.1,1 l -12.3,1 c -0.6,0.2 -1.1,0.7 -1.1,1.2 z"
       id="path133"
       inkscape:connector-curvature="0"
       style="fill:#555567" /><path
       class="st0"
       d="m 121.3,174 h 12.9 c 1,0 1.8,0.8 1.8,1.8 v 0.1 c 0,1 -0.8,1.8 -1.8,1.8 h -12.9 c -1,0 -1.8,-0.8 -1.8,-1.8 v -0.1 c 0,-1 0.8,-1.8 1.8,-1.8 z"
       id="path135"
       inkscape:connector-curvature="0"
       style="fill:#4c4b4c" /><ellipse
       class="st0"
       cx="159.8"
       cy="180.10001"
       rx="3.5"
       ry="11.2"
       id="ellipse137"
       style="fill:#4c4b4c" /><ellipse
       transform="matrix(0.05599575,-0.9984,0.9984,0.05599575,-5.0364,349.2087)"
       class="st0"
       cx="182.2"
       cy="177.3"
       rx="11.3"
       ry="2.2"
       id="ellipse139"
       style="fill:#4c4b4c" /><ellipse
       class="st0"
       cx="250.7"
       cy="170.10001"
       rx="3.7"
       ry="7.1999998"
       id="ellipse141"
       style="fill:#4c4b4c" /><ellipse
       class="st0"
       cx="280.60001"
       cy="167.10001"
       rx="3"
       ry="6.8000002"
       id="ellipse143"
       style="fill:#4c4b4c" /><ellipse
       class="st0"
       cx="360"
       cy="153.89999"
       rx="2.3"
       ry="8"
       id="ellipse145"
       style="fill:#4c4b4c" /><ellipse
       class="st0"
       cx="389.29999"
       cy="148.3"
       rx="2.7"
       ry="8.3000002"
       id="ellipse147"
       style="fill:#4c4b4c" /><ellipse
       class="st18"
       cx="446.5"
       cy="101.6"
       rx="2.5"
       ry="2"
       id="ellipse149"
       style="fill:#fdf6ad" /><ellipse
       class="st18"
       cx="376.20001"
       cy="95.400002"
       rx="0.80000001"
       ry="2.2"
       id="ellipse151"
       style="fill:#fdf6ad" /><path
       class="st27"
       d="m 294.2,142.1 c 0.3,4.7 0.1,4.8 0.1,4.8 0,0 -6.6,0.2 -6.6,-6.6 0,-5 2.3,-11.3 2.3,-11.3 0.8,1.7 3.9,9.1 4.2,13.1 z"
       id="path153"
       inkscape:connector-curvature="0"
       style="fill:#9b3d47" /></g><g
     id="people"
     transform="matrix(0.93720871,0,0,0.95057034,-62.325223,1.16e-6)"><path
       class="st28"
       d="m 251.7,105.3 c 0,-5.1 3.2,-9.3 8.8,-8.5 3.5,0.5 6.5,4.1 6.5,9.2 0,5.1 -3.2,8.1 -6.8,8.1 -3.6,0 -8.5,-3.8 -8.5,-8.8 z"
       id="path156"
       inkscape:connector-curvature="0"
       style="fill:#ffffff;stroke:#000000;stroke-width:0.5;stroke-miterlimit:10" /><ellipse
       class="st12"
       cx="158.3"
       cy="117.9"
       rx="8"
       ry="9.3000002"
       id="ellipse158"
       style="fill:#ffffff;stroke:#231f20;stroke-miterlimit:10" /><path
       class="st29"
       d="M 261,109"
       id="path160"
       inkscape:connector-curvature="0"
       style="fill:none" /><path
       class="st29"
       d="M 257.2,110.1"
       id="path162"
       inkscape:connector-curvature="0"
       style="fill:none" /><ellipse
       transform="matrix(0.06174537,-0.9981,0.9981,0.06174537,143.0511,358.0614)"
       class="st30"
       cx="262"
       cy="102.9"
       rx="1.7"
       ry="1"
       id="ellipse164"
       style="fill:#231f20" /><ellipse
       transform="matrix(0.1611,-0.9869,0.9869,0.1611,114.3718,340.2878)"
       class="st30"
       cx="257.39999"
       cy="102.9"
       rx="1.7"
       ry="1"
       id="ellipse166"
       style="fill:#231f20" /><path
       class="st8"
       d="m 263.2,113.8 c -0.2,1.5 1,5.6 1.3,7.4 0.3,1.8 0.6,3.6 1,5.5 0.3,1.6 1,3.1 0.6,4.7 -0.6,1.7 -1.4,3.2 -2.4,4.6 -0.8,1.3 -1.9,3.9 -3,4.5"
       id="path168"
       inkscape:connector-curvature="0"
       style="fill:none;stroke:#000000;stroke-miterlimit:10" /><path
       class="st17"
       d="m 260.7,140.3 c -1.2,-0.5 -2.5,-0.6 -3.8,-0.3 -1.4,0.5 -1.5,1.9 0.2,1.5 -0.7,0.7 -3,2.6 -1.8,3.6 0.6,-0.4 -0.3,1.1 1.8,-1.2 -1.7,2.6 -0.6,2.9 1.4,0.7 -1.3,2.1 0.4,2.2 1.6,0.4 0.8,-1.2 1.9,-3.9 0.6,-4.7 z"
       id="path170"
       inkscape:connector-curvature="0"
       style="fill:#ffffff;stroke:#000000;stroke-miterlimit:10" /><ellipse
       class="st17"
       cx="216.39999"
       cy="118.4"
       rx="6.0999999"
       ry="6"
       id="ellipse172"
       style="fill:#ffffff;stroke:#000000;stroke-miterlimit:10" /><ellipse
       transform="rotate(-5.1900014,214.44939,117.33459)"
       cx="214.39999"
       cy="117.3"
       rx="0.89999998"
       ry="1.4"
       id="ellipse174" /><ellipse
       transform="matrix(0.9877,-0.1566,0.1566,0.9877,-15.5931,35.6572)"
       cx="218.5"
       cy="116.8"
       rx="0.89999998"
       ry="1.4"
       id="ellipse176" /><path
       d="m 215.5,120.8 c 0.4,0.4 0.9,0.6 1.4,0.5 0.5,-0.1 1,-0.3 1.4,-0.7 0,0.3 -0.2,0.6 -0.4,0.8 -0.3,0.2 -0.6,0.4 -0.9,0.4 -0.3,0.1 -0.7,0 -1,-0.2 -0.3,-0.2 -0.5,-0.5 -0.5,-0.8 z"
       id="path178"
       inkscape:connector-curvature="0" /><ellipse
       cx="156.3"
       cy="116.9"
       rx="0.80000001"
       ry="1.9"
       id="ellipse180" /><ellipse
       transform="matrix(0.9943,-0.1064,0.1064,0.9943,-11.5196,17.8722)"
       cx="161.7"
       cy="116.9"
       rx="0.80000001"
       ry="1.9"
       id="ellipse182" /><path
       class="st29"
       d="m 167.6,93.2 v 0"
       id="path184"
       inkscape:connector-curvature="0"
       style="fill:none" /><path
       d="m 157.1,123.2 c 0,-0.3 0.2,-0.7 0.5,-0.8 0.3,-0.2 0.7,-0.3 1,-0.2 0.7,0 1.2,0.5 1.5,1.1 -0.5,-0.2 -1,-0.3 -1.6,-0.4 -0.5,-0.1 -1,0 -1.4,0.3 z"
       id="path186"
       inkscape:connector-curvature="0" /><path
       class="st29"
       d="m 328.3,99.5 v 0"
       id="path188"
       inkscape:connector-curvature="0"
       style="fill:none" /><path
       class="st31"
       d="m 343.6,99.1 c 0,4 -4.6,7.5 -8.3,7.5 -3.7,0 -7.3,-2.7 -7.3,-6.7 0,-4 5.1,-8 8.8,-8 3.8,0.1 6.9,3.4 6.8,7.2 0,0 0,0 0,0 z"
       id="path190"
       inkscape:connector-curvature="0"
       style="fill:#ffffff" /><path
       class="st30"
       d="m 343.9,99.1 c -0.1,2.1 -1.1,4 -2.7,5.4 -1.5,1.4 -3.4,2.3 -5.5,2.5 -2.1,0.1 -4.1,-0.6 -5.7,-1.9 -1.6,-1.3 -2.5,-3.4 -2.4,-5.5 0.3,-2 1.3,-3.9 3,-5.2 1.5,-1.4 3.3,-2.3 5.4,-2.6 2.1,-0.3 4.1,0.4 5.6,1.9 1.4,1.4 2.3,3.3 2.3,5.4 z m -0.6,0 c 0,-1.9 -0.7,-3.8 -2.1,-5.1 -1.4,-1.3 -3.3,-2 -5.2,-1.8 -1.9,0.4 -3.6,1.2 -5,2.6 -1.5,1.2 -2.4,2.9 -2.7,4.8 -0.1,1.9 0.7,3.7 2.2,4.9 1.5,1.2 3.3,1.8 5.2,1.7 1.9,-0.2 3.7,-1 5.1,-2.3 1.5,-1.1 2.4,-2.9 2.5,-4.8 z"
       id="path192"
       inkscape:connector-curvature="0"
       style="fill:#231f20" /><ellipse
       class="st30"
       cx="332.20001"
       cy="99.199997"
       rx="0.80000001"
       ry="1.6"
       id="ellipse194"
       style="fill:#231f20" /><ellipse
       class="st30"
       cx="339.29999"
       cy="99.5"
       rx="0.80000001"
       ry="1.6"
       id="ellipse196"
       style="fill:#231f20" /><path
       class="st30"
       d="m 336.6,99 c 0.5,-0.5 1.1,-1 1.7,-1.3 0.1,-0.1 0.3,-0.1 0.4,-0.2 0.1,-0.1 0.3,-0.2 0.5,-0.2 0.3,-0.2 0.7,-0.3 1.1,-0.3 -0.2,0.3 -0.4,0.6 -0.6,0.9 -0.1,0.1 -0.2,0.3 -0.4,0.4 -0.2,0.1 -0.3,0.2 -0.5,0.3 -0.3,0.2 -0.7,0.3 -1,0.4 -0.4,0 -0.8,0 -1.2,0 z"
       id="path198"
       inkscape:connector-curvature="0"
       style="fill:#231f20" /><path
       class="st30"
       d="m 330.8,95.8 c 0.5,0.3 0.9,0.7 1.2,1.2 0.3,0.5 0.5,1 0.6,1.5 -0.3,0 -0.6,-0.1 -0.9,-0.3 -0.2,-0.2 -0.4,-0.4 -0.6,-0.6 -0.2,-0.6 -0.4,-1.2 -0.3,-1.8 z"
       id="path200"
       inkscape:connector-curvature="0"
       style="fill:#231f20" /><path
       class="st30"
       d="m 332.9,104.2 c 0,-0.5 0.1,-0.9 0.4,-1.3 0.3,-0.4 0.8,-0.7 1.4,-0.7 0.6,0 1.1,0.2 1.4,0.6 0.3,0.4 0.4,0.9 0.3,1.4 -0.4,-0.6 -1,-1 -1.7,-1 -0.3,0 -0.6,0.1 -0.9,0.3 -0.2,0.2 -0.6,0.4 -0.9,0.7 z"
       id="path202"
       inkscape:connector-curvature="0"
       style="fill:#231f20" /><path
       class="st11"
       d="m 155.7,142.3 c 1.5,-0.2 5.4,-3.1 6.4,-4.6 1.9,-2.7 0.2,-4.2 -0.5,-5.6 -0.8,-1.7 -3.1,-3.6 -4.2,-4.5"
       id="path204"
       inkscape:connector-curvature="0"
       style="fill:none;stroke:#231f20;stroke-miterlimit:10" /><path
       class="st32"
       d="m 258.4,109.1 c 0.2,-0.6 1,-1 1.6,-0.7 0.4,0.2 0.7,0.5 0.8,1"
       id="path206"
       inkscape:connector-curvature="0"
       style="fill:none;stroke:#000000;stroke-width:0.75;stroke-miterlimit:10" /><path
       class="st33"
       d="m 257.8,100.2 c -0.6,-1.8 -2,-0.1 -2.3,1"
       id="path208"
       inkscape:connector-curvature="0"
       style="fill:none;stroke:#000000;stroke-width:0.5;stroke-miterlimit:10" /><path
       class="st33"
       d="m 261.3,100.3 c 0.3,-1.4 2,-0.8 2,0.1"
       id="path210"
       inkscape:connector-curvature="0"
       style="fill:none;stroke:#000000;stroke-width:0.5;stroke-miterlimit:10" /><path
       class="st12"
       d="m 156.3,142.2 c -0.1,1.4 -1.3,2.5 -2.7,2.4 -0.7,0 -1.4,-0.1 -2.1,-0.5 -0.2,-0.1 0.4,-0.6 0.3,-0.8 -0.1,-0.2 -0.9,-0.2 -0.9,-0.5 0,-0.6 1.6,-0.7 2,-1.2 0.4,-0.5 -2.3,-1 -1.5,-1.7 1.2,-0.8 4.9,1 4.9,2.3 z"
       id="path212"
       inkscape:connector-curvature="0"
       style="fill:#ffffff;stroke:#231f20;stroke-miterlimit:10" /></g><g
     id="Layer_6"
     transform="matrix(0.93720871,0,0,0.95057034,-62.325223,1.16e-6)"><path
       class="st3"
       d="m 162.5,130.2 c 0.6,1.9 -1.4,4.2 -4.4,5.1 -1.2,0.4 -2.4,0.4 -3.6,0.2 -1,-0.2 -4.5,1.5 -5,0.9 -0.2,-0.3 2.3,-2.7 2.2,-3 -0.6,-1.9 1.4,-4.2 4.4,-5.1 3,-0.9 5.8,0 6.4,1.9 z"
       id="path215"
       inkscape:connector-curvature="0"
       style="fill:#40403f" /><path
       class="st3"
       d="m 256.5,134.1 c 0.2,2 -2.2,3.8 -5.3,4.1 -1.2,0.1 -2.5,0 -3.6,-0.5 -0.9,-0.4 -4.7,0.6 -5.1,-0.1 -0.2,-0.3 2.8,-2.2 2.8,-2.5 -0.2,-2 2.2,-3.8 5.3,-4.1 3.1,-0.3 5.8,1.1 5.9,3.1 z"
       id="path217"
       inkscape:connector-curvature="0"
       style="fill:#40403f" /><path
       class="st3"
       d="m 360.3,118.4 -6.7,1.1 c -1,0.2 -2,-0.1 -2.8,-0.7 -0.4,-0.3 -3.9,0.1 -4.2,-0.3 -0.1,-0.2 -0.7,-0.9 -0.1,-1.3 0.8,-0.5 2.8,-0.6 2.8,-0.9 v 0 c -0.3,-2 1.1,-4 3.1,-4.3 l 6.7,-1.1 c 2,-0.3 4,1.1 4.3,3.1 v 0 c 0.3,2.1 -1.1,4 -3.1,4.4 z"
       id="path219"
       inkscape:connector-curvature="0"
       style="fill:#40403f" /><linearGradient
       id="SVGID_1_"
       gradientUnits="userSpaceOnUse"
       x1="39.139999"
       y1="263.38"
       x2="71.029999"
       y2="263.38"
       gradientTransform="matrix(1,0,0,-1,0,528)"><stop
         offset="0"
         style="stop-color:#FFFFFF"
         id="stop221" /><stop
         offset="0.26"
         style="stop-color:#FFFFFF;stop-opacity:0.86"
         id="stop223" /><stop
         offset="0.47"
         style="stop-color:#FFFFFF;stop-opacity:0.5"
         id="stop225" /><stop
         offset="0.7"
         style="stop-color:#FFFFFF;stop-opacity:0.14"
         id="stop227" /><stop
         offset="0.94"
         style="stop-color:#FFFFFF;stop-opacity:0"
         id="stop229" /></linearGradient></g><g
     id="TOLL"
     transform="matrix(0.93720871,0,0,0.95057034,-62.325223,1.16e-6)"><path
       class="st35"
       d="m 387.7,284.3 c -3.8,-6.3 -7.5,-3.3 -8.3,2.4 -0.5,3.3 0.1,10.3 3.2,12.8 4.8,3.8 9.7,-7.2 13.4,-9.1 2.4,-1.2 6.5,-0.8 7.7,-4 1.2,-3.2 -2.4,-2.9 -1.6,-5.6 0.5,-1.7 5.6,-4.9 6.9,-6.1 3.5,-3 7.3,-5.6 11.4,-7.7 2.7,-1.5 7.5,-3.2 9.6,-5.4 2.3,-2.3 2.2,-5.9 -1.8,-4.9 2.5,-1.9 4.1,-4.9 1.5,-6.8 -1.9,-1.4 -4.5,0 -6,-2.7 -2.6,-4.6 5.9,-7.9 8.5,-9.9 5.1,-3.8 10.6,-6.1 16.3,-8.8 3.4,-1.6 8.9,-3.1 9.3,-7.6 -0.5,-0.2 -1,-0.3 -1.6,-0.4 9.2,-1.3 21,-5.2 29,-10 2.4,-1.4 7.5,-4.9 6.6,-8.5 -0.7,-2.8 -3,-1.6 -5.6,-2.2 -10.7,-2.5 1.7,-6.2 5.7,-8.4 3.2,-1.7 6.3,-3.5 9.4,-5.4 4,-2.4 5.3,-5.6 8.4,-8.8 -1.1,0.2 -2.3,0.3 -3.4,0.3 4.5,-5.3 11.9,-8 16.7,-13.2 1.3,-1.5 7.3,-9.4 0.9,-7.9 5.5,-5 15.3,-8.3 16.6,-16.8 -11.1,-2.6 -22.8,8.9 -32.3,13.4 0.2,-0.3 0.5,-0.7 0.7,-1 -3.3,-1.5 -11,8.8 -13,11.3 -3.9,4.9 -7.3,9.7 -11.9,14 -2.2,2.1 -5.8,5.5 -8.8,6.3 -5.1,1.4 -9.2,0.8 -13.5,5 -2.2,2.2 -6,6.5 -6.7,9.7 -0.7,3.2 0.2,3.1 3.2,4 1.7,0.5 7.7,0.6 7.2,3.7 -0.5,3.1 -9.3,3.4 -11.2,3.7 -4.2,0.6 -10.1,0.3 -13.5,3.3 -1.6,1.4 -3.4,4.6 0.7,4 -3.5,2.1 -7.9,3.1 -11.8,4.4 -4.6,1.6 -7.1,3.7 -10.6,6.9 -1.6,1.5 -7,6.6 -1.3,7 -1.9,1.1 -4.5,2.1 -5.6,4 1.9,1.4 5.3,1.5 5.2,4 -0.2,4.6 -10.4,11.5 -13.2,14.4 -5.9,6.1 -2.3,5.6 2.4,8.3 -2.9,3.9 -7.7,3.4 -11,6.7 0.3,0.3 0.5,0.7 0.7,1 -2.9,2.7 -14.3,5.1 -7.7,9.6 -0.6,0.8 -2,1.8 -0.8,1 z"
       id="path235"
       inkscape:connector-curvature="0"
       style="fill:#ddc5df;stroke:#b881b8;stroke-miterlimit:10" /><rect
       x="371.5"
       y="20.5"
       class="st36"
       width="71.5"
       height="130"
       id="rect237"
       style="fill:#ffefaf" /><polygon
       class="st37"
       points="396.9,140.7 400.9,91.8 410.8,91.4 417,139.4 "
       id="polygon239"
       style="fill:#f2af1d;stroke:#231f20;stroke-miterlimit:10" /><ellipse
       class="st12"
       cx="405.89999"
       cy="85.400002"
       rx="8.1999998"
       ry="8.6000004"
       id="ellipse241"
       style="fill:#ffffff;stroke:#231f20;stroke-miterlimit:10" /><rect
       x="394.5"
       y="102.4"
       transform="matrix(0.9089,-0.4169,0.4169,0.9089,-5.9463,184.6432)"
       class="st38"
       width="50.5"
       height="7"
       id="rect243"
       style="fill:#fcda70" /><rect
       x="432.5"
       y="48.5"
       class="st38"
       width="12.5"
       height="58"
       id="rect245"
       style="fill:#fcda70" /><polygon
       class="st39"
       points="340.1,32.7 367.5,3.5 446.4,5.2 412.5,33 "
       id="polygon247"
       style="fill:#7c5d3c" /><polygon
       class="st4"
       points="371.4,6 387.5,15.4 388,197.9 356.7,185.9 355.5,24.5 "
       id="polygon249"
       style="fill:#717187" /><path
       class="st40"
       d="M 449,18 387.5,15.5 388,198 449.5,159.8 Z m -49.5,99 0.5,-55 39,-8.5 0.5,44 z"
       id="path251"
       inkscape:connector-curvature="0"
       style="fill:#4d4d5f" /><polygon
       class="st4"
       points="502.9,241 504.5,155.9 570.5,179.4 570.5,266 "
       id="polygon253"
       style="fill:#717187" /><polygon
       class="st41"
       points="402.3,25.7 367.5,3.5 438.6,0 477,23 "
       id="polygon255"
       style="fill:#f2af1d" /><polygon
       class="st40"
       points="550.5,138.9 504.5,155.9 570.5,179.4 600,153.9 "
       id="polygon257"
       style="fill:#4d4d5f" /><path
       class="st41"
       d="m 401.4,51.5 -0.1,0.4 -0.8,0.1 -0.3,0.1 c -0.2,0 -0.4,0.1 -0.6,0.2 -0.2,0.1 -0.3,0.1 -0.4,0.3 -0.1,0.1 -0.2,0.3 -0.3,0.4 -0.1,0.2 -0.1,0.5 -0.1,0.7 l 1.1,-0.2 v 0.4 l -1.1,0.2 v 3.5 l -0.4,0.1 v -3.9 c 0,-0.3 0,-0.6 0.1,-0.8 0.1,-0.2 0.2,-0.4 0.3,-0.6 0.2,-0.2 0.3,-0.3 0.5,-0.4 0.3,-0.1 0.5,-0.2 0.8,-0.2 z m -0.5,1.8 0.4,-0.1 v 3.9 l -0.4,0.1 z"
       id="path259"
       inkscape:connector-curvature="0"
       style="fill:#f2af1d" /><path
       class="st41"
       d="m 402.5,56.9 v -2.5 c 0,-0.4 0.1,-0.9 0.3,-1.2 0.3,-0.3 0.7,-0.5 1.1,-0.6 0.4,-0.1 0.8,-0.1 1.1,0.1 0.3,0.2 0.4,0.4 0.5,0.8 0,0.1 0,0.3 0,0.4 v 2.4 l -0.4,0.1 V 54 c 0,-0.1 0,-0.3 0,-0.4 0,-0.2 -0.2,-0.4 -0.4,-0.5 -0.2,-0.1 -0.5,-0.1 -0.8,0 -0.2,0 -0.3,0.1 -0.5,0.2 -0.3,0.1 -0.5,0.3 -0.5,0.6 0,0.2 -0.1,0.4 -0.1,0.6 V 57 Z"
       id="path261"
       inkscape:connector-curvature="0"
       style="fill:#f2af1d" /><path
       class="st41"
       d="m 407.2,52.1 1.4,-0.3 -0.1,0.4 -1.4,0.3 v 2.2 c 0,0.1 0,0.3 0,0.4 0,0.2 0.1,0.3 0.3,0.4 0.2,0.1 0.4,0.1 0.6,0 l 0.6,-0.1 -0.1,0.4 -0.5,0.1 c -0.3,0.1 -0.6,0.1 -0.9,0 -0.2,-0.1 -0.4,-0.4 -0.4,-0.6 0,-0.1 0,-0.2 0,-0.2 0,-0.1 0,-0.2 0,-0.3 v -3.4 l 0.4,-0.2 z"
       id="path263"
       inkscape:connector-curvature="0"
       style="fill:#f2af1d" /><path
       class="st41"
       d="m 409.8,53.7 c 0,0.1 0,0.1 0,0.2 0,0.1 0,0.1 0,0.2 0,0.3 0.2,0.5 0.4,0.7 0.3,0.1 0.6,0.2 0.9,0.1 l 0.6,-0.1 0.5,-0.1 -0.2,0.3 -0.5,0.1 -0.5,0.1 c -0.2,0 -0.5,0 -0.7,0 -0.2,0 -0.4,-0.1 -0.5,-0.2 -0.1,-0.1 -0.3,-0.2 -0.3,-0.3 -0.1,-0.2 -0.1,-0.3 -0.2,-0.5 0,-0.3 -0.1,-0.5 0,-0.8 0,-0.3 0.1,-0.6 0.1,-0.9 0.1,-0.2 0.2,-0.4 0.3,-0.6 0.1,-0.2 0.3,-0.3 0.5,-0.4 0.2,-0.1 0.4,-0.2 0.6,-0.2 0.3,-0.1 0.7,-0.1 1,0.1 0.2,0.1 0.4,0.3 0.4,0.6 0,0.1 0,0.2 0,0.3 0,0.2 0,0.3 -0.1,0.4 0,0.1 -0.1,0.2 -0.2,0.4 -0.1,0.1 -0.3,0.2 -0.4,0.3 -0.2,0.1 -0.4,0.1 -0.6,0.2 z m 1.2,-2.1 c -0.2,0 -0.4,0.1 -0.5,0.2 -0.1,0.1 -0.3,0.2 -0.4,0.3 -0.1,0.2 -0.2,0.3 -0.2,0.5 -0.1,0.2 -0.1,0.5 -0.1,0.7 l 1.2,-0.2 c 0.2,0 0.3,-0.1 0.5,-0.1 0.1,0 0.2,-0.1 0.3,-0.2 0.1,-0.1 0.1,-0.1 0.2,-0.2 0,-0.1 0.1,-0.2 0.1,-0.3 0,-0.1 0,-0.2 0,-0.3 0,-0.2 -0.1,-0.3 -0.3,-0.4 -0.4,0 -0.6,0 -0.8,0 z"
       id="path265"
       inkscape:connector-curvature="0"
       style="fill:#f2af1d" /><path
       class="st41"
       d="m 415,54.1 0.4,-0.1 0.4,-0.1 -0.1,0.4 -0.3,0.1 -0.4,0.1 c -0.4,0.1 -0.8,0.1 -1.2,-0.1 -0.3,-0.2 -0.5,-0.5 -0.5,-0.9 0,-0.3 -0.1,-0.5 0,-0.8 0,-0.3 0,-0.6 0.1,-0.9 0.1,-0.2 0.2,-0.4 0.3,-0.6 0.2,-0.2 0.3,-0.3 0.5,-0.4 0.2,-0.1 0.5,-0.2 0.8,-0.2 l 0.3,-0.1 0.4,-0.1 -0.1,0.4 h -0.3 l -0.4,0.2 c -0.2,0 -0.4,0.1 -0.6,0.2 -0.2,0.1 -0.3,0.2 -0.4,0.3 -0.1,0.1 -0.2,0.3 -0.2,0.5 -0.1,0.2 -0.1,0.5 -0.1,0.7 0,0.2 0,0.5 0,0.7 0,0.2 0.1,0.3 0.2,0.4 0.1,0.1 0.2,0.2 0.3,0.2 0.1,0.1 0.2,0.1 0.4,0.1 0.1,0.1 0.3,0.1 0.5,0 z"
       id="path267"
       inkscape:connector-curvature="0"
       style="fill:#f2af1d" /><path
       class="st41"
       d="m 416.8,48.6 0.4,-0.1 v 2 c 0.1,-0.2 0.2,-0.3 0.4,-0.4 0.2,-0.1 0.4,-0.2 0.7,-0.2 0.3,-0.1 0.7,-0.1 1,0.1 0.3,0.2 0.4,0.4 0.5,0.7 0,0.2 0,0.3 0,0.5 v 2.4 l -0.4,0.1 v -2.4 c 0,-0.1 0,-0.1 0,-0.2 0,-0.1 0,-0.1 0,-0.2 0,-0.2 -0.2,-0.4 -0.4,-0.5 -0.2,-0.1 -0.5,-0.1 -0.7,0 -0.2,0 -0.3,0.1 -0.5,0.2 -0.1,0.1 -0.2,0.1 -0.3,0.3 -0.1,0.1 -0.2,0.3 -0.2,0.4 0,0.2 -0.1,0.4 -0.1,0.6 v 2.4 l -0.4,0.1 z"
       id="path269"
       inkscape:connector-curvature="0"
       style="fill:#f2af1d" /><path
       class="st42"
       d="m 423.5,48.6 v 4.3 l -1.2,0.2 v -4.3 l -1.7,0.3 0.2,-1.1 4.4,-0.8 -0.2,1.1 z"
       id="path271"
       inkscape:connector-curvature="0"
       style="fill:#bcbbbb" /><path
       class="st42"
       d="m 426.6,48.3 c 0.4,-0.1 0.9,-0.1 1.3,0.1 0.4,0.2 0.6,0.6 0.6,1 0,0.1 0,0.2 0,0.3 0,0.1 0,0.3 0,0.4 0,0.3 0,0.6 -0.1,0.9 -0.1,0.2 -0.2,0.5 -0.3,0.7 -0.1,0.2 -0.3,0.3 -0.5,0.4 -0.3,0.1 -0.5,0.2 -0.8,0.3 -0.4,0.1 -0.9,0.1 -1.3,-0.1 -0.3,-0.2 -0.6,-0.6 -0.6,-1 0,-0.1 0,-0.2 0,-0.3 0,-0.1 0,-0.2 0,-0.4 0,-0.3 0,-0.6 0.1,-0.9 0.1,-0.2 0.2,-0.5 0.3,-0.7 0.1,-0.2 0.3,-0.3 0.5,-0.4 0.3,-0.2 0.6,-0.3 0.8,-0.3 z m 0.2,3.2 c 0.1,0 0.2,-0.1 0.3,-0.1 0.1,0 0.2,-0.1 0.2,-0.2 0.1,-0.1 0.1,-0.2 0.1,-0.3 0,-0.2 0,-0.3 0,-0.5 0,-0.2 0,-0.5 0,-0.7 0,-0.2 -0.1,-0.3 -0.2,-0.4 -0.1,-0.1 -0.3,-0.1 -0.5,0 -0.1,0 -0.2,0.1 -0.3,0.1 -0.1,0 -0.2,0.1 -0.2,0.2 -0.1,0.1 -0.1,0.2 -0.1,0.3 0,0.2 0,0.3 0,0.5 0,0.2 0,0.5 0,0.7 0,0.2 0.1,0.3 0.2,0.4 0.1,0 0.3,0 0.5,0 z"
       id="path273"
       inkscape:connector-curvature="0"
       style="fill:#bcbbbb" /><path
       class="st42"
       d="m 431.3,49.4 1.7,1.8 -1.3,0.3 -1.4,-1.5 v 1.7 l -1.1,0.2 v -5.6 l 1.1,-0.2 v 3.1 l 1.2,-1.6 1.4,-0.3 z"
       id="path275"
       inkscape:connector-curvature="0"
       style="fill:#bcbbbb" /><path
       class="st42"
       d="m 434.1,49.4 v 0.1 c 0,0.2 0.1,0.3 0.2,0.4 0.2,0.1 0.4,0.1 0.6,0 l 0.7,-0.1 0.6,-0.2 -0.2,0.9 -0.5,0.1 -0.7,0.1 c -0.3,0 -0.5,0 -0.8,0 -0.2,0 -0.4,-0.1 -0.5,-0.2 -0.1,-0.1 -0.3,-0.2 -0.3,-0.4 -0.1,-0.2 -0.1,-0.3 -0.2,-0.5 0,-0.2 0,-0.4 0,-0.6 0,-0.3 0,-0.7 0.1,-1 0.1,-0.3 0.2,-0.5 0.4,-0.7 0.2,-0.2 0.3,-0.3 0.6,-0.4 0.2,-0.1 0.4,-0.2 0.7,-0.2 0.4,-0.1 0.8,-0.1 1.2,0.1 0.3,0.2 0.5,0.4 0.5,0.7 0,0.1 0,0.1 0,0.2 0,0.1 0,0.1 0,0.2 0,0.3 -0.1,0.7 -0.4,0.9 -0.3,0.2 -0.7,0.4 -1.2,0.4 z m 0.7,-1.8 c -0.2,0 -0.4,0.1 -0.5,0.3 -0.1,0.2 -0.2,0.5 -0.2,0.7 l 0.6,-0.1 0.3,-0.1 c 0.1,0 0.1,0 0.2,-0.1 0,0 0.1,-0.1 0.1,-0.1 0,-0.1 0,-0.1 0,-0.2 0,-0.1 0,-0.1 0,-0.2 0,-0.1 -0.1,-0.2 -0.2,-0.2 0,0 -0.2,0 -0.3,0 z"
       id="path277"
       inkscape:connector-curvature="0"
       style="fill:#bcbbbb" /><path
       class="st42"
       d="m 438.2,50.2 -1.2,0.2 v -2.5 c 0,-0.3 0,-0.5 0.1,-0.8 0.1,-0.2 0.2,-0.4 0.3,-0.6 0.1,-0.2 0.3,-0.3 0.5,-0.4 0.2,-0.1 0.5,-0.2 0.8,-0.2 0.4,-0.1 0.8,-0.1 1.2,0.1 0.3,0.2 0.5,0.5 0.6,0.8 0,0.1 0,0.1 0,0.2 0,0.1 0,0.2 0,0.2 v 2.3 l -1.2,0.2 v -2.4 c 0,-0.1 0,-0.1 0,-0.1 0,0 0,-0.1 0,-0.1 0,-0.1 -0.1,-0.2 -0.2,-0.3 -0.1,0 -0.3,0 -0.4,0 -0.1,0 -0.2,0 -0.3,0.1 -0.1,0 -0.1,0.1 -0.2,0.2 0,0.1 -0.1,0.1 -0.1,0.2 0,0.1 0,0.2 0,0.3 z"
       id="path279"
       inkscape:connector-curvature="0"
       style="fill:#bcbbbb" /><path
       class="st42"
       d="m 417.1,38.9 v 0 c -0.2,0.2 -0.3,0.4 -0.2,0.6 0.1,0.2 0.3,0.2 0.5,0.1 0,0 0,0 0.1,-0.1 l 0.1,-0.1 c 0.2,-0.1 0.2,-0.3 0.1,-0.5 -0.1,-0.2 -0.3,-0.2 -0.6,0 0.1,-0.1 0.1,0 0,0 z"
       id="path281"
       inkscape:connector-curvature="0"
       style="fill:#bcbbbb" /><path
       class="st42"
       d="m 418,38.1 v 0 c -0.2,0.2 -0.3,0.4 -0.2,0.6 0.1,0.2 0.3,0.2 0.5,0.1 0,0 0,0 0.1,-0.1 l 0.1,-0.1 c 0.2,-0.1 0.2,-0.3 0.1,-0.5 -0.1,-0.2 -0.4,-0.2 -0.6,0 0,-0.1 0,-0.1 0,0 z"
       id="path283"
       inkscape:connector-curvature="0"
       style="fill:#bcbbbb" /><path
       class="st41"
       d="m 424.7,31.7 -2.5,-0.9 c -0.5,-0.2 -1.1,-0.1 -1.5,0.3 l -2,1.6 c -0.3,0.2 -0.4,0.6 -0.3,0.9 0,0 0,0.1 0,0.1 l 0.4,2.3 v 0 c 0.2,1.1 -0.1,1.3 -0.1,1.3 v 0 c -0.1,0.1 -0.1,0.3 0,0.5 0.1,0.1 0.2,0.1 0.4,0.1 h 0.1 v 0 c 0.1,-0.1 0.5,-0.2 1.2,0.1 l 0.4,0.2 1.3,0.5 c 0.5,0.2 1,0.1 1.4,-0.3 l 2,-1.7 c 0.4,-0.3 0.5,-0.8 0.5,-1.2 l -0.5,-2.7 c -0.1,-0.6 -0.4,-1 -0.8,-1.1 z m -2.5,2.7 c 0.1,0.4 0.1,0.9 0.2,1.3 0,0.2 0.1,0.5 0.1,0.7 0,0.2 0,0.5 0,0.7 -0.1,-0.2 -0.1,-0.4 -0.2,-0.7 -0.1,-0.3 -0.1,-0.5 -0.2,-0.7 -0.1,-0.4 -0.2,-0.8 -0.3,-1.3 -0.8,-0.3 -1.6,-0.6 -2.4,-1 0.9,0.2 1.7,0.4 2.5,0.6 l 2.4,-1.6 z"
       id="path285"
       inkscape:connector-curvature="0"
       style="fill:#f2af1d" /><path
       class="st41"
       d="m 416.8,39.7 c -0.1,-0.1 -0.4,-0.1 -0.5,0 v 0 c -0.1,0.1 -0.3,0.3 -1.1,-0.1 l -0.4,-0.2 -1.3,-0.5 c -0.5,-0.2 -1,-0.1 -1.4,0.3 l -2,1.7 c -0.4,0.3 -0.5,0.8 -0.5,1.2 l 0.5,2.7 c 0.1,0.4 0.4,0.8 0.8,0.9 l 2.5,0.9 c 0.5,0.2 1.1,0.1 1.5,-0.3 l 2,-1.6 c 0.3,-0.2 0.4,-0.6 0.3,-0.9 0,0 0,-0.1 0,-0.1 l -0.4,-2.3 v 0 c -0.2,-1.1 0,-1.3 0,-1.3 v 0 c 0.1,0 0.1,-0.2 0,-0.4 0,0 0,0 0,0 z m -3.5,2.9 c 0.1,0.4 0.1,0.9 0.2,1.3 0,0.2 0.1,0.5 0.1,0.7 0,0.2 0,0.5 0,0.7 -0.1,-0.2 -0.1,-0.4 -0.2,-0.7 -0.1,-0.3 -0.1,-0.5 -0.2,-0.7 -0.1,-0.4 -0.2,-0.8 -0.3,-1.3 -0.8,-0.3 -1.6,-0.6 -2.4,-1 0.9,0.2 1.7,0.4 2.5,0.6 l 2.4,-1.6 z"
       id="path287"
       inkscape:connector-curvature="0"
       style="fill:#f2af1d" /><polygon
       class="st29"
       points="505.5,144 506.6,149.3 514.8,140.3 513.7,135.1 "
       id="polygon289"
       style="fill:none" /><polygon
       class="st29"
       points="513.6,174.4 520.2,167.2 519.1,162 510.9,170.9 511.7,174.8 "
       id="polygon291"
       style="fill:none" /><polygon
       class="st29"
       points="508.2,157.2 509.2,162.5 517.5,153.6 516.4,148.3 "
       id="polygon293"
       style="fill:none" /><rect
       x="494.89999"
       y="28.200001"
       transform="matrix(0.9805,-0.1966,0.1966,0.9805,-9.8503,100.2183)"
       class="st41"
       width="9.8000002"
       height="143"
       id="rect295"
       style="fill:#f2af1d" /><polygon
       class="st29"
       points="492.2,86.5 493.2,91.7 501.5,82.8 500.4,77.6 "
       id="polygon297"
       style="fill:none" /><polygon
       class="st29"
       points="500.2,126.6 501.3,131.9 509.5,122.9 508.4,117.7 "
       id="polygon299"
       style="fill:none" /><polygon
       class="st29"
       points="497.4,112.8 498.5,118.1 506.7,109.2 505.7,103.9 "
       id="polygon301"
       style="fill:none" /><polygon
       class="st29"
       points="494.8,99.5 495.8,104.8 504.1,95.9 503,90.6 "
       id="polygon303"
       style="fill:none" /><polygon
       class="st29"
       points="485,50.6 486,55.9 494.3,46.9 493.2,41.7 "
       id="polygon305"
       style="fill:none" /><polygon
       class="st29"
       points="489.8,74.8 490.9,80 499.1,71.1 498,65.9 "
       id="polygon307"
       style="fill:none" /><polygon
       class="st29"
       points="487.5,63.1 488.5,68.3 496.8,59.4 495.7,54.2 "
       id="polygon309"
       style="fill:none" /><polygon
       class="st29"
       points="482.6,38.9 483.7,44.2 491.9,35.3 490.9,30 "
       id="polygon311"
       style="fill:none" /><polygon
       points="490.9,80 492.2,86.5 500.4,77.6 499.1,71.1 "
       id="polygon313" /><polygon
       points="493.2,91.7 494.8,99.5 503,90.6 501.5,82.8 "
       id="polygon315" /><polygon
       points="495.8,104.8 497.4,112.8 505.7,103.9 504.1,95.9 "
       id="polygon317" /><polygon
       points="498.5,118.1 500.2,126.6 508.4,117.7 506.7,109.2 "
       id="polygon319" /><polygon
       points="501.3,131.9 502.9,140 511.1,131.1 509.5,122.9 "
       id="polygon321" /><polygon
       points="488.5,68.3 489.8,74.8 498,65.9 496.8,59.4 "
       id="polygon323" /><polygon
       points="481,30.6 482.6,38.9 490.9,30 490.6,28.6 "
       id="polygon325" /><polygon
       points="483.7,44.2 485,50.6 493.2,41.7 491.9,35.3 "
       id="polygon327" /><polygon
       points="486,55.9 487.5,63.1 495.7,54.2 494.3,46.9 "
       id="polygon329" /><polygon
       points="518.7,168.9 517.6,163.2 511,170.4 "
       id="polygon331" /><polygon
       points="506.6,158.5 508.3,166.9 516.5,158 514.8,149.6 "
       id="polygon333" /><polygon
       points="503.9,145.3 505.5,153.2 513.8,144.3 512.2,136.3 "
       id="polygon335" /><polygon
       points="515,222.3 515,186.3 552.7,199.3 552.7,235.3 "
       id="polygon337" /><polygon
       class="st43"
       points="527.6,220.2 540.3,200.6 547.4,202.3 532.7,222.3 "
       id="polygon339"
       style="fill:#8dc63f" /><rect
       x="524.70001"
       y="205.89999"
       transform="matrix(0.9123,-0.4094,0.4094,0.9123,-40.915,234.4446)"
       class="st43"
       width="4.6999998"
       height="13.7"
       id="rect341"
       style="fill:#8dc63f" /><path
       class="st11"
       d="m 411,92.1 c 1.7,0.9 5,6.1 6.5,8.1 0.7,1 1,2.1 1.1,3.3 -1.6,1 -3.3,1.9 -5.1,2.6 -1.6,0.6 -4.5,1.7 -5.2,2.9"
       id="path343"
       inkscape:connector-curvature="0"
       style="fill:none;stroke:#231f20;stroke-miterlimit:10" /><path
       class="st11"
       d="m 405.5,89.6 c 1.1,1 2.8,0.9 3.8,-0.2 0.1,-0.1 0.1,-0.1 0.2,-0.2"
       id="path345"
       inkscape:connector-curvature="0"
       style="fill:none;stroke:#231f20;stroke-miterlimit:10" /><ellipse
       transform="matrix(0.9972,-0.07515277,0.07515277,0.9972,-5.1533,31.0555)"
       class="st30"
       cx="410.10001"
       cy="84"
       rx="1"
       ry="1.6"
       id="ellipse347"
       style="fill:#231f20" /><ellipse
       transform="matrix(0.1031,-0.9947,0.9947,0.1031,279.2592,478.1498)"
       class="st30"
       cx="404.79999"
       cy="84.199997"
       rx="1.7"
       ry="1.1"
       id="ellipse349"
       style="fill:#231f20" /><path
       class="st12"
       d="m 408.7,110.4 c -0.5,0.7 -2.4,2.5 -3.2,1.9 -0.5,-0.4 0.9,-1.3 0.7,-1.3 -0.2,0 -1.4,1.2 -1.9,0.8 -0.5,-0.4 1,-1 1.1,-1.8 0,-0.3 -1.4,1.3 -1.6,0.9 -0.5,-1.2 1.4,-3.3 4.3,-3.1 1.2,0 1.3,1.5 0.6,2.6 z"
       id="path351"
       inkscape:connector-curvature="0"
       style="fill:#ffffff;stroke:#231f20;stroke-miterlimit:10" /></g><g
     id="Car"
     transform="matrix(0.93720871,0,0,0.95057034,-62.325223,1.16e-6)"><polygon
       class="st44"
       points="306,262 313.7,274.6 335,278 345.3,278.6 356.3,284.6 351.3,297.3 281.7,334.6 225.3,319.6 270.3,292.6 276,271 "
       id="polygon354"
       style="fill:#695f75" /><path
       class="st45"
       d="m 288.6,343 -20,-2 c 20.9,-7.5 37.1,-15.3 34.8,-34.8 l 11,-1.3 c 0.9,22.6 -10.7,32.2 -25.8,38.1 z"
       id="path356"
       inkscape:connector-curvature="0"
       style="fill:#f2af1d;stroke:#000000;stroke-miterlimit:10" /><polyline
       class="st31"
       points="305.9,288 302.8,289.3 300.3,292.1 298.4,296.8 298.4,300.5 299.4,303.2 301.8,306 305.4,307.8    308.2,308.4 310.9,307.8 314.6,306.2 317.1,304 318.4,301 318.8,298 318.6,294.6 316.1,291 314.8,289.5 313.2,290.6 311.2,291    309,290.6 305.9,288 305.9,288  "
       id="polyline358"
       style="fill:#ffffff" /><path
       class="st46"
       d="m 270.5,332.7 -29.5,0.5 c 10.3,-13.9 16.9,-27.3 18.5,-40 H 273 c 1.9,11.3 0.6,24.7 -2.5,39.5 z"
       id="path360"
       inkscape:connector-curvature="0"
       style="fill:#84a6d7;stroke:#000000;stroke-miterlimit:10" /><polygon
       class="st29"
       points="299.7,292.1 298.1,290.8 300,287.7 303.2,286.3 307.2,286.3 310.6,286.7 313.1,287.9 314.8,289.5 312.8,290.9 310,290.8 307.9,289.7 305.9,288 "
       id="polygon362"
       style="fill:none" /><path
       class="st31"
       d="m 305.6,286.4 c 1.4,-2 3.8,-2.9 6.1,-2.3 2.9,0.8 5.4,2.9 6.7,5.6 0.6,1.5 0.6,3.1 0,4.6 0,-0.1 0,-0.2 0,-0.3"
       id="path364"
       inkscape:connector-curvature="0"
       style="fill:#ffffff" /><path
       d="m 305.4,286.3 c 1,-1.5 2.7,-2.5 4.5,-2.6 0.9,-0.1 1.8,0.1 2.7,0.4 0.8,0.3 1.6,0.7 2.4,1.2 1.5,1 2.7,2.3 3.6,3.9 0.2,0.4 0.4,0.8 0.5,1.3 0.3,1.4 0.3,2.8 -0.2,4.1 v 0 l -1,2.5 v -3 l 1,0.1 v 0.3 l -1,-0.2 v 0 c 0.3,-0.7 0.4,-1.5 0.4,-2.3 0,-0.8 -0.2,-1.6 -0.6,-2.3 -0.8,-1.5 -1.9,-2.7 -3.3,-3.7 -0.7,-0.5 -1.4,-0.9 -2.2,-1.1 -0.8,-0.3 -1.6,-0.5 -2.4,-0.5 -1.7,0.1 -3.2,0.9 -4.2,2.3 z"
       id="path366"
       inkscape:connector-curvature="0" /><ellipse
       class="st17"
       cx="266.10001"
       cy="287.79999"
       rx="10.1"
       ry="10.9"
       id="ellipse368"
       style="fill:#ffffff;stroke:#000000;stroke-miterlimit:10" /><path
       class="st8"
       d="m 314.8,289.5 c 2.6,2.8 3.9,4.3 3.9,8.5 0,5.7 -4.6,10.3 -10.3,10.3 -5.7,0 -10.3,-4.6 -10.3,-10.3 0,-2.4 1.7,-5.6 3.1,-7.4"
       id="path370"
       inkscape:connector-curvature="0"
       style="fill:none;stroke:#000000;stroke-miterlimit:10" /><path
       class="st8"
       d="M 307.3,287.7"
       id="path372"
       inkscape:connector-curvature="0"
       style="fill:none;stroke:#000000;stroke-miterlimit:10" /><polyline
       class="st41"
       points="305.5,287.2 302.8,286.6 300.4,287.5 299.1,288.8 298.3,290.3 298.6,291.8 300.1,291.7 303.1,289.3    305.9,288 305.5,287.2  "
       id="polyline374"
       style="fill:#f2af1d" /><polygon
       class="st41"
       points="312.3,291 309.4,290.6 304,286.5 309,286.3 312.4,287.3 314.5,289.6 "
       id="polygon376"
       style="fill:#f2af1d" /><path
       class="st8"
       d="m 306.4,287.8 c -2.2,0.3 -3.2,1.1 -4.9,2.6 -0.6,0.5 -1.4,1.7 -2.4,1.3 -1,-0.4 -1,-1.7 -0.4,-2.6 0.8,-1.1 1.8,-1.9 3.1,-2.4 2.6,-1 4,0.6 5.6,2 0.7,0.7 1.5,1.2 2.3,1.6 1.6,0.7 3.5,0.4 4.8,-0.9"
       id="path378"
       inkscape:connector-curvature="0"
       style="fill:none;stroke:#000000;stroke-miterlimit:10" /><ellipse
       transform="matrix(0.3077,-0.9515,0.9515,0.3077,-89.3382,444.2946)"
       cx="260.60001"
       cy="283.5"
       rx="2.3"
       ry="0.89999998"
       id="ellipse380" /><path
       class="st8"
       d="m 258,301.5 c -7.8,-6 -12.3,-21.9 -12.5,-34.8"
       id="path382"
       inkscape:connector-curvature="0"
       style="fill:none;stroke:#000000;stroke-miterlimit:10" /><ellipse
       class="st16"
       cx="271.10001"
       cy="325.60001"
       rx="10.4"
       ry="11.1"
       id="ellipse384"
       style="fill:none;stroke:#000000;stroke-width:3;stroke-miterlimit:10" /><line
       class="st8"
       x1="304"
       y1="307"
       x2="274"
       y2="312.60001"
       id="line386"
       style="fill:none;stroke:#000000;stroke-miterlimit:10" /><path
       class="st47"
       d="m 381.3,303.3 -9.3,10.7 -3.4,0.5 -3.9,-5 3.1,-6.5 1.4,5.3 1.9,0.3 6.8,-8.5 c 1.8,-0.1 3,1 3.4,3.2 z"
       id="path388"
       inkscape:connector-curvature="0"
       style="fill:#aaaaab" /><path
       class="st48"
       d="m 312,364.9 c -1.2,10.7 -1.7,23.2 -8.4,22.4 -1.1,-0.1 -8,-4.9 -9,-5.4 -4.9,-2.8 -7.8,-10.8 -6.8,-19.7 1.2,-10.7 7.6,-18.8 14.3,-18 6.7,0.8 11.1,10 9.9,20.7 z"
       id="path390"
       inkscape:connector-curvature="0"
       style="fill:#181818" /><path
       class="st48"
       d="m 352.6,327.6 c -0.7,10.4 -0.5,22.2 -5.6,21.8 -0.7,0 -6.5,-3.9 -7.1,-4.3 -4,-2.2 -6.5,-9.9 -5.9,-18.8 0.7,-10.4 5.5,-18.5 10.6,-18.1 5.1,0.4 8.8,9 8,19.4 z"
       id="path392"
       inkscape:connector-curvature="0"
       style="fill:#181818" /><path
       class="st49"
       d="m 364.3,279.6 c -5.1,-4.6 -16.7,-5.6 -21.7,-9.3 -12.3,-9.2 -19.8,-18.7 -45,-18.7 -14.8,0 -35.2,9.4 -48.7,20.7 -13.3,11.1 -15.3,30.7 -23.7,44 0,0 -26.1,19.4 -26.7,32 -1,22.3 22.9,38 73.3,38 8.5,0 14.8,-5.5 22.3,-9.7 8,-4.6 15.6,-9.8 22.8,-15.6 8.6,-6.8 16.5,-14 23.3,-20.1 9.2,-8.3 14.9,-13.5 19.3,-18.7 2.4,-2.8 4.6,-4.8 6.3,-9 5.4,-12.3 6,-26.9 -1.5,-33.6 z m -133,37.4 18,-39.7 43,3.7 -10,41.7 z m 58.4,6.6 9,-43 27,-14.3 26,19.7 z"
       id="path394"
       inkscape:connector-curvature="0"
       style="fill:#f9d332" /><path
       class="st5"
       d="m 261,378.3 c 0.1,3.5 -13.7,3.7 -25,1 -12.7,-3 -20.4,-6.3 -20.1,-10.6 0.3,-4.5 5.7,3.6 19.3,6.4 10.3,2.1 25.7,0.9 25.8,3.2 z"
       id="path396"
       inkscape:connector-curvature="0"
       style="fill:#353535" /><ellipse
       transform="matrix(0.1146,-0.9934,0.9934,0.1146,-93.7361,631.0818)"
       class="st50"
       cx="307.20001"
       cy="368.10001"
       rx="19.5"
       ry="12.2"
       id="ellipse398"
       style="fill:#2b2b2b" /><ellipse
       transform="matrix(0.06906001,-0.9976,0.9976,0.06906001,-4.7961,656.4421)"
       class="st50"
       cx="349.29999"
       cy="330.79999"
       rx="18.799999"
       ry="9.3000002"
       id="ellipse400"
       style="fill:#2b2b2b" /><path
       class="st51"
       d="m 220.4,349.2 c 3.3,6.6 2.3,13.7 -2.2,15.9 -4.5,2.2 -10.7,-1.4 -14,-8 -3.3,-6.6 -4.4,-17 0.1,-19.1 4.5,-2.1 12.8,4.6 16.1,11.2 z"
       id="path402"
       inkscape:connector-curvature="0"
       style="fill:#fff6d3" /><path
       class="st51"
       d="m 261,354.6 c -5.9,4.4 -8.4,11.1 -5.5,15.1 2.9,4 10.1,3.7 16.1,-0.6 6,-4.3 11.7,-13 8.8,-17 -2.9,-4 -13.4,-1.8 -19.4,2.5 z"
       id="path404"
       inkscape:connector-curvature="0"
       style="fill:#fff6d3" /><ellipse
       class="st51"
       cx="287.70001"
       cy="353.5"
       rx="2.7"
       ry="2.5"
       id="ellipse406"
       style="fill:#fff6d3" /><path
       class="st8"
       d="m 256.5,290.5 c 1.1,1.4 3,0.8 5.3,-1"
       id="path408"
       inkscape:connector-curvature="0"
       style="fill:none;stroke:#000000;stroke-miterlimit:10" /><ellipse
       cx="305.5"
       cy="293.70001"
       rx="0.69999999"
       ry="2.3"
       id="ellipse410" /><path
       d="m 314.7,290.1 c -0.6,-0.8 -1.4,-1.6 -2.3,-2.1 -0.9,-0.5 -1.9,-0.9 -3,-1.1 -2.2,-0.3 -4.4,-0.4 -6.5,-0.3 v -0.5 c 2.2,-0.2 4.5,-0.2 6.7,0.1 1.1,0.2 2.2,0.5 3.3,1.1 1,0.6 1.9,1.3 2.6,2.2 z"
       id="path412"
       inkscape:connector-curvature="0" /><ellipse
       cx="312.20001"
       cy="294.39999"
       rx="0.69999999"
       ry="2.3"
       id="ellipse414" /><path
       d="m 306.7,301.8 c 0.9,0.1 1.8,0.1 2.7,-0.1 0.9,-0.2 1.7,-0.6 2.3,-1.2 l 0.4,0.4 c -0.3,0.4 -0.7,0.7 -1.1,1 -0.4,0.3 -0.9,0.5 -1.4,0.6 -1,0.2 -2,0.1 -3,-0.1 z"
       id="path416"
       inkscape:connector-curvature="0" /><path
       class="st8"
       d="m 314.5,305.7 c 2.4,0 4.9,-0.3 7,0.5 3.1,1.3 2.3,3.1 -0.1,4.8 -4.7,3.3 -12.5,4.3 -15.9,9.1"
       id="path418"
       inkscape:connector-curvature="0"
       style="fill:none;stroke:#000000;stroke-miterlimit:10" /><path
       class="st12"
       d="m 279.3,315.9 c 0,0 -2.2,-1.7 -3,-0.4 -0.5,0.8 1.1,3.1 1,3.2 -0.6,0.3 -1.4,0.5 -2.1,0.4 -0.7,-0.1 -1.5,-0.8 -1.8,-0.8 -0.5,0 -1.1,0.5 -1.6,0.4 -0.5,-0.1 -1,-0.7 -1.5,-0.9 -0.5,-0.2 -1.1,0 -1.3,-0.4 -0.2,-0.4 0.3,-2 0.3,-2.6 0,-1.9 5,-3.6 7.3,-3.6 2.3,0 2.7,4.7 2.7,4.7 z"
       id="path420"
       inkscape:connector-curvature="0"
       style="fill:#ffffff;stroke:#231f20;stroke-miterlimit:10" /><path
       class="st17"
       d="m 308.4,327.7 c -0.3,0.7 -1.4,1.2 -1.7,0.6 -0.3,-0.6 0.1,-2.6 -0.6,-2.4 -0.7,0.2 -2.1,2.6 -2.9,2.4 -0.5,-0.2 0.9,-2.9 0.5,-3.3 -0.2,-0.2 -2.1,2.1 -2.2,2 -0.9,-1.2 -0.2,-2.8 0.5,-4.4 1,-2.4 2.6,-3.9 4.7,-3.1 2.1,0.8 2.6,5.8 1.7,8.2 z"
       id="path422"
       inkscape:connector-curvature="0"
       style="fill:#ffffff;stroke:#000000;stroke-miterlimit:10" /><polygon
       class="st52"
       points="570,266.6 570,178.6 599.3,153.3 599.3,239.3 "
       id="polygon424"
       style="fill:#393a44" /><ellipse
       transform="matrix(0.1146,-0.9934,0.9934,0.1146,-92.692,631.7028)"
       class="st53"
       cx="308"
       cy="367.89999"
       rx="10.3"
       ry="6.4000001"
       id="ellipse426"
       style="fill:#6d6c6d" /><ellipse
       transform="matrix(0.1146,-0.9934,0.9934,0.1146,-19.3081,639.9288)"
       class="st53"
       cx="349.29999"
       cy="330.79999"
       rx="9.6000004"
       ry="4.9000001"
       id="ellipse428"
       style="fill:#6d6c6d" /><polygon
       class="st47"
       points="387,159.1 104.8,329.4 114.9,346 388,181.2 "
       id="polygon430"
       style="fill:#aaaaab" /><path
       class="st17"
       d="m 251.4,255.8 c -0.5,-0.4 -3.4,3.5 -3.9,3.8 -0.2,-0.2 2.7,-7.3 1.9,-7.4 -0.8,-0.1 -4.2,6.3 -4.3,6.4 0,-0.8 0,-7.9 -0.7,-7.9 -0.7,0 -2.4,9.3 -2.9,9.8 -0.1,-0.2 -1.4,-0.7 -1.4,-0.8 -0.9,-0.9 -1,-2.9 -2.5,-2.4 -0.8,0.3 0.1,2.2 0.8,4.1 0.7,1.9 4,6 6.5,6 2.5,0 2.8,-2.1 4,-3.3 0.2,0 3.3,-7.6 2.5,-8.3 z"
       id="path432"
       inkscape:connector-curvature="0"
       style="fill:#ffffff;stroke:#000000;stroke-miterlimit:10" /></g></svg>