<?xml version="1.0" encoding="utf-8"?>
<!-- Generator: Adobe Illustrator 21.1.0, SVG Export Plug-In . SVG Version: 6.00 Build 0)  -->
<svg version="1.1" id="Layer_1" xmlns="http://www.w3.org/2000/svg" xmlns:xlink="http://www.w3.org/1999/xlink" x="0px" y="0px"
	 viewBox="0 0 600 526" style="enable-background:new 0 0 600 526;" xml:space="preserve">
<style type="text/css">
	.st0{fill:#4C4B4C;}
	.st1{fill:none;stroke:#FFDE77;stroke-width:6;stroke-miterlimit:10;}
	.st2{fill:#FFDE77;}
	.st3{fill:#40403F;}
	.st4{fill:#717187;}
	.st5{fill:#353535;}
	.st6{fill:#ED2024;stroke:#231F20;stroke-miterlimit:10;}
	.st7{fill:#ED6A56;stroke:#000000;stroke-miterlimit:10;}
	.st8{fill:none;stroke:#000000;stroke-miterlimit:10;}
	.st9{fill:#5974B8;stroke:#231F20;stroke-miterlimit:10;}
	.st10{fill:none;stroke:#262626;stroke-miterlimit:10;}
	.st11{fill:none;stroke:#231F20;stroke-miterlimit:10;}
	.st12{fill:#FFFFFF;stroke:#231F20;stroke-miterlimit:10;}
	.st13{fill:#6C5CA8;stroke:#231F20;stroke-miterlimit:10;}
	.st14{fill:none;stroke:#34343A;stroke-miterlimit:10;}
	.st15{fill:#555567;}
	.st16{fill:none;stroke:#000000;stroke-width:3;stroke-miterlimit:10;}
	.st17{fill:#FFFFFF;stroke:#000000;stroke-miterlimit:10;}
	.st18{fill:#FDF6AD;}
	.st19{fill:#704B4A;}
	.st20{fill:#BF7171;}
	.st21{fill:#A3A1A1;}
	.st22{fill:#7997AF;}
	.st23{fill:#0D131B;}
	.st24{fill:#F2DB6A;}
	.st25{fill:#3A3A3A;}
	.st26{fill:#232323;}
	.st27{fill:#9B3D47;}
	.st28{fill:#FFFFFF;stroke:#000000;stroke-width:0.5;stroke-miterlimit:10;}
	.st29{fill:none;}
	.st30{fill:#231F20;}
	.st31{fill:#FFFFFF;}
	.st32{fill:none;stroke:#000000;stroke-width:0.75;stroke-miterlimit:10;}
	.st33{fill:none;stroke:#000000;stroke-width:0.5;stroke-miterlimit:10;}
	.st34{fill:url(#SVGID_1_);}
	.st35{fill:#DDC5DF;stroke:#B881B8;stroke-miterlimit:10;}
	.st36{fill:#FFEFAF;}
	.st37{fill:#F2AF1D;stroke:#231F20;stroke-miterlimit:10;}
	.st38{fill:#FCDA70;}
	.st39{fill:#7C5D3C;}
	.st40{fill:#4D4D5F;}
	.st41{fill:#F2AF1D;}
	.st42{fill:#BCBBBB;}
	.st43{fill:#8DC63F;}
	.st44{fill:#695F75;}
	.st45{fill:#F2AF1D;stroke:#000000;stroke-miterlimit:10;}
	.st46{fill:#84A6D7;stroke:#000000;stroke-miterlimit:10;}
	.st47{fill:#AAAAAB;}
	.st48{fill:#181818;}
	.st49{fill:#F9D332;}
	.st50{fill:#2B2B2B;}
	.st51{fill:#FFF6D3;}
	.st52{fill:#393A44;}
	.st53{fill:#6D6C6D;}
</style>
<title>Traffic (Fast Lane)</title>
<g id="road">
	<polygon class="st0" points="23.1,191 223,526 564,188.9 508,156.6 446,112.9 	"/>
	<line class="st1" x1="41" y1="234.9" x2="462" y2="154.9"/>
	<line class="st1" x1="555" y1="181.9" x2="222" y2="503"/>
	<line class="st1" x1="349.5" y1="227.9" x2="355" y2="176.4"/>
	<line class="st1" x1="305.5" y1="251.9" x2="313" y2="184.9"/>
	<line class="st1" x1="260" y1="281" x2="271" y2="190.9"/>
	<line class="st1" x1="209.5" y1="315.5" x2="223.5" y2="200.9"/>
	<line class="st1" x1="141" y1="359" x2="158" y2="214.4"/>
	<line class="st1" x1="90.7" y1="303.3" x2="98.5" y2="226.4"/>
	<polygon class="st2" points="463.6,157.5 460.4,152.4 126.9,366.6 130,371.7 	"/>
</g>
<g id="Layer_5">
	<path class="st3" d="M289.1,114.1l5.8,0.9c0.9,0.1,1.8-0.1,2.5-0.7c0.3-0.3,3.4,0,3.7-0.4c0.1-0.2,0.6-0.9,0.1-1.3
		c-0.7-0.4-2.5-0.5-2.4-0.8l0,0c0.4-1.9-0.8-3.8-2.6-4.2l-5.8-0.9c-1.9-0.2-3.6,1.2-3.8,3.2l0,0C286,111.7,287.2,113.6,289.1,114.1z
		"/>
	<path class="st4" d="M93,123.2c0.4-0.1,30.1-0.6,30.1-0.6l3.5-21.6l5.1,0.5l-3.4,20.9h21.9l0.3-16.5l2.4-5.6l3,0.4l-2.4,15.3
		l23.3,1.1l7.5,25.9l-50.3,0.1l-42.3-13.4L93,123.2z"/>
	<polygon class="st4" points="193.1,127.1 214.4,124.3 218,111.9 221.3,105.4 262,106.4 273.9,132.8 239.5,140.6 191.4,131.1 	"/>
	<polygon class="st4" points="294.8,110.9 303.8,85.9 306.4,86.4 297.6,110.6 320.9,104.2 325.3,84.2 330.4,83.9 329.4,94.1 
		369.4,96.3 370.1,121.3 340,127.4 291,117.7 	"/>
	<path class="st5" d="M359.4,166.6c0,0-7.5,0.1-9.4-1.3c-1.2-0.9-2-3.9-2.3-5.3c-0.6-2.6-2-10.3-2-10.3l3.7-8l9.3-1.7L359.4,166.6z"
		/>
	<path class="st5" d="M389.4,161.6c0,0-5.8,0.1-7.4-1c-1.5-1.3-2.6-2.9-3.3-4.8c-0.5-2.1-0.8-4.2-0.9-6.4c0-0.9,0.1-3.2,0.1-3.2l7-2
		L389.4,161.6z"/>
	<path class="st5" d="M280.9,180.2c0,0,0.7,0.4-0.7-0.6c-1.2-0.8-7.3-1.5-7.7-2.9c-0.8-2.6-3-12.3-3-12.3l4.8-7.7l5.7,0.3
		L280.9,180.2z"/>
	<path class="st5" d="M250,183.2c0,0-5.8,0.4-7.3-0.7c-1.9-1.4-3.4-9-3.4-9l2.3-8l5-9l4.7,10L250,183.2z"/>
	<path class="st5" d="M181.6,193.9c0,0-7.4,0.9-9.3-0.6c-1.3-1-1.9-4.6-2-6.3s-0.8-6.1-0.8-6.1l1-15.4l13,3.7L181.6,193.9z"/>
	<path class="st5" d="M159,198c0,0-7.8-0.4-9.7-2c-1.3-1.1-2.6-4.5-3-6.1S145,183,145,183l0.7-6.3l5-9.7l7.3,5.7L159,198z"/>
</g>
<g id="cars">
	<g id="people_2">
		<polyline class="st6" points="343,102.2 347,106.7 351.3,119.4 326.3,117.2 331,104.7 343,102.2 343,102.2 343,102.2 		"/>
		<path class="st7" d="M255,111.1c0,0-3.1,9.6-4.7,12.5c-1.8,3.4-8.8,12.5-8.8,12.5l15.8,4l5.3-5.2l1-12.3l-0.3-9.7L255,111.1z"/>
		<path class="st8" d="M254.5,112.2c-0.5,1.6-6.4,9.4-8,11.1c-2.3,2.5-11,5.1-11.5,5.6"/>
		<path class="st9" d="M157.5,125l-3,20c0,0-19.3-0.8-18.8-1.5s16.8-20.5,16.8-20.5L157.5,125z"/>
		<path class="st10" d="M141.1,131.6c1.5,5.3-4.4,6.7-8.7,6.7s-9.3-4.2-8.4-7.7c0.9-3.9,4.4-6.7,8.4-6.6
			C136.7,124.1,140,127.8,141.1,131.6z"/>
		<path class="st11" d="M151.8,123.2c-3.1-0.6-7.3,0.1-10.6,0.3c-3.2,0.2-7.2,0.5-9.9,0.5"/>
		<path class="st12" d="M133.7,128.4c-0.3,0.8-0.6-1.2-1.2-1s-1.3,1.8-1.8,1.6c-1-0.3-1.8-1.1-1.2-3s2.9-2.8,3.9-2.4
			S134.3,126.5,133.7,128.4z"/>
		<polygon class="st13" points="214.6,123.7 213.9,132 223.7,133.1 222.5,126.2 220.3,121.3 		"/>
		<ellipse class="st14" cx="332.7" cy="114.6" rx="6.8" ry="6.3"/>
		<ellipse class="st12" cx="339.4" cy="110.6" rx="3.1" ry="2.9"/>
		<ellipse class="st12" cx="328.8" cy="109.9" rx="2.9" ry="2.4"/>
		<polygon class="st15" points="293.8,111.2 320.8,109.4 334,110.3 342.3,111.9 341.1,117.2 300.3,115.6 292.1,115.6 		"/>
		<ellipse class="st16" cx="229.8" cy="137.4" rx="7.5" ry="7.8"/>
		<path class="st17" d="M235.8,129.5c-0.4-2.3-3-1.9-4.4-1c-2.5,1.6-1.2,3.3,0.7,0.9c-1,1.6,0.4,2.6,1.4,0.8
			c-1.3,2.9,2.3,1.4,2.3-1.2c-0.3-0.1-0.2,0.1-0.3,0.1"/>
	</g>
	<path class="st3" d="M440.3,127.3c0,2.3-15.7,4.3-30.3,4.3s-28.7-8.7-28.7-11s12.4,5.3,27,5.3S440.3,125,440.3,127.3z"/>
	<path class="st18" d="M379.5,100.6c0.2,4.1,5,9,9.3,8.9s6.4-5.4,6.2-9.5s-7.6-11.4-11.9-11.2S379.3,96.4,379.5,100.6z"/>
	<polygon class="st19" points="374.3,104.4 400.8,104.6 390.2,121.8 373.3,124.3 	"/>
	<path class="st20" d="M377.5,109.6l-5.4-26.5c0,0-30.4-4-38.4-4.1c-8.8-0.1-28.3,3.1-28.3,3.1s-10.5,7-14.5,32
		c-0.6,3.5-17.2,7.4-17.3,10.5c0,15.3,3,27.9,17.8,33.8c8.5,3.4,24.4,3.3,37,3.3c22.4,0,72-20.9,72-20.9l0.3-36L377.5,109.6z
		 M313.4,113.6c-5-0.3-19.5,0.6-19.5,0.6l5.8-14.9l5.3-11.7c0,0,11.7-1.7,15.7-2c4.7-0.4,9.3-0.4,14,0l12.8,1.7l-7.4,28.6
		C340.1,116,319.9,114,313.4,113.6L313.4,113.6z M368.6,110.6l-21.4,5.4l1.8-7l5.3-21.3l14.7,0.3L368.6,110.6z"/>
	<polygon class="st21" points="289,148.4 326.8,153.8 339.5,151.4 341.5,152.1 342.7,161.6 324.3,163.8 289.3,159.6 	"/>
	<path class="st18" d="M281.1,131.8l8.2,0.9c1.6,0.2,2.7,1.6,2.5,3.2l-0.4,3.2c-0.2,1.6-1.6,2.7-3.2,2.5l-8.2-0.9
		c-1.6-0.2-2.7-1.6-2.5-3.2l0.4-3.2C278.1,132.8,279.6,131.6,281.1,131.8z"/>
	<polygon points="310.5,150.4 308.4,150.1 309.6,137.1 311.7,137.4 	"/>
	
		<rect x="299.4" y="142" transform="matrix(9.567202e-02 -0.9954 0.9954 9.567202e-02 134.3872 433.7656)" width="13" height="1.8"/>
	
		<rect x="295.7" y="141.6" transform="matrix(9.567202e-02 -0.9954 0.9954 9.567202e-02 131.3978 429.6613)" width="13" height="1.8"/>
	
		<rect x="291.7" y="141.3" transform="matrix(9.567202e-02 -0.9954 0.9954 9.567202e-02 128.1208 425.372)" width="13" height="1.8"/>
	
		<rect x="288" y="140.7" transform="matrix(9.567202e-02 -0.9954 0.9954 9.567202e-02 125.4131 421.1549)" width="13" height="1.8"/>
	<path class="st22" d="M294.5,149.5c0-12.9-7.6-29.7-14.5-39.5c-12.8-18-24.9-12.3-43.8-12.3c-23,0-39,9.5-48.3,28.8
		c-3.6,7.4-3,12.3-3,21c0,13.8-2,28.6,8.1,28.6c13.9-0.1,26.1,4.4,47.4,0.9c24.2-4,38.8-5.3,50.5-11.8
		C295.2,162.9,294.5,157.3,294.5,149.5z M238.7,136c0,0-20.1-5.6-27-6.3C207,129.1,193,130,193,130s1.2-3.4,1.5-4.5
		c0.9-3.4,9.7-15.1,14.8-17.3c3.1-1.4,11-1.7,13.6-1.5c5.4,0.4,17.5,1.6,17.5,1.6L238.7,136z M244.7,135.6l0.7-27.3l17-1l8,24
		L244.7,135.6z"/>
	<path class="st23" d="M224,165.2c0,3-12.1,2.8-23.5,2.8s-18.8-4.3-18.8-7.3s7.6,2.5,19,2.5S224,162.2,224,165.2z"/>
	<path class="st3" d="M77.8,124.5c-0.6,1.9,1.4,4.2,4.4,5.1c1.2,0.4,2.4,0.4,3.6,0.2c1-0.2,4.5,1.5,5,0.9c0.2-0.3-2.3-2.7-2.2-3
		c0.6-1.9-1.4-4.2-4.4-5.1S78.4,122.6,77.8,124.5z"/>
	<path class="st24" d="M192,171.3c-0.7-42.7-14-86.7-55.3-84c-29.1,1.9-40.2,15.9-48.9,39.7c-2.2,6.1-11.1,6.3-11.1,6.3l10,36
		l12,4.7l3.3,14.7c0,0,39.9,3.7,75-6.2c4.2-1.2,13.6-1.9,16.3-3.2C196.6,177.7,192,171.3,192,171.3z M93,128.7l11.6-23.4
		c0,0,5.5-1.7,7.7-2c3.4-0.6,10.5-0.3,14,0c3,0.3,12,1.7,12,1.7l3,1.7L144,124l0.3,9L93,128.7z M169,135.2
		c-4.8-0.1-18.5-0.8-18.5-0.8l-1.8-12.8l-3-16c3.5-0.7,7.1-1.3,10.7-1.7c3.1,0.2,6.2,0.5,9.3,1c0,0,4.8,6.3,6,8.7
		c2.1,3.9,6.3,16.7,6.3,16.7l1.3,5.4C179.3,135.7,171.7,135.3,169,135.2z"/>
	<path class="st5" d="M130.5,183c0,3.2-14.3,4.5-32,2.8c-9.3-0.9-18.8-1.3-18.8-4.5s4.5-3,14.8-1.5
		C104.2,181.2,130.5,179.8,130.5,183z"/>
	<ellipse class="st25" cx="250.5" cy="169.9" rx="7.2" ry="13.3"/>
	<ellipse class="st25" cx="280.4" cy="166.8" rx="6.2" ry="12.8"/>
	<ellipse class="st25" cx="359.5" cy="153.3" rx="6.2" ry="13.3"/>
	<ellipse class="st25" cx="389.1" cy="148.3" rx="6.2" ry="13.3"/>
	
		<ellipse transform="matrix(6.191961e-02 -0.9981 0.9981 6.191961e-02 -29.2518 327.9961)" class="st25" cx="159.9" cy="179.6" rx="18.4" ry="8.4"/>
	<path class="st25" d="M187,177.1c-0.5,10.1-3.4,17.2-6.3,17.1s-4.9-6.7-4.4-16.8s3.3-19,6.3-18.9S187.5,167,187,177.1z"/>
	<path class="st18" d="M232.2,147.9c0.7,2.7-5.1,5.1-12.4,7s-12,2.2-12.8-0.5s3.2-5.9,10.6-7.9S231.5,145.3,232.2,147.9z"/>
	<ellipse class="st18" cx="128.1" cy="161.6" rx="10.1" ry="10.4"/>
	<path class="st18" d="M319.2,136.5l10,0.5c1.8,0.1,3.2,1.6,3.1,3.4l-0.1,2.2c-0.1,1.8-1.6,3.2-3.4,3.1l-10-0.5
		c-1.8-0.1-3.2-1.6-3.1-3.4l0.1-2.2C315.9,137.7,317.4,136.4,319.2,136.5z"/>
	<path class="st18" d="M437,110.1c-2.2,3.8-9,6.3-12.7,4.1s-2.9-8-0.7-11.9s12.5-7.3,16.2-5.1S439.2,106.3,437,110.1z"/>
	<ellipse class="st18" cx="76.1" cy="154.8" rx="10.1" ry="10.4"/>
	<path class="st26" d="M73,172.2l-1.3,33c-32.1,5.9-72.5-30.3-53.8-75.8c16-38.8,2-35.3,31-30.8c17.8,2.8,36.3,43.9,37.8,72.8
		L73,172.2z"/>
	<path class="st15" d="M71.8,172.8l-1.1,32.8c0,0.7,0.5,1.2,1.1,1.2c0,0,0.1,0,0.1,0l29.5-1.7c0.6,0,1.1-0.5,1.1-1.1l0.9-17.1
		c0-0.1,0-0.2,0-0.3l-2.8-13.2c-0.1-0.4-0.4-0.8-0.8-0.9l-12-3.9c-0.6-0.2-1.3,0.2-1.5,0.8c0,0.1,0,0.1,0,0.2l0,0
		c-0.1,0.5-0.5,1-1.1,1l-12.3,1C72.3,171.8,71.8,172.3,71.8,172.8z"/>
	<path class="st0" d="M121.3,174h12.9c1,0,1.8,0.8,1.8,1.8v0.1c0,1-0.8,1.8-1.8,1.8h-12.9c-1,0-1.8-0.8-1.8-1.8v-0.1
		C119.5,174.8,120.3,174,121.3,174z"/>
	<ellipse class="st0" cx="159.8" cy="180.1" rx="3.5" ry="11.2"/>
	
		<ellipse transform="matrix(5.599575e-02 -0.9984 0.9984 5.599575e-02 -5.0364 349.2087)" class="st0" cx="182.2" cy="177.3" rx="11.3" ry="2.2"/>
	<ellipse class="st0" cx="250.7" cy="170.1" rx="3.7" ry="7.2"/>
	<ellipse class="st0" cx="280.6" cy="167.1" rx="3" ry="6.8"/>
	<ellipse class="st0" cx="360" cy="153.9" rx="2.3" ry="8"/>
	<ellipse class="st0" cx="389.3" cy="148.3" rx="2.7" ry="8.3"/>
	<ellipse class="st18" cx="446.5" cy="101.6" rx="2.5" ry="2"/>
	<ellipse class="st18" cx="376.2" cy="95.4" rx="0.8" ry="2.2"/>
	<path class="st27" d="M294.2,142.1c0.3,4.7,0.1,4.8,0.1,4.8s-6.6,0.2-6.6-6.6c0-5,2.3-11.3,2.3-11.3
		C290.8,130.7,293.9,138.1,294.2,142.1z"/>
</g>
<g id="people">
	<path class="st28" d="M251.7,105.3c0-5.1,3.2-9.3,8.8-8.5c3.5,0.5,6.5,4.1,6.5,9.2s-3.2,8.1-6.8,8.1S251.7,110.3,251.7,105.3z"/>
	<ellipse class="st12" cx="158.3" cy="117.9" rx="8" ry="9.3"/>
	<path class="st29" d="M261,109"/>
	<path class="st29" d="M257.2,110.1"/>
	
		<ellipse transform="matrix(6.174537e-02 -0.9981 0.9981 6.174537e-02 143.0511 358.0614)" class="st30" cx="262" cy="102.9" rx="1.7" ry="1"/>
	
		<ellipse transform="matrix(0.1611 -0.9869 0.9869 0.1611 114.3718 340.2878)" class="st30" cx="257.4" cy="102.9" rx="1.7" ry="1"/>
	<path class="st8" d="M263.2,113.8c-0.2,1.5,1,5.6,1.3,7.4s0.6,3.6,1,5.5c0.3,1.6,1,3.1,0.6,4.7c-0.6,1.7-1.4,3.2-2.4,4.6
		c-0.8,1.3-1.9,3.9-3,4.5"/>
	<path class="st17" d="M260.7,140.3c-1.2-0.5-2.5-0.6-3.8-0.3c-1.4,0.5-1.5,1.9,0.2,1.5c-0.7,0.7-3,2.6-1.8,3.6
		c0.6-0.4-0.3,1.1,1.8-1.2c-1.7,2.6-0.6,2.9,1.4,0.7c-1.3,2.1,0.4,2.2,1.6,0.4C260.9,143.8,262,141.1,260.7,140.3z"/>
	<ellipse class="st17" cx="216.4" cy="118.4" rx="6.1" ry="6"/>
	<ellipse transform="matrix(0.9959 -9.045877e-02 9.045877e-02 0.9959 -9.7347 19.8799)" cx="214.4" cy="117.3" rx="0.9" ry="1.4"/>
	<ellipse transform="matrix(0.9877 -0.1566 0.1566 0.9877 -15.5931 35.6572)" cx="218.5" cy="116.8" rx="0.9" ry="1.4"/>
	<path d="M215.5,120.8c0.4,0.4,0.9,0.6,1.4,0.5c0.5-0.1,1-0.3,1.4-0.7c0,0.3-0.2,0.6-0.4,0.8c-0.3,0.2-0.6,0.4-0.9,0.4
		c-0.3,0.1-0.7,0-1-0.2C215.7,121.4,215.5,121.1,215.5,120.8z"/>
	<ellipse cx="156.3" cy="116.9" rx="0.8" ry="1.9"/>
	<ellipse transform="matrix(0.9943 -0.1064 0.1064 0.9943 -11.5196 17.8722)" cx="161.7" cy="116.9" rx="0.8" ry="1.9"/>
	<path class="st29" d="M167.6,93.2L167.6,93.2"/>
	<path d="M157.1,123.2c0-0.3,0.2-0.7,0.5-0.8c0.3-0.2,0.7-0.3,1-0.2c0.7,0,1.2,0.5,1.5,1.1c-0.5-0.2-1-0.3-1.6-0.4
		C158,122.8,157.5,122.9,157.1,123.2z"/>
	<path class="st29" d="M328.3,99.5L328.3,99.5"/>
	<path class="st31" d="M343.6,99.1c0,4-4.6,7.5-8.3,7.5s-7.3-2.7-7.3-6.7s5.1-8,8.8-8C340.6,92,343.7,95.3,343.6,99.1
		C343.6,99.1,343.6,99.1,343.6,99.1z"/>
	<path class="st30" d="M343.9,99.1c-0.1,2.1-1.1,4-2.7,5.4c-1.5,1.4-3.4,2.3-5.5,2.5c-2.1,0.1-4.1-0.6-5.7-1.9
		c-1.6-1.3-2.5-3.4-2.4-5.5c0.3-2,1.3-3.9,3-5.2c1.5-1.4,3.3-2.3,5.4-2.6c2.1-0.3,4.1,0.4,5.6,1.9C343,95.1,343.9,97,343.9,99.1z
		 M343.3,99.1c0-1.9-0.7-3.8-2.1-5.1c-1.4-1.3-3.3-2-5.2-1.8c-1.9,0.4-3.6,1.2-5,2.6c-1.5,1.2-2.4,2.9-2.7,4.8
		c-0.1,1.9,0.7,3.7,2.2,4.9c1.5,1.2,3.3,1.8,5.2,1.7c1.9-0.2,3.7-1,5.1-2.3C342.3,102.8,343.2,101,343.3,99.1L343.3,99.1z"/>
	<ellipse class="st30" cx="332.2" cy="99.2" rx="0.8" ry="1.6"/>
	<ellipse class="st30" cx="339.3" cy="99.5" rx="0.8" ry="1.6"/>
	<path class="st30" d="M336.6,99c0.5-0.5,1.1-1,1.7-1.3c0.1-0.1,0.3-0.1,0.4-0.2c0.1-0.1,0.3-0.2,0.5-0.2c0.3-0.2,0.7-0.3,1.1-0.3
		c-0.2,0.3-0.4,0.6-0.6,0.9c-0.1,0.1-0.2,0.3-0.4,0.4c-0.2,0.1-0.3,0.2-0.5,0.3c-0.3,0.2-0.7,0.3-1,0.4C337.4,99,337,99,336.6,99z"
		/>
	<path class="st30" d="M330.8,95.8c0.5,0.3,0.9,0.7,1.2,1.2c0.3,0.5,0.5,1,0.6,1.5c-0.3,0-0.6-0.1-0.9-0.3c-0.2-0.2-0.4-0.4-0.6-0.6
		C330.9,97,330.7,96.4,330.8,95.8z"/>
	<path class="st30" d="M332.9,104.2c0-0.5,0.1-0.9,0.4-1.3c0.3-0.4,0.8-0.7,1.4-0.7c0.6,0,1.1,0.2,1.4,0.6c0.3,0.4,0.4,0.9,0.3,1.4
		c-0.4-0.6-1-1-1.7-1c-0.3,0-0.6,0.1-0.9,0.3C333.6,103.7,333.2,103.9,332.9,104.2z"/>
	<path class="st11" d="M155.7,142.3c1.5-0.2,5.4-3.1,6.4-4.6c1.9-2.7,0.2-4.2-0.5-5.6c-0.8-1.7-3.1-3.6-4.2-4.5"/>
	<path class="st32" d="M258.4,109.1c0.2-0.6,1-1,1.6-0.7c0.4,0.2,0.7,0.5,0.8,1"/>
	<path class="st33" d="M257.8,100.2c-0.6-1.8-2-0.1-2.3,1"/>
	<path class="st33" d="M261.3,100.3c0.3-1.4,2-0.8,2,0.1"/>
	<path class="st12" d="M156.3,142.2c-0.1,1.4-1.3,2.5-2.7,2.4c-0.7,0-1.4-0.1-2.1-0.5c-0.2-0.1,0.4-0.6,0.3-0.8s-0.9-0.2-0.9-0.5
		c0-0.6,1.6-0.7,2-1.2s-2.3-1-1.5-1.7C152.6,139.1,156.3,140.9,156.3,142.2z"/>
</g>
<g id="Layer_6">
	<path class="st3" d="M162.5,130.2c0.6,1.9-1.4,4.2-4.4,5.1c-1.2,0.4-2.4,0.4-3.6,0.2c-1-0.2-4.5,1.5-5,0.9c-0.2-0.3,2.3-2.7,2.2-3
		c-0.6-1.9,1.4-4.2,4.4-5.1S161.9,128.3,162.5,130.2z"/>
	<path class="st3" d="M256.5,134.1c0.2,2-2.2,3.8-5.3,4.1c-1.2,0.1-2.5,0-3.6-0.5c-0.9-0.4-4.7,0.6-5.1-0.1
		c-0.2-0.3,2.8-2.2,2.8-2.5c-0.2-2,2.2-3.8,5.3-4.1S256.4,132.1,256.5,134.1z"/>
	<path class="st3" d="M360.3,118.4l-6.7,1.1c-1,0.2-2-0.1-2.8-0.7c-0.4-0.3-3.9,0.1-4.2-0.3c-0.1-0.2-0.7-0.9-0.1-1.3
		c0.8-0.5,2.8-0.6,2.8-0.9l0,0c-0.3-2,1.1-4,3.1-4.3l6.7-1.1c2-0.3,4,1.1,4.3,3.1l0,0C363.7,116.1,362.3,118,360.3,118.4z"/>
	
		<linearGradient id="SVGID_1_" gradientUnits="userSpaceOnUse" x1="39.14" y1="263.38" x2="71.03" y2="263.38" gradientTransform="matrix(1 0 0 -1 0 528)">
		<stop  offset="0" style="stop-color:#FFFFFF"/>
		<stop  offset="0.26" style="stop-color:#FFFFFF;stop-opacity:0.86"/>
		<stop  offset="0.47" style="stop-color:#FFFFFF;stop-opacity:0.5"/>
		<stop  offset="0.7" style="stop-color:#FFFFFF;stop-opacity:0.14"/>
		<stop  offset="0.94" style="stop-color:#FFFFFF;stop-opacity:0"/>
	</linearGradient>
	<polygon class="st34" points="82,494 0,494 2,35.3 84,35.3 	"/>
</g>
<g id="TOLL">
	<path class="st35" d="M387.7,284.3c-3.8-6.3-7.5-3.3-8.3,2.4c-0.5,3.3,0.1,10.3,3.2,12.8c4.8,3.8,9.7-7.2,13.4-9.1
		c2.4-1.2,6.5-0.8,7.7-4s-2.4-2.9-1.6-5.6c0.5-1.7,5.6-4.9,6.9-6.1c3.5-3,7.3-5.6,11.4-7.7c2.7-1.5,7.5-3.2,9.6-5.4
		c2.3-2.3,2.2-5.9-1.8-4.9c2.5-1.9,4.1-4.9,1.5-6.8c-1.9-1.4-4.5,0-6-2.7c-2.6-4.6,5.9-7.9,8.5-9.9c5.1-3.8,10.6-6.1,16.3-8.8
		c3.4-1.6,8.9-3.1,9.3-7.6c-0.5-0.2-1-0.3-1.6-0.4c9.2-1.3,21-5.2,29-10c2.4-1.4,7.5-4.9,6.6-8.5c-0.7-2.8-3-1.6-5.6-2.2
		c-10.7-2.5,1.7-6.2,5.7-8.4c3.2-1.7,6.3-3.5,9.4-5.4c4-2.4,5.3-5.6,8.4-8.8c-1.1,0.2-2.3,0.3-3.4,0.3c4.5-5.3,11.9-8,16.7-13.2
		c1.3-1.5,7.3-9.4,0.9-7.9c5.5-5,15.3-8.3,16.6-16.8c-11.1-2.6-22.8,8.9-32.3,13.4c0.2-0.3,0.5-0.7,0.7-1c-3.3-1.5-11,8.8-13,11.3
		c-3.9,4.9-7.3,9.7-11.9,14c-2.2,2.1-5.8,5.5-8.8,6.3c-5.1,1.4-9.2,0.8-13.5,5c-2.2,2.2-6,6.5-6.7,9.7s0.2,3.1,3.2,4
		c1.7,0.5,7.7,0.6,7.2,3.7s-9.3,3.4-11.2,3.7c-4.2,0.6-10.1,0.3-13.5,3.3c-1.6,1.4-3.4,4.6,0.7,4c-3.5,2.1-7.9,3.1-11.8,4.4
		c-4.6,1.6-7.1,3.7-10.6,6.9c-1.6,1.5-7,6.6-1.3,7c-1.9,1.1-4.5,2.1-5.6,4c1.9,1.4,5.3,1.5,5.2,4c-0.2,4.6-10.4,11.5-13.2,14.4
		c-5.9,6.1-2.3,5.6,2.4,8.3c-2.9,3.9-7.7,3.4-11,6.7c0.3,0.3,0.5,0.7,0.7,1c-2.9,2.7-14.3,5.1-7.7,9.6
		C387.9,284.1,386.5,285.1,387.7,284.3z"/>
	<rect x="371.5" y="20.5" class="st36" width="71.5" height="130"/>
	<polygon class="st37" points="417,139.4 396.9,140.7 400.9,91.8 410.8,91.4 	"/>
	<ellipse class="st12" cx="405.9" cy="85.4" rx="8.2" ry="8.6"/>
	
		<rect x="394.5" y="102.4" transform="matrix(0.9089 -0.4169 0.4169 0.9089 -5.9463 184.6432)" class="st38" width="50.5" height="7"/>
	<rect x="432.5" y="48.5" class="st38" width="12.5" height="58"/>
	<polygon class="st39" points="412.5,33 340.1,32.7 367.5,3.5 446.4,5.2 	"/>
	<polygon class="st4" points="388,197.9 356.7,185.9 355.5,24.5 371.4,6 387.5,15.4 	"/>
	<path class="st40" d="M449,18l-61.5-2.5L388,198l61.5-38.2L449,18z M399.5,117l0.5-55l39-8.5l0.5,44L399.5,117z"/>
	<polygon class="st4" points="570.5,266 502.9,241 504.5,155.9 570.5,179.4 	"/>
	<polygon class="st41" points="477,23 402.3,25.7 367.5,3.5 438.6,0 	"/>
	<polygon class="st40" points="600,153.9 550.5,138.9 504.5,155.9 570.5,179.4 	"/>
	<path class="st41" d="M401.4,51.5l-0.1,0.4l-0.8,0.1l-0.3,0.1c-0.2,0-0.4,0.1-0.6,0.2c-0.2,0.1-0.3,0.1-0.4,0.3
		c-0.1,0.1-0.2,0.3-0.3,0.4c-0.1,0.2-0.1,0.5-0.1,0.7l1.1-0.2v0.4l-1.1,0.2v3.5l-0.4,0.1v-3.9c0-0.3,0-0.6,0.1-0.8
		c0.1-0.2,0.2-0.4,0.3-0.6c0.2-0.2,0.3-0.3,0.5-0.4c0.3-0.1,0.5-0.2,0.8-0.2L401.4,51.5z M400.9,53.3l0.4-0.1v3.9l-0.4,0.1V53.3z"/>
	<path class="st41" d="M402.5,56.9v-2.5c0-0.4,0.1-0.9,0.3-1.2c0.3-0.3,0.7-0.5,1.1-0.6c0.4-0.1,0.8-0.1,1.1,0.1
		c0.3,0.2,0.4,0.4,0.5,0.8c0,0.1,0,0.3,0,0.4v2.4l-0.4,0.1v-2.4c0-0.1,0-0.3,0-0.4c0-0.2-0.2-0.4-0.4-0.5c-0.2-0.1-0.5-0.1-0.8,0
		c-0.2,0-0.3,0.1-0.5,0.2c-0.3,0.1-0.5,0.3-0.5,0.6c0,0.2-0.1,0.4-0.1,0.6v2.5L402.5,56.9z"/>
	<path class="st41" d="M407.2,52.1l1.4-0.3l-0.1,0.4l-1.4,0.3v2.2c0,0.1,0,0.3,0,0.4c0,0.2,0.1,0.3,0.3,0.4c0.2,0.1,0.4,0.1,0.6,0
		l0.6-0.1l-0.1,0.4l-0.5,0.1c-0.3,0.1-0.6,0.1-0.9,0c-0.2-0.1-0.4-0.4-0.4-0.6c0-0.1,0-0.2,0-0.2c0-0.1,0-0.2,0-0.3v-3.4l0.4-0.2
		L407.2,52.1z"/>
	<path class="st41" d="M409.8,53.7c0,0.1,0,0.1,0,0.2c0,0.1,0,0.1,0,0.2c0,0.3,0.2,0.5,0.4,0.7c0.3,0.1,0.6,0.2,0.9,0.1l0.6-0.1
		l0.5-0.1L412,55l-0.5,0.1l-0.5,0.1c-0.2,0-0.5,0-0.7,0c-0.2,0-0.4-0.1-0.5-0.2c-0.1-0.1-0.3-0.2-0.3-0.3c-0.1-0.2-0.1-0.3-0.2-0.5
		c0-0.3-0.1-0.5,0-0.8c0-0.3,0.1-0.6,0.1-0.9c0.1-0.2,0.2-0.4,0.3-0.6c0.1-0.2,0.3-0.3,0.5-0.4c0.2-0.1,0.4-0.2,0.6-0.2
		c0.3-0.1,0.7-0.1,1,0.1c0.2,0.1,0.4,0.3,0.4,0.6c0,0.1,0,0.2,0,0.3c0,0.2,0,0.3-0.1,0.4c0,0.1-0.1,0.2-0.2,0.4
		c-0.1,0.1-0.3,0.2-0.4,0.3c-0.2,0.1-0.4,0.1-0.6,0.2L409.8,53.7z M411,51.6c-0.2,0-0.4,0.1-0.5,0.2c-0.1,0.1-0.3,0.2-0.4,0.3
		c-0.1,0.2-0.2,0.3-0.2,0.5c-0.1,0.2-0.1,0.5-0.1,0.7l1.2-0.2c0.2,0,0.3-0.1,0.5-0.1c0.1,0,0.2-0.1,0.3-0.2c0.1-0.1,0.1-0.1,0.2-0.2
		c0-0.1,0.1-0.2,0.1-0.3c0-0.1,0-0.2,0-0.3c0-0.2-0.1-0.3-0.3-0.4C411.4,51.6,411.2,51.6,411,51.6z"/>
	<path class="st41" d="M415,54.1l0.4-0.1l0.4-0.1l-0.1,0.4l-0.3,0.1l-0.4,0.1c-0.4,0.1-0.8,0.1-1.2-0.1c-0.3-0.2-0.5-0.5-0.5-0.9
		c0-0.3-0.1-0.5,0-0.8c0-0.3,0-0.6,0.1-0.9c0.1-0.2,0.2-0.4,0.3-0.6c0.2-0.2,0.3-0.3,0.5-0.4c0.2-0.1,0.5-0.2,0.8-0.2l0.3-0.1
		l0.4-0.1l-0.1,0.4h-0.3l-0.4,0.2c-0.2,0-0.4,0.1-0.6,0.2c-0.2,0.1-0.3,0.2-0.4,0.3c-0.1,0.1-0.2,0.3-0.2,0.5
		c-0.1,0.2-0.1,0.5-0.1,0.7c0,0.2,0,0.5,0,0.7c0,0.2,0.1,0.3,0.2,0.4c0.1,0.1,0.2,0.2,0.3,0.2c0.1,0.1,0.2,0.1,0.4,0.1
		C414.6,54.2,414.8,54.2,415,54.1z"/>
	<path class="st41" d="M416.8,48.6l0.4-0.1v2c0.1-0.2,0.2-0.3,0.4-0.4c0.2-0.1,0.4-0.2,0.7-0.2c0.3-0.1,0.7-0.1,1,0.1
		c0.3,0.2,0.4,0.4,0.5,0.7c0,0.2,0,0.3,0,0.5v2.4l-0.4,0.1v-2.4c0-0.1,0-0.1,0-0.2c0-0.1,0-0.1,0-0.2c0-0.2-0.2-0.4-0.4-0.5
		c-0.2-0.1-0.5-0.1-0.7,0c-0.2,0-0.3,0.1-0.5,0.2c-0.1,0.1-0.2,0.1-0.3,0.3c-0.1,0.1-0.2,0.3-0.2,0.4c0,0.2-0.1,0.4-0.1,0.6v2.4
		l-0.4,0.1L416.8,48.6z"/>
	<path class="st42" d="M423.5,48.6v4.3l-1.2,0.2v-4.3l-1.7,0.3l0.2-1.1l4.4-0.8l-0.2,1.1L423.5,48.6z"/>
	<path class="st42" d="M426.6,48.3c0.4-0.1,0.9-0.1,1.3,0.1c0.4,0.2,0.6,0.6,0.6,1c0,0.1,0,0.2,0,0.3c0,0.1,0,0.3,0,0.4
		c0,0.3,0,0.6-0.1,0.9c-0.1,0.2-0.2,0.5-0.3,0.7c-0.1,0.2-0.3,0.3-0.5,0.4c-0.3,0.1-0.5,0.2-0.8,0.3c-0.4,0.1-0.9,0.1-1.3-0.1
		c-0.3-0.2-0.6-0.6-0.6-1c0-0.1,0-0.2,0-0.3c0-0.1,0-0.2,0-0.4c0-0.3,0-0.6,0.1-0.9c0.1-0.2,0.2-0.5,0.3-0.7
		c0.1-0.2,0.3-0.3,0.5-0.4C426.1,48.4,426.4,48.3,426.6,48.3z M426.8,51.5c0.1,0,0.2-0.1,0.3-0.1c0.1,0,0.2-0.1,0.2-0.2
		c0.1-0.1,0.1-0.2,0.1-0.3c0-0.2,0-0.3,0-0.5c0-0.2,0-0.5,0-0.7c0-0.2-0.1-0.3-0.2-0.4c-0.1-0.1-0.3-0.1-0.5,0
		c-0.1,0-0.2,0.1-0.3,0.1c-0.1,0-0.2,0.1-0.2,0.2c-0.1,0.1-0.1,0.2-0.1,0.3c0,0.2,0,0.3,0,0.5c0,0.2,0,0.5,0,0.7
		c0,0.2,0.1,0.3,0.2,0.4C426.4,51.5,426.6,51.5,426.8,51.5z"/>
	<path class="st42" d="M431.3,49.4l1.7,1.8l-1.3,0.3l-1.4-1.5v1.7l-1.1,0.2v-5.6l1.1-0.2v3.1l1.2-1.6l1.4-0.3L431.3,49.4z"/>
	<path class="st42" d="M434.1,49.4v0.1c0,0.2,0.1,0.3,0.2,0.4c0.2,0.1,0.4,0.1,0.6,0l0.7-0.1l0.6-0.2l-0.2,0.9l-0.5,0.1l-0.7,0.1
		c-0.3,0-0.5,0-0.8,0c-0.2,0-0.4-0.1-0.5-0.2c-0.1-0.1-0.3-0.2-0.3-0.4c-0.1-0.2-0.1-0.3-0.2-0.5c0-0.2,0-0.4,0-0.6
		c0-0.3,0-0.7,0.1-1c0.1-0.3,0.2-0.5,0.4-0.7c0.2-0.2,0.3-0.3,0.6-0.4c0.2-0.1,0.4-0.2,0.7-0.2c0.4-0.1,0.8-0.1,1.2,0.1
		c0.3,0.2,0.5,0.4,0.5,0.7c0,0.1,0,0.1,0,0.2c0,0.1,0,0.1,0,0.2c0,0.3-0.1,0.7-0.4,0.9c-0.3,0.2-0.7,0.4-1.2,0.4L434.1,49.4z
		 M434.8,47.6c-0.2,0-0.4,0.1-0.5,0.3c-0.1,0.2-0.2,0.5-0.2,0.7l0.6-0.1l0.3-0.1c0.1,0,0.1,0,0.2-0.1c0,0,0.1-0.1,0.1-0.1
		c0-0.1,0-0.1,0-0.2c0-0.1,0-0.1,0-0.2c0-0.1-0.1-0.2-0.2-0.2C435.1,47.6,434.9,47.6,434.8,47.6L434.8,47.6z"/>
	<path class="st42" d="M438.2,50.2l-1.2,0.2v-2.5c0-0.3,0-0.5,0.1-0.8c0.1-0.2,0.2-0.4,0.3-0.6c0.1-0.2,0.3-0.3,0.5-0.4
		c0.2-0.1,0.5-0.2,0.8-0.2c0.4-0.1,0.8-0.1,1.2,0.1c0.3,0.2,0.5,0.5,0.6,0.8c0,0.1,0,0.1,0,0.2c0,0.1,0,0.2,0,0.2v2.3l-1.2,0.2v-2.4
		c0-0.1,0-0.1,0-0.1c0,0,0-0.1,0-0.1c0-0.1-0.1-0.2-0.2-0.3c-0.1,0-0.3,0-0.4,0c-0.1,0-0.2,0-0.3,0.1c-0.1,0-0.1,0.1-0.2,0.2
		c0,0.1-0.1,0.1-0.1,0.2c0,0.1,0,0.2,0,0.3L438.2,50.2z"/>
	<path class="st42" d="M417.1,38.9L417.1,38.9c-0.2,0.2-0.3,0.4-0.2,0.6s0.3,0.2,0.5,0.1c0,0,0,0,0.1-0.1l0.1-0.1
		c0.2-0.1,0.2-0.3,0.1-0.5S417.4,38.7,417.1,38.9C417.2,38.8,417.2,38.9,417.1,38.9z"/>
	<path class="st42" d="M418,38.1L418,38.1c-0.2,0.2-0.3,0.4-0.2,0.6s0.3,0.2,0.5,0.1c0,0,0,0,0.1-0.1l0.1-0.1
		c0.2-0.1,0.2-0.3,0.1-0.5S418.2,37.9,418,38.1C418,38,418,38,418,38.1z"/>
	<path class="st41" d="M424.7,31.7l-2.5-0.9c-0.5-0.2-1.1-0.1-1.5,0.3l-2,1.6c-0.3,0.2-0.4,0.6-0.3,0.9c0,0,0,0.1,0,0.1l0.4,2.3l0,0
		c0.2,1.1-0.1,1.3-0.1,1.3l0,0c-0.1,0.1-0.1,0.3,0,0.5c0.1,0.1,0.2,0.1,0.4,0.1h0.1l0,0c0.1-0.1,0.5-0.2,1.2,0.1l0.4,0.2l1.3,0.5
		c0.5,0.2,1,0.1,1.4-0.3l2-1.7c0.4-0.3,0.5-0.8,0.5-1.2l-0.5-2.7C425.4,32.2,425.1,31.8,424.7,31.7z M422.2,34.4
		c0.1,0.4,0.1,0.9,0.2,1.3c0,0.2,0.1,0.5,0.1,0.7s0,0.5,0,0.7c-0.1-0.2-0.1-0.4-0.2-0.7s-0.1-0.5-0.2-0.7c-0.1-0.4-0.2-0.8-0.3-1.3
		c-0.8-0.3-1.6-0.6-2.4-1c0.9,0.2,1.7,0.4,2.5,0.6l2.4-1.6L422.2,34.4z"/>
	<path class="st41" d="M416.8,39.7c-0.1-0.1-0.4-0.1-0.5,0l0,0c-0.1,0.1-0.3,0.3-1.1-0.1l-0.4-0.2l-1.3-0.5c-0.5-0.2-1-0.1-1.4,0.3
		l-2,1.7c-0.4,0.3-0.5,0.8-0.5,1.2l0.5,2.7c0.1,0.4,0.4,0.8,0.8,0.9l2.5,0.9c0.5,0.2,1.1,0.1,1.5-0.3l2-1.6c0.3-0.2,0.4-0.6,0.3-0.9
		c0,0,0-0.1,0-0.1l-0.4-2.3l0,0c-0.2-1.1,0-1.3,0-1.3l0,0C416.9,40.1,416.9,39.9,416.8,39.7C416.8,39.7,416.8,39.7,416.8,39.7z
		 M413.3,42.6c0.1,0.4,0.1,0.9,0.2,1.3c0,0.2,0.1,0.5,0.1,0.7s0,0.5,0,0.7c-0.1-0.2-0.1-0.4-0.2-0.7s-0.1-0.5-0.2-0.7
		c-0.1-0.4-0.2-0.8-0.3-1.3c-0.8-0.3-1.6-0.6-2.4-1c0.9,0.2,1.7,0.4,2.5,0.6l2.4-1.6L413.3,42.6z"/>
	<polygon class="st29" points="513.7,135.1 505.5,144 506.6,149.3 514.8,140.3 	"/>
	<polygon class="st29" points="519.1,162 510.9,170.9 511.7,174.8 513.6,174.4 520.2,167.2 	"/>
	<polygon class="st29" points="516.4,148.3 508.2,157.2 509.2,162.5 517.5,153.6 	"/>
	
		<rect x="494.9" y="28.2" transform="matrix(0.9805 -0.1966 0.1966 0.9805 -9.8503 100.2183)" class="st41" width="9.8" height="143"/>
	<polygon class="st29" points="500.4,77.6 492.2,86.5 493.2,91.7 501.5,82.8 	"/>
	<polygon class="st29" points="508.4,117.7 500.2,126.6 501.3,131.9 509.5,122.9 	"/>
	<polygon class="st29" points="505.7,103.9 497.4,112.8 498.5,118.1 506.7,109.2 	"/>
	<polygon class="st29" points="503,90.6 494.8,99.5 495.8,104.8 504.1,95.9 	"/>
	<polygon class="st29" points="493.2,41.7 485,50.6 486,55.9 494.3,46.9 	"/>
	<polygon class="st29" points="498,65.9 489.8,74.8 490.9,80 499.1,71.1 	"/>
	<polygon class="st29" points="495.7,54.2 487.5,63.1 488.5,68.3 496.8,59.4 	"/>
	<polygon class="st29" points="490.9,30 482.6,38.9 483.7,44.2 491.9,35.3 	"/>
	<polygon points="499.1,71.1 490.9,80 492.2,86.5 500.4,77.6 	"/>
	<polygon points="501.5,82.8 493.2,91.7 494.8,99.5 503,90.6 	"/>
	<polygon points="504.1,95.9 495.8,104.8 497.4,112.8 505.7,103.9 	"/>
	<polygon points="506.7,109.2 498.5,118.1 500.2,126.6 508.4,117.7 	"/>
	<polygon points="509.5,122.9 501.3,131.9 502.9,140 511.1,131.1 	"/>
	<polygon points="496.8,59.4 488.5,68.3 489.8,74.8 498,65.9 	"/>
	<polygon points="490.6,28.6 481,30.6 482.6,38.9 490.9,30 	"/>
	<polygon points="491.9,35.3 483.7,44.2 485,50.6 493.2,41.7 	"/>
	<polygon points="494.3,46.9 486,55.9 487.5,63.1 495.7,54.2 	"/>
	<polygon points="511,170.4 518.7,168.9 517.6,163.2 	"/>
	<polygon points="514.8,149.6 506.6,158.5 508.3,166.9 516.5,158 	"/>
	<polygon points="512.2,136.3 503.9,145.3 505.5,153.2 513.8,144.3 	"/>
	<polygon points="552.7,235.3 515,222.3 515,186.3 552.7,199.3 	"/>
	<polygon class="st43" points="532.7,222.3 527.6,220.2 540.3,200.6 547.4,202.3 	"/>
	
		<rect x="524.7" y="205.9" transform="matrix(0.9123 -0.4094 0.4094 0.9123 -40.915 234.4446)" class="st43" width="4.7" height="13.7"/>
	<path class="st11" d="M411,92.1c1.7,0.9,5,6.1,6.5,8.1c0.7,1,1,2.1,1.1,3.3c-1.6,1-3.3,1.9-5.1,2.6c-1.6,0.6-4.5,1.7-5.2,2.9"/>
	<path class="st11" d="M405.5,89.6c1.1,1,2.8,0.9,3.8-0.2c0.1-0.1,0.1-0.1,0.2-0.2"/>
	
		<ellipse transform="matrix(0.9972 -7.515277e-02 7.515277e-02 0.9972 -5.1533 31.0555)" class="st30" cx="410.1" cy="84" rx="1" ry="1.6"/>
	
		<ellipse transform="matrix(0.1031 -0.9947 0.9947 0.1031 279.2592 478.1498)" class="st30" cx="404.8" cy="84.2" rx="1.7" ry="1.1"/>
	<path class="st12" d="M408.7,110.4c-0.5,0.7-2.4,2.5-3.2,1.9c-0.5-0.4,0.9-1.3,0.7-1.3s-1.4,1.2-1.9,0.8s1-1,1.1-1.8
		c0-0.3-1.4,1.3-1.6,0.9c-0.5-1.2,1.4-3.3,4.3-3.1C409.3,107.8,409.4,109.3,408.7,110.4z"/>
</g>
<g id="Car">
	<polygon class="st44" points="225.3,319.6 270.3,292.6 276,271 306,262 313.7,274.6 335,278 345.3,278.6 356.3,284.6 351.3,297.3 
		281.7,334.6 	"/>
	<path class="st45" d="M288.6,343l-20-2c20.9-7.5,37.1-15.3,34.8-34.8l11-1.3C315.3,327.5,303.7,337.1,288.6,343z"/>
	<polyline class="st31" points="305.9,288 302.8,289.3 300.3,292.1 298.4,296.8 298.4,300.5 299.4,303.2 301.8,306 305.4,307.8 
		308.2,308.4 310.9,307.8 314.6,306.2 317.1,304 318.4,301 318.8,298 318.6,294.6 316.1,291 314.8,289.5 313.2,290.6 311.2,291 
		309,290.6 305.9,288 305.9,288 	"/>
	<path class="st46" d="M270.5,332.7l-29.5,0.5c10.3-13.9,16.9-27.3,18.5-40H273C274.9,304.5,273.6,317.9,270.5,332.7z"/>
	<polygon class="st29" points="305.9,288 299.7,292.1 298.1,290.8 300,287.7 303.2,286.3 307.2,286.3 310.6,286.7 313.1,287.9 
		314.8,289.5 312.8,290.9 310,290.8 307.9,289.7 	"/>
	<path class="st31" d="M305.6,286.4c1.4-2,3.8-2.9,6.1-2.3c2.9,0.8,5.4,2.9,6.7,5.6c0.6,1.5,0.6,3.1,0,4.6c0-0.1,0-0.2,0-0.3"/>
	<path d="M305.4,286.3c1-1.5,2.7-2.5,4.5-2.6c0.9-0.1,1.8,0.1,2.7,0.4c0.8,0.3,1.6,0.7,2.4,1.2c1.5,1,2.7,2.3,3.6,3.9
		c0.2,0.4,0.4,0.8,0.5,1.3c0.3,1.4,0.3,2.8-0.2,4.1l0,0l-1,2.5v-3l1,0.1v0.3l-1-0.2l0,0c0.3-0.7,0.4-1.5,0.4-2.3
		c0-0.8-0.2-1.6-0.6-2.3c-0.8-1.5-1.9-2.7-3.3-3.7c-0.7-0.5-1.4-0.9-2.2-1.1c-0.8-0.3-1.6-0.5-2.4-0.5c-1.7,0.1-3.2,0.9-4.2,2.3
		L305.4,286.3z"/>
	<ellipse class="st17" cx="266.1" cy="287.8" rx="10.1" ry="10.9"/>
	<path class="st8" d="M314.8,289.5c2.6,2.8,3.9,4.3,3.9,8.5c0,5.7-4.6,10.3-10.3,10.3s-10.3-4.6-10.3-10.3c0-2.4,1.7-5.6,3.1-7.4"/>
	<path class="st8" d="M307.3,287.7"/>
	<polyline class="st41" points="305.5,287.2 302.8,286.6 300.4,287.5 299.1,288.8 298.3,290.3 298.6,291.8 300.1,291.7 303.1,289.3 
		305.9,288 305.5,287.2 	"/>
	<polygon class="st41" points="314.5,289.6 312.3,291 309.4,290.6 304,286.5 309,286.3 312.4,287.3 	"/>
	<path class="st8" d="M306.4,287.8c-2.2,0.3-3.2,1.1-4.9,2.6c-0.6,0.5-1.4,1.7-2.4,1.3s-1-1.7-0.4-2.6c0.8-1.1,1.8-1.9,3.1-2.4
		c2.6-1,4,0.6,5.6,2c0.7,0.7,1.5,1.2,2.3,1.6c1.6,0.7,3.5,0.4,4.8-0.9"/>
	<ellipse transform="matrix(0.3077 -0.9515 0.9515 0.3077 -89.3382 444.2946)" cx="260.6" cy="283.5" rx="2.3" ry="0.9"/>
	<path class="st8" d="M258,301.5c-7.8-6-12.3-21.9-12.5-34.8"/>
	<ellipse class="st16" cx="271.1" cy="325.6" rx="10.4" ry="11.1"/>
	<line class="st8" x1="304" y1="307" x2="274" y2="312.6"/>
	<path class="st47" d="M381.3,303.3l-9.3,10.7l-3.4,0.5l-3.9-5l3.1-6.5l1.4,5.3l1.9,0.3l6.8-8.5C379.7,300,380.9,301.1,381.3,303.3z
		"/>
	<path class="st48" d="M312,364.9c-1.2,10.7-1.7,23.2-8.4,22.4c-1.1-0.1-8-4.9-9-5.4c-4.9-2.8-7.8-10.8-6.8-19.7
		c1.2-10.7,7.6-18.8,14.3-18S313.2,354.2,312,364.9z"/>
	<path class="st48" d="M352.6,327.6c-0.7,10.4-0.5,22.2-5.6,21.8c-0.7,0-6.5-3.9-7.1-4.3c-4-2.2-6.5-9.9-5.9-18.8
		c0.7-10.4,5.5-18.5,10.6-18.1S353.4,317.2,352.6,327.6z"/>
	<path class="st49" d="M364.3,279.6c-5.1-4.6-16.7-5.6-21.7-9.3c-12.3-9.2-19.8-18.7-45-18.7c-14.8,0-35.2,9.4-48.7,20.7
		c-13.3,11.1-15.3,30.7-23.7,44c0,0-26.1,19.4-26.7,32c-1,22.3,22.9,38,73.3,38c8.5,0,14.8-5.5,22.3-9.7c8-4.6,15.6-9.8,22.8-15.6
		c8.6-6.8,16.5-14,23.3-20.1c9.2-8.3,14.9-13.5,19.3-18.7c2.4-2.8,4.6-4.8,6.3-9C371.2,300.9,371.8,286.3,364.3,279.6z M231.3,317
		l18-39.7l43,3.7l-10,41.7L231.3,317z M289.7,323.6l9-43l27-14.3l26,19.7L289.7,323.6z"/>
	<path class="st5" d="M261,378.3c0.1,3.5-13.7,3.7-25,1c-12.7-3-20.4-6.3-20.1-10.6c0.3-4.5,5.7,3.6,19.3,6.4
		C245.5,377.2,260.9,376,261,378.3z"/>
	
		<ellipse transform="matrix(0.1146 -0.9934 0.9934 0.1146 -93.7361 631.0818)" class="st50" cx="307.2" cy="368.1" rx="19.5" ry="12.2"/>
	
		<ellipse transform="matrix(6.906001e-02 -0.9976 0.9976 6.906001e-02 -4.7961 656.4421)" class="st50" cx="349.3" cy="330.8" rx="18.8" ry="9.3"/>
	<path class="st51" d="M220.4,349.2c3.3,6.6,2.3,13.7-2.2,15.9s-10.7-1.4-14-8s-4.4-17,0.1-19.1S217.1,342.6,220.4,349.2z"/>
	<path class="st51" d="M261,354.6c-5.9,4.4-8.4,11.1-5.5,15.1s10.1,3.7,16.1-0.6s11.7-13,8.8-17S267,350.3,261,354.6z"/>
	<ellipse class="st51" cx="287.7" cy="353.5" rx="2.7" ry="2.5"/>
	<path class="st8" d="M256.5,290.5c1.1,1.4,3,0.8,5.3-1"/>
	<ellipse cx="305.5" cy="293.7" rx="0.7" ry="2.3"/>
	<path d="M314.7,290.1c-0.6-0.8-1.4-1.6-2.3-2.1c-0.9-0.5-1.9-0.9-3-1.1c-2.2-0.3-4.4-0.4-6.5-0.3v-0.5c2.2-0.2,4.5-0.2,6.7,0.1
		c1.1,0.2,2.2,0.5,3.3,1.1c1,0.6,1.9,1.3,2.6,2.2L314.7,290.1z"/>
	<ellipse cx="312.2" cy="294.4" rx="0.7" ry="2.3"/>
	<path d="M306.7,301.8c0.9,0.1,1.8,0.1,2.7-0.1c0.9-0.2,1.7-0.6,2.3-1.2l0.4,0.4c-0.3,0.4-0.7,0.7-1.1,1c-0.4,0.3-0.9,0.5-1.4,0.6
		c-1,0.2-2,0.1-3-0.1L306.7,301.8z"/>
	<path class="st8" d="M314.5,305.7c2.4,0,4.9-0.3,7,0.5c3.1,1.3,2.3,3.1-0.1,4.8c-4.7,3.3-12.5,4.3-15.9,9.1"/>
	<path class="st12" d="M279.3,315.9c0,0-2.2-1.7-3-0.4c-0.5,0.8,1.1,3.1,1,3.2c-0.6,0.3-1.4,0.5-2.1,0.4c-0.7-0.1-1.5-0.8-1.8-0.8
		c-0.5,0-1.1,0.5-1.6,0.4s-1-0.7-1.5-0.9s-1.1,0-1.3-0.4s0.3-2,0.3-2.6c0-1.9,5-3.6,7.3-3.6S279.3,315.9,279.3,315.9z"/>
	<path class="st17" d="M308.4,327.7c-0.3,0.7-1.4,1.2-1.7,0.6s0.1-2.6-0.6-2.4s-2.1,2.6-2.9,2.4c-0.5-0.2,0.9-2.9,0.5-3.3
		c-0.2-0.2-2.1,2.1-2.2,2c-0.9-1.2-0.2-2.8,0.5-4.4c1-2.4,2.6-3.9,4.7-3.1S309.3,325.3,308.4,327.7z"/>
	<polygon class="st52" points="599.3,239.3 570,266.6 570,178.6 599.3,153.3 	"/>
	
		<ellipse transform="matrix(0.1146 -0.9934 0.9934 0.1146 -92.692 631.7028)" class="st53" cx="308" cy="367.9" rx="10.3" ry="6.4"/>
	
		<ellipse transform="matrix(0.1146 -0.9934 0.9934 0.1146 -19.3081 639.9288)" class="st53" cx="349.3" cy="330.8" rx="9.6" ry="4.9"/>
	<polygon class="st47" points="388,181.2 387,159.1 104.8,329.4 114.9,346 	"/>
	<path class="st17" d="M251.4,255.8c-0.5-0.4-3.4,3.5-3.9,3.8c-0.2-0.2,2.7-7.3,1.9-7.4s-4.2,6.3-4.3,6.4c0-0.8,0-7.9-0.7-7.9
		s-2.4,9.3-2.9,9.8c-0.1-0.2-1.4-0.7-1.4-0.8c-0.9-0.9-1-2.9-2.5-2.4c-0.8,0.3,0.1,2.2,0.8,4.1s4,6,6.5,6s2.8-2.1,4-3.3
		C249.1,264.1,252.2,256.5,251.4,255.8z"/>
</g>
</svg>
