<?xml version="1.0" encoding="UTF-8" standalone="no"?>
<svg
   xmlns:dc="http://purl.org/dc/elements/1.1/"
   xmlns:cc="http://creativecommons.org/ns#"
   xmlns:rdf="http://www.w3.org/1999/02/22-rdf-syntax-ns#"
   xmlns:svg="http://www.w3.org/2000/svg"
   xmlns="http://www.w3.org/2000/svg"
   xmlns:sodipodi="http://sodipodi.sourceforge.net/DTD/sodipodi-0.dtd"
   xmlns:inkscape="http://www.inkscape.org/namespaces/inkscape"
   viewBox="0 0 500 500"
   version="1.1"
   id="svg216"
   sodipodi:docname="Scenario-Traffic-Lane.svg"
   width="500"
   height="500"
   inkscape:version="0.92.2 (30a58d1, 2017-08-07)">
  <metadata
     id="metadata220">
    <rdf:RDF>
      <cc:Work
         rdf:about="">
        <dc:format>image/svg+xml</dc:format>
        <dc:type
           rdf:resource="http://purl.org/dc/dcmitype/StillImage" />
        <dc:title>Traffic v1 (straight borders)</dc:title>
      </cc:Work>
    </rdf:RDF>
  </metadata>
  <sodipodi:namedview
     pagecolor="#ffffff"
     bordercolor="#666666"
     borderopacity="1"
     objecttolerance="10"
     gridtolerance="10"
     guidetolerance="10"
     inkscape:pageopacity="0"
     inkscape:pageshadow="2"
     inkscape:window-width="1366"
     inkscape:window-height="717"
     id="namedview218"
     showgrid="false"
     inkscape:zoom="0.91630798"
     inkscape:cx="201.28394"
     inkscape:cy="214.06108"
     inkscape:window-x="0"
     inkscape:window-y="27"
     inkscape:window-maximized="1"
     inkscape:current-layer="svg216" />
  <defs
     id="defs4">
    <style
       id="style2">.cls-1{fill:#4c4b4c;}.cls-11,.cls-12,.cls-15,.cls-17,.cls-2,.cls-33,.cls-6,.cls-9{fill:none;}.cls-2{stroke:#ffde77;stroke-width:6px;}.cls-10,.cls-11,.cls-12,.cls-13,.cls-14,.cls-15,.cls-17,.cls-18,.cls-2,.cls-31,.cls-6,.cls-7,.cls-8,.cls-9{stroke-miterlimit:10;}.cls-3{fill:#40403f;}.cls-4{fill:#717187;}.cls-5{fill:#353535;}.cls-6{stroke:#555567;}.cls-17,.cls-6{stroke-width:3px;}.cls-7{fill:#ed2024;}.cls-10,.cls-12,.cls-13,.cls-14,.cls-7{stroke:#231f20;}.cls-8{fill:#ed6a56;}.cls-17,.cls-18,.cls-31,.cls-8,.cls-9{stroke:#000;}.cls-10{fill:#5974b8;}.cls-11{stroke:#262626;}.cls-13,.cls-18,.cls-31,.cls-34{fill:#fff;}.cls-14{fill:#6c5ca8;}.cls-15{stroke:#34343a;}.cls-16{fill:#555567;}.cls-19{fill:#89837e;}.cls-20{fill:#fdf6ad;}.cls-21{fill:#704b4a;}.cls-22{fill:#bf7171;}.cls-23{fill:#a3a1a1;}.cls-24{fill:#7997af;}.cls-25{fill:#0d131b;}.cls-26{fill:#f2db6a;}.cls-27{fill:#3a3a3a;}.cls-28{fill:#4d4b49;}.cls-29{fill:#232323;}.cls-30{fill:#9b3d47;}.cls-31{stroke-width:0.5px;}.cls-32{fill:#231f20;}</style>
  </defs>
  <title
     id="title6">Traffic v1 (straight borders)</title>
  <g
     id="road"
     transform="matrix(1.2370243,0,0,1.4409445,-80.98133,32.429467)">
    <polygon
       class="cls-1"
       points="25.18,195.09 25.18,255.09 476.08,167 510.08,160.67 448.08,117 "
       id="polygon8"
       style="fill:#4c4b4c" />
    <line
       class="cls-2"
       x1="43.080002"
       y1="239"
       x2="477.07999"
       y2="156"
       id="line10"
       style="fill:none;stroke:#ffde77;stroke-width:6px;stroke-miterlimit:10" />
  </g>
  <g
     id="Layer_5"
     data-name="Layer 5"
     transform="matrix(1.2127173,0,0,1.4409445,-68.582852,32.429467)">
    <path
       class="cls-3"
       d="m 290,148 5.84,0.94 a 3.09,3.09 0 0 0 2.47,-0.72 c 0.34,-0.28 3.43,0 3.66,-0.4 0.1,-0.18 0.64,-0.92 0.13,-1.25 -0.68,-0.45 -2.47,-0.51 -2.42,-0.81 v 0 a 3.55,3.55 0 0 0 -2.65,-4.22 l -5.84,-0.94 a 3.55,3.55 0 0 0 -3.84,3.18 v 0 A 3.55,3.55 0 0 0 290,148 Z"
       transform="translate(1.19,-29.9)"
       id="path13"
       inkscape:connector-curvature="0"
       style="fill:#40403f" />
    <path
       class="cls-4"
       d="m 93.9,157.15 c 0.38,-0.12 30.13,-0.62 30.13,-0.62 l 3.5,-21.62 5.13,0.5 -3.37,20.88 h 21.88 l 0.25,-16.5 2.38,-5.62 3,0.38 -2.4,15.35 23.25,1.1 7.5,25.88 L 134.9,177 92.65,163.65 Z"
       transform="translate(1.19,-29.9)"
       id="path15"
       inkscape:connector-curvature="0"
       style="fill:#717187" />
    <polygon
       class="cls-4"
       points="220.08,116 223.33,109.5 264.08,110.5 275.96,136.88 241.58,144.63 193.46,135.13 195.21,131.13 216.46,128.38 "
       id="polygon17"
       style="fill:#717187" />
    <polygon
       class="cls-4"
       points="342.08,131.5 293.08,121.75 296.83,115 305.83,90 308.46,90.5 299.71,114.63 322.96,108.25 327.33,88.25 332.46,88 331.46,98.13 371.46,100.38 372.21,125.38 "
       id="polygon19"
       style="fill:#717187" />
    <polygon
       class="cls-4"
       points="458.46,86.63 409.96,80.38 410.83,77.38 430.33,75.13 436.96,55.38 464.21,57.38 "
       id="polygon21"
       style="fill:#717187" />
    <path
       class="cls-5"
       d="m 360.27,200.52 c 0,0 -7.49,0.14 -9.37,-1.29 -1.16,-0.88 -2,-3.91 -2.33,-5.33 -0.59,-2.57 -2,-10.33 -2,-10.33 l 3.67,-8 9.33,-1.67 z"
       transform="translate(1.19,-29.9)"
       id="path23"
       inkscape:connector-curvature="0"
       style="fill:#353535" />
    <path
       class="cls-5"
       d="m 390.27,195.52 c 0,0 -5.81,0.05 -7.37,-1 a 11.75,11.75 0 0 1 -3.25,-4.79 34.91,34.91 0 0 1 -0.87,-6.37 c 0,-0.85 0.13,-3.17 0.13,-3.17 l 7,-2 z"
       transform="translate(1.19,-29.9)"
       id="path25"
       inkscape:connector-curvature="0"
       style="fill:#353535" />
    <path
       class="cls-5"
       d="m 281.81,214.11 c 0,0 0.66,0.37 -0.71,-0.59 -1.18,-0.83 -7.29,-1.49 -7.7,-2.87 -0.76,-2.57 -3,-12.25 -3,-12.25 l 4.75,-7.67 5.67,0.33 z"
       transform="translate(1.19,-29.9)"
       id="path27"
       inkscape:connector-curvature="0"
       style="fill:#353535" />
    <path
       class="cls-5"
       d="m 250.9,217.18 c 0,0 -5.8,0.44 -7.25,-0.66 -1.91,-1.45 -3.42,-9 -3.42,-9 l 2.33,-8 5,-9 4.67,10 z"
       transform="translate(1.19,-29.9)"
       id="path29"
       inkscape:connector-curvature="0"
       style="fill:#353535" />
    <polygon
       class="cls-5"
       points="450.19,122.76 468,125.83 466.69,151.14 452.58,149.67 448.86,144.06 446.42,132.5 "
       id="polygon31"
       style="fill:#353535" />
    <path
       class="cls-5"
       d="m 182.52,227.86 c 0,0 -7.44,0.86 -9.25,-0.59 -1.28,-1 -1.87,-4.61 -2,-6.25 -0.13,-1.64 -0.75,-6.12 -0.75,-6.12 l 1,-15.42 13,3.67 z"
       transform="translate(1.19,-29.9)"
       id="path33"
       inkscape:connector-curvature="0"
       style="fill:#353535" />
    <path
       class="cls-5"
       d="m 159.9,231.9 c 0,0 -7.8,-0.39 -9.67,-2 -1.28,-1.1 -2.55,-4.49 -3,-6.12 -0.45,-1.63 -1.37,-6.87 -1.37,-6.87 l 0.67,-6.33 5,-9.67 7.33,5.67 z"
       transform="translate(1.19,-29.9)"
       id="path35"
       inkscape:connector-curvature="0"
       style="fill:#353535" />
    <ellipse
       class="cls-6"
       cx="452.70999"
       cy="81.25"
       rx="8.3800001"
       ry="8.25"
       id="ellipse37"
       style="fill:none;stroke:#555567;stroke-width:3px;stroke-miterlimit:10" />
  </g>
  <g
     id="cars"
     transform="matrix(1.1999999,0,0,1.2,-50,72.292005)">
    <g
       id="people_2"
       data-name="people 2"
       transform="matrix(1.0105978,0,0,1.2007871,-15.485711,-33.218778)">
      <polyline
         class="cls-7"
         points="345.08 106.25 349.08 110.75 353.33 123.5 328.33 121.25 333.08 108.75 345.08 106.25 345.08 106.25 345.08 106.25"
         id="polyline40"
         style="fill:#ed2024;stroke:#231f20;stroke-miterlimit:10" />
      <path
         class="cls-8"
         d="m 255.9,145.06 c 0,0 -3.11,9.55 -4.67,12.5 -1.79,3.38 -8.83,12.5 -8.83,12.5 l 15.83,4 5.33,-5.17 1,-12.33 -0.33,-9.67 z"
         transform="translate(1.19,-29.9)"
         id="path42"
         inkscape:connector-curvature="0"
         style="fill:#ed6a56;stroke:#000000;stroke-miterlimit:10" />
      <path
         class="cls-9"
         d="m 255.4,146.15 c -0.49,1.64 -6.39,9.36 -8,11.12 -2.29,2.49 -11,5.05 -11.49,5.63"
         transform="translate(1.19,-29.9)"
         id="path44"
         inkscape:connector-curvature="0"
         style="fill:none;stroke:#000000;stroke-miterlimit:10" />
      <path
         class="cls-10"
         d="m 158.4,158.9 -3,20 c 0,0 -19.25,-0.75 -18.75,-1.5 0.5,-0.75 16.75,-20.5 16.75,-20.5 z"
         transform="translate(1.19,-29.9)"
         id="path46"
         inkscape:connector-curvature="0"
         style="fill:#5974b8;stroke:#231f20;stroke-miterlimit:10" />
      <path
         class="cls-11"
         d="m 142,165.56 c 1.5,5.33 -4.36,6.67 -8.71,6.67 -4.35,0 -9.29,-4.23 -8.39,-7.67 a 8.43,8.43 0 0 1 8.38,-6.58 c 4.34,0.02 7.64,3.8 8.72,7.58 z"
         transform="translate(1.19,-29.9)"
         id="path48"
         inkscape:connector-curvature="0"
         style="fill:none;stroke:#262626;stroke-miterlimit:10" />
      <path
         class="cls-12"
         d="m 152.65,157.15 c -3.12,-0.65 -7.29,0.08 -10.62,0.25 -3.17,0.16 -7.16,0.5 -9.87,0.5"
         transform="translate(1.19,-29.9)"
         id="path50"
         inkscape:connector-curvature="0"
         style="fill:none;stroke:#231f20;stroke-miterlimit:10" />
      <path
         class="cls-13"
         d="m 134.56,162.31 c -0.29,0.84 -0.6,-1.18 -1.17,-1 -0.57,0.18 -1.29,1.77 -1.83,1.58 -1,-0.34 -1.83,-1.11 -1.17,-3 0.66,-1.89 2.94,-2.76 3.92,-2.42 0.98,0.34 0.91,2.95 0.25,4.84 z"
         transform="translate(1.19,-29.9)"
         id="path52"
         inkscape:connector-curvature="0"
         style="fill:#ffffff;stroke:#231f20;stroke-miterlimit:10" />
      <polygon
         class="cls-14"
         points="225.75,137.17 224.57,130.23 222.42,125.3 216.74,127.76 215.95,136.05 "
         id="polygon54"
         style="fill:#6c5ca8;stroke:#231f20;stroke-miterlimit:10" />
      <ellipse
         class="cls-15"
         cx="334.76999"
         cy="118.63"
         rx="6.8099999"
         ry="6.25"
         id="ellipse56"
         style="fill:none;stroke:#34343a;stroke-miterlimit:10" />
      <ellipse
         class="cls-13"
         cx="341.45999"
         cy="114.63"
         rx="3.1300001"
         ry="2.8800001"
         id="ellipse58"
         style="fill:#ffffff;stroke:#231f20;stroke-miterlimit:10" />
      <ellipse
         class="cls-13"
         cx="330.82999"
         cy="114"
         rx="2.8800001"
         ry="2.3800001"
         id="ellipse60"
         style="fill:#ffffff;stroke:#231f20;stroke-miterlimit:10" />
      <polygon
         class="cls-16"
         points="302.33,119.63 294.21,119.63 295.83,115.25 322.83,113.5 336.08,114.38 344.33,116 343.21,121.25 "
         id="polygon62"
         style="fill:#555567" />
      <ellipse
         class="cls-17"
         cx="231.92"
         cy="141.42"
         rx="7.5"
         ry="7.75"
         id="ellipse64"
         style="fill:none;stroke:#000000;stroke-width:3px;stroke-miterlimit:10" />
      <path
         class="cls-18"
         d="m 236.73,163.4 c -0.39,-2.27 -3,-1.94 -4.37,-1 -2.49,1.57 -1.23,3.33 0.68,0.94 -1,1.64 0.4,2.57 1.37,0.83 -1.26,2.86 2.34,1.38 2.29,-1.2 -0.31,-0.15 -0.17,0.14 -0.3,0.14"
         transform="translate(1.19,-29.9)"
         id="path66"
         inkscape:connector-curvature="0"
         style="fill:#ffffff;stroke:#000000;stroke-miterlimit:10" />
    </g>
    <path
       class="cls-19"
       d="m 431.28946,23.218215 c -30.65143,-2.605708 -35.8257,35.327156 -40.42392,39.025581 0,0 -28.12493,0.612401 -27.28614,44.429124 0.67711,35.02696 28.10473,31.82086 66.19416,31.82086 38.08943,0 38.40271,-22.08248 38.40271,-67.844475 0,-45.761996 1.11166,-44.21298 -36.88681,-47.43109 z m 14.48186,39.625974 -44.7998,-1.597047 c 0,0 2.0212,-10.146651 3.36529,-13.208658 1.60685,-3.6624 8.59008,-13.004524 8.59008,-13.004524 l 36.20972,3.806495 z"
       id="path69"
       inkscape:connector-curvature="0"
       style="fill:#89837e;stroke-width:1.10159552" />
    <path
       class="cls-3"
       d="m 431.62295,124.48059 c 0,2.76181 -15.86638,5.19941 -30.65143,5.19941 -14.78504,0 -28.97384,-10.44685 -28.97384,-13.20866 0,-2.76181 12.49099,6.4002 27.28614,6.4002 14.79516,0 32.33913,-1.15276 32.33913,1.60905 z"
       id="path71"
       inkscape:connector-curvature="0"
       style="fill:#40403f;stroke-width:1.10159552" />
    <path
       class="cls-20"
       d="m 370.14829,92.371544 c 0.1617,4.923227 5.05299,10.807086 9.38845,10.662986 4.33547,-0.14409 6.4173,-6.448224 6.26571,-11.371451 -0.15159,-4.923227 -7.72097,-13.664957 -12.03622,-13.460823 -4.31525,0.204134 -3.77964,9.234053 -3.61794,14.169288 z"
       id="path73"
       inkscape:connector-curvature="0"
       style="fill:#fdf6ad;stroke-width:1.10159552" />
    <polygon
       class="cls-21"
       points="402.92,108.67 392.25,125.83 375.42,128.33 376.42,108.5 "
       id="polygon75"
       style="fill:#704b4a"
       transform="matrix(1.0105978,0,0,1.2007871,-15.485711,-33.218778)" />
    <path
       class="cls-22"
       d="m 368.12709,103.19064 -5.45722,-31.820863 c 0,0 -30.75249,-4.803148 -38.77664,-4.947242 -8.86294,-0.204134 -28.54939,3.758463 -28.54939,3.758463 0,0 -10.61127,8.40551 -14.65366,38.425192 -0.56594,4.21476 -17.42271,8.87381 -17.43282,12.60826 0,18.36003 3.0318,33.51397 17.93811,40.52656 8.63051,4.07067 24.6788,3.90256 37.39212,3.90256 22.59697,0 72.76304,-25.13247 72.76304,-25.13247 l 0.3335,-43.228337 z m -64.79952,4.80314 c -5.05299,-0.37224 -19.70666,0.7565 -19.70666,0.7565 l 5.85136,-17.915744 5.38649,-14.013185 c 0,0 11.85431,-1.993307 15.83606,-2.401574 a 87.143846,103.54387 0 0 1 14.14837,0 l 12.96597,2.053346 -7.47842,34.402547 c 0,0 -20.40397,-2.36555 -27.01328,-2.85787 z m 55.83552,-3.60236 -21.59647,6.46024 1.76854,-8.40551 5.38649,-25.612791 14.82547,0.396259 z"
       id="path77"
       inkscape:connector-curvature="0"
       style="fill:#bf7171;stroke-width:1.10159552" />
    <polygon
       class="cls-23"
       points="344.75,165.67 326.42,167.83 291.42,163.67 291.08,152.5 328.92,157.83 341.58,155.5 343.58,156.17 "
       id="polygon79"
       style="fill:#a3a1a1"
       transform="matrix(1.0105978,0,0,1.2007871,-15.485711,-33.218778)" />
    <rect
       class="cls-20"
       x="278.66891"
       y="94.404625"
       width="14.181981"
       height="10.788861"
       rx="2.907306"
       ry="3.4404478"
       transform="matrix(0.99185102,0.12740309,-0.09060832,0.99588661,0,0)"
       id="rect81"
       style="fill:#fdf6ad;stroke-width:1.10197306" />
    <polygon
       points="310.45,154.16 311.7,141.19 313.78,141.5 312.53,154.46 "
       id="polygon83"
       transform="matrix(1.0105978,0,0,1.2007871,-15.485711,-33.218778)" />
    <rect
       x="305.64581"
       y="101.00981"
       width="1.771876"
       height="15.625355"
       transform="matrix(0.99354218,0.11346336,-0.0806265,0.99674438,0,0)"
       id="rect85"
       style="stroke-width:1.10189545" />
    <rect
       x="301.83344"
       y="100.95358"
       width="1.771876"
       height="15.625355"
       transform="matrix(0.99354218,0.11346336,-0.0806265,0.99674438,0,0)"
       id="rect87"
       style="stroke-width:1.10189545" />
    <rect
       x="297.76984"
       y="101.00522"
       width="1.771876"
       height="15.625355"
       transform="matrix(0.99354218,0.11346336,-0.0806265,0.99674438,0,0)"
       id="rect89"
       style="stroke-width:1.10189545" />
    <rect
       x="294.00726"
       y="100.70074"
       width="1.771876"
       height="15.625355"
       transform="matrix(0.99354218,0.11346336,-0.0806265,0.99674438,0,0)"
       id="rect91"
       style="stroke-width:1.10189545" />
    <path
       class="cls-24"
       d="m 284.24748,151.10204 c 0,-15.50216 -7.66033,-35.6994 -14.65367,-47.43109 -12.88512,-21.614167 -25.20431,-14.709642 -44.21365,-14.709642 -23.24375,0 -39.41331,11.419482 -48.76134,34.522632 -3.60784,8.89783 -3.0318,14.70964 -3.0318,25.21653 0,16.60688 -2.02119,34.40255 8.18585,34.3305 14.0473,-0.10807 26.42713,5.29547 47.90233,1.09271 24.44636,-4.80314 39.16066,-6.30413 51.03519,-14.10924 4.26472,-2.80985 3.53709,-9.46221 3.53709,-18.9124 z m -56.42167,-16.21063 c 0,0 -20.32312,-6.7244 -27.28614,-7.60098 -4.68918,-0.60039 -18.86786,0.39626 -18.86786,0.39626 0,0 1.22282,-4.02263 1.51589,-5.40354 0.85901,-4.08268 9.78259,-18.10787 14.90632,-20.71358 3.18338,-1.62106 11.11658,-2.01732 13.77445,-1.801178 5.43701,0.456298 17.64503,1.897248 17.64503,1.897248 z m 6.06358,-0.39626 0.6771,-32.81751 17.18017,-1.20078 8.08478,28.81889 z"
       id="path93"
       inkscape:connector-curvature="0"
       style="fill:#7997af;stroke-width:1.10159552" />
    <path
       class="cls-25"
       d="m 213.00034,170.01444 c 0,3.60236 -12.23834,3.30216 -23.74905,3.30216 -11.51071,0 -18.94871,-5.13937 -18.94871,-8.70571 0,-3.56633 7.69065,3.00197 19.20136,3.00197 11.51071,0 23.4964,-1.16476 23.4964,2.40158 z"
       id="path95"
       inkscape:connector-curvature="0"
       style="fill:#0d131b;stroke-width:1.10159552" />
    <path
       class="cls-3"
       d="m 65.281264,121.10638 c -0.576041,2.30551 1.394625,5.0313 4.406206,6.1 a 7.8018148,9.2700763 0 0 0 3.66847,0.27618 c 1.010598,-0.22815 4.5679,1.80118 5.05299,1.10472 0.24254,-0.32421 -2.3648,-3.21811 -2.25364,-3.60236 0.57604,-2.30551 -1.394619,-5.0313 -4.4062,-6.1 -3.011582,-1.0687 -5.891785,-0.084 -6.467826,2.22146 z"
       id="path97"
       inkscape:connector-curvature="0"
       style="fill:#40403f;stroke-width:1.10159552" />
    <path
       class="cls-26"
       d="m 180.66121,177.31522 c -0.6771,-51.23758 -14.14837,-104.072215 -55.91638,-100.866113 -29.38818,2.25748 -40.59571,19.11653 -49.43844,47.635223 -2.263735,7.28878 -11.19742,7.60098 -11.19742,7.60098 l 10.105978,43.22834 12.127172,5.60767 3.36529,17.61555 c 0,0 40.30264,4.40689 75.79483,-7.40886 4.21419,-1.40492 13.78456,-2.24547 16.50306,-3.80649 3.31476,-1.88524 -1.34409,-9.6063 -1.34409,-9.6063 z M 80.61203,126.18571 92.36528,98.123314 c 0,0 5.58861,-1.993307 7.79171,-2.401574 3.48656,-0.720473 10.63149,-0.408268 14.14837,0 3.03179,0.348228 12.12717,2.005314 12.12717,2.005314 l 3.0318,2.005314 2.69829,20.809642 0.25265,10.80708 z m 76.80543,7.80511 c -4.87108,-0.12007 -18.69606,-0.90059 -18.69606,-0.90059 l -1.84939,-15.40609 -3.0318,-19.212598 a 107.6994,127.96788 0 0 1 10.78308,-2.005314 93.641989,111.26493 0 0 1 9.42888,1.200787 c 0,0 4.82055,7.600985 6.06359,10.410825 2.10204,4.7311 6.39708,20.01712 6.39708,20.01712 l 1.26325,6.50827 c 0,0 -7.66033,-0.55237 -10.35863,-0.61241 z"
       id="path99"
       inkscape:connector-curvature="0"
       style="fill:#f2db6a;stroke-width:1.10159552" />
    <path
       class="cls-5"
       d="m 118.50945,191.32841 c 0,3.8185 -14.40102,5.40354 -32.33913,3.30216 -9.36824,-1.09271 -18.948708,-1.58504 -18.948708,-5.40354 0,-3.8185 4.54769,-3.60236 14.906318,-1.80118 9.82301,1.74114 36.38152,0.084 36.38152,3.90256 z"
       id="path101"
       inkscape:connector-curvature="0"
       style="fill:#353535;stroke-width:1.10159552" />
    <ellipse
       class="cls-27"
       cx="239.75134"
       cy="175.70618"
       rx="7.2661982"
       ry="16.006493"
       id="ellipse103"
       style="fill:#3a3a3a;stroke-width:1.10159552" />
    <ellipse
       class="cls-27"
       cx="270.02884"
       cy="171.91168"
       rx="6.2556005"
       ry="15.406098"
       id="ellipse105"
       style="fill:#3a3a3a;stroke-width:1.10159552" />
    <ellipse
       class="cls-27"
       cx="349.90649"
       cy="155.70105"
       rx="6.2556005"
       ry="16.006493"
       id="ellipse107"
       style="fill:#3a3a3a;stroke-width:1.10159552" />
    <ellipse
       class="cls-27"
       cx="379.89093"
       cy="149.69713"
       rx="6.2556005"
       ry="16.006493"
       id="ellipse109"
       style="fill:#3a3a3a;stroke-width:1.10159552" />
    <ellipse
       class="cls-28"
       cx="-98.602669"
       cy="462.03247"
       rx="19.804424"
       ry="10.789654"
       transform="matrix(0.04582657,-0.99894941,0.99790924,0.06463091,0,0)"
       id="ellipse111"
       style="fill:#4d4b49;stroke-width:1.10169327" />
    <ellipse
       class="cls-27"
       cx="-175.90941"
       cy="157.7747"
       rx="22.046122"
       ry="8.4653778"
       transform="matrix(0.05214145,-0.99863971,0.99729415,0.07351449,0,0)"
       id="ellipse113"
       style="fill:#3a3a3a;stroke-width:1.10172188" />
    <path
       class="cls-27"
       d="m 175.5678,184.3038 c -0.53562,12.16398 -3.38551,20.66555 -6.37688,20.47342 -2.99137,-0.19212 -4.97214,-8.03326 -4.42641,-20.19724 0.54572,-12.16397 3.36529,-22.81495 6.36676,-22.64684 3.00148,0.16811 4.98225,10.20669 4.43653,22.37066 z"
       id="path115"
       inkscape:connector-curvature="0"
       style="fill:#3a3a3a;stroke-width:1.10159552" />
    <path
       class="cls-20"
       d="m 221.26703,149.28885 c 0.70742,3.2061 -5.11363,6.1 -12.56173,8.40551 -7.44811,2.30551 -12.12718,2.60571 -12.88513,-0.60039 -0.75794,-3.2061 3.22381,-7.09665 10.67192,-9.42618 7.4481,-2.32953 14.06752,-1.58504 14.77494,1.62106 z"
       id="path117"
       inkscape:connector-curvature="0"
       style="fill:#fdf6ad;stroke-width:1.10159552" />
    <ellipse
       class="cls-20"
       cx="116.10463"
       cy="165.66759"
       rx="10.237355"
       ry="12.46417"
       id="ellipse119"
       style="fill:#fdf6ad;stroke-width:1.10159552" />
    <rect
       class="cls-20"
       x="311.8916"
       y="115.25237"
       width="16.685032"
       height="10.502347"
       rx="3.2864456"
       ry="3.9008715"
       transform="matrix(0.99790924,0.06463091,-0.04582657,0.99894941,0,0)"
       id="rect121"
       style="fill:#fdf6ad;stroke-width:1.10169327" />
    <path
       class="cls-20"
       d="m 428.21724,103.79103 c -2.23342,4.59901 -9.09538,7.52893 -12.8447,4.95925 -3.74932,-2.56968 -2.95094,-9.606297 -0.71752,-14.253343 2.23342,-4.647046 12.63247,-8.729722 16.38179,-6.14803 3.74931,2.581692 -0.58615,10.879131 -2.81957,15.442123 z"
       id="path123"
       inkscape:connector-curvature="0"
       style="fill:#fdf6ad;stroke-width:1.10159552" />
    <ellipse
       class="cls-20"
       cx="63.553024"
       cy="157.56229"
       rx="10.237355"
       ry="12.46417"
       id="ellipse125"
       style="fill:#fdf6ad;stroke-width:1.10159552" />
    <path
       class="cls-29"
       d="m 60.400077,178.41995 -1.263248,39.62597 C 26.706747,225.13056 -14.121404,232.73408 4.8171991,127.0863 5.5461371,83.116681 6.8383951,84.758553 36.14573,90.162095 54.124264,93.476268 72.860747,142.90066 74.295796,177.51936 Z"
       id="path127"
       inkscape:connector-curvature="0"
       style="fill:#232323;stroke-width:1.10159552"
       sodipodi:nodetypes="cccccc" />
    <rect
       class="cls-1"
       x="107.38278"
       y="180.58136"
       width="16.674864"
       height="4.4429121"
       rx="1.839288"
       ry="2.1854327"
       id="rect131"
       style="fill:#4c4b4c;stroke-width:1.10159552" />
    <ellipse
       class="cls-1"
       cx="148.15068"
       cy="187.93018"
       rx="3.5370922"
       ry="13.412792"
       id="ellipse133"
       style="fill:#4c4b4c;stroke-width:1.10159552" />
    <ellipse
       class="cls-1"
       cx="-172.7878"
       cy="179.24895"
       rx="13.598695"
       ry="2.1944125"
       transform="matrix(0.04714831,-0.9988879,0.99778703,0.06649097,0,0)"
       id="ellipse135"
       style="fill:#4c4b4c;stroke-width:1.10169888" />
    <ellipse
       class="cls-1"
       cx="239.94336"
       cy="175.9223"
       rx="3.708894"
       ry="8.6096439"
       id="ellipse137"
       style="fill:#4c4b4c;stroke-width:1.10159552" />
    <ellipse
       class="cls-1"
       cx="270.16022"
       cy="172.31995"
       rx="3.0317934"
       ry="8.201376"
       id="ellipse139"
       style="fill:#4c4b4c;stroke-width:1.10159552" />
    <ellipse
       class="cls-1"
       cx="350.43201"
       cy="156.50558"
       rx="2.3546927"
       ry="9.6062965"
       id="ellipse141"
       style="fill:#4c4b4c;stroke-width:1.10159552" />
    <ellipse
       class="cls-1"
       cx="380.08295"
       cy="149.69713"
       rx="2.6982961"
       ry="10.002557"
       id="ellipse143"
       style="fill:#4c4b4c;stroke-width:1.10159552" />
    <ellipse
       class="cls-20"
       cx="437.84869"
       cy="93.668388"
       rx="2.5264945"
       ry="2.4015741"
       id="ellipse145"
       style="fill:#fdf6ad;stroke-width:1.10159552" />
    <ellipse
       class="cls-20"
       cx="366.77338"
       cy="86.259537"
       rx="0.83879614"
       ry="2.6057081"
       id="ellipse147"
       style="fill:#fdf6ad;stroke-width:1.10159552" />
    <path
       class="cls-30"
       d="m 283.90388,142.21622 c 0.29307,5.67972 0.0808,5.72775 0.0808,5.72775 0,0 -6.64973,0.25217 -6.64973,-7.88917 0,-6.00394 2.35469,-13.53287 2.35469,-13.53287 0.84891,2.10138 3.97165,10.89114 4.2142,15.69429 z"
       id="path149"
       inkscape:connector-curvature="0"
       style="fill:#9b3d47;stroke-width:1.10159552" />
    <ellipse
       class="cls-28"
       cx="-190.80887"
       cy="83.381149"
       rx="24.40856"
       ry="16.833548"
       transform="matrix(0.05805618,-0.99831332,0.99869742,0.05102409,0,0)"
       id="ellipse111-3"
       style="fill:#4d4b49;stroke-width:1.52768815" />
  </g>
  <g
     id="people"
     transform="matrix(1.2127173,0,0,1.4409445,-68.582852,32.429467)">
    <path
       class="cls-31"
       d="m 252.56,139.23 c 0,-5.06 3.17,-9.33 8.83,-8.5 3.55,0.52 6.5,4.1 6.5,9.17 0,5.07 -3.16,8.13 -6.75,8.13 -3.59,0 -8.58,-3.74 -8.58,-8.8 z"
       transform="translate(1.19,-29.9)"
       id="path152"
       inkscape:connector-curvature="0"
       style="fill:#ffffff;stroke:#000000;stroke-width:0.5px;stroke-miterlimit:10" />
    <ellipse
       class="cls-13"
       cx="160.42"
       cy="122"
       rx="8"
       ry="9.3299999"
       id="ellipse154"
       style="fill:#ffffff;stroke:#231f20;stroke-miterlimit:10" />
    <path
       d="m 258.06,144.06 a 6.35,6.35 0 0 1 1.74,-1.16 3.29,3.29 0 0 1 1,-0.27 1.48,1.48 0 0 1 1.05,0.26 4.39,4.39 0 0 0 -1.88,0.5 c -0.31,0.12 -0.61,0.27 -0.94,0.38 a 4.65,4.65 0 0 1 -0.97,0.29 z"
       transform="translate(1.19,-29.9)"
       id="path156"
       inkscape:connector-curvature="0" />
    <ellipse
       class="cls-32"
       cx="262.89999"
       cy="136.89999"
       rx="1.67"
       ry="1"
       transform="rotate(-86.46,247.56917,121.32442)"
       id="ellipse158"
       style="fill:#231f20" />
    <ellipse
       class="cls-32"
       cx="258.23001"
       cy="136.78999"
       rx="1.67"
       ry="1"
       transform="rotate(-80.73,241.2529,121.14227)"
       id="ellipse160"
       style="fill:#231f20" />
    <path
       class="cls-9"
       d="m 264.06,147.73 c -0.23,1.52 1,5.58 1.34,7.37 0.34,1.79 0.6,3.65 1,5.46 0.32,1.64 1,3.07 0.58,4.7 a 17.5,17.5 0 0 1 -2.42,4.63 c -0.8,1.32 -1.93,3.91 -3,4.5"
       transform="translate(1.19,-29.9)"
       id="path162"
       inkscape:connector-curvature="0"
       style="fill:none;stroke:#000000;stroke-miterlimit:10" />
    <path
       class="cls-18"
       d="m 261.56,174.23 a 6.23,6.23 0 0 0 -3.75,-0.32 c -1.44,0.48 -1.53,1.86 0.23,1.52 -0.67,0.74 -3,2.6 -1.82,3.65 0.61,-0.37 -0.25,1.07 1.81,-1.16 -1.72,2.64 -0.64,2.89 1.38,0.71 -1.27,2.06 0.41,2.2 1.61,0.39 0.82,-1.23 1.84,-4.02 0.54,-4.79 z"
       transform="translate(1.19,-29.9)"
       id="path164"
       inkscape:connector-curvature="0"
       style="fill:#ffffff;stroke:#000000;stroke-miterlimit:10" />
    <ellipse
       class="cls-18"
       cx="218.42999"
       cy="122.43"
       rx="6.1399999"
       ry="6.0100002"
       id="ellipse166"
       style="fill:#ffffff;stroke:#000000;stroke-miterlimit:10" />
    <ellipse
       cx="214.5"
       cy="151.53999"
       rx="0.85000002"
       ry="1.37"
       transform="rotate(-5.19,-114.49118,123.59896)"
       id="ellipse168" />
    <ellipse
       cx="218.82001"
       cy="151.02"
       rx="0.85000002"
       ry="1.37"
       transform="rotate(-9.01,29.655718,128.5124)"
       id="ellipse170" />
    <path
       d="m 216,155.07 a 0.47,0.47 0 0 1 0.08,-0.46 1.36,1.36 0 0 1 0.37,-0.3 2.46,2.46 0 0 1 0.86,-0.26 3,3 0 0 1 0.88,0 1.46,1.46 0 0 1 0.81,0.35 4.24,4.24 0 0 0 -0.83,0 c -0.27,0 -0.54,0.05 -0.8,0.09 -0.26,0.04 -0.53,0.07 -0.78,0.12 -0.25,0.05 -0.49,0.17 -0.59,0.46 z"
       transform="translate(1.19,-29.9)"
       id="path172"
       inkscape:connector-curvature="0" />
    <ellipse
       cx="156.06"
       cy="149.19"
       rx="1.87"
       ry="0.82999998"
       transform="rotate(-77.94,138.16763,133.50602)"
       id="ellipse174" />
    <ellipse
       cx="160.39999"
       cy="150.69"
       rx="1.87"
       ry="0.82999998"
       transform="rotate(-77.94,142.49779,135.00452)"
       id="ellipse176" />
    <path
       class="cls-33"
       d="m 168.48,127.15 v -0.08"
       transform="translate(1.19,-29.9)"
       id="path178"
       inkscape:connector-curvature="0"
       style="fill:none" />
    <path
       d="m 160.4,147.06 a 5.27,5.27 0 0 0 1,1.72 7.36,7.36 0 0 1 1.16,1.78 4.49,4.49 0 0 1 -1.75,-1.32 2.89,2.89 0 0 1 -0.52,-1 1.56,1.56 0 0 1 0.11,-1.18 z"
       transform="translate(1.19,-29.9)"
       id="path180"
       inkscape:connector-curvature="0" />
    <path
       d="m 156.65,157.15 a 1,1 0 0 1 0.32,-0.92 1.59,1.59 0 0 1 0.92,-0.43 1.68,1.68 0 0 1 1.68,0.77 7,7 0 0 0 -1.59,0 2,2 0 0 0 -1.33,0.58 z"
       transform="translate(1.19,-29.9)"
       id="path182"
       inkscape:connector-curvature="0" />
    <path
       class="cls-33"
       d="m 329.15,133.48 h 0.08"
       transform="translate(1.19,-29.9)"
       id="path184"
       inkscape:connector-curvature="0"
       style="fill:none" />
    <path
       class="cls-34"
       d="m 344.48,133.06 c 0,4 -4.56,7.5 -8.33,7.5 -3.77,0 -7.33,-2.71 -7.33,-6.67 0,-3.96 5.06,-8 8.83,-8 a 7,7 0 0 1 6.83,7.17 z"
       transform="translate(1.19,-29.9)"
       id="path186"
       inkscape:connector-curvature="0"
       style="fill:#ffffff" />
    <path
       class="cls-32"
       d="m 344.79,133.06 a 7.4,7.4 0 0 1 -2.68,5.36 9.6,9.6 0 0 1 -5.49,2.49 8.16,8.16 0 0 1 -5.72,-1.91 6.6,6.6 0 0 1 -2.38,-5.48 8.14,8.14 0 0 1 2.95,-5.2 10.54,10.54 0 0 1 5.35,-2.64 6.86,6.86 0 0 1 5.61,1.88 7.61,7.61 0 0 1 2.36,5.5 z m -0.62,0 a 7,7 0 0 0 -2.1,-5.09 6.27,6.27 0 0 0 -5.18,-1.76 10,10 0 0 0 -5,2.56 7.57,7.57 0 0 0 -2.7,4.82 5.93,5.93 0 0 0 2.19,4.91 7.55,7.55 0 0 0 5.22,1.67 8.93,8.93 0 0 0 5.07,-2.27 6.75,6.75 0 0 0 2.5,-4.84 z"
       transform="translate(1.19,-29.9)"
       id="path188"
       inkscape:connector-curvature="0"
       style="fill:#231f20" />
    <ellipse
       class="cls-32"
       cx="333.70999"
       cy="103.21"
       rx="0.79000002"
       ry="1.63"
       id="ellipse190"
       style="fill:#231f20" />
    <ellipse
       class="cls-32"
       cx="340.54001"
       cy="104.13"
       rx="0.79000002"
       ry="1.63"
       id="ellipse192"
       style="fill:#231f20" />
    <path
       class="cls-32"
       d="m 337.48,132.9 a 6.49,6.49 0 0 1 1.69,-1.33 4.19,4.19 0 0 0 0.41,-0.22 c 0.15,-0.07 0.29,-0.17 0.45,-0.24 a 1.9,1.9 0 0 1 1.11,-0.29 c -0.23,0.29 -0.38,0.63 -0.62,0.9 a 3.45,3.45 0 0 1 -0.39,0.41 3.36,3.36 0 0 1 -0.5,0.33 4.72,4.72 0 0 1 -1,0.4 2.4,2.4 0 0 1 -1.15,0.04 z"
       transform="translate(1.19,-29.9)"
       id="path194"
       inkscape:connector-curvature="0"
       style="fill:#231f20" />
    <path
       class="cls-32"
       d="m 331.73,129.73 a 3.21,3.21 0 0 1 1.2,1.16 5.34,5.34 0 0 1 0.63,1.5 1.48,1.48 0 0 1 -0.88,-0.32 2.45,2.45 0 0 1 -0.59,-0.65 2.42,2.42 0 0 1 -0.36,-1.69 z"
       transform="translate(1.19,-29.9)"
       id="path196"
       inkscape:connector-curvature="0"
       style="fill:#231f20" />
    <path
       class="cls-32"
       d="m 333.81,138.23 a 1.7,1.7 0 0 1 0.52,-1.19 1.93,1.93 0 0 1 1.29,-0.55 1.87,1.87 0 0 1 1.33,0.5 1.35,1.35 0 0 1 0.44,1.24 2.52,2.52 0 0 0 -0.89,-0.6 2.2,2.2 0 0 0 -0.85,-0.14 3.36,3.36 0 0 0 -1.84,0.74 z"
       transform="translate(1.19,-29.9)"
       id="path198"
       inkscape:connector-curvature="0"
       style="fill:#231f20" />
    <path
       class="cls-12"
       d="m 165.65,157.4 c -0.34,2.45 -0.14,5.12 -0.5,7.5 -0.24,1.61 -0.24,5.13 -1.28,6.35 -1.84,2.16 -2.54,-1.23 -3.28,-2.84 a 28.6,28.6 0 0 1 -2.44,-6.26"
       transform="translate(1.19,-29.9)"
       id="path200"
       inkscape:connector-curvature="0"
       style="fill:none;stroke:#231f20;stroke-miterlimit:10" />
    <path
       class="cls-13"
       d="m 168.06,155.48 c -1.08,1.52 -1.67,3.33 -2.92,3.33 -1.25,0 -1.75,-2.58 0.33,-3.83 1.27,-0.76 -0.29,-2.57 0.33,-2.83 a 1.69,1.69 0 0 1 1.17,-0.25 c 1,0 1.46,0.51 1.58,2 a 2.57,2.57 0 0 1 -0.49,1.58 z"
       transform="translate(1.19,-29.9)"
       id="path202"
       inkscape:connector-curvature="0"
       style="fill:#ffffff;stroke:#231f20;stroke-miterlimit:10" />
  </g>
  <g
     id="Layer_6"
     data-name="Layer 6"
     transform="matrix(1.2127173,0,0,1.4409445,-68.582852,32.429467)">
    <path
       class="cls-3"
       d="m 163.41,164.17 c 0.57,1.92 -1.38,4.19 -4.36,5.08 a 7.72,7.72 0 0 1 -3.63,0.23 c -1,-0.19 -4.52,1.5 -5,0.92 -0.24,-0.27 2.34,-2.68 2.23,-3 -0.57,-1.92 1.38,-4.19 4.36,-5.08 2.98,-0.89 5.83,-0.07 6.4,1.85 z"
       transform="translate(1.19,-29.9)"
       id="path205"
       inkscape:connector-curvature="0"
       style="fill:#40403f" />
    <path
       class="cls-3"
       d="m 257.43,168.07 c 0.18,2 -2.19,3.83 -5.28,4.11 a 7.72,7.72 0 0 1 -3.6,-0.49 c -0.91,-0.38 -4.73,0.57 -5.11,-0.1 -0.18,-0.31 2.82,-2.16 2.79,-2.52 -0.18,-2 2.19,-3.83 5.28,-4.11 3.09,-0.28 5.74,1.11 5.92,3.11 z"
       transform="translate(1.19,-29.9)"
       id="path207"
       inkscape:connector-curvature="0"
       style="fill:#40403f" />
    <path
       class="cls-3"
       d="m 361.2,152.31 -6.66,1.07 a 3.74,3.74 0 0 1 -2.79,-0.67 c -0.38,-0.27 -3.9,0.08 -4.16,-0.32 -0.11,-0.18 -0.7,-0.91 -0.12,-1.25 0.79,-0.47 2.83,-0.57 2.78,-0.87 v 0 a 3.76,3.76 0 0 1 3.11,-4.3 l 6.66,-1.07 a 3.76,3.76 0 0 1 4.3,3.11 v 0 a 3.76,3.76 0 0 1 -3.12,4.3 z"
       transform="translate(1.19,-29.9)"
       id="path209"
       inkscape:connector-curvature="0"
       style="fill:#40403f" />
  </g>
</svg>
