<svg xmlns="http://www.w3.org/2000/svg" xmlns:xlink="http://www.w3.org/1999/xlink" viewBox="0 0 288 288"><defs><style>.cls-1,.cls-11,.cls-18,.cls-19,.cls-27,.cls-29{fill:none;}.cls-2{clip-path:url(#clip-path);}.cls-3{fill:#5b5b5b;}.cls-4{fill:#a9a8a9;}.cls-10,.cls-22,.cls-5{fill:#2b2b2b;}.cls-6{fill:#515251;}.cls-7{fill:#050606;}.cls-8{fill:#8e8e8e;}.cls-9{fill:#b0b0b0;}.cls-10,.cls-11,.cls-12,.cls-14,.cls-15,.cls-17,.cls-18,.cls-20,.cls-21,.cls-22,.cls-23,.cls-24,.cls-25,.cls-26,.cls-27,.cls-29,.cls-30,.cls-31,.cls-32,.cls-33,.cls-34,.cls-35,.cls-36,.cls-37,.cls-9{stroke:#231f20;}.cls-10,.cls-11,.cls-12,.cls-14,.cls-15,.cls-17,.cls-18,.cls-19,.cls-20,.cls-21,.cls-22,.cls-23,.cls-24,.cls-25,.cls-26,.cls-27,.cls-29,.cls-30,.cls-31,.cls-32,.cls-33,.cls-34,.cls-35,.cls-36,.cls-37,.cls-9{stroke-miterlimit:10;}.cls-12,.cls-9{stroke-width:0.25px;}.cls-10,.cls-34{stroke-width:0.75px;}.cls-11,.cls-14,.cls-19,.cls-31,.cls-36{stroke-width:2px;}.cls-12{fill:#d6d6d6;}.cls-13{fill:#3a3a3a;}.cls-14{fill:#333;}.cls-15{fill:#40403f;}.cls-16,.cls-23{fill:#444545;}.cls-17{fill:#c4e9f8;}.cls-19{stroke:#4a494a;}.cls-20{fill:#695433;}.cls-21{fill:#686868;}.cls-24{fill:#d1a144;}.cls-25,.cls-31,.cls-34{fill:#fff;}.cls-26{fill:#568fb2;}.cls-27{stroke-width:0;}.cls-28{fill:#231f20;}.cls-29{stroke-width:3px;}.cls-30{fill:#f7d064;}.cls-32{fill:#fff272;}.cls-33{fill:#070808;}.cls-35{fill:#666766;}.cls-36,.cls-37{fill:#cec4ba;}</style><clipPath id="clip-path"><rect class="cls-1" width="288" height="288"/></clipPath></defs><title>2-19Keys(2)Asset 6</title><g id="Layer_2" data-name="Layer 2"><g id="Layer_7" data-name="Layer 7"><g class="cls-2"><rect class="cls-1" width="288" height="288"/><polygon class="cls-3" points="74.58 221.42 52.17 232.25 53.5 227.42 73.67 217.25 74.42 217.33 74.58 221.42"/><polygon class="cls-4" points="73.67 217.25 53.5 227.42 48.25 225.17 68 215.33 73.67 217.25"/><polygon class="cls-4" points="74.83 217.33 94.25 227.67 99.17 226.08 81.83 214.92 74.83 217.33"/><polygon class="cls-5" points="82.17 214.42 86.42 217.17 94.75 218.25 92.08 215.33 82.17 214.42"/><polygon class="cls-5" points="63.33 217.42 68 215.33 67.08 213.83 52.08 215.5 49.33 218.42 63.33 217.42"/><polygon class="cls-6" points="74.58 221.42 96.33 233.58 94.25 227.67 74.83 217.33 74.58 221.42"/><polygon class="cls-7" points="47.83 231.75 46.92 235.75 50.17 238.42 53.75 238 56 235.33 56.08 232.67 55.33 230.92 51.58 232.17 47.83 231.75"/><polygon class="cls-7" points="94.42 232.67 93.92 234.25 94.08 237.58 95.67 239.58 97.5 240.5 100.83 240.5 102.5 238.75 103.58 235.42 102 232.92 97.5 233.83 94.42 232.67"/><polygon class="cls-7" points="51.33 218.75 50.92 220.92 52.75 223 57.25 220.67 56.17 218.33 51.33 218.75"/><polygon class="cls-7" points="90.25 217.92 89.33 219.58 93.75 222.17 94.58 221.33 93.83 218.17 90.25 217.92"/><polygon class="cls-5" points="48.25 225.17 45 229.92 52.17 232.25 53.5 227.42 48.25 225.17"/><polygon class="cls-5" points="94.25 227.67 97.5 233.83 104 232.29 99.25 225.67 94.25 227.67"/><polygon class="cls-8" points="150.17 54.83 210.33 62.33 215.17 61.83 155.17 53.83 150.17 54.83"/><polygon class="cls-9" points="241.25 188.42 238.25 193.76 238.13 123.47 241.63 123.04 241.25 188.42"/><rect class="cls-10" x="229.67" y="124.02" width="8.33" height="69.65"/><polygon class="cls-9" points="213.19 232.13 209.88 237.8 209.88 174.54 213.5 175.23 213.19 232.13"/><rect class="cls-10" x="201.17" y="168" width="8.33" height="69.79"/><path class="cls-11" d="M210.75,118.91"/><polyline class="cls-12" points="210.75 118.91 254 123.17 224.5 169.42 95.5 144.17 142.25 112.17 204.25 118.27"/><polygon class="cls-13" points="94 151.67 224.5 177.67 224.5 169.42 94 143.42 94 151.67"/><ellipse class="cls-14" cx="177.63" cy="126.42" rx="16.38" ry="8"/><path class="cls-14" d="M172.88,126.92c1.75,1.25,4,1.81,7.75.5.7-.25,2.11-.73,1.88-1.44-.91-2.74-.93-4.52,2.25-8.31L171,115.17c1.43,4.07,2.36,5.85.63,9.06C171.13,125.15,172,126.31,172.88,126.92Z"/><polygon class="cls-15" points="203.5 125.67 147 113.17 150 55.17 210 62.17 203.5 125.67"/><polygon class="cls-15" points="210.5 124.67 203.5 125.67 210 62.17 216.75 61.67 210.5 124.67"/><polygon class="cls-16" points="254 131.17 224.5 177.92 224.5 169.42 254.17 123.12 254 131.17"/><polygon class="cls-17" points="201.32 122.09 149.75 110.68 152.49 57.74 207.25 64.13 201.32 122.09"/><line class="cls-18" x1="216.75" y1="61.67" x2="154.83" y2="53.83"/><line class="cls-18" x1="150" y1="55.17" x2="155.17" y2="54"/><path class="cls-19" d="M80.67,111.83c19.74,26.65,38,25.94,60.67-5"/><polygon class="cls-18" points="72.25 213.42 48.25 225.17 45 230.17 52 232.42 74.75 221.17 97 233.92 104 232.17 99.5 225.92 80 213.92 72.25 213.42"/><line class="cls-18" x1="48.25" y1="225.17" x2="53.5" y2="227.42"/><polyline class="cls-18" points="94.58 227.75 74.5 216.67 53.5 227.42 52 232.42"/><polyline class="cls-18" points="97 233.92 94.17 227.58 99.5 225.92"/><line class="cls-18" x1="74.75" y1="221.17" x2="74.5" y2="216.67"/><polygon class="cls-18" points="72.25 213.42 52.5 215.67 49.42 218.67 63.58 217.33 72.25 213.42"/><polygon class="cls-18" points="80 213.92 92.25 215.42 94.88 218.04 86.13 217.29 80 213.92"/><path class="cls-20" d="M72.75,129.42l-27.25,6.5c-5.82,1.47-12-5.86-12-11.87V105.56a9.21,9.21,0,0,1,7-8.93l27.07-6.84A9.21,9.21,0,0,1,79,98.72v18.49C79,121.43,76.84,128.38,72.75,129.42Z"/><path class="cls-21" d="M82,214.67c-4.21,2.48-8.61,4.21-14.5,0v-19c4.72,4.09,9.56,3.91,14.5,0Z"/><ellipse class="cls-22" cx="74.83" cy="195.92" rx="7.33" ry="2.58"/><path class="cls-23" d="M78.17,195.5c-3,1-4.5,1.17-7.5-.17L71,177.17h7.5Z"/><polygon class="cls-23" points="54.5 130.67 65 169.17 74 168.17 63 128.17 54.5 130.67"/><path class="cls-24" d="M53.37,177l31.1,15.9a6.93,6.93,0,0,0,6.87-.32L116,176.92a4.35,4.35,0,0,0-.86-7.77l-27.74-10a4.35,4.35,0,0,0-2.81,0L54,168.94A4.35,4.35,0,0,0,53.37,177Z"/><path class="cls-24" d="M76,128.42,49,135.27a9.21,9.21,0,0,1-11.47-8.93V107.84a9.21,9.21,0,0,1,7-8.93l27.07-6.84A9.21,9.21,0,0,1,83,101v18.49A9.21,9.21,0,0,1,76,128.42Z"/><path class="cls-11" d="M87.5,176.17c10.79,5,21.38,12,31.91,17.59.54,10.84-4.74,27.52-3.91,38.58,3.69,2,11.05,2.6,15.33,3"/><path class="cls-11" d="M173.75,207.67c-3,1-13.17,7.4-13.68,5.73-2.33-7.52-7.7-16.7-10.44-23.61a95.1,95.1,0,0,0-5.62-12.6c-3-5.26-5.88-4.57-11.5-6.28-5-1.54-12.41-2.47-16.5-4.74"/><path class="cls-20" d="M114.76,155.81,85.44,144.27a1.82,1.82,0,0,1-.21-3.29l3.72-2a1.82,1.82,0,0,1,1.49-.12l32.22,11.45a1.82,1.82,0,0,1-.05,3.45L116,155.85A1.82,1.82,0,0,1,114.76,155.81Z"/><path class="cls-25" d="M98.5,152.17a52.11,52.11,0,0,1,1.5,17l3.5,2.5c-1.39-6.82-1.28-12.4,0-17Z"/><path class="cls-26" d="M66,94.67c-4.34,27.76-18.65,55.53,12,83.25a4.7,4.7,0,0,0,4.45,1l39.34-11.36a1.12,1.12,0,0,0,.1-2.12C90,152.58,82.39,128.83,82.5,101.67Z"/><path class="cls-25" d="M108.5,74.67c0,12.43-9.5,27-26,27-19,0-23.5-14.57-23.5-27s11.08-22.5,24.75-22.5S108.5,62.24,108.5,74.67Z"/><path class="cls-27" d="M88.5,175.67c-.74-.12.3.39.5.5"/><path class="cls-28" d="M81.57,142.14c-4.62,0-8.85-2.92-11.37-6.37-2.11-2.89-2.84-5.45-3.65-8.75a58,58,0,0,1-1.2-6.32c.11-1.24,1.55-1.14,2,0,0,.64.77,4.32,1.15,5.86.77,3.17,1.42,5.44,3.32,8,2.62,3.6,7.67,6.72,12.57,5.09,9-3,17.07-18.78,19.72-24,1.46-2.86,2.82-6,4.13-9,.67-1.53,1.31-3,2-4.43l-.1,0,.15-.34a4.32,4.32,0,0,1,.83-1.38l4.36-4.69-2.72,5.79c-.88,1.87-1.73,3.82-2.63,5.89-1.33,3-2.7,6.19-4.18,9.1-4.75,9.31-12.08,22-20.87,25A10.84,10.84,0,0,1,81.57,142.14Z"/><circle class="cls-29" cx="124.25" cy="106.42" r="14.75"/><path class="cls-30" d="M125.75,74.92V71.67h-2v.75h-3.42l-.16-4.62-2,.07.58,16.61a6,6,0,0,0,1,11.91h0a6,6,0,0,0,1-11.91l-.23-6.58,3,0v-2l-3.12,0-.05-1.47h3.35v.5Zm-2,15.49a4,4,0,0,1-1.19,2.82,3.93,3.93,0,0,1-2.84,1.15,4,4,0,0,1,0-8h0A4,4,0,0,1,123.75,90.41Z"/><path class="cls-31" d="M112.42,90.58c-2.83,3.58-4.07,7.92,0,11.89a7.63,7.63,0,0,0,7.68,1.31c1.85-.89,4.1-3.64,2.16-4.4a.79.79,0,0,1-.26-1.31c2-2,3.31-4.41-.3-4.95-.52-.08-.86-.78-.47-1.13,2-1.83,2.09-4.6-.06-6.28-3.78-3-6.29,1.48-8,3.94Z"/><path class="cls-31" d="M147,104.67c1.31-3.56,1.21-9.25-2.31-11a1.15,1.15,0,0,0-1.64,1.16c.15,1.36.33,2.86-.67,2.77-.81-.08-1.33-1.46-2.2-2.31a1.37,1.37,0,0,0-2.32,1.14c.21,1.81,1.35,3.8.17,5-.27.28-1.59-1.26-2-1.31-2.08,1.58.46,4.77,1.09,6.41A22.52,22.52,0,0,0,147,104.67Z"/><path class="cls-20" d="M77.9,168.4,49.06,155.73a1.82,1.82,0,0,1-.08-3.3l3.79-1.9a1.82,1.82,0,0,1,1.49-.06L86,163.17a1.82,1.82,0,0,1-.19,3.45l-6.69,1.87A1.82,1.82,0,0,1,77.9,168.4Z"/><ellipse class="cls-29" cx="193.5" cy="140.67" rx="16.5" ry="8.5"/><ellipse class="cls-28" cx="85.75" cy="66.92" rx="1.25" ry="4.75"/><ellipse class="cls-28" cx="100" cy="71.17" rx="1" ry="5"/><path class="cls-1" d="M98,83.17a8.77,8.77,0,0,0-4.5,2.5"/><path class="cls-18" d="M93,85.67a11.12,11.12,0,0,1,4.5-1.5"/><path class="cls-23" d="M60,160.67a52.11,52.11,0,0,1,1.5,17l3.5,2.5c-1.39-6.82-1.28-12.4,0-17Z"/><polygon class="cls-32" points="157.19 92.82 156.31 91.02 146.56 95.77 147.44 97.57 149.23 96.69 150.12 100.08 152.05 99.58 151.07 95.8 152.79 94.96 153.55 97.23 155.45 96.6 154.61 94.07 157.19 92.82"/><path class="cls-33" d="M48.38,231c-1.31,1.75-1.76,3.7-.51,5.69.89,1.43,3.63,2.51,5,1.21a3.35,3.35,0,0,1-1.23-5.28"/><path class="cls-18" d="M52.63,238.29a7.64,7.64,0,0,0,3-2.87c.55-1.13,1-3.78-.53-4.38"/><path class="cls-33" d="M101.5,232.92c3.29,1.89.62,9.41-3.12,6.63"/><path class="cls-18" d="M97.75,233.92c.8,1,1.49,1.65,1.62,2.94.11,1.08-.18,2.7-1.5,2.81"/><path class="cls-18" d="M94.5,233.17c-1,1-.54,3.65,0,4.78s2.63,2.68,3.91,1.59"/><path class="cls-33" d="M51.88,218.79c-1.32.25-.73,4.21,1.5,3.88"/><path class="cls-18" d="M55.88,218.42c.61.39,1.47,2.12.75,2.25"/><path class="cls-18" d="M90.38,218.17a.86.86,0,0,0-.5,1.5"/><path class="cls-33" d="M93.13,218.17a2.15,2.15,0,0,1,1.6,1.65c.16.75,0,2.18-.72,2.22"/><line class="cls-18" x1="149.92" y1="109.17" x2="152.67" y2="108.33"/><line class="cls-18" x1="155.92" y1="109.42" x2="155.83" y2="108.67"/><rect class="cls-34" x="151.19" y="125.71" width="3.86" height="1" transform="translate(-35.74 187.1) rotate(-57.37)"/><rect class="cls-34" x="147.46" y="122.83" width="4.99" height="1" transform="translate(-35.57 180.6) rotate(-56.59)"/><rect class="cls-34" x="146.42" y="122.5" width="2.08" height="1" transform="translate(-39.41 167.2) rotate(-53.14)"/><path class="cls-32" d="M231.52,139.8l0-2-14.93.28c-.67-1.69-3-2.91-5.8-2.91-3.36,0-6,1.72-6,3.93s2.64,3.93,6,3.93c2.84,0,5.16-1.23,5.81-2.94L220,140v1.13h2V140l5.25-.1v2.29h2v-2.32ZM210.75,141c-2.29,0-4-1-4-1.93s1.71-1.93,4-1.93,4,1,4,1.93S213,141,210.75,141Z"/><path class="cls-35" d="M222,158.26l-10.74-9.61a2,2,0,0,0,.08-.54c0-1.43-1.4-2.84-3.37-4.67s-3.86-3.58-5.72-1.87a2.08,2.08,0,0,0-.71,1.55c0,1.43,1.49,2.82,3.07,4.29s3,2.83,4.53,2.83a2.07,2.07,0,0,0,.73-.14l10.79,9.65Zm-16-12.32c-.75-.7-2.51-2.33-2.43-2.82a.29.29,0,0,1,.07-.08.44.44,0,0,1,.31-.12c.43,0,1.15.55,2.7,2,.77.71,2.81,2.61,2.74,3.19l0,0C208.78,148.58,207.07,147,205.93,145.93Z"/><path class="cls-31" d="M218.79,157.06"/><path class="cls-31" d="M216.6,159.07"/><path class="cls-36" d="M213.66,152.3"/><path class="cls-30" d="M208.15,165l-5.79-11.84a7.44,7.44,0,0,0,.66-7.26,4.43,4.43,0,0,0-3.07-2.69,3.54,3.54,0,0,0-3.15,1c-1.84,1.77-2.35,5.21-1.15,7.83a4.43,4.43,0,0,0,3.07,2.69,3.27,3.27,0,0,0,2.07-.28l1.2,2.46-1.51,1.45,1.39,1.44,1-1,1.87,3.83-2.61,2.51,1.39,1.44,2.15-2.06.65,1.33Zm-9.06-12.2a2.49,2.49,0,0,1-1.62-1.55,5.3,5.3,0,0,1,.72-5.56,1.7,1.7,0,0,1,1.15-.53l.25,0a2.5,2.5,0,0,1,1.62,1.55,5.3,5.3,0,0,1-.72,5.56A1.59,1.59,0,0,1,199.09,152.81Z"/><path class="cls-37" d="M192.81,165.39l-1.12.21-.1-5.22.65-.12-.37-2-.32.06-.06-3.43c1.36-1,1.93-3.64,1.85-6s-.74-4.29-1.77-5.12a2,2,0,0,0-1.59-.43c-2,.37-2.77,3.57-2.68,6.38.07,2.38.74,4.29,1.77,5.12a2.2,2.2,0,0,0,.42.26l.27,14.95,2,0,0-2.41,1.45-.28Zm-2.53-20.07c.28.12,1,1.34,1.07,3.65.08,2.57-.67,4.09-1,4.34-.31-.22-1-1.43-1-3.63C189.23,147,190,145.46,190.29,145.32Z"/><path class="cls-30" d="M185.44,143.69a2.73,2.73,0,0,0-1.78-1.33,6.62,6.62,0,0,0-4.94,1.14c-2.32,1.47-3.6,3.61-3.35,5.34l-9.55,6.36,1.11,1.66,9.43-6.29a3,3,0,0,0,1.06.5,4.18,4.18,0,0,0,1,.13,7.51,7.51,0,0,0,3.9-1.27C185.11,148.2,186.43,145.51,185.44,143.69Zm-4.15,4.56a4.69,4.69,0,0,1-3.37.89.78.78,0,0,1-.53-.35h0c-.34-.63.42-2.35,2.39-3.6a5.49,5.49,0,0,1,2.83-1,2.22,2.22,0,0,1,.54.06.79.79,0,0,1,.53.35C184,145.28,183.27,147,181.3,148.25Z"/><path class="cls-37" d="M184.88,137.14a3.74,3.74,0,0,0-2.43-2.71,7.69,7.69,0,0,0-4.2-.37c-2.83.49-4.9,2.21-5.2,4.14l-3.36.65-.22-1.29-2,.34.23,1.32-5.15,1-.44-2.52-2,.34.45,2.56-2.23.43.38,2,14.64-2.85a4.13,4.13,0,0,0,2.07,1.74,7.08,7.08,0,0,0,2.7.5,8.75,8.75,0,0,0,1.5-.13,7.68,7.68,0,0,0,3.83-1.77A3.74,3.74,0,0,0,184.88,137.14ZM182.17,139a6.21,6.21,0,0,1-5.91,1c-.41-.17-1.11-.55-1.22-1.21-.18-1,1.25-2.42,3.57-2.82a5.74,5.74,0,0,1,3.09.25c.41.17,1.11.55,1.22,1.21A1.88,1.88,0,0,1,182.17,139Z"/><path class="cls-37" d="M159.92,109.61l-14.86-1.14a2.4,2.4,0,0,0-.33-.59c-.83-1.09-2.74-1.89-5-2.09-2.92-.26-6.06.52-6.42,2.54a2.12,2.12,0,0,0,.45,1.7c.83,1.09,2.74,1.89,5,2.09.36,0,.73,0,1.1,0,2.09,0,4.08-.56,4.92-1.72l15,1.15Zm-21,.51c-2.49-.23-3.64-1.18-3.67-1.45s1.25-.94,3.32-.94c.3,0,.61,0,.95,0,2.48.23,3.63,1.17,3.67,1.45S141.6,110.37,139,110.12Zm4.27-.9h0"/><path class="cls-30" d="M154.75,128.42l-12.32-8.24a6,6,0,1,0-5.42,3.4,6.12,6.12,0,0,0,1-.08,6,6,0,0,0,3.25-1.69l12.37,8.27Zm-17.07-6.89a4,4,0,0,1-1.31-7.89,4.06,4.06,0,0,1,.66-.05,4,4,0,0,1,.65,7.95Z"/><path class="cls-32" d="M138.79,141.06l-.48-1,2.44-1.26-1.08-2.17-2.4,1.17-4.68-10.16a6,6,0,0,0,2.28-7.37,6,6,0,1,0-5.53,8.34,6,6,0,0,0,1.41-.18L137,141.9Zm-11-14.79a4,4,0,1,1,3.06,0A4,4,0,0,1,127.83,126.27Z"/><path class="cls-37" d="M129.17,122.07a6.87,6.87,0,0,0-1.86-4.82,3.47,3.47,0,0,0-2.57-1c-2.41.08-4.26,2.78-4.21,6.13a6.87,6.87,0,0,0,1.86,4.82,3.74,3.74,0,0,0,1.57.91l.54,14.91,2-.07-.24-4.06,2.79-.09.21-2-3-.08,0-1.09,2.36-.08.17-1.58-2.59-.09L126,128C127.86,127.32,129.21,124.94,129.17,122.07Zm-4.28,4.13a1.64,1.64,0,0,1-1.13-.5,4.93,4.93,0,0,1-1.24-3.41c0-2.37,1.17-4.06,2.28-4.1h0a1.57,1.57,0,0,1,1.08.5,4.93,4.93,0,0,1,1.24,3.41C127.2,124.47,126,126.16,124.89,126.2Z"/><path class="cls-35" d="M125.92,118.35a3.52,3.52,0,0,0-2.34-1.49c-2.39-.36-4.69,2-5.25,5.27a6.87,6.87,0,0,0,1,5.08,3.74,3.74,0,0,0,1.38,1.17l-2.16,14.76,2,.29,2.16-14.76c2-.32,3.76-2.4,4.23-5.24A6.87,6.87,0,0,0,125.92,118.35Zm-1,4.75c-.39,2.34-1.9,3.8-3,3.62a1.55,1.55,0,0,1-1-.69,4.93,4.93,0,0,1-.6-3.57c.39-2.34,1.89-3.8,3-3.62a1.55,1.55,0,0,1,1,.69A4.93,4.93,0,0,1,124.9,123.1Z"/><path class="cls-32" d="M122.42,118.21a3.52,3.52,0,0,0-1.82-2.1c-2.19-1-5.06.54-6.53,3.56a6.88,6.88,0,0,0-.53,5.14,3.74,3.74,0,0,0,1,1.52l-6.27,13.54,1.82.84,6.27-13.54a3.48,3.48,0,0,0,.44,0c1.89,0,3.94-1.48,5.1-3.87A6.87,6.87,0,0,0,122.42,118.21Zm-2.32,4.26c-1,2.13-2.88,3.09-3.89,2.62h0a1.55,1.55,0,0,1-.78-.95,4.93,4.93,0,0,1,.44-3.6c.87-1.77,2.29-2.74,3.33-2.74a1.33,1.33,0,0,1,.56.12,1.56,1.56,0,0,1,.78,1A4.93,4.93,0,0,1,120.09,122.48Z"/><path class="cls-30" d="M121.26,118.46a3.52,3.52,0,0,0-1.19-2.51c-1.83-1.57-5-.83-7.24,1.68a6.87,6.87,0,0,0-1.89,4.81,3.74,3.74,0,0,0,.55,1.73l-9.67,11.37,1.52,1.29L113,125.47a3.8,3.8,0,0,0,1.49.3,7.52,7.52,0,0,0,6.77-7.31Zm-3.38,3.49c-1.57,1.77-3.61,2.21-4.45,1.48h0a1.55,1.55,0,0,1-.5-1.12,5.55,5.55,0,0,1,4.78-5.16,1.61,1.61,0,0,1,1.06.33,1.55,1.55,0,0,1,.5,1.12A4.93,4.93,0,0,1,117.88,121.95Z"/><path class="cls-35" d="M119,114.4c-1.57-1.83-4.83-1.59-7.42.55a6.87,6.87,0,0,0-2.6,4.47,3.74,3.74,0,0,0,.28,1.79L98,131l1.31,1.51,11.3-9.74a4.06,4.06,0,0,0,2.15.58,7.23,7.23,0,0,0,4.48-1.77,6.87,6.87,0,0,0,2.6-4.47A3.52,3.52,0,0,0,119,114.4ZM116,120c-1.83,1.51-3.9,1.62-4.62.78a1.55,1.55,0,0,1-.32-1.19,4.94,4.94,0,0,1,1.88-3.09c1.82-1.51,3.9-1.62,4.62-.78a1.56,1.56,0,0,1,.32,1.19A4.94,4.94,0,0,1,116,120Z"/><path class="cls-28" d="M110.63,115.25a9.49,9.49,0,0,0,4.79,4.54c1-.54,1.62-1,1.88-2.08a7.51,7.51,0,0,1-4.29-4.25Z"/><path class="cls-28" d="M122.33,121.83a3.62,3.62,0,0,0,2.5.33,4.75,4.75,0,0,0-1.08-3Z"/><path class="cls-28" d="M137.25,109.25a8.63,8.63,0,0,1-.83,2.25l2.88.63a7.49,7.49,0,0,0,.88-2.42Z"/><path class="cls-28" d="M175.88,142.73a10.42,10.42,0,0,1-.22-3.56l2.91.81a5.64,5.64,0,0,0,.75,3.22Z"/><path class="cls-28" d="M180.84,147.85a17.79,17.79,0,0,0,3.31,1.28l1.81-2.34a13.93,13.93,0,0,1-3.06-1Z"/><polygon class="cls-28" points="190.66 150.45 193.81 150.57 193.88 147.82 190.44 147.67 190.66 150.45"/><polygon class="cls-28" points="194.31 150.6 198.06 150.29 197.94 147.48 194.19 147.79 194.31 150.6"/><path class="cls-28" d="M207.63,146.82A24.72,24.72,0,0,0,210,144.7l-2.66-2.06a6.8,6.8,0,0,1-1.75,2.06Z"/><path class="cls-28" d="M207.75,138.57a9.45,9.45,0,0,0-2.44-2.25l3-1.31a21.82,21.82,0,0,1,2.38,2.72Z"/><polygon class="cls-25" points="118.67 140.42 117.17 139.42 117.58 137.58 119 138.58 118.67 140.42"/><polygon class="cls-32" points="114.08 136.83 111.17 136.58 111.83 135 114.67 135 114.08 136.83"/><polygon class="cls-35" points="103.17 130.83 101 129.83 102.67 128.5 104.92 129.25 103.17 130.83"/><polygon class="cls-32" points="102.67 134.17 100.42 133.67 101.75 132.17 104.25 132.5 102.67 134.17"/></g></g></g></svg>